<svg width="572" height="202" viewBox="0 0 572 202" fill="none" xmlns="http://www.w3.org/2000/svg"><g class="logo-top-row" style="translate: none; rotate: none; scale: none; transform-origin: 0px 0px; transform: matrix(1, 0, 0, 1, 0, 0);" data-svg-origin="0 0" transform="matrix(1,0,0,1,0,0)"><path d="M339.533 1.33496V85.8597H370.674C396.365 85.8597 413.715 72.0688 413.715 43.5973C413.715 15.1258 396.365 1.33496 370.674 1.33496H339.533ZM357.105 71.1791V16.0156H371.119C386.578 16.0156 395.586 25.8026 395.586 43.5973C395.586 61.5032 386.578 71.1791 371.119 71.1791H357.105Z" fill="white" style="fill: #fff;"></path><path d="M306.513 82.968L278.709 1.33496H244.677V85.8597H262.138V4.2266L290.053 85.8597H323.974V1.33496H306.513V82.968Z" fill="white" style="fill: #fff;"></path><path d="M194.49 87.1938C219.403 87.1938 229.635 73.959 229.635 51.9381V1.33447H212.063V53.4951C212.063 66.7299 206.057 73.2917 194.49 73.2917C182.924 73.2917 176.807 66.8411 176.807 53.7176V53.4951V1.33447H159.235V51.9381V52.1605C159.235 74.0702 169.578 87.1938 194.49 87.1938Z" fill="white" style="fill: #fff;"></path><path d="M108.821 87.1939C133.734 87.1939 151.084 70.1778 151.084 43.597C151.084 17.0162 133.734 0 108.821 0C83.9089 0 66.5591 17.0162 66.5591 43.597C66.5591 70.1778 83.9089 87.1939 108.821 87.1939ZM108.821 73.2918C94.252 73.2918 84.6874 61.6141 84.6874 43.597C84.6874 25.5798 94.252 13.9021 108.821 13.9021C123.391 13.9021 132.955 25.5798 132.955 43.597C132.955 61.6141 123.391 73.2918 108.821 73.2918Z" fill="white" style="fill: #fff;"></path><path d="M56.9553 1.33496H0V85.8597H17.6958V52.1239H56.288V35.1943H17.6958V18.2646H56.9553V1.33496Z" fill="white" style="fill: #fff;"></path><path d="M483.535 52.1857H443.719V69.0536H485.314V85.8597H426.147V1.33496H484.313V18.2028H443.719V35.1449H483.535V52.1857Z" fill="white" style="fill: #fff;"></path><path fill-rule="evenodd" clip-rule="evenodd" d="M551.091 49.2694L572 85.8597H551.981L533.63 52.161H518.171V85.8597H500.599V1.33496H534.186C554.539 1.33496 567.218 11.7893 567.218 27.9158C567.218 38.815 561.435 45.0431 551.091 49.2694ZM541.105 18.2646H518.059V35.1943H541.105C545.78 35.1943 549.57 31.4044 549.57 26.7295C549.57 22.0545 545.78 18.2646 541.105 18.2646Z" fill="white" style="fill: #fff;"></path></g><g class="logo-bottom-row" style="translate: none; rotate: none; scale: none; transform-origin: 0px 0px; transform: matrix(1, 0, 0, 1, 0, 0);" data-svg-origin="0 102.27899932861328" transform="matrix(1,0,0,1,0,0)"><g class="logo-bottom-text"><path d="M51.6664 137.498H17.5722V103.638H0V188.163H17.5722V154.402H51.6664V188.163H69.2386V103.638H51.6664V137.498Z" fill="white" style="fill: #fff;"></path><path d="M244.677 103.638V188.163H275.817C301.508 188.163 318.858 174.372 318.858 145.901C318.858 117.429 301.508 103.638 275.817 103.638H244.677ZM262.249 171.382V120.543H276.262C291.721 120.543 300.73 128.106 300.73 145.901C300.73 163.806 291.721 171.382 276.262 171.382H262.249Z" fill="white" style="fill: #fff;"></path><path d="M359.49 189.473C381.51 189.473 396.191 179.575 396.191 162.892C396.191 149.435 387.961 142.429 372.057 138.981L360.046 136.312C348.368 133.642 343.808 131.641 343.808 125.635C343.808 119.74 350.703 116.181 359.156 116.181C367.497 116.181 373.503 119.184 375.727 126.191H394.078C391.631 112.066 379.953 102.279 359.156 102.279C340.694 102.279 326.458 112.511 326.458 127.192C326.458 140.538 335.8 147.656 349.925 150.659L361.936 153.328C373.392 155.886 378.73 157.999 378.73 164.672C378.73 171.234 371.946 175.571 360.157 175.571C350.926 175.571 343.585 171.122 342.362 162.114H324.011C326.236 179.352 340.249 189.473 359.49 189.473Z" fill="white" style="fill: #fff;"></path><path d="M140.306 154.49H100.49V171.358H142.086V188.164H82.9182V103.639H141.085V120.507H100.49V137.449H140.306V154.49Z" fill="white" style="fill: #fff;"></path><rect x="168.926" y="154.428" width="49.4297" height="16.9297" fill="white" style="fill: #fff;"></rect><path fill-rule="evenodd" clip-rule="evenodd" d="M237.83 188.164L209.803 103.639H177.551L149.524 188.164H167.986L168.006 188.102H167.945L193.649 107.284L193.649 107.286L193.677 107.198L204.624 141.716L212.131 165.364H212.139L218.435 185.223L219.291 187.917L219.289 187.915L219.368 188.164H237.83Z" fill="white" style="fill: #fff"></path></g><path d="M406.081 187.498H411.433L404.869 201.637H415.069L422.744 189.316V172.047H406.081V187.498Z" fill="#fff"></path></g></svg>
