<svg width="172" height="222" viewBox="0 0 172 222" fill="none" xmlns="http://www.w3.org/2000/svg">
<path d="M138.65 81.06H135.07C114.53 81.1 96.51 92.28 86.71 108.86C86.57 109.09 86.33 109.26 86.04 109.26C85.75 109.26 85.51 109.1 85.37 108.86C75.62 92.34 57.65 81.17 37.13 81.06H37.07H0.839996V102.41H37.13C57.65 102.52 75.62 113.69 85.37 130.22C85.51 130.45 85.75 130.62 86.04 130.62C86.33 130.62 86.57 130.46 86.71 130.22C96.51 113.63 114.53 102.45 135.08 102.42H135.15H171.18V81.07H138.65V81.06Z" fill="white"/>
<path d="M85.78 75.3C106.413 75.3 123.14 58.5734 123.14 37.94C123.14 17.3067 106.413 0.580017 85.78 0.580017C65.1466 0.580017 48.42 17.3067 48.42 37.94C48.42 58.5734 65.1466 75.3 85.78 75.3Z" fill="white"/>
<path d="M136.68 123.75H135.07C114.53 123.79 96.51 134.97 86.71 151.55C86.57 151.78 86.33 151.95 86.04 151.95C85.75 151.95 85.51 151.79 85.37 151.55C75.62 135.03 57.65 123.86 37.13 123.75H37.07H0.839996V145.1H37.13C57.65 145.21 75.62 156.38 85.37 172.91C85.51 173.14 85.75 173.31 86.04 173.31C86.33 173.31 86.57 173.15 86.71 172.91C96.51 156.32 114.53 145.14 135.08 145.11H135.15H171.18V123.76H136.69L136.68 123.75Z" fill="white"/>
<path d="M16.8 201.36H14.15C14.15 201.36 14.08 201.39 14.08 201.43V215.94L4.62 201.4C4.62 201.4 4.59 201.37 4.56 201.37H1.01C1.01 201.37 0.940002 201.4 0.940002 201.44V220.65C0.940002 220.65 0.970002 220.72 1.01 220.72H3.67C3.67 220.72 3.74 220.69 3.74 220.65V205.22L13.99 220.69C13.99 220.69 14.02 220.72 14.05 220.72H16.81C16.81 220.72 16.88 220.69 16.88 220.65V201.44C16.88 201.44 16.85 201.37 16.81 201.37L16.8 201.36Z" fill="white"/>
<path d="M37.47 201.41H34.41C34.41 201.41 34.36 201.43 34.35 201.45L26.71 220.66C26.71 220.66 26.71 220.71 26.71 220.72C26.72 220.74 26.74 220.75 26.77 220.75H29.61C29.61 220.75 29.66 220.73 29.67 220.71L31.68 215.39H40.09L42.16 220.71C42.16 220.71 42.2 220.75 42.22 220.75H45.09C45.09 220.75 45.13 220.74 45.15 220.72C45.16 220.7 45.17 220.68 45.15 220.66L37.51 201.45C37.51 201.45 37.47 201.41 37.45 201.41H37.47ZM32.69 212.79L35.87 204.44L39.1 212.79H32.69Z" fill="white"/>
<path d="M62.51 209.9L59.64 209.28C58.11 208.95 57.23 207.96 57.23 206.56C57.23 204.78 58.8 203.43 60.87 203.43C62.17 203.43 64.47 204.11 64.87 206.65C64.87 206.67 64.89 206.69 64.9 206.7C64.92 206.71 64.94 206.71 64.96 206.7L67.34 205.86C67.34 205.86 67.39 205.81 67.39 205.78C67.15 204.65 65.99 200.96 60.82 200.96C57.35 200.96 54.41 203.61 54.41 206.75C54.41 209.48 56.14 211.42 59.15 212.07L61.89 212.67C63.65 213.04 64.71 214.13 64.71 215.58C64.71 217.03 63.69 218.57 60.82 218.57C57.74 218.57 56.45 216.39 56.28 214.51C56.28 214.49 56.27 214.47 56.25 214.46C56.23 214.45 56.21 214.45 56.19 214.46L53.64 215.27C53.64 215.27 53.59 215.31 53.59 215.34C53.93 218.01 56.04 221.12 60.84 221.12C64.66 221.12 67.55 218.64 67.55 215.36C67.55 212.6 65.71 210.61 62.51 209.9Z" fill="white"/>
<path d="M95.36 214.8L93 213.93C93 213.93 92.96 213.93 92.94 213.93C92.92 213.93 92.91 213.95 92.9 213.97C92.03 216.87 89.83 218.53 86.84 218.53C83.59 218.53 80.08 216.18 80.08 211.01C80.08 205.84 83.58 203.52 86.84 203.52C90.1 203.52 92.03 205.11 92.76 207.99C92.76 208.01 92.78 208.02 92.79 208.03C92.81 208.03 92.83 208.04 92.85 208.03L95.31 207.16C95.31 207.16 95.36 207.11 95.35 207.08C94.34 203.23 91.15 200.93 86.83 200.93C84.38 200.93 81.97 201.88 80.23 203.54C78.27 205.4 77.23 207.98 77.23 211C77.23 214.02 78.24 216.62 80.16 218.47C81.91 220.16 84.28 221.09 86.84 221.09C91.01 221.09 94.29 218.7 95.39 214.86C95.39 214.83 95.39 214.79 95.35 214.78L95.36 214.8Z" fill="white"/>
<path d="M117.98 201.36H106.3C106.3 201.36 106.23 201.39 106.23 201.43V220.64C106.23 220.64 106.26 220.71 106.3 220.71H117.98C117.98 220.71 118.05 220.68 118.05 220.64V218.18C118.05 218.18 118.02 218.11 117.98 218.11H109.03V212.37H117.14C117.14 212.37 117.21 212.34 117.21 212.3V209.81C117.21 209.81 117.18 209.74 117.14 209.74H109.03V203.97H117.98C117.98 203.97 118.05 203.94 118.05 203.9V201.44C118.05 201.44 118.02 201.37 117.98 201.37V201.36Z" fill="white"/>
<path d="M145.76 201.36H143.11C143.11 201.36 143.04 201.39 143.04 201.43V215.94L133.58 201.4C133.58 201.4 133.55 201.37 133.52 201.37H129.97C129.97 201.37 129.9 201.4 129.9 201.44V220.65C129.9 220.65 129.93 220.72 129.97 220.72H132.63C132.63 220.72 132.7 220.69 132.7 220.65V205.22L142.95 220.69C142.95 220.69 142.98 220.72 143.01 220.72H145.77C145.77 220.72 145.84 220.69 145.84 220.65V201.44C145.84 201.44 145.81 201.37 145.77 201.37L145.76 201.36Z" fill="white"/>
<path d="M154.94 201.43V203.9C154.94 203.9 154.97 203.97 155.01 203.97H161.36V220.64C161.36 220.64 161.39 220.71 161.43 220.71H164.09C164.09 220.71 164.16 220.68 164.16 220.64V203.97H170.51V201.37H155.01C155.01 201.37 154.94 201.4 154.94 201.44V201.43Z" fill="white"/>
</svg>
