<svg width="597" height="195" viewBox="0 0 597 195" fill="none" xmlns="http://www.w3.org/2000/svg">
<path d="M159.13 164.713C141.852 164.713 127.873 150.708 127.873 133.456V86.6499H168.187V59.4247H127.873V14.3984L96.9831 30.8906V59.4247H38.3966C-2.44112 59.4247 -13.1741 108.639 18.2395 126.964L50.1768 148.43C57.2448 153.666 54.3652 164.66 44.4176 164.66H0.962017V192.147H44.4176C85.5171 192.147 95.9884 142.933 64.5747 124.608L32.8992 103.142C25.8312 97.9064 28.449 86.6499 38.3966 86.6499H96.9831V133.823C96.9831 169.425 121.59 192.174 158.763 192.174H168.187V164.713H159.13Z" fill="#E6007A"/>
<path d="M247.295 86.6509C230.018 86.6509 216.039 100.656 216.039 117.908V192.175H185.148V117.541C185.148 81.9389 209.756 59.4258 246.929 59.4258H258.63V86.6509H247.295Z" fill="#E6007A"/>
<path d="M290.936 0C301.669 0 310.308 8.63876 310.308 19.3718C310.308 30.1048 301.669 38.7435 290.936 38.7435C280.203 38.7435 271.564 30.1048 271.564 19.3718C271.564 8.63876 280.203 0 290.936 0ZM275.491 59.4242H306.381V192.147H275.491V59.4242Z" fill="#E6007A"/>
<path d="M391.064 192.149C348.132 192.149 319.336 165.709 319.336 125.656C319.336 85.6039 348.132 59.4259 391.064 59.4259H410.959V1.04883H441.849V192.149H391.064ZM391.064 164.662H410.959V86.651H391.064C366.718 86.651 350.226 102.358 350.226 125.656C350.226 148.955 366.718 164.662 391.064 164.662Z" fill="#E6007A"/>
<path d="M505.856 164.166C511.877 167.307 518.683 169.14 526.013 169.14C549.573 169.14 568.421 150.03 568.421 125.684H596.694C596.694 164.428 565.28 194.794 524.966 194.794C484.652 194.794 455.07 164.689 455.07 126.731C455.07 88.7732 486.746 56.8359 526.798 56.8359C546.432 56.8359 569.73 64.1658 584.913 85.1082L505.856 164.166ZM488.055 145.58L546.17 87.4643C539.887 84.0611 533.081 82.4904 526.013 82.4904C502.191 82.4904 483.343 101.6 483.343 125.684C483.343 133.014 484.913 139.82 488.055 145.58Z" fill="#E6007A"/>
</svg>
