<svg width="1920" height="1080" viewBox="0 0 1920 1080" fill="none" xmlns="http://www.w3.org/2000/svg">
<g clip-path="url(#clip0_88_3488)">
<rect width="1920" height="1080" fill="#081215"/>
<path d="M1006.84 347.158C950.756 291.08 871.001 238.794 789.79 220.044C712.833 202.276 635.648 214.013 565.821 283.839C525.385 324.275 506.815 354.893 497.284 378.112C487.798 401.224 485.08 421.993 483.117 449.305C481.29 474.714 480.139 514.695 467.38 555.851C453.663 600.1 428.209 642.774 384.237 686.746C337.099 733.884 272.631 753.154 212.59 760.187C151.328 767.362 83.9553 763.078 19.0904 753.552C-110.829 734.471 -244.868 692.179 -329.332 658.985L-270.196 508.512C-193.694 538.578 -71.889 576.781 42.5803 593.593C99.9088 602.012 151.868 604.52 193.782 599.61C236.918 594.558 259.479 582.865 269.917 572.426C297.913 544.43 308.024 523.872 312.951 507.98C318.837 488.995 319.405 471.921 321.864 437.717C324.186 405.414 328.32 364.001 347.727 316.721C367.091 269.547 399.465 221.555 451.501 169.519C566.615 54.4066 703.489 34.1931 826.159 62.515C944.575 89.8552 1050.02 161.701 1121.15 232.838L1006.84 347.158ZM695.011 1683.33C661.817 1598.86 619.525 1464.82 600.444 1334.91C590.918 1270.04 586.633 1202.67 593.809 1141.41C600.841 1081.36 620.112 1016.9 667.25 969.759C711.222 925.787 753.896 900.333 798.145 886.615C839.301 873.857 879.281 872.705 904.69 870.879C932.002 868.916 952.772 866.198 975.884 856.711C999.103 847.18 1029.72 828.611 1070.16 788.176C1139.98 718.348 1151.72 641.163 1133.95 564.206C1115.2 482.995 1062.92 403.24 1006.84 347.161L1121.16 232.841C1192.3 303.979 1264.14 409.421 1291.48 527.837C1319.8 650.507 1299.59 787.381 1184.48 902.495C1132.44 954.53 1084.45 986.905 1037.28 1006.27C989.995 1025.68 948.583 1029.81 916.279 1032.13C882.075 1034.59 865.001 1035.16 846.016 1041.04C830.123 1045.97 809.566 1056.08 781.57 1084.08C771.131 1094.52 759.438 1117.08 754.385 1160.21C749.476 1202.13 751.983 1254.09 760.403 1311.42C777.215 1425.88 815.418 1547.69 845.484 1624.19L695.011 1683.33Z" fill="url(#paint0_linear_88_3488)"/>
<path d="M343.08 104.64C340.68 104.64 338.6 104.2 336.84 103.32C335.107 102.44 333.76 101.187 332.8 99.56C331.84 97.9067 331.36 95.9733 331.36 93.76V75.56H337.44V93.76C337.44 95.6 337.92 97.0267 338.88 98.04C339.867 99.0267 341.267 99.52 343.08 99.52C344.893 99.52 346.28 99.0267 347.24 98.04C348.2 97.0267 348.68 95.6 348.68 93.76V75.56H354.76V93.76C354.76 95.9733 354.28 97.9067 353.32 99.56C352.387 101.187 351.04 102.44 349.28 103.32C347.52 104.2 345.453 104.64 343.08 104.64ZM375.147 104V80.72H366.667V75.6H389.787V80.72H381.267V104H375.147ZM399.329 104.48C397.142 104.48 395.235 104.027 393.609 103.12C391.982 102.187 390.715 100.88 389.809 99.2C388.902 97.52 388.449 95.5467 388.449 93.28C388.449 91.0133 388.902 89.0533 389.809 87.4C390.715 85.72 391.982 84.4133 393.609 83.48C395.235 82.5467 397.142 82.08 399.329 82.08C401.515 82.08 403.422 82.5467 405.049 83.48C406.675 84.4133 407.942 85.72 408.849 87.4C409.755 89.0533 410.209 91.0133 410.209 93.28C410.209 95.5467 409.755 97.52 408.849 99.2C407.942 100.88 406.675 102.187 405.049 103.12C403.422 104.027 401.515 104.48 399.329 104.48ZM399.329 99.88C400.822 99.88 401.982 99.3067 402.809 98.16C403.635 96.9867 404.049 95.36 404.049 93.28C404.049 91.2 403.635 89.5867 402.809 88.44C401.982 87.2667 400.822 86.68 399.329 86.68C397.835 86.68 396.675 87.2667 395.849 88.44C395.022 89.5867 394.609 91.2 394.609 93.28C394.609 95.36 395.022 96.9867 395.849 98.16C396.675 99.3067 397.835 99.88 399.329 99.88ZM413.945 104V75.6H419.945V91.36L427.905 82.56H435.105L426.785 91.4L435.345 104H428.785L422.905 94.8L419.945 97.96V104H413.945ZM446.632 104.48C444.445 104.48 442.538 104.027 440.912 103.12C439.312 102.187 438.058 100.88 437.152 99.2C436.272 97.52 435.832 95.5467 435.832 93.28C435.832 91.0133 436.272 89.0533 437.152 87.4C438.058 85.72 439.312 84.4133 440.912 83.48C442.512 82.5467 444.405 82.08 446.592 82.08C448.725 82.08 450.578 82.5467 452.152 83.48C453.725 84.4133 454.938 85.7467 455.792 87.48C456.672 89.2133 457.112 91.28 457.112 93.68V94.88H442.032C442.112 96.5867 442.565 97.8533 443.392 98.68C444.245 99.5067 445.365 99.92 446.752 99.92C447.765 99.92 448.605 99.7067 449.272 99.28C449.965 98.8533 450.458 98.2 450.752 97.32L456.792 97.68C456.232 99.8133 455.045 101.48 453.232 102.68C451.418 103.88 449.218 104.48 446.632 104.48ZM442.032 91.2H450.952C450.872 89.6267 450.432 88.4533 449.632 87.68C448.858 86.9067 447.845 86.52 446.592 86.52C445.338 86.52 444.298 86.9333 443.472 87.76C442.672 88.56 442.192 89.7067 442.032 91.2ZM460.82 104V82.56H466.22L466.46 88.84L465.7 88.64C465.913 87.04 466.34 85.76 466.98 84.8C467.646 83.84 468.473 83.1467 469.46 82.72C470.446 82.2933 471.526 82.08 472.7 82.08C474.246 82.08 475.553 82.4133 476.62 83.08C477.713 83.7467 478.54 84.6933 479.1 85.92C479.686 87.12 479.98 88.5467 479.98 90.2V104H473.98V92.2C473.98 91.0533 473.886 90.08 473.7 89.28C473.513 88.48 473.18 87.88 472.7 87.48C472.22 87.0533 471.553 86.84 470.7 86.84C469.446 86.84 468.486 87.3067 467.82 88.24C467.153 89.1467 466.82 90.4667 466.82 92.2V104H460.82ZM494.485 104.48C492.298 104.48 490.392 104.027 488.765 103.12C487.138 102.187 485.872 100.88 484.965 99.2C484.058 97.52 483.605 95.5467 483.605 93.28C483.605 91.0133 484.058 89.0533 484.965 87.4C485.872 85.72 487.138 84.4133 488.765 83.48C490.392 82.5467 492.298 82.08 494.485 82.08C496.672 82.08 498.578 82.5467 500.205 83.48C501.832 84.4133 503.098 85.72 504.005 87.4C504.912 89.0533 505.365 91.0133 505.365 93.28C505.365 95.5467 504.912 97.52 504.005 99.2C503.098 100.88 501.832 102.187 500.205 103.12C498.578 104.027 496.672 104.48 494.485 104.48ZM494.485 99.88C495.978 99.88 497.138 99.3067 497.965 98.16C498.792 96.9867 499.205 95.36 499.205 93.28C499.205 91.2 498.792 89.5867 497.965 88.44C497.138 87.2667 495.978 86.68 494.485 86.68C492.992 86.68 491.832 87.2667 491.005 88.44C490.178 89.5867 489.765 91.2 489.765 93.28C489.765 95.36 490.178 96.9867 491.005 98.16C491.832 99.3067 492.992 99.88 494.485 99.88ZM509.101 104V82.56H514.501L514.701 87.72L514.141 87.48C514.434 86.3333 514.874 85.36 515.461 84.56C516.074 83.76 516.808 83.1467 517.661 82.72C518.514 82.2933 519.448 82.08 520.461 82.08C522.248 82.08 523.688 82.6 524.781 83.64C525.901 84.68 526.621 86.08 526.941 87.84L526.181 87.88C526.421 86.6267 526.834 85.5733 527.421 84.72C528.034 83.84 528.781 83.1867 529.661 82.76C530.541 82.3067 531.528 82.08 532.621 82.08C534.114 82.08 535.394 82.3867 536.461 83C537.528 83.6133 538.354 84.5333 538.941 85.76C539.528 86.96 539.821 88.44 539.821 90.2V104H533.821V91.88C533.821 90.2 533.568 88.9467 533.061 88.12C532.554 87.2667 531.728 86.84 530.581 86.84C529.861 86.84 529.248 87.04 528.741 87.44C528.234 87.84 527.834 88.4267 527.541 89.2C527.274 89.9467 527.141 90.8667 527.141 91.96V104H521.741V91.96C521.741 90.3067 521.501 89.04 521.021 88.16C520.541 87.28 519.714 86.84 518.541 86.84C517.821 86.84 517.194 87.04 516.661 87.44C516.154 87.84 515.768 88.4267 515.501 89.2C515.234 89.9733 515.101 90.8933 515.101 91.96V104H509.101ZM544.765 104V82.56H550.765V104H544.765ZM544.645 79.92V75.12H550.845V79.92H544.645ZM565.344 104.48C563.158 104.48 561.251 104.027 559.624 103.12C557.998 102.187 556.731 100.88 555.824 99.2C554.918 97.52 554.464 95.5467 554.464 93.28C554.464 91.0133 554.918 89.0533 555.824 87.4C556.731 85.72 557.998 84.4133 559.624 83.48C561.251 82.5467 563.158 82.08 565.344 82.08C567.238 82.08 568.931 82.4133 570.424 83.08C571.944 83.7467 573.171 84.7067 574.104 85.96C575.038 87.2133 575.611 88.72 575.824 90.48L569.624 90.76C569.438 89.4267 568.958 88.4267 568.184 87.76C567.438 87.0667 566.491 86.72 565.344 86.72C563.851 86.72 562.691 87.2933 561.864 88.44C561.038 89.5867 560.624 91.2 560.624 93.28C560.624 95.36 561.038 96.9867 561.864 98.16C562.691 99.3067 563.851 99.88 565.344 99.88C566.491 99.88 567.451 99.5333 568.224 98.84C568.998 98.12 569.464 97.04 569.624 95.6L575.824 95.84C575.638 97.6 575.078 99.1333 574.144 100.44C573.238 101.72 572.024 102.72 570.504 103.44C569.011 104.133 567.291 104.48 565.344 104.48ZM588.3 104.48C586.087 104.48 584.233 104.173 582.74 103.56C581.247 102.92 580.1 102.067 579.3 101C578.527 99.9067 578.087 98.6533 577.98 97.24L584.06 97.04C584.247 98.0533 584.673 98.84 585.34 99.4C586.007 99.96 586.993 100.24 588.3 100.24C589.367 100.24 590.193 100.067 590.78 99.72C591.393 99.3733 591.7 98.84 591.7 98.12C591.7 97.6667 591.593 97.2933 591.38 97C591.167 96.68 590.74 96.4133 590.1 96.2C589.487 95.96 588.567 95.7467 587.34 95.56C585.073 95.16 583.3 94.6933 582.02 94.16C580.74 93.6267 579.833 92.9333 579.3 92.08C578.767 91.2267 578.5 90.1867 578.5 88.96C578.5 86.9067 579.287 85.2533 580.86 84C582.46 82.72 584.847 82.08 588.02 82.08C590.047 82.08 591.74 82.4 593.1 83.04C594.487 83.68 595.553 84.56 596.3 85.68C597.073 86.7733 597.553 88.0267 597.74 89.44L591.7 89.68C591.62 88.9867 591.407 88.4 591.06 87.92C590.74 87.4133 590.327 87.0267 589.82 86.76C589.313 86.4667 588.7 86.32 587.98 86.32C586.913 86.32 586.087 86.5467 585.5 87C584.94 87.4267 584.66 88 584.66 88.72C584.66 89.2533 584.78 89.6933 585.02 90.04C585.287 90.36 585.713 90.6267 586.3 90.84C586.887 91.0533 587.673 91.2267 588.66 91.36C590.953 91.68 592.767 92.1333 594.1 92.72C595.46 93.28 596.433 93.9867 597.02 94.84C597.607 95.6933 597.9 96.7467 597.9 98C597.9 99.3867 597.5 100.56 596.7 101.52C595.9 102.48 594.78 103.213 593.34 103.72C591.927 104.227 590.247 104.48 588.3 104.48ZM622.653 104.64C620.2 104.64 618.093 104.227 616.333 103.4C614.573 102.573 613.2 101.413 612.213 99.92C611.226 98.4267 610.666 96.6667 610.533 94.64L616.653 94.36C616.813 95.48 617.133 96.44 617.613 97.24C618.12 98.0133 618.786 98.6 619.613 99C620.466 99.4 621.506 99.6 622.733 99.6C623.746 99.6 624.6 99.48 625.293 99.24C626.013 99 626.56 98.64 626.933 98.16C627.306 97.6533 627.493 97.04 627.493 96.32C627.493 95.6533 627.333 95.08 627.013 94.6C626.693 94.0933 626.08 93.64 625.173 93.24C624.266 92.8133 622.933 92.4 621.173 92C618.746 91.44 616.786 90.8133 615.293 90.12C613.826 89.4267 612.76 88.56 612.093 87.52C611.426 86.4533 611.093 85.12 611.093 83.52C611.093 81.8133 611.506 80.32 612.333 79.04C613.186 77.76 614.413 76.76 616.013 76.04C617.613 75.32 619.52 74.96 621.733 74.96C624.08 74.96 626.066 75.3733 627.693 76.2C629.32 77.0267 630.586 78.16 631.493 79.6C632.426 81.04 632.986 82.6933 633.173 84.56L627.093 84.88C627.013 83.8933 626.746 83.04 626.293 82.32C625.84 81.5733 625.226 81 624.453 80.6C623.68 80.2 622.746 80 621.653 80C620.266 80 619.173 80.3067 618.373 80.92C617.6 81.5333 617.213 82.3333 617.213 83.32C617.213 84.0133 617.386 84.6 617.733 85.08C618.106 85.5333 618.706 85.9333 619.533 86.28C620.386 86.6267 621.586 86.96 623.133 87.28C625.773 87.8133 627.853 88.4933 629.373 89.32C630.92 90.12 632.013 91.08 632.653 92.2C633.293 93.32 633.613 94.6 633.613 96.04C633.613 97.8 633.16 99.3333 632.253 100.64C631.373 101.92 630.106 102.907 628.453 103.6C626.826 104.293 624.893 104.64 622.653 104.64ZM638.32 110V82.56H644.08L644.2 87.08L643.72 86.88C644.253 85.3333 645.12 84.1467 646.32 83.32C647.52 82.4933 648.92 82.08 650.52 82.08C652.52 82.08 654.186 82.5733 655.52 83.56C656.853 84.5467 657.853 85.8933 658.52 87.6C659.213 89.28 659.56 91.1733 659.56 93.28C659.56 95.36 659.213 97.2533 658.52 98.96C657.853 100.667 656.84 102.013 655.48 103C654.146 103.987 652.48 104.48 650.48 104.48C649.44 104.48 648.466 104.293 647.56 103.92C646.653 103.52 645.866 102.973 645.2 102.28C644.56 101.587 644.093 100.76 643.8 99.8L644.32 99.48V110H638.32ZM648.84 99.88C650.253 99.88 651.36 99.2933 652.16 98.12C652.986 96.9467 653.4 95.3333 653.4 93.28C653.4 91.2267 652.986 89.6133 652.16 88.44C651.36 87.2667 650.253 86.68 648.84 86.68C647.906 86.68 647.093 86.9333 646.4 87.44C645.733 87.92 645.213 88.6533 644.84 89.64C644.493 90.6267 644.32 91.84 644.32 93.28C644.32 94.72 644.493 95.9333 644.84 96.92C645.213 97.9067 645.733 98.6533 646.4 99.16C647.093 99.64 647.906 99.88 648.84 99.88ZM669.076 104C667.316 104 665.943 103.56 664.956 102.68C663.969 101.8 663.476 100.373 663.476 98.4V75.6H669.476V97.76C669.476 98.4 669.623 98.8533 669.916 99.12C670.209 99.3867 670.636 99.52 671.196 99.52H672.636V104H669.076ZM675.702 104V82.56H681.703V104H675.702ZM675.583 79.92V75.12H681.783V79.92H675.583ZM694.661 104C692.447 104 690.821 103.493 689.781 102.48C688.741 101.44 688.221 99.8 688.221 97.56V77.52H694.221V96.84C694.221 97.88 694.434 98.5867 694.861 98.96C695.314 99.3333 695.981 99.52 696.861 99.52H699.861V104H694.661ZM684.781 87.04V82.56H699.861V87.04H684.781Z" fill="white"/>
<path d="M311 60.5V119.5" stroke="white" stroke-width="5"/>
<path d="M234.711 107.016C232.338 107.016 230.411 106.57 228.923 105.298C227.472 103.995 226.856 102.223 226.856 100.145V80.3894C226.856 78.2803 227.472 76.5076 228.923 75.2359C230.411 73.9642 232.338 73.5181 234.711 73.5181H247.525C249.933 73.5181 251.861 73.9642 253.313 75.2359C254.764 76.5076 255.379 78.2803 255.379 80.3894V100.145C255.379 102.223 254.764 103.995 253.313 105.298C251.861 106.57 249.933 107.016 247.525 107.016H234.711ZM244.632 100.574C245.482 100.574 246.238 100.548 246.699 100.145C247.194 99.7414 247.525 99.1712 247.525 98.4268V82.1073C247.525 81.3629 247.194 80.7927 246.699 80.3894C246.238 79.9862 245.482 79.96 244.632 79.96H237.604C236.719 79.96 235.998 79.9862 235.537 80.3894C235.077 80.7927 234.711 81.3629 234.711 82.1073V98.4268C234.711 99.1712 235.077 99.7414 235.537 100.145C235.998 100.548 236.719 100.574 237.604 100.574H244.632Z" fill="white"/>
<path d="M219.56 106.684H211.6V73.8496H219.56V106.684Z" fill="white"/>
<path d="M183.634 106.684H175.78V73.8496H184.048L196.449 93.9152V88.1068V73.8496H204.303V106.684H196.036L183.634 86.6186L183.634 92.4271V106.684Z" fill="white"/>
<path d="M270.53 106.684H262.676V73.8496H270.944L283.345 93.9152V88.1068V73.8496H291.199V106.684H282.932L270.53 86.6186L270.53 92.4271V106.684Z" fill="white"/>
<path d="M148.169 107.016C145.794 107.016 143.855 106.57 142.365 105.293C140.911 103.985 140.292 102.211 140.292 100.124V73.8496H148.169V98.4013C148.169 99.1487 148.538 99.7194 148.999 100.124C149.46 100.529 150.185 100.555 151.072 100.555H157.705C158.591 100.555 159.317 100.529 159.778 100.124C160.239 99.7194 160.607 99.1487 160.607 98.4013V73.8496H168.484V100.124C168.484 102.211 167.865 103.985 166.411 105.293C164.957 106.57 163.018 107.016 160.607 107.016H148.169Z" fill="white"/>
<path fill-rule="evenodd" clip-rule="evenodd" d="M115.336 100.383C115.336 111.373 106.427 120.283 95.4364 120.283C84.4461 120.283 75.5366 111.373 75.5366 100.383H85.2834C85.2834 105.878 89.9412 110.333 95.4364 110.333C100.932 110.333 105.589 105.878 105.589 100.383H115.336Z" fill="white"/>
<path d="M120.556 95.1631H130.342V85.3763H120.556V95.1631Z" fill="white"/>
<path d="M115.336 85.3765H105.549V95.1632H115.336V85.3765Z" fill="white"/>
<path d="M90.5428 95.1631H100.33V85.3763H90.5428V95.1631Z" fill="white"/>
<path d="M85.3234 85.3765H75.5366V95.1632H85.3234V85.3765Z" fill="white"/>
<path fill-rule="evenodd" clip-rule="evenodd" d="M90.543 80.4828C90.543 69.4924 99.4525 60.583 110.443 60.583C121.433 60.583 130.343 69.4924 130.343 80.4828H120.596C120.596 74.9876 115.938 70.5329 110.443 70.5329C104.948 70.5329 100.29 74.9876 100.29 80.4828H90.543Z" fill="white"/>
<mask id="path-15-inside-1_88_3488" fill="white">
<path d="M1369.67 467.403C1383.39 528.109 1383.45 591.104 1369.84 651.835C1356.23 712.565 1329.29 769.512 1290.98 818.558L960 560L1369.67 467.403Z"/>
</mask>
<path d="M1369.67 467.403C1383.39 528.109 1383.45 591.104 1369.84 651.835C1356.23 712.565 1329.29 769.512 1290.98 818.558L960 560L1369.67 467.403Z" fill="#FF801F" stroke="#081215" stroke-width="10" mask="url(#path-15-inside-1_88_3488)"/>
<mask id="path-16-inside-2_88_3488" fill="white">
<path d="M1291.08 818.426C1236.56 888.283 1161.33 939.103 1076.17 963.615C991.008 988.126 900.275 985.072 816.955 954.89L960 560L1291.08 818.426Z"/>
</mask>
<path d="M1291.08 818.426C1236.56 888.283 1161.33 939.103 1076.17 963.615C991.008 988.126 900.275 985.072 816.955 954.89L960 560L1291.08 818.426Z" fill="#FF6F00" stroke="#081215" stroke-width="10" mask="url(#path-16-inside-2_88_3488)"/>
<mask id="path-17-inside-3_88_3488" fill="white">
<path d="M816.749 954.815C733.445 924.59 661.835 868.789 612.167 795.398C562.499 722.006 537.317 634.785 540.226 546.214L960 560L816.749 954.815Z"/>
</mask>
<path d="M816.749 954.815C733.445 924.59 661.835 868.789 612.167 795.398C562.499 722.006 537.317 634.785 540.226 546.214L960 560L816.749 954.815Z" fill="white" stroke="#081215" stroke-width="10" mask="url(#path-17-inside-3_88_3488)"/>
<mask id="path-18-inside-4_88_3488" fill="white">
<path d="M540.22 546.396C542.007 491.27 554.634 437.035 577.38 386.789C600.127 336.542 632.547 291.268 672.79 253.551L960 560L540.22 546.396Z"/>
</mask>
<path d="M540.22 546.396C542.007 491.27 554.634 437.035 577.38 386.789C600.127 336.542 632.547 291.268 672.79 253.551L960 560L540.22 546.396Z" fill="#FFDCC2" stroke="#081215" stroke-width="10" mask="url(#path-18-inside-4_88_3488)"/>
<mask id="path-19-inside-5_88_3488" fill="white">
<path d="M672.811 253.532C750.45 180.777 852.809 140.201 959.21 140.001L960 560L672.811 253.532Z"/>
</mask>
<path d="M672.811 253.532C750.45 180.777 852.809 140.201 959.21 140.001L960 560L672.811 253.532Z" fill="#FFC599" stroke="#081215" stroke-width="10" mask="url(#path-19-inside-5_88_3488)"/>
<mask id="path-20-inside-6_88_3488" fill="white">
<path d="M960 140C1055.37 140 1147.91 172.461 1222.38 232.044C1296.86 291.627 1348.83 374.783 1369.76 467.833L960 560V140Z"/>
</mask>
<path d="M960 140C1055.37 140 1147.91 172.461 1222.38 232.044C1296.86 291.627 1348.83 374.783 1369.76 467.833L960 560V140Z" fill="#FFA35C" stroke="#081215" stroke-width="10" mask="url(#path-20-inside-6_88_3488)"/>
<path d="M1588.78 592V574.96H1600.63V578.032H1592.42V581.944H1600.34V584.968H1592.42V588.928H1600.82V592H1588.78ZM1608.99 592.288C1607.68 592.288 1606.54 592.016 1605.56 591.472C1604.59 590.912 1603.83 590.128 1603.28 589.12C1602.74 588.112 1602.47 586.928 1602.47 585.568C1602.47 584.208 1602.74 583.032 1603.28 582.04C1603.83 581.032 1604.59 580.248 1605.56 579.688C1606.54 579.128 1607.68 578.848 1608.99 578.848C1610.13 578.848 1611.15 579.048 1612.04 579.448C1612.95 579.848 1613.69 580.424 1614.25 581.176C1614.81 581.928 1615.15 582.832 1615.28 583.888L1611.56 584.056C1611.45 583.256 1611.16 582.656 1610.7 582.256C1610.25 581.84 1609.68 581.632 1608.99 581.632C1608.1 581.632 1607.4 581.976 1606.91 582.664C1606.41 583.352 1606.16 584.32 1606.16 585.568C1606.16 586.816 1606.41 587.792 1606.91 588.496C1607.4 589.184 1608.1 589.528 1608.99 589.528C1609.68 589.528 1610.26 589.32 1610.72 588.904C1611.19 588.472 1611.47 587.824 1611.56 586.96L1615.28 587.104C1615.17 588.16 1614.83 589.08 1614.27 589.864C1613.73 590.632 1613 591.232 1612.09 591.664C1611.19 592.08 1610.16 592.288 1608.99 592.288ZM1623.1 592.288C1621.79 592.288 1620.65 592.016 1619.67 591.472C1618.7 590.912 1617.94 590.128 1617.39 589.12C1616.85 588.112 1616.58 586.928 1616.58 585.568C1616.58 584.208 1616.85 583.032 1617.39 582.04C1617.94 581.032 1618.7 580.248 1619.67 579.688C1620.65 579.128 1621.79 578.848 1623.1 578.848C1624.42 578.848 1625.56 579.128 1626.54 579.688C1627.51 580.248 1628.27 581.032 1628.82 582.04C1629.36 583.032 1629.63 584.208 1629.63 585.568C1629.63 586.928 1629.36 588.112 1628.82 589.12C1628.27 590.128 1627.51 590.912 1626.54 591.472C1625.56 592.016 1624.42 592.288 1623.1 592.288ZM1623.1 589.528C1624 589.528 1624.7 589.184 1625.19 588.496C1625.69 587.792 1625.94 586.816 1625.94 585.568C1625.94 584.32 1625.69 583.352 1625.19 582.664C1624.7 581.96 1624 581.608 1623.1 581.608C1622.21 581.608 1621.51 581.96 1621.02 582.664C1620.52 583.352 1620.27 584.32 1620.27 585.568C1620.27 586.816 1620.52 587.792 1621.02 588.496C1621.51 589.184 1622.21 589.528 1623.1 589.528ZM1637.37 592.288C1636.04 592.288 1634.93 592.104 1634.03 591.736C1633.14 591.352 1632.45 590.84 1631.97 590.2C1631.51 589.544 1631.24 588.792 1631.18 587.944L1634.83 587.824C1634.94 588.432 1635.19 588.904 1635.59 589.24C1635.99 589.576 1636.59 589.744 1637.37 589.744C1638.01 589.744 1638.51 589.64 1638.86 589.432C1639.23 589.224 1639.41 588.904 1639.41 588.472C1639.41 588.2 1639.35 587.976 1639.22 587.8C1639.09 587.608 1638.83 587.448 1638.45 587.32C1638.08 587.176 1637.53 587.048 1636.79 586.936C1635.43 586.696 1634.37 586.416 1633.6 586.096C1632.83 585.776 1632.29 585.36 1631.97 584.848C1631.65 584.336 1631.49 583.712 1631.49 582.976C1631.49 581.744 1631.96 580.752 1632.91 580C1633.87 579.232 1635.3 578.848 1637.2 578.848C1638.42 578.848 1639.43 579.04 1640.25 579.424C1641.08 579.808 1641.72 580.336 1642.17 581.008C1642.63 581.664 1642.92 582.416 1643.03 583.264L1639.41 583.408C1639.36 582.992 1639.23 582.64 1639.03 582.352C1638.83 582.048 1638.59 581.816 1638.28 581.656C1637.98 581.48 1637.61 581.392 1637.18 581.392C1636.54 581.392 1636.04 581.528 1635.69 581.8C1635.35 582.056 1635.19 582.4 1635.19 582.832C1635.19 583.152 1635.26 583.416 1635.4 583.624C1635.56 583.816 1635.82 583.976 1636.17 584.104C1636.52 584.232 1636.99 584.336 1637.59 584.416C1638.96 584.608 1640.05 584.88 1640.85 585.232C1641.67 585.568 1642.25 585.992 1642.6 586.504C1642.95 587.016 1643.13 587.648 1643.13 588.4C1643.13 589.232 1642.89 589.936 1642.41 590.512C1641.93 591.088 1641.26 591.528 1640.39 591.832C1639.55 592.136 1638.54 592.288 1637.37 592.288ZM1645.94 595.6V592.912H1647.64C1648.06 592.912 1648.36 592.848 1648.55 592.72C1648.76 592.608 1648.92 592.4 1649.03 592.096L1649.3 591.352H1648.31L1643.8 579.136H1647.47L1650.42 587.992L1653.18 579.136H1656.86L1651.91 593.224C1651.62 594.072 1651.21 594.68 1650.66 595.048C1650.12 595.416 1649.36 595.6 1648.38 595.6H1645.94ZM1663.76 592.288C1662.43 592.288 1661.32 592.104 1660.42 591.736C1659.53 591.352 1658.84 590.84 1658.36 590.2C1657.9 589.544 1657.63 588.792 1657.57 587.944L1661.22 587.824C1661.33 588.432 1661.58 588.904 1661.98 589.24C1662.38 589.576 1662.98 589.744 1663.76 589.744C1664.4 589.744 1664.9 589.64 1665.25 589.432C1665.62 589.224 1665.8 588.904 1665.8 588.472C1665.8 588.2 1665.74 587.976 1665.61 587.8C1665.48 587.608 1665.22 587.448 1664.84 587.32C1664.47 587.176 1663.92 587.048 1663.18 586.936C1661.82 586.696 1660.76 586.416 1659.99 586.096C1659.22 585.776 1658.68 585.36 1658.36 584.848C1658.04 584.336 1657.88 583.712 1657.88 582.976C1657.88 581.744 1658.35 580.752 1659.3 580C1660.26 579.232 1661.69 578.848 1663.59 578.848C1664.81 578.848 1665.82 579.04 1666.64 579.424C1667.47 579.808 1668.11 580.336 1668.56 581.008C1669.02 581.664 1669.31 582.416 1669.42 583.264L1665.8 583.408C1665.75 582.992 1665.62 582.64 1665.42 582.352C1665.22 582.048 1664.98 581.816 1664.67 581.656C1664.37 581.48 1664 581.392 1663.57 581.392C1662.93 581.392 1662.43 581.528 1662.08 581.8C1661.74 582.056 1661.58 582.4 1661.58 582.832C1661.58 583.152 1661.65 583.416 1661.79 583.624C1661.95 583.816 1662.21 583.976 1662.56 584.104C1662.91 584.232 1663.38 584.336 1663.98 584.416C1665.35 584.608 1666.44 584.88 1667.24 585.232C1668.06 585.568 1668.64 585.992 1668.99 586.504C1669.34 587.016 1669.52 587.648 1669.52 588.4C1669.52 589.232 1669.28 589.936 1668.8 590.512C1668.32 591.088 1667.65 591.528 1666.78 591.832C1665.94 592.136 1664.93 592.288 1663.76 592.288ZM1676.67 592C1675.34 592 1674.37 591.696 1673.74 591.088C1673.12 590.464 1672.81 589.48 1672.81 588.136V576.112H1676.41V587.704C1676.41 588.328 1676.53 588.752 1676.79 588.976C1677.06 589.2 1677.46 589.312 1677.99 589.312H1679.79V592H1676.67ZM1670.74 581.824V579.136H1679.79V581.824H1670.74ZM1687.49 592.288C1686.17 592.288 1685.03 592.016 1684.05 591.472C1683.09 590.912 1682.34 590.128 1681.8 589.12C1681.27 588.112 1681.01 586.928 1681.01 585.568C1681.01 584.208 1681.27 583.032 1681.8 582.04C1682.34 581.032 1683.09 580.248 1684.05 579.688C1685.01 579.128 1686.15 578.848 1687.46 578.848C1688.74 578.848 1689.85 579.128 1690.8 579.688C1691.74 580.248 1692.47 581.048 1692.98 582.088C1693.51 583.128 1693.77 584.368 1693.77 585.808V586.528H1684.73C1684.77 587.552 1685.05 588.312 1685.54 588.808C1686.05 589.304 1686.73 589.552 1687.56 589.552C1688.17 589.552 1688.67 589.424 1689.07 589.168C1689.49 588.912 1689.78 588.52 1689.96 587.992L1693.58 588.208C1693.25 589.488 1692.53 590.488 1691.45 591.208C1690.36 591.928 1689.04 592.288 1687.49 592.288ZM1684.73 584.32H1690.08C1690.03 583.376 1689.77 582.672 1689.29 582.208C1688.82 581.744 1688.21 581.512 1687.46 581.512C1686.71 581.512 1686.09 581.76 1685.59 582.256C1685.11 582.736 1684.82 583.424 1684.73 584.32ZM1696 592V579.136H1699.24L1699.36 582.232L1699.02 582.088C1699.2 581.4 1699.46 580.816 1699.81 580.336C1700.18 579.856 1700.62 579.488 1701.13 579.232C1701.65 578.976 1702.21 578.848 1702.81 578.848C1703.89 578.848 1704.75 579.16 1705.41 579.784C1706.08 580.408 1706.51 581.248 1706.7 582.304L1706.25 582.328C1706.39 581.576 1706.64 580.944 1706.99 580.432C1707.36 579.904 1707.81 579.512 1708.33 579.256C1708.86 578.984 1709.45 578.848 1710.11 578.848C1711.01 578.848 1711.77 579.032 1712.41 579.4C1713.05 579.768 1713.55 580.32 1713.9 581.056C1714.25 581.776 1714.43 582.664 1714.43 583.72V592H1710.83V584.728C1710.83 583.72 1710.68 582.968 1710.37 582.472C1710.07 581.96 1709.57 581.704 1708.89 581.704C1708.45 581.704 1708.09 581.824 1707.78 582.064C1707.48 582.304 1707.24 582.656 1707.06 583.12C1706.9 583.568 1706.82 584.12 1706.82 584.776V592H1703.58V584.776C1703.58 583.784 1703.44 583.024 1703.15 582.496C1702.86 581.968 1702.37 581.704 1701.66 581.704C1701.23 581.704 1700.85 581.824 1700.53 582.064C1700.23 582.304 1700 582.656 1699.84 583.12C1699.68 583.584 1699.6 584.136 1699.6 584.776V592H1696Z" fill="white"/>
<path d="M1663.54 626V613.856H1659.94V611.768H1661.4C1662.04 611.768 1662.56 611.688 1662.96 611.528C1663.36 611.352 1663.65 611.064 1663.82 610.664C1664 610.248 1664.09 609.68 1664.09 608.96H1666.13V626H1663.54ZM1677.55 626V622.448H1668.95V620.24L1677.23 608.96H1680.14V620.096H1682.23V622.448H1680.14V626H1677.55ZM1671.91 620.096H1677.55V612.56L1671.91 620.096ZM1684.38 626V622.976H1687.48V626H1684.38ZM1691.19 626V613.856H1687.59V611.768H1689.06C1689.7 611.768 1690.22 611.688 1690.62 611.528C1691.02 611.352 1691.3 611.064 1691.48 610.664C1691.66 610.248 1691.74 609.68 1691.74 608.96H1693.78V626H1691.19ZM1701.21 617.216C1700.1 617.216 1699.19 616.856 1698.47 616.136C1697.77 615.416 1697.41 614.368 1697.41 612.992C1697.41 611.6 1697.77 610.552 1698.47 609.848C1699.19 609.128 1700.1 608.768 1701.21 608.768C1702.31 608.768 1703.21 609.128 1703.92 609.848C1704.62 610.552 1704.97 611.6 1704.97 612.992C1704.97 614.368 1704.62 615.416 1703.92 616.136C1703.21 616.856 1702.31 617.216 1701.21 617.216ZM1701.21 615.608C1701.81 615.608 1702.27 615.384 1702.57 614.936C1702.88 614.488 1703.03 613.84 1703.03 612.992C1703.03 612.144 1702.88 611.496 1702.57 611.048C1702.27 610.6 1701.81 610.376 1701.21 610.376C1700.61 610.376 1700.16 610.6 1699.84 611.048C1699.53 611.496 1699.38 612.144 1699.38 612.992C1699.38 613.84 1699.53 614.488 1699.84 614.936C1700.16 615.384 1700.61 615.608 1701.21 615.608ZM1711.05 626.192C1709.96 626.192 1709.05 625.832 1708.33 625.112C1707.61 624.392 1707.25 623.344 1707.25 621.968C1707.25 620.576 1707.61 619.528 1708.33 618.824C1709.05 618.104 1709.96 617.744 1711.05 617.744C1712.17 617.744 1713.08 618.104 1713.78 618.824C1714.49 619.528 1714.84 620.576 1714.84 621.968C1714.84 623.344 1714.49 624.392 1713.78 625.112C1713.08 625.832 1712.17 626.192 1711.05 626.192ZM1711.05 624.584C1711.65 624.584 1712.11 624.36 1712.41 623.912C1712.72 623.464 1712.87 622.816 1712.87 621.968C1712.87 621.12 1712.72 620.472 1712.41 620.024C1712.11 619.576 1711.65 619.352 1711.05 619.352C1710.45 619.352 1710 619.576 1709.68 620.024C1709.37 620.472 1709.22 621.12 1709.22 621.968C1709.22 622.816 1709.37 623.464 1709.68 623.912C1710 624.36 1710.45 624.584 1711.05 624.584ZM1699.31 626L1710.93 608.96H1712.94L1701.33 626H1699.31Z" fill="white"/>
<path d="M1277 602H1716" stroke="#16363C" stroke-width="2"/>
<circle cx="1277" cy="602" r="9.5" fill="#16363C" stroke="#16363C"/>
<path d="M1584.78 871V853.96H1596.54V857.032H1586.41L1588.42 854.944V862.744L1586.41 861.16H1596.1V864.184H1586.41L1588.42 862.6V871H1584.78ZM1604.31 871.288C1603 871.288 1601.86 871.016 1600.88 870.472C1599.91 869.912 1599.15 869.128 1598.6 868.12C1598.06 867.112 1597.79 865.928 1597.79 864.568C1597.79 863.208 1598.06 862.032 1598.6 861.04C1599.15 860.032 1599.91 859.248 1600.88 858.688C1601.86 858.128 1603 857.848 1604.31 857.848C1605.63 857.848 1606.77 858.128 1607.75 858.688C1608.72 859.248 1609.48 860.032 1610.03 861.04C1610.57 862.032 1610.84 863.208 1610.84 864.568C1610.84 865.928 1610.57 867.112 1610.03 868.12C1609.48 869.128 1608.72 869.912 1607.75 870.472C1606.77 871.016 1605.63 871.288 1604.31 871.288ZM1604.31 868.528C1605.21 868.528 1605.91 868.184 1606.4 867.496C1606.9 866.792 1607.15 865.816 1607.15 864.568C1607.15 863.32 1606.9 862.352 1606.4 861.664C1605.91 860.96 1605.21 860.608 1604.31 860.608C1603.42 860.608 1602.72 860.96 1602.23 861.664C1601.73 862.352 1601.48 863.32 1601.48 864.568C1601.48 865.816 1601.73 866.792 1602.23 867.496C1602.72 868.184 1603.42 868.528 1604.31 868.528ZM1617.31 871.288C1615.98 871.288 1614.94 870.864 1614.19 870.016C1613.45 869.152 1613.08 867.952 1613.08 866.416V858.136H1616.68V865.576C1616.68 866.568 1616.84 867.296 1617.14 867.76C1617.44 868.208 1617.92 868.432 1618.58 868.432C1619.32 868.432 1619.88 868.184 1620.28 867.688C1620.7 867.176 1620.91 866.416 1620.91 865.408V858.136H1624.51V871H1621.22L1621.12 867.304L1621.58 867.4C1621.39 868.68 1620.93 869.648 1620.21 870.304C1619.49 870.96 1618.52 871.288 1617.31 871.288ZM1627.66 871V858.136H1630.9L1631.05 861.904L1630.59 861.784C1630.72 860.824 1630.97 860.056 1631.36 859.48C1631.76 858.904 1632.25 858.488 1632.85 858.232C1633.44 857.976 1634.09 857.848 1634.79 857.848C1635.72 857.848 1636.5 858.048 1637.14 858.448C1637.8 858.848 1638.29 859.416 1638.63 860.152C1638.98 860.872 1639.16 861.728 1639.16 862.72V871H1635.56V863.92C1635.56 863.232 1635.5 862.648 1635.39 862.168C1635.28 861.688 1635.08 861.328 1634.79 861.088C1634.5 860.832 1634.1 860.704 1633.59 860.704C1632.84 860.704 1632.26 860.984 1631.86 861.544C1631.46 862.088 1631.26 862.88 1631.26 863.92V871H1627.66ZM1646.61 871.288C1645.53 871.288 1644.58 871.016 1643.78 870.472C1643 869.912 1642.39 869.136 1641.96 868.144C1641.54 867.136 1641.33 865.944 1641.33 864.568C1641.33 863.192 1641.55 862.008 1641.98 861.016C1642.41 860.008 1643.02 859.232 1643.81 858.688C1644.61 858.128 1645.54 857.848 1646.61 857.848C1647.53 857.848 1648.31 858.04 1648.97 858.424C1649.64 858.792 1650.14 859.304 1650.48 859.96V853.96H1654.08V871H1650.65L1650.57 869.104C1650.22 869.792 1649.69 870.328 1648.99 870.712C1648.3 871.096 1647.51 871.288 1646.61 871.288ZM1647.79 868.528C1648.37 868.528 1648.85 868.376 1649.25 868.072C1649.65 867.768 1649.96 867.328 1650.17 866.752C1650.37 866.16 1650.48 865.432 1650.48 864.568C1650.48 863.688 1650.37 862.96 1650.17 862.384C1649.96 861.792 1649.65 861.352 1649.25 861.064C1648.85 860.76 1648.37 860.608 1647.79 860.608C1646.94 860.608 1646.27 860.968 1645.77 861.688C1645.28 862.392 1645.03 863.352 1645.03 864.568C1645.03 865.768 1645.28 866.728 1645.77 867.448C1646.29 868.168 1646.96 868.528 1647.79 868.528ZM1660.82 871.288C1659.49 871.288 1658.41 870.984 1657.56 870.376C1656.73 869.752 1656.31 868.888 1656.31 867.784C1656.31 866.648 1656.66 865.776 1657.37 865.168C1658.09 864.544 1659.14 864.088 1660.53 863.8L1664.69 862.984C1664.69 862.152 1664.49 861.528 1664.11 861.112C1663.74 860.68 1663.21 860.464 1662.5 860.464C1661.81 860.464 1661.28 860.624 1660.89 860.944C1660.51 861.248 1660.26 861.704 1660.15 862.312L1656.53 862.144C1656.77 860.736 1657.4 859.672 1658.42 858.952C1659.46 858.216 1660.82 857.848 1662.5 857.848C1664.42 857.848 1665.86 858.304 1666.82 859.216C1667.8 860.128 1668.29 861.464 1668.29 863.224V867.616C1668.29 867.984 1668.34 868.232 1668.45 868.36C1668.58 868.472 1668.77 868.528 1669.01 868.528H1669.37V871C1669.25 871.032 1669.07 871.064 1668.81 871.096C1668.57 871.128 1668.33 871.144 1668.09 871.144C1667.58 871.144 1667.1 871.056 1666.65 870.88C1666.22 870.704 1665.87 870.408 1665.6 869.992C1665.33 869.56 1665.19 868.952 1665.19 868.168L1665.5 868.408C1665.34 868.984 1665.05 869.488 1664.64 869.92C1664.24 870.352 1663.71 870.688 1663.05 870.928C1662.41 871.168 1661.67 871.288 1660.82 871.288ZM1661.69 868.816C1662.28 868.816 1662.8 868.704 1663.25 868.48C1663.69 868.24 1664.05 867.896 1664.3 867.448C1664.56 867 1664.69 866.472 1664.69 865.864V865.24L1661.76 865.864C1661.18 865.976 1660.74 866.168 1660.44 866.44C1660.15 866.696 1660.01 867.032 1660.01 867.448C1660.01 867.88 1660.15 868.216 1660.44 868.456C1660.73 868.696 1661.14 868.816 1661.69 868.816ZM1675.88 871C1674.55 871 1673.58 870.696 1672.95 870.088C1672.33 869.464 1672.02 868.48 1672.02 867.136V855.112H1675.62V866.704C1675.62 867.328 1675.74 867.752 1676 867.976C1676.27 868.2 1676.67 868.312 1677.2 868.312H1679V871H1675.88ZM1669.95 860.824V858.136H1679V860.824H1669.95ZM1681.12 871V858.136H1684.72V871H1681.12ZM1681.05 856.552V853.672H1684.77V856.552H1681.05ZM1693.47 871.288C1692.16 871.288 1691.01 871.016 1690.04 870.472C1689.06 869.912 1688.3 869.128 1687.76 868.12C1687.21 867.112 1686.94 865.928 1686.94 864.568C1686.94 863.208 1687.21 862.032 1687.76 861.04C1688.3 860.032 1689.06 859.248 1690.04 858.688C1691.01 858.128 1692.16 857.848 1693.47 857.848C1694.78 857.848 1695.93 858.128 1696.9 858.688C1697.88 859.248 1698.64 860.032 1699.18 861.04C1699.73 862.032 1700 863.208 1700 864.568C1700 865.928 1699.73 867.112 1699.18 868.12C1698.64 869.128 1697.88 869.912 1696.9 870.472C1695.93 871.016 1694.78 871.288 1693.47 871.288ZM1693.47 868.528C1694.37 868.528 1695.06 868.184 1695.56 867.496C1696.05 866.792 1696.3 865.816 1696.3 864.568C1696.3 863.32 1696.05 862.352 1695.56 861.664C1695.06 860.96 1694.37 860.608 1693.47 860.608C1692.57 860.608 1691.88 860.96 1691.38 861.664C1690.89 862.352 1690.64 863.32 1690.64 864.568C1690.64 865.816 1690.89 866.792 1691.38 867.496C1691.88 868.184 1692.57 868.528 1693.47 868.528ZM1702.24 871V858.136H1705.48L1705.62 861.904L1705.17 861.784C1705.3 860.824 1705.55 860.056 1705.94 859.48C1706.34 858.904 1706.83 858.488 1707.42 858.232C1708.02 857.976 1708.66 857.848 1709.37 857.848C1710.3 857.848 1711.08 858.048 1711.72 858.448C1712.38 858.848 1712.87 859.416 1713.21 860.152C1713.56 860.872 1713.74 861.728 1713.74 862.72V871H1710.14V863.92C1710.14 863.232 1710.08 862.648 1709.97 862.168C1709.86 861.688 1709.66 861.328 1709.37 861.088C1709.08 860.832 1708.68 860.704 1708.17 860.704C1707.42 860.704 1706.84 860.984 1706.44 861.544C1706.04 862.088 1705.84 862.88 1705.84 863.92V871H1702.24Z" fill="white"/>
<path d="M1646.42 904C1646.42 902.72 1646.61 901.576 1646.99 900.568C1647.38 899.56 1648.03 898.624 1648.96 897.76C1649.89 896.896 1651.17 896.032 1652.8 895.168C1653.58 894.768 1654.21 894.4 1654.67 894.064C1655.15 893.712 1655.5 893.352 1655.7 892.984C1655.91 892.616 1656.02 892.168 1656.02 891.64C1656.02 891.096 1655.9 890.632 1655.66 890.248C1655.43 889.848 1655.1 889.536 1654.65 889.312C1654.2 889.072 1653.63 888.952 1652.94 888.952C1651.86 888.952 1650.99 889.248 1650.35 889.84C1649.73 890.416 1649.34 891.248 1649.18 892.336L1646.49 892.168C1646.68 890.456 1647.33 889.096 1648.43 888.088C1649.55 887.08 1651.06 886.576 1652.94 886.576C1654.16 886.576 1655.19 886.792 1656.04 887.224C1656.9 887.64 1657.56 888.224 1658.01 888.976C1658.47 889.728 1658.7 890.6 1658.7 891.592C1658.7 892.456 1658.56 893.2 1658.27 893.824C1657.98 894.448 1657.5 895.032 1656.83 895.576C1656.16 896.104 1655.25 896.672 1654.1 897.28C1652.62 898.064 1651.51 898.84 1650.76 899.608C1650.01 900.36 1649.61 901.032 1649.56 901.624H1658.7V904H1646.42ZM1667.95 904.384C1666.54 904.384 1665.32 904.024 1664.28 903.304C1663.24 902.584 1662.44 901.56 1661.88 900.232C1661.32 898.904 1661.04 897.328 1661.04 895.504C1661.04 893.68 1661.32 892.104 1661.88 890.776C1662.45 889.432 1663.25 888.4 1664.28 887.68C1665.32 886.944 1666.54 886.576 1667.95 886.576C1669.37 886.576 1670.6 886.944 1671.62 887.68C1672.66 888.4 1673.46 889.424 1674.02 890.752C1674.6 892.08 1674.88 893.664 1674.88 895.504C1674.88 897.328 1674.6 898.904 1674.04 900.232C1673.48 901.56 1672.68 902.584 1671.64 903.304C1670.6 904.024 1669.37 904.384 1667.95 904.384ZM1667.95 902.008C1669.31 902.008 1670.36 901.448 1671.09 900.328C1671.83 899.208 1672.2 897.6 1672.2 895.504C1672.2 894.096 1672.03 892.904 1671.69 891.928C1671.37 890.952 1670.89 890.216 1670.25 889.72C1669.63 889.208 1668.86 888.952 1667.95 888.952C1667.05 888.952 1666.28 889.208 1665.64 889.72C1665.02 890.216 1664.54 890.952 1664.2 891.928C1663.88 892.904 1663.72 894.096 1663.72 895.504C1663.72 897.6 1664.09 899.208 1664.83 900.328C1665.56 901.448 1666.6 902.008 1667.95 902.008ZM1676.59 904V900.976H1679.69V904H1676.59ZM1688.31 904.384C1686.91 904.384 1685.68 904.024 1684.64 903.304C1683.6 902.584 1682.8 901.56 1682.24 900.232C1681.68 898.904 1681.4 897.328 1681.4 895.504C1681.4 893.68 1681.68 892.104 1682.24 890.776C1682.82 889.432 1683.62 888.4 1684.64 887.68C1685.68 886.944 1686.91 886.576 1688.31 886.576C1689.74 886.576 1690.96 886.944 1691.99 887.68C1693.03 888.4 1693.83 889.424 1694.39 890.752C1694.96 892.08 1695.25 893.664 1695.25 895.504C1695.25 897.328 1694.97 898.904 1694.41 900.232C1693.85 901.56 1693.05 902.584 1692.01 903.304C1690.97 904.024 1689.74 904.384 1688.31 904.384ZM1688.31 902.008C1689.67 902.008 1690.72 901.448 1691.46 900.328C1692.19 899.208 1692.56 897.6 1692.56 895.504C1692.56 894.096 1692.39 892.904 1692.06 891.928C1691.74 890.952 1691.26 890.216 1690.62 889.72C1689.99 889.208 1689.23 888.952 1688.31 888.952C1687.42 888.952 1686.65 889.208 1686.01 889.72C1685.39 890.216 1684.91 890.952 1684.57 891.928C1684.25 892.904 1684.09 894.096 1684.09 895.504C1684.09 897.6 1684.46 899.208 1685.19 900.328C1685.93 901.448 1686.97 902.008 1688.31 902.008ZM1701.22 895.216C1700.12 895.216 1699.21 894.856 1698.49 894.136C1697.78 893.416 1697.43 892.368 1697.43 890.992C1697.43 889.6 1697.78 888.552 1698.49 887.848C1699.21 887.128 1700.12 886.768 1701.22 886.768C1702.33 886.768 1703.23 887.128 1703.93 887.848C1704.64 888.552 1704.99 889.6 1704.99 890.992C1704.99 892.368 1704.64 893.416 1703.93 894.136C1703.23 894.856 1702.33 895.216 1701.22 895.216ZM1701.22 893.608C1701.83 893.608 1702.29 893.384 1702.59 892.936C1702.89 892.488 1703.05 891.84 1703.05 890.992C1703.05 890.144 1702.89 889.496 1702.59 889.048C1702.29 888.6 1701.83 888.376 1701.22 888.376C1700.63 888.376 1700.17 888.6 1699.85 889.048C1699.55 889.496 1699.4 890.144 1699.4 890.992C1699.4 891.84 1699.55 892.488 1699.85 892.936C1700.17 893.384 1700.63 893.608 1701.22 893.608ZM1711.06 904.192C1709.97 904.192 1709.07 903.832 1708.35 903.112C1707.63 902.392 1707.27 901.344 1707.27 899.968C1707.27 898.576 1707.63 897.528 1708.35 896.824C1709.07 896.104 1709.97 895.744 1711.06 895.744C1712.18 895.744 1713.09 896.104 1713.8 896.824C1714.5 897.528 1714.85 898.576 1714.85 899.968C1714.85 901.344 1714.5 902.392 1713.8 903.112C1713.09 903.832 1712.18 904.192 1711.06 904.192ZM1711.06 902.584C1711.67 902.584 1712.13 902.36 1712.43 901.912C1712.73 901.464 1712.89 900.816 1712.89 899.968C1712.89 899.12 1712.73 898.472 1712.43 898.024C1712.13 897.576 1711.67 897.352 1711.06 897.352C1710.47 897.352 1710.01 897.576 1709.69 898.024C1709.39 898.472 1709.24 899.12 1709.24 899.968C1709.24 900.816 1709.39 901.464 1709.69 901.912C1710.01 902.36 1710.47 902.584 1711.06 902.584ZM1699.33 904L1710.94 886.96H1712.96L1701.34 904H1699.33Z" fill="white"/>
<path d="M1157 880H1716" stroke="#16363C" stroke-width="2"/>
<circle cx="1157" cy="880" r="9.5" fill="#16363C" stroke="#16363C"/>
<path d="M1497.52 262.384C1496.05 262.384 1494.78 262.136 1493.73 261.64C1492.67 261.144 1491.85 260.448 1491.26 259.552C1490.66 258.656 1490.33 257.6 1490.25 256.384L1493.92 256.216C1494.02 256.888 1494.21 257.464 1494.5 257.944C1494.8 258.408 1495.2 258.76 1495.7 259C1496.21 259.24 1496.83 259.36 1497.57 259.36C1498.18 259.36 1498.69 259.288 1499.1 259.144C1499.54 259 1499.86 258.784 1500.09 258.496C1500.31 258.192 1500.42 257.824 1500.42 257.392C1500.42 256.992 1500.33 256.648 1500.14 256.36C1499.94 256.056 1499.58 255.784 1499.03 255.544C1498.49 255.288 1497.69 255.04 1496.63 254.8C1495.18 254.464 1494 254.088 1493.1 253.672C1492.22 253.256 1491.58 252.736 1491.18 252.112C1490.78 251.472 1490.58 250.672 1490.58 249.712C1490.58 248.688 1490.83 247.792 1491.33 247.024C1491.84 246.256 1492.58 245.656 1493.54 245.224C1494.5 244.792 1495.64 244.576 1496.97 244.576C1498.38 244.576 1499.57 244.824 1500.54 245.32C1501.52 245.816 1502.28 246.496 1502.82 247.36C1503.38 248.224 1503.72 249.216 1503.83 250.336L1500.18 250.528C1500.14 249.936 1499.98 249.424 1499.7 248.992C1499.43 248.544 1499.06 248.2 1498.6 247.96C1498.14 247.72 1497.58 247.6 1496.92 247.6C1496.09 247.6 1495.43 247.784 1494.95 248.152C1494.49 248.52 1494.26 249 1494.26 249.592C1494.26 250.008 1494.36 250.36 1494.57 250.648C1494.79 250.92 1495.15 251.16 1495.65 251.368C1496.16 251.576 1496.88 251.776 1497.81 251.968C1499.39 252.288 1500.64 252.696 1501.55 253.192C1502.48 253.672 1503.14 254.248 1503.52 254.92C1503.9 255.592 1504.1 256.36 1504.1 257.224C1504.1 258.28 1503.82 259.2 1503.28 259.984C1502.75 260.752 1501.99 261.344 1501 261.76C1500.02 262.176 1498.86 262.384 1497.52 262.384ZM1511.71 262C1510.38 262 1509.4 261.696 1508.78 261.088C1508.16 260.464 1507.84 259.48 1507.84 258.136V246.112H1511.44V257.704C1511.44 258.328 1511.57 258.752 1511.83 258.976C1512.1 259.2 1512.5 259.312 1513.03 259.312H1514.83V262H1511.71ZM1505.78 251.824V249.136H1514.83V251.824H1505.78ZM1517.19 262V249.136H1520.59L1520.71 252.88L1520.45 252.808C1520.66 251.512 1521.03 250.576 1521.55 250C1522.08 249.424 1522.81 249.136 1523.74 249.136H1524.91V252.112H1523.74C1523.07 252.112 1522.51 252.2 1522.08 252.376C1521.65 252.552 1521.32 252.832 1521.1 253.216C1520.89 253.6 1520.79 254.12 1520.79 254.776V262H1517.19ZM1530.38 262.288C1529.05 262.288 1527.96 261.984 1527.11 261.376C1526.28 260.752 1525.86 259.888 1525.86 258.784C1525.86 257.648 1526.22 256.776 1526.92 256.168C1527.64 255.544 1528.7 255.088 1530.09 254.8L1534.24 253.984C1534.24 253.152 1534.05 252.528 1533.66 252.112C1533.3 251.68 1532.76 251.464 1532.06 251.464C1531.37 251.464 1530.83 251.624 1530.45 251.944C1530.06 252.248 1529.82 252.704 1529.7 253.312L1526.08 253.144C1526.32 251.736 1526.95 250.672 1527.98 249.952C1529.02 249.216 1530.38 248.848 1532.06 248.848C1533.98 248.848 1535.42 249.304 1536.38 250.216C1537.35 251.128 1537.84 252.464 1537.84 254.224V258.616C1537.84 258.984 1537.9 259.232 1538.01 259.36C1538.14 259.472 1538.32 259.528 1538.56 259.528H1538.92V262C1538.81 262.032 1538.62 262.064 1538.37 262.096C1538.13 262.128 1537.89 262.144 1537.65 262.144C1537.14 262.144 1536.66 262.056 1536.21 261.88C1535.78 261.704 1535.42 261.408 1535.15 260.992C1534.88 260.56 1534.74 259.952 1534.74 259.168L1535.06 259.408C1534.9 259.984 1534.61 260.488 1534.19 260.92C1533.79 261.352 1533.26 261.688 1532.61 261.928C1531.97 262.168 1531.22 262.288 1530.38 262.288ZM1531.24 259.816C1531.83 259.816 1532.35 259.704 1532.8 259.48C1533.25 259.24 1533.6 258.896 1533.86 258.448C1534.11 258 1534.24 257.472 1534.24 256.864V256.24L1531.31 256.864C1530.74 256.976 1530.3 257.168 1529.99 257.44C1529.7 257.696 1529.56 258.032 1529.56 258.448C1529.56 258.88 1529.7 259.216 1529.99 259.456C1530.28 259.696 1530.7 259.816 1531.24 259.816ZM1545.44 262C1544.11 262 1543.13 261.696 1542.51 261.088C1541.88 260.464 1541.57 259.48 1541.57 258.136V246.112H1545.17V257.704C1545.17 258.328 1545.3 258.752 1545.56 258.976C1545.83 259.2 1546.23 259.312 1546.76 259.312H1548.56V262H1545.44ZM1539.51 251.824V249.136H1548.56V251.824H1539.51ZM1556.25 262.288C1554.94 262.288 1553.79 262.016 1552.82 261.472C1551.86 260.912 1551.11 260.128 1550.56 259.12C1550.03 258.112 1549.77 256.928 1549.77 255.568C1549.77 254.208 1550.03 253.032 1550.56 252.04C1551.11 251.032 1551.86 250.248 1552.82 249.688C1553.78 249.128 1554.91 248.848 1556.23 248.848C1557.51 248.848 1558.62 249.128 1559.56 249.688C1560.51 250.248 1561.23 251.048 1561.75 252.088C1562.27 253.128 1562.54 254.368 1562.54 255.808V256.528H1553.49C1553.54 257.552 1553.81 258.312 1554.31 258.808C1554.82 259.304 1555.49 259.552 1556.32 259.552C1556.93 259.552 1557.43 259.424 1557.83 259.168C1558.25 258.912 1558.55 258.52 1558.72 257.992L1562.35 258.208C1562.01 259.488 1561.3 260.488 1560.21 261.208C1559.12 261.928 1557.8 262.288 1556.25 262.288ZM1553.49 254.32H1558.84C1558.79 253.376 1558.53 252.672 1558.05 252.208C1557.59 251.744 1556.98 251.512 1556.23 251.512C1555.47 251.512 1554.85 251.76 1554.35 252.256C1553.87 252.736 1553.59 253.424 1553.49 254.32ZM1570.52 265.888C1569.29 265.888 1568.26 265.736 1567.43 265.432C1566.61 265.128 1565.96 264.704 1565.46 264.16C1564.98 263.616 1564.64 262.992 1564.45 262.288L1568.15 262.024C1568.28 262.44 1568.52 262.768 1568.87 263.008C1569.24 263.248 1569.79 263.368 1570.52 263.368C1571.39 263.368 1572.04 263.16 1572.49 262.744C1572.96 262.344 1573.19 261.696 1573.19 260.8V259.432C1572.88 260.024 1572.4 260.504 1571.72 260.872C1571.05 261.224 1570.3 261.4 1569.47 261.4C1568.41 261.4 1567.48 261.144 1566.66 260.632C1565.84 260.104 1565.2 259.376 1564.74 258.448C1564.29 257.504 1564.07 256.4 1564.07 255.136C1564.07 253.904 1564.29 252.816 1564.74 251.872C1565.2 250.928 1565.84 250.192 1566.64 249.664C1567.45 249.12 1568.38 248.848 1569.42 248.848C1570.36 248.848 1571.16 249.056 1571.8 249.472C1572.45 249.888 1572.95 250.44 1573.28 251.128V249.136H1576.81V260.728C1576.81 261.88 1576.55 262.832 1576.02 263.584C1575.49 264.352 1574.76 264.928 1573.81 265.312C1572.87 265.696 1571.77 265.888 1570.52 265.888ZM1570.5 258.736C1571.33 258.736 1571.99 258.416 1572.47 257.776C1572.96 257.136 1573.21 256.248 1573.21 255.112C1573.21 254.36 1573.1 253.712 1572.88 253.168C1572.67 252.624 1572.36 252.208 1571.94 251.92C1571.54 251.632 1571.06 251.488 1570.5 251.488C1569.64 251.488 1568.96 251.816 1568.48 252.472C1568 253.128 1567.76 254.008 1567.76 255.112C1567.76 256.232 1568.01 257.12 1568.51 257.776C1569 258.416 1569.67 258.736 1570.5 258.736ZM1579.79 262V249.136H1583.39V262H1579.79ZM1579.72 247.552V244.672H1583.44V247.552H1579.72ZM1592.13 262.288C1590.82 262.288 1589.68 262.016 1588.7 261.472C1587.73 260.912 1586.97 260.128 1586.42 259.12C1585.88 258.112 1585.61 256.928 1585.61 255.568C1585.61 254.208 1585.88 253.032 1586.42 252.04C1586.97 251.032 1587.73 250.248 1588.7 249.688C1589.68 249.128 1590.82 248.848 1592.13 248.848C1593.27 248.848 1594.29 249.048 1595.18 249.448C1596.09 249.848 1596.83 250.424 1597.39 251.176C1597.95 251.928 1598.29 252.832 1598.42 253.888L1594.7 254.056C1594.59 253.256 1594.3 252.656 1593.84 252.256C1593.39 251.84 1592.82 251.632 1592.13 251.632C1591.24 251.632 1590.54 251.976 1590.05 252.664C1589.55 253.352 1589.3 254.32 1589.3 255.568C1589.3 256.816 1589.55 257.792 1590.05 258.496C1590.54 259.184 1591.24 259.528 1592.13 259.528C1592.82 259.528 1593.4 259.32 1593.86 258.904C1594.33 258.472 1594.61 257.824 1594.7 256.96L1598.42 257.104C1598.31 258.16 1597.97 259.08 1597.41 259.864C1596.87 260.632 1596.14 261.232 1595.23 261.664C1594.33 262.08 1593.3 262.288 1592.13 262.288ZM1606.3 262V244.96H1609.95V262H1606.3ZM1613.47 262V249.136H1616.71L1616.85 252.904L1616.39 252.784C1616.52 251.824 1616.78 251.056 1617.16 250.48C1617.56 249.904 1618.06 249.488 1618.65 249.232C1619.24 248.976 1619.89 248.848 1620.59 248.848C1621.52 248.848 1622.31 249.048 1622.95 249.448C1623.6 249.848 1624.1 250.416 1624.43 251.152C1624.79 251.872 1624.96 252.728 1624.96 253.72V262H1621.36V254.92C1621.36 254.232 1621.31 253.648 1621.19 253.168C1621.08 252.688 1620.88 252.328 1620.59 252.088C1620.31 251.832 1619.91 251.704 1619.39 251.704C1618.64 251.704 1618.07 251.984 1617.67 252.544C1617.27 253.088 1617.07 253.88 1617.07 254.92V262H1613.47ZM1630.99 262L1626.29 249.136H1630.05L1633.1 258.376L1636.13 249.136H1639.89L1635.17 262H1630.99ZM1647.09 262.288C1645.78 262.288 1644.64 262.016 1643.66 261.472C1642.7 260.912 1641.95 260.128 1641.41 259.12C1640.88 258.112 1640.61 256.928 1640.61 255.568C1640.61 254.208 1640.88 253.032 1641.41 252.04C1641.95 251.032 1642.7 250.248 1643.66 249.688C1644.62 249.128 1645.76 248.848 1647.07 248.848C1648.35 248.848 1649.46 249.128 1650.41 249.688C1651.35 250.248 1652.08 251.048 1652.59 252.088C1653.12 253.128 1653.38 254.368 1653.38 255.808V256.528H1644.33C1644.38 257.552 1644.65 258.312 1645.15 258.808C1645.66 259.304 1646.33 259.552 1647.17 259.552C1647.77 259.552 1648.28 259.424 1648.68 259.168C1649.09 258.912 1649.39 258.52 1649.57 257.992L1653.19 258.208C1652.85 259.488 1652.14 260.488 1651.05 261.208C1649.97 261.928 1648.65 262.288 1647.09 262.288ZM1644.33 254.32H1649.69C1649.64 253.376 1649.37 252.672 1648.89 252.208C1648.43 251.744 1647.82 251.512 1647.07 251.512C1646.32 251.512 1645.69 251.76 1645.2 252.256C1644.72 252.736 1644.43 253.424 1644.33 254.32ZM1661.1 262.288C1659.78 262.288 1658.66 262.104 1657.77 261.736C1656.87 261.352 1656.18 260.84 1655.7 260.2C1655.24 259.544 1654.98 258.792 1654.91 257.944L1658.56 257.824C1658.67 258.432 1658.93 258.904 1659.33 259.24C1659.73 259.576 1660.32 259.744 1661.1 259.744C1661.74 259.744 1662.24 259.64 1662.59 259.432C1662.96 259.224 1663.14 258.904 1663.14 258.472C1663.14 258.2 1663.08 257.976 1662.95 257.8C1662.82 257.608 1662.57 257.448 1662.18 257.32C1661.82 257.176 1661.26 257.048 1660.53 256.936C1659.17 256.696 1658.1 256.416 1657.34 256.096C1656.57 255.776 1656.02 255.36 1655.7 254.848C1655.38 254.336 1655.22 253.712 1655.22 252.976C1655.22 251.744 1655.7 250.752 1656.64 250C1657.6 249.232 1659.03 248.848 1660.94 248.848C1662.15 248.848 1663.17 249.04 1663.98 249.424C1664.82 249.808 1665.46 250.336 1665.9 251.008C1666.37 251.664 1666.66 252.416 1666.77 253.264L1663.14 253.408C1663.1 252.992 1662.97 252.64 1662.76 252.352C1662.57 252.048 1662.32 251.816 1662.02 251.656C1661.71 251.48 1661.34 251.392 1660.91 251.392C1660.27 251.392 1659.78 251.528 1659.42 251.8C1659.09 252.056 1658.92 252.4 1658.92 252.832C1658.92 253.152 1658.99 253.416 1659.14 253.624C1659.3 253.816 1659.55 253.976 1659.9 254.104C1660.26 254.232 1660.73 254.336 1661.32 254.416C1662.7 254.608 1663.78 254.88 1664.58 255.232C1665.4 255.568 1665.98 255.992 1666.34 256.504C1666.69 257.016 1666.86 257.648 1666.86 258.4C1666.86 259.232 1666.62 259.936 1666.14 260.512C1665.66 261.088 1664.99 261.528 1664.13 261.832C1663.28 262.136 1662.27 262.288 1661.1 262.288ZM1674.01 262C1672.69 262 1671.71 261.696 1671.09 261.088C1670.46 260.464 1670.15 259.48 1670.15 258.136V246.112H1673.75V257.704C1673.75 258.328 1673.88 258.752 1674.13 258.976C1674.41 259.2 1674.81 259.312 1675.33 259.312H1677.13V262H1674.01ZM1668.09 251.824V249.136H1677.13V251.824H1668.09ZM1684.88 262.288C1683.56 262.288 1682.42 262.016 1681.44 261.472C1680.47 260.912 1679.71 260.128 1679.16 259.12C1678.62 258.112 1678.35 256.928 1678.35 255.568C1678.35 254.208 1678.62 253.032 1679.16 252.04C1679.71 251.032 1680.47 250.248 1681.44 249.688C1682.42 249.128 1683.56 248.848 1684.88 248.848C1686.19 248.848 1687.33 249.128 1688.31 249.688C1689.28 250.248 1690.04 251.032 1690.59 252.04C1691.13 253.032 1691.4 254.208 1691.4 255.568C1691.4 256.928 1691.13 258.112 1690.59 259.12C1690.04 260.128 1689.28 260.912 1688.31 261.472C1687.33 262.016 1686.19 262.288 1684.88 262.288ZM1684.88 259.528C1685.77 259.528 1686.47 259.184 1686.96 258.496C1687.46 257.792 1687.71 256.816 1687.71 255.568C1687.71 254.32 1687.46 253.352 1686.96 252.664C1686.47 251.96 1685.77 251.608 1684.88 251.608C1683.98 251.608 1683.28 251.96 1682.79 252.664C1682.29 253.352 1682.04 254.32 1682.04 255.568C1682.04 256.816 1682.29 257.792 1682.79 258.496C1683.28 259.184 1683.98 259.528 1684.88 259.528ZM1693.65 262V249.136H1697.05L1697.17 252.88L1696.91 252.808C1697.12 251.512 1697.49 250.576 1698.01 250C1698.54 249.424 1699.27 249.136 1700.2 249.136H1701.37V252.112H1700.2C1699.53 252.112 1698.97 252.2 1698.54 252.376C1698.11 252.552 1697.78 252.832 1697.56 253.216C1697.35 253.6 1697.25 254.12 1697.25 254.776V262H1693.65ZM1708.38 262.288C1707.05 262.288 1705.94 262.104 1705.04 261.736C1704.14 261.352 1703.46 260.84 1702.98 260.2C1702.51 259.544 1702.25 258.792 1702.18 257.944L1705.83 257.824C1705.94 258.432 1706.2 258.904 1706.6 259.24C1707 259.576 1707.59 259.744 1708.38 259.744C1709.02 259.744 1709.51 259.64 1709.86 259.432C1710.23 259.224 1710.42 258.904 1710.42 258.472C1710.42 258.2 1710.35 257.976 1710.22 257.8C1710.1 257.608 1709.84 257.448 1709.46 257.32C1709.09 257.176 1708.54 257.048 1707.8 256.936C1706.44 256.696 1705.38 256.416 1704.61 256.096C1703.84 255.776 1703.3 255.36 1702.98 254.848C1702.66 254.336 1702.5 253.712 1702.5 252.976C1702.5 251.744 1702.97 250.752 1703.91 250C1704.87 249.232 1706.3 248.848 1708.21 248.848C1709.42 248.848 1710.44 249.04 1711.26 249.424C1712.09 249.808 1712.73 250.336 1713.18 251.008C1713.64 251.664 1713.93 252.416 1714.04 253.264L1710.42 253.408C1710.37 252.992 1710.24 252.64 1710.03 252.352C1709.84 252.048 1709.59 251.816 1709.29 251.656C1708.98 251.48 1708.62 251.392 1708.18 251.392C1707.54 251.392 1707.05 251.528 1706.7 251.8C1706.36 252.056 1706.19 252.4 1706.19 252.832C1706.19 253.152 1706.26 253.416 1706.41 253.624C1706.57 253.816 1706.82 253.976 1707.18 254.104C1707.53 254.232 1708 254.336 1708.59 254.416C1709.97 254.608 1711.06 254.88 1711.86 255.232C1712.67 255.568 1713.26 255.992 1713.61 256.504C1713.96 257.016 1714.14 257.648 1714.14 258.4C1714.14 259.232 1713.9 259.936 1713.42 260.512C1712.94 261.088 1712.26 261.528 1711.4 261.832C1710.55 262.136 1709.54 262.288 1708.38 262.288Z" fill="white"/>
<path d="M1653.42 298C1653.42 296.72 1653.61 295.576 1653.99 294.568C1654.38 293.56 1655.03 292.624 1655.96 291.76C1656.89 290.896 1658.17 290.032 1659.8 289.168C1660.58 288.768 1661.21 288.4 1661.67 288.064C1662.15 287.712 1662.5 287.352 1662.7 286.984C1662.91 286.616 1663.02 286.168 1663.02 285.64C1663.02 285.096 1662.9 284.632 1662.66 284.248C1662.43 283.848 1662.1 283.536 1661.65 283.312C1661.2 283.072 1660.63 282.952 1659.94 282.952C1658.86 282.952 1657.99 283.248 1657.35 283.84C1656.73 284.416 1656.34 285.248 1656.18 286.336L1653.49 286.168C1653.68 284.456 1654.33 283.096 1655.43 282.088C1656.55 281.08 1658.06 280.576 1659.94 280.576C1661.16 280.576 1662.19 280.792 1663.04 281.224C1663.9 281.64 1664.56 282.224 1665.01 282.976C1665.47 283.728 1665.7 284.6 1665.7 285.592C1665.7 286.456 1665.56 287.2 1665.27 287.824C1664.98 288.448 1664.5 289.032 1663.83 289.576C1663.16 290.104 1662.25 290.672 1661.1 291.28C1659.62 292.064 1658.51 292.84 1657.76 293.608C1657.01 294.36 1656.61 295.032 1656.56 295.624H1665.7V298H1653.42ZM1671.65 298V285.856H1668.05V283.768H1669.52C1670.16 283.768 1670.68 283.688 1671.08 283.528C1671.48 283.352 1671.77 283.064 1671.94 282.664C1672.12 282.248 1672.21 281.68 1672.21 280.96H1674.25V298H1671.65ZM1677.88 298V294.976H1680.97V298H1677.88ZM1691.24 298V294.448H1682.65V292.24L1690.93 280.96H1693.83V292.096H1695.92V294.448H1693.83V298H1691.24ZM1685.6 292.096H1691.24V284.56L1685.6 292.096ZM1701.4 289.216C1700.3 289.216 1699.39 288.856 1698.67 288.136C1697.96 287.416 1697.61 286.368 1697.61 284.992C1697.61 283.6 1697.96 282.552 1698.67 281.848C1699.39 281.128 1700.3 280.768 1701.4 280.768C1702.51 280.768 1703.41 281.128 1704.11 281.848C1704.82 282.552 1705.17 283.6 1705.17 284.992C1705.17 286.368 1704.82 287.416 1704.11 288.136C1703.41 288.856 1702.51 289.216 1701.4 289.216ZM1701.4 287.608C1702.01 287.608 1702.47 287.384 1702.77 286.936C1703.07 286.488 1703.23 285.84 1703.23 284.992C1703.23 284.144 1703.07 283.496 1702.77 283.048C1702.47 282.6 1702.01 282.376 1701.4 282.376C1700.81 282.376 1700.35 282.6 1700.03 283.048C1699.73 283.496 1699.58 284.144 1699.58 284.992C1699.58 285.84 1699.73 286.488 1700.03 286.936C1700.35 287.384 1700.81 287.608 1701.4 287.608ZM1711.24 298.192C1710.15 298.192 1709.25 297.832 1708.53 297.112C1707.81 296.392 1707.45 295.344 1707.45 293.968C1707.45 292.576 1707.81 291.528 1708.53 290.824C1709.25 290.104 1710.15 289.744 1711.24 289.744C1712.36 289.744 1713.27 290.104 1713.98 290.824C1714.68 291.528 1715.03 292.576 1715.03 293.968C1715.03 295.344 1714.68 296.392 1713.98 297.112C1713.27 297.832 1712.36 298.192 1711.24 298.192ZM1711.24 296.584C1711.85 296.584 1712.31 296.36 1712.61 295.912C1712.91 295.464 1713.07 294.816 1713.07 293.968C1713.07 293.12 1712.91 292.472 1712.61 292.024C1712.31 291.576 1711.85 291.352 1711.24 291.352C1710.65 291.352 1710.19 291.576 1709.87 292.024C1709.57 292.472 1709.42 293.12 1709.42 293.968C1709.42 294.816 1709.57 295.464 1709.87 295.912C1710.19 296.36 1710.65 296.584 1711.24 296.584ZM1699.51 298L1711.12 280.96H1713.14L1701.52 298H1699.51Z" fill="white"/>
<path d="M1157 272H1716" stroke="#16363C" stroke-width="2"/>
<circle cx="1157" cy="272" r="9.5" fill="#16363C" stroke="#16363C"/>
<path d="M208.776 221V203.96H212.424V221H208.776ZM215.943 221V208.136H219.183L219.327 211.904L218.871 211.784C218.999 210.824 219.255 210.056 219.639 209.48C220.039 208.904 220.535 208.488 221.127 208.232C221.719 207.976 222.367 207.848 223.071 207.848C223.999 207.848 224.783 208.048 225.423 208.448C226.079 208.848 226.575 209.416 226.911 210.152C227.263 210.872 227.439 211.728 227.439 212.72V221H223.839V213.92C223.839 213.232 223.783 212.648 223.671 212.168C223.559 211.688 223.359 211.328 223.071 211.088C222.783 210.832 222.383 210.704 221.871 210.704C221.119 210.704 220.543 210.984 220.143 211.544C219.743 212.088 219.543 212.88 219.543 213.92V221H215.943ZM236.143 221.288C234.831 221.288 233.687 221.016 232.711 220.472C231.735 219.912 230.975 219.128 230.431 218.12C229.887 217.112 229.615 215.928 229.615 214.568C229.615 213.208 229.887 212.032 230.431 211.04C230.975 210.032 231.735 209.248 232.711 208.688C233.687 208.128 234.831 207.848 236.143 207.848C237.279 207.848 238.295 208.048 239.191 208.448C240.103 208.848 240.839 209.424 241.399 210.176C241.959 210.928 242.303 211.832 242.431 212.888L238.711 213.056C238.599 212.256 238.311 211.656 237.847 211.256C237.399 210.84 236.831 210.632 236.143 210.632C235.247 210.632 234.551 210.976 234.055 211.664C233.559 212.352 233.311 213.32 233.311 214.568C233.311 215.816 233.559 216.792 234.055 217.496C234.551 218.184 235.247 218.528 236.143 218.528C236.831 218.528 237.407 218.32 237.871 217.904C238.335 217.472 238.615 216.824 238.711 215.96L242.431 216.104C242.319 217.16 241.983 218.08 241.423 218.864C240.879 219.632 240.151 220.232 239.239 220.664C238.343 221.08 237.311 221.288 236.143 221.288ZM250.204 221.288C248.892 221.288 247.748 221.016 246.772 220.472C245.812 219.912 245.06 219.128 244.516 218.12C243.988 217.112 243.724 215.928 243.724 214.568C243.724 213.208 243.988 212.032 244.516 211.04C245.06 210.032 245.812 209.248 246.772 208.688C247.732 208.128 248.868 207.848 250.18 207.848C251.46 207.848 252.572 208.128 253.516 208.688C254.46 209.248 255.188 210.048 255.7 211.088C256.228 212.128 256.492 213.368 256.492 214.808V215.528H247.444C247.492 216.552 247.764 217.312 248.26 217.808C248.772 218.304 249.444 218.552 250.276 218.552C250.884 218.552 251.388 218.424 251.788 218.168C252.204 217.912 252.5 217.52 252.676 216.992L256.3 217.208C255.964 218.488 255.252 219.488 254.164 220.208C253.076 220.928 251.756 221.288 250.204 221.288ZM247.444 213.32H252.796C252.748 212.376 252.484 211.672 252.004 211.208C251.54 210.744 250.932 210.512 250.18 210.512C249.428 210.512 248.804 210.76 248.308 211.256C247.828 211.736 247.54 212.424 247.444 213.32ZM258.717 221V208.136H261.957L262.101 211.904L261.645 211.784C261.773 210.824 262.029 210.056 262.413 209.48C262.813 208.904 263.309 208.488 263.901 208.232C264.493 207.976 265.141 207.848 265.845 207.848C266.773 207.848 267.557 208.048 268.197 208.448C268.853 208.848 269.349 209.416 269.685 210.152C270.037 210.872 270.213 211.728 270.213 212.72V221H266.613V213.92C266.613 213.232 266.557 212.648 266.445 212.168C266.333 211.688 266.133 211.328 265.845 211.088C265.557 210.832 265.157 210.704 264.645 210.704C263.893 210.704 263.317 210.984 262.917 211.544C262.517 212.088 262.317 212.88 262.317 213.92V221H258.717ZM277.873 221C276.545 221 275.569 220.696 274.945 220.088C274.321 219.464 274.009 218.48 274.009 217.136V205.112H277.609V216.704C277.609 217.328 277.737 217.752 277.993 217.976C278.265 218.2 278.665 218.312 279.193 218.312H280.993V221H277.873ZM271.945 210.824V208.136H280.993V210.824H271.945ZM283.115 221V208.136H286.715V221H283.115ZM283.043 206.552V203.672H286.763V206.552H283.043ZM293.255 221L288.551 208.136H292.319L295.367 217.376L298.391 208.136H302.159L297.431 221H293.255ZM309.36 221.288C308.048 221.288 306.904 221.016 305.928 220.472C304.968 219.912 304.216 219.128 303.672 218.12C303.144 217.112 302.88 215.928 302.88 214.568C302.88 213.208 303.144 212.032 303.672 211.04C304.216 210.032 304.968 209.248 305.928 208.688C306.888 208.128 308.024 207.848 309.336 207.848C310.616 207.848 311.728 208.128 312.672 208.688C313.616 209.248 314.344 210.048 314.856 211.088C315.384 212.128 315.648 213.368 315.648 214.808V215.528H306.6C306.648 216.552 306.92 217.312 307.416 217.808C307.928 218.304 308.6 218.552 309.432 218.552C310.04 218.552 310.544 218.424 310.944 218.168C311.36 217.912 311.656 217.52 311.832 216.992L315.456 217.208C315.12 218.488 314.408 219.488 313.32 220.208C312.232 220.928 310.912 221.288 309.36 221.288ZM306.6 213.32H311.952C311.904 212.376 311.64 211.672 311.16 211.208C310.696 210.744 310.088 210.512 309.336 210.512C308.584 210.512 307.96 210.76 307.464 211.256C306.984 211.736 306.696 212.424 306.6 213.32ZM323.369 221.288C322.041 221.288 320.929 221.104 320.033 220.736C319.137 220.352 318.449 219.84 317.969 219.2C317.505 218.544 317.241 217.792 317.177 216.944L320.825 216.824C320.937 217.432 321.193 217.904 321.593 218.24C321.993 218.576 322.585 218.744 323.369 218.744C324.009 218.744 324.505 218.64 324.857 218.432C325.225 218.224 325.409 217.904 325.409 217.472C325.409 217.2 325.345 216.976 325.217 216.8C325.089 216.608 324.833 216.448 324.449 216.32C324.081 216.176 323.529 216.048 322.793 215.936C321.433 215.696 320.369 215.416 319.601 215.096C318.833 214.776 318.289 214.36 317.969 213.848C317.649 213.336 317.489 212.712 317.489 211.976C317.489 210.744 317.961 209.752 318.905 209C319.865 208.232 321.297 207.848 323.201 207.848C324.417 207.848 325.433 208.04 326.249 208.424C327.081 208.808 327.721 209.336 328.169 210.008C328.633 210.664 328.921 211.416 329.033 212.264L325.409 212.408C325.361 211.992 325.233 211.64 325.025 211.352C324.833 211.048 324.585 210.816 324.281 210.656C323.977 210.48 323.609 210.392 323.177 210.392C322.537 210.392 322.041 210.528 321.689 210.8C321.353 211.056 321.185 211.4 321.185 211.832C321.185 212.152 321.257 212.416 321.401 212.624C321.561 212.816 321.817 212.976 322.169 213.104C322.521 213.232 322.993 213.336 323.585 213.416C324.961 213.608 326.049 213.88 326.849 214.232C327.665 214.568 328.249 214.992 328.601 215.504C328.953 216.016 329.129 216.648 329.129 217.4C329.129 218.232 328.889 218.936 328.409 219.512C327.929 220.088 327.257 220.528 326.393 220.832C325.545 221.136 324.537 221.288 323.369 221.288Z" fill="white"/>
<path d="M211.536 254V241.856H207.936V239.768H209.4C210.04 239.768 210.56 239.688 210.96 239.528C211.36 239.352 211.648 239.064 211.824 238.664C212 238.248 212.088 237.68 212.088 236.96H214.128V254H211.536ZM217.932 254C217.932 252.72 218.124 251.576 218.508 250.568C218.892 249.56 219.548 248.624 220.476 247.76C221.404 246.896 222.684 246.032 224.316 245.168C225.1 244.768 225.724 244.4 226.188 244.064C226.668 243.712 227.012 243.352 227.22 242.984C227.428 242.616 227.532 242.168 227.532 241.64C227.532 241.096 227.412 240.632 227.172 240.248C226.948 239.848 226.612 239.536 226.164 239.312C225.716 239.072 225.148 238.952 224.46 238.952C223.372 238.952 222.508 239.248 221.868 239.84C221.244 240.416 220.852 241.248 220.692 242.336L218.004 242.168C218.196 240.456 218.844 239.096 219.948 238.088C221.068 237.08 222.572 236.576 224.46 236.576C225.676 236.576 226.708 236.792 227.556 237.224C228.42 237.64 229.076 238.224 229.524 238.976C229.988 239.728 230.22 240.6 230.22 241.592C230.22 242.456 230.076 243.2 229.788 243.824C229.5 244.448 229.02 245.032 228.348 245.576C227.676 246.104 226.764 246.672 225.612 247.28C224.14 248.064 223.028 248.84 222.276 249.608C221.524 250.36 221.124 251.032 221.076 251.624H230.22V254H217.932ZM232.641 254V250.976H235.737V254H232.641ZM244.361 254.384C242.953 254.384 241.729 254.024 240.689 253.304C239.649 252.584 238.849 251.56 238.289 250.232C237.729 248.904 237.449 247.328 237.449 245.504C237.449 243.68 237.729 242.104 238.289 240.776C238.865 239.432 239.665 238.4 240.689 237.68C241.729 236.944 242.953 236.576 244.361 236.576C245.785 236.576 247.009 236.944 248.033 237.68C249.073 238.4 249.873 239.424 250.433 240.752C251.009 242.08 251.297 243.664 251.297 245.504C251.297 247.328 251.017 248.904 250.457 250.232C249.897 251.56 249.097 252.584 248.057 253.304C247.017 254.024 245.785 254.384 244.361 254.384ZM244.361 252.008C245.721 252.008 246.769 251.448 247.505 250.328C248.241 249.208 248.609 247.6 248.609 245.504C248.609 244.096 248.441 242.904 248.105 241.928C247.785 240.952 247.305 240.216 246.665 239.72C246.041 239.208 245.273 238.952 244.361 238.952C243.465 238.952 242.697 239.208 242.057 239.72C241.433 240.216 240.953 240.952 240.617 241.928C240.297 242.904 240.137 244.096 240.137 245.504C240.137 247.6 240.505 249.208 241.241 250.328C241.977 251.448 243.017 252.008 244.361 252.008ZM257.269 245.216C256.165 245.216 255.253 244.856 254.533 244.136C253.829 243.416 253.477 242.368 253.477 240.992C253.477 239.6 253.829 238.552 254.533 237.848C255.253 237.128 256.165 236.768 257.269 236.768C258.373 236.768 259.277 237.128 259.981 237.848C260.685 238.552 261.037 239.6 261.037 240.992C261.037 242.368 260.685 243.416 259.981 244.136C259.277 244.856 258.373 245.216 257.269 245.216ZM257.269 243.608C257.877 243.608 258.333 243.384 258.637 242.936C258.941 242.488 259.093 241.84 259.093 240.992C259.093 240.144 258.941 239.496 258.637 239.048C258.333 238.6 257.877 238.376 257.269 238.376C256.677 238.376 256.221 238.6 255.901 239.048C255.597 239.496 255.445 240.144 255.445 240.992C255.445 241.84 255.597 242.488 255.901 242.936C256.221 243.384 256.677 243.608 257.269 243.608ZM267.109 254.192C266.021 254.192 265.117 253.832 264.397 253.112C263.677 252.392 263.317 251.344 263.317 249.968C263.317 248.576 263.677 247.528 264.397 246.824C265.117 246.104 266.021 245.744 267.109 245.744C268.229 245.744 269.141 246.104 269.845 246.824C270.549 247.528 270.901 248.576 270.901 249.968C270.901 251.344 270.549 252.392 269.845 253.112C269.141 253.832 268.229 254.192 267.109 254.192ZM267.109 252.584C267.717 252.584 268.173 252.36 268.477 251.912C268.781 251.464 268.933 250.816 268.933 249.968C268.933 249.12 268.781 248.472 268.477 248.024C268.173 247.576 267.717 247.352 267.109 247.352C266.517 247.352 266.061 247.576 265.741 248.024C265.437 248.472 265.285 249.12 265.285 249.968C265.285 250.816 265.437 251.464 265.741 251.912C266.061 252.36 266.517 252.584 267.109 252.584ZM255.373 254L266.989 236.96H269.005L257.389 254H255.373Z" fill="white"/>
<path d="M828 230L207 230" stroke="#16363C" stroke-width="2"/>
<circle cx="10" cy="10" r="9.5" transform="matrix(-1 0 0 1 840 220)" fill="#16363C" stroke="#16363C"/>
<path d="M208.776 445V427.96H214.656C217.424 427.96 219.552 428.704 221.04 430.192C222.528 431.664 223.272 433.768 223.272 436.504C223.272 439.224 222.536 441.32 221.064 442.792C219.608 444.264 217.52 445 214.8 445H208.776ZM212.424 441.928H214.656C216.304 441.928 217.52 441.488 218.304 440.608C219.104 439.712 219.504 438.336 219.504 436.48C219.504 434.624 219.104 433.256 218.304 432.376C217.52 431.48 216.304 431.032 214.656 431.032H212.424V441.928ZM223.722 445L229.866 427.96H234.186L240.33 445H236.538L235.29 441.376H228.738L227.49 445H223.722ZM229.77 438.376H234.282L232.026 431.8L229.77 438.376ZM249.101 445.384C247.373 445.384 245.885 445.024 244.637 444.304C243.405 443.584 242.453 442.56 241.781 441.232C241.125 439.904 240.797 438.328 240.797 436.504C240.797 434.68 241.125 433.104 241.781 431.776C242.453 430.432 243.405 429.4 244.637 428.68C245.885 427.944 247.373 427.576 249.101 427.576C250.829 427.576 252.309 427.944 253.541 428.68C254.789 429.4 255.741 430.432 256.397 431.776C257.069 433.104 257.405 434.68 257.405 436.504C257.405 438.328 257.069 439.904 256.397 441.232C255.741 442.56 254.789 443.584 253.541 444.304C252.309 445.024 250.829 445.384 249.101 445.384ZM249.077 442.312C250.037 442.312 250.853 442.088 251.525 441.64C252.213 441.176 252.733 440.512 253.085 439.648C253.453 438.784 253.637 437.736 253.637 436.504C253.637 435.272 253.453 434.224 253.085 433.36C252.733 432.48 252.213 431.808 251.525 431.344C250.853 430.88 250.037 430.648 249.077 430.648C248.133 430.648 247.325 430.88 246.653 431.344C245.981 431.808 245.461 432.48 245.093 433.36C244.741 434.224 244.565 435.272 244.565 436.504C244.565 437.736 244.741 438.784 245.093 439.648C245.461 440.512 245.981 441.176 246.653 441.64C247.341 442.088 248.149 442.312 249.077 442.312ZM269.235 445V431.032H264.147V427.96H278.019V431.032H272.907V445H269.235ZM278.779 445V432.136H282.187L282.307 435.88L282.043 435.808C282.251 434.512 282.619 433.576 283.147 433C283.675 432.424 284.403 432.136 285.331 432.136H286.507V435.112H285.331C284.659 435.112 284.107 435.2 283.675 435.376C283.243 435.552 282.915 435.832 282.691 436.216C282.483 436.6 282.379 437.12 282.379 437.776V445H278.779ZM293.798 445.288C292.486 445.288 291.342 445.016 290.366 444.472C289.406 443.912 288.654 443.128 288.11 442.12C287.582 441.112 287.318 439.928 287.318 438.568C287.318 437.208 287.582 436.032 288.11 435.04C288.654 434.032 289.406 433.248 290.366 432.688C291.326 432.128 292.462 431.848 293.774 431.848C295.054 431.848 296.166 432.128 297.11 432.688C298.054 433.248 298.782 434.048 299.294 435.088C299.822 436.128 300.086 437.368 300.086 438.808V439.528H291.038C291.086 440.552 291.358 441.312 291.854 441.808C292.366 442.304 293.038 442.552 293.87 442.552C294.478 442.552 294.982 442.424 295.382 442.168C295.798 441.912 296.094 441.52 296.27 440.992L299.894 441.208C299.558 442.488 298.846 443.488 297.758 444.208C296.67 444.928 295.35 445.288 293.798 445.288ZM291.038 437.32H296.39C296.342 436.376 296.078 435.672 295.598 435.208C295.134 434.744 294.526 434.512 293.774 434.512C293.022 434.512 292.398 434.76 291.902 435.256C291.422 435.736 291.134 436.424 291.038 437.32ZM306.244 445.288C304.916 445.288 303.828 444.984 302.98 444.376C302.148 443.752 301.732 442.888 301.732 441.784C301.732 440.648 302.084 439.776 302.788 439.168C303.508 438.544 304.564 438.088 305.956 437.8L310.108 436.984C310.108 436.152 309.916 435.528 309.532 435.112C309.164 434.68 308.628 434.464 307.924 434.464C307.236 434.464 306.7 434.624 306.316 434.944C305.932 435.248 305.684 435.704 305.572 436.312L301.948 436.144C302.188 434.736 302.82 433.672 303.844 432.952C304.884 432.216 306.244 431.848 307.924 431.848C309.844 431.848 311.284 432.304 312.244 433.216C313.22 434.128 313.708 435.464 313.708 437.224V441.616C313.708 441.984 313.764 442.232 313.876 442.36C314.004 442.472 314.188 442.528 314.428 442.528H314.788V445C314.676 445.032 314.492 445.064 314.236 445.096C313.996 445.128 313.756 445.144 313.516 445.144C313.004 445.144 312.524 445.056 312.076 444.88C311.644 444.704 311.292 444.408 311.02 443.992C310.748 443.56 310.612 442.952 310.612 442.168L310.924 442.408C310.764 442.984 310.476 443.488 310.06 443.92C309.66 444.352 309.132 444.688 308.476 444.928C307.836 445.168 307.092 445.288 306.244 445.288ZM307.108 442.816C307.7 442.816 308.22 442.704 308.668 442.48C309.116 442.24 309.468 441.896 309.724 441.448C309.98 441 310.108 440.472 310.108 439.864V439.24L307.18 439.864C306.604 439.976 306.164 440.168 305.86 440.44C305.572 440.696 305.428 441.032 305.428 441.448C305.428 441.88 305.572 442.216 305.86 442.456C306.148 442.696 306.564 442.816 307.108 442.816ZM321.939 445.288C320.611 445.288 319.499 445.104 318.603 444.736C317.707 444.352 317.019 443.84 316.539 443.2C316.075 442.544 315.811 441.792 315.747 440.944L319.395 440.824C319.507 441.432 319.763 441.904 320.163 442.24C320.563 442.576 321.155 442.744 321.939 442.744C322.579 442.744 323.075 442.64 323.427 442.432C323.795 442.224 323.979 441.904 323.979 441.472C323.979 441.2 323.915 440.976 323.787 440.8C323.659 440.608 323.403 440.448 323.019 440.32C322.651 440.176 322.099 440.048 321.363 439.936C320.003 439.696 318.939 439.416 318.171 439.096C317.403 438.776 316.859 438.36 316.539 437.848C316.219 437.336 316.059 436.712 316.059 435.976C316.059 434.744 316.531 433.752 317.475 433C318.435 432.232 319.867 431.848 321.771 431.848C322.987 431.848 324.003 432.04 324.819 432.424C325.651 432.808 326.291 433.336 326.739 434.008C327.203 434.664 327.491 435.416 327.603 436.264L323.979 436.408C323.931 435.992 323.803 435.64 323.595 435.352C323.403 435.048 323.155 434.816 322.851 434.656C322.547 434.48 322.179 434.392 321.747 434.392C321.107 434.392 320.611 434.528 320.259 434.8C319.923 435.056 319.755 435.4 319.755 435.832C319.755 436.152 319.827 436.416 319.971 436.624C320.131 436.816 320.387 436.976 320.739 437.104C321.091 437.232 321.563 437.336 322.155 437.416C323.531 437.608 324.619 437.88 325.419 438.232C326.235 438.568 326.819 438.992 327.171 439.504C327.523 440.016 327.699 440.648 327.699 441.4C327.699 442.232 327.459 442.936 326.979 443.512C326.499 444.088 325.827 444.528 324.963 444.832C324.115 445.136 323.107 445.288 321.939 445.288ZM334.144 445.288C332.816 445.288 331.776 444.864 331.024 444.016C330.288 443.152 329.92 441.952 329.92 440.416V432.136H333.52V439.576C333.52 440.568 333.672 441.296 333.976 441.76C334.28 442.208 334.76 442.432 335.416 442.432C336.152 442.432 336.72 442.184 337.12 441.688C337.536 441.176 337.744 440.416 337.744 439.408V432.136H341.344V445H338.056L337.96 441.304L338.416 441.4C338.224 442.68 337.768 443.648 337.048 444.304C336.328 444.96 335.36 445.288 334.144 445.288ZM344.498 445V432.136H347.906L348.026 435.88L347.762 435.808C347.97 434.512 348.338 433.576 348.866 433C349.394 432.424 350.122 432.136 351.05 432.136H352.226V435.112H351.05C350.378 435.112 349.826 435.2 349.394 435.376C348.962 435.552 348.634 435.832 348.41 436.216C348.202 436.6 348.098 437.12 348.098 437.776V445H344.498ZM355.21 448.6V445.912H356.914C357.33 445.912 357.634 445.848 357.826 445.72C358.034 445.608 358.194 445.4 358.306 445.096L358.57 444.352H357.586L353.074 432.136H356.746L359.698 440.992L362.458 432.136H366.13L361.186 446.224C360.898 447.072 360.482 447.68 359.938 448.048C359.394 448.416 358.634 448.6 357.658 448.6H355.21Z" fill="white"/>
<path d="M211.536 477V464.856H207.936V462.768H209.4C210.04 462.768 210.56 462.688 210.96 462.528C211.36 462.352 211.648 462.064 211.824 461.664C212 461.248 212.088 460.68 212.088 459.96H214.128V477H211.536ZM217.932 477C217.932 475.72 218.124 474.576 218.508 473.568C218.892 472.56 219.548 471.624 220.476 470.76C221.404 469.896 222.684 469.032 224.316 468.168C225.1 467.768 225.724 467.4 226.188 467.064C226.668 466.712 227.012 466.352 227.22 465.984C227.428 465.616 227.532 465.168 227.532 464.64C227.532 464.096 227.412 463.632 227.172 463.248C226.948 462.848 226.612 462.536 226.164 462.312C225.716 462.072 225.148 461.952 224.46 461.952C223.372 461.952 222.508 462.248 221.868 462.84C221.244 463.416 220.852 464.248 220.692 465.336L218.004 465.168C218.196 463.456 218.844 462.096 219.948 461.088C221.068 460.08 222.572 459.576 224.46 459.576C225.676 459.576 226.708 459.792 227.556 460.224C228.42 460.64 229.076 461.224 229.524 461.976C229.988 462.728 230.22 463.6 230.22 464.592C230.22 465.456 230.076 466.2 229.788 466.824C229.5 467.448 229.02 468.032 228.348 468.576C227.676 469.104 226.764 469.672 225.612 470.28C224.14 471.064 223.028 471.84 222.276 472.608C221.524 473.36 221.124 474.032 221.076 474.624H230.22V477H217.932ZM232.641 477V473.976H235.737V477H232.641ZM244.398 477.384C243.134 477.384 242.054 477.184 241.158 476.784C240.262 476.368 239.558 475.792 239.046 475.056C238.534 474.32 238.238 473.472 238.158 472.512L240.822 472.344C240.95 473.24 241.326 473.912 241.95 474.36C242.59 474.792 243.406 475.008 244.398 475.008C245.518 475.008 246.398 474.696 247.038 474.072C247.694 473.448 248.022 472.576 248.022 471.456C248.022 470.72 247.87 470.088 247.566 469.56C247.278 469.016 246.862 468.6 246.318 468.312C245.774 468.008 245.126 467.856 244.374 467.856C243.622 467.856 242.95 468.016 242.358 468.336C241.766 468.656 241.342 469.096 241.086 469.656H238.398L239.55 459.96H249.534V462.336H241.854L241.134 468.168L240.726 467.808C240.998 467.328 241.342 466.936 241.758 466.632C242.174 466.312 242.654 466.072 243.198 465.912C243.758 465.736 244.35 465.648 244.974 465.648C246.126 465.648 247.126 465.896 247.974 466.392C248.838 466.888 249.51 467.576 249.99 468.456C250.47 469.336 250.71 470.336 250.71 471.456C250.71 472.624 250.446 473.656 249.918 474.552C249.39 475.448 248.654 476.144 247.71 476.64C246.766 477.136 245.662 477.384 244.398 477.384ZM256.917 468.216C255.813 468.216 254.901 467.856 254.181 467.136C253.477 466.416 253.125 465.368 253.125 463.992C253.125 462.6 253.477 461.552 254.181 460.848C254.901 460.128 255.813 459.768 256.917 459.768C258.021 459.768 258.925 460.128 259.629 460.848C260.333 461.552 260.685 462.6 260.685 463.992C260.685 465.368 260.333 466.416 259.629 467.136C258.925 467.856 258.021 468.216 256.917 468.216ZM256.917 466.608C257.525 466.608 257.981 466.384 258.285 465.936C258.589 465.488 258.741 464.84 258.741 463.992C258.741 463.144 258.589 462.496 258.285 462.048C257.981 461.6 257.525 461.376 256.917 461.376C256.325 461.376 255.869 461.6 255.549 462.048C255.245 462.496 255.093 463.144 255.093 463.992C255.093 464.84 255.245 465.488 255.549 465.936C255.869 466.384 256.325 466.608 256.917 466.608ZM266.757 477.192C265.669 477.192 264.765 476.832 264.045 476.112C263.325 475.392 262.965 474.344 262.965 472.968C262.965 471.576 263.325 470.528 264.045 469.824C264.765 469.104 265.669 468.744 266.757 468.744C267.877 468.744 268.789 469.104 269.493 469.824C270.197 470.528 270.549 471.576 270.549 472.968C270.549 474.344 270.197 475.392 269.493 476.112C268.789 476.832 267.877 477.192 266.757 477.192ZM266.757 475.584C267.365 475.584 267.821 475.36 268.125 474.912C268.429 474.464 268.581 473.816 268.581 472.968C268.581 472.12 268.429 471.472 268.125 471.024C267.821 470.576 267.365 470.352 266.757 470.352C266.165 470.352 265.709 470.576 265.389 471.024C265.085 471.472 264.933 472.12 264.933 472.968C264.933 473.816 265.085 474.464 265.389 474.912C265.709 475.36 266.165 475.584 266.757 475.584ZM255.021 477L266.637 459.96H268.653L257.037 477H255.021Z" fill="white"/>
<path d="M690 453H207" stroke="#16363C" stroke-width="2"/>
<circle cx="10" cy="10" r="9.5" transform="matrix(-1 0 0 1 700 443)" fill="#16363C" stroke="#16363C"/>
<path d="M216 718.384C214.448 718.384 213.064 718.032 211.848 717.328C210.648 716.624 209.704 715.608 209.016 714.28C208.344 712.952 208.008 711.36 208.008 709.504C208.008 707.696 208.336 706.128 208.992 704.8C209.648 703.456 210.584 702.416 211.8 701.68C213.016 700.944 214.44 700.576 216.072 700.576C218.296 700.576 220.024 701.128 221.256 702.232C222.504 703.32 223.304 704.88 223.656 706.912L219.864 707.056C219.672 705.984 219.256 705.152 218.616 704.56C217.976 703.952 217.128 703.648 216.072 703.648C215.16 703.648 214.384 703.888 213.744 704.368C213.104 704.848 212.616 705.528 212.28 706.408C211.944 707.288 211.776 708.32 211.776 709.504C211.776 710.704 211.944 711.744 212.28 712.624C212.632 713.488 213.128 714.152 213.768 714.616C214.408 715.08 215.168 715.312 216.048 715.312C217.2 715.312 218.088 714.992 218.712 714.352C219.352 713.696 219.752 712.792 219.912 711.64L223.728 711.784C223.504 713.176 223.064 714.36 222.408 715.336C221.752 716.312 220.888 717.064 219.816 717.592C218.76 718.12 217.488 718.384 216 718.384ZM231.83 718.288C230.518 718.288 229.374 718.016 228.398 717.472C227.422 716.912 226.662 716.128 226.118 715.12C225.574 714.112 225.302 712.928 225.302 711.568C225.302 710.208 225.574 709.032 226.118 708.04C226.662 707.032 227.422 706.248 228.398 705.688C229.374 705.128 230.518 704.848 231.83 704.848C233.142 704.848 234.286 705.128 235.262 705.688C236.238 706.248 236.998 707.032 237.542 708.04C238.086 709.032 238.358 710.208 238.358 711.568C238.358 712.928 238.086 714.112 237.542 715.12C236.998 716.128 236.238 716.912 235.262 717.472C234.286 718.016 233.142 718.288 231.83 718.288ZM231.83 715.528C232.726 715.528 233.422 715.184 233.918 714.496C234.414 713.792 234.662 712.816 234.662 711.568C234.662 710.32 234.414 709.352 233.918 708.664C233.422 707.96 232.726 707.608 231.83 707.608C230.934 707.608 230.238 707.96 229.742 708.664C229.246 709.352 228.998 710.32 228.998 711.568C228.998 712.816 229.246 713.792 229.742 714.496C230.238 715.184 230.934 715.528 231.83 715.528ZM240.6 718V705.136H244.008L244.128 708.88L243.864 708.808C244.072 707.512 244.44 706.576 244.968 706C245.496 705.424 246.224 705.136 247.152 705.136H248.328V708.112H247.152C246.48 708.112 245.928 708.2 245.496 708.376C245.064 708.552 244.736 708.832 244.512 709.216C244.304 709.6 244.2 710.12 244.2 710.776V718H240.6ZM255.618 718.288C254.306 718.288 253.162 718.016 252.186 717.472C251.226 716.912 250.474 716.128 249.93 715.12C249.402 714.112 249.138 712.928 249.138 711.568C249.138 710.208 249.402 709.032 249.93 708.04C250.474 707.032 251.226 706.248 252.186 705.688C253.146 705.128 254.282 704.848 255.594 704.848C256.874 704.848 257.986 705.128 258.93 705.688C259.874 706.248 260.602 707.048 261.114 708.088C261.642 709.128 261.906 710.368 261.906 711.808V712.528H252.858C252.906 713.552 253.178 714.312 253.674 714.808C254.186 715.304 254.858 715.552 255.69 715.552C256.298 715.552 256.802 715.424 257.202 715.168C257.618 714.912 257.914 714.52 258.09 713.992L261.714 714.208C261.378 715.488 260.666 716.488 259.578 717.208C258.49 717.928 257.17 718.288 255.618 718.288ZM252.858 710.32H258.21C258.162 709.376 257.898 708.672 257.418 708.208C256.954 707.744 256.346 707.512 255.594 707.512C254.842 707.512 254.218 707.76 253.722 708.256C253.242 708.736 252.954 709.424 252.858 710.32ZM277.242 718.384C275.69 718.384 274.306 718.032 273.09 717.328C271.89 716.624 270.946 715.608 270.258 714.28C269.586 712.952 269.25 711.36 269.25 709.504C269.25 707.696 269.578 706.128 270.234 704.8C270.89 703.456 271.826 702.416 273.042 701.68C274.258 700.944 275.682 700.576 277.314 700.576C279.538 700.576 281.266 701.128 282.498 702.232C283.746 703.32 284.546 704.88 284.898 706.912L281.106 707.056C280.914 705.984 280.498 705.152 279.858 704.56C279.218 703.952 278.37 703.648 277.314 703.648C276.402 703.648 275.626 703.888 274.986 704.368C274.346 704.848 273.858 705.528 273.522 706.408C273.186 707.288 273.018 708.32 273.018 709.504C273.018 710.704 273.186 711.744 273.522 712.624C273.874 713.488 274.37 714.152 275.01 714.616C275.65 715.08 276.41 715.312 277.29 715.312C278.442 715.312 279.33 714.992 279.954 714.352C280.594 713.696 280.994 712.792 281.154 711.64L284.97 711.784C284.746 713.176 284.306 714.36 283.65 715.336C282.994 716.312 282.13 717.064 281.058 717.592C280.002 718.12 278.73 718.384 277.242 718.384ZM293.072 718.288C291.76 718.288 290.616 718.016 289.64 717.472C288.664 716.912 287.904 716.128 287.36 715.12C286.816 714.112 286.544 712.928 286.544 711.568C286.544 710.208 286.816 709.032 287.36 708.04C287.904 707.032 288.664 706.248 289.64 705.688C290.616 705.128 291.76 704.848 293.072 704.848C294.384 704.848 295.528 705.128 296.504 705.688C297.48 706.248 298.24 707.032 298.784 708.04C299.328 709.032 299.6 710.208 299.6 711.568C299.6 712.928 299.328 714.112 298.784 715.12C298.24 716.128 297.48 716.912 296.504 717.472C295.528 718.016 294.384 718.288 293.072 718.288ZM293.072 715.528C293.968 715.528 294.664 715.184 295.16 714.496C295.656 713.792 295.904 712.816 295.904 711.568C295.904 710.32 295.656 709.352 295.16 708.664C294.664 707.96 293.968 707.608 293.072 707.608C292.176 707.608 291.48 707.96 290.984 708.664C290.488 709.352 290.24 710.32 290.24 711.568C290.24 712.816 290.488 713.792 290.984 714.496C291.48 715.184 292.176 715.528 293.072 715.528ZM301.842 718V705.136H305.082L305.226 708.904L304.77 708.784C304.898 707.824 305.154 707.056 305.538 706.48C305.938 705.904 306.434 705.488 307.026 705.232C307.618 704.976 308.266 704.848 308.97 704.848C309.898 704.848 310.682 705.048 311.322 705.448C311.978 705.848 312.474 706.416 312.81 707.152C313.162 707.872 313.338 708.728 313.338 709.72V718H309.738V710.92C309.738 710.232 309.682 709.648 309.57 709.168C309.458 708.688 309.258 708.328 308.97 708.088C308.682 707.832 308.282 707.704 307.77 707.704C307.018 707.704 306.442 707.984 306.042 708.544C305.642 709.088 305.442 709.88 305.442 710.92V718H301.842ZM320.998 718C319.67 718 318.694 717.696 318.07 717.088C317.446 716.464 317.134 715.48 317.134 714.136V702.112H320.734V713.704C320.734 714.328 320.862 714.752 321.118 714.976C321.39 715.2 321.79 715.312 322.318 715.312H324.118V718H320.998ZM315.07 707.824V705.136H324.118V707.824H315.07ZM326.475 718V705.136H329.883L330.003 708.88L329.739 708.808C329.947 707.512 330.315 706.576 330.843 706C331.371 705.424 332.099 705.136 333.027 705.136H334.203V708.112H333.027C332.355 708.112 331.803 708.2 331.371 708.376C330.939 708.552 330.611 708.832 330.387 709.216C330.179 709.6 330.075 710.12 330.075 710.776V718H326.475ZM336.084 718V705.136H339.684V718H336.084ZM336.012 703.552V700.672H339.732V703.552H336.012ZM349.898 718.288C349.002 718.288 348.218 718.096 347.546 717.712C346.89 717.328 346.378 716.792 346.01 716.104L345.938 718H342.506V700.96H346.106V706.96C346.442 706.368 346.938 705.872 347.594 705.472C348.25 705.056 349.018 704.848 349.898 704.848C350.986 704.848 351.93 705.128 352.73 705.688C353.53 706.232 354.146 707.008 354.578 708.016C355.026 709.024 355.25 710.208 355.25 711.568C355.25 712.928 355.026 714.112 354.578 715.12C354.146 716.128 353.53 716.912 352.73 717.472C351.93 718.016 350.986 718.288 349.898 718.288ZM348.89 715.528C349.69 715.528 350.33 715.184 350.81 714.496C351.306 713.792 351.554 712.816 351.554 711.568C351.554 710.32 351.314 709.352 350.834 708.664C350.354 707.96 349.714 707.608 348.914 707.608C348.322 707.608 347.81 707.768 347.378 708.088C346.962 708.392 346.642 708.84 346.418 709.432C346.21 710.024 346.106 710.736 346.106 711.568C346.106 712.384 346.21 713.088 346.418 713.68C346.642 714.272 346.962 714.728 347.378 715.048C347.81 715.368 348.314 715.528 348.89 715.528ZM361.706 718.288C360.378 718.288 359.338 717.864 358.586 717.016C357.85 716.152 357.482 714.952 357.482 713.416V705.136H361.082V712.576C361.082 713.568 361.234 714.296 361.538 714.76C361.842 715.208 362.322 715.432 362.978 715.432C363.714 715.432 364.282 715.184 364.682 714.688C365.098 714.176 365.306 713.416 365.306 712.408V705.136H368.906V718H365.618L365.522 714.304L365.978 714.4C365.786 715.68 365.33 716.648 364.61 717.304C363.89 717.96 362.922 718.288 361.706 718.288ZM376.873 718C375.545 718 374.569 717.696 373.945 717.088C373.321 716.464 373.009 715.48 373.009 714.136V702.112H376.609V713.704C376.609 714.328 376.737 714.752 376.993 714.976C377.265 715.2 377.665 715.312 378.193 715.312H379.993V718H376.873ZM370.945 707.824V705.136H379.993V707.824H370.945ZM387.736 718.288C386.424 718.288 385.28 718.016 384.304 717.472C383.328 716.912 382.568 716.128 382.024 715.12C381.48 714.112 381.208 712.928 381.208 711.568C381.208 710.208 381.48 709.032 382.024 708.04C382.568 707.032 383.328 706.248 384.304 705.688C385.28 705.128 386.424 704.848 387.736 704.848C389.048 704.848 390.192 705.128 391.168 705.688C392.144 706.248 392.904 707.032 393.448 708.04C393.992 709.032 394.264 710.208 394.264 711.568C394.264 712.928 393.992 714.112 393.448 715.12C392.904 716.128 392.144 716.912 391.168 717.472C390.192 718.016 389.048 718.288 387.736 718.288ZM387.736 715.528C388.632 715.528 389.328 715.184 389.824 714.496C390.32 713.792 390.568 712.816 390.568 711.568C390.568 710.32 390.32 709.352 389.824 708.664C389.328 707.96 388.632 707.608 387.736 707.608C386.84 707.608 386.144 707.96 385.648 708.664C385.152 709.352 384.904 710.32 384.904 711.568C384.904 712.816 385.152 713.792 385.648 714.496C386.144 715.184 386.84 715.528 387.736 715.528ZM396.506 718V705.136H399.914L400.034 708.88L399.77 708.808C399.978 707.512 400.346 706.576 400.874 706C401.402 705.424 402.13 705.136 403.058 705.136H404.234V708.112H403.058C402.386 708.112 401.834 708.2 401.402 708.376C400.97 708.552 400.642 708.832 400.418 709.216C400.21 709.6 400.106 710.12 400.106 710.776V718H396.506ZM411.236 718.288C409.908 718.288 408.796 718.104 407.9 717.736C407.004 717.352 406.316 716.84 405.836 716.2C405.372 715.544 405.108 714.792 405.044 713.944L408.692 713.824C408.804 714.432 409.06 714.904 409.46 715.24C409.86 715.576 410.452 715.744 411.236 715.744C411.876 715.744 412.372 715.64 412.724 715.432C413.092 715.224 413.276 714.904 413.276 714.472C413.276 714.2 413.212 713.976 413.084 713.8C412.956 713.608 412.7 713.448 412.316 713.32C411.948 713.176 411.396 713.048 410.66 712.936C409.3 712.696 408.236 712.416 407.468 712.096C406.7 711.776 406.156 711.36 405.836 710.848C405.516 710.336 405.356 709.712 405.356 708.976C405.356 707.744 405.828 706.752 406.772 706C407.732 705.232 409.164 704.848 411.068 704.848C412.284 704.848 413.3 705.04 414.116 705.424C414.948 705.808 415.588 706.336 416.036 707.008C416.5 707.664 416.788 708.416 416.9 709.264L413.276 709.408C413.228 708.992 413.1 708.64 412.892 708.352C412.7 708.048 412.452 707.816 412.148 707.656C411.844 707.48 411.476 707.392 411.044 707.392C410.404 707.392 409.908 707.528 409.556 707.8C409.22 708.056 409.052 708.4 409.052 708.832C409.052 709.152 409.124 709.416 409.268 709.624C409.428 709.816 409.684 709.976 410.036 710.104C410.388 710.232 410.86 710.336 411.452 710.416C412.828 710.608 413.916 710.88 414.716 711.232C415.532 711.568 416.116 711.992 416.468 712.504C416.82 713.016 416.996 713.648 416.996 714.4C416.996 715.232 416.756 715.936 416.276 716.512C415.796 717.088 415.124 717.528 414.26 717.832C413.412 718.136 412.404 718.288 411.236 718.288Z" fill="white"/>
<path d="M208.416 752C208.416 750.72 208.608 749.576 208.992 748.568C209.376 747.56 210.032 746.624 210.96 745.76C211.888 744.896 213.168 744.032 214.8 743.168C215.584 742.768 216.208 742.4 216.672 742.064C217.152 741.712 217.496 741.352 217.704 740.984C217.912 740.616 218.016 740.168 218.016 739.64C218.016 739.096 217.896 738.632 217.656 738.248C217.432 737.848 217.096 737.536 216.648 737.312C216.2 737.072 215.632 736.952 214.944 736.952C213.856 736.952 212.992 737.248 212.352 737.84C211.728 738.416 211.336 739.248 211.176 740.336L208.488 740.168C208.68 738.456 209.328 737.096 210.432 736.088C211.552 735.08 213.056 734.576 214.944 734.576C216.16 734.576 217.192 734.792 218.04 735.224C218.904 735.64 219.56 736.224 220.008 736.976C220.472 737.728 220.704 738.6 220.704 739.592C220.704 740.456 220.56 741.2 220.272 741.824C219.984 742.448 219.504 743.032 218.832 743.576C218.16 744.104 217.248 744.672 216.096 745.28C214.624 746.064 213.512 746.84 212.76 747.608C212.008 748.36 211.608 749.032 211.56 749.624H220.704V752H208.416ZM229.947 752.384C228.539 752.384 227.315 752.024 226.275 751.304C225.235 750.584 224.435 749.56 223.875 748.232C223.315 746.904 223.035 745.328 223.035 743.504C223.035 741.68 223.315 740.104 223.875 738.776C224.451 737.432 225.251 736.4 226.275 735.68C227.315 734.944 228.539 734.576 229.947 734.576C231.371 734.576 232.595 734.944 233.619 735.68C234.659 736.4 235.459 737.424 236.019 738.752C236.595 740.08 236.883 741.664 236.883 743.504C236.883 745.328 236.603 746.904 236.043 748.232C235.483 749.56 234.683 750.584 233.643 751.304C232.603 752.024 231.371 752.384 229.947 752.384ZM229.947 750.008C231.307 750.008 232.355 749.448 233.091 748.328C233.827 747.208 234.195 745.6 234.195 743.504C234.195 742.096 234.027 740.904 233.691 739.928C233.371 738.952 232.891 738.216 232.251 737.72C231.627 737.208 230.859 736.952 229.947 736.952C229.051 736.952 228.283 737.208 227.643 737.72C227.019 738.216 226.539 738.952 226.203 739.928C225.883 740.904 225.723 742.096 225.723 743.504C225.723 745.6 226.091 747.208 226.827 748.328C227.563 749.448 228.603 750.008 229.947 750.008ZM242.855 743.216C241.751 743.216 240.839 742.856 240.119 742.136C239.415 741.416 239.063 740.368 239.063 738.992C239.063 737.6 239.415 736.552 240.119 735.848C240.839 735.128 241.751 734.768 242.855 734.768C243.959 734.768 244.863 735.128 245.567 735.848C246.271 736.552 246.623 737.6 246.623 738.992C246.623 740.368 246.271 741.416 245.567 742.136C244.863 742.856 243.959 743.216 242.855 743.216ZM242.855 741.608C243.463 741.608 243.919 741.384 244.223 740.936C244.527 740.488 244.679 739.84 244.679 738.992C244.679 738.144 244.527 737.496 244.223 737.048C243.919 736.6 243.463 736.376 242.855 736.376C242.263 736.376 241.807 736.6 241.487 737.048C241.183 737.496 241.031 738.144 241.031 738.992C241.031 739.84 241.183 740.488 241.487 740.936C241.807 741.384 242.263 741.608 242.855 741.608ZM252.695 752.192C251.607 752.192 250.703 751.832 249.983 751.112C249.263 750.392 248.903 749.344 248.903 747.968C248.903 746.576 249.263 745.528 249.983 744.824C250.703 744.104 251.607 743.744 252.695 743.744C253.815 743.744 254.727 744.104 255.431 744.824C256.135 745.528 256.487 746.576 256.487 747.968C256.487 749.344 256.135 750.392 255.431 751.112C254.727 751.832 253.815 752.192 252.695 752.192ZM252.695 750.584C253.303 750.584 253.759 750.36 254.063 749.912C254.367 749.464 254.519 748.816 254.519 747.968C254.519 747.12 254.367 746.472 254.063 746.024C253.759 745.576 253.303 745.352 252.695 745.352C252.103 745.352 251.647 745.576 251.327 746.024C251.023 746.472 250.871 747.12 250.871 747.968C250.871 748.816 251.023 749.464 251.327 749.912C251.647 750.36 252.103 750.584 252.695 750.584ZM240.959 752L252.575 734.96H254.591L242.975 752H240.959Z" fill="white"/>
<path d="M690 728H207" stroke="#16363C" stroke-width="2"/>
<circle cx="10" cy="10" r="9.5" transform="matrix(-1 0 0 1 700 718)" fill="#16363C" stroke="#16363C"/>
<circle cx="170" cy="228" r="17" fill="#FFC599"/>
<circle cx="170" cy="452" r="17" fill="#FFDCC2"/>
<circle cx="170" cy="728" r="17" fill="white"/>
<circle cx="1753" cy="880" r="17" fill="#FF6F00"/>
<circle cx="1753" cy="602" r="17" fill="#FF801F"/>
<circle cx="1753" cy="272" r="17" fill="#FFA35C"/>
</g>
<defs>
<linearGradient id="paint0_linear_88_3488" x1="94.1584" y1="144.158" x2="1021" y2="1035.5" gradientUnits="userSpaceOnUse">
<stop stop-color="#0D2024"/>
<stop offset="1" stop-color="#081215"/>
</linearGradient>
<clipPath id="clip0_88_3488">
<rect width="1920" height="1080" fill="white"/>
</clipPath>
</defs>
</svg>
