<svg width="1920" height="1080" viewBox="0 0 1920 1080" fill="none" xmlns="http://www.w3.org/2000/svg">
<g clip-path="url(#clip0_88_3722)">
<rect width="1920" height="1080" fill="#081215"/>
<path d="M1006.84 347.158C950.756 291.08 871.001 238.794 789.79 220.044C712.833 202.276 635.648 214.013 565.821 283.839C525.385 324.275 506.815 354.893 497.284 378.112C487.798 401.224 485.08 421.993 483.117 449.305C481.29 474.714 480.139 514.695 467.38 555.851C453.663 600.1 428.209 642.774 384.237 686.746C337.099 733.884 272.631 753.154 212.59 760.187C151.328 767.362 83.9553 763.078 19.0904 753.552C-110.829 734.471 -244.868 692.179 -329.332 658.985L-270.196 508.512C-193.694 538.578 -71.889 576.781 42.5803 593.593C99.9088 602.012 151.868 604.52 193.782 599.61C236.918 594.558 259.479 582.865 269.917 572.426C297.913 544.43 308.024 523.872 312.951 507.98C318.837 488.995 319.405 471.921 321.864 437.717C324.186 405.414 328.32 364.001 347.727 316.721C367.091 269.547 399.465 221.555 451.501 169.519C566.615 54.4066 703.489 34.1931 826.159 62.515C944.575 89.8552 1050.02 161.701 1121.15 232.838L1006.84 347.158ZM695.011 1683.33C661.817 1598.86 619.525 1464.82 600.444 1334.91C590.918 1270.04 586.633 1202.67 593.809 1141.41C600.841 1081.36 620.112 1016.9 667.25 969.759C711.222 925.787 753.896 900.333 798.145 886.615C839.301 873.857 879.281 872.705 904.69 870.879C932.002 868.916 952.772 866.198 975.884 856.711C999.103 847.18 1029.72 828.611 1070.16 788.176C1139.98 718.348 1151.72 641.163 1133.95 564.206C1115.2 482.995 1062.92 403.24 1006.84 347.161L1121.16 232.841C1192.3 303.979 1264.14 409.421 1291.48 527.837C1319.8 650.507 1299.59 787.381 1184.48 902.495C1132.44 954.53 1084.45 986.905 1037.28 1006.27C989.995 1025.68 948.583 1029.81 916.279 1032.13C882.075 1034.59 865.001 1035.16 846.016 1041.04C830.123 1045.97 809.566 1056.08 781.57 1084.08C771.131 1094.52 759.438 1117.08 754.385 1160.21C749.476 1202.13 751.983 1254.09 760.403 1311.42C777.215 1425.88 815.418 1547.69 845.484 1624.19L695.011 1683.33Z" fill="#0C1C20"/>
<path d="M343.08 104.64C340.68 104.64 338.6 104.2 336.84 103.32C335.107 102.44 333.76 101.187 332.8 99.56C331.84 97.9067 331.36 95.9733 331.36 93.76V75.56H337.44V93.76C337.44 95.6 337.92 97.0267 338.88 98.04C339.867 99.0267 341.267 99.52 343.08 99.52C344.893 99.52 346.28 99.0267 347.24 98.04C348.2 97.0267 348.68 95.6 348.68 93.76V75.56H354.76V93.76C354.76 95.9733 354.28 97.9067 353.32 99.56C352.387 101.187 351.04 102.44 349.28 103.32C347.52 104.2 345.453 104.64 343.08 104.64ZM375.147 104V80.72H366.667V75.6H389.787V80.72H381.267V104H375.147ZM399.329 104.48C397.142 104.48 395.235 104.027 393.609 103.12C391.982 102.187 390.715 100.88 389.809 99.2C388.902 97.52 388.449 95.5467 388.449 93.28C388.449 91.0133 388.902 89.0533 389.809 87.4C390.715 85.72 391.982 84.4133 393.609 83.48C395.235 82.5467 397.142 82.08 399.329 82.08C401.515 82.08 403.422 82.5467 405.049 83.48C406.675 84.4133 407.942 85.72 408.849 87.4C409.755 89.0533 410.209 91.0133 410.209 93.28C410.209 95.5467 409.755 97.52 408.849 99.2C407.942 100.88 406.675 102.187 405.049 103.12C403.422 104.027 401.515 104.48 399.329 104.48ZM399.329 99.88C400.822 99.88 401.982 99.3067 402.809 98.16C403.635 96.9867 404.049 95.36 404.049 93.28C404.049 91.2 403.635 89.5867 402.809 88.44C401.982 87.2667 400.822 86.68 399.329 86.68C397.835 86.68 396.675 87.2667 395.849 88.44C395.022 89.5867 394.609 91.2 394.609 93.28C394.609 95.36 395.022 96.9867 395.849 98.16C396.675 99.3067 397.835 99.88 399.329 99.88ZM413.945 104V75.6H419.945V91.36L427.905 82.56H435.105L426.785 91.4L435.345 104H428.785L422.905 94.8L419.945 97.96V104H413.945ZM446.632 104.48C444.445 104.48 442.538 104.027 440.912 103.12C439.312 102.187 438.058 100.88 437.152 99.2C436.272 97.52 435.832 95.5467 435.832 93.28C435.832 91.0133 436.272 89.0533 437.152 87.4C438.058 85.72 439.312 84.4133 440.912 83.48C442.512 82.5467 444.405 82.08 446.592 82.08C448.725 82.08 450.578 82.5467 452.152 83.48C453.725 84.4133 454.938 85.7467 455.792 87.48C456.672 89.2133 457.112 91.28 457.112 93.68V94.88H442.032C442.112 96.5867 442.565 97.8533 443.392 98.68C444.245 99.5067 445.365 99.92 446.752 99.92C447.765 99.92 448.605 99.7067 449.272 99.28C449.965 98.8533 450.458 98.2 450.752 97.32L456.792 97.68C456.232 99.8133 455.045 101.48 453.232 102.68C451.418 103.88 449.218 104.48 446.632 104.48ZM442.032 91.2H450.952C450.872 89.6267 450.432 88.4533 449.632 87.68C448.858 86.9067 447.845 86.52 446.592 86.52C445.338 86.52 444.298 86.9333 443.472 87.76C442.672 88.56 442.192 89.7067 442.032 91.2ZM460.82 104V82.56H466.22L466.46 88.84L465.7 88.64C465.913 87.04 466.34 85.76 466.98 84.8C467.646 83.84 468.473 83.1467 469.46 82.72C470.446 82.2933 471.526 82.08 472.7 82.08C474.246 82.08 475.553 82.4133 476.62 83.08C477.713 83.7467 478.54 84.6933 479.1 85.92C479.686 87.12 479.98 88.5467 479.98 90.2V104H473.98V92.2C473.98 91.0533 473.886 90.08 473.7 89.28C473.513 88.48 473.18 87.88 472.7 87.48C472.22 87.0533 471.553 86.84 470.7 86.84C469.446 86.84 468.486 87.3067 467.82 88.24C467.153 89.1467 466.82 90.4667 466.82 92.2V104H460.82ZM494.694 104V75.6H500.774V104H494.694ZM506.64 104V82.56H512.04L512.28 88.84L511.52 88.64C511.733 87.04 512.16 85.76 512.8 84.8C513.467 83.84 514.293 83.1467 515.28 82.72C516.267 82.2933 517.347 82.08 518.52 82.08C520.067 82.08 521.373 82.4133 522.44 83.08C523.533 83.7467 524.36 84.6933 524.92 85.92C525.507 87.12 525.8 88.5467 525.8 90.2V104H519.8V92.2C519.8 91.0533 519.707 90.08 519.52 89.28C519.333 88.48 519 87.88 518.52 87.48C518.04 87.0533 517.373 86.84 516.52 86.84C515.267 86.84 514.307 87.3067 513.64 88.24C512.973 89.1467 512.64 90.4667 512.64 92.2V104H506.64ZM532.437 104V82.28C532.437 80.1467 533.01 78.5067 534.157 77.36C535.303 76.1867 537.09 75.6 539.517 75.6H544.077V80.08H540.797C539.97 80.08 539.37 80.2933 538.997 80.72C538.623 81.12 538.437 81.7333 538.437 82.56V104H532.437ZM529.317 87.84V83.36H543.757V87.84H529.317ZM552.957 104C551.197 104 549.823 103.56 548.837 102.68C547.85 101.8 547.357 100.373 547.357 98.4V75.6H553.357V97.76C553.357 98.4 553.503 98.8533 553.797 99.12C554.09 99.3867 554.517 99.52 555.077 99.52H556.517V104H552.957ZM566.164 104.48C563.951 104.48 562.137 103.973 560.724 102.96C559.337 101.92 558.644 100.48 558.644 98.64C558.644 96.7467 559.231 95.2933 560.404 94.28C561.604 93.24 563.364 92.48 565.684 92L572.604 90.64C572.604 89.2533 572.284 88.2133 571.644 87.52C571.031 86.8 570.137 86.44 568.964 86.44C567.817 86.44 566.924 86.7067 566.284 87.24C565.644 87.7467 565.231 88.5067 565.044 89.52L559.004 89.24C559.404 86.8933 560.457 85.12 562.164 83.92C563.897 82.6933 566.164 82.08 568.964 82.08C572.164 82.08 574.564 82.84 576.164 84.36C577.791 85.88 578.604 88.1067 578.604 91.04V98.36C578.604 98.9733 578.697 99.3867 578.884 99.6C579.097 99.7867 579.404 99.88 579.804 99.88H580.404V104C580.217 104.053 579.911 104.107 579.484 104.16C579.084 104.213 578.684 104.24 578.284 104.24C577.431 104.24 576.631 104.093 575.884 103.8C575.164 103.507 574.577 103.013 574.124 102.32C573.671 101.6 573.444 100.587 573.444 99.28L573.964 99.68C573.697 100.64 573.217 101.48 572.524 102.2C571.857 102.92 570.977 103.48 569.884 103.88C568.817 104.28 567.577 104.48 566.164 104.48ZM567.604 100.36C568.591 100.36 569.457 100.173 570.204 99.8C570.951 99.4 571.537 98.8267 571.964 98.08C572.391 97.3333 572.604 96.4533 572.604 95.44V94.4L567.724 95.44C566.764 95.6267 566.031 95.9467 565.524 96.4C565.044 96.8267 564.804 97.3867 564.804 98.08C564.804 98.8 565.044 99.36 565.524 99.76C566.004 100.16 566.697 100.36 567.604 100.36ZM591.262 104C589.049 104 587.422 103.493 586.382 102.48C585.342 101.44 584.822 99.8 584.822 97.56V77.52H590.822V96.84C590.822 97.88 591.036 98.5867 591.462 98.96C591.916 99.3333 592.582 99.52 593.462 99.52H596.462V104H591.262ZM581.382 87.04V82.56H596.462V87.04H581.382ZM599.999 104V82.56H605.999V104H599.999ZM599.879 79.92V75.12H606.079V79.92H599.879ZM620.579 104.48C618.392 104.48 616.485 104.027 614.859 103.12C613.232 102.187 611.965 100.88 611.059 99.2C610.152 97.52 609.699 95.5467 609.699 93.28C609.699 91.0133 610.152 89.0533 611.059 87.4C611.965 85.72 613.232 84.4133 614.859 83.48C616.485 82.5467 618.392 82.08 620.579 82.08C622.765 82.08 624.672 82.5467 626.299 83.48C627.925 84.4133 629.192 85.72 630.099 87.4C631.005 89.0533 631.459 91.0133 631.459 93.28C631.459 95.5467 631.005 97.52 630.099 99.2C629.192 100.88 627.925 102.187 626.299 103.12C624.672 104.027 622.765 104.48 620.579 104.48ZM620.579 99.88C622.072 99.88 623.232 99.3067 624.059 98.16C624.885 96.9867 625.299 95.36 625.299 93.28C625.299 91.2 624.885 89.5867 624.059 88.44C623.232 87.2667 622.072 86.68 620.579 86.68C619.085 86.68 617.925 87.2667 617.099 88.44C616.272 89.5867 615.859 91.2 615.859 93.28C615.859 95.36 616.272 96.9867 617.099 98.16C617.925 99.3067 619.085 99.88 620.579 99.88ZM635.195 104V82.56H640.595L640.835 88.84L640.075 88.64C640.288 87.04 640.715 85.76 641.355 84.8C642.021 83.84 642.848 83.1467 643.835 82.72C644.821 82.2933 645.901 82.08 647.075 82.08C648.621 82.08 649.928 82.4133 650.995 83.08C652.088 83.7467 652.915 84.6933 653.475 85.92C654.061 87.12 654.355 88.5467 654.355 90.2V104H648.355V92.2C648.355 91.0533 648.261 90.08 648.075 89.28C647.888 88.48 647.555 87.88 647.075 87.48C646.595 87.0533 645.928 86.84 645.075 86.84C643.821 86.84 642.861 87.3067 642.195 88.24C641.528 89.1467 641.195 90.4667 641.195 92.2V104H635.195ZM681.069 104.48C679.576 104.48 678.269 104.16 677.149 103.52C676.056 102.88 675.203 101.987 674.589 100.84L674.469 104H668.749V75.6H674.749V85.6C675.309 84.6133 676.136 83.7867 677.229 83.12C678.323 82.4267 679.603 82.08 681.069 82.08C682.883 82.08 684.456 82.5467 685.789 83.48C687.123 84.3867 688.149 85.68 688.869 87.36C689.616 89.04 689.989 91.0133 689.989 93.28C689.989 95.5467 689.616 97.52 688.869 99.2C688.149 100.88 687.123 102.187 685.789 103.12C684.456 104.027 682.883 104.48 681.069 104.48ZM679.389 99.88C680.723 99.88 681.789 99.3067 682.589 98.16C683.416 96.9867 683.829 95.36 683.829 93.28C683.829 91.2 683.429 89.5867 682.629 88.44C681.829 87.2667 680.763 86.68 679.429 86.68C678.443 86.68 677.589 86.9467 676.869 87.48C676.176 87.9867 675.643 88.7333 675.269 89.72C674.923 90.7067 674.749 91.8933 674.749 93.28C674.749 94.64 674.923 95.8133 675.269 96.8C675.643 97.7867 676.176 98.5467 676.869 99.08C677.589 99.6133 678.429 99.88 679.389 99.88ZM694.689 110V105.52H697.529C698.222 105.52 698.729 105.413 699.049 105.2C699.396 105.013 699.662 104.667 699.849 104.16L700.289 102.92H698.649L691.129 82.56H697.249L702.169 97.32L706.769 82.56H712.889L704.649 106.04C704.169 107.453 703.476 108.467 702.569 109.08C701.662 109.693 700.396 110 698.769 110H694.689ZM732.428 104V92.96L722.548 75.6H729.268L735.468 87.04L741.628 75.6H748.348L738.508 92.96V104H732.428ZM757.53 104.48C755.343 104.48 753.437 104.027 751.81 103.12C750.21 102.187 748.957 100.88 748.05 99.2C747.17 97.52 746.73 95.5467 746.73 93.28C746.73 91.0133 747.17 89.0533 748.05 87.4C748.957 85.72 750.21 84.4133 751.81 83.48C753.41 82.5467 755.303 82.08 757.49 82.08C759.623 82.08 761.477 82.5467 763.05 83.48C764.623 84.4133 765.837 85.7467 766.69 87.48C767.57 89.2133 768.01 91.28 768.01 93.68V94.88H752.93C753.01 96.5867 753.463 97.8533 754.29 98.68C755.143 99.5067 756.263 99.92 757.65 99.92C758.663 99.92 759.503 99.7067 760.17 99.28C760.863 98.8533 761.357 98.2 761.65 97.32L767.69 97.68C767.13 99.8133 765.943 101.48 764.13 102.68C762.317 103.88 760.117 104.48 757.53 104.48ZM752.93 91.2H761.85C761.77 89.6267 761.33 88.4533 760.53 87.68C759.757 86.9067 758.743 86.52 757.49 86.52C756.237 86.52 755.197 86.9333 754.37 87.76C753.57 88.56 753.09 89.7067 752.93 91.2ZM778.273 104.48C776.06 104.48 774.247 103.973 772.833 102.96C771.447 101.92 770.753 100.48 770.753 98.64C770.753 96.7467 771.34 95.2933 772.513 94.28C773.713 93.24 775.473 92.48 777.793 92L784.713 90.64C784.713 89.2533 784.393 88.2133 783.753 87.52C783.14 86.8 782.247 86.44 781.073 86.44C779.927 86.44 779.033 86.7067 778.393 87.24C777.753 87.7467 777.34 88.5067 777.153 89.52L771.113 89.24C771.513 86.8933 772.567 85.12 774.273 83.92C776.007 82.6933 778.273 82.08 781.073 82.08C784.273 82.08 786.673 82.84 788.273 84.36C789.9 85.88 790.713 88.1067 790.713 91.04V98.36C790.713 98.9733 790.807 99.3867 790.993 99.6C791.207 99.7867 791.513 99.88 791.913 99.88H792.513V104C792.327 104.053 792.02 104.107 791.593 104.16C791.193 104.213 790.793 104.24 790.393 104.24C789.54 104.24 788.74 104.093 787.993 103.8C787.273 103.507 786.687 103.013 786.233 102.32C785.78 101.6 785.553 100.587 785.553 99.28L786.073 99.68C785.807 100.64 785.327 101.48 784.633 102.2C783.967 102.92 783.087 103.48 781.993 103.88C780.927 104.28 779.687 104.48 778.273 104.48ZM779.713 100.36C780.7 100.36 781.567 100.173 782.313 99.8C783.06 99.4 783.647 98.8267 784.073 98.08C784.5 97.3333 784.713 96.4533 784.713 95.44V94.4L779.833 95.44C778.873 95.6267 778.14 95.9467 777.633 96.4C777.153 96.8267 776.913 97.3867 776.913 98.08C776.913 98.8 777.153 99.36 777.633 99.76C778.113 100.16 778.807 100.36 779.713 100.36ZM795.663 104V82.56H801.343L801.543 88.8L801.103 88.68C801.45 86.52 802.063 84.96 802.943 84C803.823 83.04 805.037 82.56 806.583 82.56H808.543V87.52H806.583C805.463 87.52 804.543 87.6667 803.823 87.96C803.103 88.2533 802.557 88.72 802.183 89.36C801.837 90 801.663 90.8667 801.663 91.96V104H795.663ZM816.416 89.48L813.296 87.68L815.576 84.2L811.496 84.28V80.28L815.576 80.32L813.296 76.84L816.416 75.08L818.456 78.68L820.536 75.08L823.656 76.84L821.336 80.32L825.416 80.28V84.28L821.336 84.2L823.656 87.68L820.536 89.48L818.456 85.84L816.416 89.48Z" fill="white"/>
<path d="M311 60.5V119.5" stroke="white" stroke-width="5"/>
<path d="M234.711 107.016C232.338 107.016 230.411 106.57 228.923 105.298C227.472 103.995 226.856 102.223 226.856 100.145V80.3894C226.856 78.2803 227.472 76.5076 228.923 75.2359C230.411 73.9642 232.338 73.5181 234.711 73.5181H247.525C249.933 73.5181 251.861 73.9642 253.313 75.2359C254.764 76.5076 255.379 78.2803 255.379 80.3894V100.145C255.379 102.223 254.764 103.995 253.313 105.298C251.861 106.57 249.933 107.016 247.525 107.016H234.711ZM244.632 100.574C245.482 100.574 246.238 100.548 246.699 100.145C247.194 99.7414 247.525 99.1712 247.525 98.4268V82.1073C247.525 81.3629 247.194 80.7927 246.699 80.3894C246.238 79.9862 245.482 79.96 244.632 79.96H237.604C236.719 79.96 235.998 79.9862 235.537 80.3894C235.077 80.7927 234.711 81.3629 234.711 82.1073V98.4268C234.711 99.1712 235.077 99.7414 235.537 100.145C235.998 100.548 236.719 100.574 237.604 100.574H244.632Z" fill="white"/>
<path d="M219.56 106.684H211.6V73.8496H219.56V106.684Z" fill="white"/>
<path d="M183.635 106.684H175.781V73.8496H184.048L196.449 93.9152V88.1068V73.8496H204.304V106.684H196.036L183.635 86.6186L183.635 92.4271V106.684Z" fill="white"/>
<path d="M270.53 106.684H262.676V73.8496H270.944L283.345 93.9152V88.1068V73.8496H291.199V106.684H282.931L270.53 86.6186L270.53 92.4271V106.684Z" fill="white"/>
<path d="M148.169 107.016C145.794 107.016 143.855 106.57 142.365 105.293C140.911 103.985 140.292 102.211 140.292 100.124V73.8496H148.169V98.4013C148.169 99.1487 148.538 99.7194 148.999 100.124C149.46 100.529 150.185 100.555 151.072 100.555H157.705C158.591 100.555 159.317 100.529 159.778 100.124C160.239 99.7194 160.607 99.1487 160.607 98.4013V73.8496H168.484V100.124C168.484 102.211 167.865 103.985 166.411 105.293C164.957 106.57 163.018 107.016 160.607 107.016H148.169Z" fill="white"/>
<path fill-rule="evenodd" clip-rule="evenodd" d="M115.336 100.383C115.336 111.373 106.427 120.283 95.4364 120.283C84.4461 120.283 75.5366 111.373 75.5366 100.383H85.2834C85.2834 105.878 89.9412 110.333 95.4364 110.333C100.932 110.333 105.589 105.878 105.589 100.383H115.336Z" fill="white"/>
<path d="M120.556 95.1631H130.343V85.3763H120.556V95.1631Z" fill="white"/>
<path d="M115.336 85.3765H105.549V95.1632H115.336V85.3765Z" fill="white"/>
<path d="M90.5431 95.1631H100.33V85.3763H90.5431V95.1631Z" fill="white"/>
<path d="M85.3234 85.3765H75.5366V95.1632H85.3234V85.3765Z" fill="white"/>
<path fill-rule="evenodd" clip-rule="evenodd" d="M90.543 80.4828C90.543 69.4924 99.4525 60.583 110.443 60.583C121.433 60.583 130.343 69.4924 130.343 80.4828H120.596C120.596 74.9876 115.938 70.5329 110.443 70.5329C104.948 70.5329 100.29 74.9876 100.29 80.4828H90.543Z" fill="white"/>
<path d="M324 681H1601" stroke="#16363C" stroke-width="2" stroke-linecap="round"/>
<path d="M324 428H1601" stroke="#16363C" stroke-width="2" stroke-linecap="round"/>
<path d="M246.281 689C246.281 687.842 246.454 686.808 246.801 685.896C247.149 684.985 247.742 684.138 248.581 683.357C249.42 682.576 250.578 681.794 252.054 681.013C252.763 680.651 253.327 680.318 253.747 680.014C254.181 679.696 254.492 679.371 254.68 679.038C254.868 678.705 254.962 678.3 254.962 677.822C254.962 677.33 254.854 676.911 254.637 676.563C254.434 676.202 254.13 675.92 253.725 675.717C253.32 675.5 252.806 675.391 252.184 675.391C251.2 675.391 250.419 675.659 249.84 676.194C249.276 676.715 248.921 677.468 248.777 678.452L246.346 678.3C246.519 676.752 247.105 675.522 248.104 674.61C249.117 673.698 250.477 673.243 252.184 673.243C253.284 673.243 254.217 673.438 254.984 673.829C255.765 674.205 256.359 674.733 256.764 675.413C257.183 676.093 257.393 676.882 257.393 677.779C257.393 678.56 257.263 679.233 257.003 679.797C256.742 680.362 256.308 680.89 255.7 681.382C255.093 681.859 254.268 682.373 253.226 682.923C251.895 683.632 250.889 684.334 250.209 685.028C249.529 685.708 249.167 686.316 249.124 686.851H257.393V689H246.281ZM259.583 689V686.265H262.383V689H259.583ZM270.182 689.347C268.909 689.347 267.802 689.022 266.862 688.371C265.921 687.719 265.198 686.793 264.691 685.592C264.185 684.391 263.931 682.966 263.931 681.317C263.931 679.667 264.185 678.242 264.691 677.041C265.212 675.825 265.935 674.892 266.862 674.241C267.802 673.575 268.909 673.243 270.182 673.243C271.47 673.243 272.577 673.575 273.503 674.241C274.444 674.892 275.167 675.818 275.674 677.019C276.194 678.22 276.455 679.653 276.455 681.317C276.455 682.966 276.202 684.391 275.695 685.592C275.189 686.793 274.465 687.719 273.525 688.371C272.584 689.022 271.47 689.347 270.182 689.347ZM270.182 687.199C271.412 687.199 272.36 686.692 273.026 685.679C273.691 684.666 274.024 683.212 274.024 681.317C274.024 680.043 273.872 678.965 273.568 678.083C273.279 677.2 272.845 676.534 272.266 676.086C271.702 675.623 271.007 675.391 270.182 675.391C269.372 675.391 268.677 675.623 268.099 676.086C267.534 676.534 267.1 677.2 266.796 678.083C266.507 678.965 266.362 680.043 266.362 681.317C266.362 683.212 266.695 684.666 267.361 685.679C268.026 686.692 268.967 687.199 270.182 687.199ZM284.828 689.347C283.555 689.347 282.448 689.022 281.508 688.371C280.567 687.719 279.844 686.793 279.337 685.592C278.831 684.391 278.578 682.966 278.578 681.317C278.578 679.667 278.831 678.242 279.337 677.041C279.858 675.825 280.582 674.892 281.508 674.241C282.448 673.575 283.555 673.243 284.828 673.243C286.116 673.243 287.223 673.575 288.149 674.241C289.09 674.892 289.813 675.818 290.32 677.019C290.841 678.22 291.101 679.653 291.101 681.317C291.101 682.966 290.848 684.391 290.341 685.592C289.835 686.793 289.111 687.719 288.171 688.371C287.23 689.022 286.116 689.347 284.828 689.347ZM284.828 687.199C286.058 687.199 287.006 686.692 287.672 685.679C288.337 684.666 288.67 683.212 288.67 681.317C288.67 680.043 288.518 678.965 288.214 678.083C287.925 677.2 287.491 676.534 286.912 676.086C286.348 675.623 285.653 675.391 284.828 675.391C284.018 675.391 283.324 675.623 282.745 676.086C282.181 676.534 281.746 677.2 281.443 678.083C281.153 678.965 281.009 680.043 281.009 681.317C281.009 683.212 281.341 684.666 282.007 685.679C282.673 686.692 283.613 687.199 284.828 687.199ZM296.501 681.056C295.503 681.056 294.678 680.731 294.027 680.08C293.39 679.428 293.072 678.481 293.072 677.236C293.072 675.977 293.39 675.03 294.027 674.393C294.678 673.742 295.503 673.416 296.501 673.416C297.5 673.416 298.317 673.742 298.954 674.393C299.59 675.03 299.909 675.977 299.909 677.236C299.909 678.481 299.59 679.428 298.954 680.08C298.317 680.731 297.5 681.056 296.501 681.056ZM296.501 679.602C297.051 679.602 297.463 679.399 297.738 678.994C298.013 678.589 298.151 678.003 298.151 677.236C298.151 676.469 298.013 675.883 297.738 675.478C297.463 675.073 297.051 674.87 296.501 674.87C295.966 674.87 295.553 675.073 295.264 675.478C294.989 675.883 294.852 676.469 294.852 677.236C294.852 678.003 294.989 678.589 295.264 678.994C295.553 679.399 295.966 679.602 296.501 679.602ZM305.4 689.174C304.416 689.174 303.599 688.848 302.947 688.197C302.296 687.546 301.971 686.598 301.971 685.354C301.971 684.095 302.296 683.147 302.947 682.51C303.599 681.859 304.416 681.534 305.4 681.534C306.413 681.534 307.238 681.859 307.874 682.51C308.511 683.147 308.829 684.095 308.829 685.354C308.829 686.598 308.511 687.546 307.874 688.197C307.238 688.848 306.413 689.174 305.4 689.174ZM305.4 687.719C305.95 687.719 306.362 687.517 306.637 687.112C306.912 686.707 307.05 686.121 307.05 685.354C307.05 684.587 306.912 684.001 306.637 683.596C306.362 683.19 305.95 682.988 305.4 682.988C304.865 682.988 304.452 683.19 304.163 683.596C303.888 684.001 303.75 684.587 303.75 685.354C303.75 686.121 303.888 686.707 304.163 687.112C304.452 687.517 304.865 687.719 305.4 687.719ZM294.787 689L305.291 673.59H307.115L296.61 689H294.787Z" fill="white"/>
<path d="M251.314 934.347C250.041 934.347 248.934 934.022 247.994 933.371C247.053 932.719 246.33 931.793 245.823 930.592C245.317 929.391 245.064 927.966 245.064 926.317C245.064 924.667 245.317 923.242 245.823 922.041C246.344 920.825 247.068 919.892 247.994 919.241C248.934 918.575 250.041 918.243 251.314 918.243C252.602 918.243 253.709 918.575 254.635 919.241C255.576 919.892 256.299 920.818 256.806 922.019C257.326 923.22 257.587 924.653 257.587 926.317C257.587 927.966 257.334 929.391 256.827 930.592C256.321 931.793 255.597 932.719 254.657 933.371C253.716 934.022 252.602 934.347 251.314 934.347ZM251.314 932.199C252.544 932.199 253.492 931.692 254.158 930.679C254.823 929.666 255.156 928.212 255.156 926.317C255.156 925.043 255.004 923.965 254.7 923.083C254.411 922.2 253.977 921.534 253.398 921.086C252.834 920.623 252.139 920.391 251.314 920.391C250.504 920.391 249.81 920.623 249.231 921.086C248.666 921.534 248.232 922.2 247.928 923.083C247.639 923.965 247.494 925.043 247.494 926.317C247.494 928.212 247.827 929.666 248.493 930.679C249.158 931.692 250.099 932.199 251.314 932.199ZM259.134 934V931.265H261.934V934H259.134ZM269.733 934.347C268.46 934.347 267.353 934.022 266.413 933.371C265.472 932.719 264.749 931.793 264.242 930.592C263.736 929.391 263.483 927.966 263.483 926.317C263.483 924.667 263.736 923.242 264.242 922.041C264.763 920.825 265.487 919.892 266.413 919.241C267.353 918.575 268.46 918.243 269.733 918.243C271.021 918.243 272.128 918.575 273.054 919.241C273.995 919.892 274.718 920.818 275.225 922.019C275.745 923.22 276.006 924.653 276.006 926.317C276.006 927.966 275.753 929.391 275.246 930.592C274.74 931.793 274.016 932.719 273.076 933.371C272.135 934.022 271.021 934.347 269.733 934.347ZM269.733 932.199C270.963 932.199 271.911 931.692 272.577 930.679C273.242 929.666 273.575 928.212 273.575 926.317C273.575 925.043 273.423 923.965 273.119 923.083C272.83 922.2 272.396 921.534 271.817 921.086C271.253 920.623 270.558 920.391 269.733 920.391C268.923 920.391 268.229 920.623 267.65 921.086C267.085 921.534 266.651 922.2 266.348 923.083C266.058 923.965 265.913 925.043 265.913 926.317C265.913 928.212 266.246 929.666 266.912 930.679C267.577 931.692 268.518 932.199 269.733 932.199ZM284.38 934.347C283.106 934.347 281.999 934.022 281.059 933.371C280.118 932.719 279.395 931.793 278.888 930.592C278.382 929.391 278.129 927.966 278.129 926.317C278.129 924.667 278.382 923.242 278.888 922.041C279.409 920.825 280.133 919.892 281.059 919.241C281.999 918.575 283.106 918.243 284.38 918.243C285.667 918.243 286.774 918.575 287.7 919.241C288.641 919.892 289.364 920.818 289.871 922.019C290.392 923.22 290.652 924.653 290.652 926.317C290.652 927.966 290.399 929.391 289.892 930.592C289.386 931.793 288.663 932.719 287.722 933.371C286.782 934.022 285.667 934.347 284.38 934.347ZM284.38 932.199C285.609 932.199 286.557 931.692 287.223 930.679C287.888 929.666 288.221 928.212 288.221 926.317C288.221 925.043 288.069 923.965 287.765 923.083C287.476 922.2 287.042 921.534 286.463 921.086C285.899 920.623 285.204 920.391 284.38 920.391C283.569 920.391 282.875 920.623 282.296 921.086C281.732 921.534 281.298 922.2 280.994 923.083C280.704 923.965 280.56 925.043 280.56 926.317C280.56 928.212 280.892 929.666 281.558 930.679C282.224 931.692 283.164 932.199 284.38 932.199ZM296.052 926.056C295.054 926.056 294.229 925.731 293.578 925.08C292.941 924.428 292.623 923.481 292.623 922.236C292.623 920.977 292.941 920.03 293.578 919.393C294.229 918.742 295.054 918.416 296.052 918.416C297.051 918.416 297.868 918.742 298.505 919.393C299.142 920.03 299.46 920.977 299.46 922.236C299.46 923.481 299.142 924.428 298.505 925.08C297.868 925.731 297.051 926.056 296.052 926.056ZM296.052 924.602C296.602 924.602 297.015 924.399 297.289 923.994C297.564 923.589 297.702 923.003 297.702 922.236C297.702 921.469 297.564 920.883 297.289 920.478C297.015 920.073 296.602 919.87 296.052 919.87C295.517 919.87 295.105 920.073 294.815 920.478C294.54 920.883 294.403 921.469 294.403 922.236C294.403 923.003 294.54 923.589 294.815 923.994C295.105 924.399 295.517 924.602 296.052 924.602ZM304.951 934.174C303.967 934.174 303.15 933.848 302.498 933.197C301.847 932.546 301.522 931.598 301.522 930.354C301.522 929.095 301.847 928.147 302.498 927.51C303.15 926.859 303.967 926.534 304.951 926.534C305.964 926.534 306.789 926.859 307.425 927.51C308.062 928.147 308.38 929.095 308.38 930.354C308.38 931.598 308.062 932.546 307.425 933.197C306.789 933.848 305.964 934.174 304.951 934.174ZM304.951 932.719C305.501 932.719 305.913 932.517 306.188 932.112C306.463 931.707 306.601 931.121 306.601 930.354C306.601 929.587 306.463 929.001 306.188 928.596C305.913 928.19 305.501 927.988 304.951 927.988C304.416 927.988 304.003 928.19 303.714 928.596C303.439 929.001 303.302 929.587 303.302 930.354C303.302 931.121 303.439 931.707 303.714 932.112C304.003 932.517 304.416 932.719 304.951 932.719ZM294.338 934L304.843 918.59H306.666L296.161 934H294.338Z" fill="white"/>
<path d="M257.378 436V432.788H249.608V430.791L257.096 420.59H259.722V430.661H261.61V432.788H259.722V436H257.378ZM252.277 430.661H257.378V423.846L252.277 430.661ZM263.562 436V433.265H266.361V436H263.562ZM274.161 436.347C272.888 436.347 271.781 436.022 270.84 435.371C269.9 434.719 269.176 433.793 268.67 432.592C268.163 431.391 267.91 429.966 267.91 428.317C267.91 426.667 268.163 425.242 268.67 424.041C269.191 422.825 269.914 421.892 270.84 421.241C271.781 420.575 272.888 420.243 274.161 420.243C275.449 420.243 276.556 420.575 277.482 421.241C278.422 421.892 279.146 422.818 279.652 424.019C280.173 425.22 280.434 426.653 280.434 428.317C280.434 429.966 280.18 431.391 279.674 432.592C279.168 433.793 278.444 434.719 277.504 435.371C276.563 436.022 275.449 436.347 274.161 436.347ZM274.161 434.199C275.391 434.199 276.339 433.692 277.004 432.679C277.67 431.666 278.003 430.212 278.003 428.317C278.003 427.043 277.851 425.965 277.547 425.083C277.258 424.2 276.824 423.534 276.245 423.086C275.68 422.623 274.986 422.391 274.161 422.391C273.351 422.391 272.656 422.623 272.077 423.086C271.513 423.534 271.079 424.2 270.775 425.083C270.486 425.965 270.341 427.043 270.341 428.317C270.341 430.212 270.674 431.666 271.34 432.679C272.005 433.692 272.946 434.199 274.161 434.199ZM288.807 436.347C287.534 436.347 286.427 436.022 285.487 435.371C284.546 434.719 283.823 433.793 283.316 432.592C282.81 431.391 282.556 429.966 282.556 428.317C282.556 426.667 282.81 425.242 283.316 424.041C283.837 422.825 284.56 421.892 285.487 421.241C286.427 420.575 287.534 420.243 288.807 420.243C290.095 420.243 291.202 420.575 292.128 421.241C293.069 421.892 293.792 422.818 294.299 424.019C294.819 425.22 295.08 426.653 295.08 428.317C295.08 429.966 294.827 431.391 294.32 432.592C293.814 433.793 293.09 434.719 292.15 435.371C291.209 436.022 290.095 436.347 288.807 436.347ZM288.807 434.199C290.037 434.199 290.985 433.692 291.651 432.679C292.316 431.666 292.649 430.212 292.649 428.317C292.649 427.043 292.497 425.965 292.193 425.083C291.904 424.2 291.47 423.534 290.891 423.086C290.327 422.623 289.632 422.391 288.807 422.391C287.997 422.391 287.302 422.623 286.724 423.086C286.159 423.534 285.725 424.2 285.421 425.083C285.132 425.965 284.987 427.043 284.987 428.317C284.987 430.212 285.32 431.666 285.986 432.679C286.651 433.692 287.592 434.199 288.807 434.199ZM300.48 428.056C299.482 428.056 298.657 427.731 298.006 427.08C297.369 426.428 297.051 425.481 297.051 424.236C297.051 422.977 297.369 422.03 298.006 421.393C298.657 420.742 299.482 420.416 300.48 420.416C301.478 420.416 302.296 420.742 302.933 421.393C303.569 422.03 303.888 422.977 303.888 424.236C303.888 425.481 303.569 426.428 302.933 427.08C302.296 427.731 301.478 428.056 300.48 428.056ZM300.48 426.602C301.03 426.602 301.442 426.399 301.717 425.994C301.992 425.589 302.13 425.003 302.13 424.236C302.13 423.469 301.992 422.883 301.717 422.478C301.442 422.073 301.03 421.87 300.48 421.87C299.945 421.87 299.532 422.073 299.243 422.478C298.968 422.883 298.83 423.469 298.83 424.236C298.83 425.003 298.968 425.589 299.243 425.994C299.532 426.399 299.945 426.602 300.48 426.602ZM309.379 436.174C308.395 436.174 307.577 435.848 306.926 435.197C306.275 434.546 305.949 433.598 305.949 432.354C305.949 431.095 306.275 430.147 306.926 429.51C307.577 428.859 308.395 428.534 309.379 428.534C310.392 428.534 311.216 428.859 311.853 429.51C312.49 430.147 312.808 431.095 312.808 432.354C312.808 433.598 312.49 434.546 311.853 435.197C311.216 435.848 310.392 436.174 309.379 436.174ZM309.379 434.719C309.929 434.719 310.341 434.517 310.616 434.112C310.891 433.707 311.028 433.121 311.028 432.354C311.028 431.587 310.891 431.001 310.616 430.596C310.341 430.19 309.929 429.988 309.379 429.988C308.843 429.988 308.431 430.19 308.142 430.596C307.867 431.001 307.729 431.587 307.729 432.354C307.729 433.121 307.867 433.707 308.142 434.112C308.431 434.517 308.843 434.719 309.379 434.719ZM298.765 436L309.27 420.59H311.093L300.589 436H298.765Z" fill="white"/>
<path d="M255.924 182.347C254.708 182.347 253.681 182.08 252.842 181.544C252.002 180.994 251.366 180.206 250.932 179.178C250.498 178.137 250.281 176.878 250.281 175.402C250.281 174.114 250.389 172.92 250.606 171.821C250.838 170.707 251.199 169.737 251.691 168.912C252.183 168.073 252.82 167.422 253.601 166.959C254.397 166.481 255.359 166.243 256.488 166.243C257.906 166.243 259.013 166.59 259.809 167.284C260.605 167.965 261.154 168.876 261.458 170.019L259.136 170.215C258.962 169.65 258.673 169.202 258.268 168.869C257.877 168.536 257.284 168.37 256.488 168.37C255.301 168.37 254.368 168.876 253.688 169.889C253.008 170.902 252.646 172.45 252.603 174.534L252.191 174.447C252.35 173.955 252.617 173.506 252.994 173.101C253.37 172.682 253.84 172.349 254.404 172.103C254.983 171.842 255.642 171.712 256.379 171.712C257.407 171.712 258.304 171.929 259.071 172.363C259.852 172.783 260.453 173.383 260.872 174.165C261.306 174.946 261.523 175.858 261.523 176.899C261.523 178.028 261.285 179.005 260.807 179.83C260.33 180.64 259.671 181.262 258.832 181.696C257.993 182.13 257.023 182.347 255.924 182.347ZM255.945 180.264C256.886 180.264 257.646 179.967 258.224 179.374C258.818 178.766 259.114 177.941 259.114 176.899C259.114 176.248 258.984 175.684 258.724 175.207C258.478 174.715 258.123 174.338 257.66 174.078C257.211 173.817 256.691 173.687 256.097 173.687C255.446 173.687 254.867 173.817 254.361 174.078C253.855 174.338 253.457 174.715 253.167 175.207C252.878 175.684 252.733 176.248 252.733 176.899C252.733 177.551 252.863 178.129 253.124 178.636C253.384 179.142 253.753 179.54 254.231 179.83C254.723 180.119 255.294 180.264 255.945 180.264ZM263.71 182V179.265H266.51V182H263.71ZM274.309 182.347C273.036 182.347 271.929 182.022 270.989 181.371C270.048 180.719 269.325 179.793 268.818 178.592C268.312 177.391 268.059 175.966 268.059 174.317C268.059 172.667 268.312 171.242 268.818 170.041C269.339 168.825 270.063 167.892 270.989 167.241C271.929 166.575 273.036 166.243 274.309 166.243C275.597 166.243 276.704 166.575 277.63 167.241C278.571 167.892 279.294 168.818 279.801 170.019C280.322 171.22 280.582 172.653 280.582 174.317C280.582 175.966 280.329 177.391 279.822 178.592C279.316 179.793 278.592 180.719 277.652 181.371C276.711 182.022 275.597 182.347 274.309 182.347ZM274.309 180.199C275.539 180.199 276.487 179.692 277.153 178.679C277.818 177.666 278.151 176.212 278.151 174.317C278.151 173.043 277.999 171.965 277.695 171.083C277.406 170.2 276.972 169.534 276.393 169.086C275.829 168.623 275.134 168.391 274.309 168.391C273.499 168.391 272.805 168.623 272.226 169.086C271.662 169.534 271.227 170.2 270.924 171.083C270.634 171.965 270.49 173.043 270.49 174.317C270.49 176.212 270.822 177.666 271.488 178.679C272.154 179.692 273.094 180.199 274.309 180.199ZM288.956 182.347C287.682 182.347 286.575 182.022 285.635 181.371C284.694 180.719 283.971 179.793 283.464 178.592C282.958 177.391 282.705 175.966 282.705 174.317C282.705 172.667 282.958 171.242 283.464 170.041C283.985 168.825 284.709 167.892 285.635 167.241C286.575 166.575 287.682 166.243 288.956 166.243C290.243 166.243 291.35 166.575 292.276 167.241C293.217 167.892 293.94 168.818 294.447 170.019C294.968 171.22 295.228 172.653 295.228 174.317C295.228 175.966 294.975 177.391 294.469 178.592C293.962 179.793 293.239 180.719 292.298 181.371C291.358 182.022 290.243 182.347 288.956 182.347ZM288.956 180.199C290.186 180.199 291.133 179.692 291.799 178.679C292.465 177.666 292.797 176.212 292.797 174.317C292.797 173.043 292.645 171.965 292.342 171.083C292.052 170.2 291.618 169.534 291.039 169.086C290.475 168.623 289.78 168.391 288.956 168.391C288.145 168.391 287.451 168.623 286.872 169.086C286.308 169.534 285.874 170.2 285.57 171.083C285.28 171.965 285.136 173.043 285.136 174.317C285.136 176.212 285.469 177.666 286.134 178.679C286.8 179.692 287.74 180.199 288.956 180.199ZM300.628 174.056C299.63 174.056 298.805 173.731 298.154 173.08C297.517 172.428 297.199 171.481 297.199 170.236C297.199 168.977 297.517 168.03 298.154 167.393C298.805 166.742 299.63 166.416 300.628 166.416C301.627 166.416 302.444 166.742 303.081 167.393C303.718 168.03 304.036 168.977 304.036 170.236C304.036 171.481 303.718 172.428 303.081 173.08C302.444 173.731 301.627 174.056 300.628 174.056ZM300.628 172.602C301.178 172.602 301.591 172.399 301.866 171.994C302.14 171.589 302.278 171.003 302.278 170.236C302.278 169.469 302.14 168.883 301.866 168.478C301.591 168.073 301.178 167.87 300.628 167.87C300.093 167.87 299.681 168.073 299.391 168.478C299.116 168.883 298.979 169.469 298.979 170.236C298.979 171.003 299.116 171.589 299.391 171.994C299.681 172.399 300.093 172.602 300.628 172.602ZM309.527 182.174C308.543 182.174 307.726 181.848 307.075 181.197C306.423 180.546 306.098 179.598 306.098 178.354C306.098 177.095 306.423 176.147 307.075 175.51C307.726 174.859 308.543 174.534 309.527 174.534C310.54 174.534 311.365 174.859 312.001 175.51C312.638 176.147 312.956 177.095 312.956 178.354C312.956 179.598 312.638 180.546 312.001 181.197C311.365 181.848 310.54 182.174 309.527 182.174ZM309.527 180.719C310.077 180.719 310.489 180.517 310.764 180.112C311.039 179.707 311.177 179.121 311.177 178.354C311.177 177.587 311.039 177.001 310.764 176.596C310.489 176.19 310.077 175.988 309.527 175.988C308.992 175.988 308.579 176.19 308.29 176.596C308.015 177.001 307.878 177.587 307.878 178.354C307.878 179.121 308.015 179.707 308.29 180.112C308.579 180.517 308.992 180.719 309.527 180.719ZM298.914 182L309.419 166.59H311.242L300.737 182H298.914Z" fill="white"/>
<path d="M324 174H1601" stroke="#16363C" stroke-width="2" stroke-linecap="round"/>
<path d="M393.314 964.347C392.041 964.347 390.934 964.022 389.994 963.371C389.053 962.719 388.33 961.793 387.823 960.592C387.317 959.391 387.064 957.966 387.064 956.317C387.064 954.667 387.317 953.242 387.823 952.041C388.344 950.825 389.068 949.892 389.994 949.241C390.934 948.575 392.041 948.243 393.314 948.243C394.602 948.243 395.709 948.575 396.635 949.241C397.576 949.892 398.299 950.818 398.806 952.019C399.326 953.22 399.587 954.653 399.587 956.317C399.587 957.966 399.334 959.391 398.827 960.592C398.321 961.793 397.597 962.719 396.657 963.371C395.716 964.022 394.602 964.347 393.314 964.347ZM393.314 962.199C394.544 962.199 395.492 961.692 396.158 960.679C396.823 959.666 397.156 958.212 397.156 956.317C397.156 955.043 397.004 953.965 396.7 953.083C396.411 952.2 395.977 951.534 395.398 951.086C394.834 950.623 394.139 950.391 393.314 950.391C392.504 950.391 391.81 950.623 391.231 951.086C390.666 951.534 390.232 952.2 389.928 953.083C389.639 953.965 389.494 955.043 389.494 956.317C389.494 958.212 389.827 959.666 390.493 960.679C391.158 961.692 392.099 962.199 393.314 962.199Z" fill="white"/>
<path d="M500.102 964V953.018H496.846V951.129H498.17C498.749 951.129 499.219 951.057 499.581 950.912C499.943 950.753 500.203 950.493 500.363 950.131C500.522 949.755 500.601 949.241 500.601 948.59H502.446V964H500.102Z" fill="white"/>
<path d="M602.281 964C602.281 962.842 602.454 961.808 602.801 960.896C603.149 959.985 603.742 959.138 604.581 958.357C605.42 957.576 606.578 956.794 608.054 956.013C608.763 955.651 609.327 955.318 609.747 955.014C610.181 954.696 610.492 954.371 610.68 954.038C610.868 953.705 610.962 953.3 610.962 952.822C610.962 952.33 610.854 951.911 610.637 951.563C610.434 951.202 610.13 950.92 609.725 950.717C609.32 950.5 608.806 950.391 608.184 950.391C607.2 950.391 606.419 950.659 605.84 951.194C605.276 951.715 604.921 952.468 604.777 953.452L602.346 953.3C602.519 951.752 603.105 950.522 604.104 949.61C605.117 948.698 606.477 948.243 608.184 948.243C609.284 948.243 610.217 948.438 610.984 948.829C611.765 949.205 612.359 949.733 612.764 950.413C613.183 951.093 613.393 951.882 613.393 952.779C613.393 953.56 613.263 954.233 613.003 954.797C612.742 955.362 612.308 955.89 611.7 956.382C611.093 956.859 610.268 957.373 609.226 957.923C607.895 958.632 606.889 959.334 606.209 960.028C605.529 960.708 605.167 961.316 605.124 961.851H613.393V964H602.281Z" fill="white"/>
<path d="M714.707 964.347C712.927 964.347 711.552 963.935 710.583 963.11C709.628 962.285 709.114 961.2 709.042 959.854L711.451 959.724C711.538 960.607 711.871 961.244 712.449 961.634C713.043 962.01 713.795 962.199 714.707 962.199C715.314 962.199 715.871 962.119 716.378 961.96C716.899 961.786 717.311 961.511 717.615 961.135C717.933 960.744 718.093 960.238 718.093 959.616C718.093 958.69 717.781 958.01 717.159 957.576C716.537 957.127 715.712 956.903 714.685 956.903H713.404V954.862H714.685C715.51 954.862 716.197 954.696 716.747 954.363C717.297 954.03 717.572 953.452 717.572 952.627C717.572 951.903 717.34 951.354 716.877 950.977C716.414 950.587 715.705 950.391 714.75 950.391C713.824 950.391 713.122 950.572 712.645 950.934C712.167 951.296 711.885 951.788 711.798 952.41L709.389 952.28C709.534 951.064 710.062 950.088 710.973 949.35C711.9 948.612 713.158 948.243 714.75 948.243C715.85 948.243 716.79 948.416 717.572 948.764C718.353 949.096 718.953 949.581 719.373 950.218C719.793 950.854 720.003 951.6 720.003 952.453C720.003 953.394 719.699 954.161 719.091 954.754C718.498 955.347 717.622 955.752 716.465 955.969V955.579C717.724 955.738 718.715 956.186 719.438 956.924C720.162 957.648 720.523 958.574 720.523 959.703C720.523 960.672 720.277 961.511 719.785 962.22C719.293 962.915 718.613 963.443 717.745 963.805C716.877 964.166 715.864 964.347 714.707 964.347Z" fill="white"/>
<path d="M823.378 964V960.788H815.608V958.791L823.096 948.59H825.722V958.661H827.61V960.788H825.722V964H823.378ZM818.277 958.661H823.378V951.846L818.277 958.661Z" fill="white"/>
<path d="M928.924 964.347C927.781 964.347 926.804 964.166 925.994 963.805C925.183 963.428 924.547 962.908 924.084 962.242C923.621 961.576 923.353 960.809 923.281 959.941L925.69 959.789C925.805 960.6 926.146 961.207 926.71 961.613C927.289 962.003 928.027 962.199 928.924 962.199C929.937 962.199 930.732 961.916 931.311 961.352C931.904 960.788 932.201 959.999 932.201 958.986C932.201 958.321 932.064 957.749 931.789 957.272C931.528 956.78 931.152 956.403 930.66 956.143C930.168 955.868 929.582 955.731 928.902 955.731C928.222 955.731 927.614 955.875 927.079 956.165C926.543 956.454 926.16 956.852 925.928 957.358H923.498L924.539 948.59H933.568V950.739H926.623L925.972 956.013L925.603 955.687C925.849 955.253 926.16 954.899 926.536 954.624C926.912 954.334 927.347 954.117 927.838 953.973C928.345 953.813 928.88 953.734 929.445 953.734C930.486 953.734 931.391 953.958 932.158 954.407C932.939 954.855 933.547 955.477 933.981 956.273C934.415 957.069 934.632 957.973 934.632 958.986C934.632 960.043 934.393 960.976 933.916 961.786C933.438 962.596 932.773 963.226 931.919 963.674C931.065 964.123 930.067 964.347 928.924 964.347Z" fill="white"/>
<path d="M1035.92 964.347C1034.71 964.347 1033.68 964.08 1032.84 963.544C1032 962.994 1031.37 962.206 1030.93 961.178C1030.5 960.137 1030.28 958.878 1030.28 957.402C1030.28 956.114 1030.39 954.92 1030.61 953.821C1030.84 952.707 1031.2 951.737 1031.69 950.912C1032.18 950.073 1032.82 949.422 1033.6 948.959C1034.4 948.481 1035.36 948.243 1036.49 948.243C1037.91 948.243 1039.01 948.59 1039.81 949.284C1040.6 949.965 1041.15 950.876 1041.46 952.019L1039.14 952.215C1038.96 951.65 1038.67 951.202 1038.27 950.869C1037.88 950.536 1037.28 950.37 1036.49 950.37C1035.3 950.37 1034.37 950.876 1033.69 951.889C1033.01 952.902 1032.65 954.45 1032.6 956.534L1032.19 956.447C1032.35 955.955 1032.62 955.506 1032.99 955.101C1033.37 954.682 1033.84 954.349 1034.4 954.103C1034.98 953.842 1035.64 953.712 1036.38 953.712C1037.41 953.712 1038.3 953.929 1039.07 954.363C1039.85 954.783 1040.45 955.383 1040.87 956.165C1041.31 956.946 1041.52 957.858 1041.52 958.899C1041.52 960.028 1041.28 961.005 1040.81 961.83C1040.33 962.64 1039.67 963.262 1038.83 963.696C1037.99 964.13 1037.02 964.347 1035.92 964.347ZM1035.95 962.264C1036.89 962.264 1037.65 961.967 1038.22 961.374C1038.82 960.766 1039.11 959.941 1039.11 958.899C1039.11 958.248 1038.98 957.684 1038.72 957.207C1038.48 956.715 1038.12 956.338 1037.66 956.078C1037.21 955.817 1036.69 955.687 1036.1 955.687C1035.45 955.687 1034.87 955.817 1034.36 956.078C1033.85 956.338 1033.46 956.715 1033.17 957.207C1032.88 957.684 1032.73 958.248 1032.73 958.899C1032.73 959.551 1032.86 960.129 1033.12 960.636C1033.38 961.142 1033.75 961.54 1034.23 961.83C1034.72 962.119 1035.29 962.264 1035.95 962.264Z" fill="white"/>
<path d="M1140.75 964C1140.75 962.408 1140.96 960.838 1141.38 959.29C1141.82 957.727 1142.43 956.23 1143.21 954.797C1144 953.35 1144.95 951.997 1146.05 950.739H1137.43V948.59H1148.53V950.587C1147.31 951.976 1146.3 953.365 1145.49 954.754C1144.69 956.129 1144.1 957.576 1143.71 959.095C1143.33 960.6 1143.14 962.235 1143.14 964H1140.75Z" fill="white"/>
<path d="M1249.79 964.347C1248.62 964.347 1247.59 964.174 1246.69 963.826C1245.79 963.479 1245.09 962.965 1244.58 962.285C1244.09 961.605 1243.85 960.773 1243.85 959.789C1243.85 958.661 1244.19 957.727 1244.87 956.989C1245.55 956.252 1246.46 955.76 1247.6 955.514L1247.64 955.948C1246.72 955.731 1245.97 955.333 1245.41 954.754C1244.86 954.175 1244.58 953.416 1244.58 952.475C1244.58 951.65 1244.79 950.92 1245.21 950.283C1245.63 949.646 1246.23 949.147 1246.99 948.785C1247.77 948.424 1248.71 948.243 1249.79 948.243C1250.86 948.243 1251.79 948.424 1252.57 948.785C1253.35 949.147 1253.95 949.646 1254.35 950.283C1254.77 950.92 1254.98 951.65 1254.98 952.475C1254.98 953.416 1254.71 954.175 1254.16 954.754C1253.61 955.318 1252.86 955.716 1251.92 955.948L1251.96 955.514C1253.12 955.76 1254.04 956.252 1254.72 956.989C1255.4 957.727 1255.74 958.661 1255.74 959.789C1255.74 960.773 1255.49 961.605 1254.98 962.285C1254.49 962.965 1253.79 963.479 1252.9 963.826C1252 964.174 1250.97 964.347 1249.79 964.347ZM1249.79 962.199C1250.86 962.199 1251.71 961.981 1252.33 961.547C1252.97 961.099 1253.29 960.433 1253.29 959.551C1253.29 958.711 1253 958.039 1252.42 957.532C1251.86 957.026 1250.98 956.772 1249.79 956.772C1248.61 956.772 1247.72 957.026 1247.15 957.532C1246.57 958.039 1246.28 958.711 1246.28 959.551C1246.28 960.433 1246.6 961.099 1247.23 961.547C1247.87 961.981 1248.72 962.199 1249.79 962.199ZM1249.79 954.841C1250.68 954.841 1251.36 954.66 1251.83 954.298C1252.33 953.922 1252.57 953.35 1252.57 952.584C1252.57 951.918 1252.33 951.383 1251.86 950.977C1251.39 950.572 1250.71 950.37 1249.79 950.37C1248.88 950.37 1248.19 950.572 1247.71 950.977C1247.23 951.383 1246.99 951.918 1246.99 952.584C1246.99 953.35 1247.24 953.922 1247.73 954.298C1248.22 954.66 1248.91 954.841 1249.79 954.841Z" fill="white"/>
<path d="M1356.45 964.347C1355.11 964.347 1354.04 964.029 1353.21 963.392C1352.39 962.756 1351.82 961.909 1351.5 960.853L1353.86 960.701C1354.04 961.178 1354.33 961.555 1354.75 961.83C1355.19 962.09 1355.75 962.22 1356.45 962.22C1357.66 962.22 1358.58 961.743 1359.2 960.788C1359.84 959.833 1360.16 958.285 1360.18 956.143L1360.61 956.252C1360.25 957.163 1359.7 957.858 1358.96 958.335C1358.24 958.813 1357.39 959.051 1356.4 959.051C1355.39 959.051 1354.5 958.834 1353.73 958.4C1352.97 957.952 1352.37 957.33 1351.93 956.534C1351.5 955.738 1351.28 954.812 1351.28 953.756C1351.28 952.612 1351.51 951.636 1351.98 950.825C1352.44 950.001 1353.08 949.364 1353.91 948.915C1354.73 948.467 1355.69 948.243 1356.77 948.243C1358.1 948.243 1359.19 948.539 1360.03 949.133C1360.88 949.726 1361.51 950.565 1361.92 951.65C1362.34 952.721 1362.55 954.009 1362.55 955.514C1362.55 956.816 1362.44 958.01 1362.22 959.095C1362 960.18 1361.65 961.113 1361.16 961.895C1360.68 962.676 1360.05 963.284 1359.27 963.718C1358.5 964.137 1357.56 964.347 1356.45 964.347ZM1356.73 957.033C1357.38 957.033 1357.95 956.903 1358.44 956.642C1358.93 956.382 1359.32 956.013 1359.59 955.535C1359.87 955.043 1360.01 954.45 1360.01 953.756C1360.01 953.09 1359.88 952.504 1359.62 951.997C1359.37 951.477 1359.01 951.071 1358.53 950.782C1358.05 950.478 1357.48 950.326 1356.82 950.326C1356.16 950.326 1355.6 950.471 1355.12 950.76C1354.66 951.05 1354.3 951.455 1354.04 951.976C1353.79 952.482 1353.67 953.068 1353.67 953.734C1353.67 954.414 1353.8 955 1354.06 955.492C1354.32 955.984 1354.67 956.367 1355.12 956.642C1355.59 956.903 1356.12 957.033 1356.73 957.033Z" fill="white"/>
<path d="M1456.1 964V953.018H1452.85V951.129H1454.17C1454.75 951.129 1455.22 951.057 1455.58 950.912C1455.94 950.753 1456.2 950.493 1456.36 950.131C1456.52 949.755 1456.6 949.241 1456.6 948.59H1458.45V964H1456.1ZM1467.88 964.347C1466.6 964.347 1465.5 964.022 1464.56 963.371C1463.62 962.719 1462.89 961.793 1462.39 960.592C1461.88 959.391 1461.63 957.966 1461.63 956.317C1461.63 954.667 1461.88 953.242 1462.39 952.041C1462.91 950.825 1463.63 949.892 1464.56 949.241C1465.5 948.575 1466.6 948.243 1467.88 948.243C1469.17 948.243 1470.27 948.575 1471.2 949.241C1472.14 949.892 1472.86 950.818 1473.37 952.019C1473.89 953.22 1474.15 954.653 1474.15 956.317C1474.15 957.966 1473.9 959.391 1473.39 960.592C1472.88 961.793 1472.16 962.719 1471.22 963.371C1470.28 964.022 1469.17 964.347 1467.88 964.347ZM1467.88 962.199C1469.11 962.199 1470.06 961.692 1470.72 960.679C1471.39 959.666 1471.72 958.212 1471.72 956.317C1471.72 955.043 1471.57 953.965 1471.26 953.083C1470.97 952.2 1470.54 951.534 1469.96 951.086C1469.4 950.623 1468.7 950.391 1467.88 950.391C1467.07 950.391 1466.37 950.623 1465.79 951.086C1465.23 951.534 1464.8 952.2 1464.49 953.083C1464.2 953.965 1464.06 955.043 1464.06 956.317C1464.06 958.212 1464.39 959.666 1465.06 960.679C1465.72 961.692 1466.66 962.199 1467.88 962.199Z" fill="white"/>
<path d="M1566.1 964V953.018H1562.85V951.129H1564.17C1564.75 951.129 1565.22 951.057 1565.58 950.912C1565.94 950.753 1566.2 950.493 1566.36 950.131C1566.52 949.755 1566.6 949.241 1566.6 948.59H1568.45V964H1566.1ZM1574.05 964V953.018H1570.79V951.129H1572.12C1572.7 951.129 1573.17 951.057 1573.53 950.912C1573.89 950.753 1574.15 950.493 1574.31 950.131C1574.47 949.755 1574.55 949.241 1574.55 948.59H1576.39V964H1574.05Z" fill="white"/>
<path d="M364 183C364 179.686 366.686 177 370 177H418C421.314 177 424 179.686 424 183V932H364V183Z" fill="url(#paint0_linear_88_3722)"/>
<path d="M471 257C471 253.686 473.686 251 477 251H525C528.314 251 531 253.686 531 257V932H471V257Z" fill="url(#paint1_linear_88_3722)"/>
<path d="M578 325C578 321.686 580.686 319 584 319H632C635.314 319 638 321.686 638 325V932H578V325Z" fill="url(#paint2_linear_88_3722)"/>
<path d="M685 386C685 382.686 687.686 380 691 380H739C742.314 380 745 382.686 745 386V932H685V386Z" fill="url(#paint3_linear_88_3722)"/>
<path d="M792 441C792 437.686 794.686 435 798 435H846C849.314 435 852 437.686 852 441V932H792V441Z" fill="url(#paint4_linear_88_3722)"/>
<path d="M899 490C899 486.686 901.686 484 905 484H953C956.314 484 959 486.686 959 490V932H899V490Z" fill="url(#paint5_linear_88_3722)"/>
<path d="M1006 536C1006 532.686 1008.69 530 1012 530H1060C1063.31 530 1066 532.686 1066 536V932H1006V536Z" fill="url(#paint6_linear_88_3722)"/>
<path d="M1113 576C1113 572.686 1115.69 570 1119 570H1167C1170.31 570 1173 572.686 1173 576V932H1113V576Z" fill="url(#paint7_linear_88_3722)"/>
<path d="M1220 613C1220 609.686 1222.69 607 1226 607H1274C1277.31 607 1280 609.686 1280 613V932H1220V613Z" fill="url(#paint8_linear_88_3722)"/>
<path d="M1327 647C1327 643.686 1329.69 641 1333 641H1381C1384.31 641 1387 643.686 1387 647V932H1327V647Z" fill="url(#paint9_linear_88_3722)"/>
<path d="M1434 674C1434 670.686 1436.69 668 1440 668H1488C1491.31 668 1494 670.686 1494 674V932H1434V674Z" fill="url(#paint10_linear_88_3722)"/>
<path d="M1541 690C1541 686.686 1543.69 684 1547 684H1595C1598.31 684 1601 686.686 1601 690V932H1541V690Z" fill="url(#paint11_linear_88_3722)"/>
<path d="M895.68 1013V1004.17L887.776 990.28H893.152L898.112 999.432L903.04 990.28H908.416L900.544 1004.17V1013H895.68ZM915.762 1013.38C914.012 1013.38 912.487 1013.02 911.186 1012.3C909.906 1011.55 908.903 1010.5 908.178 1009.16C907.474 1007.82 907.122 1006.24 907.122 1004.42C907.122 1002.61 907.474 1001.04 908.178 999.72C908.903 998.376 909.906 997.331 911.186 996.584C912.466 995.837 913.98 995.464 915.73 995.464C917.436 995.464 918.919 995.837 920.178 996.584C921.436 997.331 922.407 998.397 923.09 999.784C923.794 1001.17 924.146 1002.82 924.146 1004.74V1005.7H912.082C912.146 1007.07 912.508 1008.08 913.17 1008.74C913.852 1009.41 914.748 1009.74 915.858 1009.74C916.668 1009.74 917.34 1009.57 917.874 1009.22C918.428 1008.88 918.823 1008.36 919.058 1007.66L923.89 1007.94C923.442 1009.65 922.492 1010.98 921.042 1011.94C919.591 1012.9 917.831 1013.38 915.762 1013.38ZM912.082 1002.76H919.218C919.154 1001.5 918.802 1000.56 918.162 999.944C917.543 999.325 916.732 999.016 915.73 999.016C914.727 999.016 913.895 999.347 913.234 1000.01C912.594 1000.65 912.21 1001.57 912.082 1002.76ZM932.356 1013.38C930.586 1013.38 929.135 1012.98 928.004 1012.17C926.895 1011.34 926.34 1010.18 926.34 1008.71C926.34 1007.2 926.81 1006.03 927.748 1005.22C928.708 1004.39 930.116 1003.78 931.972 1003.4L937.508 1002.31C937.508 1001.2 937.252 1000.37 936.74 999.816C936.25 999.24 935.535 998.952 934.596 998.952C933.679 998.952 932.964 999.165 932.452 999.592C931.94 999.997 931.61 1000.61 931.46 1001.42L926.628 1001.19C926.948 999.315 927.791 997.896 929.156 996.936C930.543 995.955 932.356 995.464 934.596 995.464C937.156 995.464 939.076 996.072 940.356 997.288C941.658 998.504 942.308 1000.29 942.308 1002.63V1008.49C942.308 1008.98 942.383 1009.31 942.532 1009.48C942.703 1009.63 942.948 1009.7 943.268 1009.7H943.748V1013C943.599 1013.04 943.354 1013.09 943.012 1013.13C942.692 1013.17 942.372 1013.19 942.052 1013.19C941.37 1013.19 940.73 1013.07 940.132 1012.84C939.556 1012.61 939.087 1012.21 938.724 1011.66C938.362 1011.08 938.18 1010.27 938.18 1009.22L938.596 1009.54C938.383 1010.31 937.999 1010.98 937.444 1011.56C936.911 1012.14 936.207 1012.58 935.332 1012.9C934.479 1013.22 933.487 1013.38 932.356 1013.38ZM933.508 1010.09C934.298 1010.09 934.991 1009.94 935.588 1009.64C936.186 1009.32 936.655 1008.86 936.996 1008.26C937.338 1007.67 937.508 1006.96 937.508 1006.15V1005.32L933.604 1006.15C932.836 1006.3 932.25 1006.56 931.844 1006.92C931.46 1007.26 931.268 1007.71 931.268 1008.26C931.268 1008.84 931.46 1009.29 931.844 1009.61C932.228 1009.93 932.783 1010.09 933.508 1010.09ZM946.268 1013V995.848H950.812L950.972 1000.84L950.62 1000.74C950.898 999.016 951.388 997.768 952.092 997C952.796 996.232 953.767 995.848 955.004 995.848H956.572V999.816H955.004C954.108 999.816 953.372 999.933 952.796 1000.17C952.22 1000.4 951.783 1000.78 951.484 1001.29C951.207 1001.8 951.068 1002.49 951.068 1003.37V1013H946.268Z" fill="white"/>
<path d="M216 603.632L193.28 603.632L193.28 598.768L216 598.768L216 603.632ZM216 594.076L198.848 594.076L198.848 589.756L203.872 589.563L203.712 590.171C202.432 590.001 201.408 589.659 200.64 589.147C199.872 588.614 199.317 587.953 198.976 587.164C198.635 586.374 198.464 585.51 198.464 584.571C198.464 583.334 198.731 582.289 199.264 581.435C199.797 580.561 200.555 579.899 201.536 579.452C202.496 578.982 203.637 578.747 204.96 578.747L216 578.747L216 583.548L206.56 583.547C205.643 583.547 204.864 583.622 204.224 583.771C203.584 583.921 203.104 584.187 202.784 584.572C202.443 584.955 202.272 585.489 202.272 586.171C202.272 587.174 202.645 587.942 203.392 588.475C204.117 589.009 205.173 589.276 206.56 589.276L216 589.276L216 594.076ZM216 573.438L198.624 573.438C196.917 573.438 195.605 572.98 194.688 572.062C193.749 571.145 193.28 569.716 193.28 567.774L193.28 564.126L196.864 564.126L196.864 566.75C196.864 567.412 197.035 567.892 197.376 568.19C197.696 568.489 198.187 568.638 198.848 568.638L216 568.638L216 573.438ZM203.072 575.934L199.488 575.934L199.488 564.382L203.072 564.382L203.072 575.934ZM216 557.022C216 558.43 215.648 559.529 214.944 560.318C214.24 561.108 213.099 561.502 211.52 561.502L193.28 561.502L193.28 556.702L211.008 556.702C211.52 556.702 211.883 556.585 212.096 556.35C212.309 556.116 212.416 555.774 212.416 555.326L212.416 554.174L216 554.174L216 557.022ZM216.384 546.456C216.384 548.227 215.979 549.678 215.168 550.808C214.336 551.918 213.184 552.472 211.712 552.472C210.197 552.472 209.035 552.003 208.224 551.064C207.392 550.104 206.784 548.696 206.4 546.84L205.312 541.304C204.203 541.304 203.371 541.56 202.816 542.072C202.24 542.563 201.952 543.278 201.952 544.216C201.952 545.134 202.165 545.848 202.592 546.36C202.997 546.872 203.605 547.203 204.416 547.352L204.192 552.184C202.315 551.864 200.896 551.022 199.936 549.656C198.955 548.27 198.464 546.456 198.464 544.216C198.464 541.656 199.072 539.736 200.288 538.456C201.504 537.155 203.285 536.504 205.632 536.504L211.488 536.504C211.979 536.504 212.309 536.43 212.48 536.28C212.629 536.11 212.704 535.864 212.704 535.544L212.704 535.064L216 535.064C216.043 535.214 216.085 535.459 216.128 535.8C216.171 536.12 216.192 536.44 216.192 536.76C216.192 537.443 216.075 538.083 215.84 538.68C215.605 539.256 215.211 539.726 214.656 540.088C214.08 540.451 213.269 540.632 212.224 540.632L212.544 540.216C213.312 540.43 213.984 540.814 214.56 541.368C215.136 541.902 215.584 542.606 215.904 543.48C216.224 544.334 216.384 545.326 216.384 546.456ZM213.088 545.304C213.088 544.515 212.939 543.822 212.64 543.224C212.32 542.627 211.861 542.158 211.264 541.816C210.667 541.475 209.963 541.304 209.152 541.304L208.32 541.304L209.152 545.208C209.301 545.976 209.557 546.563 209.92 546.968C210.261 547.352 210.709 547.544 211.264 547.544C211.84 547.544 212.288 547.352 212.608 546.968C212.928 546.584 213.088 546.03 213.088 545.304ZM216 526.378C216 528.148 215.595 529.45 214.784 530.282C213.952 531.114 212.64 531.53 210.848 531.53L194.816 531.53L194.816 526.73L210.272 526.73C211.104 526.73 211.669 526.559 211.968 526.218C212.267 525.855 212.416 525.322 212.416 524.618L212.416 522.218L216 522.218L216 526.378ZM202.432 534.282L198.848 534.282L198.848 522.218L202.432 522.218L202.432 534.282ZM216 519.388L198.848 519.388L198.848 514.588L216 514.588L216 519.388ZM196.736 519.484L192.896 519.484L192.896 514.524L196.736 514.524L196.736 519.484ZM216.384 502.924C216.384 504.674 216.021 506.199 215.296 507.501C214.549 508.802 213.504 509.815 212.16 510.541C210.816 511.266 209.237 511.629 207.424 511.629C205.611 511.629 204.043 511.266 202.72 510.541C201.376 509.815 200.331 508.802 199.584 507.5C198.837 506.199 198.464 504.674 198.464 502.924C198.464 501.175 198.837 499.65 199.584 498.348C200.331 497.047 201.376 496.034 202.72 495.308C204.043 494.583 205.611 494.22 207.424 494.22C209.237 494.22 210.816 494.583 212.16 495.308C213.504 496.034 214.549 497.047 215.296 498.348C216.021 499.65 216.384 501.175 216.384 502.924ZM212.704 502.924C212.704 501.73 212.245 500.802 211.328 500.14C210.389 499.479 209.088 499.148 207.424 499.148C205.76 499.148 204.469 499.479 203.552 500.14C202.613 500.802 202.144 501.73 202.144 502.924C202.144 504.119 202.613 505.047 203.552 505.708C204.469 506.37 205.76 506.7 207.424 506.7C209.088 506.7 210.389 506.37 211.328 505.708C212.245 505.047 212.704 504.119 212.704 502.924ZM216 491.232L198.848 491.232L198.848 486.912L203.872 486.72L203.712 487.328C202.432 487.157 201.408 486.816 200.64 486.304C199.872 485.77 199.317 485.109 198.976 484.32C198.635 483.53 198.464 482.666 198.464 481.728C198.464 480.49 198.731 479.445 199.264 478.592C199.797 477.717 200.555 477.056 201.536 476.608C202.496 476.138 203.637 475.904 204.96 475.904L216 475.904L216 480.704L206.56 480.704C205.643 480.704 204.864 480.778 204.224 480.928C203.584 481.077 203.104 481.344 202.784 481.728C202.443 482.112 202.272 482.645 202.272 483.328C202.272 484.33 202.645 485.098 203.392 485.632C204.117 486.165 205.173 486.432 206.56 486.432L216 486.432L216 491.232Z" fill="white"/>
<path d="M1521.84 1011.49L1521.1 1011.04L1521.87 1009.88H1520.5V1008.97L1521.87 1008.98L1521.1 1007.82L1521.84 1007.36L1522.57 1008.58L1523.31 1007.36L1524.03 1007.82L1523.26 1008.98L1524.63 1008.97V1009.88H1523.26L1524.03 1011.04L1523.31 1011.49L1522.57 1010.28L1521.84 1011.49ZM1526.15 1016V1007.48H1527.8L1531.73 1014.43V1007.48H1533.03V1016H1531.33L1527.45 1009.21V1016H1526.15ZM1537.47 1016.14C1536.87 1016.14 1536.33 1016.01 1535.88 1015.74C1535.42 1015.46 1535.07 1015.08 1534.82 1014.57C1534.57 1014.07 1534.45 1013.48 1534.45 1012.81C1534.45 1012.13 1534.57 1011.54 1534.82 1011.04C1535.07 1010.55 1535.42 1010.16 1535.88 1009.89C1536.33 1009.61 1536.87 1009.47 1537.47 1009.47C1538.08 1009.47 1538.61 1009.61 1539.07 1009.89C1539.53 1010.16 1539.88 1010.55 1540.13 1011.04C1540.37 1011.54 1540.5 1012.13 1540.5 1012.81C1540.5 1013.48 1540.37 1014.07 1540.13 1014.57C1539.88 1015.08 1539.53 1015.46 1539.07 1015.74C1538.61 1016.01 1538.08 1016.14 1537.47 1016.14ZM1537.47 1015.04C1538.02 1015.04 1538.44 1014.84 1538.73 1014.45C1539.03 1014.05 1539.18 1013.5 1539.18 1012.81C1539.18 1012.11 1539.03 1011.57 1538.73 1011.18C1538.44 1010.78 1538.02 1010.58 1537.47 1010.58C1536.94 1010.58 1536.52 1010.78 1536.21 1011.18C1535.92 1011.57 1535.77 1012.11 1535.77 1012.81C1535.77 1013.5 1535.92 1014.05 1536.21 1014.45C1536.52 1014.84 1536.94 1015.04 1537.47 1015.04ZM1544 1016C1543.39 1016 1542.94 1015.86 1542.65 1015.58C1542.36 1015.3 1542.22 1014.86 1542.22 1014.27V1008.12H1543.49V1014.18C1543.49 1014.47 1543.56 1014.68 1543.68 1014.79C1543.81 1014.9 1544.01 1014.96 1544.27 1014.96H1545.18V1016H1544ZM1541.25 1010.66V1009.62H1545.18V1010.66H1541.25ZM1548.92 1016.14C1548.3 1016.14 1547.76 1016.01 1547.3 1015.74C1546.85 1015.46 1546.51 1015.08 1546.26 1014.57C1546.02 1014.07 1545.9 1013.48 1545.9 1012.81C1545.9 1012.14 1546.02 1011.55 1546.26 1011.06C1546.51 1010.55 1546.85 1010.16 1547.3 1009.89C1547.75 1009.61 1548.28 1009.47 1548.89 1009.47C1549.46 1009.47 1549.97 1009.61 1550.41 1009.88C1550.85 1010.14 1551.19 1010.53 1551.43 1011.03C1551.68 1011.54 1551.8 1012.14 1551.8 1012.86V1013.18H1547.22C1547.25 1013.8 1547.41 1014.27 1547.71 1014.58C1548.01 1014.9 1548.42 1015.05 1548.93 1015.05C1549.31 1015.05 1549.62 1014.96 1549.87 1014.79C1550.12 1014.61 1550.29 1014.38 1550.39 1014.08L1551.71 1014.16C1551.54 1014.76 1551.21 1015.24 1550.71 1015.6C1550.22 1015.96 1549.63 1016.14 1548.92 1016.14ZM1547.22 1012.22H1550.46C1550.42 1011.65 1550.25 1011.23 1549.97 1010.96C1549.69 1010.69 1549.33 1010.55 1548.89 1010.55C1548.43 1010.55 1548.05 1010.7 1547.76 1010.98C1547.47 1011.26 1547.29 1011.68 1547.22 1012.22ZM1553.34 1016V1014.49H1554.89V1016H1553.34ZM1553.34 1011.43V1009.92H1554.89V1011.43H1553.34ZM1561.61 1016V1008.67H1558.99V1007.48H1565.52V1008.67H1562.9V1016H1561.61ZM1566.25 1016V1007.48H1567.52V1011.06L1567.37 1011.03C1567.44 1010.67 1567.57 1010.38 1567.76 1010.16C1567.96 1009.92 1568.19 1009.75 1568.47 1009.64C1568.75 1009.53 1569.06 1009.47 1569.4 1009.47C1569.86 1009.47 1570.25 1009.58 1570.57 1009.78C1570.89 1009.98 1571.13 1010.27 1571.29 1010.64C1571.46 1011 1571.54 1011.42 1571.54 1011.9V1016H1570.27V1012.23C1570.27 1011.66 1570.17 1011.23 1569.97 1010.96C1569.78 1010.68 1569.48 1010.54 1569.06 1010.54C1568.6 1010.54 1568.22 1010.69 1567.94 1010.98C1567.66 1011.27 1567.52 1011.7 1567.52 1012.26V1016H1566.25ZM1575.83 1016.14C1575.2 1016.14 1574.66 1016.01 1574.21 1015.74C1573.76 1015.46 1573.41 1015.08 1573.16 1014.57C1572.92 1014.07 1572.8 1013.48 1572.8 1012.81C1572.8 1012.14 1572.92 1011.55 1573.16 1011.06C1573.41 1010.55 1573.76 1010.16 1574.21 1009.89C1574.66 1009.61 1575.18 1009.47 1575.79 1009.47C1576.37 1009.47 1576.88 1009.61 1577.32 1009.88C1577.76 1010.14 1578.1 1010.53 1578.34 1011.03C1578.58 1011.54 1578.71 1012.14 1578.71 1012.86V1013.18H1574.12C1574.16 1013.8 1574.32 1014.27 1574.62 1014.58C1574.92 1014.9 1575.33 1015.05 1575.84 1015.05C1576.22 1015.05 1576.53 1014.96 1576.78 1014.79C1577.02 1014.61 1577.2 1014.38 1577.29 1014.08L1578.61 1014.16C1578.44 1014.76 1578.11 1015.24 1577.62 1015.6C1577.13 1015.96 1576.53 1016.14 1575.83 1016.14ZM1574.12 1012.22H1577.36C1577.32 1011.65 1577.16 1011.23 1576.87 1010.96C1576.59 1010.69 1576.23 1010.55 1575.79 1010.55C1575.34 1010.55 1574.96 1010.7 1574.66 1010.98C1574.38 1011.26 1574.2 1011.68 1574.12 1012.22ZM1583.03 1016V1009.62H1584.3V1016H1583.03ZM1583.01 1008.69V1007.42H1584.33V1008.69H1583.01ZM1586.21 1016V1009.62H1587.37L1587.42 1011.32L1587.26 1011.24C1587.34 1010.82 1587.47 1010.48 1587.67 1010.23C1587.87 1009.97 1588.12 1009.78 1588.4 1009.66C1588.69 1009.54 1589 1009.47 1589.34 1009.47C1589.82 1009.47 1590.22 1009.58 1590.53 1009.8C1590.85 1010 1591.09 1010.29 1591.25 1010.66C1591.42 1011.02 1591.5 1011.43 1591.5 1011.9V1016H1590.23V1012.28C1590.23 1011.9 1590.19 1011.59 1590.11 1011.33C1590.03 1011.08 1589.9 1010.88 1589.71 1010.74C1589.53 1010.61 1589.29 1010.54 1588.99 1010.54C1588.54 1010.54 1588.18 1010.69 1587.9 1010.98C1587.62 1011.28 1587.48 1011.71 1587.48 1012.28V1016H1586.21ZM1593.57 1016V1009.21C1593.57 1008.68 1593.72 1008.26 1594.02 1007.95C1594.31 1007.64 1594.78 1007.48 1595.41 1007.48H1596.54V1008.52H1595.58C1595.33 1008.52 1595.14 1008.59 1595.02 1008.73C1594.9 1008.86 1594.84 1009.04 1594.84 1009.28V1016H1593.57ZM1592.68 1010.73V1009.7H1596.44V1010.73H1592.68ZM1599.04 1016C1598.63 1016 1598.29 1015.89 1598.04 1015.68C1597.78 1015.46 1597.65 1015.12 1597.65 1014.64V1007.48H1598.92V1014.52C1598.92 1014.67 1598.96 1014.78 1599.03 1014.85C1599.11 1014.92 1599.22 1014.96 1599.37 1014.96H1599.87V1016H1599.04ZM1602.81 1016.14C1602.15 1016.14 1601.61 1015.99 1601.21 1015.69C1600.82 1015.38 1600.63 1014.96 1600.63 1014.4C1600.63 1013.85 1600.79 1013.42 1601.12 1013.12C1601.45 1012.81 1601.97 1012.58 1602.67 1012.45L1604.86 1012.03C1604.86 1011.53 1604.75 1011.16 1604.51 1010.92C1604.28 1010.68 1603.94 1010.55 1603.48 1010.55C1603.07 1010.55 1602.75 1010.64 1602.52 1010.83C1602.29 1011 1602.13 1011.27 1602.04 1011.62L1600.73 1011.54C1600.85 1010.9 1601.15 1010.39 1601.62 1010.02C1602.1 1009.66 1602.72 1009.47 1603.48 1009.47C1604.35 1009.47 1605 1009.7 1605.45 1010.17C1605.91 1010.62 1606.13 1011.27 1606.13 1012.1V1014.58C1606.13 1014.74 1606.16 1014.84 1606.21 1014.91C1606.26 1014.96 1606.35 1014.99 1606.47 1014.99H1606.7V1016C1606.66 1016.01 1606.59 1016.02 1606.51 1016.02C1606.42 1016.03 1606.33 1016.04 1606.23 1016.04C1605.96 1016.04 1605.72 1015.99 1605.52 1015.9C1605.33 1015.82 1605.19 1015.67 1605.09 1015.47C1604.99 1015.26 1604.95 1014.99 1604.95 1014.64L1605.08 1014.7C1605.01 1014.98 1604.87 1015.23 1604.66 1015.45C1604.45 1015.66 1604.18 1015.84 1603.85 1015.96C1603.53 1016.08 1603.19 1016.14 1602.81 1016.14ZM1603.01 1015.14C1603.4 1015.14 1603.73 1015.06 1604 1014.92C1604.27 1014.77 1604.48 1014.56 1604.63 1014.3C1604.79 1014.03 1604.86 1013.73 1604.86 1013.4V1012.99L1602.99 1013.35C1602.61 1013.42 1602.33 1013.54 1602.17 1013.7C1602.02 1013.85 1601.95 1014.04 1601.95 1014.28C1601.95 1014.56 1602.04 1014.77 1602.22 1014.92C1602.41 1015.06 1602.68 1015.14 1603.01 1015.14ZM1609.89 1016C1609.28 1016 1608.83 1015.86 1608.55 1015.58C1608.26 1015.3 1608.11 1014.86 1608.11 1014.27V1008.12H1609.39V1014.18C1609.39 1014.47 1609.45 1014.68 1609.58 1014.79C1609.71 1014.9 1609.9 1014.96 1610.17 1014.96H1611.08V1016H1609.89ZM1607.14 1010.66V1009.62H1611.08V1010.66H1607.14ZM1612.29 1016V1009.62H1613.57V1016H1612.29ZM1612.27 1008.69V1007.42H1613.59V1008.69H1612.27ZM1617.88 1016.14C1617.27 1016.14 1616.74 1016.01 1616.28 1015.74C1615.82 1015.46 1615.47 1015.08 1615.22 1014.57C1614.98 1014.07 1614.85 1013.48 1614.85 1012.81C1614.85 1012.13 1614.98 1011.54 1615.22 1011.04C1615.47 1010.55 1615.82 1010.16 1616.28 1009.89C1616.74 1009.61 1617.27 1009.47 1617.88 1009.47C1618.48 1009.47 1619.02 1009.61 1619.47 1009.89C1619.93 1010.16 1620.28 1010.55 1620.53 1011.04C1620.78 1011.54 1620.9 1012.13 1620.9 1012.81C1620.9 1013.48 1620.78 1014.07 1620.53 1014.57C1620.28 1015.08 1619.93 1015.46 1619.47 1015.74C1619.02 1016.01 1618.48 1016.14 1617.88 1016.14ZM1617.88 1015.04C1618.42 1015.04 1618.84 1014.84 1619.14 1014.45C1619.43 1014.05 1619.58 1013.5 1619.58 1012.81C1619.58 1012.11 1619.43 1011.57 1619.14 1011.18C1618.84 1010.78 1618.42 1010.58 1617.88 1010.58C1617.34 1010.58 1616.92 1010.78 1616.62 1011.18C1616.32 1011.57 1616.17 1012.11 1616.17 1012.81C1616.17 1013.5 1616.32 1014.05 1616.62 1014.45C1616.92 1014.84 1617.34 1015.04 1617.88 1015.04ZM1622.19 1016V1009.62H1623.35L1623.4 1011.32L1623.24 1011.24C1623.31 1010.82 1623.45 1010.48 1623.65 1010.23C1623.85 1009.97 1624.09 1009.78 1624.38 1009.66C1624.67 1009.54 1624.98 1009.47 1625.32 1009.47C1625.8 1009.47 1626.19 1009.58 1626.51 1009.8C1626.83 1010 1627.07 1010.29 1627.23 1010.66C1627.39 1011.02 1627.48 1011.43 1627.48 1011.9V1016H1626.21V1012.28C1626.21 1011.9 1626.17 1011.59 1626.09 1011.33C1626.01 1011.08 1625.87 1010.88 1625.69 1010.74C1625.51 1010.61 1625.27 1010.54 1624.97 1010.54C1624.52 1010.54 1624.16 1010.69 1623.88 1010.98C1623.6 1011.28 1623.46 1011.71 1623.46 1012.28V1016H1622.19ZM1632.84 1016V1009.21C1632.84 1008.68 1632.99 1008.26 1633.28 1007.95C1633.58 1007.64 1634.04 1007.48 1634.68 1007.48H1635.8V1008.52H1634.84C1634.6 1008.52 1634.41 1008.59 1634.29 1008.73C1634.17 1008.86 1634.11 1009.04 1634.11 1009.28V1016H1632.84ZM1631.95 1010.73V1009.7H1635.71V1010.73H1631.95ZM1638.31 1016C1637.9 1016 1637.56 1015.89 1637.3 1015.68C1637.05 1015.46 1636.92 1015.12 1636.92 1014.64V1007.48H1638.19V1014.52C1638.19 1014.67 1638.23 1014.78 1638.3 1014.85C1638.38 1014.92 1638.49 1014.96 1638.64 1014.96H1639.14V1016H1638.31ZM1642.85 1016.14C1642.24 1016.14 1641.71 1016.01 1641.25 1015.74C1640.8 1015.46 1640.44 1015.08 1640.2 1014.57C1639.95 1014.07 1639.82 1013.48 1639.82 1012.81C1639.82 1012.13 1639.95 1011.54 1640.2 1011.04C1640.44 1010.55 1640.8 1010.16 1641.25 1009.89C1641.71 1009.61 1642.24 1009.47 1642.85 1009.47C1643.46 1009.47 1643.99 1009.61 1644.44 1009.89C1644.9 1010.16 1645.25 1010.55 1645.5 1011.04C1645.75 1011.54 1645.87 1012.13 1645.87 1012.81C1645.87 1013.48 1645.75 1014.07 1645.5 1014.57C1645.25 1015.08 1644.9 1015.46 1644.44 1015.74C1643.99 1016.01 1643.46 1016.14 1642.85 1016.14ZM1642.85 1015.04C1643.39 1015.04 1643.81 1014.84 1644.11 1014.45C1644.4 1014.05 1644.55 1013.5 1644.55 1012.81C1644.55 1012.11 1644.4 1011.57 1644.11 1011.18C1643.81 1010.78 1643.39 1010.58 1642.85 1010.58C1642.31 1010.58 1641.89 1010.78 1641.59 1011.18C1641.29 1011.57 1641.14 1012.11 1641.14 1012.81C1641.14 1013.5 1641.29 1014.05 1641.59 1014.45C1641.89 1014.84 1642.31 1015.04 1642.85 1015.04ZM1649.79 1016.14C1649.18 1016.14 1648.65 1016.01 1648.19 1015.74C1647.73 1015.46 1647.38 1015.08 1647.13 1014.57C1646.89 1014.07 1646.76 1013.48 1646.76 1012.81C1646.76 1012.13 1646.89 1011.54 1647.13 1011.04C1647.38 1010.55 1647.73 1010.16 1648.19 1009.89C1648.65 1009.61 1649.18 1009.47 1649.79 1009.47C1650.39 1009.47 1650.93 1009.61 1651.38 1009.89C1651.84 1010.16 1652.19 1010.55 1652.44 1011.04C1652.69 1011.54 1652.81 1012.13 1652.81 1012.81C1652.81 1013.48 1652.69 1014.07 1652.44 1014.57C1652.19 1015.08 1651.84 1015.46 1651.38 1015.74C1650.93 1016.01 1650.39 1016.14 1649.79 1016.14ZM1649.79 1015.04C1650.33 1015.04 1650.75 1014.84 1651.05 1014.45C1651.34 1014.05 1651.49 1013.5 1651.49 1012.81C1651.49 1012.11 1651.34 1011.57 1651.05 1011.18C1650.75 1010.78 1650.33 1010.58 1649.79 1010.58C1649.25 1010.58 1648.83 1010.78 1648.53 1011.18C1648.23 1011.57 1648.08 1012.11 1648.08 1012.81C1648.08 1013.5 1648.23 1014.05 1648.53 1014.45C1648.83 1014.84 1649.25 1015.04 1649.79 1015.04ZM1654.1 1016V1009.62H1655.26L1655.31 1011.31L1655.2 1011.27C1655.29 1010.7 1655.46 1010.28 1655.73 1010.01C1656 1009.75 1656.36 1009.62 1656.82 1009.62H1657.43V1010.76H1656.82C1656.5 1010.76 1656.23 1010.81 1656.02 1010.91C1655.8 1011.02 1655.64 1011.18 1655.52 1011.39C1655.42 1011.61 1655.37 1011.89 1655.37 1012.23V1016H1654.1ZM1661.74 1016V1009.62H1662.9L1662.95 1011.31L1662.84 1011.27C1662.93 1010.7 1663.1 1010.28 1663.37 1010.01C1663.64 1009.75 1664 1009.62 1664.46 1009.62H1665.07V1010.76H1664.46C1664.14 1010.76 1663.87 1010.81 1663.66 1010.91C1663.44 1011.02 1663.28 1011.18 1663.16 1011.39C1663.06 1011.61 1663.01 1011.89 1663.01 1012.23V1016H1661.74ZM1667.79 1016.14C1667.13 1016.14 1666.59 1015.99 1666.19 1015.69C1665.8 1015.38 1665.61 1014.96 1665.61 1014.4C1665.61 1013.85 1665.77 1013.42 1666.1 1013.12C1666.43 1012.81 1666.95 1012.58 1667.65 1012.45L1669.84 1012.03C1669.84 1011.53 1669.73 1011.16 1669.49 1010.92C1669.26 1010.68 1668.92 1010.55 1668.46 1010.55C1668.05 1010.55 1667.73 1010.64 1667.5 1010.83C1667.27 1011 1667.11 1011.27 1667.02 1011.62L1665.71 1011.54C1665.83 1010.9 1666.13 1010.39 1666.6 1010.02C1667.08 1009.66 1667.7 1009.47 1668.46 1009.47C1669.33 1009.47 1669.98 1009.7 1670.43 1010.17C1670.89 1010.62 1671.11 1011.27 1671.11 1012.1V1014.58C1671.11 1014.74 1671.14 1014.84 1671.19 1014.91C1671.24 1014.96 1671.33 1014.99 1671.45 1014.99H1671.68V1016C1671.64 1016.01 1671.57 1016.02 1671.49 1016.02C1671.4 1016.03 1671.31 1016.04 1671.21 1016.04C1670.94 1016.04 1670.7 1015.99 1670.5 1015.9C1670.31 1015.82 1670.17 1015.67 1670.07 1015.47C1669.97 1015.26 1669.93 1014.99 1669.93 1014.64L1670.06 1014.7C1669.99 1014.98 1669.85 1015.23 1669.64 1015.45C1669.43 1015.66 1669.16 1015.84 1668.83 1015.96C1668.51 1016.08 1668.17 1016.14 1667.79 1016.14ZM1667.99 1015.14C1668.38 1015.14 1668.71 1015.06 1668.98 1014.92C1669.25 1014.77 1669.46 1014.56 1669.61 1014.3C1669.77 1014.03 1669.84 1013.73 1669.84 1013.4V1012.99L1667.97 1013.35C1667.59 1013.42 1667.31 1013.54 1667.15 1013.7C1667 1013.85 1666.93 1014.04 1666.93 1014.28C1666.93 1014.56 1667.02 1014.77 1667.2 1014.92C1667.39 1015.06 1667.66 1015.14 1667.99 1015.14ZM1674.87 1016C1674.26 1016 1673.82 1015.86 1673.53 1015.58C1673.24 1015.3 1673.1 1014.86 1673.1 1014.27V1008.12H1674.37V1014.18C1674.37 1014.47 1674.43 1014.68 1674.56 1014.79C1674.69 1014.9 1674.88 1014.96 1675.15 1014.96H1676.06V1016H1674.87ZM1672.12 1010.66V1009.62H1676.06V1010.66H1672.12ZM1679.8 1016.14C1679.17 1016.14 1678.63 1016.01 1678.18 1015.74C1677.73 1015.46 1677.38 1015.08 1677.13 1014.57C1676.89 1014.07 1676.77 1013.48 1676.77 1012.81C1676.77 1012.14 1676.89 1011.55 1677.13 1011.06C1677.38 1010.55 1677.73 1010.16 1678.18 1009.89C1678.63 1009.61 1679.15 1009.47 1679.76 1009.47C1680.34 1009.47 1680.85 1009.61 1681.29 1009.88C1681.73 1010.14 1682.07 1010.53 1682.31 1011.03C1682.55 1011.54 1682.68 1012.14 1682.68 1012.86V1013.18H1678.09C1678.13 1013.8 1678.29 1014.27 1678.59 1014.58C1678.89 1014.9 1679.3 1015.05 1679.81 1015.05C1680.19 1015.05 1680.5 1014.96 1680.75 1014.79C1680.99 1014.61 1681.17 1014.38 1681.26 1014.08L1682.58 1014.16C1682.41 1014.76 1682.08 1015.24 1681.59 1015.6C1681.1 1015.96 1680.5 1016.14 1679.8 1016.14ZM1678.09 1012.22H1681.33C1681.29 1011.65 1681.13 1011.23 1680.84 1010.96C1680.56 1010.69 1680.2 1010.55 1679.76 1010.55C1679.31 1010.55 1678.93 1010.7 1678.63 1010.98C1678.35 1011.26 1678.17 1011.68 1678.09 1012.22ZM1687 1016V1009.62H1688.27V1016H1687ZM1686.98 1008.69V1007.42H1688.3V1008.69H1686.98ZM1692.41 1016.14C1691.81 1016.14 1691.31 1016.05 1690.89 1015.87C1690.48 1015.68 1690.17 1015.43 1689.94 1015.11C1689.72 1014.78 1689.59 1014.41 1689.56 1013.98L1690.87 1013.92C1690.93 1014.28 1691.08 1014.56 1691.32 1014.76C1691.56 1014.97 1691.93 1015.08 1692.41 1015.08C1692.81 1015.08 1693.13 1015.01 1693.36 1014.88C1693.59 1014.76 1693.71 1014.55 1693.71 1014.27C1693.71 1014.12 1693.67 1013.99 1693.59 1013.89C1693.52 1013.78 1693.37 1013.68 1693.16 1013.61C1692.94 1013.53 1692.62 1013.46 1692.2 1013.38C1691.57 1013.26 1691.07 1013.12 1690.71 1012.96C1690.35 1012.8 1690.09 1012.6 1689.94 1012.35C1689.79 1012.1 1689.71 1011.8 1689.71 1011.45C1689.71 1010.87 1689.93 1010.39 1690.36 1010.02C1690.8 1009.66 1691.43 1009.47 1692.26 1009.47C1692.81 1009.47 1693.27 1009.57 1693.65 1009.76C1694.03 1009.94 1694.32 1010.2 1694.53 1010.52C1694.74 1010.83 1694.88 1011.18 1694.93 1011.57L1693.63 1011.64C1693.59 1011.42 1693.51 1011.23 1693.39 1011.07C1693.27 1010.9 1693.12 1010.77 1692.93 1010.68C1692.74 1010.59 1692.51 1010.54 1692.25 1010.54C1691.84 1010.54 1691.53 1010.62 1691.33 1010.78C1691.13 1010.94 1691.03 1011.15 1691.03 1011.4C1691.03 1011.6 1691.08 1011.75 1691.17 1011.87C1691.26 1011.99 1691.41 1012.09 1691.62 1012.17C1691.83 1012.24 1692.11 1012.31 1692.45 1012.36C1693.11 1012.48 1693.63 1012.62 1694.01 1012.78C1694.39 1012.94 1694.65 1013.14 1694.8 1013.38C1694.95 1013.62 1695.03 1013.92 1695.03 1014.26C1695.03 1014.66 1694.92 1015 1694.69 1015.28C1694.47 1015.56 1694.16 1015.78 1693.77 1015.93C1693.38 1016.07 1692.93 1016.14 1692.41 1016.14ZM1699.16 1016C1699.16 1015.36 1699.26 1014.79 1699.45 1014.28C1699.64 1013.78 1699.97 1013.31 1700.43 1012.88C1700.9 1012.45 1701.54 1012.02 1702.35 1011.58C1702.75 1011.38 1703.06 1011.2 1703.29 1011.03C1703.53 1010.86 1703.7 1010.68 1703.81 1010.49C1703.91 1010.31 1703.96 1010.08 1703.96 1009.82C1703.96 1009.55 1703.9 1009.32 1703.78 1009.12C1703.67 1008.92 1703.5 1008.77 1703.28 1008.66C1703.05 1008.54 1702.77 1008.48 1702.43 1008.48C1701.88 1008.48 1701.45 1008.62 1701.13 1008.92C1700.82 1009.21 1700.62 1009.62 1700.54 1010.17L1699.2 1010.08C1699.29 1009.23 1699.62 1008.55 1700.17 1008.04C1700.73 1007.54 1701.48 1007.29 1702.43 1007.29C1703.03 1007.29 1703.55 1007.4 1703.97 1007.61C1704.41 1007.82 1704.73 1008.11 1704.96 1008.49C1705.19 1008.86 1705.31 1009.3 1705.31 1009.8C1705.31 1010.23 1705.23 1010.6 1705.09 1010.91C1704.95 1011.22 1704.71 1011.52 1704.37 1011.79C1704.03 1012.05 1703.58 1012.34 1703 1012.64C1702.27 1013.03 1701.71 1013.42 1701.33 1013.8C1700.96 1014.18 1700.76 1014.52 1700.73 1014.81H1705.31V1016H1699.16ZM1706.52 1016V1014.49H1708.06V1016H1706.52ZM1712.38 1016.19C1711.67 1016.19 1711.06 1016.01 1710.54 1015.65C1710.02 1015.29 1709.62 1014.78 1709.34 1014.12C1709.06 1013.45 1708.92 1012.66 1708.92 1011.75C1708.92 1010.84 1709.06 1010.05 1709.34 1009.39C1709.63 1008.72 1710.03 1008.2 1710.54 1007.84C1711.06 1007.47 1711.67 1007.29 1712.38 1007.29C1713.09 1007.29 1713.7 1007.47 1714.21 1007.84C1714.73 1008.2 1715.13 1008.71 1715.41 1009.38C1715.7 1010.04 1715.84 1010.83 1715.84 1011.75C1715.84 1012.66 1715.7 1013.45 1715.42 1014.12C1715.14 1014.78 1714.74 1015.29 1714.22 1015.65C1713.7 1016.01 1713.09 1016.19 1712.38 1016.19ZM1712.38 1015C1713.06 1015 1713.58 1014.72 1713.95 1014.16C1714.32 1013.6 1714.5 1012.8 1714.5 1011.75C1714.5 1011.05 1714.42 1010.45 1714.25 1009.96C1714.09 1009.48 1713.85 1009.11 1713.53 1008.86C1713.22 1008.6 1712.83 1008.48 1712.38 1008.48C1711.93 1008.48 1711.54 1008.6 1711.22 1008.86C1710.91 1009.11 1710.67 1009.48 1710.5 1009.96C1710.34 1010.45 1710.26 1011.05 1710.26 1011.75C1710.26 1012.8 1710.45 1013.6 1710.82 1014.16C1711.18 1014.72 1711.7 1015 1712.38 1015ZM1720.47 1016.19C1719.77 1016.19 1719.16 1016.01 1718.64 1015.65C1718.12 1015.29 1717.72 1014.78 1717.44 1014.12C1717.16 1013.45 1717.02 1012.66 1717.02 1011.75C1717.02 1010.84 1717.16 1010.05 1717.44 1009.39C1717.73 1008.72 1718.13 1008.2 1718.64 1007.84C1719.16 1007.47 1719.77 1007.29 1720.47 1007.29C1721.19 1007.29 1721.8 1007.47 1722.31 1007.84C1722.83 1008.2 1723.23 1008.71 1723.51 1009.38C1723.8 1010.04 1723.94 1010.83 1723.94 1011.75C1723.94 1012.66 1723.8 1013.45 1723.52 1014.12C1723.24 1014.78 1722.84 1015.29 1722.32 1015.65C1721.8 1016.01 1721.19 1016.19 1720.47 1016.19ZM1720.47 1015C1721.15 1015 1721.68 1014.72 1722.05 1014.16C1722.41 1013.6 1722.6 1012.8 1722.6 1011.75C1722.6 1011.05 1722.51 1010.45 1722.35 1009.96C1722.19 1009.48 1721.95 1009.11 1721.63 1008.86C1721.31 1008.6 1720.93 1008.48 1720.47 1008.48C1720.03 1008.48 1719.64 1008.6 1719.32 1008.86C1719.01 1009.11 1718.77 1009.48 1718.6 1009.96C1718.44 1010.45 1718.36 1011.05 1718.36 1011.75C1718.36 1012.8 1718.55 1013.6 1718.91 1014.16C1719.28 1014.72 1719.8 1015 1720.47 1015ZM1726.93 1011.61C1726.38 1011.61 1725.92 1011.43 1725.56 1011.07C1725.21 1010.71 1725.03 1010.18 1725.03 1009.5C1725.03 1008.8 1725.21 1008.28 1725.56 1007.92C1725.92 1007.56 1726.38 1007.38 1726.93 1007.38C1727.48 1007.38 1727.93 1007.56 1728.28 1007.92C1728.64 1008.28 1728.81 1008.8 1728.81 1009.5C1728.81 1010.18 1728.64 1010.71 1728.28 1011.07C1727.93 1011.43 1727.48 1011.61 1726.93 1011.61ZM1726.93 1010.8C1727.23 1010.8 1727.46 1010.69 1727.61 1010.47C1727.76 1010.24 1727.84 1009.92 1727.84 1009.5C1727.84 1009.07 1727.76 1008.75 1727.61 1008.52C1727.46 1008.3 1727.23 1008.19 1726.93 1008.19C1726.63 1008.19 1726.4 1008.3 1726.24 1008.52C1726.09 1008.75 1726.02 1009.07 1726.02 1009.5C1726.02 1009.92 1726.09 1010.24 1726.24 1010.47C1726.4 1010.69 1726.63 1010.8 1726.93 1010.8ZM1731.85 1016.1C1731.3 1016.1 1730.85 1015.92 1730.49 1015.56C1730.13 1015.2 1729.95 1014.67 1729.95 1013.98C1729.95 1013.29 1730.13 1012.76 1730.49 1012.41C1730.85 1012.05 1731.3 1011.87 1731.85 1011.87C1732.41 1011.87 1732.86 1012.05 1733.22 1012.41C1733.57 1012.76 1733.74 1013.29 1733.74 1013.98C1733.74 1014.67 1733.57 1015.2 1733.22 1015.56C1732.86 1015.92 1732.41 1016.1 1731.85 1016.1ZM1731.85 1015.29C1732.15 1015.29 1732.38 1015.18 1732.53 1014.96C1732.68 1014.73 1732.76 1014.41 1732.76 1013.98C1732.76 1013.56 1732.68 1013.24 1732.53 1013.01C1732.38 1012.79 1732.15 1012.68 1731.85 1012.68C1731.55 1012.68 1731.32 1012.79 1731.16 1013.01C1731.01 1013.24 1730.94 1013.56 1730.94 1013.98C1730.94 1014.41 1731.01 1014.73 1731.16 1014.96C1731.32 1015.18 1731.55 1015.29 1731.85 1015.29ZM1725.98 1016L1731.79 1007.48H1732.8L1726.99 1016H1725.98Z" fill="#8D8D8D"/>
</g>
<defs>
<linearGradient id="paint0_linear_88_3722" x1="394" y1="177" x2="394" y2="932" gradientUnits="userSpaceOnUse">
<stop offset="0.0528846" stop-color="#4EDFFF"/>
<stop offset="1" stop-color="#081215"/>
</linearGradient>
<linearGradient id="paint1_linear_88_3722" x1="501" y1="251" x2="501" y2="932" gradientUnits="userSpaceOnUse">
<stop offset="0.0528846" stop-color="#4EDFFF"/>
<stop offset="1" stop-color="#081215"/>
</linearGradient>
<linearGradient id="paint2_linear_88_3722" x1="608" y1="319" x2="608" y2="932" gradientUnits="userSpaceOnUse">
<stop offset="0.0528846" stop-color="#4EDFFF"/>
<stop offset="1" stop-color="#081215"/>
</linearGradient>
<linearGradient id="paint3_linear_88_3722" x1="715" y1="380" x2="715" y2="932" gradientUnits="userSpaceOnUse">
<stop offset="0.0528846" stop-color="#4EDFFF"/>
<stop offset="1" stop-color="#081215"/>
</linearGradient>
<linearGradient id="paint4_linear_88_3722" x1="822" y1="435" x2="822" y2="932" gradientUnits="userSpaceOnUse">
<stop offset="0.0528846" stop-color="#4EDFFF"/>
<stop offset="1" stop-color="#081215"/>
</linearGradient>
<linearGradient id="paint5_linear_88_3722" x1="929" y1="484" x2="929" y2="932" gradientUnits="userSpaceOnUse">
<stop offset="0.0528846" stop-color="#4EDFFF"/>
<stop offset="1" stop-color="#081215"/>
</linearGradient>
<linearGradient id="paint6_linear_88_3722" x1="1036" y1="530" x2="1036" y2="932" gradientUnits="userSpaceOnUse">
<stop offset="0.0528846" stop-color="#4EDFFF"/>
<stop offset="1" stop-color="#081215"/>
</linearGradient>
<linearGradient id="paint7_linear_88_3722" x1="1143" y1="570" x2="1143" y2="932" gradientUnits="userSpaceOnUse">
<stop offset="0.0528846" stop-color="#4EDFFF"/>
<stop offset="1" stop-color="#081215"/>
</linearGradient>
<linearGradient id="paint8_linear_88_3722" x1="1250" y1="607" x2="1250" y2="932" gradientUnits="userSpaceOnUse">
<stop offset="0.0528846" stop-color="#4EDFFF"/>
<stop offset="1" stop-color="#081215"/>
</linearGradient>
<linearGradient id="paint9_linear_88_3722" x1="1357" y1="641" x2="1357" y2="932" gradientUnits="userSpaceOnUse">
<stop offset="0.0528846" stop-color="#4EDFFF"/>
<stop offset="1" stop-color="#081215"/>
</linearGradient>
<linearGradient id="paint10_linear_88_3722" x1="1464" y1="668" x2="1464" y2="932" gradientUnits="userSpaceOnUse">
<stop offset="0.0528846" stop-color="#4EDFFF"/>
<stop offset="1" stop-color="#081215"/>
</linearGradient>
<linearGradient id="paint11_linear_88_3722" x1="1571" y1="684" x2="1571" y2="932" gradientUnits="userSpaceOnUse">
<stop offset="0.0528846" stop-color="#4EDFFF"/>
<stop offset="1" stop-color="#081215"/>
</linearGradient>
<clipPath id="clip0_88_3722">
<rect width="1920" height="1080" fill="white"/>
</clipPath>
</defs>
</svg>
