<svg xmlns="http://www.w3.org/2000/svg" fill="none" viewBox="0 0 710 279">
  <path fill="#fff"
    d="M508.68 190c-7.15 0-12.96-1.34-17.45-5.18-4.38-3.93-6.23-9.27-6.23-15.54v-59.56c0-6.36 1.85-11.7 6.23-15.54 4.49-3.83 10.3-5.18 17.45-5.18h38.64c7.26 0 13.07 1.35 17.45 5.18 4.38 3.83 6.23 9.18 6.23 15.54v59.56c0 6.27-1.85 11.61-6.23 15.54-4.38 3.84-10.2 5.18-17.45 5.18h-38.64Zm29.91-19.42c2.57 0 4.85-.08 6.24-1.3a6.47 6.47 0 0 0 2.49-5.18v-49.2c0-2.25-1-3.97-2.5-5.18-1.38-1.22-3.66-1.3-6.23-1.3h-21.18c-2.67 0-4.85.08-6.24 1.3a6.8 6.8 0 0 0-2.49 5.18v49.2a6.8 6.8 0 0 0 2.5 5.18c1.38 1.22 3.56 1.3 6.23 1.3h21.18ZM463 189h-24V90h24v99Zm-108.32 0H331V90h24.93l37.39 60.5V90H417v99h-24.93l-37.39-60.5V189Zm262 0H593V90h24.93l37.39 60.5V90H679v99h-24.93l-37.39-60.5V189Zm-368.93 1c-7.16 0-13-1.34-17.5-5.2-4.38-3.94-6.25-9.29-6.25-15.58V90h23.75v74.03a6.83 6.83 0 0 0 2.5 5.2c1.39 1.21 3.58 1.29 6.25 1.29h20c2.67 0 4.86-.08 6.25-1.3a6.83 6.83 0 0 0 2.5-5.2V90H309v79.22c0 6.3-1.87 11.64-6.25 15.59-4.38 3.84-10.23 5.19-17.5 5.19h-37.5Z" />
  <path fill="#fff" fill-rule="evenodd"
    d="M148.75 170a60 60 0 0 1-120 0h29.4c0 16.57 14.04 30 30.6 30 16.57 0 30.62-13.43 30.62-30h29.38Z"
    clip-rule="evenodd" />
  <path fill="#fff"
    d="M164.5 154.26H194v-29.5h-29.5v29.5Zm-15.75-29.51h-29.5v29.51h29.5v-29.5ZM74 154.26h29.5v-29.5H74v29.5Zm-15.74-29.51h-29.5v29.51h29.5v-29.5Z" />
  <path fill="#fff" fill-rule="evenodd"
    d="M74 110a60 60 0 0 1 120 0h-29.39c0-16.57-14.04-30-30.61-30s-30.61 13.43-30.61 30H74Z" clip-rule="evenodd" />
</svg>
