<svg width="710" height="279" viewBox="0 0 710 279" fill="none" xmlns="http://www.w3.org/2000/svg">
<path d="M508.681 190C501.528 190 495.716 188.655 491.232 184.821C486.854 180.893 485 175.548 485 169.282V109.718C485 103.359 486.854 98.0137 491.232 94.1795C495.716 90.3452 501.528 89 508.681 89H547.319C554.579 89 560.391 90.3452 564.768 94.1795C569.146 98.0137 571 103.359 571 109.718V169.282C571 175.548 569.146 180.893 564.768 184.821C560.391 188.655 554.579 190 547.319 190H508.681ZM538.594 170.577C541.157 170.577 543.438 170.498 544.826 169.282C546.321 168.066 547.319 166.347 547.319 164.103V114.897C547.319 112.653 546.321 110.934 544.826 109.718C543.438 108.502 541.157 108.423 538.594 108.423H517.406C514.737 108.423 512.562 108.502 511.174 109.718C509.786 110.934 508.681 112.653 508.681 114.897V164.103C508.681 166.347 509.786 168.066 511.174 169.282C512.562 170.498 514.737 170.577 517.406 170.577H538.594Z" fill="black"/>
<path d="M463 189H439V90H463V189Z" fill="black"/>
<path d="M354.681 189H331V90H355.928L393.319 150.5L393.319 132.987V90H417V189H392.072L354.681 128.5L354.681 146.013V189Z" fill="black"/>
<path d="M616.681 189H593V90H617.928L655.319 150.5L655.319 132.987V90H679V189H654.072L616.681 128.5L616.681 146.013V189Z" fill="black"/>
<path d="M247.75 190C240.586 190 234.741 188.655 230.25 184.805C225.866 180.862 224 175.512 224 169.221V90H247.75V164.026C247.75 166.279 248.86 168 250.25 169.221C251.64 170.441 253.827 170.519 256.5 170.519H276.5C279.173 170.519 281.36 170.441 282.75 169.221C284.14 168 285.25 166.279 285.25 164.026V90H309V169.221C309 175.512 307.134 180.862 302.75 184.805C298.366 188.655 292.52 190 285.25 190H247.75Z" fill="black"/>
<path fill-rule="evenodd" clip-rule="evenodd" d="M148.754 170C148.754 203.137 121.891 230 88.7539 230C55.6168 230 28.7539 203.137 28.7539 170H58.1417C58.1417 186.568 72.1854 200 88.7539 200C105.322 200 119.366 186.568 119.366 170H148.754Z" fill="black"/>
<path d="M164.492 154.262H194V124.754H164.492V154.262Z" fill="black"/>
<path d="M148.754 124.754H119.246V154.262H148.754V124.754Z" fill="black"/>
<path d="M73.9996 154.262H103.508V124.754H73.9996V154.262Z" fill="black"/>
<path d="M58.2621 124.754H28.7539V154.262H58.2621V124.754Z" fill="black"/>
<path fill-rule="evenodd" clip-rule="evenodd" d="M74 110C74 76.8629 100.863 50 134 50C167.137 50 194 76.8629 194 110H164.612C164.612 93.4315 150.568 80 134 80C117.432 80 103.388 93.4315 103.388 110H74Z" fill="black"/>
</svg>
