<svg xmlns="http://www.w3.org/2000/svg" xmlns:xlink="http://www.w3.org/1999/xlink" data-name="Layer 2"
  viewBox="0 0 206 31">
  <defs>
    <linearGradient id="a" x1="53" x2="3.8" y1="-.01" y2="29" gradientUnits="userSpaceOnUse">
      <stop offset="0" stop-color="#FFFFFF" />
      <stop offset="1" stop-color="#FFFFFF" />
    </linearGradient>
    <linearGradient xlink:href="#a" id="c" x1="53" x2="3.9" y1=".1" y2="29" />
    <linearGradient xlink:href="#a" id="d" x1="53" x2="3.8" y1="-.13" y2="29" />
    <linearGradient xlink:href="#a" id="b" x1="53" x2="3.8" y1="-.01" y2="29" gradientUnits="userSpaceOnUse" />
  </defs>
  <path fill="url(#b)" d="m21 31 11-18H11l-3.6 5H22l-7 13z" class="cls-4" />
  <path fill="url(#c)" d="M36 31 54 0H18l-3 5.6h29L30 31z" class="cls-1" />
  <path fill="url(#d)" d="M0 31h6.4l3.3-5H3.2z" class="cls-3" />
  <g fill="#FFFFFF">
    <path
      d="M82 9.1v13h-2.4v-13zM109 17v5.6h-2.4v-13h2.4v5.6h6.4V9.6h2.4v13h-2.4V17zM130 22h-2.4V11h-4.2V8.8h11V11h-4.2zM156 17v5.6h-2.4v-13h2.4v5.6h6.4V9.6h2.4v13h-2.4V17zM174 9.1v13h-2.4v-13zM190 11h-7.6v3.7h5.5l-1.2 2.2h-4.2v5.5h-2.4v-13h11l-1.2 2.2zM201 22h-2.4V11h-4.2V8.8h11V11h-4.2zM63 22h10l1-2h-8l7-10.9h-3L62 22zM144 15c-2.6-.61-3.2-1.1-3.2-2.1 0-.9.8-1.6 2.2-1.6 1.2 0 2.4.48 3.6 1.4l1.1-1.9c-1.3-1-2.8-1.6-4.7-1.6-2.7 0-4.6 1.6-4.6 3.9 0 2.5 1.6 3.3 4.5 4 2.5.57 3 1.1 3 2.1s-.92 1.7-2.4 1.7c-1.7 0-3-.63-4.2-1.7l-1.1 1.9c1.6 1.3 3.4 1.9 5.3 1.9 2.8 0 4.8-1.5 4.8-4 0-2.2-1.5-3.3-4.3-4zM96 17h2.8v2.5c-.82.61-2 1-3.2 1-2.7 0-4.6-2-4.6-4.8 0-2.6 1.9-4.8 4.4-4.8 1.5 0 2.5.44 3.4 1.2l1.2-2c-1.2-.85-2.5-1.3-4.5-1.3-4 0-6.9 3.2-6.9 7s2.8 6.9 7 6.9c2.4 0 4.3-.96 5.6-2.1V15h-3.9l-1.2 2z"
      class="cls-2" />
  </g>
</svg>
