<svg xmlns="http://www.w3.org/2000/svg" xmlns:xlink="http://www.w3.org/1999/xlink" version="1.1" id="Layer_1" x="0px"
  y="0px" viewBox="0 0 162.3 94.5" style="enable-background:new 0 0 162.3 94.5;" xml:space="preserve">
  <style type="text/css">
    .st0 {
      clip-path: url(#SVGID_00000110472855670665277180000000879545234320530076_);
    }

    .st1 {
      fill: none;
      stroke: #FFFFFF;
      stroke-linecap: round;
      stroke-linejoin: round;
    }

    .st2 {
      fill: none;
      stroke: #FFFFFF;
      stroke-miterlimit: 10;
    }

    .st3 {
      clip-path: url(#SVGID_00000163766013134466295380000010810371169964139194_);
    }

    .st4 {
      clip-path: url(#SVGID_00000071551198602584588010000010577680223368220814_);
    }

    .st5 {
      enable-background: new;
    }
  </style>
  <g id="Group_1190" transform="translate(-532.622 -2974.298)">
    <g id="Group_1078" transform="translate(533.481 2974.298)">
      <g id="Group_2" transform="translate(0 0)">
        <g>
          <defs>
            <rect id="SVGID_1_" x="0" width="161.4" height="58.5" />
          </defs>
          <clipPath id="SVGID_00000090995858756103684690000009074560482518873235_">
            <use xlink:href="#SVGID_1_" style="overflow:visible;" />
          </clipPath>
          <g id="Group_1" style="clip-path:url(#SVGID_00000090995858756103684690000009074560482518873235_);">
            <path id="Path_1" class="st1"
              d="M0.4,58l12.7-12.7l10.2-18.5l8-4l11-22l12.3,3.4l7.6-3.8l13.1,1.7l34,14.4l14.8,19.1l8.9-0.4       l20.8,10.6L161,58" />
            <line id="Line_1" class="st1" x1="23.4" y1="58" x2="0.4" y2="58" />
            <line id="Line_2" class="st1" x1="86.9" y1="58" x2="57.4" y2="58" />
            <line id="Line_3" class="st1" x1="160.5" y1="58" x2="110.2" y2="58" />
            <path id="Path_2" class="st1" d="M153.4,45.8l-43.2,11.9L133,35.2" />
            <path id="Path_3" class="st1"
              d="M46.2,40.3L57.4,58l12.9-12.7l10.2,0.4l8.9-17.4l8.1,0.4l5.9,7.2l6.8-3.4l14,3l-14,22.5       l-6.8-22L86.9,58" />
            <path id="Path_4" class="st2" d="M87.1,58l-6.6-12.3L87.1,58z" />
            <path id="Path_5" class="st1" d="M13.6,45.8l9.7,11.8l8-34.6l14.8,17.4l8.5-36l54.6,12.3L97.4,28.8" />
          </g>
        </g>
      </g>
      <path id="Path_6" class="st1" d="M89.4,28.4L70.3,45.3L55.1,5.1" />
      <g id="Group_4" transform="translate(0 0)">
        <g>
          <defs>
            <rect id="SVGID_00000037655490693186400720000012478938359907630730_" x="0" width="161.4" height="58.5" />
          </defs>
          <clipPath id="SVGID_00000082369321433656876690000012772837976819938999_">
            <use xlink:href="#SVGID_00000037655490693186400720000012478938359907630730_" style="overflow:visible;" />
          </clipPath>
          <g id="Group_3" style="clip-path:url(#SVGID_00000082369321433656876690000012772837976819938999_);">
            <line id="Line_4" class="st1" x1="23.4" y1="58" x2="46.2" y2="40.3" />
          </g>
        </g>
      </g>
      <line id="Line_5" class="st1" x1="54.7" y1="4.2" x2="89.4" y2="28.4" />
      <g id="Group_6" transform="translate(0 0)">
        <g>
          <defs>
            <rect id="SVGID_00000102507249785343028430000001735937554530524828_" x="0" width="161.4" height="58.5" />
          </defs>
          <clipPath id="SVGID_00000006708389392005674930000013484469476955641729_">
            <use xlink:href="#SVGID_00000102507249785343028430000001735937554530524828_" style="overflow:visible;" />
          </clipPath>
          <g id="Group_5" style="clip-path:url(#SVGID_00000006708389392005674930000013484469476955641729_);">
            <line id="Line_6" class="st1" x1="46.2" y1="39.2" x2="42.4" y2="1.3" />
            <path id="Path_7" class="st1" d="M75,2.1l-9.3,4.3l-3.4-6" />
            <line id="Line_7" class="st1" x1="23.4" y1="26.8" x2="23" y2="57.2" />
          </g>
        </g>
      </g>
      <line id="Line_8" class="st1" x1="110.2" y1="32.6" x2="109.3" y2="16.5" />
    </g>
    <g class="st5" fill="#FFFFFF">
      <path d="M537.9,3062.7v-13.1h-4.7v-1.6h11.2v1.6h-4.7v13.1H537.9z" />
      <path d="M547.2,3062.7V3048h1.8v14.7H547.2z" />
      <path
        d="M558.2,3063c-1.8,0-3.1-0.5-4.2-1.5c-1-1-1.6-2.5-1.6-4.4v-3.4c0-1.9,0.5-3.4,1.6-4.4c1-1,2.4-1.5,4.2-1.5    c1.8,0,3.2,0.5,4.2,1.5c1,1,1.6,2.5,1.6,4.4v3.4c0,1.9-0.5,3.4-1.6,4.4C561.3,3062.5,559.9,3063,558.2,3063z M558.2,3061.4    c1.3,0,2.3-0.4,3-1.1c0.7-0.8,1.1-1.8,1.1-3.2v-3.5c0-1.4-0.4-2.4-1.1-3.2s-1.7-1.1-3-1.1c-1.3,0-2.2,0.4-2.9,1.1    c-0.7,0.8-1,1.8-1,3.2v3.5c0,1.4,0.3,2.4,1,3.2C555.9,3061,556.9,3061.4,558.2,3061.4z" />
      <path
        d="M572.5,3063c-1.1,0-2.1-0.2-2.9-0.7s-1.5-1.1-2-2c-0.5-0.9-0.7-2-0.7-3.3v-3.4c0-1.9,0.5-3.4,1.6-4.4c1-1,2.4-1.5,4.2-1.5    c1.7,0,3.1,0.5,4,1.4c0.9,1,1.4,2.2,1.4,3.8v0.1h-1.7v-0.1c0-0.7-0.1-1.3-0.4-1.9s-0.6-1-1.2-1.3c-0.5-0.3-1.2-0.5-2-0.5    c-1.2,0-2.2,0.4-2.9,1.1c-0.7,0.8-1,1.8-1,3.2v3.4c0,1.4,0.3,2.4,1,3.2c0.7,0.8,1.7,1.1,2.9,1.1c1.2,0,2.1-0.3,2.7-1    s0.9-1.6,0.9-2.8v-0.4h-4.5v-1.5h6.2v7h-1.6v-1.6h-0.3c-0.2,0.3-0.4,0.6-0.7,0.9c-0.3,0.3-0.7,0.5-1.1,0.7    C573.9,3062.9,573.3,3063,572.5,3063z" />
      <path
        d="M580.6,3062.7l4.5-14.7h3.1l4.5,14.7H591l-1.1-3.7h-6.3l-1.1,3.7H580.6z M584,3057.4h5.4l-2.5-8.3h-0.3L584,3057.4z" />
    </g>
    <g class="st5" fill="#FFFFFF">
      <path
        d="M617.6,3063.1c-1.8,0-3.1-0.5-4.2-1.5c-1-1-1.6-2.5-1.6-4.4v-3.4c0-1.9,0.5-3.4,1.6-4.4c1-1,2.4-1.5,4.2-1.5    c1.7,0,3.1,0.5,4,1.4s1.4,2.3,1.4,4v0.1h-1.7v-0.2c0-1.1-0.3-2-0.9-2.7c-0.6-0.7-1.5-1.1-2.8-1.1c-1.2,0-2.2,0.4-2.9,1.1    c-0.7,0.8-1.1,1.8-1.1,3.2v3.4c0,1.4,0.4,2.4,1.1,3.2c0.7,0.8,1.7,1.1,2.9,1.1c1.2,0,2.2-0.4,2.8-1.1c0.6-0.7,0.9-1.6,0.9-2.7    v-0.3h1.7v0.3c0,1.7-0.5,3-1.4,4S619.3,3063.1,617.6,3063.1z" />
      <path
        d="M625,3062.8l4.5-14.7h3.1l4.5,14.7h-1.8l-1.1-3.7H628l-1.1,3.7H625z M628.4,3057.5h5.4l-2.5-8.3h-0.3L628.4,3057.5z" />
      <path
        d="M639.9,3062.8v-14.7h5.6c0.9,0,1.7,0.2,2.4,0.5c0.7,0.3,1.2,0.8,1.6,1.5c0.4,0.6,0.6,1.4,0.6,2.3v0.3    c0,0.9-0.2,1.6-0.6,2.3c-0.4,0.6-1,1.1-1.7,1.5s-1.5,0.5-2.3,0.5h-3.9v5.9H639.9z M641.7,3055.2h3.7c0.9,0,1.7-0.2,2.2-0.7    c0.5-0.5,0.8-1.1,0.8-2v-0.2c0-0.9-0.3-1.5-0.8-2s-1.3-0.7-2.2-0.7h-3.7V3055.2z" />
      <path d="M653,3062.8v-14.7h1.8v14.7H653z" />
      <path d="M662.3,3062.8v-13.1h-4.7v-1.6h11.2v1.6h-4.7v13.1H662.3z" />
      <path
        d="M668.8,3062.8l4.5-14.7h3.1l4.5,14.7h-1.8l-1.1-3.7h-6.3l-1.1,3.7H668.8z M672.2,3057.5h5.4l-2.5-8.3h-0.3L672.2,3057.5z" />
      <path d="M683.8,3062.8v-14.7h1.8v13.1h7.4v1.6H683.8z" />
    </g>
  </g>
</svg>
