<svg width="100%" height="100%" viewBox="0 0 970 330" fill="none" xmlns="http://www.w3.org/2000/svg">
<path d="M191.34 220.02C191.34 241.789 182.692 262.666 167.299 278.059C151.906 293.452 131.029 302.1 109.26 302.1C87.491 302.1 66.6137 293.452 51.2207 278.059C35.8277 262.666 27.18 241.789 27.18 220.02V110.64L0 111.22V220.02C0.275502 248.818 11.9087 276.342 32.3699 296.609C52.8311 316.875 80.4659 328.245 109.265 328.245C138.064 328.245 165.699 316.875 186.16 296.609C206.621 276.342 218.255 248.818 218.53 220.02V111.22L191.34 110.64V220.02Z" fill="white"></path>
<path d="M363.52 110.96H254.75L254.18 138.14H363.52C385.289 138.14 406.166 146.788 421.559 162.181C436.952 177.574 445.6 198.451 445.6 220.22C445.6 241.989 436.952 262.866 421.559 278.259C406.166 293.652 385.289 302.3 363.52 302.3H254.18L254.75 329.48H363.52C392.498 329.48 420.288 317.969 440.779 297.478C461.269 276.988 472.78 249.198 472.78 220.22C472.78 191.242 461.269 163.452 440.779 142.961C420.288 122.471 392.498 110.96 363.52 110.96Z" fill="white"></path>
<path d="M777.58 218.26C777.604 196.498 786.259 175.635 801.647 160.247C817.035 144.859 837.898 136.204 859.66 136.18H969.04L968.46 109H859.66C830.682 109 802.892 120.511 782.401 141.002C761.911 161.492 750.4 189.282 750.4 218.26C750.4 247.238 761.911 275.028 782.401 295.518C802.892 316.009 830.682 327.52 859.66 327.52H968.46L969.04 300.34H859.66C837.898 300.316 817.035 291.661 801.647 276.273C786.259 260.885 777.604 240.022 777.58 218.26Z" fill="white"></path>
<path d="M609.08 111.16C593.547 111.121 578.187 114.419 564.04 120.832C549.893 127.245 537.288 136.623 527.08 148.33V0H500.17L499.82 329.22L527 329.8V240.69H527.06V218.18C528.26 174.18 565.06 138.35 609.06 138.35C630.822 138.374 651.685 147.029 667.073 162.417C682.461 177.805 691.116 198.668 691.14 220.43V329.8L718.33 329.22V220.43C718.296 191.464 706.775 163.694 686.295 143.21C665.814 122.725 638.046 111.2 609.08 111.16Z" fill="white"></path>
</svg>
