<svg width="400" height="400" viewBox="0 0 400 400" fill="none" xmlns="http://www.w3.org/2000/svg">
<g clip-path="url(#clip0_222_377)">
<path d="M200 400C310.457 400 400 310.457 400 200C400 89.543 310.457 0 200 0C89.543 0 0 89.543 0 200C0 310.457 89.543 400 200 400Z" fill="#213147"/>
<mask id="mask0_222_377" style="mask-type:luminance" maskUnits="userSpaceOnUse" x="85" y="70" width="231" height="260">
<path d="M315.351 70H85V330H315.351V70Z" fill="white"/>
</mask>
<g mask="url(#mask0_222_377)">
<path d="M93.7441 149.034V250.965C93.7441 257.473 97.2207 263.49 102.852 266.733L191.089 317.709C196.719 320.952 203.651 320.952 209.282 317.709L297.519 266.733C303.15 263.49 306.627 257.473 306.627 250.965V149.034C306.627 142.526 303.15 136.509 297.519 133.266L209.282 82.29C203.651 79.0466 196.719 79.0466 191.089 82.29L102.83 133.266C97.1994 136.509 93.7441 142.526 93.7441 149.034Z" fill="#213147"/>
<path d="M219.434 219.769L206.849 254.293C206.509 255.253 206.509 256.299 206.849 257.259L228.499 316.663L253.539 302.197L223.486 219.769C222.804 217.87 220.116 217.87 219.434 219.769Z" fill="#12AAFF"/>
<path d="M244.667 161.709C243.984 159.81 241.296 159.81 240.614 161.709L228.03 196.233C227.688 197.194 227.688 198.239 228.03 199.199L263.499 296.457L288.539 281.99L244.667 161.709Z" fill="#12AAFF"/>
<path d="M200.175 86.11C200.794 86.11 201.413 86.2807 201.967 86.5794L297.456 141.737C298.565 142.378 299.248 143.572 299.248 144.831V255.126C299.248 256.406 298.565 257.58 297.456 258.219L201.967 313.378C201.434 313.698 200.794 313.847 200.175 313.847C199.557 313.847 198.938 313.677 198.384 313.378L102.895 258.263C101.786 257.622 101.103 256.428 101.103 255.169V144.853C101.103 143.572 101.786 142.399 102.895 141.759L198.384 86.6008C198.938 86.2807 199.557 86.11 200.175 86.11ZM200.175 70C196.784 70 193.372 70.8748 190.322 72.6459L94.8539 127.782C88.7539 131.303 85 137.811 85 144.853V255.147C85 262.189 88.7539 268.697 94.8539 272.217L190.343 327.375C193.393 329.125 196.784 330.022 200.197 330.022C203.589 330.022 207 329.147 210.051 327.375L305.539 272.217C311.64 268.697 315.393 262.189 315.393 255.147V144.853C315.393 137.811 311.64 131.303 305.539 127.782L210.029 72.6459C206.979 70.8748 203.567 70 200.175 70Z" fill="#9DCCED"/>
<path d="M137.021 296.585L145.809 272.516L163.491 287.217L146.961 302.324L137.021 296.585Z" fill="#213147"/>
<path d="M192.134 136.958H167.926C166.113 136.958 164.492 138.089 163.873 139.796L111.98 282.118L137.02 296.586L194.161 139.86C194.693 138.452 193.649 136.958 192.134 136.958Z" fill="white"/>
<path d="M234.495 136.958H210.286C208.473 136.958 206.853 138.089 206.233 139.796L146.982 302.303L172.022 316.771L236.521 139.86C237.033 138.452 235.987 136.958 234.495 136.958Z" fill="white"/>
</g>
</g>
<defs>
<clipPath id="clip0_222_377">
<rect width="400" height="400" fill="white"/>
</clipPath>
</defs>
</svg>
