<svg width="400" height="400" viewBox="0 0 400 400" fill="none" xmlns="http://www.w3.org/2000/svg">
<g clip-path="url(#clip0_226_639)">
<g clip-path="url(#clip1_226_639)">
<path d="M400 200C400 89.543 310.457 0 200 0C89.543 0 0 89.543 0 200C0 310.457 89.543 400 200 400C310.457 400 400 310.457 400 200Z" fill="#7B2BF9"/>
<path d="M315.452 175.517C311.031 154.731 301.084 135.523 286.66 119.92C272.235 104.316 253.869 92.8951 233.496 86.8607C213.124 80.8264 191.501 80.4025 170.908 85.6339C150.315 90.8652 131.515 101.558 116.491 116.584C111.13 121.945 106.292 127.805 102.042 134.084C100.785 135.766 99.6568 137.541 98.6661 139.393C90.4153 153.231 85.0824 168.611 82.9953 184.587C80.9083 200.563 82.1113 216.797 86.5303 232.291C90.9493 247.784 98.4909 262.21 108.691 274.68C118.891 287.15 131.535 297.401 145.843 304.802C160.152 312.203 175.823 316.597 191.892 317.715C207.962 318.833 224.09 316.651 239.285 311.302C254.48 305.954 268.42 297.553 280.248 286.615C292.076 275.677 301.542 262.435 308.063 247.702C308.769 246.241 309.393 244.742 309.932 243.211C318.245 221.775 320.184 198.392 315.516 175.878L315.452 175.517ZM274.505 121.522C275.184 122.17 275.853 122.828 276.522 123.497C286.802 133.743 294.912 145.957 300.366 159.409C300.489 159.712 300.529 160.042 300.481 160.366C300.432 160.689 300.298 160.994 300.092 161.248C299.886 161.502 299.615 161.696 299.309 161.809C299.002 161.923 298.671 161.952 298.349 161.894C294.889 161.307 291.379 161.058 287.871 161.15C286.572 161.179 285.307 160.743 284.3 159.922C283.294 159.101 282.614 157.947 282.382 156.669C280.504 145.634 277.465 134.828 273.316 124.431L272.647 122.828C272.538 122.583 272.517 122.308 272.589 122.049C272.66 121.791 272.819 121.565 273.039 121.411C273.258 121.256 273.524 121.183 273.792 121.203C274.059 121.224 274.311 121.336 274.505 121.522ZM285.726 190.797C285.722 190.53 285.804 190.267 285.959 190.049C286.114 189.83 286.334 189.666 286.588 189.581C286.842 189.496 287.117 189.494 287.372 189.575C287.628 189.656 287.85 189.817 288.009 190.033C288.901 191.275 289.75 192.528 290.567 193.781C291.65 195.445 292.659 197.101 293.593 198.751C293.881 199.25 294.003 199.828 293.94 200.401C293.877 200.974 293.632 201.512 293.243 201.936C291.976 203.352 290.603 204.789 289.123 206.247L287.499 207.883C287.349 208.046 287.151 208.157 286.934 208.202C286.716 208.247 286.491 208.222 286.288 208.132C286.085 208.042 285.916 207.89 285.804 207.699C285.692 207.508 285.642 207.286 285.663 207.065C285.737 205.292 285.779 203.508 285.811 201.756C285.843 198.05 285.822 194.408 285.726 190.797ZM137.097 111.87C155.422 98.745 177.408 91.7167 199.946 91.7792C205.918 91.7756 211.879 92.2621 217.771 93.2339C218.112 93.2949 218.428 93.452 218.682 93.6868C218.937 93.9215 219.119 94.2241 219.207 94.5589C219.295 94.8938 219.286 95.2468 219.18 95.5764C219.074 95.9061 218.876 96.1986 218.61 96.4195C212.962 100.858 207.707 107.42 203.057 115.926C202.507 116.932 201.632 117.722 200.576 118.167C199.519 118.613 198.343 118.687 197.239 118.379C182.772 114.147 167.74 112.167 152.672 112.507C147.753 112.667 142.853 113.185 138.01 114.057C137.742 114.095 137.468 114.043 137.233 113.908C136.997 113.774 136.813 113.565 136.71 113.314C136.606 113.063 136.589 112.785 136.661 112.523C136.734 112.262 136.891 112.032 137.108 111.87H137.097ZM121.64 273.633C119.368 269.332 122.309 259.383 137.257 244.262C137.625 243.89 137.912 243.444 138.097 242.954C138.282 242.464 138.361 241.94 138.33 241.417C138.299 240.894 138.158 240.383 137.916 239.919C137.675 239.454 137.338 239.045 136.927 238.719L135.144 237.296C134.427 236.714 133.52 236.419 132.598 236.469C131.676 236.518 130.805 236.907 130.154 237.562L129.57 238.146C122.139 245.812 116.831 252.916 113.943 259.298C113.754 259.711 113.458 260.065 113.086 260.325C112.714 260.585 112.28 260.741 111.827 260.777C111.375 260.813 110.921 260.727 110.513 260.529C110.105 260.33 109.757 260.026 109.505 259.648C97.8276 241.977 91.6267 221.25 91.6806 200.067C91.6752 192.474 92.4651 184.9 94.0374 177.471C94.0247 177.19 94.1244 176.914 94.3146 176.706C94.5047 176.498 94.7697 176.374 95.0513 176.362C95.3328 176.349 95.6079 176.449 95.8159 176.639C96.024 176.829 96.148 177.094 96.1607 177.376C98.7153 185.47 102.4 193.163 107.106 200.227C114.485 211.315 123.371 221.321 133.509 229.959C137.14 233.144 140.94 236.149 144.964 239.08C153.29 245.176 162.071 250.625 171.229 255.38C175.38 257.503 179.425 259.627 183.565 261.454C184.704 261.972 185.935 262.256 187.186 262.291C188.437 262.326 189.682 262.109 190.848 261.655C192.801 260.891 194.765 260.094 196.74 259.266C197.782 258.832 198.633 258.037 199.138 257.028C199.643 256.018 199.768 254.86 199.49 253.766C199.415 253.479 199.362 253.256 199.33 253.118C195.92 238.238 194.14 223.031 194.022 207.766V207.182C194.022 206.301 194.022 205.409 194.022 204.527C194.022 204.251 194.022 203.773 194.022 203.465V203.126C194.022 202.117 194.022 201.108 194.022 200.089C194.022 197.317 194.171 194.556 194.319 191.827C195.381 172.3 198.64 153.951 203.874 138.522C204.108 137.836 204.06 137.086 203.742 136.435C203.423 135.785 202.86 135.286 202.176 135.05C200.774 134.583 199.383 134.126 198.003 133.691C197.327 133.478 196.595 133.537 195.962 133.857C195.33 134.176 194.847 134.73 194.617 135.4C188.916 152.156 185.391 172.045 184.446 193.091C184.389 194.404 184.005 195.681 183.331 196.808C182.656 197.935 181.711 198.877 180.582 199.547C168.801 206.468 157.51 214.192 146.79 222.664C145.79 223.459 144.543 223.88 143.265 223.852C141.988 223.825 140.76 223.352 139.794 222.515C130.371 214.496 122.11 205.204 115.249 194.907C102.86 175.878 99.9082 157.954 106.958 144.447L107.011 144.352C107.913 142.855 108.847 141.389 109.813 139.934C117.914 129.22 132.978 123.008 152.958 122.308C154.218 122.265 155.492 122.244 156.78 122.244C169.922 122.387 182.979 124.367 195.572 128.127L196.453 128.392L197.133 128.583C200.226 129.511 203.322 130.53 206.422 131.641L206.645 131.716L209.066 132.618L209.83 132.905L210.562 133.181C217.223 135.759 223.737 138.701 230.075 141.994C242.133 148.221 253.478 155.741 263.91 164.421C244.938 168.764 222.899 177.163 200.721 188.461C200.216 188.715 199.788 189.099 199.48 189.573C199.172 190.047 198.996 190.594 198.969 191.159C198.884 192.528 198.789 195.289 198.715 197.53C198.704 197.844 198.776 198.156 198.924 198.433C199.072 198.711 199.29 198.945 199.557 199.111C199.824 199.278 200.129 199.372 200.444 199.383C200.758 199.394 201.07 199.323 201.347 199.176C223.291 187.644 245.204 179 263.984 174.477C265.68 174.064 267.163 173.036 268.143 171.592C269.124 170.148 269.534 168.391 269.292 166.661C268.945 164.155 268.556 161.678 268.124 159.228C267.581 156.193 265.917 153.472 263.464 151.604C254.365 144.696 244.69 138.582 234.545 133.33C227.654 129.745 220.565 126.554 213.312 123.773C212.953 123.637 212.627 123.425 212.357 123.152C212.088 122.879 211.88 122.55 211.749 122.189C211.618 121.828 211.566 121.443 211.598 121.06C211.63 120.678 211.744 120.306 211.932 119.972C219.268 106.836 227.995 99.4883 236.498 99.4883H236.764C246.796 99.6688 256.797 110.107 264.196 128.158C268.213 138.171 271.139 148.588 272.923 159.228C273.772 164.113 274.452 169.157 274.961 174.328L274.823 174.413L275.004 174.594C275.871 183.553 276.226 192.554 276.065 201.554C275.959 207.394 275.651 213.15 275.152 218.788C260.086 230.714 243.931 241.195 226.901 250.092C220.913 253.277 214.915 256.219 208.991 258.948L208.715 259.075L207.346 259.691C202.434 261.921 197.579 263.974 192.78 265.85L191.973 266.158L190.912 266.55L188.512 267.464L187.854 267.708L184.956 268.77L184.605 268.908C175.175 272.348 165.497 275.067 155.655 277.042C134.093 281.172 124.007 277.987 121.64 273.633ZM151.313 231.594C161.75 223.199 172.773 215.559 184.298 208.732C184.481 223.648 186.163 238.507 189.319 253.086C184.775 251.139 180.249 249.016 175.741 246.715C167.231 242.293 159.066 237.239 151.313 231.594ZM213.949 307.474C209.316 308.071 204.649 308.369 199.978 308.366C179.253 308.424 158.953 302.487 141.524 291.271C141.265 291.103 141.066 290.858 140.955 290.57C140.844 290.282 140.828 289.967 140.908 289.669C140.989 289.371 141.162 289.106 141.402 288.913C141.643 288.72 141.938 288.609 142.246 288.595H143.064C147.898 288.247 152.706 287.598 157.459 286.651C169.866 284.125 182.031 280.533 193.82 275.916C194.379 275.709 194.995 275.728 195.54 275.968C196.085 276.207 196.515 276.65 196.74 277.201C201.751 289.391 207.908 298.597 214.788 304.459C215.036 304.675 215.218 304.957 215.312 305.272C215.406 305.588 215.407 305.924 215.317 306.24C215.227 306.557 215.048 306.841 214.802 307.06C214.556 307.278 214.253 307.422 213.928 307.474H213.949ZM259.727 278.56C251.987 293.766 242.475 302.303 233.25 302.133C223.217 301.953 213.217 291.515 205.806 273.463C205.583 272.91 205.584 272.292 205.81 271.741C206.037 271.189 206.469 270.748 207.017 270.511L207.25 270.416C207.735 270.201 208.28 270.163 208.79 270.309C221.906 274.103 235.478 276.093 249.132 276.224C250.522 276.224 251.903 276.224 253.261 276.15C254.865 276.097 256.446 276.012 257.996 275.884C258.316 275.874 258.633 275.947 258.917 276.097C259.2 276.246 259.439 276.466 259.611 276.736C259.784 277.006 259.883 277.316 259.9 277.636C259.916 277.955 259.849 278.274 259.706 278.56H259.727ZM263.082 265.478C259.707 265.967 256.308 266.268 252.9 266.381C243.758 266.635 234.614 265.906 225.627 264.204C225.376 264.157 225.145 264.031 224.969 263.846C224.792 263.661 224.678 263.425 224.643 263.172C224.608 262.918 224.653 262.66 224.772 262.434C224.892 262.207 225.079 262.024 225.309 261.91C227.358 260.848 229.417 259.786 231.466 258.725C245.237 251.468 258.486 243.261 271.118 234.164C271.314 234.021 271.548 233.941 271.79 233.932C272.033 233.923 272.272 233.986 272.478 234.113C272.684 234.241 272.847 234.427 272.947 234.648C273.048 234.868 273.08 235.114 273.04 235.353C271.523 244.666 269.258 253.842 266.266 262.791C266.034 263.489 265.614 264.109 265.052 264.583C264.49 265.057 263.808 265.367 263.082 265.478ZM279.006 274.068C278.189 274.939 277.361 275.799 276.511 276.649C275.032 278.128 273.521 279.544 271.978 280.896C271.772 281.082 271.509 281.191 271.232 281.205C270.955 281.218 270.682 281.135 270.459 280.97C270.236 280.805 270.078 280.567 270.01 280.298C269.942 280.029 269.97 279.745 270.088 279.494L270.555 278.433C271.207 277.017 271.833 275.551 272.435 274.037C272.508 273.864 272.62 273.71 272.762 273.587C272.903 273.464 273.071 273.374 273.252 273.325C274.791 272.943 276.288 272.507 277.743 272.04C278.01 271.906 278.318 271.877 278.606 271.958C278.893 272.039 279.141 272.224 279.299 272.478C279.457 272.732 279.515 273.036 279.46 273.33C279.406 273.624 279.244 273.887 279.006 274.068ZM300.77 239.717C300.249 241.045 299.708 242.351 299.124 243.657C299.039 243.837 298.954 244.018 298.859 244.198C295.292 251.069 289.304 256.484 281.299 260.254C280.899 260.434 280.456 260.497 280.021 260.435C279.587 260.374 279.179 260.189 278.845 259.904C278.511 259.62 278.265 259.245 278.136 258.826C278.006 258.406 277.999 257.959 278.114 257.535C280.878 247.483 282.872 237.235 284.081 226.879C284.329 224.862 285.321 223.011 286.862 221.687C290.153 218.831 293.232 215.985 296.056 213.192C296.372 212.873 296.765 212.642 297.198 212.52C297.63 212.398 298.086 212.39 298.522 212.497C298.958 212.604 299.359 212.822 299.686 213.13C300.013 213.438 300.255 213.825 300.387 214.254C303.18 223.513 303.339 232.167 300.78 239.717H300.77ZM302.893 188.982C302.706 189.313 302.438 189.591 302.112 189.788C301.787 189.986 301.416 190.095 301.036 190.107C300.656 190.119 300.279 190.032 299.942 189.855C299.605 189.679 299.32 189.418 299.113 189.098L298.699 188.451C295.355 183.335 291.647 178.466 287.605 173.882C287.38 173.621 287.234 173.3 287.186 172.959C287.137 172.617 287.187 172.269 287.33 171.955C287.473 171.641 287.703 171.375 287.992 171.187C288.282 171 288.619 170.9 288.964 170.898C298.668 170.898 303.753 173.298 305.303 176.208C306.683 178.671 306.29 182.95 302.946 188.96L302.893 188.982ZM308.127 203.296C308.122 203.451 308.065 203.6 307.964 203.718C307.863 203.836 307.725 203.916 307.572 203.945C307.42 203.974 307.262 203.949 307.125 203.875C306.988 203.801 306.881 203.683 306.821 203.54C306.704 203.253 306.577 202.956 306.449 202.669C306.333 202.406 306.289 202.118 306.32 201.832C306.352 201.547 306.459 201.275 306.63 201.044L307.023 200.524C307.5 199.908 308.18 200.004 308.18 200.683C308.233 201.586 308.212 202.372 308.18 203.296H308.127Z" fill="white"/>
</g>
</g>
<defs>
<clipPath id="clip0_226_639">
<rect width="400" height="400" fill="white"/>
</clipPath>
<clipPath id="clip1_226_639">
<rect width="400" height="400" fill="white"/>
</clipPath>
</defs>
</svg>
