<svg width="400" height="400" viewBox="0 0 400 400" fill="none" xmlns="http://www.w3.org/2000/svg">
<g clip-path="url(#clip0_221_3)">
<circle cx="200" cy="200" r="200" fill="#140F34"/>
<path d="M320.118 113.841C317.426 103.453 308.766 93.0654 293.173 81.5008C280.665 72.2894 267.383 67 256.794 67C254.674 67 252.755 67.1908 250.826 67.583C246.014 68.5582 241.784 72.088 239.081 77.388C235.806 83.6632 235.043 92.0902 237.152 97.1888C237.926 98.7576 238.88 100.719 240.035 102.478C229.838 108.753 224.061 110.513 223.287 110.714C249.851 119.735 271.984 138.55 285.848 163.047L286.039 160.693C286.611 154.227 288.541 146.776 291.233 139.133C293.925 139.917 296.618 140.31 299.321 140.31C306.444 140.31 312.603 137.373 316.451 132.073C320.32 126.784 321.856 119.724 320.118 113.841Z" fill="#602F92"/>
<path d="M292.409 133.451C309.921 138.348 317.044 124.632 314.733 115.42C312.231 106.209 304.144 96.7963 289.908 86.2175C275.661 75.6281 261.224 71.3245 251.992 73.2855C242.748 75.2465 240.056 89.5565 242.367 95.0473C243.331 97.1991 245.451 100.337 248.335 103.866C244.678 106.41 241.211 108.372 238.328 110.142C256.041 118.177 271.432 130.727 282.986 146.404C284.332 141.115 286.261 136.408 287.989 132.296C289.325 132.465 290.862 132.858 292.409 133.451Z" fill="url(#paint0_radial_221_3)"/>
<path d="M192.123 325.534C251.547 325.534 299.724 276.477 299.724 215.962C299.724 155.447 251.547 106.4 192.123 106.4C132.699 106.4 84.5225 155.457 84.5225 215.973C84.5225 276.488 132.699 325.534 192.123 325.534Z" fill="url(#paint1_radial_221_3)"/>
<path opacity="0.6" d="M305.882 106.401C291.254 90.7233 278.937 86.5999 264.118 83.2715C252.564 80.5261 255.649 73.8587 269.704 75.2367C262.963 72.8835 256.613 72.3005 251.992 73.2757C242.748 75.2367 240.056 89.5467 242.367 95.0375C243.331 97.1893 245.451 100.327 248.335 103.857C243.141 107.386 238.71 109.93 235.053 111.891C236.781 112.676 238.901 113.651 241.402 115.029C247.942 118.559 255.066 124.442 255.066 124.442C244.285 115.029 246.596 110.725 261.415 100.136C266.037 96.8077 274.506 97.1999 282.392 101.313C290.279 105.425 299.522 115.813 299.522 115.813L290.671 133.06C291.243 133.261 291.826 133.452 292.399 133.653C297.985 135.222 302.405 134.83 305.871 133.452C309.921 130.897 320.51 122.269 305.882 106.401Z" fill="#A98798"/>
<path d="M263.916 92.6729C267.764 94.2417 272.767 96.9871 278.926 101.1C286.24 105.997 292.589 111.488 296.639 115.802C289.897 124.823 285.477 137.172 282.784 145.79C284.131 147.751 285.668 149.712 287.024 151.673C288.371 146.775 290.681 139.514 293.766 132.264C294.54 132.465 295.494 132.465 296.458 132.465C298.769 132.465 301.462 132.073 303.582 130.313C305.119 129.137 306.857 126.985 306.666 123.063C306.666 119.343 303.783 114.636 297.815 108.954C293.575 104.842 287.809 100.326 282.032 96.2133C265.475 85.0409 253.931 81.9033 248.737 87.1927C245.271 90.7225 245.653 95.0367 246.808 98.1743C240.649 102.287 235.455 105.234 231.989 107.195C234.3 107.979 236.42 108.955 238.731 109.94C244.858 106.591 253.719 100.909 263.916 92.6729ZM300.296 120.71C300.868 121.685 301.069 122.671 301.069 123.254C301.069 125.014 300.497 125.607 300.105 125.999C299.331 126.582 297.794 126.974 296.448 126.974C297.603 124.621 298.949 122.66 300.296 120.71ZM252.755 91.4963C253.327 90.9133 254.875 90.5211 257.376 90.9133C255.447 92.4821 253.528 93.8495 251.599 95.2275C251.408 93.8495 251.599 92.4821 252.755 91.4963Z" fill="#602F92"/>
<path d="M192.123 99.9238C129.18 99.9238 78.1729 151.864 78.1729 215.962C78.1729 280.06 129.18 332 192.123 332C255.066 332 306.073 280.06 306.073 215.962C306.073 151.874 254.875 99.9238 192.123 99.9238ZM192.123 325.534C132.646 325.534 84.5223 276.53 84.5223 215.962C84.5223 155.394 132.646 106.39 192.123 106.39C251.599 106.39 299.723 155.394 299.723 215.962C299.713 276.53 251.409 325.534 192.123 325.534Z" fill="#602F92"/>
<path opacity="0.6" d="M192.123 325.534C251.547 325.534 299.724 276.477 299.724 215.962C299.724 155.447 251.547 106.4 192.123 106.4C132.699 106.4 84.5225 155.457 84.5225 215.973C84.5225 276.488 132.699 325.534 192.123 325.534Z" fill="url(#paint2_linear_221_3)"/>
<path opacity="0.6" d="M191.349 312.199C132.646 302.595 92.8004 246.341 102.425 186.557C106.665 160.099 119.746 137.553 138.232 121.282C111.276 137.172 91.2634 164.806 85.868 198.524C76.434 258.308 116.279 314.563 174.791 324.166C207.514 329.657 239.08 319.269 262.369 298.885C241.783 311.022 216.757 316.322 191.349 312.199Z" fill="#A98798"/>
<path opacity="0.6" d="M209.253 107.969C182.117 103.464 155.744 109.728 134.184 123.646C133.802 124.038 133.41 124.43 133.41 124.43C141.688 119.332 153.815 114.827 153.815 114.827C122.63 133.25 113.005 154.227 113.005 154.227C125.131 130.313 160.737 113.459 188.646 112.283C216.556 111.106 234.841 119.533 257.165 137.765C279.488 156.188 292.972 193.818 291.615 223.615C290.459 253.411 275.058 277.516 275.058 277.516C285.647 263.598 291.996 253.411 296.035 243.023C296.809 239.886 297.572 236.748 297.964 233.42C307.61 173.826 267.956 117.572 209.253 107.969Z" fill="url(#paint3_linear_221_3)"/>
<path d="M294.328 214.986C294.328 272.417 248.515 319.068 192.123 319.068C135.731 319.068 89.7266 272.417 89.7266 214.986H294.328Z" fill="url(#paint4_linear_221_3)"/>
<g opacity="0.6">
<path opacity="0.6" d="M286.24 214.986C286.24 271.039 242.737 316.905 188.073 319.068C189.419 319.068 190.766 319.068 192.112 319.068C248.504 319.068 294.317 272.417 294.317 214.986H286.24Z" fill="url(#paint5_linear_221_3)"/>
</g>
<g opacity="0.7">
<path opacity="0.7" d="M104.164 214.986H89.7266C89.7266 272.417 135.54 319.068 191.932 319.068C194.433 319.068 196.744 319.068 199.055 318.866C146.119 314.944 104.164 269.863 104.164 214.986Z" fill="url(#paint6_linear_221_3)"/>
</g>
<path d="M294.137 215.962C294.137 204.005 273.732 197.147 246.596 194.794C226.965 193.225 207.143 195.186 184.427 202.246C164.796 208.129 147.083 207.143 134.194 205.574C105.51 202.246 89.7266 201.854 89.7266 215.962C89.7266 236.346 130.537 261.828 191.741 253.009C222.735 248.504 238.71 239.293 256.995 233.018C276.817 226.35 294.137 226.552 294.137 215.962Z" fill="url(#paint7_linear_221_3)"/>
<path d="M225.608 166.566C235.18 166.566 242.929 158.669 242.929 148.927C242.929 139.186 235.17 131.289 225.608 131.289C216.047 131.289 208.288 139.186 208.288 148.927C208.288 158.669 216.047 166.566 225.608 166.566Z" fill="white"/>
<path d="M253.911 179.699C257.949 179.699 261.225 176.361 261.225 172.248C261.225 168.135 257.949 164.796 253.911 164.796C249.872 164.796 246.597 168.135 246.597 172.248C246.597 176.371 249.872 179.699 253.911 179.699Z" fill="white"/>
<g opacity="0.6">
<path opacity="0.6" d="M280.082 134.819C279.891 134.819 279.7 134.819 279.7 134.819C278.545 134.618 277.771 133.452 277.972 132.074C279.7 123.053 287.014 114.435 287.406 114.043C288.18 113.068 289.717 113.068 290.491 113.842C291.455 114.626 291.456 116.195 290.682 116.979C290.491 117.17 283.749 125.215 282.212 133.049C282.011 134.225 281.046 134.819 280.082 134.819Z" fill="url(#paint8_linear_221_3)"/>
</g>
<path opacity="0.2" d="M185.01 297.698C187.988 297.698 190.395 295.239 190.395 292.208C190.395 289.176 187.978 286.717 185.01 286.717C182.031 286.717 179.625 289.176 179.625 292.208C179.625 295.239 182.031 297.698 185.01 297.698Z" fill="white"/>
<g opacity="0.4">
<path opacity="0.6" d="M181.925 295.748C179.805 293.596 179.805 290.066 181.925 287.904C182.307 287.512 182.699 287.321 183.081 286.929C182.307 287.13 181.735 287.512 181.152 288.105C179.032 290.257 179.032 293.787 181.152 295.949C182.879 297.709 185.582 298.101 187.692 296.925C185.773 297.709 183.462 297.317 181.925 295.748Z" fill="url(#paint9_linear_221_3)"/>
</g>
<path opacity="0.3" d="M186.929 290.638C187.565 290.638 188.084 290.108 188.084 289.462C188.084 288.815 187.565 288.285 186.929 288.285C186.293 288.285 185.773 288.815 185.773 289.462C185.773 290.119 186.282 290.638 186.929 290.638Z" fill="white"/>
<path opacity="0.2" d="M213.11 294.953C216.089 294.953 218.495 292.494 218.495 289.462C218.495 286.431 216.078 283.972 213.11 283.972C210.132 283.972 207.726 286.431 207.726 289.462C207.726 292.494 210.142 294.953 213.11 294.953Z" fill="white"/>
<g opacity="0.4">
<path opacity="0.6" d="M210.026 293.003C207.906 290.851 207.906 287.321 210.026 285.159C210.408 284.767 210.8 284.576 211.181 284.184C210.408 284.385 209.835 284.767 209.252 285.36C207.132 287.512 207.132 291.042 209.252 293.204C210.98 294.964 213.683 295.356 215.792 294.179C213.874 294.964 211.563 294.572 210.026 293.003Z" fill="url(#paint10_linear_221_3)"/>
</g>
<path opacity="0.3" d="M215.029 287.904C215.665 287.904 216.185 287.374 216.185 286.727C216.185 286.081 215.665 285.551 215.029 285.551C214.393 285.551 213.874 286.081 213.874 286.727C213.874 287.374 214.393 287.904 215.029 287.904Z" fill="white"/>
<path opacity="0.2" d="M199.246 307.694C201.482 307.694 203.284 305.85 203.284 303.582C203.284 301.313 201.472 299.469 199.246 299.469C197.009 299.469 195.207 301.313 195.207 303.582C195.207 305.85 197.009 307.694 199.246 307.694Z" fill="white"/>
<g opacity="0.4">
<path opacity="0.6" d="M196.935 306.136C195.398 304.567 195.398 301.822 196.935 300.253C197.126 300.051 197.508 299.861 197.709 299.659C197.137 299.861 196.744 300.253 196.363 300.634C194.826 302.203 194.826 304.949 196.363 306.517C197.709 307.885 199.638 308.086 201.366 307.111C199.818 307.705 198.091 307.312 196.935 306.136Z" fill="url(#paint11_linear_221_3)"/>
</g>
<path opacity="0.3" d="M200.592 302.204C201.016 302.204 201.366 301.854 201.366 301.419C201.366 300.985 201.016 300.635 200.592 300.635C200.168 300.635 199.818 300.985 199.818 301.419C199.818 301.854 200.168 302.204 200.592 302.204Z" fill="white"/>
<path opacity="0.2" d="M224.071 304.758C226.307 304.758 228.109 302.913 228.109 300.645C228.109 298.377 226.297 296.532 224.071 296.532C221.845 296.532 220.032 298.377 220.032 300.645C220.032 302.913 221.845 304.758 224.071 304.758Z" fill="white"/>
<g opacity="0.4">
<path opacity="0.6" d="M221.771 303.19C220.234 301.621 220.234 298.875 221.771 297.307C221.962 297.105 222.343 296.914 222.545 296.724C221.972 296.925 221.58 297.307 221.199 297.699C219.662 299.268 219.662 302.013 221.199 303.582C222.545 304.949 224.474 305.151 226.202 304.165C224.654 304.758 222.926 304.366 221.771 303.19Z" fill="url(#paint12_linear_221_3)"/>
</g>
<path opacity="0.3" d="M225.417 299.267C225.841 299.267 226.191 298.917 226.191 298.483C226.191 298.048 225.841 297.698 225.417 297.698C224.993 297.698 224.644 298.048 224.644 298.483C224.654 298.917 224.993 299.267 225.417 299.267Z" fill="white"/>
<path opacity="0.2" d="M162.093 295.737C166.98 295.737 170.944 291.699 170.944 286.717C170.944 281.735 166.98 277.696 162.093 277.696C157.207 277.696 153.242 281.735 153.242 286.717C153.242 291.699 157.207 295.737 162.093 295.737Z" fill="white"/>
<g opacity="0.4">
<path opacity="0.6" d="M157.101 292.409C153.635 288.88 153.635 283.198 157.101 279.668C157.673 279.085 158.256 278.693 159.03 278.301C157.875 278.693 156.91 279.477 155.945 280.262C152.479 283.792 152.479 289.473 155.945 293.003C158.829 295.939 163.259 296.533 166.726 294.37C163.45 295.738 159.602 295.155 157.101 292.409Z" fill="url(#paint13_linear_221_3)"/>
</g>
<path opacity="0.3" d="M165.177 283.982C166.237 283.982 167.106 283.102 167.106 282.021C167.106 280.939 166.248 280.06 165.177 280.06C164.117 280.06 163.248 280.939 163.248 282.021C163.248 283.102 164.107 283.982 165.177 283.982Z" fill="white"/>
<path opacity="0.2" d="M241.211 273.594C246.098 273.594 250.062 269.555 250.062 264.573C250.062 259.591 246.098 255.553 241.211 255.553C236.325 255.553 232.36 259.591 232.36 264.573C232.36 269.555 236.314 273.594 241.211 273.594Z" fill="white"/>
<g opacity="0.4">
<path opacity="0.6" d="M236.007 270.255C232.541 266.725 232.541 261.044 236.007 257.514C236.579 256.92 237.162 256.539 237.936 256.146C236.781 256.539 235.816 257.323 234.852 258.107C231.385 261.637 231.385 267.319 234.852 270.849C237.735 273.785 242.166 274.378 245.632 272.216C242.356 273.594 238.699 273 236.007 270.255Z" fill="url(#paint14_linear_221_3)"/>
</g>
<path opacity="0.3" d="M244.286 261.828C245.346 261.828 246.215 260.948 246.215 259.867C246.215 258.786 245.356 257.906 244.286 257.906C243.226 257.906 242.356 258.786 242.356 259.867C242.356 260.948 243.215 261.828 244.286 261.828Z" fill="white"/>
</g>
<defs>
<radialGradient id="paint0_radial_221_3" cx="0" cy="0" r="1" gradientUnits="userSpaceOnUse" gradientTransform="translate(311.224 103.07) scale(86.0283 87.6038)">
<stop stop-color="#FBEAF3" stop-opacity="0.6"/>
<stop offset="0.6807" stop-color="#A087BF"/>
<stop offset="1" stop-color="#17102E"/>
</radialGradient>
<radialGradient id="paint1_radial_221_3" cx="0" cy="0" r="1" gradientUnits="userSpaceOnUse" gradientTransform="translate(263.363 140.419) scale(210.48 214.335)">
<stop stop-color="#FBEAF3" stop-opacity="0.6"/>
<stop offset="0.6807" stop-color="#A087BF"/>
<stop offset="1" stop-color="#17102E"/>
</radialGradient>
<linearGradient id="paint2_linear_221_3" x1="174.284" y1="324.034" x2="209.96" y2="107.895" gradientUnits="userSpaceOnUse">
<stop stop-color="#9AD9E5"/>
<stop offset="0.6202" stop-color="white" stop-opacity="0"/>
</linearGradient>
<linearGradient id="paint3_linear_221_3" x1="268.93" y1="142.643" x2="178.484" y2="224.137" gradientUnits="userSpaceOnUse">
<stop offset="0.2888" stop-color="white"/>
<stop offset="0.7796" stop-color="white" stop-opacity="0"/>
</linearGradient>
<linearGradient id="paint4_linear_221_3" x1="89.7228" y1="267.023" x2="294.329" y2="267.023" gradientUnits="userSpaceOnUse">
<stop stop-color="#384EA2"/>
<stop offset="0.9952" stop-color="#D54799"/>
</linearGradient>
<linearGradient id="paint5_linear_221_3" x1="304.527" y1="224.731" x2="191.331" y2="329.783" gradientUnits="userSpaceOnUse">
<stop offset="0.2888" stop-color="white"/>
<stop offset="0.7796" stop-color="white" stop-opacity="0"/>
</linearGradient>
<linearGradient id="paint6_linear_221_3" x1="89.7228" y1="267.023" x2="199.052" y2="267.023" gradientUnits="userSpaceOnUse">
<stop stop-color="#2B2F82"/>
<stop offset="0.9952" stop-color="#72439A"/>
</linearGradient>
<linearGradient id="paint7_linear_221_3" x1="89.9466" y1="224.547" x2="294.142" y2="224.547" gradientUnits="userSpaceOnUse">
<stop stop-color="#2B2F82"/>
<stop offset="0.9952" stop-color="#A14298"/>
</linearGradient>
<linearGradient id="paint8_linear_221_3" x1="291.061" y1="113.255" x2="275.995" y2="137.296" gradientUnits="userSpaceOnUse">
<stop offset="0.2888" stop-color="white"/>
<stop offset="0.7796" stop-color="white" stop-opacity="0"/>
</linearGradient>
<linearGradient id="paint9_linear_221_3" x1="179.563" y1="292.259" x2="187.706" y2="292.259" gradientUnits="userSpaceOnUse">
<stop offset="0.2888" stop-color="white"/>
<stop offset="0.7796" stop-color="white" stop-opacity="0"/>
</linearGradient>
<linearGradient id="paint10_linear_221_3" x1="207.64" y1="289.514" x2="215.783" y2="289.514" gradientUnits="userSpaceOnUse">
<stop offset="0.2888" stop-color="white"/>
<stop offset="0.7796" stop-color="white" stop-opacity="0"/>
</linearGradient>
<linearGradient id="paint11_linear_221_3" x1="195.177" y1="303.694" x2="201.291" y2="303.694" gradientUnits="userSpaceOnUse">
<stop offset="0.2888" stop-color="white"/>
<stop offset="0.7796" stop-color="white" stop-opacity="0"/>
</linearGradient>
<linearGradient id="paint12_linear_221_3" x1="219.926" y1="300.755" x2="226.039" y2="300.755" gradientUnits="userSpaceOnUse">
<stop offset="0.2888" stop-color="white"/>
<stop offset="0.7796" stop-color="white" stop-opacity="0"/>
</linearGradient>
<linearGradient id="paint13_linear_221_3" x1="153.255" y1="286.98" x2="166.553" y2="286.98" gradientUnits="userSpaceOnUse">
<stop offset="0.2888" stop-color="white"/>
<stop offset="0.7796" stop-color="white" stop-opacity="0"/>
</linearGradient>
<linearGradient id="paint14_linear_221_3" x1="232.239" y1="264.83" x2="245.539" y2="264.83" gradientUnits="userSpaceOnUse">
<stop offset="0.2888" stop-color="white"/>
<stop offset="0.7796" stop-color="white" stop-opacity="0"/>
</linearGradient>
<clipPath id="clip0_221_3">
<rect width="400" height="400" fill="white"/>
</clipPath>
</defs>
</svg>
