<svg width="400" height="400" viewBox="0 0 400 400" fill="none" xmlns="http://www.w3.org/2000/svg">
<g clip-path="url(#clip0_222_413)">
<g clip-path="url(#clip1_222_413)">
<path d="M400 200C400 89.543 310.457 0 200 0C89.543 0 0 89.543 0 200C0 310.457 89.543 400 200 400C310.457 400 400 310.457 400 200Z" fill="#E6007A"/>
<path d="M288.644 261.157C267.439 261.157 250.281 243.967 250.281 222.794V165.346H299.761V131.93H250.281V76.667L212.367 96.9088V131.93H140.461C90.3379 131.93 77.1645 192.335 115.721 214.825L154.919 241.172C163.594 247.599 160.06 261.094 147.851 261.094H94.5147V294.829H147.851C198.294 294.829 211.147 234.425 172.591 211.934L133.713 185.587C125.038 179.162 128.251 165.346 140.461 165.346H212.367V223.244C212.367 266.94 242.569 294.862 288.194 294.862H299.761V261.157H288.644Z" fill="white"/>
</g>
</g>
<defs>
<clipPath id="clip0_222_413">
<rect width="400" height="400" fill="white"/>
</clipPath>
<clipPath id="clip1_222_413">
<rect width="400" height="400" fill="white"/>
</clipPath>
</defs>
</svg>
