<svg width="400" height="400" viewBox="0 0 400 400" fill="none" xmlns="http://www.w3.org/2000/svg">
<g clip-path="url(#clip0_222_211)">
<circle cx="200" cy="200" r="200" fill="#020206"/>
<path fill-rule="evenodd" clip-rule="evenodd" d="M246.832 237.42C246.832 278.941 213.172 312.601 171.651 312.601C130.13 312.601 96.4707 278.941 96.4707 237.42H133.294C133.294 258.18 150.891 275.01 171.651 275.01C192.412 275.01 210.009 258.18 210.009 237.42H246.832Z" fill="white"/>
<path d="M266.553 217.701H303.527V180.727H266.553V217.701Z" fill="white"/>
<path d="M246.83 180.727H209.855V217.701H246.83V180.727Z" fill="white"/>
<path d="M153.168 217.701H190.143V180.727H153.168V217.701Z" fill="white"/>
<path d="M133.445 180.727H96.4707V217.701H133.445V180.727Z" fill="white"/>
<path fill-rule="evenodd" clip-rule="evenodd" d="M153.166 162.239C153.166 120.718 186.826 87.0586 228.347 87.0586C269.868 87.0586 303.527 120.718 303.527 162.239H266.704C266.704 141.479 249.107 124.649 228.347 124.649C207.586 124.649 189.989 141.479 189.989 162.239H153.166Z" fill="white"/>
</g>
<defs>
<clipPath id="clip0_222_211">
<rect width="400" height="400" fill="white"/>
</clipPath>
</defs>
</svg>
