<svg xmlns="http://www.w3.org/2000/svg" width="1920" height="1080" fill="none">
  <g fill="#000" clip-path="url(#a)">
    <path
      d="M148 20H0v1041h148V20ZM697 681h-76c-157 0-285-119-285-266V20h437c157 0 284 119 284 267v103H910V287c0-71-62-129-137-129H484v257c0 70 61 128 137 128h76v138Zm375 112V669c0-147-128-266-285-266h-90v138h90c76 0 137 57 137 128v124c0 71-61 129-137 129H484V690H336v370h451c157 0 285-119 285-267ZM1574 1080h-24c-191 0-346-145-346-324V324c0-179 155-324 346-324h24c191 0 346 145 346 324h-148c0-102-88-186-198-186h-24c-109 0-198 84-198 186v432c0 102 89 186 198 186h24c110 0 198-84 198-186h148c0 179-155 324-346 324Z" />
    <path
      d="M1574 1080h-24c-191 0-346-145-346-324V324c0-179 155-324 346-324h24c191 0 346 145 346 324h-148c0-102-88-186-198-186h-24c-109 0-198 84-198 186v432c0 102 89 186 198 186h24c110 0 198-84 198-186h148c0 179-155 324-346 324Z" />
  </g>
  <defs>
    <clipPath id="a">
      <path fill="#fff" d="M0 0h1920v1080H0z" />
    </clipPath>
  </defs>
</svg>
