<svg xmlns="http://www.w3.org/2000/svg" class="fill_none" viewBox="0 0 90 54" style="background-color:#026AFF;padding:1.75rem 2.75rem;">
  <path fill="currentColor"
    d="M6.91 1H0v52.06h6.91V1Zm25.75 33.07H29.1a13.35 13.35 0 0 1-13.34-13.34V1h20.46c7.36 0 13.34 5.98 13.34 13.34v5.16h-6.92v-5.16a6.43 6.43 0 0 0-6.42-6.43H22.67v12.83a6.43 6.43 0 0 0 6.43 6.42h3.56v6.92Zm17.59 5.6v-6.2c0-7.36-5.98-13.34-13.34-13.34h-4.25v6.91h4.25a6.43 6.43 0 0 1 6.42 6.42v6.21a6.43 6.43 0 0 1-6.42 6.43H22.67V34.52h-6.91v18.5H36.9c7.36 0 13.34-6 13.34-13.35ZM73.8 54h-1.15c-8.94 0-16.2-7.27-16.2-16.2V16.2A16.2 16.2 0 0 1 72.64 0h1.15C82.73 0 90 7.27 90 16.2h-6.91a9.3 9.3 0 0 0-9.29-9.3h-1.15a9.3 9.3 0 0 0-9.28 9.29v21.6a9.3 9.3 0 0 0 9.28 9.28h1.15a9.3 9.3 0 0 0 9.29-9.28H90C90 46.73 82.73 54 73.8 54Z" />
</svg>
