<svg xmlns="http://www.w3.org/2000/svg" fill="none" viewBox="0 0 32 32">
  <path fill="currentColor" clip-rule="evenodd" fill-rule="evenodd"
    d="M15.65 3.64v.001L6.051 8.44l10.198 5.1 10.198-5.1-9.597-4.799h-.001a1.35 1.35 0 0 0-1.2 0ZM28 10.46l-10.5 5.25v12.81l9.748-4.873.003-.002A1.35 1.35 0 0 0 28 22.437V10.459ZM15 28.526V15.709L4.5 10.46v11.974a1.35 1.35 0 0 0 .74 1.215h.003L15 28.527Zm-.48 2.555-10.399-5.2-.003-.001A3.85 3.85 0 0 1 2 22.42V10.049a3.852 3.852 0 0 1 2.135-3.446h.002l10.397-5.2h.003a3.85 3.85 0 0 1 3.426 0h.003l10.397 5.2h.002a3.85 3.85 0 0 1 2.135 3.445v12.39a3.853 3.853 0 0 1-2.135 3.445l-.002.001-10.397 5.198a3.852 3.852 0 0 1-3.445 0Z" />
</svg>
