<svg xmlns="http://www.w3.org/2000/svg" width="32" height="32" viewBox="0 0 24 24" data-chain-icon="osmosis">
  <g fill="none">
    <path fill="url(#a)"
      d="M12.72 7.26a5.37 5.37 0 0 0-3.85.81l-.04.05c.43-.27 1.04-.5 1.04-.5-1.6.95-2.09 2.04-2.09 2.04.62-1.24 2.45-2.11 3.88-2.17s2.36.37 3.51 1.31c1.14.96 1.83 2.9 1.76 4.45-.06 1.54-.85 2.79-.85 2.79a7.4 7.4 0 0 0 1.08-1.79 5.62 5.62 0 0 0-4.44-6.99" />
    <path fill="#5E12A0"
      d="M18.4 7.57c-.15-.54-.59-1.08-1.39-1.67a3.34 3.34 0 0 0-1.86-.76c-.11 0-.21.01-.3.03a.9.9 0 0 0-.6.5c-.18.33-.21.77-.1 1.04.04.07.08.18.14.27-.52.32-.82.41-.85.43a5.88 5.88 0 0 1 3.2 2.7V10c.04-.33.13-.72.28-1.11.13.04.27.06.4.06.37 0 .69-.15.89-.43.2-.27.27-.64.18-.95z" />
    <path fill="url(#b)"
      d="M16.97 8.58c.9.26 1.27-.45 1.15-.93-.13-.48-.54-.96-1.28-1.51-.73-.55-1.46-.77-1.94-.67-.47.1-.6.84-.5 1.12.06.11.17.28.32.46l-.52.33a5.83 5.83 0 0 1 2.3 1.87 5 5 0 0 1 .25-.73 1 1 0 0 1 .22.06" />
    <path fill="url(#c)"
      d="M11.84 18.52a5.6 5.6 0 0 0 5.5-5.67c0-3.13-2.46-5.67-5.5-5.67s-5.51 2.54-5.51 5.67a5.6 5.6 0 0 0 5.5 5.67" />
    <path fill="#A98698"
      d="M17.66 7.18a3.64 3.64 0 0 0-2.14-1.2c-.59-.14-.43-.48.29-.41a1.76 1.76 0 0 0-.9-.1c-.48.1-.62.84-.5 1.12.05.11.16.28.3.46a8 8 0 0 1-.68.42c.37.16.72.38 1.03.64-.55-.48-.43-.7.33-1.25.23-.17.66-.16 1.07.06.4.21.88.75.88.75l-.45.9.08.02c.29.08.52.06.7-.01.2-.13.74-.58 0-1.4" />
    <path fill="#5E12A0"
      d="M15.51 6.47c.63.3 1.2.7 1.68 1.2a5.4 5.4 0 0 0-.71 1.55l.21.3c.08-.25.2-.62.35-1l.14.01a.54.54 0 0 0 .37-.11.42.42 0 0 0 .15-.38q0-.29-.45-.72a7 7 0 0 0-.81-.66c-.85-.58-1.44-.75-1.7-.48-.18.19-.16.41-.1.57-.32.22-.59.37-.76.48.12.03.22.08.34.13a9 9 0 0 0 1.3-.89m1.86 1.45c.03.05.04.1.04.13 0 .1-.03.13-.05.14a.34.34 0 0 1-.19.06c.06-.12.13-.23.2-.33m-2.44-1.5c.03-.04.11-.06.24-.04l-.3.22c0-.07 0-.14.06-.19" />
    <path fill="url(#d)" d="M11.84 18.52a5.6 5.6 0 0 0 5.5-5.67 5.5 5.5 0 1 0-11.01 0 5.6 5.6 0 0 0 5.5 5.67" />
    <path fill="#A98698"
      d="M11.8 17.83a5.64 5.64 0 0 1-4.56-6.5 5.65 5.65 0 0 1 1.84-3.38 5.66 5.66 0 0 0-2.69 4c-.48 3.1 1.56 6 4.56 6.5 1.67.29 3.3-.25 4.48-1.3a5.4 5.4 0 0 1-3.63.68" />
    <path fill="url(#e)" d="M16.93 12.8c0 2.97-2.3 5.39-5.14 5.39a5.28 5.28 0 0 1-5.15-5.39z" />
    <path fill="url(#f)" d="M16.52 12.8c0 2.9-2.18 5.27-4.93 5.39h.2a5.27 5.27 0 0 0 5.14-5.39z" />
    <path fill="url(#g)" d="M6.72 12.8c0 2.97 2.22 5.39 5.1 5.39l.37-.01a5.34 5.34 0 0 1-4.86-5.38z" />
    <path fill="url(#h)"
      d="M16.93 12.85c0-.62-1.03-.97-2.4-1.1a7.87 7.87 0 0 0-3.12.4c-.99.3-1.88.25-2.53.16-1.44-.17-2.24-.19-2.24.54 0 1.06 2.06 2.38 5.14 1.92 1.56-.23 2.36-.71 3.28-1.03 1-.35 1.87-.34 1.87-.89" />
    <path fill="#fff"
      d="M13.71 10.29a.86.86 0 1 0 0-1.72.86.86 0 0 0 0 1.72m1.29.85a.43.43 0 1 0 0-.85.43.43 0 0 0 0 .85" />
    <path fill="url(#i)"
      d="M16.34 8.65h-.02c-.06 0-.1-.07-.09-.14.1-.34.26-.66.48-.93.05-.05.12-.05.16-.01.05.04.05.12.02.16a2.1 2.1 0 0 0-.44.83.11.11 0 0 1-.1.09z" />
    <path fill="#fff" d="M11.47 17.08a.28.28 0 0 0 .28-.28.28.28 0 0 0-.28-.29.28.28 0 0 0-.28.29c0 .15.13.28.28.28" />
    <path fill="#fff"
      d="M11.31 16.98a.3.3 0 0 1 0-.4l.06-.05a.2.2 0 0 0-.1.06.3.3 0 0 0 0 .4.28.28 0 0 0 .34.05.27.27 0 0 1-.3-.06zm.26-.27a.06.06 0 1 0-.06-.06c0 .04.03.07.06.07zm1.34.23c.15 0 .28-.13.28-.29a.28.28 0 0 0-.28-.28.29.29 0 0 0 0 .57" />
    <path fill="#fff"
      d="M12.75 16.84a.3.3 0 0 1 0-.4l.06-.06a.2.2 0 0 0-.1.06.3.3 0 0 0 0 .4.27.27 0 0 0 .34.06.27.27 0 0 1-.3-.06zm.26-.27c.03 0 .06-.02.06-.06a.06.06 0 0 0-.02-.04.06.06 0 0 0-.04-.02.06.06 0 0 0-.06.06c0 .04.03.06.06.06m-.8 1.03a.21.21 0 0 0 .2-.21.2.2 0 0 0-.2-.22.2.2 0 0 0-.16.07.2.2 0 0 0-.05.15c0 .11.09.21.2.21" />
    <path fill="url(#j)"
      d="M12.09 17.52a.23.23 0 0 1 0-.3c0-.02.02-.03.03-.03a.2.2 0 0 0-.07.04.23.23 0 0 0 0 .3.2.2 0 0 0 .26.04.21.21 0 0 1-.23-.05z" />
    <path fill="#fff" d="M13.47 17.45a.21.21 0 0 0 .21-.22.21.21 0 0 0-.2-.21.21.21 0 0 0-.22.21c0 .12.1.22.21.22" />
    <path fill="#fff"
      d="M13.35 17.37a.23.23 0 0 1 0-.3.2.2 0 0 1 .05-.04.2.2 0 0 0-.08.05.23.23 0 0 0 0 .3.2.2 0 0 0 .26.04.21.21 0 0 1-.23-.05m.2-.2a.04.04 0 0 0 .03-.05.04.04 0 0 0-.04-.04.04.04 0 0 0-.04.04c0 .03.02.04.04.04m-3.24-.18c.25 0 .45-.21.45-.47a.46.46 0 0 0-.45-.46.47.47 0 0 0-.46.47.46.46 0 0 0 .46.46" />
    <path fill="#fff"
      d="M10.04 16.8a.47.47 0 0 1 0-.65.4.4 0 0 1 .1-.07c-.06.02-.1.06-.16.1a.47.47 0 0 0 0 .66c.15.15.38.18.56.07a.43.43 0 0 1-.5-.1m.42-.44a.1.1 0 0 0 .1-.1.1.1 0 0 0-.1-.1.1.1 0 0 0-.1.1c0 .06.04.1.1.1m3.89-.53a.46.46 0 0 0 .45-.48.46.46 0 0 0-.45-.46.46.46 0 0 0-.45.47.46.46 0 0 0 .45.47" />
    <path fill="url(#k)"
      d="M14.08 15.66a.47.47 0 0 1 0-.66.4.4 0 0 1 .1-.07.5.5 0 0 0-.16.1.47.47 0 0 0 0 .66c.15.15.38.18.56.07a.43.43 0 0 1-.5-.1" />
    <path fill="#fff" d="M14.5 15.23a.1.1 0 0 0 .1-.1.1.1 0 0 0-.1-.1c-.05 0-.1.03-.1.1a.1.1 0 0 0 .1.1" />
    <path fill="#5E12A0"
      d="M11.84 6.86C8.6 6.86 6 9.54 6 12.86s2.61 6 5.84 6 5.73-2.69 5.73-6-2.52-6-5.73-6m0 11.57c-3.05 0-5.41-2.44-5.41-5.57s2.36-5.57 5.4-5.57c3.05 0 5.31 2.44 5.31 5.57 0 3.13-2.27 5.57-5.3 5.57" />
    <path fill="#fff"
      d="M17.27 5.55c.82.61 1.36 1.23 1.54 1.9.12.45 0 .95-.26 1.31a1.48 1.48 0 0 1-1.34.6l-.06.22c.56 1 .85 2.13.85 3.28 0 3.53-2.68 6.43-6.16 6.43-3.47 0-6.27-2.9-6.27-6.43s2.8-6.43 6.27-6.43c.65 0 1.27.1 1.86.3a1.93 1.93 0 0 1 .16-1.24 1.33 1.33 0 0 1 .9-.73c.13-.03.25-.04.39-.04.67 0 1.44.33 2.12.83zm-3.03.13c-.17.32-.2.76-.1 1.03l.15.27-.44.25a5.6 5.6 0 0 0-2.02-.37c-3.22 0-5.83 2.68-5.83 6s2.61 6 5.84 6 5.73-2.69 5.73-6a6.2 6.2 0 0 0-.87-3.2c.04-.25.12-.52.21-.78.14.04.28.06.42.06.36 0 .68-.15.88-.43.2-.27.27-.64.18-.95-.14-.53-.58-1.07-1.38-1.67a3.4 3.4 0 0 0-1.86-.75c-.11 0-.21.01-.3.03a.9.9 0 0 0-.6.5" />
    <defs>
      <linearGradient id="a" x1="16.61" x2="9.16" y1="7.7" y2="13.31" gradientUnits="userSpaceOnUse">
        <stop offset=".29" stop-color="#fff" />
        <stop offset=".78" stop-color="#fff" stop-opacity="0" />
      </linearGradient>
      <linearGradient id="d" x1="11.15" x2="13.73" y1="19.18" y2="4.75" gradientUnits="userSpaceOnUse">
        <stop stop-color="#81FFFF" />
        <stop offset=".62" stop-color="#fff" stop-opacity="0" />
      </linearGradient>
      <linearGradient id="e" x1="5.58" x2="18.85" y1="11.99" y2="11.99" gradientUnits="userSpaceOnUse">
        <stop stop-color="#0002E9" />
        <stop offset="1" stop-color="#FF00C7" />
      </linearGradient>
      <linearGradient id="f" x1="20.06" x2="4.45" y1="5.99" y2="18.94" gradientUnits="userSpaceOnUse">
        <stop offset=".29" stop-color="#fff" />
        <stop offset=".78" stop-color="#fff" stop-opacity="0" />
      </linearGradient>
      <linearGradient id="g" x1="5.27" x2="18.87" y1="11.99" y2="11.99" gradientUnits="userSpaceOnUse">
        <stop stop-color="#000292" />
        <stop offset="1" stop-color="#7D00C7" />
      </linearGradient>
      <linearGradient id="h" x1="5.59" x2="18.86" y1="12.01" y2="12.01" gradientUnits="userSpaceOnUse">
        <stop stop-color="#000292" />
        <stop offset="1" stop-color="#BE00C7" />
      </linearGradient>
      <linearGradient id="i" x1="18.41" x2="10.25" y1="4.62" y2="23.78" gradientUnits="userSpaceOnUse">
        <stop offset=".29" stop-color="#fff" />
        <stop offset=".78" stop-color="#fff" stop-opacity="0" />
      </linearGradient>
      <linearGradient id="j" x1="5.51" x2="18.68" y1="11.77" y2="11.77" gradientUnits="userSpaceOnUse">
        <stop offset=".29" stop-color="#fff" />
        <stop offset=".78" stop-color="#fff" stop-opacity="0" />
      </linearGradient>
      <linearGradient id="k" x1="5.61" x2="18.69" y1="11.94" y2="11.94" gradientUnits="userSpaceOnUse">
        <stop offset=".29" stop-color="#fff" />
        <stop offset=".78" stop-color="#fff" stop-opacity="0" />
      </linearGradient>
      <radialGradient id="b" cx="0" cy="0" r="1" gradientTransform="matrix(15 0 0 17 18.18 10.71)"
        gradientUnits="userSpaceOnUse">
        <stop stop-color="#FFEAFF" stop-opacity=".6" />
        <stop offset=".68" stop-color="#A087C9" />
        <stop offset="1" stop-color="#10002F" />
      </radialGradient>
      <radialGradient id="c" cx="0" cy="0" r="1" gradientTransform="matrix(13 0 0 14 16.61 6.98)"
        gradientUnits="userSpaceOnUse">
        <stop stop-color="#FFEAFF" stop-opacity=".6" />
        <stop offset=".68" stop-color="#A087C9" />
        <stop offset="1" stop-color="#10002F" />
      </radialGradient>
    </defs>
  </g>
</svg>
