<svg xmlns="http://www.w3.org/2000/svg" xmlns:xlink="http://www.w3.org/1999/xlink" fill="none" viewBox="0 0 1920 1080">
  <path fill="url(#a)" d="M0 0h1920v1080H0z" />
  <path fill="#A0ECFD"
    d="m379.654 618.501 6.847-10.155-10.155-6.847-6.847 10.155 10.155 6.847Zm-42.126-208.719.975 5.013 2.944-.573-.975-5.012-2.944.572Zm2.925 15.038 1.95 10.025 2.944-.572-1.95-10.026-2.944.573Zm3.9 20.051 1.95 10.025 2.944-.573-1.95-10.025-2.944.573Zm3.9 20.05 1.95 10.025 2.944-.573-1.95-10.025-2.944.573Zm3.9 20.05 1.95 10.026 2.944-.573-1.95-10.025-2.944.572Zm3.9 20.051 1.95 10.025 2.944-.573-1.95-10.025-2.944.573Zm3.9 20.05 1.95 10.025 2.944-.572-1.95-10.026-2.944.573Zm3.9 20.051 1.95 10.025 2.944-.573-1.95-10.025-2.944.573Zm3.9 20.05 1.95 10.025 2.944-.573-1.95-10.025-2.944.573Zm3.9 20.05 1.95 10.026 2.944-.573-1.95-10.025-2.944.572Zm3.9 20.051.975 5.012 2.944-.572-.975-5.013-2.944.573Zm4.101 13.227 6.847-10.155-10.155-6.847-6.847 10.155 10.155 6.847Zm-42.126-208.719.975 5.013 2.944-.573-.975-5.012-2.944.572Zm2.925 15.038 1.95 10.025 2.944-.572-1.95-10.026-2.944.573Zm3.9 20.051 1.95 10.025 2.944-.573-1.95-10.025-2.944.573Zm3.9 20.05 1.95 10.025 2.944-.573-1.95-10.025-2.944.573Zm3.9 20.05 1.95 10.026 2.944-.573-1.95-10.025-2.944.572Zm3.9 20.051 1.95 10.025 2.944-.573-1.95-10.025-2.944.573Zm3.9 20.05 1.95 10.025 2.944-.572-1.95-10.026-2.944.573Zm3.9 20.051 1.95 10.025 2.944-.573-1.95-10.025-2.944.573Zm3.9 20.05 1.95 10.025 2.944-.573-1.95-10.025-2.944.573Zm3.9 20.05 1.95 10.026 2.944-.573-1.95-10.025-2.944.572Zm3.9 20.051.975 5.012 2.944-.572-.975-5.013-2.944.573ZM958.74 622.16l8.916-8.396-8.396-8.916-8.916 8.396 8.396 8.916Zm4.761-208.205-.15 4.988 2.998.09.15-4.988-2.998-.09Zm-.45 14.963-.3 9.975 2.998.09.3-9.975-2.998-.09Zm-.6 19.95-.3 9.975 2.998.09.3-9.975-2.998-.09Zm-.6 19.95-.3 9.976 2.998.09.3-9.975-2.998-.091Zm-.6 19.951-.3 9.975 2.998.09.3-9.975-2.998-.09Zm-.6 19.95-.3 9.975 2.998.091.3-9.976-2.998-.09Zm-.6 19.951-.3 9.975 2.998.09.3-9.975-2.998-.09Zm-.6 19.95-.3 9.975 2.998.09.3-9.975-2.998-.09Zm-.6 19.95-.3 9.976 2.998.09.3-9.975-2.998-.091Zm-.6 19.951-.3 9.975 2.998.09.3-9.975-2.998-.09Zm-.6 19.95-.15 4.988 2.998.09.15-4.988-2.998-.09Zm1.089 13.689 8.916-8.396-8.396-8.916-8.916 8.396 8.396 8.916Zm4.761-208.205-.15 4.988 2.998.09.15-4.988-2.998-.09Zm-.45 14.963-.3 9.975 2.998.09.3-9.975-2.998-.09Zm-.6 19.95-.3 9.975 2.998.09.3-9.975-2.998-.09Zm-.6 19.95-.3 9.976 2.998.09.3-9.975-2.998-.091Zm-.6 19.951-.3 9.975 2.998.09.3-9.975-2.998-.09Zm-.6 19.95-.3 9.975 2.998.091.3-9.976-2.998-.09Zm-.6 19.951-.3 9.975 2.998.09.3-9.975-2.998-.09Zm-.6 19.95-.3 9.975 2.998.09.3-9.975-2.998-.09Zm-.6 19.95-.3 9.976 2.998.09.3-9.975-2.998-.091Zm-.6 19.951-.3 9.975 2.998.09.3-9.975-2.998-.09Zm-.6 19.95-.15 4.988 2.998.09.15-4.988-2.998-.09ZM668.332 601.85l-8.986 8.322 8.322 8.986 8.986-8.322-8.322-8.986Zm-6.833 217.208.2-5.213-2.998-.115-.2 5.212 2.998.116Zm.6-15.638.4-10.425-2.998-.115-.4 10.425 2.998.115Zm.8-20.849.4-10.425-2.998-.115-.4 10.425 2.998.115Zm.8-20.85.4-10.425-2.998-.115-.4 10.425 2.998.115Zm.8-20.85.4-10.424-2.998-.115-.4 10.424 2.998.115Zm.8-20.849.4-10.425-2.998-.115-.4 10.425 2.998.115Zm.8-20.85.4-10.425-2.998-.115-.4 10.425 2.998.115Zm.8-20.849.4-10.425-2.998-.115-.4 10.425 2.998.115Zm.8-20.85.4-10.425-2.998-.115-.4 10.425 2.998.115Zm.8-20.85.4-10.424-2.998-.115-.4 10.424 2.998.115Zm.8-20.849.2-5.213-2.998-.115-.2 5.213 2.998.115Zm-.967-13.924-8.986 8.322 8.322 8.986 8.986-8.322-8.322-8.986Zm-6.833 217.208.2-5.213-2.998-.115-.2 5.212 2.998.116Zm.6-15.638.4-10.425-2.998-.115-.4 10.425 2.998.115Zm.8-20.849.4-10.425-2.998-.115-.4 10.425 2.998.115Zm.8-20.85.4-10.425-2.998-.115-.4 10.425 2.998.115Zm.8-20.85.4-10.424-2.998-.115-.4 10.424 2.998.115Zm.8-20.849.4-10.425-2.998-.115-.4 10.425 2.998.115Zm.8-20.85.4-10.425-2.998-.115-.4 10.425 2.998.115Zm.8-20.849.4-10.425-2.998-.115-.4 10.425 2.998.115Zm.8-20.85.4-10.425-2.998-.115-.4 10.425 2.998.115Zm.8-20.85.4-10.424-2.998-.115-.4 10.424 2.998.115Zm.8-20.849.2-5.213-2.998-.115-.2 5.213 2.998.115ZM1238.08 605.34l-8.74 8.576 8.58 8.744 8.74-8.576-8.58-8.744Zm-.58 213.675.05-5.125-3-.03-.05 5.125 3 .03Zm.15-15.375.1-10.25-3-.03-.1 10.25 3 .03Zm.2-20.5.1-10.25-3-.03-.1 10.25 3 .03Zm.2-20.5.1-10.25-3-.03-.1 10.25 3 .03Zm.2-20.5.1-10.25-3-.03-.1 10.25 3 .03Zm.2-20.5.1-10.25-3-.03-.1 10.25 3 .03Zm.2-20.5.1-10.25-3-.03-.1 10.25 3 .03Zm.2-20.5.1-10.25-3-.03-.1 10.25 3 .03Zm.2-20.5.1-10.25-3-.03-.1 10.25 3 .03Zm.2-20.5.1-10.25-3-.03-.1 10.25 3 .03Zm.2-20.5.05-5.125-3-.03-.05 5.125 3 .03Zm-1.37-13.8-8.74 8.576 8.58 8.744 8.74-8.576-8.58-8.744Zm-.58 213.675.05-5.125-3-.03-.05 5.125 3 .03Zm.15-15.375.1-10.25-3-.03-.1 10.25 3 .03Zm.2-20.5.1-10.25-3-.03-.1 10.25 3 .03Zm.2-20.5.1-10.25-3-.03-.1 10.25 3 .03Zm.2-20.5.1-10.25-3-.03-.1 10.25 3 .03Zm.2-20.5.1-10.25-3-.03-.1 10.25 3 .03Zm.2-20.5.1-10.25-3-.03-.1 10.25 3 .03Zm.2-20.5.1-10.25-3-.03-.1 10.25 3 .03Zm.2-20.5.1-10.25-3-.03-.1 10.25 3 .03Zm.2-20.5.1-10.25-3-.03-.1 10.25 3 .03Zm.2-20.5.05-5.125-3-.03-.05 5.125 3 .03Z" />
  <path fill="#fff"
    d="m1480.87 604.021-1.85 12.106 12.11 1.852 1.85-12.106-12.11-1.852Zm161.34 217.091-2.98-4.058-2.42 1.776 2.98 4.058 2.42-1.776Zm-8.94-12.173-5.96-8.115-2.42 1.776 5.96 8.115 2.42-1.776Zm-11.93-16.231-5.96-8.115-2.42 1.776 5.97 8.115 2.41-1.776Zm-11.92-16.231-5.96-8.115-2.42 1.776 5.96 8.115 2.42-1.776Zm-11.92-16.23-5.96-8.116-2.42 1.776 5.96 8.116 2.42-1.776Zm-11.93-16.231-5.96-8.116-2.42 1.777 5.97 8.115 2.41-1.776Zm-11.92-16.231-5.96-8.115-2.42 1.776 5.96 8.115 2.42-1.776Zm-11.92-16.231-5.96-8.115-2.42 1.776 5.96 8.115 2.42-1.776Zm-11.92-16.231-5.97-8.115-2.41 1.776 5.96 8.116 2.42-1.777Zm-11.93-16.23-5.96-8.116-2.42 1.776 5.96 8.116 2.42-1.776Zm-11.92-16.231-5.96-8.115-2.42 1.776 5.96 8.115 2.42-1.776Zm-11.92-16.231-5.97-8.115-2.41 1.776 5.96 8.115 2.42-1.776Zm-11.93-16.231-5.96-8.115-2.42 1.776 5.96 8.115 2.42-1.776Zm-11.92-16.23-2.98-4.058-2.42 1.776 2.98 4.058 2.42-1.776Zm-9.32-10.149-1.85 12.106 12.11 1.852 1.85-12.106-12.11-1.852Zm161.34 217.091-2.98-4.058-2.42 1.776 2.98 4.058 2.42-1.776Zm-8.94-12.173-5.96-8.115-2.42 1.776 5.96 8.115 2.42-1.776Zm-11.93-16.231-5.96-8.115-2.42 1.776 5.97 8.115 2.41-1.776Zm-11.92-16.231-5.96-8.115-2.42 1.776 5.96 8.115 2.42-1.776Zm-11.92-16.23-5.96-8.116-2.42 1.776 5.96 8.116 2.42-1.776Zm-11.93-16.231-5.96-8.116-2.42 1.777 5.97 8.115 2.41-1.776Zm-11.92-16.231-5.96-8.115-2.42 1.776 5.96 8.115 2.42-1.776Zm-11.92-16.231-5.96-8.115-2.42 1.776 5.96 8.115 2.42-1.776Zm-11.92-16.231-5.97-8.115-2.41 1.776 5.96 8.116 2.42-1.777Zm-11.93-16.23-5.96-8.116-2.42 1.776 5.96 8.116 2.42-1.776Zm-11.92-16.231-5.96-8.115-2.42 1.776 5.96 8.115 2.42-1.776Zm-11.92-16.231-5.97-8.115-2.41 1.776 5.96 8.115 2.42-1.776Zm-11.93-16.231-5.96-8.115-2.42 1.776 5.96 8.115 2.42-1.776Zm-11.92-16.23-2.98-4.058-2.42 1.776 2.98 4.058 2.42-1.776Z" />
  <path fill="#A0ECFD"
    d="m1486 616.66 8.66-8.66-8.66-8.66-8.66 8.66 8.66 8.66ZM1484.5 414v4.85h3V414h-3Zm0 14.55v9.7h3v-9.7h-3Zm0 19.4v9.7h3v-9.7h-3Zm0 19.4v9.7h3v-9.7h-3Zm0 19.4v9.7h3v-9.7h-3Zm0 19.4v9.7h3v-9.7h-3Zm0 19.4v9.7h3v-9.7h-3Zm0 19.4v9.7h3v-9.7h-3Zm0 19.4v9.7h3v-9.7h-3Zm0 19.4v9.7h3v-9.7h-3Zm0 19.4V608h3v-4.85h-3Zm1.5 13.51 8.66-8.66-8.66-8.66-8.66 8.66 8.66 8.66ZM1484.5 414v4.85h3V414h-3Zm0 14.55v9.7h3v-9.7h-3Zm0 19.4v9.7h3v-9.7h-3Zm0 19.4v9.7h3v-9.7h-3Zm0 19.4v9.7h3v-9.7h-3Zm0 19.4v9.7h3v-9.7h-3Zm0 19.4v9.7h3v-9.7h-3Zm0 19.4v9.7h3v-9.7h-3Zm0 19.4v9.7h3v-9.7h-3Zm0 19.4v9.7h3v-9.7h-3Zm0 19.4V608h3v-4.85h-3Z" />
  <path fill="#fff" fill-rule="evenodd"
    d="M889.023 1002.98c0 12.15-10.073 22-22.5 22-12.426 0-22.5-9.85-22.5-22h11.25c0 6.08 5.037 11 11.25 11 6.214 0 11.25-4.92 11.25-11h11.25ZM855.25 986H844v11h11.25v-11Zm33.75 0h-11.25v11H889v-11ZM894.738 997h11.25v-11h-11.25v11Zm-33.75 0h11.25v-11h-11.25v11ZM860.988 980c0-12.15 10.074-22 22.5-22 12.427 0 22.5 9.85 22.5 22h-11.25c0-6.075-5.037-11-11.25-11s-11.25 4.925-11.25 11h-11.25Z"
    clip-rule="evenodd" />
  <path fill="#fff"
    d="M948.043 971.335h8.576v26.661c0 2.994-.706 5.614-2.119 7.854-1.399 2.25-3.36 4-5.882 5.26-2.522 1.24-5.46 1.86-8.814 1.86-3.367 0-6.312-.62-8.834-1.86-2.522-1.26-4.483-3.01-5.882-5.26-1.4-2.24-2.1-4.86-2.1-7.854v-26.661h8.576v25.919c0 1.564.337 2.956 1.011 4.166a7.354 7.354 0 0 0 2.891 2.87c1.241.7 2.687 1.04 4.338 1.04 1.664 0 3.109-.34 4.338-1.04a7.23 7.23 0 0 0 2.872-2.87c.686-1.21 1.029-2.602 1.029-4.166v-25.919Zm24.238 23.253v17.802h-8.437v-30.791h8.041v5.432h.357c.673-1.791 1.802-3.207 3.387-4.249 1.584-1.056 3.505-1.584 5.763-1.584 2.113 0 3.955.468 5.526 1.403 1.572.936 2.793 2.272 3.664 4.009.872 1.724 1.308 3.782 1.308 6.174v19.606h-8.438v-18.082c.013-1.885-.462-3.355-1.426-4.41-.964-1.069-2.291-1.604-3.981-1.604-1.136 0-2.139.247-3.011.742-.858.494-1.531 1.216-2.02 2.165-.475.935-.72 2.064-.733 3.387Zm26.259 17.802v-30.791h8.44v30.791h-8.44Zm4.24-34.76c-1.26 0-2.33-.421-3.23-1.263-.885-.856-1.327-1.878-1.327-3.067 0-1.176.442-2.185 1.327-3.027.9-.855 1.97-1.283 3.23-1.283 1.25 0 2.32.428 3.21 1.283.89.842 1.34 1.851 1.34 3.027 0 1.189-.45 2.211-1.34 3.067-.89.842-1.96 1.263-3.21 1.263Zm24.7 35.36c-3.07 0-5.74-.66-7.98-1.98-2.23-1.34-3.96-3.2-5.17-5.58-1.21-2.39-1.82-5.16-1.82-8.316 0-3.181.61-5.96 1.82-8.339 1.21-2.392 2.94-4.25 5.17-5.573 2.24-1.336 4.91-2.004 7.98-2.004 3.08 0 5.73.668 7.96 2.004 2.25 1.323 3.98 3.181 5.19 5.573 1.22 2.379 1.83 5.158 1.83 8.339 0 3.156-.61 5.926-1.83 8.316-1.21 2.38-2.94 4.24-5.19 5.58-2.23 1.32-4.88 1.98-7.96 1.98Zm.04-6.61c1.4 0 2.57-.41 3.51-1.21.93-.81 1.64-1.92 2.12-3.33.48-1.4.73-2.995.73-4.786 0-1.791-.25-3.388-.73-4.791-.48-1.403-1.19-2.513-2.12-3.327-.94-.816-2.11-1.223-3.51-1.223-1.41 0-2.6.407-3.56 1.223-.95.814-1.67 1.924-2.16 3.327-.48 1.403-.72 3-.72 4.791 0 1.791.24 3.386.72 4.786.49 1.41 1.21 2.52 2.16 3.33.96.8 2.15 1.21 3.56 1.21Zm28.86-11.792v17.802h-8.44v-30.791h8.04v5.432h.36c.67-1.791 1.8-3.207 3.39-4.249 1.58-1.056 3.5-1.584 5.76-1.584 2.11 0 3.96.468 5.53 1.403 1.57.936 2.79 2.272 3.66 4.009.87 1.724 1.31 3.782 1.31 6.174v19.606h-8.44v-18.082c.01-1.885-.46-3.355-1.43-4.41-.96-1.069-2.29-1.604-3.98-1.604-1.13 0-2.13.247-3.01.742-.86.494-1.53 1.216-2.02 2.165-.47.935-.72 2.064-.73 3.387ZM291.031 155.055c-6.006 0-11.352-1.363-16.04-4.087-4.687-2.754-8.379-6.651-11.074-11.69-2.666-5.068-3.999-11.059-3.999-17.973 0-6.973 1.333-12.979 3.999-18.018 2.695-5.068 6.387-8.965 11.074-11.69 4.688-2.753 10.034-4.13 16.04-4.13 5.127 0 9.727.996 13.799 2.988 4.102 1.992 7.456 4.805 10.064 8.438 2.607 3.603 4.262 7.836 4.965 12.7h-13.667c-.791-3.867-2.519-6.856-5.185-8.965-2.637-2.139-5.903-3.208-9.8-3.208-5.566 0-9.902 1.977-13.008 5.933-3.105 3.925-4.658 9.243-4.658 15.952 0 6.65 1.553 11.953 4.658 15.908 3.106 3.926 7.442 5.889 13.008 5.889 3.867 0 7.119-1.055 9.756-3.164 2.666-2.11 4.424-5.084 5.273-8.921h13.623c-.703 4.863-2.358 9.096-4.965 12.7-2.608 3.603-5.962 6.401-10.064 8.393-4.072 1.963-8.672 2.945-13.799 2.945ZM327.11 154v-46.406h12.481v7.91h.132c.849-2.783 2.182-4.849 3.999-6.196 1.816-1.348 4.262-2.022 7.339-2.022.761 0 1.45.015 2.065.044.645.029 1.23.044 1.758.044v11.03c-.469-.029-1.245-.073-2.329-.132a60.855 60.855 0 0 0-3.252-.087c-2.666 0-4.878.908-6.636 2.724-1.729 1.817-2.593 4.468-2.593 7.954V154H327.11Zm54.668 1.055c-4.687 0-8.803-1.011-12.348-3.033-3.516-2.021-6.27-4.834-8.262-8.437-1.963-3.633-2.944-7.881-2.944-12.744 0-4.863.981-9.112 2.944-12.744 1.992-3.633 4.746-6.46 8.262-8.482 3.545-2.051 7.661-3.076 12.348-3.076 4.717 0 8.833 1.025 12.349 3.076 3.545 2.022 6.299 4.849 8.262 8.482 1.992 3.632 2.988 7.881 2.988 12.744 0 4.834-.996 9.067-2.988 12.7-1.963 3.633-4.717 6.46-8.262 8.481-3.516 2.022-7.632 3.033-12.349 3.033Zm0-10.503c3.164 0 5.713-1.201 7.647-3.604 1.933-2.431 2.9-5.801 2.9-10.107 0-4.336-.967-7.72-2.9-10.152-1.934-2.431-4.483-3.647-7.647-3.647-3.134 0-5.669 1.216-7.602 3.647-1.934 2.432-2.901 5.816-2.901 10.152 0 4.306.967 7.676 2.901 10.107 1.933 2.403 4.468 3.604 7.602 3.604Zm50.054 10.591c-6.035 0-11.03-1.377-14.985-4.131-3.926-2.754-6.094-6.621-6.504-11.602h12.744c.234 2.022 1.084 3.604 2.549 4.746 1.465 1.143 3.457 1.714 5.976 1.714 2.403 0 4.292-.454 5.669-1.362 1.377-.908 2.066-2.08 2.066-3.516 0-1.23-.542-2.212-1.626-2.944-1.055-.762-2.52-1.333-4.395-1.714l-8.13-1.582c-9.199-1.758-13.799-6.27-13.799-13.535 0-4.395 1.773-7.925 5.318-10.591 3.545-2.666 8.335-3.999 14.37-3.999 6.006 0 10.84 1.406 14.502 4.219 3.662 2.812 5.552 6.635 5.669 11.469h-11.997c-.03-1.845-.777-3.383-2.241-4.614-1.436-1.26-3.296-1.889-5.581-1.889-2.227 0-3.97.483-5.23 1.45-1.26.937-1.89 2.094-1.89 3.471 0 1.202.484 2.183 1.451 2.945.996.761 2.387 1.333 4.174 1.714l8.789 1.713c4.688.909 8.13 2.403 10.328 4.483 2.226 2.051 3.339 4.79 3.339 8.218 0 3.076-.878 5.771-2.636 8.086-1.729 2.285-4.146 4.072-7.251 5.361-3.076 1.26-6.636 1.89-10.679 1.89Zm46.846 0c-6.035 0-11.031-1.377-14.986-4.131-3.925-2.754-6.093-6.621-6.504-11.602h12.745c.234 2.022 1.084 3.604 2.548 4.746 1.465 1.143 3.457 1.714 5.977 1.714 2.402 0 4.292-.454 5.669-1.362 1.377-.908 2.065-2.08 2.065-3.516 0-1.23-.542-2.212-1.626-2.944-1.054-.762-2.519-1.333-4.394-1.714l-8.13-1.582c-9.199-1.758-13.799-6.27-13.799-13.535 0-4.395 1.773-7.925 5.318-10.591 3.544-2.666 8.335-3.999 14.37-3.999 6.006 0 10.84 1.406 14.502 4.219 3.662 2.812 5.551 6.635 5.669 11.469h-11.998c-.029-1.845-.776-3.383-2.241-4.614-1.435-1.26-3.296-1.889-5.581-1.889-2.226 0-3.97.483-5.229 1.45-1.26.937-1.89 2.094-1.89 3.471 0 1.202.483 2.183 1.45 2.945.996.761 2.388 1.333 4.175 1.714l8.789 1.713c4.688.909 8.13 2.403 10.327 4.483 2.227 2.051 3.34 4.79 3.34 8.218 0 3.076-.879 5.771-2.637 8.086-1.728 2.285-4.145 4.072-7.251 5.361-3.076 1.26-6.635 1.89-10.678 1.89Zm76.201-.088c-6.006 0-11.353-1.363-16.04-4.087-4.688-2.754-8.379-6.651-11.074-11.69-2.666-5.068-3.999-11.059-3.999-17.973 0-6.973 1.333-12.979 3.999-18.018 2.695-5.068 6.386-8.965 11.074-11.69 4.687-2.753 10.034-4.13 16.04-4.13 5.127 0 9.726.996 13.799 2.988 4.101 1.992 7.456 4.805 10.063 8.438 2.608 3.603 4.263 7.836 4.966 12.7H570.04c-.791-3.867-2.519-6.856-5.186-8.965-2.636-2.139-5.903-3.208-9.799-3.208-5.567 0-9.903 1.977-13.008 5.933-3.106 3.925-4.658 9.243-4.658 15.952 0 6.65 1.552 11.953 4.658 15.908 3.105 3.926 7.441 5.889 13.008 5.889 3.867 0 7.119-1.055 9.756-3.164 2.666-2.11 4.423-5.084 5.273-8.921h13.623c-.703 4.863-2.358 9.096-4.966 12.7-2.607 3.603-5.962 6.401-10.063 8.393-4.073 1.963-8.672 2.945-13.799 2.945Zm49.043-26.851V154h-12.964V88.522h12.964v26.059c1.553-2.549 3.501-4.512 5.845-5.889 2.373-1.377 5.185-2.065 8.437-2.065 4.922 0 8.862 1.597 11.821 4.79 2.959 3.164 4.439 7.676 4.439 13.535V154h-12.92v-26.675c0-3.105-.747-5.464-2.241-7.075-1.494-1.641-3.589-2.461-6.284-2.461-2.666 0-4.849.835-6.548 2.505-1.7 1.67-2.549 4.307-2.549 7.91Zm53.965 26.587c-4.629 0-8.452-1.157-11.47-3.472-2.988-2.314-4.482-5.786-4.482-10.415 0-3.486.835-6.211 2.504-8.174 1.67-1.992 3.882-3.442 6.636-4.35 2.754-.908 5.742-1.509 8.965-1.802 4.248-.439 7.222-.879 8.921-1.318 1.699-.44 2.549-1.406 2.549-2.901v-.307c0-1.699-.674-3.091-2.022-4.175-1.347-1.084-3.208-1.626-5.581-1.626-2.402 0-4.35.557-5.845 1.67-1.494 1.113-2.314 2.563-2.46 4.35h-12.173c.293-4.775 2.256-8.569 5.888-11.381 3.633-2.842 8.628-4.263 14.986-4.263 6.357 0 11.279 1.421 14.765 4.263 3.487 2.812 5.23 6.694 5.23 11.645V154h-12.656v-6.548h-.176c-1.231 2.256-2.915 4.043-5.054 5.361-2.139 1.319-4.98 1.978-8.525 1.978Zm3.603-9.009c3.106 0 5.567-.82 7.383-2.461 1.816-1.67 2.725-3.764 2.725-6.284v-4.658c-.733.41-1.949.791-3.648 1.142-1.699.323-3.589.645-5.669.967-2.226.352-4.116.996-5.669 1.934-1.523.908-2.285 2.285-2.285 4.131 0 1.64.645 2.929 1.934 3.867 1.318.908 3.061 1.362 5.229 1.362ZM693.438 154v-46.406h12.964V154h-12.964Zm6.46-52.251c-2.138 0-3.911-.645-5.317-1.934-1.406-1.318-2.109-2.973-2.109-4.965 0-1.993.703-3.633 2.109-4.922 1.406-1.319 3.179-1.978 5.317-1.978 2.11 0 3.868.66 5.274 1.978 1.406 1.289 2.109 2.93 2.109 4.922 0 1.992-.703 3.647-2.109 4.965-1.406 1.289-3.164 1.934-5.274 1.934Zm28.653 26.455V154h-12.964v-46.406h12.744v7.295c1.582-2.637 3.56-4.673 5.933-6.109 2.373-1.435 5.229-2.153 8.569-2.153 4.922 0 8.862 1.597 11.821 4.79 2.959 3.164 4.439 7.676 4.439 13.535V154h-12.92v-26.675c0-3.105-.747-5.464-2.241-7.075-1.494-1.641-3.589-2.461-6.285-2.461-2.666 0-4.848.835-6.547 2.505-1.7 1.67-2.549 4.307-2.549 7.91ZM787.965 154V88.522h19.731l10.811 30.498a349.36 349.36 0 0 1 2.285 7.558 429.55 429.55 0 0 1 2.593 8.833c.791-2.812 1.64-5.757 2.549-8.833.937-3.105 1.699-5.625 2.285-7.558l10.678-30.498h19.732V154h-13.228v-31.113c0-2.285.044-5.215.132-8.789.117-3.575.22-7.163.308-10.767-1.143 3.809-2.241 7.5-3.296 11.074-1.055 3.545-1.934 6.372-2.637 8.482L828.834 154h-10.986l-11.206-31.113a487.83 487.83 0 0 1-2.593-8.086c-1.026-3.369-2.095-6.885-3.208-10.547l.263 10.283c.088 3.369.132 6.152.132 8.35V154h-13.271Zm101.382 1.055c-4.688 0-8.775-1.04-12.261-3.12-3.457-2.081-6.152-4.937-8.086-8.57-1.904-3.662-2.856-7.837-2.856-12.524 0-4.717.966-8.906 2.9-12.569 1.963-3.662 4.658-6.533 8.086-8.613 3.428-2.08 7.353-3.12 11.777-3.12 4.571 0 8.555 1.025 11.953 3.076 3.428 2.022 6.094 4.849 7.998 8.482 1.934 3.603 2.901 7.763 2.901 12.48v3.472h-33.003c.117 3.428 1.128 6.167 3.032 8.218 1.904 2.05 4.556 3.076 7.954 3.076 2.52 0 4.614-.542 6.284-1.626 1.7-1.084 2.842-2.52 3.428-4.307h11.821c-.556 3.076-1.86 5.786-3.911 8.13-2.051 2.344-4.629 4.189-7.734 5.537-3.106 1.319-6.533 1.978-10.283 1.978Zm-10.503-29.268h20.698c-.322-2.9-1.406-5.185-3.252-6.855-1.816-1.7-4.189-2.549-7.119-2.549-2.9 0-5.259.849-7.075 2.549-1.817 1.67-2.901 3.955-3.252 6.855Zm59.15 29.356c-6.035 0-11.03-1.377-14.985-4.131-3.926-2.754-6.094-6.621-6.504-11.602h12.744c.234 2.022 1.084 3.604 2.549 4.746 1.465 1.143 3.457 1.714 5.976 1.714 2.403 0 4.292-.454 5.669-1.362 1.377-.908 2.066-2.08 2.066-3.516 0-1.23-.542-2.212-1.626-2.944-1.055-.762-2.52-1.333-4.395-1.714l-8.13-1.582c-9.199-1.758-13.798-6.27-13.798-13.535 0-4.395 1.772-7.925 5.317-10.591 3.545-2.666 8.335-3.999 14.37-3.999 6.006 0 10.84 1.406 14.502 4.219 3.662 2.812 5.552 6.635 5.669 11.469h-11.997c-.029-1.845-.776-3.383-2.241-4.614-1.436-1.26-3.296-1.889-5.581-1.889-2.227 0-3.97.483-5.23 1.45-1.26.937-1.89 2.094-1.89 3.471 0 1.202.484 2.183 1.451 2.945.996.761 2.387 1.333 4.174 1.714l8.79 1.713c4.687.909 8.129 2.403 10.327 4.483 2.226 2.051 3.34 4.79 3.34 8.218 0 3.076-.879 5.771-2.637 8.086-1.729 2.285-4.146 4.072-7.251 5.361-3.076 1.26-6.636 1.89-10.679 1.89Zm46.846 0c-6.035 0-11.03-1.377-14.986-4.131-3.925-2.754-6.093-6.621-6.503-11.602h12.744c.234 2.022 1.084 3.604 2.549 4.746 1.464 1.143 3.457 1.714 5.976 1.714 2.402 0 4.292-.454 5.669-1.362 1.377-.908 2.065-2.08 2.065-3.516 0-1.23-.542-2.212-1.625-2.944-1.055-.762-2.52-1.333-4.395-1.714l-8.13-1.582c-9.199-1.758-13.799-6.27-13.799-13.535 0-4.395 1.773-7.925 5.318-10.591 3.545-2.666 8.335-3.999 14.37-3.999 6.006 0 10.84 1.406 14.502 4.219 3.665 2.812 5.555 6.635 5.665 11.469h-11.993c-.03-1.845-.777-3.383-2.242-4.614-1.435-1.26-3.296-1.889-5.581-1.889-2.226 0-3.969.483-5.229 1.45-1.26.937-1.89 2.094-1.89 3.471 0 1.202.484 2.183 1.45 2.945.996.761 2.388 1.333 4.175 1.714l8.789 1.713c4.688.909 8.13 2.403 10.331 4.483 2.22 2.051 3.34 4.79 3.34 8.218 0 3.076-.88 5.771-2.64 8.086-1.73 2.285-4.146 4.072-7.251 5.361-3.077 1.26-6.636 1.89-10.679 1.89Zm41.75-.352c-4.63 0-8.45-1.157-11.47-3.472-2.99-2.314-4.48-5.786-4.48-10.415 0-3.486.83-6.211 2.5-8.174 1.67-1.992 3.88-3.442 6.64-4.35 2.75-.908 5.74-1.509 8.96-1.802 4.25-.439 7.22-.879 8.92-1.318 1.7-.44 2.55-1.406 2.55-2.901v-.307c0-1.699-.67-3.091-2.02-4.175-1.35-1.084-3.21-1.626-5.58-1.626-2.4 0-4.35.557-5.85 1.67-1.49 1.113-2.31 2.563-2.46 4.35h-12.17c.29-4.775 2.26-8.569 5.89-11.381 3.63-2.842 8.63-4.263 14.98-4.263 6.36 0 11.28 1.421 14.77 4.263 3.49 2.812 5.23 6.694 5.23 11.645V154h-12.66v-6.548h-.17c-1.23 2.256-2.92 4.043-5.06 5.361-2.14 1.319-4.98 1.978-8.52 1.978Zm3.6-9.009c3.11 0 5.57-.82 7.38-2.461 1.82-1.67 2.73-3.764 2.73-6.284v-4.658c-.73.41-1.95.791-3.65 1.142-1.7.323-3.59.645-5.67.967-2.22.352-4.11.996-5.67 1.934-1.52.908-2.28 2.285-2.28 4.131 0 1.64.64 2.929 1.93 3.867 1.32.908 3.06 1.362 5.23 1.362Zm53.88 27.202c-6.59 0-11.69-1.377-15.29-4.13-3.61-2.754-5.73-6.387-6.38-10.899h12.48c.47 1.758 1.51 3.106 3.12 4.043 1.62.967 3.64 1.45 6.07 1.45 3.16 0 5.59-.864 7.29-2.593 1.73-1.728 2.6-4.262 2.6-7.602v-7.119h-.05c-1.37 2.724-3.25 4.731-5.62 6.02-2.35 1.26-5.04 1.89-8.09 1.89-4.04 0-7.57-1.011-10.59-3.032-3.02-2.022-5.36-4.79-7.03-8.306-1.64-3.545-2.46-7.632-2.46-12.261 0-4.658.83-8.774 2.5-12.348 1.7-3.575 4.05-6.372 7.03-8.394 3.02-2.051 6.51-3.076 10.46-3.076 2.99 0 5.66.644 8 1.934 2.37 1.259 4.31 3.178 5.8 5.756h.05v-6.723h12.78v44.604c0 4.893-.96 8.863-2.9 11.909-1.9 3.077-4.55 5.318-7.95 6.724-3.4 1.436-7.34 2.153-11.82 2.153Zm-.53-29.311c3.28 0 5.92-1.216 7.91-3.648 1.99-2.431 2.99-5.683 2.99-9.755 0-4.043-1-7.281-2.99-9.712-1.99-2.432-4.63-3.648-7.91-3.648-3.13 0-5.65 1.172-7.56 3.516-1.87 2.314-2.81 5.595-2.81 9.844 0 4.277.94 7.587 2.81 9.931 1.91 2.315 4.43 3.472 7.56 3.472Zm53.57 11.382c-4.69 0-8.77-1.04-12.26-3.12-3.46-2.081-6.15-4.937-8.09-8.57-1.9-3.662-2.85-7.837-2.85-12.524 0-4.717.96-8.906 2.9-12.569 1.96-3.662 4.66-6.533 8.08-8.613 3.43-2.08 7.36-3.12 11.78-3.12 4.57 0 8.56 1.025 11.95 3.076 3.43 2.022 6.1 4.849 8 8.482 1.94 3.603 2.9 7.763 2.9 12.48v3.472h-33c.12 3.428 1.13 6.167 3.03 8.218 1.91 2.05 4.56 3.076 7.96 3.076 2.52 0 4.61-.542 6.28-1.626 1.7-1.084 2.84-2.52 3.43-4.307h11.82c-.56 3.076-1.86 5.786-3.91 8.13-2.05 2.344-4.63 4.189-7.74 5.537-3.1 1.319-6.53 1.978-10.28 1.978Zm-10.5-29.268h20.7c-.33-2.9-1.41-5.185-3.26-6.855-1.81-1.7-4.19-2.549-7.12-2.549-2.9 0-5.25.849-7.07 2.549-1.82 1.67-2.9 3.955-3.25 6.855Zm78 28.213-22.98-65.478h14.72l10.59 31.86c1 3.135 2.02 6.474 3.08 10.019 1.05 3.516 2.16 7.281 3.34 11.294 1.14-4.013 2.21-7.778 3.2-11.294 1.03-3.545 2.02-6.884 2.99-10.019l10.24-31.86h14.55L1221.84 154h-17.23Zm58.8 1.055c-4.69 0-8.78-1.04-12.26-3.12-3.46-2.081-6.15-4.937-8.09-8.57-1.9-3.662-2.85-7.837-2.85-12.524 0-4.717.96-8.906 2.9-12.569 1.96-3.662 4.65-6.533 8.08-8.613 3.43-2.08 7.36-3.12 11.78-3.12 4.57 0 8.55 1.025 11.95 3.076 3.43 2.022 6.1 4.849 8 8.482 1.93 3.603 2.9 7.763 2.9 12.48v3.472h-33c.12 3.428 1.13 6.167 3.03 8.218 1.9 2.05 4.56 3.076 7.95 3.076 2.52 0 4.62-.542 6.29-1.626 1.7-1.084 2.84-2.52 3.43-4.307h11.82c-.56 3.076-1.86 5.786-3.91 8.13-2.05 2.344-4.63 4.189-7.74 5.537-3.1 1.319-6.53 1.978-10.28 1.978Zm-10.5-29.268h20.69c-.32-2.9-1.4-5.185-3.25-6.855-1.81-1.7-4.19-2.549-7.12-2.549-2.9 0-5.26.849-7.07 2.549-1.82 1.67-2.9 3.955-3.25 6.855ZM1292.76 154v-46.406h12.49v7.91h.13c.85-2.783 2.18-4.849 4-6.196 1.81-1.348 4.26-2.022 7.33-2.022.77 0 1.46.015 2.07.044.64.029 1.23.044 1.76.044v11.03c-.47-.029-1.25-.073-2.33-.132a61.061 61.061 0 0 0-3.25-.087c-2.67 0-4.88.908-6.64 2.724-1.73 1.817-2.59 4.468-2.59 7.954V154h-12.97Zm34.11 0v-46.406h12.96V154h-12.96Zm6.46-52.251c-2.14 0-3.91-.645-5.32-1.934-1.41-1.318-2.11-2.973-2.11-4.965 0-1.993.7-3.633 2.11-4.922 1.41-1.319 3.18-1.978 5.32-1.978 2.11 0 3.86.66 5.27 1.978 1.41 1.289 2.11 2.93 2.11 4.922 0 1.992-.7 3.647-2.11 4.965-1.41 1.289-3.16 1.934-5.27 1.934Zm42.71 5.845v10.151h-9.49V154h-12.92v-36.255h-8.39v-10.151h8.39v-6.021c0-8.7 5.02-13.051 15.07-13.051h7.34v10.15h-4.39c-1.88 0-3.2.396-3.96 1.187-.76.762-1.14 2.066-1.14 3.912v3.823h9.49Zm6.37 46.406v-46.406h12.97V154h-12.97Zm6.46-52.251c-2.14 0-3.91-.645-5.31-1.934-1.41-1.318-2.11-2.973-2.11-4.965 0-1.993.7-3.633 2.11-4.922 1.4-1.319 3.17-1.978 5.31-1.978 2.11 0 3.87.66 5.28 1.978 1.4 1.289 2.11 2.93 2.11 4.922 0 1.992-.71 3.647-2.11 4.965-1.41 1.289-3.17 1.934-5.28 1.934Zm36.96 53.306c-4.66 0-8.73-1.011-12.22-3.033-3.48-2.05-6.21-4.892-8.17-8.525-1.93-3.662-2.9-7.881-2.9-12.656 0-4.805.97-9.024 2.9-12.656 1.96-3.663 4.69-6.519 8.17-8.57 3.49-2.051 7.56-3.076 12.22-3.076 4.07 0 7.69.791 10.86 2.373 3.19 1.553 5.74 3.721 7.64 6.504 1.94 2.754 3.03 5.933 3.3 9.536h-12.53c-.35-2.373-1.31-4.292-2.9-5.757-1.55-1.465-3.62-2.197-6.19-2.197-3.26 0-5.8 1.245-7.65 3.735-1.85 2.491-2.77 5.86-2.77 10.108 0 4.219.92 7.573 2.77 10.063 1.85 2.461 4.39 3.692 7.65 3.692 2.6 0 4.66-.733 6.15-2.198 1.49-1.464 2.45-3.413 2.86-5.844h12.61c-.18 3.574-1.22 6.753-3.12 9.536-1.91 2.783-4.47 4.98-7.69 6.592-3.2 1.582-6.86 2.373-10.99 2.373Zm43.64-.264c-4.63 0-8.45-1.157-11.47-3.472-2.99-2.314-4.48-5.786-4.48-10.415 0-3.486.83-6.211 2.5-8.174 1.67-1.992 3.88-3.442 6.64-4.35 2.75-.908 5.74-1.509 8.96-1.802 4.25-.439 7.22-.879 8.92-1.318 1.7-.44 2.55-1.406 2.55-2.901v-.307c0-1.699-.67-3.091-2.02-4.175-1.35-1.084-3.21-1.626-5.58-1.626-2.4 0-4.35.557-5.85 1.67-1.49 1.113-2.31 2.563-2.46 4.35h-12.17c.29-4.775 2.26-8.569 5.89-11.381 3.63-2.842 8.63-4.263 14.98-4.263 6.36 0 11.28 1.421 14.77 4.263 3.49 2.812 5.23 6.694 5.23 11.645V154h-12.66v-6.548h-.17c-1.23 2.256-2.92 4.043-5.06 5.361-2.13 1.319-4.98 1.978-8.52 1.978Zm3.6-9.009c3.11 0 5.57-.82 7.39-2.461 1.81-1.67 2.72-3.764 2.72-6.284v-4.658c-.73.41-1.95.791-3.65 1.142-1.7.323-3.59.645-5.67.967-2.22.352-4.11.996-5.67 1.934-1.52.908-2.28 2.285-2.28 4.131 0 1.64.64 2.929 1.93 3.867 1.32.908 3.06 1.362 5.23 1.362Zm58.63-38.188v10.151h-9.5v21.929c0 1.582.31 2.68.93 3.296.64.586 1.84.879 3.6.879h4.97V154h-7.56c-5.1 0-8.87-.996-11.3-2.988-2.4-1.992-3.6-5.098-3.6-9.317v-23.95h-8v-10.151h8V94.938h12.96v12.656h9.5Zm6.54 46.406v-46.406h12.97V154h-12.97Zm6.46-52.251c-2.14 0-3.91-.645-5.31-1.934-1.41-1.318-2.11-2.973-2.11-4.965 0-1.993.7-3.633 2.11-4.922 1.4-1.319 3.17-1.978 5.31-1.978 2.11 0 3.87.66 5.28 1.978 1.4 1.289 2.11 2.93 2.11 4.922 0 1.992-.71 3.647-2.11 4.965-1.41 1.289-3.17 1.934-5.28 1.934Zm37.22 53.306c-4.68 0-8.8-1.011-12.34-3.033-3.52-2.021-6.27-4.834-8.27-8.437-1.96-3.633-2.94-7.881-2.94-12.744 0-4.863.98-9.112 2.94-12.744 2-3.633 4.75-6.46 8.27-8.482 3.54-2.051 7.66-3.076 12.34-3.076 4.72 0 8.84 1.025 12.35 3.076 3.55 2.022 6.3 4.849 8.27 8.482 1.99 3.632 2.98 7.881 2.98 12.744 0 4.834-.99 9.067-2.98 12.7-1.97 3.633-4.72 6.46-8.27 8.481-3.51 2.022-7.63 3.033-12.35 3.033Zm0-10.503c3.17 0 5.72-1.201 7.65-3.604 1.93-2.431 2.9-5.801 2.9-10.107 0-4.336-.97-7.72-2.9-10.152-1.93-2.431-4.48-3.647-7.65-3.647-3.13 0-5.66 1.216-7.6 3.647-1.93 2.432-2.9 5.816-2.9 10.152 0 4.306.97 7.676 2.9 10.107 1.94 2.403 4.47 3.604 7.6 3.604Zm43.73-16.348V154h-12.96v-46.406h12.74v7.295c1.58-2.637 3.56-4.673 5.93-6.109 2.38-1.435 5.23-2.153 8.57-2.153 4.92 0 8.86 1.597 11.82 4.79 2.96 3.164 4.44 7.676 4.44 13.535V154h-12.92v-26.675c0-3.105-.74-5.464-2.24-7.075-1.49-1.641-3.59-2.461-6.28-2.461-2.67 0-4.85.835-6.55 2.505-1.7 1.67-2.55 4.307-2.55 7.91Z" />
  <path fill="#A0ECFD" fill-opacity=".2" d="m1643 613.903-157 129.905V484l157 129.903ZM286 552.902h1200v115H286z" />
  <path fill="#fff"
    d="M216.203 404.469c-3.724 0-6.627-.879-8.711-2.637-2.07-1.758-3.105-4.219-3.105-7.383h5.801c.039 1.602.592 2.852 1.66 3.75 1.067.886 2.532 1.328 4.394 1.328 1.667 0 3.008-.338 4.024-1.015 1.015-.677 1.523-1.582 1.523-2.715 0-.938-.41-1.699-1.23-2.285-.808-.586-2.136-1.081-3.985-1.485l-3.066-.664c-5.703-1.237-8.555-3.932-8.555-8.086 0-1.77.462-3.313 1.387-4.629.924-1.328 2.213-2.363 3.867-3.105s3.587-1.113 5.801-1.113c3.346 0 5.996.833 7.949 2.5 1.966 1.666 2.995 3.965 3.086 6.894h-5.625c-.104-1.38-.638-2.467-1.602-3.262-.963-.794-2.226-1.191-3.789-1.191-1.484 0-2.701.339-3.652 1.016-.937.677-1.406 1.543-1.406 2.597 0 .899.39 1.621 1.172 2.168.781.547 2.063 1.016 3.847 1.407l2.793.605c3.099.664 5.365 1.66 6.797 2.988 1.445 1.315 2.168 3.067 2.168 5.254 0 2.8-1.029 5.013-3.086 6.641-2.057 1.614-4.876 2.422-8.457 2.422Zm14.942-.469v-20.625h5.761V404h-5.761Zm2.871-23.223c-.951 0-1.739-.286-2.364-.859-.625-.586-.937-1.322-.937-2.207 0-.885.312-1.615.937-2.188.625-.585 1.413-.878 2.364-.878.937 0 1.718.293 2.343.878.625.573.938 1.303.938 2.188 0 .885-.313 1.621-.938 2.207-.625.573-1.406.859-2.343.859Zm12.734 11.758V404h-5.762v-20.625h5.664v3.242c.703-1.172 1.582-2.077 2.637-2.715 1.055-.638 2.324-.957 3.809-.957 2.187 0 3.938.71 5.254 2.129 1.315 1.406 1.972 3.412 1.972 6.016V404h-5.742v-11.855c0-1.381-.332-2.429-.996-3.145-.664-.729-1.595-1.094-2.793-1.094-1.185 0-2.155.371-2.91 1.114-.755.742-1.133 1.914-1.133 3.515Zm27.422 19.903c-2.93 0-5.195-.612-6.797-1.836-1.602-1.224-2.546-2.839-2.832-4.844h5.547c.208.781.67 1.38 1.387 1.797.716.429 1.614.644 2.695.644 1.406 0 2.487-.384 3.242-1.152.768-.768 1.152-1.895 1.152-3.379v-3.164h-.019c-.612 1.211-1.445 2.103-2.5 2.676-1.042.56-2.24.84-3.594.84-1.797 0-3.366-.45-4.707-1.348-1.341-.899-2.383-2.129-3.125-3.692-.729-1.575-1.094-3.391-1.094-5.449 0-2.07.371-3.899 1.114-5.488.755-1.589 1.797-2.832 3.125-3.731 1.341-.911 2.89-1.367 4.648-1.367 1.328 0 2.513.287 3.555.86 1.054.56 1.914 1.412 2.578 2.558h.019v-2.988h5.684v19.824c0 2.175-.43 3.939-1.289 5.293-.846 1.367-2.025 2.363-3.535 2.988-1.511.638-3.262.958-5.254.958Zm-.234-13.028c1.458 0 2.63-.54 3.515-1.621.886-1.081 1.328-2.526 1.328-4.336 0-1.797-.442-3.236-1.328-4.316-.885-1.081-2.057-1.621-3.515-1.621-1.394 0-2.514.52-3.36 1.562-.833 1.029-1.25 2.487-1.25 4.375 0 1.901.417 3.373 1.25 4.414.846 1.029 1.966 1.543 3.36 1.543Zm20.156-24.512V404h-5.762v-29.102h5.762Zm13.496 29.571c-2.083 0-3.9-.462-5.449-1.387-1.537-.924-2.735-2.194-3.594-3.809-.846-1.627-1.27-3.483-1.27-5.566 0-2.096.43-3.958 1.289-5.586.873-1.628 2.071-2.904 3.594-3.828 1.524-.925 3.268-1.387 5.235-1.387 2.031 0 3.802.456 5.312 1.367 1.523.899 2.708 2.155 3.555 3.77.859 1.602 1.289 3.45 1.289 5.547v1.543h-14.668c.052 1.523.501 2.741 1.347 3.652.847.912 2.025 1.367 3.536 1.367 1.119 0 2.05-.241 2.793-.722.755-.482 1.263-1.12 1.523-1.914h5.254a7.387 7.387 0 0 1-1.738 3.613c-.912 1.042-2.058 1.862-3.438 2.461-1.38.586-2.903.879-4.57.879Zm-4.668-13.008h9.199c-.143-1.289-.625-2.305-1.445-3.047-.808-.755-1.862-1.133-3.164-1.133-1.289 0-2.338.378-3.145 1.133-.807.742-1.289 1.758-1.445 3.047Zm37.461 13.008c-3.724 0-6.628-.879-8.711-2.637-2.07-1.758-3.106-4.219-3.106-7.383h5.801c.039 1.602.593 2.852 1.66 3.75 1.068.886 2.533 1.328 4.395 1.328 1.667 0 3.008-.338 4.023-1.015 1.016-.677 1.524-1.582 1.524-2.715 0-.938-.41-1.699-1.231-2.285-.807-.586-2.135-1.081-3.984-1.485l-3.066-.664c-5.704-1.237-8.555-3.932-8.555-8.086 0-1.77.462-3.313 1.387-4.629.924-1.328 2.213-2.363 3.867-3.105 1.653-.742 3.587-1.113 5.801-1.113 3.346 0 5.996.833 7.949 2.5 1.966 1.666 2.995 3.965 3.086 6.894h-5.625c-.105-1.38-.638-2.467-1.602-3.262-.963-.794-2.226-1.191-3.789-1.191-1.484 0-2.702.339-3.652 1.016-.938.677-1.407 1.543-1.407 2.597 0 .899.391 1.621 1.172 2.168.782.547 2.064 1.016 3.848 1.407l2.793.605c3.099.664 5.365 1.66 6.797 2.988 1.445 1.315 2.168 3.067 2.168 5.254 0 2.8-1.029 5.013-3.086 6.641-2.057 1.614-4.876 2.422-8.457 2.422Zm14.941-.469v-20.625h5.762V404h-5.762Zm2.871-23.223c-.95 0-1.738-.286-2.363-.859-.625-.586-.937-1.322-.937-2.207 0-.885.312-1.615.937-2.188.625-.585 1.413-.878 2.363-.878.938 0 1.719.293 2.344.878.625.573.938 1.303.938 2.188 0 .885-.313 1.621-.938 2.207-.625.573-1.406.859-2.344.859Zm16.719 31.661c-2.93 0-5.195-.612-6.797-1.836-1.601-1.224-2.545-2.839-2.832-4.844h5.547c.208.781.671 1.38 1.387 1.797.716.429 1.614.644 2.695.644 1.406 0 2.487-.384 3.242-1.152.768-.768 1.153-1.895 1.153-3.379v-3.164h-.02c-.612 1.211-1.445 2.103-2.5 2.676-1.042.56-2.24.84-3.594.84-1.797 0-3.366-.45-4.707-1.348-1.341-.899-2.383-2.129-3.125-3.692-.729-1.575-1.093-3.391-1.093-5.449 0-2.07.371-3.899 1.113-5.488.755-1.589 1.797-2.832 3.125-3.731 1.341-.911 2.89-1.367 4.648-1.367 1.328 0 2.513.287 3.555.86 1.055.56 1.914 1.412 2.578 2.558h.02v-2.988h5.683v19.824c0 2.175-.43 3.939-1.289 5.293-.846 1.367-2.025 2.363-3.535 2.988-1.51.638-3.262.958-5.254.958Zm-.234-13.028c1.458 0 2.63-.54 3.515-1.621.886-1.081 1.328-2.526 1.328-4.336 0-1.797-.442-3.236-1.328-4.316-.885-1.081-2.057-1.621-3.515-1.621-1.394 0-2.513.52-3.36 1.562-.833 1.029-1.25 2.487-1.25 4.375 0 1.901.417 3.373 1.25 4.414.847 1.029 1.966 1.543 3.36 1.543Zm20.156-6.875V404h-5.762v-20.625h5.664v3.242c.703-1.172 1.582-2.077 2.637-2.715 1.055-.638 2.324-.957 3.809-.957 2.187 0 3.938.71 5.254 2.129 1.315 1.406 1.972 3.412 1.972 6.016V404h-5.742v-11.855c0-1.381-.332-2.429-.996-3.145-.664-.729-1.595-1.094-2.793-1.094-1.185 0-2.155.371-2.91 1.114-.755.742-1.133 1.914-1.133 3.515Zm23.984 11.817c-2.057 0-3.756-.515-5.097-1.543-1.328-1.029-1.993-2.572-1.993-4.629 0-1.55.372-2.761 1.114-3.633.742-.886 1.725-1.53 2.949-1.934a17.936 17.936 0 0 1 3.984-.801c1.888-.195 3.21-.39 3.965-.585.755-.196 1.133-.625 1.133-1.289v-.137c0-.755-.299-1.374-.898-1.856-.599-.481-1.426-.722-2.481-.722-1.068 0-1.934.247-2.598.742-.664.495-1.028 1.139-1.093 1.933h-5.41c.13-2.122 1.002-3.808 2.617-5.058 1.614-1.263 3.834-1.895 6.66-1.895 2.825 0 5.013.632 6.562 1.895 1.55 1.25 2.325 2.975 2.325 5.176V404h-5.625v-2.91h-.079a6.27 6.27 0 0 1-2.246 2.383c-.95.586-2.213.879-3.789.879Zm1.602-4.004c1.38 0 2.474-.365 3.281-1.094.807-.742 1.211-1.673 1.211-2.793v-2.07c-.325.182-.866.351-1.621.507-.755.144-1.595.287-2.52.43-.989.156-1.829.443-2.519.86-.677.403-1.016 1.015-1.016 1.835 0 .73.287 1.303.86 1.719.586.404 1.36.606 2.324.606Zm26.055-16.973v4.512h-4.219v9.746c0 .703.137 1.191.41 1.465.286.26.82.39 1.602.39h2.207V404h-3.36c-2.265 0-3.939-.443-5.019-1.328-1.068-.886-1.602-2.266-1.602-4.141v-10.644h-3.555v-4.512h3.555v-5.625h5.762v5.625h4.219Zm10.156 21.055c-2.201 0-3.959-.703-5.274-2.11-1.315-1.419-1.972-3.431-1.972-6.035v-12.91h5.761v11.855c0 1.381.326 2.435.977 3.165.664.716 1.602 1.074 2.813 1.074 1.184 0 2.154-.371 2.91-1.114.755-.742 1.132-1.914 1.132-3.515v-11.465h5.743V404h-5.645v-3.242c-.703 1.172-1.582 2.077-2.637 2.715-1.054.638-2.324.957-3.808.957Zm16.191-.43v-20.625h5.547v3.516h.059c.377-1.237.97-2.155 1.777-2.754.807-.599 1.895-.899 3.262-.899.338 0 .644.007.918.02.286.013.547.019.781.019v4.903c-.208-.013-.553-.033-1.035-.059a26.832 26.832 0 0 0-1.445-.039c-1.185 0-2.168.404-2.95 1.211-.768.807-1.152 1.986-1.152 3.535V404h-5.762Zm24.141.469c-2.083 0-3.9-.462-5.449-1.387-1.537-.924-2.735-2.194-3.594-3.809-.846-1.627-1.27-3.483-1.27-5.566 0-2.096.43-3.958 1.289-5.586.873-1.628 2.071-2.904 3.594-3.828 1.524-.925 3.268-1.387 5.235-1.387 2.031 0 3.802.456 5.312 1.367 1.523.899 2.708 2.155 3.555 3.77.859 1.602 1.289 3.45 1.289 5.547v1.543h-14.668c.052 1.523.501 2.741 1.347 3.652.847.912 2.025 1.367 3.536 1.367 1.119 0 2.05-.241 2.793-.722.755-.482 1.263-1.12 1.523-1.914h5.254a7.387 7.387 0 0 1-1.738 3.613c-.912 1.042-2.058 1.862-3.438 2.461-1.38.586-2.903.879-4.57.879Zm-4.668-13.008h9.199c-.143-1.289-.625-2.305-1.445-3.047-.808-.755-1.862-1.133-3.164-1.133-1.289 0-2.338.378-3.145 1.133-.807.742-1.289 1.758-1.445 3.047ZM843.242 369v-29.102h11.485c2.174 0 4.056.391 5.644 1.172 1.602.769 2.832 1.869 3.691 3.301.873 1.432 1.309 3.125 1.309 5.078 0 1.953-.443 3.646-1.328 5.078-.872 1.42-2.109 2.52-3.711 3.301-1.602.781-3.496 1.172-5.684 1.172h-5.39v10h-6.016Zm6.016-15.039h5.078c1.588 0 2.845-.404 3.769-1.211.925-.82 1.387-1.921 1.387-3.301 0-1.393-.462-2.493-1.387-3.301-.924-.807-2.181-1.21-3.769-1.21h-5.078v9.023Zm27.597 15.508c-2.083 0-3.912-.449-5.488-1.348a9.595 9.595 0 0 1-3.672-3.75c-.872-1.614-1.308-3.503-1.308-5.664 0-2.161.436-4.049 1.308-5.664.886-1.615 2.11-2.871 3.672-3.77 1.576-.911 3.405-1.367 5.488-1.367 2.097 0 3.926.456 5.489 1.367a9.397 9.397 0 0 1 3.672 3.77c.885 1.615 1.328 3.503 1.328 5.664 0 2.148-.443 4.03-1.328 5.645a9.395 9.395 0 0 1-3.672 3.769c-1.563.899-3.392 1.348-5.489 1.348Zm0-4.668c1.407 0 2.54-.534 3.399-1.602.859-1.081 1.289-2.578 1.289-4.492 0-1.927-.43-3.431-1.289-4.512-.859-1.08-1.992-1.621-3.399-1.621-1.393 0-2.519.541-3.378 1.621-.86 1.081-1.289 2.585-1.289 4.512 0 1.914.429 3.411 1.289 4.492.859 1.068 1.985 1.602 3.378 1.602Zm24.825 4.668c-3.724 0-6.628-.879-8.711-2.637-2.071-1.758-3.106-4.219-3.106-7.383h5.801c.039 1.602.593 2.852 1.66 3.75 1.068.886 2.533 1.328 4.395 1.328 1.666 0 3.008-.338 4.023-1.015 1.016-.677 1.524-1.582 1.524-2.715 0-.938-.411-1.699-1.231-2.285-.807-.586-2.135-1.081-3.984-1.485l-3.067-.664c-5.703-1.237-8.554-3.932-8.554-8.086 0-1.77.462-3.313 1.386-4.629.925-1.328 2.214-2.363 3.868-3.105 1.653-.742 3.587-1.113 5.8-1.113 3.347 0 5.996.833 7.95 2.5 1.966 1.666 2.994 3.965 3.086 6.894h-5.625c-.105-1.38-.638-2.467-1.602-3.262-.964-.794-2.227-1.191-3.789-1.191-1.484 0-2.702.339-3.652 1.016-.938.677-1.407 1.543-1.407 2.597 0 .899.391 1.621 1.172 2.168.781.547 2.064 1.016 3.848 1.407l2.793.605c3.099.664 5.364 1.66 6.797 2.988 1.445 1.315 2.168 3.067 2.168 5.254 0 2.8-1.029 5.013-3.086 6.641-2.058 1.614-4.877 2.422-8.457 2.422Zm31.894-.469-10.215-29.102h6.543l4.707 14.161a250.2 250.2 0 0 1 1.368 4.453c.468 1.562.963 3.235 1.484 5.019.508-1.784.983-3.457 1.426-5.019.455-1.576.898-3.06 1.328-4.453l4.551-14.161h6.464l-10 29.102h-7.656Zm23.262.352c-2.057 0-3.757-.515-5.098-1.543-1.328-1.029-1.992-2.572-1.992-4.629 0-1.55.371-2.761 1.113-3.633.743-.886 1.726-1.53 2.95-1.934a17.936 17.936 0 0 1 3.984-.801c1.888-.195 3.21-.39 3.965-.585.755-.196 1.133-.625 1.133-1.289v-.137c0-.755-.3-1.374-.899-1.856-.599-.481-1.426-.722-2.48-.722-1.068 0-1.934.247-2.598.742-.664.495-1.029 1.139-1.094 1.933h-5.41c.13-2.122 1.003-3.808 2.617-5.058 1.615-1.263 3.835-1.895 6.661-1.895 2.825 0 5.013.632 6.562 1.895 1.549 1.25 2.324 2.975 2.324 5.176V369h-5.625v-2.91h-.078a6.278 6.278 0 0 1-2.246 2.383c-.951.586-2.214.879-3.789.879Zm1.602-4.004c1.38 0 2.473-.365 3.281-1.094.807-.742 1.211-1.673 1.211-2.793v-2.07c-.326.182-.866.351-1.621.507-.756.144-1.595.287-2.52.43-.99.156-1.829.443-2.519.86-.678.403-1.016 1.015-1.016 1.835 0 .73.286 1.303.859 1.719.586.404 1.361.606 2.325.606Zm19.96-25.45V369h-5.761v-29.102h5.761ZM982.48 369v-20.625h5.762V369h-5.762Zm2.872-23.223c-.951 0-1.739-.286-2.364-.859-.625-.586-.937-1.322-.937-2.207 0-.885.312-1.615.937-2.188.625-.585 1.413-.878 2.364-.878.937 0 1.718.293 2.343.878.625.573.938 1.303.938 2.188 0 .885-.313 1.621-.938 2.207-.625.573-1.406.859-2.343.859Zm14.998 23.653c-1.795 0-3.364-.45-4.705-1.348-1.342-.898-2.383-2.155-3.125-3.77-.73-1.614-1.094-3.496-1.094-5.644 0-2.109.371-3.971 1.113-5.586.755-1.615 1.797-2.871 3.125-3.77 1.341-.911 2.891-1.367 4.646-1.367 1.33 0 2.51.274 3.54.821 1.03.533 1.87 1.354 2.54 2.461h.02v-11.329h5.74V369h-5.67v-3.164h-.02c-.59 1.198-1.43 2.096-2.5 2.695-1.05.599-2.25.899-3.61.899Zm1.49-4.688c1.45 0 2.63-.547 3.51-1.64.89-1.107 1.33-2.585 1.33-4.434 0-1.836-.44-3.307-1.33-4.414-.88-1.107-2.06-1.66-3.51-1.66-1.4 0-2.517.534-3.363 1.601-.834 1.055-1.25 2.546-1.25 4.473s.416 3.424 1.25 4.492c.846 1.055 1.963 1.582 3.363 1.582Zm20.7 4.61c-2.06 0-3.76-.515-5.1-1.543-1.33-1.029-1.99-2.572-1.99-4.629 0-1.55.37-2.761 1.11-3.633.74-.886 1.73-1.53 2.95-1.934 1.23-.403 2.55-.67 3.99-.801 1.88-.195 3.21-.39 3.96-.585.76-.196 1.13-.625 1.13-1.289v-.137c0-.755-.3-1.374-.89-1.856-.6-.481-1.43-.722-2.49-.722-1.06 0-1.93.247-2.59.742-.67.495-1.03 1.139-1.1 1.933h-5.41c.13-2.122 1.01-3.808 2.62-5.058 1.62-1.263 3.84-1.895 6.66-1.895 2.83 0 5.01.632 6.56 1.895 1.55 1.25 2.33 2.975 2.33 5.176V369h-5.63v-2.91h-.08a6.218 6.218 0 0 1-2.24 2.383c-.95.586-2.22.879-3.79.879Zm1.6-4.004c1.38 0 2.47-.365 3.28-1.094.81-.742 1.21-1.673 1.21-2.793v-2.07c-.32.182-.86.351-1.62.507a69.5 69.5 0 0 1-2.52.43c-.99.156-1.83.443-2.52.86-.67.403-1.01 1.015-1.01 1.835 0 .73.28 1.303.86 1.719.58.404 1.36.606 2.32.606Zm26.06-16.973v4.512h-4.22v9.746c0 .703.13 1.191.41 1.465.28.26.82.39 1.6.39h2.21V369h-3.36c-2.27 0-3.94-.443-5.02-1.328-1.07-.886-1.61-2.266-1.61-4.141v-10.644h-3.55v-4.512h3.55v-5.625h5.77v5.625h4.22Zm12.16 21.094c-2.08 0-3.91-.449-5.48-1.348-1.57-.898-2.79-2.148-3.68-3.75-.87-1.614-1.31-3.503-1.31-5.664 0-2.161.44-4.049 1.31-5.664.89-1.615 2.11-2.871 3.68-3.77 1.57-.911 3.4-1.367 5.48-1.367 2.1 0 3.93.456 5.49 1.367a9.341 9.341 0 0 1 3.67 3.77c.89 1.615 1.33 3.503 1.33 5.664 0 2.148-.44 4.03-1.33 5.645-.87 1.614-2.09 2.871-3.67 3.769-1.56.899-3.39 1.348-5.49 1.348Zm0-4.668c1.41 0 2.54-.534 3.4-1.602.86-1.081 1.29-2.578 1.29-4.492 0-1.927-.43-3.431-1.29-4.512-.86-1.08-1.99-1.621-3.4-1.621-1.39 0-2.52.541-3.38 1.621-.86 1.081-1.28 2.585-1.28 4.512 0 1.914.42 3.411 1.28 4.492.86 1.068 1.99 1.602 3.38 1.602Zm13.68 4.199v-20.625h5.54v3.516h.06c.38-1.237.97-2.155 1.78-2.754.81-.599 1.89-.899 3.26-.899.34 0 .64.007.92.02.28.013.54.019.78.019v4.903c-.21-.013-.55-.033-1.04-.059-.48-.026-.96-.039-1.44-.039-1.19 0-2.17.404-2.95 1.211-.77.807-1.15 1.986-1.15 3.535V369h-5.76Zm-139.77 40.469c-3.724 0-6.628-.879-8.711-2.637-2.071-1.758-3.106-4.219-3.106-7.383h5.801c.039 1.602.592 2.852 1.66 3.75 1.068.886 2.533 1.328 4.395 1.328 1.666 0 3.007-.338 4.023-1.015 1.016-.677 1.523-1.582 1.523-2.715 0-.938-.41-1.699-1.23-2.285-.807-.586-2.135-1.081-3.984-1.485l-3.067-.664c-5.703-1.237-8.554-3.932-8.554-8.086 0-1.77.462-3.313 1.386-4.629.925-1.328 2.214-2.363 3.867-3.105 1.654-.742 3.588-1.113 5.801-1.113 3.347 0 5.996.833 7.949 2.5 1.967 1.666 2.995 3.965 3.086 6.894h-5.625c-.104-1.38-.638-2.467-1.601-3.262-.964-.794-2.227-1.191-3.789-1.191-1.485 0-2.702.339-3.653 1.016-.937.677-1.406 1.543-1.406 2.597 0 .899.391 1.621 1.172 2.168.781.547 2.064 1.016 3.848 1.407l2.793.605c3.099.664 5.364 1.66 6.797 2.988 1.445 1.315 2.167 3.067 2.167 5.254 0 2.8-1.028 5.013-3.085 6.641-2.058 1.614-4.877 2.422-8.457 2.422Zm24.355 0c-2.083 0-3.9-.462-5.449-1.387-1.537-.924-2.735-2.194-3.594-3.809-.846-1.627-1.27-3.483-1.27-5.566 0-2.096.43-3.958 1.29-5.586.872-1.628 2.07-2.904 3.593-3.828 1.524-.925 3.269-1.387 5.235-1.387 2.031 0 3.802.456 5.312 1.367 1.524.899 2.709 2.155 3.555 3.77.859 1.602 1.289 3.45 1.289 5.547v1.543h-14.668c.052 1.523.501 2.741 1.348 3.652.846.912 2.024 1.367 3.535 1.367 1.12 0 2.051-.241 2.793-.722.755-.482 1.263-1.12 1.523-1.914h5.254a7.387 7.387 0 0 1-1.738 3.613c-.912 1.042-2.057 1.862-3.438 2.461-1.38.586-2.903.879-4.57.879Zm-4.668-13.008h9.199c-.143-1.289-.625-2.305-1.445-3.047-.807-.755-1.862-1.133-3.164-1.133-1.289 0-2.337.378-3.145 1.133-.807.742-1.289 1.758-1.445 3.047Zm29.57-8.086v4.512h-4.218v9.746c0 .703.136 1.191.41 1.465.286.26.82.39 1.601.39h2.207V409h-3.359c-2.266 0-3.939-.443-5.02-1.328-1.067-.886-1.601-2.266-1.601-4.141v-10.644h-3.555v-4.512h3.555v-5.625h5.762v5.625h4.218Zm11.172 21.133c-2.682 0-4.902-.612-6.66-1.836-1.745-1.224-2.708-2.943-2.891-5.156h5.664c.105.898.482 1.601 1.133 2.109s1.537.762 2.657.762c1.067 0 1.907-.202 2.519-.606.612-.403.919-.924.919-1.562 0-.547-.242-.983-.724-1.309-.468-.338-1.119-.592-1.953-.762l-3.613-.703c-4.089-.781-6.133-2.786-6.133-6.015 0-1.953.788-3.522 2.363-4.707 1.576-1.185 3.705-1.778 6.387-1.778 2.669 0 4.813.625 6.443 1.875s2.47 2.95 2.52 5.098H1000c-.013-.82-.345-1.504-.996-2.051-.638-.56-1.465-.84-2.481-.84-.989 0-1.764.215-2.324.645-.56.417-.84.931-.84 1.543 0 .534.215.97.645 1.308.443.339 1.061.593 1.855.762l3.907.762c2.084.404 3.614 1.068 4.594 1.992.99.912 1.48 2.129 1.48 3.652 0 1.368-.39 2.566-1.17 3.594-.77 1.016-1.84 1.81-3.22 2.383-1.37.56-2.954.84-4.751.84ZM1288.96 369h-10.27v-29.102h10.39c2.91 0 5.44.593 7.58 1.778 2.13 1.185 3.78 2.864 4.94 5.039 1.16 2.174 1.74 4.746 1.74 7.715 0 2.981-.58 5.566-1.74 7.754-1.16 2.174-2.81 3.854-4.96 5.039-2.14 1.185-4.7 1.777-7.68 1.777Zm-4.26-5.059h3.95c2.94 0 5.12-.82 6.52-2.461 1.41-1.64 2.11-3.99 2.11-7.05 0-3.06-.71-5.404-2.13-7.032-1.4-1.627-3.55-2.441-6.44-2.441h-4.01v18.984Zm21.9 5.059v-20.625h5.76V369h-5.76Zm2.87-23.223c-.95 0-1.74-.286-2.36-.859-.63-.586-.94-1.322-.94-2.207 0-.885.31-1.615.94-2.188.62-.585 1.41-.878 2.36-.878.94 0 1.72.293 2.34.878.63.573.94 1.303.94 2.188 0 .885-.31 1.621-.94 2.207-.62.573-1.4.859-2.34.859Zm6.97 23.223v-20.625h5.55v3.516h.06c.37-1.237.97-2.155 1.77-2.754.81-.599 1.9-.899 3.27-.899.33 0 .64.007.91.02.29.013.55.019.79.019v4.903c-.21-.013-.56-.033-1.04-.059-.48-.026-.96-.039-1.45-.039-1.18 0-2.16.404-2.94 1.211-.77.807-1.16 1.986-1.16 3.535V369h-5.76Zm24.14.469c-2.08 0-3.9-.462-5.45-1.387-1.53-.924-2.73-2.194-3.59-3.809-.85-1.627-1.27-3.483-1.27-5.566 0-2.096.43-3.958 1.29-5.586.87-1.628 2.07-2.904 3.59-3.828 1.53-.925 3.27-1.387 5.24-1.387 2.03 0 3.8.456 5.31 1.367 1.52.899 2.71 2.155 3.55 3.77.86 1.602 1.29 3.45 1.29 5.547v1.543h-14.66c.05 1.523.5 2.741 1.34 3.652.85.912 2.03 1.367 3.54 1.367 1.12 0 2.05-.241 2.79-.722.76-.482 1.26-1.12 1.52-1.914h5.26a7.425 7.425 0 0 1-1.74 3.613c-.91 1.042-2.06 1.862-3.44 2.461-1.38.586-2.9.879-4.57.879Zm-4.67-13.008h9.2c-.14-1.289-.62-2.305-1.44-3.047-.81-.755-1.86-1.133-3.17-1.133-1.29 0-2.33.378-3.14 1.133-.81.742-1.29 1.758-1.45 3.047Zm27.17 13.008c-2.07 0-3.88-.449-5.43-1.348-1.55-.911-2.76-2.174-3.63-3.789-.86-1.628-1.29-3.503-1.29-5.625 0-2.135.43-4.01 1.29-5.625.87-1.628 2.08-2.897 3.63-3.809 1.55-.911 3.36-1.367 5.43-1.367 1.81 0 3.42.352 4.83 1.055 1.42.69 2.55 1.654 3.39 2.891.86 1.224 1.35 2.636 1.47 4.238h-5.57c-.15-1.055-.58-1.908-1.29-2.559-.69-.651-1.6-.976-2.75-.976-1.45 0-2.58.553-3.4 1.66-.82 1.107-1.23 2.604-1.23 4.492 0 1.875.41 3.366 1.23 4.473.82 1.093 1.95 1.64 3.4 1.64 1.16 0 2.07-.325 2.73-.976.67-.651 1.09-1.517 1.27-2.598h5.61c-.08 1.589-.54 3.001-1.39 4.238-.84 1.237-1.98 2.214-3.42 2.93-1.41.703-3.04 1.055-4.88 1.055Zm24.63-21.094v4.512h-4.22v9.746c0 .703.14 1.191.41 1.465.29.26.82.39 1.6.39h2.21V369h-3.36c-2.26 0-3.94-.443-5.02-1.328-1.07-.886-1.6-2.266-1.6-4.141v-10.644h-3.55v-4.512h3.55v-5.625h5.76v5.625h4.22Zm21.08 21.094c-2.09 0-3.92-.449-5.49-1.348-1.57-.898-2.79-2.148-3.68-3.75-.87-1.614-1.3-3.503-1.3-5.664 0-2.161.43-4.049 1.3-5.664.89-1.615 2.11-2.871 3.68-3.77 1.57-.911 3.4-1.367 5.49-1.367 2.09 0 3.92.456 5.48 1.367 1.58.899 2.8 2.155 3.68 3.77.88 1.615 1.32 3.503 1.32 5.664 0 2.148-.44 4.03-1.32 5.645-.88 1.614-2.1 2.871-3.68 3.769-1.56.899-3.39 1.348-5.48 1.348Zm0-4.668c1.4 0 2.53-.534 3.39-1.602.86-1.081 1.29-2.578 1.29-4.492 0-1.927-.43-3.431-1.29-4.512-.86-1.08-1.99-1.621-3.39-1.621-1.4 0-2.52.541-3.38 1.621-.86 1.081-1.29 2.585-1.29 4.512 0 1.914.43 3.411 1.29 4.492.86 1.068 1.98 1.602 3.38 1.602Zm13.67 4.199v-20.625h5.54v3.516h.06c.38-1.237.97-2.155 1.78-2.754.81-.599 1.89-.899 3.26-.899.34 0 .65.007.92.02.29.013.55.019.78.019v4.903c-.21-.013-.55-.033-1.03-.059a27.27 27.27 0 0 0-1.45-.039c-1.18 0-2.17.404-2.95 1.211-.77.807-1.15 1.986-1.15 3.535V369h-5.76Zm22.54 0v-4.648l12.87-15.821c.48-.586.97-1.165 1.46-1.738.5-.586 1-1.165 1.51-1.738h-15.41v-5.157h22.71v4.649l-12.66 15.664c-.49.599-1 1.204-1.52 1.816-.51.612-1.03 1.218-1.56 1.817h15.88V369H1445Zm26.5 0v-29.102h6.02v13.575c.71-.86 1.43-1.719 2.14-2.578.72-.86 1.44-1.726 2.17-2.598l7.19-8.399h7.21l-10.9 12.579L1496.52 369h-6.93l-8.23-12.48-3.84 4.472V369h-6.02Zm37.68-16.855v4.609h-13.23v-4.609h13.23Zm4.47 16.855v-29.102h20.88v5.157h-14.87v6.738h13.75v5.019h-13.75v7.032h14.87V369h-20.88Zm29.96-11.465V369h-5.76v-20.625h5.66v3.242c.7-1.172 1.58-2.077 2.64-2.715 1.05-.638 2.32-.957 3.81-.957 2.18 0 3.94.71 5.25 2.129 1.32 1.406 1.97 3.412 1.97 6.016V369h-5.74v-11.855c0-1.381-.33-2.429-.99-3.145-.67-.729-1.6-1.094-2.8-1.094-1.18 0-2.15.371-2.91 1.114-.75.742-1.13 1.914-1.13 3.515Zm23.98 11.817c-2.05 0-3.75-.515-5.09-1.543-1.33-1.029-2-2.572-2-4.629 0-1.55.38-2.761 1.12-3.633.74-.886 1.72-1.53 2.95-1.934 1.22-.403 2.55-.67 3.98-.801 1.89-.195 3.21-.39 3.97-.585.75-.196 1.13-.625 1.13-1.289v-.137c0-.755-.3-1.374-.9-1.856-.6-.481-1.43-.722-2.48-.722-1.07 0-1.93.247-2.6.742-.66.495-1.03 1.139-1.09 1.933h-5.41c.13-2.122 1-3.808 2.62-5.058 1.61-1.263 3.83-1.895 6.66-1.895 2.82 0 5.01.632 6.56 1.895 1.55 1.25 2.32 2.975 2.32 5.176V369h-5.62v-2.91h-.08a6.32 6.32 0 0 1-2.25 2.383c-.95.586-2.21.879-3.79.879Zm1.61-4.004c1.38 0 2.47-.365 3.28-1.094.8-.742 1.21-1.673 1.21-2.793v-2.07c-.33.182-.87.351-1.62.507-.76.144-1.6.287-2.52.43-.99.156-1.83.443-2.52.86-.68.403-1.02 1.015-1.02 1.835 0 .73.29 1.303.86 1.719.59.404 1.36.606 2.33.606Zm26.01 4.082c-1.35 0-2.56-.3-3.63-.899-1.06-.599-1.88-1.497-2.48-2.695h-.02V369h-5.69v-29.102h5.77v11.329h.02c.66-1.107 1.5-1.928 2.52-2.461 1.02-.547 2.21-.821 3.55-.821 1.76 0 3.3.456 4.63 1.367 1.34.899 2.38 2.155 3.12 3.77.76 1.615 1.14 3.477 1.14 5.586 0 2.148-.37 4.03-1.12 5.644-.74 1.615-1.78 2.872-3.12 3.77-1.33.898-2.89 1.348-4.69 1.348Zm-1.48-4.688c1.39 0 2.5-.527 3.34-1.582.84-1.068 1.27-2.565 1.27-4.492s-.43-3.418-1.27-4.473c-.84-1.067-1.95-1.601-3.34-1.601-1.46 0-2.63.553-3.52 1.66-.88 1.107-1.33 2.578-1.33 4.414 0 1.849.45 3.327 1.33 4.434.89 1.093 2.06 1.64 3.52 1.64Zm19.33-24.844V369h-5.76v-29.102h5.76Zm13.5 29.571c-2.08 0-3.9-.462-5.45-1.387-1.54-.924-2.73-2.194-3.59-3.809-.85-1.627-1.27-3.483-1.27-5.566 0-2.096.43-3.958 1.29-5.586.87-1.628 2.07-2.904 3.59-3.828 1.52-.925 3.27-1.387 5.23-1.387 2.03 0 3.81.456 5.32 1.367 1.52.899 2.7 2.155 3.55 3.77.86 1.602 1.29 3.45 1.29 5.547v1.543h-14.67c.05 1.523.5 2.741 1.35 3.652.85.912 2.02 1.367 3.53 1.367 1.12 0 2.06-.241 2.8-.722.75-.482 1.26-1.12 1.52-1.914h5.25a7.323 7.323 0 0 1-1.73 3.613c-.92 1.042-2.06 1.862-3.44 2.461-1.38.586-2.9.879-4.57.879Zm-4.67-13.008h9.2c-.14-1.289-.63-2.305-1.45-3.047-.8-.755-1.86-1.133-3.16-1.133-1.29 0-2.34.378-3.14 1.133-.81.742-1.29 1.758-1.45 3.047Zm25.74 12.969c-1.79 0-3.36-.45-4.7-1.348-1.35-.898-2.39-2.155-3.13-3.77-.73-1.614-1.09-3.496-1.09-5.644 0-2.109.37-3.971 1.11-5.586.76-1.615 1.8-2.871 3.13-3.77 1.34-.911 2.89-1.367 4.64-1.367 1.33 0 2.51.274 3.54.821 1.03.533 1.87 1.354 2.54 2.461h.02v-11.329h5.74V369h-5.66v-3.164h-.02c-.6 1.198-1.44 2.096-2.5 2.695-1.06.599-2.26.899-3.62.899Zm1.49-4.688c1.46 0 2.63-.547 3.51-1.64.89-1.107 1.33-2.585 1.33-4.434 0-1.836-.44-3.307-1.33-4.414-.88-1.107-2.05-1.66-3.51-1.66-1.4 0-2.52.534-3.36 1.601-.84 1.055-1.25 2.546-1.25 4.473s.41 3.424 1.25 4.492c.84 1.055 1.96 1.582 3.36 1.582Zm-379.71 44.727c-2.67 0-5.05-.606-7.13-1.817-2.08-1.224-3.72-2.955-4.92-5.195-1.19-2.253-1.78-4.915-1.78-7.988 0-3.099.59-5.768 1.78-8.008 1.2-2.253 2.84-3.984 4.92-5.195 2.08-1.224 4.46-1.836 7.13-1.836 2.28 0 4.32.442 6.13 1.328a11.68 11.68 0 0 1 4.48 3.75c1.15 1.601 1.89 3.483 2.2 5.644h-6.07c-.35-1.718-1.12-3.047-2.31-3.984-1.17-.951-2.62-1.426-4.35-1.426-2.48 0-4.4.879-5.78 2.637-1.38 1.745-2.07 4.108-2.07 7.09 0 2.955.69 5.312 2.07 7.07 1.38 1.745 3.3 2.617 5.78 2.617 1.72 0 3.16-.468 4.33-1.406 1.19-.938 1.97-2.259 2.35-3.965h6.05c-.31 2.162-1.05 4.043-2.2 5.645-1.16 1.601-2.65 2.845-4.48 3.73-1.81.873-3.85 1.309-6.13 1.309Zm25.61 0c-2.09 0-3.92-.449-5.49-1.348-1.57-.898-2.79-2.148-3.67-3.75-.88-1.614-1.31-3.503-1.31-5.664 0-2.161.43-4.049 1.31-5.664.88-1.615 2.1-2.871 3.67-3.77 1.57-.911 3.4-1.367 5.49-1.367 2.09 0 3.92.456 5.48 1.367 1.58.899 2.8 2.155 3.68 3.77.88 1.615 1.32 3.503 1.32 5.664 0 2.148-.44 4.03-1.32 5.645-.88 1.614-2.1 2.871-3.68 3.769-1.56.899-3.39 1.348-5.48 1.348Zm0-4.668c1.4 0 2.53-.534 3.39-1.602.86-1.081 1.29-2.578 1.29-4.492 0-1.927-.43-3.431-1.29-4.512-.86-1.08-1.99-1.621-3.39-1.621-1.4 0-2.52.541-3.38 1.621-.86 1.081-1.29 2.585-1.29 4.512 0 1.914.43 3.411 1.29 4.492.86 1.068 1.98 1.602 3.38 1.602Zm19.43-7.266V409h-5.76v-20.625h5.66v3.242c.7-1.172 1.58-2.077 2.64-2.715 1.05-.638 2.32-.957 3.81-.957 2.18 0 3.94.71 5.25 2.129 1.32 1.406 1.97 3.412 1.97 6.016V409h-5.74v-11.855c0-1.381-.33-2.429-.99-3.145-.67-.729-1.6-1.094-2.8-1.094-1.18 0-2.15.371-2.91 1.114-.75.742-1.13 1.914-1.13 3.515Zm26.25 11.973c-2.68 0-4.9-.612-6.66-1.836-1.75-1.224-2.71-2.943-2.89-5.156h5.66c.11.898.48 1.601 1.14 2.109.65.508 1.53.762 2.65.762 1.07 0 1.91-.202 2.52-.606.61-.403.92-.924.92-1.562 0-.547-.24-.983-.72-1.309-.47-.338-1.12-.592-1.96-.762l-3.61-.703c-4.09-.781-6.13-2.786-6.13-6.015 0-1.953.78-3.522 2.36-4.707 1.58-1.185 3.7-1.778 6.39-1.778 2.67 0 4.81.625 6.44 1.875 1.63 1.25 2.47 2.95 2.52 5.098H1344c-.01-.82-.35-1.504-1-2.051-.63-.56-1.46-.84-2.48-.84-.99 0-1.76.215-2.32.645-.56.417-.84.931-.84 1.543 0 .534.21.97.64 1.308.45.339 1.07.593 1.86.762l3.91.762c2.08.404 3.61 1.068 4.59 1.992.99.912 1.48 2.129 1.48 3.652 0 1.368-.39 2.566-1.17 3.594-.77 1.016-1.84 1.81-3.22 2.383-1.37.56-2.95.84-4.75.84Zm21.66-.039c-2.08 0-3.9-.462-5.45-1.387-1.54-.924-2.73-2.194-3.59-3.809-.85-1.627-1.27-3.483-1.27-5.566 0-2.096.43-3.958 1.29-5.586.87-1.628 2.07-2.904 3.59-3.828 1.52-.925 3.27-1.387 5.23-1.387 2.04 0 3.81.456 5.32 1.367 1.52.899 2.7 2.155 3.55 3.77.86 1.602 1.29 3.45 1.29 5.547v1.543h-14.67c.05 1.523.5 2.741 1.35 3.652.85.912 2.02 1.367 3.54 1.367 1.11 0 2.05-.241 2.79-.722.75-.482 1.26-1.12 1.52-1.914h5.26a7.425 7.425 0 0 1-1.74 3.613c-.91 1.042-2.06 1.862-3.44 2.461-1.38.586-2.9.879-4.57.879Zm-4.67-13.008h9.2c-.14-1.289-.62-2.305-1.44-3.047-.81-.755-1.87-1.133-3.17-1.133-1.29 0-2.34.378-3.14 1.133-.81.742-1.29 1.758-1.45 3.047Zm23.48 1.074V409h-5.76v-20.625h5.66v3.242c.7-1.172 1.58-2.077 2.64-2.715 1.05-.638 2.32-.957 3.81-.957 2.18 0 3.93.71 5.25 2.129 1.31 1.406 1.97 3.412 1.97 6.016V409H1389v-11.855c0-1.381-.33-2.429-1-3.145-.66-.729-1.59-1.094-2.79-1.094-1.18 0-2.15.371-2.91 1.114-.75.742-1.13 1.914-1.13 3.515Zm26.25 11.973c-2.68 0-4.9-.612-6.66-1.836-1.75-1.224-2.71-2.943-2.89-5.156h5.66c.11.898.48 1.601 1.13 2.109.66.508 1.54.762 2.66.762 1.07 0 1.91-.202 2.52-.606.61-.403.92-.924.92-1.562 0-.547-.24-.983-.72-1.309-.47-.338-1.12-.592-1.96-.762l-3.61-.703c-4.09-.781-6.13-2.786-6.13-6.015 0-1.953.78-3.522 2.36-4.707 1.57-1.185 3.7-1.778 6.39-1.778 2.67 0 4.81.625 6.44 1.875 1.63 1.25 2.47 2.95 2.52 5.098h-5.33c-.01-.82-.35-1.504-1-2.051-.64-.56-1.46-.84-2.48-.84-.99 0-1.76.215-2.32.645-.56.417-.84.931-.84 1.543 0 .534.21.97.64 1.308.45.339 1.06.593 1.86.762l3.9.762c2.09.404 3.62 1.068 4.59 1.992.99.912 1.49 2.129 1.49 3.652 0 1.368-.39 2.566-1.17 3.594-.77 1.016-1.85 1.81-3.23 2.383-1.36.56-2.95.84-4.74.84Zm19.49-.078c-2.2 0-3.96-.703-5.27-2.11-1.32-1.419-1.98-3.431-1.98-6.035v-12.91h5.77v11.855c0 1.381.32 2.435.97 3.165.67.716 1.6 1.074 2.81 1.074 1.19 0 2.16-.371 2.91-1.114.76-.742 1.14-1.914 1.14-3.515v-11.465h5.74V409h-5.64v-3.242c-.71 1.172-1.59 2.077-2.64 2.715-1.06.638-2.33.957-3.81.957Zm24.77.078c-2.69 0-4.91-.612-6.66-1.836-1.75-1.224-2.71-2.943-2.9-5.156h5.67c.1.898.48 1.601 1.13 2.109.65.508 1.54.762 2.66.762 1.07 0 1.91-.202 2.52-.606.61-.403.92-.924.92-1.562 0-.547-.25-.983-.73-1.309-.47-.338-1.12-.592-1.95-.762l-3.61-.703c-4.09-.781-6.14-2.786-6.14-6.015 0-1.953.79-3.522 2.37-4.707 1.57-1.185 3.7-1.778 6.38-1.778 2.67 0 4.82.625 6.45 1.875s2.47 2.95 2.52 5.098h-5.33c-.02-.82-.35-1.504-1-2.051-.64-.56-1.46-.84-2.48-.84-.99 0-1.76.215-2.32.645-.56.417-.84.931-.84 1.543 0 .534.21.97.64 1.308.44.339 1.06.593 1.86.762l3.9.762c2.09.404 3.62 1.068 4.59 1.992.99.912 1.49 2.129 1.49 3.652 0 1.368-.39 2.566-1.18 3.594-.76 1.016-1.84 1.81-3.22 2.383-1.37.56-2.95.84-4.74.84Zm29.2-.508-10.22-29.102h6.54l4.71 14.161c.44 1.393.9 2.877 1.37 4.453.47 1.562.96 3.235 1.48 5.019.51-1.784.98-3.457 1.43-5.019.45-1.576.9-3.06 1.33-4.453l4.55-14.161h6.46l-10 29.102h-7.65Zm26.13.469c-2.09 0-3.9-.462-5.45-1.387-1.54-.924-2.74-2.194-3.6-3.809-.84-1.627-1.26-3.483-1.26-5.566 0-2.096.42-3.958 1.28-5.586.88-1.628 2.07-2.904 3.6-3.828 1.52-.925 3.27-1.387 5.23-1.387 2.03 0 3.8.456 5.31 1.367 1.53.899 2.71 2.155 3.56 3.77.86 1.602 1.29 3.45 1.29 5.547v1.543h-14.67c.05 1.523.5 2.741 1.35 3.652.84.912 2.02 1.367 3.53 1.367 1.12 0 2.05-.241 2.8-.722.75-.482 1.26-1.12 1.52-1.914h5.25a7.323 7.323 0 0 1-1.73 3.613c-.92 1.042-2.06 1.862-3.44 2.461-1.38.586-2.91.879-4.57.879Zm-4.67-13.008h9.2c-.14-1.289-.63-2.305-1.45-3.047-.8-.755-1.86-1.133-3.16-1.133-1.29 0-2.34.378-3.14 1.133-.81.742-1.29 1.758-1.45 3.047ZM1520.05 409v-20.625h5.55v3.516h.06c.38-1.237.97-2.155 1.78-2.754.8-.599 1.89-.899 3.26-.899.34 0 .64.007.92.02.28.013.54.019.78.019v4.903c-.21-.013-.55-.033-1.04-.059-.48-.026-.96-.039-1.44-.039-1.19 0-2.17.404-2.95 1.211-.77.807-1.15 1.986-1.15 3.535V409h-5.77Zm15.16 0v-20.625h5.76V409h-5.76Zm2.87-23.223c-.95 0-1.74-.286-2.36-.859-.63-.586-.94-1.322-.94-2.207 0-.885.31-1.615.94-2.188.62-.585 1.41-.878 2.36-.878.94 0 1.72.293 2.35.878.62.573.93 1.303.93 2.188 0 .885-.31 1.621-.93 2.207-.63.573-1.41.859-2.35.859Zm18.99 2.598v4.512h-4.22V409h-5.74v-16.113h-3.73v-4.512h3.73v-2.676c0-3.867 2.23-5.801 6.69-5.801h3.27v4.512h-1.96c-.83 0-1.42.176-1.75.528-.34.338-.51.917-.51 1.738v1.699h4.22ZM1559.9 409v-20.625h5.76V409h-5.76Zm2.87-23.223c-.95 0-1.74-.286-2.36-.859-.63-.586-.94-1.322-.94-2.207 0-.885.31-1.615.94-2.188.62-.585 1.41-.878 2.36-.878.94 0 1.72.293 2.34.878.63.573.94 1.303.94 2.188 0 .885-.31 1.621-.94 2.207-.62.573-1.4.859-2.34.859Zm16.43 23.692c-2.08 0-3.88-.449-5.43-1.348-1.55-.911-2.76-2.174-3.64-3.789-.86-1.628-1.29-3.503-1.29-5.625 0-2.135.43-4.01 1.29-5.625.88-1.628 2.09-2.897 3.64-3.809 1.55-.911 3.35-1.367 5.43-1.367 1.81 0 3.41.352 4.82 1.055 1.42.69 2.55 1.654 3.4 2.891.86 1.224 1.35 2.636 1.46 4.238h-5.56c-.16-1.055-.59-1.908-1.29-2.559-.69-.651-1.61-.976-2.76-.976-1.44 0-2.57.553-3.39 1.66-.83 1.107-1.24 2.604-1.24 4.492 0 1.875.41 3.366 1.24 4.473.82 1.093 1.95 1.64 3.39 1.64 1.16 0 2.07-.325 2.74-.976.66-.651 1.09-1.517 1.27-2.598h5.6c-.08 1.589-.54 3.001-1.38 4.238-.85 1.237-1.99 2.214-3.42 2.93-1.42.703-3.05 1.055-4.88 1.055Zm19.39-.117c-2.06 0-3.76-.515-5.1-1.543-1.33-1.029-1.99-2.572-1.99-4.629 0-1.55.37-2.761 1.11-3.633.75-.886 1.73-1.53 2.95-1.934 1.23-.403 2.55-.67 3.99-.801 1.88-.195 3.21-.39 3.96-.585.76-.196 1.13-.625 1.13-1.289v-.137c0-.755-.29-1.374-.89-1.856-.6-.481-1.43-.722-2.48-.722-1.07 0-1.94.247-2.6.742-.67.495-1.03 1.139-1.1 1.933h-5.41c.13-2.122 1.01-3.808 2.62-5.058 1.62-1.263 3.84-1.895 6.66-1.895 2.83 0 5.01.632 6.56 1.895 1.55 1.25 2.33 2.975 2.33 5.176V409h-5.63v-2.91h-.08a6.218 6.218 0 0 1-2.24 2.383c-.95.586-2.21.879-3.79.879Zm1.6-4.004c1.38 0 2.48-.365 3.28-1.094.81-.742 1.21-1.673 1.21-2.793v-2.07c-.32.182-.86.351-1.62.507a69.5 69.5 0 0 1-2.52.43c-.99.156-1.83.443-2.52.86-.67.403-1.01 1.015-1.01 1.835 0 .73.28 1.303.86 1.719.58.404 1.36.606 2.32.606Zm26.06-16.973v4.512h-4.22v9.746c0 .703.13 1.191.41 1.465.28.26.82.39 1.6.39h2.21V409h-3.36c-2.27 0-3.94-.443-5.02-1.328-1.07-.886-1.6-2.266-1.6-4.141v-10.644h-3.56v-4.512h3.56v-5.625h5.76v5.625h4.22Zm2.91 20.625v-20.625h5.76V409h-5.76Zm2.87-23.223c-.95 0-1.74-.286-2.37-.859-.62-.586-.93-1.322-.93-2.207 0-.885.31-1.615.93-2.188.63-.585 1.42-.878 2.37-.878.93 0 1.72.293 2.34.878.63.573.94 1.303.94 2.188 0 .885-.31 1.621-.94 2.207-.62.573-1.41.859-2.34.859Zm16.54 23.692c-2.08 0-3.91-.449-5.49-1.348-1.56-.898-2.78-2.148-3.67-3.75-.87-1.614-1.31-3.503-1.31-5.664 0-2.161.44-4.049 1.31-5.664.89-1.615 2.11-2.871 3.67-3.77 1.58-.911 3.41-1.367 5.49-1.367 2.1 0 3.93.456 5.49 1.367a9.405 9.405 0 0 1 3.67 3.77c.89 1.615 1.33 3.503 1.33 5.664 0 2.148-.44 4.03-1.33 5.645a9.403 9.403 0 0 1-3.67 3.769c-1.56.899-3.39 1.348-5.49 1.348Zm0-4.668c1.41 0 2.54-.534 3.4-1.602.86-1.081 1.29-2.578 1.29-4.492 0-1.927-.43-3.431-1.29-4.512-.86-1.08-1.99-1.621-3.4-1.621-1.39 0-2.52.541-3.38 1.621-.86 1.081-1.29 2.585-1.29 4.512 0 1.914.43 3.411 1.29 4.492.86 1.068 1.99 1.602 3.38 1.602Zm19.43-7.266V409h-5.76v-20.625h5.67v3.242c.7-1.172 1.58-2.077 2.63-2.715 1.06-.638 2.33-.957 3.81-.957 2.19 0 3.94.71 5.26 2.129 1.31 1.406 1.97 3.412 1.97 6.016V409h-5.74v-11.855c0-1.381-.34-2.429-1-3.145-.66-.729-1.6-1.094-2.79-1.094s-2.16.371-2.91 1.114c-.76.742-1.14 1.914-1.14 3.515ZM97.113 603.062v-5.801h26.609v5.801h-9.91V630h-6.768v-26.938h-9.931ZM123.722 630v-23.203h6.24v3.955h.066c.425-1.392 1.091-2.424 1.999-3.098.909-.674 2.132-1.011 3.67-1.011.381 0 .725.007 1.032.022.323.015.616.022.879.022v5.515l-1.164-.066a30.428 30.428 0 0 0-1.626-.044c-1.333 0-2.439.454-3.318 1.363-.864.908-1.296 2.233-1.296 3.977V630h-6.482Zm24.939.483c-2.476 0-4.453-.791-5.933-2.373-1.479-1.596-2.219-3.86-2.219-6.789v-14.524h6.482v13.337c0 1.553.366 2.74 1.098 3.56.747.806 1.802 1.208 3.164 1.208 1.333 0 2.425-.417 3.274-1.252.85-.835 1.275-2.153 1.275-3.955v-12.898h6.46V630h-6.35v-3.647c-.791 1.318-1.78 2.336-2.967 3.054-1.186.718-2.614 1.076-4.284 1.076Zm27.861.088c-3.018 0-5.515-.688-7.493-2.065-1.963-1.377-3.047-3.311-3.252-5.801h6.372c.118 1.011.542 1.802 1.275 2.373.732.571 1.728.857 2.988.857 1.201 0 2.146-.227 2.835-.681.688-.454 1.032-1.04 1.032-1.758 0-.615-.271-1.106-.813-1.472-.527-.381-1.259-.667-2.197-.857l-4.065-.791c-4.6-.879-6.899-3.135-6.899-6.768 0-2.197.886-3.962 2.658-5.295 1.773-1.333 4.168-2 7.185-2 3.003 0 5.42.704 7.251 2.11 1.831 1.406 2.776 3.318 2.835 5.735h-5.999c-.014-.923-.388-1.692-1.12-2.307-.718-.63-1.648-.945-2.791-.945-1.113 0-1.985.241-2.615.725-.629.469-.944 1.047-.944 1.736 0 .6.241 1.091.725 1.472.498.381 1.194.666 2.087.857l4.395.857c2.343.454 4.065 1.201 5.163 2.241 1.114 1.025 1.67 2.395 1.67 4.109 0 1.538-.439 2.886-1.318 4.043-.864 1.142-2.073 2.036-3.626 2.68-1.538.63-3.318.945-5.339.945Zm27.554-23.774v5.076h-4.746v10.964c0 .791.153 1.34.461 1.648.322.293.923.439 1.802.439h2.483V630h-3.78c-2.548 0-4.431-.498-5.647-1.494-1.201-.996-1.801-2.549-1.801-4.658v-11.975h-3.999v-5.076h3.999v-6.328h6.482v6.328h4.746Zm13.513 23.73c-2.344 0-4.387-.52-6.131-1.56-1.728-1.04-3.076-2.468-4.042-4.284-.953-1.831-1.429-3.919-1.429-6.263 0-2.358.484-4.453 1.451-6.284.981-1.831 2.329-3.266 4.042-4.306 1.714-1.04 3.677-1.56 5.889-1.56 2.285 0 4.277.512 5.977 1.538 1.714 1.01 3.047 2.424 3.999 4.24.967 1.802 1.45 3.882 1.45 6.241v1.735h-16.502c.059 1.714.564 3.084 1.517 4.109.952 1.026 2.277 1.538 3.977 1.538 1.259 0 2.307-.271 3.142-.813.849-.542 1.421-1.259 1.714-2.153h5.91a8.31 8.31 0 0 1-1.955 4.065c-1.026 1.172-2.315 2.095-3.868 2.769-1.552.659-3.266.988-5.141.988Zm-5.252-14.633h10.35c-.162-1.451-.704-2.593-1.626-3.428-.909-.85-2.095-1.275-3.56-1.275-1.45 0-2.629.425-3.538 1.275-.908.835-1.45 1.977-1.626 3.428Zm28.96 14.589c-2.021 0-3.786-.505-5.295-1.516-1.509-1.01-2.681-2.424-3.516-4.24-.82-1.817-1.23-3.934-1.23-6.351 0-2.373.417-4.467 1.252-6.284.85-1.816 2.022-3.23 3.516-4.24 1.509-1.026 3.252-1.539 5.229-1.539 1.495 0 2.82.308 3.977.923 1.158.601 2.11 1.524 2.857 2.769h.022v-12.744h6.46V630h-6.372v-3.56h-.022c-.674 1.348-1.612 2.359-2.813 3.033-1.186.673-2.541 1.01-4.065 1.01Zm1.67-5.273c1.641 0 2.959-.615 3.955-1.846.996-1.245 1.495-2.907 1.495-4.988 0-2.065-.499-3.72-1.495-4.965-.996-1.245-2.314-1.868-3.955-1.868-1.567 0-2.827.601-3.779 1.802-.938 1.186-1.406 2.863-1.406 5.031 0 2.168.468 3.853 1.406 5.054.952 1.187 2.212 1.78 3.779 1.78ZM1715.02 581.062v-5.801h26.61v5.801h-9.91V608h-6.77v-26.938h-9.93ZM1741.63 608v-23.203h6.24v3.955h.06c.43-1.392 1.09-2.424 2-3.098.91-.674 2.13-1.011 3.67-1.011.38 0 .73.007 1.04.022.32.015.61.022.87.022v5.515l-1.16-.066c-.54-.029-1.08-.044-1.63-.044-1.33 0-2.44.454-3.31 1.363-.87.908-1.3 2.233-1.3 3.977V608h-6.48Zm24.94.483c-2.48 0-4.46-.791-5.94-2.373-1.48-1.596-2.22-3.86-2.22-6.789v-14.524h6.49v13.337c0 1.553.36 2.74 1.1 3.56.74.806 1.8 1.208 3.16 1.208 1.33 0 2.42-.417 3.27-1.252.85-.835 1.28-2.153 1.28-3.955v-12.898h6.46V608h-6.35v-3.647c-.79 1.318-1.78 2.336-2.97 3.054-1.19.718-2.61 1.076-4.28 1.076Zm27.86.088c-3.02 0-5.52-.688-7.49-2.065-1.97-1.377-3.05-3.311-3.26-5.801h6.38c.11 1.011.54 1.802 1.27 2.373.73.571 1.73.857 2.99.857 1.2 0 2.14-.227 2.83-.681.69-.454 1.04-1.04 1.04-1.758 0-.615-.28-1.106-.82-1.472-.53-.381-1.26-.667-2.2-.857l-4.06-.791c-4.6-.879-6.9-3.135-6.9-6.768 0-2.197.89-3.962 2.66-5.295 1.77-1.333 4.17-2 7.18-2s5.42.704 7.26 2.11c1.83 1.406 2.77 3.318 2.83 5.735h-6c-.01-.923-.39-1.692-1.12-2.307-.72-.63-1.65-.945-2.79-.945-1.11 0-1.98.241-2.61.725-.63.469-.95 1.047-.95 1.736 0 .6.24 1.091.73 1.472s1.19.666 2.08.857l4.4.857c2.34.454 4.06 1.201 5.16 2.241 1.11 1.025 1.67 2.395 1.67 4.109 0 1.538-.44 2.886-1.32 4.043-.86 1.142-2.07 2.036-3.62 2.68-1.54.63-3.32.945-5.34.945Zm27.55-23.774v5.076h-4.74v10.964c0 .791.15 1.34.46 1.648.32.293.92.439 1.8.439h2.48V608h-3.78c-2.55 0-4.43-.498-5.64-1.494s-1.81-2.549-1.81-4.658v-11.975h-4v-5.076h4v-6.328h6.49v6.328h4.74ZM1663.78 653v-32.739h9.86l5.41 15.249c.31.967.69 2.226 1.14 3.779.47 1.538.9 3.01 1.3 4.417.39-1.407.82-2.879 1.27-4.417.47-1.553.85-2.812 1.15-3.779l5.33-15.249h9.87V653h-6.61v-15.557c0-1.142.02-2.607.06-4.394.06-1.787.11-3.582.16-5.383-.57 1.904-1.12 3.75-1.65 5.537-.53 1.772-.97 3.186-1.32 4.24L1684.21 653h-5.49l-5.6-15.557c-.34-1.01-.77-2.358-1.3-4.043-.51-1.684-1.05-3.442-1.6-5.273.04 1.728.08 3.442.13 5.142.04 1.684.06 3.076.06 4.174V653h-6.63Zm40.1 0v-23.203h6.48V653h-6.48Zm3.23-26.125c-1.07 0-1.96-.323-2.66-.967-.7-.659-1.05-1.487-1.05-2.483s.35-1.817 1.05-2.461c.7-.659 1.59-.989 2.66-.989 1.05 0 1.93.33 2.64.989.7.644 1.05 1.465 1.05 2.461 0 .996-.35 1.824-1.05 2.483-.71.644-1.59.967-2.64.967Zm14.32 13.227V653h-6.48v-23.203h6.37v3.647c.8-1.318 1.78-2.336 2.97-3.054 1.19-.718 2.62-1.077 4.29-1.077 2.46 0 4.43.799 5.91 2.395 1.48 1.583 2.22 3.838 2.22 6.768V653h-6.46v-13.337c0-1.553-.38-2.732-1.13-3.538-.74-.82-1.79-1.23-3.14-1.23-1.33 0-2.42.417-3.27 1.252-.85.835-1.28 2.153-1.28 3.955ZM1741.32 653v-23.203h6.48V653h-6.48Zm3.23-26.125c-1.07 0-1.96-.323-2.66-.967-.7-.659-1.05-1.487-1.05-2.483s.35-1.817 1.05-2.461c.7-.659 1.59-.989 2.66-.989 1.05 0 1.93.33 2.64.989.7.644 1.05 1.465 1.05 2.461 0 .996-.35 1.824-1.05 2.483-.71.644-1.59.967-2.64.967Zm7.84 26.125v-23.203h6.24v4.175c.69-1.568 1.67-2.732 2.93-3.494a7.693 7.693 0 0 1 4.11-1.165c1.56 0 2.95.403 4.15 1.209 1.21.791 2.06 1.897 2.55 3.318a6.998 6.998 0 0 1 2.9-3.318c1.33-.806 2.84-1.209 4.52-1.209 2.23 0 4.08.726 5.56 2.176 1.48 1.435 2.22 3.479 2.22 6.13V653h-6.46v-14.194c0-1.392-.38-2.432-1.14-3.12-.75-.689-1.68-1.033-2.79-1.033-1.25 0-2.23.403-2.97 1.208-.73.806-1.1 1.861-1.1 3.164V653h-6.24v-14.37c0-1.201-.35-2.161-1.07-2.879-.72-.732-1.64-1.098-2.77-1.098-1.16 0-2.14.403-2.95 1.208-.8.806-1.2 1.956-1.2 3.45V653h-6.49Zm39.77 0v-23.203h6.49V653h-6.49Zm3.23-26.125c-1.06 0-1.95-.323-2.65-.967-.71-.659-1.06-1.487-1.06-2.483s.35-1.817 1.06-2.461c.7-.659 1.59-.989 2.65-.989 1.06 0 1.94.33 2.64.989.7.644 1.06 1.465 1.06 2.461 0 .996-.36 1.824-1.06 2.483-.7.644-1.58.967-2.64.967Zm7.67 26.125v-4.351l11.52-13.645v-.066h-11.52v-5.141h19.14v4.592l-11.27 13.425v.066h11.45V653h-19.32Zm33.31.527c-2.34 0-4.38-.52-6.13-1.56-1.73-1.04-3.07-2.468-4.04-4.284-.95-1.831-1.43-3.919-1.43-6.263 0-2.358.49-4.453 1.45-6.284.98-1.831 2.33-3.266 4.05-4.306 1.71-1.04 3.67-1.56 5.88-1.56 2.29 0 4.28.512 5.98 1.538 1.71 1.01 3.05 2.424 4 4.24.97 1.802 1.45 3.882 1.45 6.241v1.735h-16.5c.06 1.714.56 3.084 1.51 4.109.96 1.026 2.28 1.538 3.98 1.538 1.26 0 2.31-.271 3.14-.813.85-.542 1.42-1.259 1.72-2.153h5.91a8.291 8.291 0 0 1-1.96 4.065c-1.02 1.172-2.31 2.095-3.86 2.769-1.56.659-3.27.988-5.15.988Zm-5.25-14.633h10.35c-.16-1.451-.7-2.593-1.62-3.428-.91-.85-2.1-1.275-3.56-1.275-1.45 0-2.63.425-3.54 1.275-.91.835-1.45 1.977-1.63 3.428Zm28.96 14.589c-2.02 0-3.78-.505-5.29-1.516-1.51-1.01-2.68-2.424-3.52-4.24-.82-1.817-1.23-3.934-1.23-6.351 0-2.373.42-4.467 1.25-6.284.85-1.816 2.02-3.23 3.52-4.24 1.51-1.026 3.25-1.539 5.23-1.539 1.49 0 2.82.308 3.98.923 1.15.601 2.1 1.524 2.85 2.769h.02v-12.744h6.46V653h-6.37v-3.56h-.02c-.67 1.348-1.61 2.359-2.81 3.033-1.19.673-2.54 1.01-4.07 1.01Zm1.67-5.273c1.64 0 2.96-.615 3.96-1.846.99-1.245 1.49-2.907 1.49-4.988 0-2.065-.5-3.72-1.49-4.965-1-1.245-2.32-1.868-3.96-1.868-1.57 0-2.83.601-3.78 1.802-.93 1.186-1.4 2.863-1.4 5.031 0 2.168.47 3.853 1.4 5.054.95 1.187 2.21 1.78 3.78 1.78ZM515.469 854v-29.102h8.769l4.805 13.555c.273.859.612 1.979 1.016 3.359.416 1.368.8 2.676 1.152 3.926.351-1.25.729-2.558 1.133-3.926l1.015-3.359 4.746-13.555h8.77V854h-5.879v-13.828c0-1.016.02-2.318.059-3.906.052-1.589.097-3.184.136-4.786-.507 1.693-.996 3.334-1.464 4.922a129.58 129.58 0 0 1-1.172 3.77L533.633 854h-4.883l-4.98-13.828c-.3-.899-.684-2.096-1.153-3.594l-1.426-4.687.118 4.57c.039 1.497.058 2.734.058 3.711V854h-5.898Zm42.89.43c-2.2 0-3.958-.703-5.273-2.11-1.315-1.419-1.973-3.431-1.973-6.035v-12.91h5.762v11.855c0 1.381.326 2.435.977 3.165.664.716 1.601 1.074 2.812 1.074 1.185 0 2.155-.371 2.91-1.114.755-.742 1.133-1.914 1.133-3.515v-11.465h5.742V854h-5.644v-3.242c-.703 1.172-1.582 2.077-2.637 2.715-1.055.638-2.324.957-3.809.957Zm21.953-29.532V854h-5.761v-29.102h5.761Zm16.133 8.477v4.512h-4.218v9.746c0 .703.136 1.191.41 1.465.286.26.82.39 1.601.39h2.207V854h-3.359c-2.266 0-3.939-.443-5.02-1.328-1.067-.886-1.601-2.266-1.601-4.141v-10.644h-3.555v-4.512h3.555v-5.625h5.762v5.625h4.218Zm2.91 20.625v-20.625h5.762V854h-5.762Zm2.872-23.223c-.951 0-1.739-.286-2.364-.859-.625-.586-.937-1.322-.937-2.207 0-.885.312-1.615.937-2.188.625-.585 1.413-.878 2.364-.878.937 0 1.718.293 2.343.878.625.573.938 1.303.938 2.188 0 .885-.313 1.621-.938 2.207-.625.573-1.406.859-2.343.859Zm20.449 9.453v4.61h-13.223v-4.61h13.223Zm15.488 14.239c-3.724 0-6.628-.879-8.711-2.637-2.07-1.758-3.105-4.219-3.105-7.383h5.8c.04 1.602.593 2.852 1.661 3.75 1.067.886 2.532 1.328 4.394 1.328 1.667 0 3.008-.338 4.024-1.015 1.015-.677 1.523-1.582 1.523-2.715 0-.938-.41-1.699-1.23-2.285-.808-.586-2.136-1.081-3.985-1.485l-3.066-.664c-5.703-1.237-8.555-3.932-8.555-8.086 0-1.77.462-3.313 1.387-4.629.924-1.328 2.213-2.363 3.867-3.105s3.587-1.113 5.801-1.113c3.346 0 5.996.833 7.949 2.5 1.966 1.666 2.995 3.965 3.086 6.894h-5.625c-.104-1.38-.638-2.467-1.602-3.262-.963-.794-2.226-1.191-3.789-1.191-1.484 0-2.702.339-3.652 1.016-.938.677-1.406 1.543-1.406 2.597 0 .899.39 1.621 1.172 2.168.781.547 2.063 1.016 3.847 1.407l2.793.605c3.099.664 5.365 1.66 6.797 2.988 1.445 1.315 2.168 3.067 2.168 5.254 0 2.8-1.029 5.013-3.086 6.641-2.057 1.614-4.876 2.422-8.457 2.422Zm14.941-.469v-20.625h5.762V854h-5.762Zm2.872-23.223c-.951 0-1.739-.286-2.364-.859-.625-.586-.937-1.322-.937-2.207 0-.885.312-1.615.937-2.188.625-.585 1.413-.878 2.364-.878.937 0 1.718.293 2.343.878.625.573.938 1.303.938 2.188 0 .885-.313 1.621-.938 2.207-.625.573-1.406.859-2.343.859Zm16.718 31.661c-2.929 0-5.195-.612-6.797-1.836-1.601-1.224-2.545-2.839-2.832-4.844h5.547c.209.781.671 1.38 1.387 1.797.716.429 1.615.644 2.695.644 1.407 0 2.487-.384 3.243-1.152.768-.768 1.152-1.895 1.152-3.379v-3.164h-.02c-.612 1.211-1.445 2.103-2.5 2.676-1.041.56-2.239.84-3.593.84-1.797 0-3.366-.45-4.707-1.348-1.342-.899-2.383-2.129-3.125-3.692-.73-1.575-1.094-3.391-1.094-5.449 0-2.07.371-3.899 1.113-5.488.755-1.589 1.797-2.832 3.125-3.731 1.341-.911 2.891-1.367 4.649-1.367 1.328 0 2.513.287 3.554.86 1.055.56 1.914 1.412 2.578 2.558h.02v-2.988h5.683v19.824c0 2.175-.429 3.939-1.289 5.293-.846 1.367-2.024 2.363-3.535 2.988-1.51.638-3.261.958-5.254.958Zm-.234-13.028c1.458 0 2.63-.54 3.516-1.621.885-1.081 1.328-2.526 1.328-4.336 0-1.797-.443-3.236-1.328-4.316-.886-1.081-2.058-1.621-3.516-1.621-1.393 0-2.513.52-3.359 1.562-.834 1.029-1.25 2.487-1.25 4.375 0 1.901.416 3.373 1.25 4.414.846 1.029 1.966 1.543 3.359 1.543Zm35.43-25.879-9.375 34.844h-5.02l9.375-34.844h5.02ZM718.75 854v-29.102h8.77l4.804 13.555c.274.859.612 1.979 1.016 3.359.417 1.368.801 2.676 1.152 3.926.352-1.25.729-2.558 1.133-3.926.417-1.38.755-2.5 1.016-3.359l4.746-13.555h8.769V854h-5.879v-13.828c0-1.016.02-2.318.059-3.906.052-1.589.098-3.184.137-4.786-.508 1.693-.996 3.334-1.465 4.922a129.58 129.58 0 0 1-1.172 3.77L736.914 854h-4.883l-4.98-13.828c-.3-.899-.684-2.096-1.153-3.594l-1.425-4.687.117 4.57c.039 1.497.058 2.734.058 3.711V854h-5.898Zm35.781 0v-29.102h11.485c2.174 0 4.056.391 5.644 1.172 1.602.769 2.832 1.869 3.692 3.301.872 1.432 1.308 3.125 1.308 5.078 0 1.953-.443 3.646-1.328 5.078-.872 1.42-2.109 2.52-3.711 3.301-1.601.781-3.496 1.172-5.683 1.172h-5.391v10h-6.016Zm6.016-15.039h5.078c1.589 0 2.845-.404 3.77-1.211.924-.82 1.386-1.921 1.386-3.301 0-1.393-.462-2.493-1.386-3.301-.925-.807-2.181-1.21-3.77-1.21h-5.078v9.023Zm32.148 15.508c-2.669 0-5.045-.606-7.129-1.817-2.083-1.224-3.724-2.955-4.921-5.195-1.185-2.253-1.778-4.915-1.778-7.988 0-3.099.593-5.768 1.778-8.008 1.197-2.253 2.838-3.984 4.921-5.195 2.084-1.224 4.46-1.836 7.129-1.836 2.279 0 4.323.442 6.133 1.328a11.703 11.703 0 0 1 4.473 3.75c1.159 1.601 1.894 3.483 2.207 5.644h-6.074c-.352-1.718-1.12-3.047-2.305-3.984-1.172-.951-2.624-1.426-4.356-1.426-2.474 0-4.401.879-5.781 2.637-1.38 1.745-2.07 4.108-2.07 7.09 0 2.955.69 5.312 2.07 7.07 1.38 1.745 3.307 2.617 5.781 2.617 1.719 0 3.165-.468 4.336-1.406 1.185-.938 1.967-2.259 2.344-3.965h6.055c-.313 2.162-1.048 4.043-2.207 5.645-1.159 1.601-2.65 2.845-4.473 3.73-1.81.873-3.854 1.309-6.133 1.309ZM1155.1 857.469c-2.6 0-4.94-.606-7.01-1.817-2.07-1.224-3.7-2.955-4.9-5.195-1.2-2.253-1.8-4.915-1.8-7.988 0-3.099.6-5.768 1.8-8.008 1.2-2.253 2.83-3.984 4.9-5.195 2.07-1.224 4.41-1.836 7.01-1.836 2.62 0 4.96.612 7.01 1.836 2.07 1.211 3.71 2.942 4.91 5.195 1.21 2.24 1.81 4.909 1.81 8.008 0 3.086-.6 5.748-1.81 7.988-1.2 2.24-2.84 3.971-4.91 5.195-2.05 1.211-4.39 1.817-7.01 1.817Zm0-5.313c2.25 0 4.1-.84 5.53-2.519 1.43-1.693 2.15-4.082 2.15-7.168 0-3.099-.72-5.495-2.15-7.188-1.43-1.692-3.28-2.539-5.53-2.539-2.24 0-4.07.847-5.51 2.539-1.43 1.693-2.14 4.089-2.14 7.188 0 3.086.71 5.475 2.14 7.168 1.44 1.679 3.27 2.519 5.51 2.519Zm17.01 13.008v-28.789h5.69v2.793h.06c.63-1.068 1.47-1.869 2.52-2.402 1.05-.547 2.25-.821 3.59-.821 1.76 0 3.3.456 4.63 1.367 1.34.899 2.38 2.155 3.12 3.77.76 1.615 1.14 3.477 1.14 5.586 0 2.148-.38 4.03-1.12 5.644-.74 1.615-1.78 2.872-3.12 3.77-1.33.898-2.89 1.348-4.69 1.348-2.8 0-4.8-1.172-6-3.516h-.05v11.25h-5.77Zm10.34-12.422c1.39 0 2.5-.527 3.34-1.582.84-1.068 1.26-2.565 1.26-4.492s-.42-3.418-1.26-4.473c-.84-1.067-1.95-1.601-3.34-1.601-1.46 0-2.63.553-3.52 1.66-.89 1.107-1.33 2.578-1.33 4.414 0 1.849.44 3.327 1.33 4.434.89 1.093 2.06 1.64 3.52 1.64Zm25.43-16.367v4.512h-4.22v9.746c0 .703.13 1.191.41 1.465.28.26.82.39 1.6.39h2.21V857h-3.36c-2.27 0-3.94-.443-5.02-1.328-1.07-.886-1.61-2.266-1.61-4.141v-10.644h-3.55v-4.512h3.55v-5.625h5.77v5.625h4.22Zm2.91 20.625v-20.625h5.76V857h-5.76Zm2.87-23.223c-.95 0-1.74-.286-2.37-.859-.62-.586-.93-1.322-.93-2.207 0-.885.31-1.615.93-2.188.63-.585 1.42-.878 2.37-.878.93 0 1.72.293 2.34.878.62.573.94 1.303.94 2.188 0 .885-.32 1.621-.94 2.207-.62.573-1.41.859-2.34.859Zm6.97 23.223v-20.625h5.55v3.711c.61-1.393 1.47-2.428 2.59-3.106a6.847 6.847 0 0 1 3.66-1.035c1.39 0 2.62.358 3.69 1.075 1.08.703 1.83 1.686 2.26 2.949a6.283 6.283 0 0 1 2.58-2.949c1.19-.717 2.53-1.075 4.02-1.075 1.98 0 3.63.645 4.95 1.934 1.31 1.276 1.97 3.092 1.97 5.449V857h-5.74v-12.617c0-1.237-.34-2.162-1.02-2.774-.66-.612-1.49-.918-2.48-.918-1.11 0-1.99.358-2.64 1.075-.65.716-.97 1.653-.97 2.812V857h-5.55v-12.773c0-1.068-.32-1.921-.96-2.559-.64-.651-1.46-.977-2.46-.977-1.03 0-1.9.358-2.62 1.075-.71.716-1.07 1.738-1.07 3.066V857h-5.76Zm35.35 0v-20.625h5.76V857h-5.76Zm2.87-23.223c-.95 0-1.74-.286-2.36-.859-.63-.586-.94-1.322-.94-2.207 0-.885.31-1.615.94-2.188.62-.585 1.41-.878 2.36-.878.94 0 1.72.293 2.35.878.62.573.93 1.303.93 2.188 0 .885-.31 1.621-.93 2.207-.63.573-1.41.859-2.35.859Zm15.55 23.731c-2.68 0-4.9-.612-6.66-1.836-1.75-1.224-2.71-2.943-2.89-5.156h5.66c.11.898.48 1.601 1.13 2.109.66.508 1.54.762 2.66.762 1.07 0 1.91-.202 2.52-.606.61-.403.92-.924.92-1.562 0-.547-.24-.983-.72-1.309-.47-.338-1.12-.592-1.96-.762l-3.61-.703c-4.09-.781-6.13-2.786-6.13-6.015 0-1.953.78-3.522 2.36-4.707 1.58-1.185 3.7-1.778 6.39-1.778 2.67 0 4.81.625 6.44 1.875 1.63 1.25 2.47 2.95 2.52 5.098h-5.33c-.01-.82-.35-1.504-1-2.051-.63-.56-1.46-.84-2.48-.84-.99 0-1.76.215-2.32.645-.56.417-.84.931-.84 1.543 0 .534.21.97.64 1.308.45.339 1.06.593 1.86.762l3.9.762c2.09.404 3.62 1.068 4.59 1.992.99.912 1.49 2.129 1.49 3.652 0 1.368-.39 2.566-1.17 3.594-.77 1.016-1.85 1.81-3.23 2.383-1.36.56-2.94.84-4.74.84Zm24.49-21.133v4.512h-4.22v9.746c0 .703.14 1.191.41 1.465.29.26.82.39 1.6.39h2.21V857h-3.36c-2.26 0-3.94-.443-5.02-1.328-1.07-.886-1.6-2.266-1.6-4.141v-10.644h-3.55v-4.512h3.55v-5.625h5.76v5.625h4.22ZM1301.8 857v-20.625h5.76V857h-5.76Zm2.87-23.223c-.95 0-1.74-.286-2.36-.859-.63-.586-.94-1.322-.94-2.207 0-.885.31-1.615.94-2.188.62-.585 1.41-.878 2.36-.878.94 0 1.72.293 2.35.878.62.573.93 1.303.93 2.188 0 .885-.31 1.621-.93 2.207-.63.573-1.41.859-2.35.859Zm16.43 23.692c-2.07 0-3.88-.449-5.43-1.348-1.55-.911-2.76-2.174-3.63-3.789-.86-1.628-1.29-3.503-1.29-5.625 0-2.135.43-4.01 1.29-5.625.87-1.628 2.08-2.897 3.63-3.809 1.55-.911 3.36-1.367 5.43-1.367 1.81 0 3.42.352 4.82 1.055 1.42.69 2.55 1.654 3.4 2.891.86 1.224 1.35 2.636 1.47 4.238h-5.57c-.16-1.055-.59-1.908-1.29-2.559-.69-.651-1.61-.976-2.75-.976-1.45 0-2.58.553-3.4 1.66-.82 1.107-1.23 2.604-1.23 4.492 0 1.875.41 3.366 1.23 4.473.82 1.093 1.95 1.64 3.4 1.64 1.15 0 2.07-.325 2.73-.976.66-.651 1.09-1.517 1.27-2.598h5.61c-.08 1.589-.55 3.001-1.39 4.238-.85 1.237-1.99 2.214-3.42 2.93-1.42.703-3.05 1.055-4.88 1.055ZM1139.81 897l-10.22-29.102h6.55l4.7 14.161c.45 1.393.9 2.877 1.37 4.453.47 1.562.96 3.235 1.49 5.019.5-1.784.98-3.457 1.42-5.019.46-1.576.9-3.06 1.33-4.453l4.55-14.161h6.46l-10 29.102h-7.65Zm26.13.469c-2.08 0-3.9-.462-5.45-1.387-1.53-.924-2.73-2.194-3.59-3.809-.85-1.627-1.27-3.483-1.27-5.566 0-2.096.43-3.958 1.29-5.586.87-1.628 2.07-2.904 3.59-3.828 1.53-.925 3.27-1.387 5.24-1.387 2.03 0 3.8.456 5.31 1.367 1.52.899 2.71 2.155 3.55 3.77.86 1.602 1.29 3.45 1.29 5.547v1.543h-14.67c.06 1.523.51 2.741 1.35 3.652.85.912 2.03 1.367 3.54 1.367 1.12 0 2.05-.241 2.79-.722.76-.482 1.26-1.12 1.52-1.914h5.26a7.425 7.425 0 0 1-1.74 3.613c-.91 1.042-2.06 1.862-3.44 2.461-1.38.586-2.9.879-4.57.879Zm-4.67-13.008h9.2c-.14-1.289-.62-2.305-1.44-3.047-.81-.755-1.86-1.133-3.17-1.133-1.29 0-2.33.378-3.14 1.133-.81.742-1.29 1.758-1.45 3.047ZM1178.99 897v-20.625h5.55v3.516h.05c.38-1.237.97-2.155 1.78-2.754.81-.599 1.9-.899 3.26-.899.34 0 .65.007.92.02.29.013.55.019.78.019v4.903c-.21-.013-.55-.033-1.03-.059a26.99 26.99 0 0 0-1.45-.039c-1.18 0-2.17.404-2.95 1.211-.77.807-1.15 1.986-1.15 3.535V897h-5.76Zm15.15 0v-20.625h5.77V897h-5.77Zm2.88-23.223c-.95 0-1.74-.286-2.37-.859-.62-.586-.94-1.322-.94-2.207 0-.885.32-1.615.94-2.188.63-.585 1.42-.878 2.37-.878.93 0 1.71.293 2.34.878.62.573.94 1.303.94 2.188 0 .885-.32 1.621-.94 2.207-.63.573-1.41.859-2.34.859Zm18.98 2.598v4.512h-4.22V897h-5.74v-16.113h-3.73v-4.512h3.73v-2.676c0-3.867 2.23-5.801 6.7-5.801h3.26v4.512h-1.95c-.84 0-1.42.176-1.76.528-.34.338-.51.917-.51 1.738v1.699h4.22Zm2.83 20.625v-20.625h5.76V897h-5.76Zm2.87-23.223c-.95 0-1.74-.286-2.36-.859-.63-.586-.94-1.322-.94-2.207 0-.885.31-1.615.94-2.188.62-.585 1.41-.878 2.36-.878.94 0 1.72.293 2.35.878.62.573.93 1.303.93 2.188 0 .885-.31 1.621-.93 2.207-.63.573-1.41.859-2.35.859Zm16.43 23.692c-2.07 0-3.88-.449-5.43-1.348-1.55-.911-2.76-2.174-3.63-3.789-.86-1.628-1.29-3.503-1.29-5.625 0-2.135.43-4.01 1.29-5.625.87-1.628 2.08-2.897 3.63-3.809 1.55-.911 3.36-1.367 5.43-1.367 1.81 0 3.42.352 4.82 1.055 1.42.69 2.56 1.654 3.4 2.891.86 1.224 1.35 2.636 1.47 4.238h-5.57c-.16-1.055-.59-1.908-1.29-2.559-.69-.651-1.61-.976-2.75-.976-1.45 0-2.58.553-3.4 1.66-.82 1.107-1.23 2.604-1.23 4.492 0 1.875.41 3.366 1.23 4.473.82 1.093 1.95 1.64 3.4 1.64 1.16 0 2.07-.325 2.73-.976.67-.651 1.09-1.517 1.27-2.598h5.61c-.08 1.589-.54 3.001-1.39 4.238-.85 1.237-1.99 2.214-3.42 2.93-1.42.703-3.05 1.055-4.88 1.055Zm19.39-.117c-2.05 0-3.75-.515-5.09-1.543-1.33-1.029-2-2.572-2-4.629 0-1.55.37-2.761 1.12-3.633.74-.886 1.72-1.53 2.95-1.934 1.22-.403 2.55-.67 3.98-.801 1.89-.195 3.21-.39 3.97-.585.75-.196 1.13-.625 1.13-1.289v-.137c0-.755-.3-1.374-.9-1.856-.6-.481-1.43-.722-2.48-.722-1.07 0-1.93.247-2.6.742-.66.495-1.03 1.139-1.09 1.933h-5.41c.13-2.122 1-3.808 2.61-5.058 1.62-1.263 3.84-1.895 6.67-1.895 2.82 0 5.01.632 6.56 1.895 1.55 1.25 2.32 2.975 2.32 5.176V897h-5.62v-2.91h-.08a6.32 6.32 0 0 1-2.25 2.383c-.95.586-2.21.879-3.79.879Zm1.6-4.004c1.39 0 2.48-.365 3.29-1.094.8-.742 1.21-1.673 1.21-2.793v-2.07c-.33.182-.87.351-1.62.507-.76.144-1.6.287-2.52.43-.99.156-1.83.443-2.52.86-.68.403-1.02 1.015-1.02 1.835 0 .73.29 1.303.86 1.719.59.404 1.36.606 2.32.606Zm26.06-16.973v4.512h-4.22v9.746c0 .703.14 1.191.41 1.465.29.26.82.39 1.6.39h2.21V897h-3.36c-2.27 0-3.94-.443-5.02-1.328-1.07-.886-1.6-2.266-1.6-4.141v-10.644h-3.56v-4.512h3.56v-5.625h5.76v5.625h4.22Zm2.91 20.625v-20.625h5.76V897h-5.76Zm2.87-23.223c-.95 0-1.74-.286-2.36-.859-.63-.586-.94-1.322-.94-2.207 0-.885.31-1.615.94-2.188.62-.585 1.41-.878 2.36-.878.94 0 1.72.293 2.34.878.63.573.94 1.303.94 2.188 0 .885-.31 1.621-.94 2.207-.62.573-1.4.859-2.34.859Zm16.54 23.692c-2.08 0-3.91-.449-5.48-1.348-1.57-.898-2.79-2.148-3.68-3.75-.87-1.614-1.3-3.503-1.3-5.664 0-2.161.43-4.049 1.3-5.664.89-1.615 2.11-2.871 3.68-3.77 1.57-.911 3.4-1.367 5.48-1.367 2.1 0 3.93.456 5.49 1.367a9.341 9.341 0 0 1 3.67 3.77c.89 1.615 1.33 3.503 1.33 5.664 0 2.148-.44 4.03-1.33 5.645-.87 1.614-2.09 2.871-3.67 3.769-1.56.899-3.39 1.348-5.49 1.348Zm0-4.668c1.41 0 2.54-.534 3.4-1.602.86-1.081 1.29-2.578 1.29-4.492 0-1.927-.43-3.431-1.29-4.512-.86-1.08-1.99-1.621-3.4-1.621-1.39 0-2.52.541-3.38 1.621-.85 1.081-1.28 2.585-1.28 4.512 0 1.914.43 3.411 1.28 4.492.86 1.068 1.99 1.602 3.38 1.602Zm19.44-7.266V897h-5.76v-20.625h5.66v3.242c.7-1.172 1.58-2.077 2.64-2.715 1.05-.638 2.32-.957 3.81-.957 2.18 0 3.93.71 5.25 2.129 1.31 1.406 1.97 3.412 1.97 6.016V897h-5.74v-11.855c0-1.381-.33-2.429-1-3.145-.66-.729-1.59-1.094-2.79-1.094-1.18 0-2.15.371-2.91 1.114-.75.742-1.13 1.914-1.13 3.515ZM1535.36 857l-7.81-29.102h6.41l3.42 14.454c.28 1.276.55 2.552.82 3.828.26 1.276.51 2.558.76 3.847.26-1.289.52-2.571.8-3.847.28-1.276.58-2.552.88-3.828l3.61-14.454h6.13l3.58 14.454c.31 1.263.6 2.532.88 3.808.27 1.263.54 2.526.8 3.789.24-1.263.5-2.526.76-3.789.26-1.276.53-2.545.82-3.808l3.42-14.454h6.42L1559.23 857h-6.7l-4.14-15.879c-.18-.716-.36-1.471-.55-2.266-.17-.807-.35-1.673-.54-2.597-.2.924-.38 1.79-.55 2.597-.17.795-.35 1.55-.55 2.266L1542.1 857h-6.74Zm39.69-11.465V857h-5.76v-29.102h5.76v11.582c.69-1.132 1.56-2.005 2.6-2.617 1.05-.612 2.3-.918 3.75-.918 2.19 0 3.94.71 5.25 2.129 1.32 1.406 1.97 3.412 1.97 6.016V857h-5.74v-11.855c0-1.381-.33-2.429-.99-3.145-.67-.729-1.6-1.094-2.8-1.094-1.18 0-2.15.371-2.91 1.114-.75.742-1.13 1.914-1.13 3.515Zm27.09 11.934c-2.08 0-3.9-.462-5.45-1.387-1.54-.924-2.73-2.194-3.59-3.809-.85-1.627-1.27-3.483-1.27-5.566 0-2.096.43-3.958 1.29-5.586.87-1.628 2.07-2.904 3.59-3.828 1.52-.925 3.27-1.387 5.24-1.387 2.03 0 3.8.456 5.31 1.367 1.52.899 2.71 2.155 3.55 3.77.86 1.602 1.29 3.45 1.29 5.547v1.543h-14.67c.06 1.523.5 2.741 1.35 3.652.85.912 2.03 1.367 3.54 1.367 1.12 0 2.05-.241 2.79-.722.75-.482 1.26-1.12 1.52-1.914h5.26a7.425 7.425 0 0 1-1.74 3.613c-.91 1.042-2.06 1.862-3.44 2.461-1.38.586-2.9.879-4.57.879Zm-4.67-13.008h9.2c-.14-1.289-.62-2.305-1.44-3.047-.81-.755-1.87-1.133-3.17-1.133-1.29 0-2.33.378-3.14 1.133-.81.742-1.29 1.758-1.45 3.047ZM1615.19 857v-20.625h5.54v3.516h.06c.38-1.237.97-2.155 1.78-2.754.81-.599 1.89-.899 3.26-.899.34 0 .65.007.92.02.29.013.55.019.78.019v4.903c-.21-.013-.55-.033-1.03-.059a27.27 27.27 0 0 0-1.45-.039c-1.18 0-2.17.404-2.95 1.211-.77.807-1.15 1.986-1.15 3.535V857h-5.76Zm24.14.469c-2.09 0-3.9-.462-5.45-1.387a9.539 9.539 0 0 1-3.59-3.809c-.85-1.627-1.27-3.483-1.27-5.566 0-2.096.43-3.958 1.28-5.586.88-1.628 2.08-2.904 3.6-3.828 1.52-.925 3.27-1.387 5.23-1.387 2.03 0 3.8.456 5.32 1.367 1.52.899 2.7 2.155 3.55 3.77.86 1.602 1.29 3.45 1.29 5.547v1.543h-14.67c.05 1.523.5 2.741 1.35 3.652.85.912 2.02 1.367 3.53 1.367 1.12 0 2.05-.241 2.8-.722.75-.482 1.26-1.12 1.52-1.914h5.25a7.323 7.323 0 0 1-1.73 3.613c-.92 1.042-2.06 1.862-3.44 2.461-1.38.586-2.91.879-4.57.879Zm-4.67-13.008h9.2c-.14-1.289-.63-2.305-1.45-3.047-.8-.755-1.86-1.133-3.16-1.133-1.29 0-2.34.378-3.14 1.133-.81.742-1.29 1.758-1.45 3.047Zm32.46-16.563V857h-6.01v-29.102h6.01Zm4.34 29.102v-29.102h11.66c3.12 0 5.53.691 7.22 2.071 1.71 1.367 2.56 3.17 2.56 5.41 0 1.68-.47 3.066-1.4 4.16-.94 1.094-2.21 1.843-3.81 2.246v.039c1.77.156 3.26.84 4.47 2.051 1.21 1.211 1.82 2.852 1.82 4.922 0 2.435-.88 4.414-2.62 5.937-1.75 1.511-4.27 2.266-7.58 2.266h-12.32Zm5.88-4.727h5.6c1.55 0 2.76-.332 3.61-.996.86-.664 1.29-1.601 1.29-2.812 0-1.211-.42-2.168-1.27-2.871-.84-.716-2.02-1.074-3.53-1.074h-5.7v7.753Zm0-12.285h5.33c1.33 0 2.37-.332 3.12-.996.76-.664 1.14-1.556 1.14-2.676 0-1.132-.38-2.031-1.14-2.695-.75-.664-1.79-.996-3.12-.996h-5.33v7.363Zm32.79 17.481c-2.67 0-5.05-.606-7.13-1.817-2.08-1.224-3.72-2.955-4.92-5.195-1.19-2.253-1.78-4.915-1.78-7.988 0-3.099.59-5.768 1.78-8.008 1.2-2.253 2.84-3.984 4.92-5.195 2.08-1.224 4.46-1.836 7.13-1.836 2.28 0 4.32.442 6.13 1.328 1.82.885 3.32 2.135 4.47 3.75 1.16 1.601 1.9 3.483 2.21 5.644h-6.07c-.35-1.718-1.12-3.047-2.31-3.984-1.17-.951-2.62-1.426-4.35-1.426-2.48 0-4.4.879-5.78 2.637-1.38 1.745-2.07 4.108-2.07 7.09 0 2.955.69 5.312 2.07 7.07 1.38 1.745 3.3 2.617 5.78 2.617 1.72 0 3.16-.468 4.33-1.406 1.19-.938 1.97-2.259 2.35-3.965h6.05c-.31 2.162-1.05 4.043-2.21 5.645-1.15 1.601-2.65 2.845-4.47 3.73-1.81.873-3.85 1.309-6.13 1.309Zm33.44-.039c-1.98 0-3.7-.352-5.16-1.055-1.45-.716-2.56-1.693-3.36-2.93-.79-1.237-1.19-2.63-1.19-4.179 0-1.537.42-2.865 1.27-3.985.86-1.133 2.23-2.357 4.12-3.672-.9-1.132-1.61-2.226-2.13-3.281a7.826 7.826 0 0 1-.76-3.418c0-1.406.32-2.663.98-3.769.66-1.12 1.58-1.999 2.77-2.637 1.18-.638 2.56-.957 4.12-.957 1.52 0 2.85.299 3.97.898s1.98 1.413 2.59 2.442c.63 1.015.94 2.161.94 3.437 0 2.578-1.29 4.805-3.87 6.68l-1.74 1.269 4.93 5.665c.39-.73.69-1.511.91-2.344.24-.847.36-1.726.36-2.637h4.84c0 1.719-.21 3.353-.64 4.902-.42 1.537-1.08 2.911-1.98 4.121l4.36 5.02h-6.11l-1.78-2.012c-1.02.795-2.18 1.4-3.5 1.817-1.31.416-2.63.625-3.94.625Zm4.29-5.957-5.64-6.368-.27.196c-.79.573-1.39 1.146-1.82 1.719a3.2 3.2 0 0 0-.65 1.972c0 1.068.42 1.966 1.25 2.696.84.729 1.89 1.093 3.15 1.093 1.37 0 2.69-.436 3.98-1.308Zm-4.59-12.559 1.76-1.172c.72-.482 1.23-.989 1.54-1.523.32-.547.47-1.061.47-1.543 0-.664-.25-1.244-.76-1.738-.51-.495-1.19-.743-2.05-.743-.83 0-1.52.261-2.07.782-.53.507-.8 1.178-.8 2.011 0 .599.16 1.205.47 1.817.32.599.81 1.302 1.44 2.109Zm-170.06 58.555c-2.42 0-4.53-.443-6.32-1.328-1.8-.899-3.19-2.142-4.18-3.731-.98-1.601-1.47-3.45-1.47-5.547v-18.965h5.88v18.477c0 1.706.55 3.118 1.66 4.238 1.11 1.107 2.59 1.66 4.43 1.66 1.87 0 3.35-.553 4.46-1.66 1.1-1.106 1.66-2.519 1.66-4.238v-18.477h5.88v18.965c0 2.097-.5 3.946-1.49 5.547-.99 1.589-2.38 2.832-4.18 3.731-1.79.885-3.9 1.328-6.33 1.328Zm21.88-11.934V897h-5.76v-20.625h5.66v3.242c.71-1.172 1.58-2.077 2.64-2.715 1.05-.638 2.32-.957 3.81-.957 2.18 0 3.94.71 5.25 2.129 1.32 1.406 1.97 3.412 1.97 6.016V897h-5.74v-11.855c0-1.381-.33-2.429-.99-3.145-.67-.729-1.6-1.094-2.8-1.094-1.18 0-2.15.371-2.91 1.114-.75.742-1.13 1.914-1.13 3.515ZM1612.77 897v-20.625h5.76V897h-5.76Zm2.87-23.223c-.95 0-1.74-.286-2.37-.859-.62-.586-.93-1.322-.93-2.207 0-.885.31-1.615.93-2.188.63-.585 1.42-.878 2.37-.878.93 0 1.72.293 2.34.878.63.573.94 1.303.94 2.188 0 .885-.31 1.621-.94 2.207-.62.573-1.41.859-2.34.859Zm16.54 23.692c-2.08 0-3.91-.449-5.49-1.348a9.563 9.563 0 0 1-3.67-3.75c-.87-1.614-1.31-3.503-1.31-5.664 0-2.161.44-4.049 1.31-5.664a9.536 9.536 0 0 1 3.67-3.77c1.58-.911 3.41-1.367 5.49-1.367 2.1 0 3.93.456 5.49 1.367a9.405 9.405 0 0 1 3.67 3.77c.89 1.615 1.33 3.503 1.33 5.664 0 2.148-.44 4.03-1.33 5.645a9.403 9.403 0 0 1-3.67 3.769c-1.56.899-3.39 1.348-5.49 1.348Zm0-4.668c1.41 0 2.54-.534 3.4-1.602.86-1.081 1.29-2.578 1.29-4.492 0-1.927-.43-3.431-1.29-4.512-.86-1.08-1.99-1.621-3.4-1.621-1.39 0-2.52.541-3.38 1.621-.86 1.081-1.29 2.585-1.29 4.512 0 1.914.43 3.411 1.29 4.492.86 1.068 1.99 1.602 3.38 1.602Zm19.43-7.266V897h-5.76v-20.625h5.67v3.242c.7-1.172 1.58-2.077 2.63-2.715 1.06-.638 2.33-.957 3.81-.957 2.19 0 3.94.71 5.25 2.129 1.32 1.406 1.98 3.412 1.98 6.016V897h-5.74v-11.855c0-1.381-.34-2.429-1-3.145-.66-.729-1.6-1.094-2.79-1.094s-2.16.371-2.91 1.114c-.76.742-1.14 1.914-1.14 3.515Zm37.43 11.934c-3.73 0-6.63-.879-8.72-2.637-2.07-1.758-3.1-4.219-3.1-7.383h5.8c.04 1.602.59 2.852 1.66 3.75 1.07.886 2.53 1.328 4.39 1.328 1.67 0 3.01-.338 4.03-1.015 1.01-.677 1.52-1.582 1.52-2.715 0-.938-.41-1.699-1.23-2.285-.81-.586-2.13-1.081-3.98-1.485l-3.07-.664c-5.7-1.237-8.55-3.932-8.55-8.086 0-1.77.46-3.313 1.38-4.629.93-1.328 2.22-2.363 3.87-3.105s3.59-1.113 5.8-1.113c3.35 0 6 .833 7.95 2.5 1.97 1.666 2.99 3.965 3.09 6.894h-5.63c-.1-1.38-.64-2.467-1.6-3.262-.97-.794-2.23-1.191-3.79-1.191-1.48 0-2.7.339-3.65 1.016-.94.677-1.41 1.543-1.41 2.597 0 .899.39 1.621 1.17 2.168.78.547 2.07 1.016 3.85 1.407l2.79.605c3.1.664 5.37 1.66 6.8 2.988 1.45 1.315 2.17 3.067 2.17 5.254 0 2.8-1.03 5.013-3.09 6.641-2.06 1.614-4.87 2.422-8.45 2.422Zm14.94-.469v-20.625h5.76V897h-5.76Zm2.87-23.223c-.95 0-1.74-.286-2.37-.859-.62-.586-.93-1.322-.93-2.207 0-.885.31-1.615.93-2.188.63-.585 1.42-.878 2.37-.878.94 0 1.72.293 2.34.878.63.573.94 1.303.94 2.188 0 .885-.31 1.621-.94 2.207-.62.573-1.4.859-2.34.859Zm19.14 2.598v4.512h-4.22v9.746c0 .703.14 1.191.41 1.465.29.26.82.39 1.6.39h2.21V897h-3.36c-2.27 0-3.94-.443-5.02-1.328-1.07-.886-1.6-2.266-1.6-4.141v-10.644h-3.56v-4.512h3.56v-5.625h5.76v5.625h4.22Z" />
  <defs>
    <pattern id="a" width="1" height="1" patternContentUnits="objectBoundingBox">
      <use xlink:href="#b" transform="scale(.00052 .00093)" />
    </pattern>
  </defs>
</svg>
