<svg xmlns="http://www.w3.org/2000/svg" fill="none" viewBox="0 0 1920 1080">
  <g clip-path="url(#a)">
    <path fill="#000" d="M0 0h1920v1080H0z" />
    <path fill="#1B1B1D"
      d="M210.053 243.674a.73.73 0 0 1-1.043-1.022l1.043 1.022Zm-1.043-1.022L373.432 74.888l1.042 1.021-164.421 167.765-1.043-1.022Z" />
    <path fill="#1B1B1D"
      d="M374.682 75.912a.73.73 0 1 1-1.036-1.028l1.036 1.028Zm-1.036-1.028L539.412-92.287l1.037 1.028L374.682 75.91l-1.036-1.027ZM208.498 243.674a.73.73 0 0 0 1.043-1.022l-1.043 1.022Zm1.043-1.022L45.119 74.888l-1.043 1.021 164.422 167.765 1.043-1.022Z" />
    <path fill="#1B1B1D"
      d="M43.517 75.912a.73.73 0 0 0 1.036-1.028l-1.036 1.028Zm1.036-1.028L-121.212-92.287l-1.037 1.028L43.517 75.91l1.036-1.027ZM208.614 746.666a.73.73 0 1 1 .811 1.214l-.811-1.214Zm.811 1.214L45.003 857.685l-.81-1.214 164.421-109.805.811 1.214Z" />
    <path fill="#1B1B1D"
      d="M209.929 746.666a.73.73 0 1 0-.811 1.214l.811-1.214Zm-.811 1.214L373.54 857.685l.811-1.214-164.422-109.805-.811 1.214ZM481.066 246.196a1.348 1.348 0 1 0-1.907-1.907L459.96 263.49a1.348 1.348 0 1 0 1.907 1.907l19.199-19.201ZM454.242 273.022a1.348 1.348 0 0 0-1.907-1.906l-19.199 19.2a1.348 1.348 0 1 0 1.906 1.907l19.2-19.201ZM459.96 273.022l19.199 19.201a1.35 1.35 0 0 0 1.907-1.907l-19.199-19.2a1.348 1.348 0 1 0-1.907 1.906ZM454.242 263.49l-19.2-19.201a1.348 1.348 0 0 0-1.906 1.907l19.199 19.201a1.35 1.35 0 0 0 1.907-1.907ZM481.066 304.663a1.348 1.348 0 1 0-1.907-1.907l-19.199 19.201a1.348 1.348 0 1 0 1.907 1.906l19.199-19.2ZM454.242 331.489a1.35 1.35 0 0 0-1.907-1.907l-19.199 19.201a1.348 1.348 0 1 0 1.906 1.907l19.2-19.201ZM459.96 331.489l19.199 19.201a1.35 1.35 0 0 0 1.907-1.907l-19.199-19.201a1.35 1.35 0 0 0-1.907 1.907ZM454.242 321.957l-19.2-19.201a1.348 1.348 0 0 0-1.906 1.907l19.199 19.2a1.348 1.348 0 1 0 1.907-1.906ZM481.066 364.954a1.348 1.348 0 1 0-1.907-1.907l-19.199 19.201a1.348 1.348 0 1 0 1.907 1.906l19.199-19.2ZM454.242 391.78a1.35 1.35 0 0 0-1.907-1.907l-19.199 19.201a1.348 1.348 0 1 0 1.906 1.907l19.2-19.201ZM459.96 391.78l19.199 19.201a1.35 1.35 0 0 0 1.907-1.907l-19.199-19.201a1.35 1.35 0 0 0-1.907 1.907ZM454.242 382.248l-19.2-19.201a1.348 1.348 0 0 0-1.906 1.907l19.199 19.2a1.348 1.348 0 1 0 1.907-1.906ZM422.605 246.196a1.348 1.348 0 1 0-1.907-1.907l-19.199 19.201a1.348 1.348 0 1 0 1.907 1.907l19.199-19.201ZM395.781 273.022a1.348 1.348 0 0 0-1.907-1.906l-19.199 19.2a1.348 1.348 0 1 0 1.906 1.907l19.2-19.201ZM401.499 273.022l19.199 19.201a1.35 1.35 0 0 0 1.907-1.907l-19.199-19.2a1.348 1.348 0 1 0-1.907 1.906ZM395.781 263.49l-19.2-19.201a1.348 1.348 0 0 0-1.906 1.907l19.199 19.201a1.35 1.35 0 0 0 1.907-1.907ZM422.605 304.663a1.348 1.348 0 1 0-1.907-1.907l-19.199 19.201a1.348 1.348 0 1 0 1.907 1.906l19.199-19.2ZM395.781 331.489a1.35 1.35 0 0 0-1.907-1.907l-19.199 19.201a1.348 1.348 0 1 0 1.906 1.907l19.2-19.201ZM401.499 331.489l19.199 19.201a1.35 1.35 0 0 0 1.907-1.907l-19.199-19.201a1.35 1.35 0 0 0-1.907 1.907ZM395.781 321.957l-19.2-19.201a1.348 1.348 0 0 0-1.906 1.907l19.199 19.2a1.348 1.348 0 1 0 1.907-1.906ZM422.605 364.954a1.348 1.348 0 1 0-1.907-1.907l-19.199 19.201a1.348 1.348 0 1 0 1.907 1.906l19.199-19.2ZM395.781 391.78a1.35 1.35 0 0 0-1.907-1.907l-19.199 19.201a1.348 1.348 0 1 0 1.906 1.907l19.2-19.201ZM401.499 391.78l19.199 19.201a1.35 1.35 0 0 0 1.907-1.907l-19.199-19.201a1.35 1.35 0 0 0-1.907 1.907ZM395.781 382.248l-19.2-19.201a1.348 1.348 0 0 0-1.906 1.907l19.199 19.2a1.348 1.348 0 1 0 1.907-1.906ZM539.531 246.196a1.35 1.35 0 0 0-1.907-1.907l-19.199 19.201a1.348 1.348 0 1 0 1.906 1.907l19.2-19.201ZM512.707 273.022a1.348 1.348 0 0 0-1.907-1.906l-19.199 19.2a1.348 1.348 0 1 0 1.906 1.907l19.2-19.201ZM518.425 273.022l19.199 19.201a1.35 1.35 0 0 0 1.907-1.907l-19.2-19.2a1.347 1.347 0 0 0-1.906 0 1.347 1.347 0 0 0 0 1.906ZM512.707 263.49l-19.2-19.201a1.348 1.348 0 0 0-1.906 1.907l19.199 19.201a1.35 1.35 0 0 0 1.907-1.907ZM539.531 304.663a1.35 1.35 0 0 0-1.907-1.907l-19.199 19.201a1.347 1.347 0 0 0 0 1.906c.526.527 1.38.527 1.906 0l19.2-19.2ZM512.707 331.489a1.35 1.35 0 0 0-1.907-1.907l-19.199 19.201a1.348 1.348 0 1 0 1.906 1.907l19.2-19.201ZM518.425 331.489l19.199 19.201a1.35 1.35 0 0 0 1.907-1.907l-19.2-19.201a1.348 1.348 0 0 0-1.906 1.907ZM512.707 321.957l-19.2-19.201a1.348 1.348 0 0 0-1.906 1.907l19.199 19.2a1.348 1.348 0 1 0 1.907-1.906ZM539.531 364.958a1.35 1.35 0 0 0-1.907-1.907l-19.199 19.201a1.347 1.347 0 0 0 0 1.906c.526.527 1.38.527 1.906 0l19.2-19.2ZM512.707 391.784a1.35 1.35 0 0 0-1.907-1.907l-19.199 19.201a1.347 1.347 0 0 0 0 1.906c.526.527 1.38.527 1.906 0l19.2-19.2ZM518.425 391.784l19.199 19.2a1.348 1.348 0 1 0 1.907-1.906l-19.2-19.201a1.348 1.348 0 0 0-1.906 1.907ZM512.707 382.252l-19.2-19.201a1.348 1.348 0 0 0-1.906 1.907l19.199 19.2a1.348 1.348 0 1 0 1.907-1.906ZM481.066 581.653a1.348 1.348 0 1 0-1.907-1.906l-19.199 19.2a1.348 1.348 0 1 0 1.907 1.907l19.199-19.201ZM454.242 608.479a1.348 1.348 0 0 0-1.907-1.906l-19.199 19.2a1.348 1.348 0 1 0 1.906 1.907l19.2-19.201ZM459.96 608.479l19.199 19.201a1.35 1.35 0 0 0 1.907-1.907l-19.199-19.2a1.348 1.348 0 1 0-1.907 1.906ZM454.242 598.947l-19.2-19.2a1.347 1.347 0 0 0-1.906 0 1.347 1.347 0 0 0 0 1.906l19.199 19.201a1.35 1.35 0 0 0 1.907-1.907ZM481.066 640.116a1.348 1.348 0 1 0-1.907-1.907L459.96 657.41a1.348 1.348 0 1 0 1.907 1.907l19.199-19.201ZM454.242 666.942a1.348 1.348 0 0 0-1.907-1.906l-19.199 19.2a1.348 1.348 0 1 0 1.906 1.907l19.2-19.201ZM459.96 666.942l19.199 19.201a1.35 1.35 0 0 0 1.907-1.907l-19.199-19.2a1.348 1.348 0 1 0-1.907 1.906ZM454.242 657.41l-19.2-19.201a1.348 1.348 0 0 0-1.906 1.907l19.199 19.201a1.35 1.35 0 0 0 1.907-1.907ZM481.066 700.409a1.348 1.348 0 1 0-1.907-1.907l-19.199 19.201a1.348 1.348 0 1 0 1.907 1.907l19.199-19.201ZM454.242 727.235a1.348 1.348 0 0 0-1.907-1.906l-19.199 19.2a1.348 1.348 0 1 0 1.906 1.907l19.2-19.201ZM459.96 727.235l19.199 19.201a1.35 1.35 0 0 0 1.907-1.907l-19.199-19.2a1.348 1.348 0 1 0-1.907 1.906ZM454.242 717.703l-19.2-19.201a1.348 1.348 0 0 0-1.906 1.907l19.199 19.201a1.35 1.35 0 0 0 1.907-1.907ZM422.605 581.653a1.348 1.348 0 1 0-1.907-1.906l-19.199 19.2a1.348 1.348 0 1 0 1.907 1.907l19.199-19.201ZM395.781 608.479a1.348 1.348 0 0 0-1.907-1.906l-19.199 19.2a1.348 1.348 0 1 0 1.906 1.907l19.2-19.201ZM401.499 608.479l19.199 19.201a1.35 1.35 0 0 0 1.907-1.907l-19.199-19.2a1.348 1.348 0 1 0-1.907 1.906ZM395.781 598.947l-19.2-19.2a1.347 1.347 0 0 0-1.906 0 1.347 1.347 0 0 0 0 1.906l19.199 19.201a1.35 1.35 0 0 0 1.907-1.907ZM422.605 640.116a1.348 1.348 0 1 0-1.907-1.907l-19.199 19.201a1.348 1.348 0 1 0 1.907 1.907l19.199-19.201ZM395.781 666.942a1.348 1.348 0 0 0-1.907-1.906l-19.199 19.2a1.348 1.348 0 1 0 1.906 1.907l19.2-19.201ZM401.499 666.942l19.199 19.201a1.35 1.35 0 0 0 1.907-1.907l-19.199-19.2a1.348 1.348 0 1 0-1.907 1.906ZM395.781 657.41l-19.2-19.201a1.348 1.348 0 0 0-1.906 1.907l19.199 19.201a1.35 1.35 0 0 0 1.907-1.907ZM422.605 700.409a1.348 1.348 0 1 0-1.907-1.907l-19.199 19.201a1.348 1.348 0 1 0 1.907 1.907l19.199-19.201ZM395.781 727.235a1.348 1.348 0 0 0-1.907-1.906l-19.199 19.2a1.348 1.348 0 1 0 1.906 1.907l19.2-19.201ZM401.499 727.235l19.199 19.201a1.35 1.35 0 0 0 1.907-1.907l-19.199-19.2a1.348 1.348 0 1 0-1.907 1.906ZM395.781 717.703l-19.2-19.201a1.348 1.348 0 0 0-1.906 1.907l19.199 19.201a1.35 1.35 0 0 0 1.907-1.907ZM539.531 581.653a1.348 1.348 0 0 0-1.907-1.906l-19.199 19.2a1.348 1.348 0 1 0 1.906 1.907l19.2-19.201ZM512.707 608.479a1.348 1.348 0 0 0-1.907-1.906l-19.199 19.2a1.348 1.348 0 1 0 1.906 1.907l19.2-19.201ZM518.425 608.479l19.199 19.201a1.35 1.35 0 0 0 1.907-1.907l-19.2-19.2a1.347 1.347 0 0 0-1.906 0 1.347 1.347 0 0 0 0 1.906ZM512.707 598.947l-19.2-19.2a1.347 1.347 0 0 0-1.906 0 1.347 1.347 0 0 0 0 1.906l19.199 19.201a1.35 1.35 0 0 0 1.907-1.907ZM539.531 640.116a1.35 1.35 0 0 0-1.907-1.907l-19.199 19.201a1.348 1.348 0 1 0 1.906 1.907l19.2-19.201ZM512.707 666.942a1.348 1.348 0 0 0-1.907-1.906l-19.199 19.2a1.348 1.348 0 1 0 1.906 1.907l19.2-19.201ZM518.425 666.942l19.199 19.201a1.35 1.35 0 0 0 1.907-1.907l-19.2-19.2a1.347 1.347 0 0 0-1.906 0 1.347 1.347 0 0 0 0 1.906ZM512.707 657.41l-19.2-19.201a1.348 1.348 0 0 0-1.906 1.907l19.199 19.201a1.35 1.35 0 0 0 1.907-1.907ZM539.531 700.409a1.35 1.35 0 0 0-1.907-1.907l-19.199 19.201a1.348 1.348 0 1 0 1.906 1.907l19.2-19.201ZM512.707 727.235a1.348 1.348 0 0 0-1.907-1.906l-19.199 19.2a1.348 1.348 0 1 0 1.906 1.907l19.2-19.201ZM518.425 727.235l19.199 19.201a1.35 1.35 0 0 0 1.907-1.907l-19.2-19.2a1.347 1.347 0 0 0-1.906 0 1.347 1.347 0 0 0 0 1.906ZM512.707 717.703l-19.2-19.201a1.348 1.348 0 0 0-1.906 1.907L510.8 719.61a1.35 1.35 0 0 0 1.907-1.907ZM43.52 246.196a1.348 1.348 0 0 0-1.907-1.907l-19.2 19.201a1.348 1.348 0 0 0 1.907 1.907l19.2-19.201ZM16.695 273.022a1.347 1.347 0 1 0-1.907-1.906l-19.2 19.2a1.348 1.348 0 0 0 1.908 1.907l19.199-19.201ZM22.413 273.022l19.2 19.201a1.349 1.349 0 0 0 1.906-1.907l-19.2-19.2a1.347 1.347 0 1 0-1.906 1.906ZM16.695 263.49l-19.2-19.201a1.35 1.35 0 0 0-1.906 1.907l19.2 19.201a1.35 1.35 0 0 0 1.906-1.907ZM43.52 304.663a1.348 1.348 0 0 0-1.907-1.907l-19.2 19.201a1.347 1.347 0 1 0 1.907 1.906l19.2-19.2ZM16.695 331.489a1.348 1.348 0 0 0-1.907-1.907l-19.2 19.201a1.348 1.348 0 0 0 1.908 1.907l19.199-19.201ZM22.413 331.489l19.2 19.201a1.349 1.349 0 0 0 1.906-1.907l-19.2-19.201a1.35 1.35 0 0 0-1.906 1.907ZM16.695 321.957l-19.2-19.201a1.35 1.35 0 0 0-1.906 1.907l19.2 19.2a1.347 1.347 0 1 0 1.906-1.906ZM43.52 364.958a1.348 1.348 0 0 0-1.907-1.907l-19.2 19.201a1.347 1.347 0 1 0 1.907 1.906l19.2-19.2ZM16.695 391.784a1.348 1.348 0 0 0-1.907-1.907l-19.2 19.201a1.347 1.347 0 1 0 1.908 1.906l19.199-19.2ZM22.413 391.784l19.2 19.2a1.347 1.347 0 1 0 1.906-1.906l-19.2-19.201a1.35 1.35 0 0 0-1.906 1.907ZM16.695 382.252l-19.2-19.201a1.35 1.35 0 0 0-1.906 1.907l19.2 19.2a1.347 1.347 0 1 0 1.906-1.906ZM43.52 581.653a1.347 1.347 0 1 0-1.907-1.906l-19.2 19.2a1.348 1.348 0 0 0 1.907 1.907l19.2-19.201ZM16.695 608.479a1.347 1.347 0 1 0-1.907-1.906l-19.2 19.2a1.348 1.348 0 0 0 1.908 1.907l19.199-19.201ZM22.413 608.479l19.2 19.201a1.349 1.349 0 0 0 1.906-1.907l-19.2-19.2a1.347 1.347 0 1 0-1.906 1.906ZM16.695 598.947l-19.2-19.2a1.347 1.347 0 1 0-1.906 1.906l19.2 19.201a1.35 1.35 0 0 0 1.906-1.907ZM43.52 640.116a1.348 1.348 0 0 0-1.907-1.907l-19.2 19.201a1.348 1.348 0 0 0 1.907 1.907l19.2-19.201ZM16.695 666.942a1.347 1.347 0 1 0-1.907-1.906l-19.2 19.2a1.348 1.348 0 0 0 1.908 1.907l19.199-19.201ZM22.413 666.942l19.2 19.201a1.349 1.349 0 0 0 1.906-1.907l-19.2-19.2a1.347 1.347 0 1 0-1.906 1.906ZM16.695 657.41l-19.2-19.201a1.35 1.35 0 0 0-1.906 1.907l19.2 19.201a1.35 1.35 0 0 0 1.906-1.907ZM43.52 700.409a1.348 1.348 0 0 0-1.907-1.907l-19.2 19.201a1.348 1.348 0 0 0 1.907 1.907l19.2-19.201ZM16.695 727.235a1.347 1.347 0 1 0-1.907-1.906l-19.2 19.2a1.348 1.348 0 0 0 1.908 1.907l19.199-19.201ZM22.413 727.235l19.2 19.201a1.349 1.349 0 0 0 1.906-1.907l-19.2-19.2a1.347 1.347 0 1 0-1.906 1.906ZM16.695 717.703l-19.2-19.201a1.35 1.35 0 0 0-1.906 1.907l19.2 19.201a1.35 1.35 0 0 0 1.906-1.907Z" />
    <path stroke="#1B1B1D" stroke-width="1.46"
      d="M539.164-91.775V75.75h-165.08V-91.775zM539.926 76.31v166.512H374.509V76.31zM539.164 243.889v167.525h-165.08V243.889zM539.926 411.527v167.525h-165.08V411.527z" />
    <path stroke="#1B1B1D" stroke-width="1.46" d="M539.164 578.939v167.525h-165.08V578.939z" />
    <path stroke="#1B1B1D" stroke-width="1.46"
      d="M539.164 746.461v168.137h-165.08V746.461zM539.164 914.602v167.525h-165.08V914.602zM374.082 75.754V243.89h-165.08V75.754z" />
    <path stroke="#1B1B1D" stroke-width="1.46"
      d="M374.082 243.889v167.525h-165.08V243.889zM374.082 411.416v167.525h-165.08V411.416z" />
    <path stroke="#1B1B1D" stroke-width="1.46" d="M374.082 578.939v167.525h-165.08V578.939z" />
    <path stroke="#1B1B1D" stroke-width="1.46"
      d="M374.082 746.461v168.137h-165.08V746.461zM209.008-91.775V75.75H43.928V-91.775zM209.008 75.754V243.89H43.928V75.754z" />
    <path stroke="#1B1B1D" stroke-width="1.46"
      d="M209.008 243.889v167.525H43.928V243.889zM209.008 578.939v167.525H43.928V578.939z" />
    <path stroke="#1B1B1D" stroke-width="1.46"
      d="M209.008 411.416v167.525H43.928V411.416zM209.008 746.461v168.137H43.928V746.461zM43.918-91.775V75.75h-165.08V-91.775z" />
    <path stroke="#1B1B1D" stroke-width="1.46"
      d="M43.676 75.217v168.137h-165.08V75.217zM43.918 243.889v167.525h-165.08V243.889zM43.676 411.525V579.05h-165.08V411.525z" />
    <path stroke="#1B1B1D" stroke-width="1.46" d="M43.918 578.939v167.525h-165.08V578.939z" />
    <path stroke="#1B1B1D" stroke-width="1.46"
      d="M43.918 746.461v168.137h-165.08V746.461zM374.082 914.602v167.525h-165.08V914.602z" />
    <path stroke="#1B1B1D" stroke-width="1.46"
      d="M209.008 914.602v167.525H43.928V914.602zM43.918 914.602v167.525h-165.08V914.602z" />
    <path stroke="#fff" stroke-width="1.46"
      d="M209.09 251.59v-6.574h-6.567M215.668 245.015h-6.567v-6.574M209.012 749.707v-3.259h-3.26M212.277 746.449h-3.259v-3.26M43.672 250.473v-6.57h-6.57M50.25 243.915h-6.57v-6.569M43.672 82.865v-6.57h-6.57M50.25 76.308h-6.57v-6.57M539.918 82.883V76.31h-6.567M546.5 76.31h-6.567v-6.572M374.504 251.588v-6.573h-6.567M381.082 245.014h-6.567v-6.573M539.922 251.588v-6.573h-6.567M546.5 245.014h-6.567v-6.573M209.09 418.1v-6.573h-6.567M215.668 411.526h-6.567v-6.573M43.676 418.1v-6.573h-6.57M50.25 411.526h-6.57v-6.573M374.504 418.1v-6.573h-6.567M381.082 411.525h-6.567v-6.572M539.922 418.1v-6.573h-6.567M546.5 411.525h-6.567v-6.572M370.77 756.336v-6.572h-6.568M377.348 749.762h-6.568v-6.573M40.594 756.336v-6.572h-6.568M47.172 749.762h-6.567v-6.573M376.027 1021.47v-2.81h-2.814M378.832 1018.66h-2.815v-2.82" />
    <path fill="#1B1B1D"
      d="M497.649 492.552c-18.614-5.496-33.288-20.153-38.769-38.745-.693-2.331-3.971-2.331-4.664 0-5.481 18.582-20.155 33.249-38.769 38.745-2.327.687-2.327 4.008 0 4.706 18.614 5.496 33.288 20.153 38.769 38.745.693 2.331 3.971 2.331 4.664 0 5.481-18.582 20.155-33.249 38.769-38.745 2.327-.687 2.327-4.008 0-4.706ZM2.497 492.552c-18.614-5.496-33.288-20.153-38.77-38.745-.692-2.331-3.97-2.331-4.663 0-5.481 18.582-20.155 33.249-38.77 38.745-2.326.687-2.326 4.008 0 4.706 18.615 5.496 33.289 20.153 38.77 38.745.693 2.331 3.971 2.331 4.664 0 5.48-18.582 20.155-33.249 38.77-38.745 2.326-.687 2.326-4.008 0-4.706ZM2.497 157.338c-18.614-5.497-33.288-20.154-38.77-38.745-.692-2.332-3.97-2.332-4.663 0-5.481 18.581-20.155 33.248-38.77 38.745-2.326.687-2.326 4.007 0 4.705 18.615 5.496 33.289 20.153 38.77 38.745.693 2.332 3.971 2.332 4.664 0 5.48-18.582 20.155-33.249 38.77-38.745 2.326-.687 2.326-4.008 0-4.705ZM497.649 157.338c-18.614-5.497-33.288-20.154-38.769-38.745-.693-2.332-3.971-2.332-4.664 0-5.481 18.581-20.155 33.248-38.769 38.745-2.327.687-2.327 4.007 0 4.705 18.614 5.496 33.288 20.153 38.769 38.745.693 2.332 3.971 2.332 4.664 0 5.481-18.582 20.155-33.249 38.769-38.745 2.327-.687 2.327-4.008 0-4.705Z" />
    <path stroke="#1B1B1D" stroke-width="1.46" d="M374.508-91.297V76.31H209.092V-91.297z" />
    <path stroke="#fff" stroke-width="1.46"
      d="M209.094 82.887v-6.574h-6.574M215.68 76.312h-6.574v-6.574M374.5 82.883V76.31h-6.567M381.082 76.31h-6.567v-6.572" />
    <path fill="#1B1B1D"
      d="M332.231-10.27c-18.614-5.496-33.288-20.153-38.769-38.745-.693-2.332-3.971-2.332-4.664 0-5.481 18.582-20.155 33.249-38.769 38.745-2.327.687-2.327 4.008 0 4.705 18.614 5.497 33.288 20.154 38.769 38.745.693 2.332 3.971 2.332 4.664 0C298.943 14.6 313.617-.068 332.231-5.565c2.327-.687 2.327-4.007 0-4.705ZM472.59 854.121c-13.081-3.863-23.393-14.163-27.245-27.228-.487-1.639-2.791-1.639-3.277 0-3.852 13.058-14.164 23.365-27.245 27.228-1.635.483-1.635 2.816 0 3.306 13.081 3.863 23.393 14.163 27.245 27.228.486 1.639 2.79 1.639 3.277 0 3.852-13.058 14.164-23.365 27.245-27.228 1.635-.483 1.635-2.816 0-3.306ZM3.403 854.121c-13.081-3.863-23.394-14.163-27.245-27.228-.487-1.639-2.791-1.639-3.278 0-3.852 13.058-14.164 23.365-27.245 27.228-1.635.483-1.635 2.816 0 3.306 13.081 3.863 23.393 14.163 27.245 27.228.487 1.639 2.79 1.639 3.278 0 3.851-13.058 14.163-23.365 27.245-27.228 1.635-.483 1.635-2.816 0-3.306ZM1711.87 879.865a.74.74 0 0 0-1.04-.01.73.73 0 0 0-.01 1.032l1.05-1.022Zm-1.05 1.022 164.42 167.763 1.05-1.02-164.42-167.765-1.05 1.022Z" />
    <path fill="#1B1B1D"
      d="M1876.49 1047.63a.727.727 0 0 0-1.03-.01.74.74 0 0 0 0 1.04l1.03-1.03Zm-1.03 1.03 165.76 167.17 1.04-1.03-165.77-167.17-1.03 1.03ZM1710.31 879.865a.727.727 0 0 1 1.03-.01c.29.282.3.744.01 1.032l-1.04-1.022Zm1.04 1.022-164.42 167.763-1.04-1.02 164.42-167.765 1.04 1.022Z" />
    <path fill="#1B1B1D"
      d="M1545.33 1047.63c.28-.29.75-.29 1.03-.01.29.29.29.75.01 1.04l-1.04-1.03Zm1.04 1.03-165.77 167.17-1.04-1.03 165.77-167.17 1.04 1.03ZM1710.43 376.873c.33.224.79.134 1.01-.201a.739.739 0 0 0-.2-1.013l-.81 1.214Zm.81-1.214-164.42-109.805-.82 1.214 164.43 109.805.81-1.214Z" />
    <path fill="#1B1B1D"
      d="M1711.74 376.873a.727.727 0 0 1-1.01-.201.739.739 0 0 1 .2-1.013l.81 1.214Zm-.81-1.214 164.42-109.805.81 1.214-164.42 109.805-.81-1.214ZM1924.42 877.343c.52.526.52 1.38 0 1.907-.53.526-1.38.526-1.91 0l-19.2-19.201a1.342 1.342 0 0 1 0-1.907 1.353 1.353 0 0 1 1.91 0l19.2 19.201ZM1897.59 850.517c.53.526.53 1.38 0 1.906a1.34 1.34 0 0 1-1.9 0l-19.2-19.2a1.342 1.342 0 0 1 0-1.907 1.341 1.341 0 0 1 1.9 0l19.2 19.201ZM1903.31 850.517l19.2-19.201a1.353 1.353 0 0 1 1.91 0c.52.527.52 1.38 0 1.907l-19.2 19.2c-.53.527-1.38.527-1.91 0a1.341 1.341 0 0 1 0-1.906ZM1897.59 860.049l-19.2 19.201c-.52.526-1.38.526-1.9 0a1.342 1.342 0 0 1 0-1.907l19.2-19.201a1.341 1.341 0 0 1 1.9 0c.53.527.53 1.381 0 1.907ZM1924.42 818.876c.52.527.52 1.38 0 1.907-.53.526-1.38.526-1.91 0l-19.2-19.201a1.341 1.341 0 0 1 0-1.906 1.351 1.351 0 0 1 1.91 0l19.2 19.2ZM1897.59 792.05c.53.526.53 1.38 0 1.907-.52.526-1.38.526-1.9 0l-19.2-19.201a1.342 1.342 0 0 1 0-1.907 1.341 1.341 0 0 1 1.9 0l19.2 19.201ZM1903.31 792.05l19.2-19.201a1.353 1.353 0 0 1 1.91 0 1.36 1.36 0 0 1 0 1.907l-19.2 19.201c-.53.526-1.38.526-1.91 0a1.342 1.342 0 0 1 0-1.907ZM1897.59 801.582l-19.2 19.201c-.52.526-1.38.526-1.9 0a1.342 1.342 0 0 1 0-1.907l19.2-19.2a1.34 1.34 0 0 1 1.9 0c.53.526.53 1.38 0 1.906ZM1924.42 758.585c.52.527.52 1.38 0 1.907-.53.526-1.38.526-1.91 0l-19.2-19.201a1.341 1.341 0 0 1 0-1.906 1.351 1.351 0 0 1 1.91 0l19.2 19.2ZM1897.59 731.759c.53.526.53 1.38 0 1.907-.52.526-1.38.526-1.9 0l-19.2-19.201a1.342 1.342 0 0 1 0-1.907 1.341 1.341 0 0 1 1.9 0l19.2 19.201ZM1903.31 731.759l19.2-19.201a1.353 1.353 0 0 1 1.91 0 1.36 1.36 0 0 1 0 1.907l-19.2 19.201c-.53.526-1.38.526-1.91 0a1.342 1.342 0 0 1 0-1.907ZM1897.59 741.291l-19.2 19.201c-.52.526-1.38.526-1.9 0a1.342 1.342 0 0 1 0-1.907l19.2-19.2a1.34 1.34 0 0 1 1.9 0c.53.526.53 1.38 0 1.906ZM1924.42 541.886c.52.526.52 1.38 0 1.907-.53.526-1.38.526-1.91 0l-19.2-19.201a1.342 1.342 0 0 1 0-1.907 1.353 1.353 0 0 1 1.91 0l19.2 19.201ZM1897.59 515.06c.53.526.53 1.38 0 1.906a1.34 1.34 0 0 1-1.9 0l-19.2-19.2a1.342 1.342 0 0 1 0-1.907 1.341 1.341 0 0 1 1.9 0l19.2 19.201ZM1903.31 515.06l19.2-19.201a1.353 1.353 0 0 1 1.91 0c.52.527.52 1.38 0 1.907l-19.2 19.2c-.53.527-1.38.527-1.91 0a1.341 1.341 0 0 1 0-1.906ZM1897.59 524.592l-19.2 19.201c-.52.526-1.38.526-1.9 0a1.342 1.342 0 0 1 0-1.907l19.2-19.201a1.341 1.341 0 0 1 1.9 0c.53.527.53 1.381 0 1.907ZM1924.42 483.423c.52.527.52 1.38 0 1.907-.53.526-1.38.526-1.91 0l-19.2-19.201a1.342 1.342 0 0 1 0-1.907 1.353 1.353 0 0 1 1.91 0l19.2 19.201ZM1897.59 456.597c.53.526.53 1.38 0 1.906a1.34 1.34 0 0 1-1.9 0l-19.2-19.2a1.342 1.342 0 0 1 0-1.907 1.341 1.341 0 0 1 1.9 0l19.2 19.201ZM1903.31 456.597l19.2-19.201a1.353 1.353 0 0 1 1.91 0c.52.527.52 1.38 0 1.907l-19.2 19.2c-.53.527-1.38.527-1.91 0a1.341 1.341 0 0 1 0-1.906ZM1897.59 466.129l-19.2 19.201c-.52.526-1.38.526-1.9 0a1.342 1.342 0 0 1 0-1.907l19.2-19.201a1.341 1.341 0 0 1 1.9 0c.53.527.53 1.381 0 1.907ZM1924.42 423.13c.52.527.52 1.38 0 1.907-.53.526-1.38.526-1.91 0l-19.2-19.201a1.341 1.341 0 0 1 0-1.906 1.351 1.351 0 0 1 1.91 0l19.2 19.2ZM1897.59 396.304c.53.526.53 1.38 0 1.907-.52.526-1.38.526-1.9 0l-19.2-19.201a1.342 1.342 0 0 1 0-1.907 1.341 1.341 0 0 1 1.9 0l19.2 19.201ZM1903.31 396.304l19.2-19.201a1.353 1.353 0 0 1 1.91 0c.52.527.52 1.38 0 1.907l-19.2 19.201c-.53.526-1.38.526-1.91 0a1.342 1.342 0 0 1 0-1.907ZM1897.59 405.836l-19.2 19.201c-.52.526-1.38.526-1.9 0a1.342 1.342 0 0 1 0-1.907l19.2-19.2a1.34 1.34 0 0 1 1.9 0c.53.526.53 1.38 0 1.906ZM1486.87 877.343c.52.526.52 1.38 0 1.907-.53.526-1.38.526-1.91 0l-19.2-19.201a1.342 1.342 0 0 1 0-1.907 1.353 1.353 0 0 1 1.91 0l19.2 19.201ZM1460.04 850.517c.53.526.53 1.38 0 1.906a1.34 1.34 0 0 1-1.9 0l-19.2-19.2a1.342 1.342 0 0 1 0-1.907 1.341 1.341 0 0 1 1.9 0l19.2 19.201ZM1465.76 850.517l19.2-19.201a1.353 1.353 0 0 1 1.91 0c.52.527.52 1.38 0 1.907l-19.2 19.2c-.53.527-1.38.527-1.91 0a1.341 1.341 0 0 1 0-1.906ZM1460.04 860.049l-19.2 19.201c-.52.526-1.38.526-1.9 0a1.342 1.342 0 0 1 0-1.907l19.2-19.201a1.341 1.341 0 0 1 1.9 0c.53.527.53 1.381 0 1.907ZM1486.87 818.876c.52.527.52 1.38 0 1.907-.53.526-1.38.526-1.91 0l-19.2-19.201a1.341 1.341 0 0 1 0-1.906 1.351 1.351 0 0 1 1.91 0l19.2 19.2ZM1460.04 792.05c.53.526.53 1.38 0 1.907-.52.526-1.38.526-1.9 0l-19.2-19.201a1.342 1.342 0 0 1 0-1.907 1.341 1.341 0 0 1 1.9 0l19.2 19.201ZM1465.76 792.05l19.2-19.201a1.353 1.353 0 0 1 1.91 0 1.36 1.36 0 0 1 0 1.907l-19.2 19.201c-.53.526-1.38.526-1.91 0a1.342 1.342 0 0 1 0-1.907ZM1460.04 801.582l-19.2 19.201c-.52.526-1.38.526-1.9 0a1.342 1.342 0 0 1 0-1.907l19.2-19.2a1.34 1.34 0 0 1 1.9 0c.53.526.53 1.38 0 1.906ZM1486.87 758.585c.52.527.52 1.38 0 1.907-.53.526-1.38.526-1.91 0l-19.2-19.201a1.341 1.341 0 0 1 0-1.906 1.351 1.351 0 0 1 1.91 0l19.2 19.2ZM1460.04 731.759c.53.526.53 1.38 0 1.907-.52.526-1.38.526-1.9 0l-19.2-19.201a1.342 1.342 0 0 1 0-1.907 1.341 1.341 0 0 1 1.9 0l19.2 19.201ZM1465.76 731.759l19.2-19.201a1.353 1.353 0 0 1 1.91 0 1.36 1.36 0 0 1 0 1.907l-19.2 19.201c-.53.526-1.38.526-1.91 0a1.342 1.342 0 0 1 0-1.907ZM1460.04 741.291l-19.2 19.201c-.52.526-1.38.526-1.9 0a1.342 1.342 0 0 1 0-1.907l19.2-19.2a1.34 1.34 0 0 1 1.9 0c.53.526.53 1.38 0 1.906ZM1428.4 877.343c.52.526.52 1.38 0 1.907-.53.526-1.38.526-1.91 0l-19.2-19.201a1.36 1.36 0 0 1 0-1.907 1.353 1.353 0 0 1 1.91 0l19.2 19.201ZM1401.57 850.517c.53.526.53 1.38 0 1.906a1.34 1.34 0 0 1-1.9 0l-19.2-19.2a1.342 1.342 0 0 1 0-1.907 1.341 1.341 0 0 1 1.9 0l19.2 19.201ZM1407.29 850.517l19.2-19.201a1.353 1.353 0 0 1 1.91 0c.52.527.52 1.38 0 1.907l-19.2 19.2c-.53.527-1.38.527-1.91 0a1.36 1.36 0 0 1 0-1.906ZM1401.57 860.049l-19.2 19.201c-.52.526-1.38.526-1.9 0a1.342 1.342 0 0 1 0-1.907l19.2-19.201a1.341 1.341 0 0 1 1.9 0c.53.527.53 1.381 0 1.907ZM1428.4 818.876c.52.527.52 1.38 0 1.907-.53.526-1.38.526-1.91 0l-19.2-19.201a1.36 1.36 0 0 1 0-1.906 1.351 1.351 0 0 1 1.91 0l19.2 19.2ZM1401.57 792.05c.53.526.53 1.38 0 1.907-.52.526-1.38.526-1.9 0l-19.2-19.201a1.342 1.342 0 0 1 0-1.907 1.341 1.341 0 0 1 1.9 0l19.2 19.201ZM1407.29 792.05l19.2-19.201a1.353 1.353 0 0 1 1.91 0 1.36 1.36 0 0 1 0 1.907l-19.2 19.201c-.53.526-1.38.526-1.91 0a1.36 1.36 0 0 1 0-1.907ZM1401.57 801.582l-19.2 19.201c-.52.526-1.38.526-1.9 0a1.342 1.342 0 0 1 0-1.907l19.2-19.2a1.34 1.34 0 0 1 1.9 0c.53.526.53 1.38 0 1.906ZM1428.4 758.585c.52.527.52 1.38 0 1.907-.53.526-1.38.526-1.91 0l-19.2-19.201a1.36 1.36 0 0 1 0-1.906 1.351 1.351 0 0 1 1.91 0l19.2 19.2ZM1401.57 731.759c.53.526.53 1.38 0 1.907-.52.526-1.38.526-1.9 0l-19.2-19.201a1.342 1.342 0 0 1 0-1.907 1.341 1.341 0 0 1 1.9 0l19.2 19.201ZM1407.29 731.759l19.2-19.201a1.353 1.353 0 0 1 1.91 0 1.36 1.36 0 0 1 0 1.907l-19.2 19.201c-.53.526-1.38.526-1.91 0a1.36 1.36 0 0 1 0-1.907ZM1401.57 741.291l-19.2 19.201c-.52.526-1.38.526-1.9 0a1.342 1.342 0 0 1 0-1.907l19.2-19.2a1.34 1.34 0 0 1 1.9 0c.53.526.53 1.38 0 1.906ZM1545.33 877.343c.53.526.53 1.38 0 1.907-.52.526-1.38.526-1.9 0l-19.2-19.201a1.342 1.342 0 0 1 0-1.907 1.341 1.341 0 0 1 1.9 0l19.2 19.201ZM1518.51 850.517c.52.526.52 1.38 0 1.906-.53.527-1.38.527-1.91 0l-19.2-19.2a1.342 1.342 0 0 1 0-1.907 1.353 1.353 0 0 1 1.91 0l19.2 19.201ZM1524.23 850.517l19.2-19.201a1.341 1.341 0 0 1 1.9 0c.53.527.53 1.38 0 1.907l-19.2 19.2a1.34 1.34 0 0 1-1.9 0 1.341 1.341 0 0 1 0-1.906ZM1518.51 860.049l-19.2 19.201c-.53.526-1.38.526-1.91 0a1.342 1.342 0 0 1 0-1.907l19.2-19.201a1.353 1.353 0 0 1 1.91 0 1.36 1.36 0 0 1 0 1.907ZM1545.33 818.876c.53.527.53 1.38 0 1.907-.52.526-1.38.526-1.9 0l-19.2-19.201a1.341 1.341 0 0 1 0-1.906 1.34 1.34 0 0 1 1.9 0l19.2 19.2ZM1518.51 792.05c.52.526.52 1.38 0 1.907-.53.526-1.38.526-1.91 0l-19.2-19.201a1.342 1.342 0 0 1 0-1.907 1.353 1.353 0 0 1 1.91 0l19.2 19.201ZM1524.23 792.05l19.2-19.201a1.341 1.341 0 0 1 1.9 0c.53.527.53 1.381 0 1.907l-19.2 19.201c-.52.526-1.38.526-1.9 0a1.342 1.342 0 0 1 0-1.907ZM1518.51 801.582l-19.2 19.201c-.53.526-1.38.526-1.91 0a1.342 1.342 0 0 1 0-1.907l19.2-19.2a1.351 1.351 0 0 1 1.91 0c.52.526.52 1.38 0 1.906ZM1545.33 758.581c.53.527.53 1.38 0 1.907-.52.526-1.38.526-1.9 0l-19.2-19.201a1.341 1.341 0 0 1 0-1.906 1.34 1.34 0 0 1 1.9 0l19.2 19.2ZM1518.51 731.755c.52.527.52 1.38 0 1.907-.53.526-1.38.526-1.91 0l-19.2-19.201a1.341 1.341 0 0 1 0-1.906 1.351 1.351 0 0 1 1.91 0l19.2 19.2ZM1524.23 731.755l19.2-19.2a1.34 1.34 0 0 1 1.9 0c.53.526.53 1.38 0 1.906l-19.2 19.201c-.52.526-1.38.526-1.9 0a1.342 1.342 0 0 1 0-1.907ZM1518.51 741.287l-19.2 19.201c-.53.526-1.38.526-1.91 0a1.342 1.342 0 0 1 0-1.907l19.2-19.2a1.351 1.351 0 0 1 1.91 0c.52.526.52 1.38 0 1.906ZM1486.87 541.886c.52.526.52 1.38 0 1.907-.53.526-1.38.526-1.91 0l-19.2-19.201a1.342 1.342 0 0 1 0-1.907 1.353 1.353 0 0 1 1.91 0l19.2 19.201ZM1460.04 515.06c.53.526.53 1.38 0 1.906a1.34 1.34 0 0 1-1.9 0l-19.2-19.2a1.342 1.342 0 0 1 0-1.907 1.341 1.341 0 0 1 1.9 0l19.2 19.201ZM1465.76 515.06l19.2-19.201a1.353 1.353 0 0 1 1.91 0c.52.527.52 1.38 0 1.907l-19.2 19.2c-.53.527-1.38.527-1.91 0a1.341 1.341 0 0 1 0-1.906ZM1460.04 524.592l-19.2 19.201c-.52.526-1.38.526-1.9 0a1.342 1.342 0 0 1 0-1.907l19.2-19.201a1.341 1.341 0 0 1 1.9 0c.53.527.53 1.381 0 1.907ZM1486.87 483.423c.52.527.52 1.38 0 1.907-.53.526-1.38.526-1.91 0l-19.2-19.201a1.342 1.342 0 0 1 0-1.907 1.353 1.353 0 0 1 1.91 0l19.2 19.201ZM1460.04 456.597c.53.526.53 1.38 0 1.906a1.34 1.34 0 0 1-1.9 0l-19.2-19.2a1.342 1.342 0 0 1 0-1.907 1.341 1.341 0 0 1 1.9 0l19.2 19.201ZM1465.76 456.597l19.2-19.201a1.353 1.353 0 0 1 1.91 0c.52.527.52 1.38 0 1.907l-19.2 19.2c-.53.527-1.38.527-1.91 0a1.341 1.341 0 0 1 0-1.906ZM1460.04 466.129l-19.2 19.201c-.52.526-1.38.526-1.9 0a1.342 1.342 0 0 1 0-1.907l19.2-19.201a1.341 1.341 0 0 1 1.9 0c.53.527.53 1.381 0 1.907ZM1486.87 423.13c.52.527.52 1.38 0 1.907-.53.526-1.38.526-1.91 0l-19.2-19.201a1.341 1.341 0 0 1 0-1.906 1.351 1.351 0 0 1 1.91 0l19.2 19.2ZM1460.04 396.304c.53.526.53 1.38 0 1.907-.52.526-1.38.526-1.9 0l-19.2-19.201a1.342 1.342 0 0 1 0-1.907 1.341 1.341 0 0 1 1.9 0l19.2 19.201ZM1465.76 396.304l19.2-19.201a1.353 1.353 0 0 1 1.91 0c.52.527.52 1.38 0 1.907l-19.2 19.201c-.53.526-1.38.526-1.91 0a1.342 1.342 0 0 1 0-1.907ZM1460.04 405.836l-19.2 19.201c-.52.526-1.38.526-1.9 0a1.342 1.342 0 0 1 0-1.907l19.2-19.2a1.34 1.34 0 0 1 1.9 0c.53.526.53 1.38 0 1.906ZM1428.4 541.886c.52.526.52 1.38 0 1.907-.53.526-1.38.526-1.91 0l-19.2-19.201a1.36 1.36 0 0 1 0-1.907 1.353 1.353 0 0 1 1.91 0l19.2 19.201ZM1401.57 515.06c.53.526.53 1.38 0 1.906a1.34 1.34 0 0 1-1.9 0l-19.2-19.2a1.342 1.342 0 0 1 0-1.907 1.341 1.341 0 0 1 1.9 0l19.2 19.201ZM1407.29 515.06l19.2-19.201a1.353 1.353 0 0 1 1.91 0c.52.527.52 1.38 0 1.907l-19.2 19.2c-.53.527-1.38.527-1.91 0a1.36 1.36 0 0 1 0-1.906ZM1401.57 524.592l-19.2 19.201c-.52.526-1.38.526-1.9 0a1.342 1.342 0 0 1 0-1.907l19.2-19.201a1.341 1.341 0 0 1 1.9 0c.53.527.53 1.381 0 1.907ZM1428.4 483.423c.52.527.52 1.38 0 1.907-.53.526-1.38.526-1.91 0l-19.2-19.201a1.36 1.36 0 0 1 0-1.907 1.353 1.353 0 0 1 1.91 0l19.2 19.201ZM1401.57 456.597c.53.526.53 1.38 0 1.906a1.34 1.34 0 0 1-1.9 0l-19.2-19.2a1.342 1.342 0 0 1 0-1.907 1.341 1.341 0 0 1 1.9 0l19.2 19.201ZM1407.29 456.597l19.2-19.201a1.353 1.353 0 0 1 1.91 0c.52.527.52 1.38 0 1.907l-19.2 19.2c-.53.527-1.38.527-1.91 0a1.36 1.36 0 0 1 0-1.906ZM1401.57 466.129l-19.2 19.201c-.52.526-1.38.526-1.9 0a1.342 1.342 0 0 1 0-1.907l19.2-19.201a1.341 1.341 0 0 1 1.9 0c.53.527.53 1.381 0 1.907ZM1428.4 423.13c.52.527.52 1.38 0 1.907-.53.526-1.38.526-1.91 0l-19.2-19.201a1.36 1.36 0 0 1 0-1.906 1.351 1.351 0 0 1 1.91 0l19.2 19.2ZM1401.57 396.304c.53.526.53 1.38 0 1.907-.52.526-1.38.526-1.9 0l-19.2-19.201a1.342 1.342 0 0 1 0-1.907 1.341 1.341 0 0 1 1.9 0l19.2 19.201ZM1407.29 396.304l19.2-19.201a1.353 1.353 0 0 1 1.91 0c.52.527.52 1.38 0 1.907l-19.2 19.201c-.53.526-1.38.526-1.91 0a1.36 1.36 0 0 1 0-1.907ZM1401.57 405.836l-19.2 19.201c-.52.526-1.38.526-1.9 0a1.342 1.342 0 0 1 0-1.907l19.2-19.2a1.34 1.34 0 0 1 1.9 0c.53.526.53 1.38 0 1.906ZM1545.33 541.886c.53.526.53 1.38 0 1.907-.52.526-1.38.526-1.9 0l-19.2-19.201a1.342 1.342 0 0 1 0-1.907 1.341 1.341 0 0 1 1.9 0l19.2 19.201ZM1518.51 515.06c.52.526.52 1.38 0 1.906-.53.527-1.38.527-1.91 0l-19.2-19.2a1.342 1.342 0 0 1 0-1.907 1.353 1.353 0 0 1 1.91 0l19.2 19.201ZM1524.23 515.06l19.2-19.201a1.341 1.341 0 0 1 1.9 0c.53.527.53 1.38 0 1.907l-19.2 19.2a1.34 1.34 0 0 1-1.9 0 1.341 1.341 0 0 1 0-1.906ZM1518.51 524.592l-19.2 19.201c-.53.526-1.38.526-1.91 0a1.342 1.342 0 0 1 0-1.907l19.2-19.201a1.353 1.353 0 0 1 1.91 0 1.36 1.36 0 0 1 0 1.907ZM1545.33 483.423c.53.527.53 1.38 0 1.907-.52.526-1.38.526-1.9 0l-19.2-19.201a1.342 1.342 0 0 1 0-1.907 1.341 1.341 0 0 1 1.9 0l19.2 19.201ZM1518.51 456.597c.52.526.52 1.38 0 1.906-.53.527-1.38.527-1.91 0l-19.2-19.2a1.342 1.342 0 0 1 0-1.907 1.353 1.353 0 0 1 1.91 0l19.2 19.201ZM1524.23 456.597l19.2-19.201a1.341 1.341 0 0 1 1.9 0c.53.527.53 1.38 0 1.907l-19.2 19.2a1.34 1.34 0 0 1-1.9 0 1.341 1.341 0 0 1 0-1.906ZM1518.51 466.129l-19.2 19.201c-.53.526-1.38.526-1.91 0a1.342 1.342 0 0 1 0-1.907l19.2-19.201a1.353 1.353 0 0 1 1.91 0 1.36 1.36 0 0 1 0 1.907ZM1545.33 423.13c.53.527.53 1.38 0 1.907-.52.526-1.38.526-1.9 0l-19.2-19.201a1.341 1.341 0 0 1 0-1.906 1.34 1.34 0 0 1 1.9 0l19.2 19.2ZM1518.51 396.304c.52.526.52 1.38 0 1.907-.53.526-1.38.526-1.91 0l-19.2-19.201a1.342 1.342 0 0 1 0-1.907 1.353 1.353 0 0 1 1.91 0l19.2 19.201ZM1524.23 396.304l19.2-19.201a1.341 1.341 0 0 1 1.9 0c.53.527.53 1.38 0 1.907l-19.2 19.201c-.52.526-1.38.526-1.9 0a1.342 1.342 0 0 1 0-1.907ZM1518.51 405.836l-19.2 19.201c-.53.526-1.38.526-1.91 0a1.342 1.342 0 0 1 0-1.907l19.2-19.2a1.351 1.351 0 0 1 1.91 0c.52.526.52 1.38 0 1.906Z" />
    <path stroke="#1B1B1D" stroke-width="1.46"
      d="M2040.98 1215.31v-167.525H1875.9v167.525zM2041.74 1047.23V880.718h-165.416v166.512zM2040.98 879.65V712.125H1875.9V879.65zM2041.74 712.012V544.487h-165.08v167.525z" />
    <path stroke="#1B1B1D" stroke-width="1.46" d="M2040.98 544.6V377.075H1875.9V544.6z" />
    <path stroke="#1B1B1D" stroke-width="1.46"
      d="M2040.98 377.078V208.941H1875.9v168.137zM2040.98 208.938V41.413H1875.9v167.525zM1875.89 1047.79V879.653h-165.08v168.137zM1875.89 879.65V712.125h-165.08V879.65zM1875.89 712.123V544.598h-165.08v167.525z" />
    <path stroke="#1B1B1D" stroke-width="1.46" d="M1875.89 544.6V377.075h-165.08V544.6z" />
    <path stroke="#1B1B1D" stroke-width="1.46"
      d="M1875.89 377.078V208.941h-165.08v168.137zM1710.82 1215.31v-167.525h-165.08v167.525z" />
    <path stroke="#1B1B1D" stroke-width="1.46"
      d="M1710.82 1047.79V879.653h-165.08v168.137zM1710.82 879.65V712.125h-165.08V879.65zM1710.82 544.6V377.075h-165.08V544.6z" />
    <path stroke="#1B1B1D" stroke-width="1.46"
      d="M1710.82 712.123V544.598h-165.08v167.525zM1710.82 377.078V208.941h-165.08v168.137zM1545.73 1215.31v-167.525h-165.08v167.525z" />
    <path stroke="#1B1B1D" stroke-width="1.46"
      d="M1545.49 1048.32V880.183h-165.08v168.137zM1545.73 879.65V712.125h-165.08V879.65zM1545.49 712.014V544.489h-165.08v167.525z" />
    <path stroke="#1B1B1D" stroke-width="1.46" d="M1545.73 544.6V377.075h-165.08V544.6z" />
    <path stroke="#1B1B1D" stroke-width="1.46"
      d="M1545.73 377.078V208.941h-165.08v168.137zM1875.89 208.938V41.413h-165.08v167.525z" />
    <path stroke="#1B1B1D" stroke-width="1.46"
      d="M1710.82 208.938V41.413h-165.08v167.525zM1545.73 208.938V41.413h-165.08v167.525z" />
    <path stroke="#fff" stroke-width="1.46"
      d="M1710.9 871.949v6.574h-6.56M1717.48 878.524h-6.57v6.574M1710.82 373.832v3.259h-3.26M1714.09 377.09h-3.26v3.26M1545.48 873.066v6.57h-6.56M1552.06 879.624h-6.57v6.569M1380.07 873.066v6.57h-6.57M1386.64 879.624h-6.56v6.569M1545.48 1040.67v6.57h-6.56M1552.06 1047.23h-6.57v6.57M1380.07 1040.67v6.57h-6.57M1386.64 1047.23h-6.56v6.57M1876.32 871.951v6.573h-6.57M1882.89 878.525h-6.56v6.573M1710.9 705.439v6.573h-6.56M1717.48 712.013h-6.57v6.573M1545.49 705.439v6.573h-6.57M1552.06 712.013h-6.57v6.573M1380.07 705.439v6.573h-6.57M1386.64 712.013h-6.57v6.573M1876.32 705.439v6.573h-6.57M1882.89 712.014h-6.56v6.572M1872.58 367.203v6.573h-6.57M1879.16 373.777h-6.57v6.573M1542.41 367.203v6.573h-6.57M1548.98 373.777h-6.56v6.573M1877.84 102.066v2.815h-2.81M1880.64 104.881h-2.81v2.814" />
    <path fill="#1B1B1D"
      d="M1999.46 630.987c-18.61 5.496-33.29 20.153-38.77 38.745-.69 2.331-3.97 2.331-4.66 0-5.48-18.582-20.16-33.249-38.77-38.745-2.33-.687-2.33-4.008 0-4.706 18.61-5.496 33.29-20.153 38.77-38.745.69-2.331 3.97-2.331 4.66 0 5.48 18.582 20.16 33.249 38.77 38.745 2.33.687 2.33 4.008 0 4.706ZM1504.31 630.987c-18.61 5.496-33.29 20.153-38.77 38.745-.69 2.331-3.97 2.331-4.66 0-5.48-18.582-20.16-33.249-38.77-38.745-2.33-.687-2.33-4.008 0-4.706 18.61-5.496 33.29-20.153 38.77-38.745.69-2.331 3.97-2.331 4.66 0 5.48 18.582 20.16 33.249 38.77 38.745 2.33.687 2.33 4.008 0 4.706ZM1504.31 966.201c-18.61 5.497-33.29 20.154-38.77 38.749-.69 2.33-3.97 2.33-4.66 0-5.48-18.585-20.16-33.252-38.77-38.749-2.33-.687-2.33-4.007 0-4.705 18.61-5.496 33.29-20.153 38.77-38.745.69-2.331 3.97-2.331 4.66 0 5.48 18.582 20.16 33.249 38.77 38.745 2.33.687 2.33 4.008 0 4.705ZM1999.46 966.201c-18.61 5.497-33.29 20.154-38.77 38.749-.69 2.33-3.97 2.33-4.66 0-5.48-18.585-20.16-33.252-38.77-38.749-2.33-.687-2.33-4.007 0-4.705 18.61-5.496 33.29-20.153 38.77-38.745.69-2.331 3.97-2.331 4.66 0 5.48 18.582 20.16 33.249 38.77 38.745 2.33.687 2.33 4.008 0 4.705Z" />
    <path stroke="#1B1B1D" stroke-width="1.46" d="M1876.32 1214.84v-167.607h-165.416v167.607z" />
    <path stroke="#fff" stroke-width="1.46"
      d="M1710.91 1040.65v6.58h-6.58M1717.49 1047.23h-6.57v6.57M1876.31 1040.66v6.57h-6.56M1882.89 1047.23h-6.56v6.57" />
    <path fill="#1B1B1D"
      d="M1974.4 269.418c-13.08 3.863-23.39 14.163-27.24 27.228-.49 1.639-2.79 1.639-3.28 0-3.85-13.058-14.16-23.365-27.24-27.228-1.64-.482-1.64-2.816 0-3.306 13.08-3.863 23.39-14.163 27.24-27.228.49-1.639 2.79-1.639 3.28 0 3.85 13.058 14.16 23.365 27.24 27.228 1.64.483 1.64 2.816 0 3.306ZM1505.22 269.418c-13.09 3.863-23.4 14.163-27.25 27.228-.49 1.639-2.79 1.639-3.28 0-3.85-13.058-14.16-23.365-27.24-27.228-1.64-.482-1.64-2.816 0-3.306 13.08-3.863 23.39-14.163 27.24-27.228.49-1.639 2.79-1.639 3.28 0 3.85 13.058 14.16 23.365 27.25 27.228 1.63.483 1.63 2.816 0 3.306Z" />
    <path fill="#fff" fill-rule="evenodd"
      d="M889.027 273.992c0 12.15-10.073 22-22.5 22-12.426 0-22.5-9.85-22.5-22h11.25c0 6.075 5.037 11 11.25 11 6.214 0 11.25-4.925 11.25-11h11.25ZM855.254 257.01h-11.25v11h11.25v-11Zm33.75 0h-11.25v11h11.25v-11ZM894.742 268.01h11.25v-11h-11.25v11Zm-33.75 0h11.25v-11h-11.25v11ZM860.992 251.01c0-12.15 10.074-22 22.5-22 12.427 0 22.5 9.85 22.5 22h-11.25c0-6.075-5.037-11-11.25-11s-11.25 4.925-11.25 11h-11.25Z"
      clip-rule="evenodd" />
    <path fill="#fff"
      d="M948.047 242.345h8.576v26.661c0 2.993-.706 5.613-2.119 7.858-1.399 2.245-3.36 3.995-5.882 5.252-2.522 1.242-5.46 1.864-8.814 1.864-3.367 0-6.312-.622-8.834-1.864-2.522-1.257-4.483-3.007-5.882-5.252-1.4-2.245-2.1-4.865-2.1-7.858v-26.661h8.576v25.919c0 1.564.337 2.953 1.01 4.169a7.409 7.409 0 0 0 2.892 2.867c1.241.695 2.687 1.042 4.338 1.042 1.664 0 3.109-.347 4.337-1.042a7.26 7.26 0 0 0 2.872-2.867c.687-1.216 1.03-2.605 1.03-4.169v-25.919Zm24.238 23.253v17.8h-8.437v-30.79h8.041v5.433h.357c.673-1.791 1.802-3.207 3.387-4.25 1.584-1.056 3.505-1.583 5.763-1.583 2.113 0 3.955.467 5.526 1.403 1.572.935 2.793 2.272 3.664 4.009.872 1.724 1.307 3.782 1.307 6.174v19.604h-8.437v-18.081c.013-1.884-.462-3.354-1.426-4.41-.964-1.069-2.291-1.603-3.981-1.603-1.136 0-2.139.247-3.011.741-.858.495-1.531 1.217-2.02 2.165-.475.936-.72 2.065-.733 3.388Zm26.259 17.8v-30.79h8.436v30.79h-8.436Zm4.236-34.759c-1.25 0-2.33-.42-3.226-1.262-.885-.856-1.327-1.878-1.327-3.067 0-1.176.442-2.185 1.327-3.027.896-.855 1.976-1.283 3.226-1.283 1.26 0 2.33.428 3.21 1.283.9.842 1.35 1.851 1.35 3.027 0 1.189-.45 2.211-1.35 3.067-.88.842-1.95 1.262-3.21 1.262ZM1027.49 284c-3.08 0-5.74-.662-7.99-1.985-2.23-1.336-3.95-3.193-5.17-5.572-1.21-2.392-1.82-5.165-1.82-8.319 0-3.181.61-5.96 1.82-8.339 1.22-2.392 2.94-4.25 5.17-5.573 2.25-1.336 4.91-2.004 7.99-2.004 3.07 0 5.73.668 7.96 2.004 2.24 1.323 3.97 3.181 5.19 5.573 1.21 2.379 1.82 5.158 1.82 8.339 0 3.154-.61 5.927-1.82 8.319-1.22 2.379-2.95 4.236-5.19 5.572-2.23 1.323-4.89 1.985-7.96 1.985Zm.04-6.615c1.39 0 2.56-.401 3.5-1.203.94-.815 1.64-1.924 2.12-3.327.49-1.404.73-3.001.73-4.791 0-1.791-.24-3.388-.73-4.791-.48-1.404-1.18-2.513-2.12-3.328-.94-.815-2.11-1.223-3.5-1.223-1.42 0-2.61.408-3.57 1.223-.95.815-1.67 1.924-2.16 3.328-.47 1.403-.71 3-.71 4.791 0 1.79.24 3.387.71 4.791.49 1.403 1.21 2.512 2.16 3.327.96.802 2.15 1.203 3.57 1.203Zm28.85-11.787v17.8h-8.43v-30.79h8.04v5.433h.35c.68-1.791 1.8-3.207 3.39-4.25 1.59-1.056 3.51-1.583 5.76-1.583 2.12 0 3.96.467 5.53 1.403 1.57.935 2.79 2.272 3.66 4.009.88 1.724 1.31 3.782 1.31 6.174v19.604h-8.44v-18.081c.02-1.884-.46-3.354-1.42-4.41-.97-1.069-2.29-1.603-3.98-1.603-1.14 0-2.14.247-3.01.741-.86.495-1.54 1.217-2.02 2.165-.48.936-.72 2.065-.74 3.388ZM682.778 497.457c-8.341 0-15.767-1.892-22.278-5.676-6.51-3.825-11.637-9.237-15.38-16.236-3.703-7.039-5.555-15.36-5.555-24.963 0-9.684 1.852-18.026 5.555-25.024 3.743-7.04 8.87-12.452 15.38-16.236 6.511-3.825 13.937-5.737 22.278-5.737 7.121 0 13.509 1.383 19.165 4.15 5.697 2.767 10.356 6.674 13.977 11.719 3.622 5.005 5.921 10.885 6.897 17.639h-18.982c-1.098-5.371-3.499-9.521-7.202-12.451-3.662-2.97-8.199-4.455-13.611-4.455-7.731 0-13.753 2.746-18.066 8.239-4.313 5.453-6.47 12.838-6.47 22.156 0 9.237 2.157 16.602 6.47 22.095 4.313 5.452 10.335 8.178 18.066 8.178 5.372 0 9.888-1.464 13.55-4.394 3.703-2.93 6.144-7.06 7.324-12.39h18.921c-.976 6.754-3.275 12.634-6.897 17.639-3.621 5.005-8.28 8.891-13.977 11.658-5.656 2.726-12.044 4.089-19.165 4.089Zm80.017 0c-6.51 0-12.227-1.404-17.15-4.211-4.883-2.808-8.708-6.714-11.475-11.719-2.726-5.046-4.089-10.946-4.089-17.7 0-6.755 1.363-12.655 4.089-17.701 2.767-5.045 6.592-8.972 11.475-11.779 4.923-2.849 10.64-4.273 17.15-4.273 6.552 0 12.268 1.424 17.151 4.273 4.924 2.807 8.749 6.734 11.475 11.779 2.767 5.046 4.15 10.946 4.15 17.701 0 6.714-1.383 12.593-4.15 17.639-2.726 5.045-6.551 8.972-11.475 11.78-4.883 2.807-10.599 4.211-17.151 4.211Zm0-14.587c4.395 0 7.935-1.669 10.621-5.005 2.685-3.378 4.028-8.057 4.028-14.038 0-6.022-1.343-10.722-4.028-14.099-2.686-3.378-6.226-5.066-10.621-5.066-4.353 0-7.873 1.688-10.559 5.066-2.685 3.377-4.028 8.077-4.028 14.099 0 5.981 1.343 10.66 4.028 14.038 2.686 3.336 6.206 5.005 10.559 5.005Zm60.73-22.705v35.827H805.52v-64.453h17.7v10.132c2.197-3.662 4.944-6.49 8.24-8.484 3.296-1.994 7.263-2.991 11.902-2.991 6.836 0 12.309 2.218 16.418 6.653 4.11 4.395 6.165 10.661 6.165 18.799v40.344H848v-37.048c0-4.313-1.037-7.589-3.112-9.827-2.076-2.278-4.985-3.418-8.728-3.418-3.703 0-6.735 1.16-9.095 3.479-2.36 2.32-3.54 5.982-3.54 10.987Zm82.032 37.414c-8.383 0-15.32-1.912-20.813-5.737-5.453-3.825-8.464-9.196-9.034-16.113h17.701c.325 2.807 1.505 5.004 3.54 6.591 2.034 1.587 4.801 2.381 8.3 2.381 3.337 0 5.962-.631 7.874-1.892 1.912-1.262 2.869-2.889 2.869-4.883 0-1.709-.753-3.072-2.259-4.09-1.464-1.058-3.499-1.851-6.103-2.38l-11.292-2.197c-12.776-2.442-19.165-8.708-19.165-18.799 0-6.104 2.462-11.007 7.386-14.71 4.923-3.702 11.576-5.554 19.958-5.554 8.342 0 15.055 1.953 20.142 5.86 5.086 3.906 7.71 9.216 7.873 15.93h-16.662c-.041-2.564-1.079-4.7-3.113-6.409-1.994-1.75-4.578-2.624-7.752-2.624-3.092 0-5.513.671-7.263 2.014-1.75 1.302-2.624 2.909-2.624 4.822 0 1.668.671 3.031 2.014 4.089 1.383 1.058 3.316 1.851 5.798 2.38l12.207 2.381c6.511 1.261 11.292 3.336 14.343 6.225 3.093 2.849 4.639 6.653 4.639 11.414 0 4.272-1.221 8.016-3.662 11.23-2.401 3.174-5.758 5.656-10.071 7.447-4.272 1.749-9.216 2.624-14.831 2.624Zm67.688-.122c-6.511 0-12.187-1.444-17.029-4.333-4.802-2.889-8.545-6.857-11.231-11.902-2.645-5.087-3.967-10.885-3.967-17.395 0-6.551 1.343-12.37 4.028-17.456 2.727-5.087 6.47-9.074 11.231-11.963 4.761-2.889 10.213-4.334 16.357-4.334 6.348 0 11.882 1.424 16.602 4.273 4.761 2.807 8.463 6.734 11.104 11.779 2.69 5.005 4.03 10.783 4.03 17.334v4.822h-45.835c.163 4.761 1.567 8.565 4.212 11.414 2.644 2.848 6.327 4.272 11.047 4.272 3.499 0 6.409-.753 8.728-2.258 2.36-1.506 3.947-3.499 4.761-5.981h16.417c-.77 4.272-2.58 8.036-5.431 11.291-2.848 3.255-6.429 5.819-10.742 7.69-4.313 1.832-9.074 2.747-14.282 2.747Zm-14.588-40.649h28.748c-.448-4.029-1.953-7.203-4.517-9.522-2.523-2.36-5.819-3.54-9.888-3.54-4.028 0-7.303 1.18-9.826 3.54-2.523 2.319-4.028 5.493-4.517 9.522Zm73.363 3.357v35.827h-18v-64.453h17.7v10.132c2.19-3.662 4.94-6.49 8.24-8.484 3.29-1.994 7.26-2.991 11.9-2.991 6.83 0 12.31 2.218 16.42 6.653 4.11 4.395 6.16 10.661 6.16 18.799v40.344h-17.94v-37.048c0-4.313-1.04-7.589-3.12-9.827-2.07-2.278-4.98-3.418-8.72-3.418-3.71 0-6.74 1.16-9.1 3.479-2.36 2.32-3.54 5.982-3.54 10.987Zm82.03 37.414c-8.38 0-15.32-1.912-20.81-5.737-5.45-3.825-8.46-9.196-9.03-16.113h17.7c.32 2.807 1.5 5.004 3.54 6.591 2.03 1.587 4.8 2.381 8.3 2.381 3.33 0 5.96-.631 7.87-1.892 1.91-1.262 2.87-2.889 2.87-4.883 0-1.709-.75-3.072-2.26-4.09-1.46-1.058-3.5-1.851-6.1-2.38l-11.29-2.197c-12.78-2.442-19.17-8.708-19.17-18.799 0-6.104 2.46-11.007 7.39-14.71 4.92-3.702 11.57-5.554 19.96-5.554 8.34 0 15.05 1.953 20.14 5.86 5.08 3.906 7.71 9.216 7.87 15.93h-16.66c-.04-2.564-1.08-4.7-3.12-6.409-1.99-1.75-4.57-2.624-7.75-2.624-3.09 0-5.51.671-7.26 2.014-1.75 1.302-2.62 2.909-2.62 4.822 0 1.668.67 3.031 2.01 4.089 1.38 1.058 3.32 1.851 5.8 2.38l12.21 2.381c6.51 1.261 11.29 3.336 14.34 6.225 3.09 2.849 4.64 6.653 4.64 11.414 0 4.272-1.22 8.016-3.66 11.23-2.41 3.174-5.76 5.656-10.08 7.447-4.27 1.749-9.21 2.624-14.83 2.624Zm60.92-.244c-6.88 0-12.37-2.197-16.48-6.592-4.11-4.435-6.17-10.722-6.17-18.86v-40.344h18.01v37.048c0 4.314 1.01 7.609 3.05 9.888 2.07 2.238 5 3.357 8.79 3.357 3.7 0 6.73-1.16 9.09-3.479 2.36-2.319 3.54-5.981 3.54-10.986v-35.828h17.95v64.453h-17.64V485.86c-2.2 3.662-4.95 6.49-8.24 8.484-3.3 1.994-7.27 2.991-11.9 2.991Zm77.39.244c-8.38 0-15.32-1.912-20.81-5.737-5.46-3.825-8.47-9.196-9.04-16.113h17.7c.33 2.807 1.51 5.004 3.54 6.591 2.04 1.587 4.8 2.381 8.3 2.381 3.34 0 5.96-.631 7.88-1.892 1.91-1.262 2.87-2.889 2.87-4.883 0-1.709-.76-3.072-2.26-4.09-1.47-1.058-3.5-1.851-6.11-2.38l-11.29-2.197c-12.77-2.442-19.16-8.708-19.16-18.799 0-6.104 2.46-11.007 7.38-14.71 4.93-3.702 11.58-5.554 19.96-5.554 8.34 0 15.06 1.953 20.14 5.86 5.09 3.906 7.71 9.216 7.88 15.93h-16.67c-.04-2.564-1.07-4.7-3.11-6.409-1.99-1.75-4.58-2.624-7.75-2.624-3.09 0-5.51.671-7.26 2.014-1.75 1.302-2.63 2.909-2.63 4.822 0 1.668.67 3.031 2.02 4.089 1.38 1.058 3.31 1.851 5.79 2.38l12.21 2.381c6.51 1.261 11.29 3.336 14.34 6.225 3.1 2.849 4.64 6.653 4.64 11.414 0 4.272-1.22 8.016-3.66 11.23-2.4 3.174-5.76 5.656-10.07 7.447-4.27 1.749-9.22 2.624-14.83 2.624ZM659.402 620.992 627.48 530.05h20.447l14.71 44.25a796.625 796.625 0 0 1 4.272 13.916 2246.544 2246.544 0 0 1 4.639 15.686c1.587-5.574 3.072-10.803 4.455-15.686a835.48 835.48 0 0 1 4.151-13.916l14.221-44.25h20.203l-31.25 90.942h-23.926Zm81.665 1.465c-6.511 0-12.187-1.444-17.029-4.333-4.801-2.889-8.545-6.857-11.23-11.902-2.645-5.087-3.968-10.885-3.968-17.395 0-6.551 1.343-12.37 4.029-17.456 2.726-5.087 6.469-9.074 11.23-11.963 4.761-2.889 10.213-4.334 16.358-4.334 6.347 0 11.881 1.424 16.601 4.273 4.761 2.807 8.464 6.734 11.109 11.779 2.685 5.005 4.028 10.783 4.028 17.334v4.822h-45.838c.163 4.761 1.567 8.565 4.212 11.414 2.645 2.848 6.327 4.272 11.047 4.272 3.5 0 6.409-.753 8.728-2.258 2.36-1.506 3.947-3.499 4.761-5.981h16.418c-.773 4.272-2.583 8.036-5.432 11.291-2.848 3.255-6.429 5.819-10.742 7.69-4.313 1.832-9.074 2.747-14.282 2.747Zm-14.588-40.649h28.748c-.448-4.029-1.953-7.203-4.517-9.522-2.522-2.36-5.818-3.54-9.887-3.54-4.029 0-7.304 1.18-9.827 3.54-2.523 2.319-4.028 5.493-4.517 9.522Zm55.359 39.184v-64.453h17.334v10.986h.183c1.18-3.865 3.032-6.734 5.555-8.606 2.522-1.871 5.92-2.807 10.193-2.807 1.057 0 2.014.02 2.868.061.895.041 1.709.061 2.442.061v15.32c-.651-.041-1.73-.102-3.235-.183a83.046 83.046 0 0 0-4.517-.122c-3.703 0-6.775 1.261-9.216 3.784-2.401 2.523-3.601 6.205-3.601 11.047v34.912h-18.006Zm47.364 0v-64.453h18.005v64.453h-18.005Zm8.972-72.571c-2.971 0-5.432-.895-7.385-2.685-1.954-1.831-2.93-4.13-2.93-6.897 0-2.767.976-5.046 2.93-6.836 1.953-1.831 4.414-2.747 7.385-2.747 2.93 0 5.371.916 7.324 2.747 1.953 1.79 2.93 4.069 2.93 6.836 0 2.767-.977 5.066-2.93 6.897-1.953 1.79-4.394 2.685-7.324 2.685Zm59.326 8.118v14.099h-13.184v50.354h-17.944v-50.354h-11.658v-14.099h11.658v-8.362c0-12.085 6.978-18.127 20.935-18.127H897.5v14.099h-6.104c-2.604 0-4.435.549-5.493 1.648-1.058 1.058-1.587 2.869-1.587 5.432v5.31H897.5Zm8.85 64.453v-64.453h18.005v64.453H906.35Zm8.972-72.571c-2.97 0-5.432-.895-7.385-2.685-1.953-1.831-2.93-4.13-2.93-6.897 0-2.767.977-5.046 2.93-6.836 1.953-1.831 4.415-2.747 7.385-2.747 2.93 0 5.371.916 7.324 2.747 1.954 1.79 2.93 4.069 2.93 6.836 0 2.767-.976 5.066-2.93 6.897-1.953 1.79-4.394 2.685-7.324 2.685Zm51.331 74.036c-6.47 0-12.126-1.404-16.968-4.211-4.842-2.849-8.626-6.796-11.352-11.841-2.686-5.086-4.029-10.946-4.029-17.578 0-6.674 1.343-12.533 4.029-17.578 2.726-5.087 6.51-9.054 11.352-11.902 4.842-2.849 10.498-4.273 16.968-4.273 5.656 0 10.681 1.099 15.076 3.296 4.435 2.157 7.975 5.168 10.62 9.033 2.685 3.825 4.211 8.24 4.577 13.245h-17.395c-.488-3.296-1.831-5.961-4.028-7.996-2.157-2.034-5.025-3.051-8.606-3.051-4.517 0-8.057 1.729-10.62 5.188-2.564 3.458-3.845 8.138-3.845 14.038 0 5.859 1.281 10.518 3.845 13.977 2.563 3.418 6.103 5.127 10.62 5.127 3.621 0 6.47-1.018 8.545-3.052 2.075-2.035 3.398-4.74 3.967-8.118h17.517c-.244 4.964-1.688 9.379-4.333 13.245-2.645 3.865-6.205 6.917-10.681 9.155-4.436 2.197-9.522 3.296-15.259 3.296Zm60.607-.366c-6.43 0-11.74-1.607-15.93-4.822-4.15-3.214-6.23-8.036-6.23-14.465 0-4.842 1.16-8.627 3.48-11.353 2.32-2.767 5.4-4.781 9.22-6.042 3.83-1.262 7.98-2.096 12.45-2.503 5.9-.61 10.03-1.22 12.39-1.831 2.36-.61 3.54-1.953 3.54-4.028v-.427c0-2.36-.93-4.293-2.81-5.799-1.87-1.505-4.45-2.258-7.75-2.258-3.33 0-6.04.773-8.12 2.319-2.07 1.547-3.21 3.561-3.41 6.043h-16.91c.41-6.633 3.13-11.902 8.18-15.808 5.04-3.947 11.98-5.921 20.81-5.921 8.83 0 15.67 1.974 20.51 5.921 4.84 3.906 7.26 9.297 7.26 16.174v43.701h-17.58v-9.094h-.24c-1.71 3.133-4.05 5.615-7.02 7.446-2.97 1.831-6.92 2.747-11.84 2.747Zm5.01-12.512c4.31 0 7.73-1.14 10.25-3.418 2.52-2.32 3.78-5.229 3.78-8.728v-6.47c-1.01.57-2.7 1.099-5.06 1.587-2.36.447-4.99.895-7.88 1.343-3.09.488-5.71 1.383-7.87 2.685-2.12 1.262-3.17 3.174-3.17 5.737 0 2.279.89 4.069 2.68 5.372 1.83 1.261 4.25 1.892 7.27 1.892Zm81.42-53.04v14.099h-13.19v30.457c0 2.197.43 3.723 1.28 4.577.9.814 2.57 1.221 5.01 1.221h6.9v14.099h-10.5c-7.08 0-12.31-1.383-15.69-4.15-3.33-2.767-5-7.08-5-12.94v-33.264h-11.11v-14.099h11.11v-17.578h18v17.578h13.19Zm9.09 64.453v-64.453h18.01v64.453h-18.01Zm8.97-72.571c-2.97 0-5.43-.895-7.38-2.685-1.96-1.831-2.93-4.13-2.93-6.897 0-2.767.97-5.046 2.93-6.836 1.95-1.831 4.41-2.747 7.38-2.747 2.93 0 5.37.916 7.33 2.747 1.95 1.79 2.93 4.069 2.93 6.836 0 2.767-.98 5.066-2.93 6.897-1.96 1.79-4.4 2.685-7.33 2.685Zm51.7 74.036c-6.51 0-12.23-1.404-17.15-4.211-4.88-2.808-8.71-6.714-11.48-11.719-2.72-5.046-4.09-10.946-4.09-17.7 0-6.755 1.37-12.655 4.09-17.701 2.77-5.045 6.6-8.972 11.48-11.779 4.92-2.849 10.64-4.273 17.15-4.273 6.55 0 12.27 1.424 17.15 4.273 4.92 2.807 8.75 6.734 11.48 11.779 2.76 5.046 4.15 10.946 4.15 17.701 0 6.714-1.39 12.593-4.15 17.639-2.73 5.045-6.56 8.972-11.48 11.78-4.88 2.807-10.6 4.211-17.15 4.211Zm0-14.587c4.39 0 7.93-1.669 10.62-5.005 2.69-3.378 4.03-8.057 4.03-14.038 0-6.022-1.34-10.722-4.03-14.099-2.69-3.378-6.23-5.066-10.62-5.066-4.35 0-7.87 1.688-10.56 5.066-2.68 3.377-4.03 8.077-4.03 14.099 0 5.981 1.35 10.66 4.03 14.038 2.69 3.336 6.21 5.005 10.56 5.005Zm60.73-22.705v35.827h-18.01v-64.453h17.7v10.132c2.2-3.662 4.95-6.49 8.24-8.484 3.3-1.994 7.27-2.991 11.91-2.991 6.83 0 12.3 2.218 16.41 6.653 4.11 4.395 6.17 10.661 6.17 18.799v40.344h-17.95v-37.048c0-4.313-1.03-7.589-3.11-9.827-2.07-2.278-4.98-3.418-8.73-3.418-3.7 0-6.73 1.16-9.09 3.479-2.36 2.32-3.54 5.982-3.54 10.987Z" />
    <rect width="648" height="176" x="636" y="673.992" fill="#1B1B1D" rx="21" />
    <rect width="108" height="104" x="680.816" y="709.992" fill="#A0ECFD" fill-opacity=".16" rx="21" />
    <path fill="#fff"
      d="M763.483 756.659a5.342 5.342 0 0 0-5.164 4h-11.577a11.94 11.94 0 0 0-2.554-6.153l8.189-8.189c1.993 1.18 4.684.974 6.481-.824a5.33 5.33 0 0 0 0-7.543 5.335 5.335 0 0 0-8.366 6.482l-8.19 8.189a11.934 11.934 0 0 0-6.152-2.554V738.49a5.343 5.343 0 0 0 4-5.164 5.34 5.34 0 0 0-5.333-5.334 5.34 5.34 0 0 0-5.334 5.334 5.342 5.342 0 0 0 4 5.164v11.577a11.934 11.934 0 0 0-6.152 2.554l-8.19-8.19a5.297 5.297 0 0 0 .738-2.709 5.33 5.33 0 0 0-5.333-5.334 5.33 5.33 0 0 0-5.333 5.334 5.33 5.33 0 0 0 5.333 5.333c.969 0 1.898-.257 2.71-.738l8.189 8.189a11.95 11.95 0 0 0-2.554 6.153h-11.577a5.342 5.342 0 0 0-5.164-4 5.34 5.34 0 0 0-5.334 5.333 5.34 5.34 0 0 0 5.334 5.334 5.343 5.343 0 0 0 5.164-4h11.577a11.946 11.946 0 0 0 2.554 6.152l-8.189 8.189c-1.993-1.179-4.684-.973-6.481.824a5.33 5.33 0 0 0 0 7.543 5.33 5.33 0 0 0 7.542 0 5.333 5.333 0 0 0 .824-6.481l8.19-8.189a11.942 11.942 0 0 0 6.152 2.554v11.576a5.343 5.343 0 0 0-4 5.165 5.34 5.34 0 0 0 5.333 5.333 5.34 5.34 0 0 0 5.334-5.333 5.344 5.344 0 0 0-4-5.165v-11.576a11.942 11.942 0 0 0 6.152-2.554l8.19 8.189a5.333 5.333 0 0 0 .824 6.481 5.33 5.33 0 0 0 7.542 0 5.33 5.33 0 0 0 0-7.543c-1.798-1.798-4.488-2.003-6.481-.824l-8.189-8.189a11.95 11.95 0 0 0 2.554-6.153h11.577a5.342 5.342 0 0 0 5.164 4 5.339 5.339 0 0 0 5.333-5.333 5.339 5.339 0 0 0-5.333-5.333Zm-28.666 14.667c-5.147 0-9.334-4.187-9.334-9.334 0-5.146 4.187-9.333 9.334-9.333 5.146 0 9.333 4.187 9.333 9.333 0 5.147-4.187 9.334-9.333 9.334Zm18.384-31.49a2.666 2.666 0 1 1 .001 3.772l-.001-.001a2.666 2.666 0 0 1 0-3.771Zm-21.051-6.51a2.67 2.67 0 0 1 2.667-2.667 2.67 2.67 0 0 1 2.666 2.667 2.67 2.67 0 0 1-2.666 2.666 2.67 2.67 0 0 1-2.667-2.666Zm-20.271 8.396a2.667 2.667 0 1 1 5.334 0 2.667 2.667 0 0 1-5.334 0Zm-5.729 22.937a2.67 2.67 0 0 1-2.667-2.667 2.67 2.67 0 0 1 2.667-2.666 2.67 2.67 0 0 1 2.666 2.666 2.67 2.67 0 0 1-2.666 2.667Zm10.282 19.489a2.665 2.665 0 0 1-3.772 0 2.665 2.665 0 0 1 0-3.771 2.665 2.665 0 0 1 3.771 0h.001a2.665 2.665 0 0 1 0 3.771Zm21.051 6.511a2.67 2.67 0 0 1-2.666 2.667 2.67 2.67 0 0 1-2.667-2.667 2.67 2.67 0 0 1 2.667-2.667 2.67 2.67 0 0 1 2.666 2.667Zm19.49-10.282a2.664 2.664 0 0 1-.001 3.771 2.665 2.665 0 1 1-3.771-3.77l.001-.001a2.665 2.665 0 0 1 3.771 0Zm6.51-15.718a2.67 2.67 0 0 1-2.666-2.667 2.67 2.67 0 0 1 2.666-2.666 2.67 2.67 0 0 1 2.667 2.666 2.67 2.67 0 0 1-2.667 2.667Z" />
    <path stroke="#fff" stroke-opacity=".51" d="M843.316 730.492v63" />
    <rect width="126.665" height="132.869" x="896.816" y="695.557" fill="#A0ECFD" fill-opacity=".16" rx="21" />
    <path fill="#A0ECFD"
      d="M1001.91 730.284c-13.983-3.652-28.048-9.338-40.674-16.444a2.224 2.224 0 0 0-2.173 0c-12.99 7.31-26.295 12.688-40.674 16.444-.929.242-1.573 1.047-1.573 1.965v20.821c0 21.44 10.377 35.632 19.082 43.762 9.372 8.753 20.288 13.594 24.252 13.594 3.963 0 14.879-4.841 24.251-13.594 8.705-8.13 19.079-22.322 19.079-43.762v-20.821c0-.918-.64-1.723-1.57-1.965Zm-2.704 22.785c0 20.026-9.678 33.268-17.797 40.852-9.216 8.607-19.07 12.429-21.259 12.429-2.19 0-12.044-3.822-21.26-12.429-8.119-7.584-17.798-20.826-17.798-40.852v-19.273c13.75-3.722 26.556-8.915 39.058-15.84 12.19 6.741 25.634 12.193 39.056 15.839v19.274Z" />
    <path fill="#A0ECFD"
      d="M941.202 733.567c-.433-1.047-1.674-1.562-2.773-1.149a180.038 180.038 0 0 1-11.65 3.924c-.891.267-1.498 1.054-1.498 1.944v7.869c0 1.125.958 2.038 2.138 2.038s2.138-.913 2.138-2.038v-6.38a183.462 183.462 0 0 0 10.439-3.566c1.099-.412 1.639-1.595 1.206-2.642ZM945.264 733.955c.286 0 .578-.055.857-.171l.039-.016c1.082-.452 1.569-1.652 1.095-2.683-.475-1.031-1.741-1.497-2.821-1.046l-.035.015c-1.082.45-1.57 1.649-1.098 2.68.351.766 1.138 1.221 1.963 1.221ZM985.618 779.262c-.987-.616-2.312-.351-2.959.591a50.06 50.06 0 0 1-6.143 7.314 53.854 53.854 0 0 1-6.132 5.2c-.938.682-1.119 1.961-.403 2.856a2.173 2.173 0 0 0 1.701.803c.452 0 .908-.137 1.295-.418A58.12 58.12 0 0 0 979.59 790a54.16 54.16 0 0 0 6.649-7.918c.646-.942.368-2.205-.621-2.82ZM965.42 795.563l-.122.069c-1.022.564-1.371 1.81-.78 2.784.397.652 1.114 1.017 1.852 1.017.364 0 .732-.088 1.069-.275l.142-.079c1.019-.569 1.361-1.817.764-2.788-.597-.971-1.907-1.297-2.925-.728ZM945.578 757.833c-1.313-1.252-3.059-1.94-4.915-1.94-1.857 0-3.603.689-4.916 1.94-2.71 2.583-2.71 6.787 0 9.371l12.623 12.032c1.313 1.251 3.058 1.939 4.915 1.939 1.857 0 3.603-.688 4.916-1.94l26.35-25.118c2.71-2.584 2.71-6.788 0-9.37-1.313-1.252-3.058-1.94-4.915-1.94-1.857 0-3.603.689-4.916 1.94l-21.435 20.432-7.707-7.346Zm32.165-10.204a2.727 2.727 0 0 1 1.893-.747c.715 0 1.387.265 1.892.747a2.47 2.47 0 0 1 0 3.607l-26.35 25.118a2.731 2.731 0 0 1-1.893.746 2.727 2.727 0 0 1-1.892-.746l-12.623-12.032a2.47 2.47 0 0 1 0-3.607 2.726 2.726 0 0 1 1.893-.747c.715 0 1.387.265 1.892.747l9.218 8.787c.402.382.945.597 1.512.597a2.19 2.19 0 0 0 1.511-.597l22.947-21.873Z" />
    <path stroke="#fff" stroke-opacity=".51" d="M1077.98 730.391v63.203" />
    <rect width="107.699" height="101.635" x="1131.48" y="711.174" fill="#A0ECFD" fill-opacity=".16" rx="21" />
    <path fill="#fff"
      d="M1216.56 774.982c.02-.041.03-.083.05-.126 4.01-9.349 3.29-20.81-1.92-29.571 2.78-3.357-.83-8.166-4.78-6.305a30.908 30.908 0 0 0-2.18-2.053c1.49-4.07-3.46-7.409-6.54-4.368-8.96-4.568-20.1-4.51-29.01.155-3.17-3.392-8.49.245-6.57 4.5-1.1.97-2.14 2.018-3.1 3.126-.83.958.67 2.269 1.49 1.319.9-1.031 1.86-2.007 2.88-2.91 1.98 1.438 4.84.705 5.92-1.49a42.863 42.863 0 0 1 10.17 4.444c-.26.97-.15 2.053.3 2.948a46.398 46.398 0 0 0-7.02 7.699c-1.89-.577-3.97.388-4.79 2.196-4.17.023-8.35.475-12.46 1.352a4.022 4.022 0 0 0-1.58-1.626c.77-3.038 2-5.927 3.64-8.598.66-1.065-1-2.172-1.68-1.059a32.778 32.778 0 0 0-3.87 9.14c-4.76.082-5.55 6.722-1.03 8-.07 9.451 3.98 18.639 11 24.898-1.47 3.993 3.28 7.286 6.42 4.47 9.15 4.914 20.72 4.915 29.87.002 3.19 3.185 8.3-.373 6.5-4.538a32.964 32.964 0 0 0 8.29-11.605Zm-1.25-2.241a62.46 62.46 0 0 0-8.96-7.45c.45-1.441.06-3.063-1.01-4.128a62.821 62.821 0 0 0 6.31-14.464 3.9 3.9 0 0 0 1.41-.258c4.57 7.793 5.41 17.84 2.25 26.3Zm-45.66 11.326c-.83-8.259.63-16.499 4.26-23.946 2.25.71 4.69-.786 5.12-3.121 6.84.852 13.43 2.88 19.62 6.039a4.167 4.167 0 0 0 .65 3.425c-6.97 8.918-16.17 15.628-26.69 19.474a4.025 4.025 0 0 0-2.96-1.871Zm30.85-20.013c0-1.135.91-2.059 2.03-2.059 2.68.113 2.68 4.006 0 4.118-1.12 0-2.03-.924-2.03-2.059Zm13.18-21.418c0 1.136-.91 2.059-2.02 2.059-2.69-.113-2.69-4.005 0-4.118 1.11 0 2.02.924 2.02 2.059Zm-5.28-2.355c-1.38 1.945-.74 4.758 1.33 5.915a60.99 60.99 0 0 1-6.1 13.953 4.013 4.013 0 0 0-1.71-.111 46.362 46.362 0 0 0-11.52-15.386c.45-.896.56-1.977.3-2.948a42.827 42.827 0 0 1 9.77-4.329c1.14 2.224 4.2 2.851 6.1 1.187a32.56 32.56 0 0 1 1.83 1.719Zm-23.59 2.51c0-1.135.91-2.059 2.02-2.059 2.69.113 2.69 4.006 0 4.118-1.11 0-2.02-.923-2.02-2.059Zm19.19-9.402c1.12 0 2.03.924 2.03 2.059-.12 2.732-3.94 2.731-4.05 0 0-1.135.9-2.059 2.02-2.059Zm-34.78 4.118c-1.12 0-2.03-.924-2.03-2.059.12-2.732 3.94-2.731 4.05 0 0 1.135-.91 2.059-2.02 2.059Zm4-2.213a4.306 4.306 0 0 0-.11-.81c8.31-4.337 18.68-4.413 27.05-.202-.11.364-.16.748-.17 1.145a44.922 44.922 0 0 0-10.28 4.537c-1.55-1.618-4.2-1.618-5.75 0a44.919 44.919 0 0 0-10.74-4.67Zm11.37 10.859a3.98 3.98 0 0 0 4.49 0 44.5 44.5 0 0 1 11.02 14.674c-.18.138-.35.29-.5.454a60.904 60.904 0 0 0-20.7-6.316 3.967 3.967 0 0 0-.95-1.571c1.94-2.66 4.17-5.09 6.64-7.241Zm-9.49 8.029c1.11 0 2.02.923 2.02 2.059-.11 2.731-3.94 2.731-4.05 0 0-1.136.91-2.059 2.03-2.059Zm-21.65 3.636c0-1.136.9-2.059 2.02-2.059 2.69.113 2.68 4.005 0 4.118-1.12 0-2.02-.924-2.02-2.059Zm3.01 3.936s3.02-.664 3.02-3.91c0 0 7.73-1.248 11.62-1.292.07.971.48 1.847 1.11 2.508a46.378 46.378 0 0 0-4.52 25.292c-.39.163-.75.385-1.06.656-6.47-5.856-10.17-15.668-10.17-23.254Zm12.76 28.411c-1.12 0-2.03-.924-2.03-2.059 0-1.135.91-2.059 2.03-2.059 1.1 0 2.02.963 2.02 2.059 0 1.135-.91 2.059-2.02 2.059Zm17.61 2.655c-4.81 0-9.57-1.164-13.83-3.375.17-.5.25-1.07.22-1.601 10.89-3.965 20.41-10.894 27.62-20.107.59.28 1.25.409 1.9.374a45.54 45.54 0 0 1 1.04 5.023c.19 1.291 2.15 1.002 1.96-.293a46.438 46.438 0 0 0-1.1-5.332c.23-.149.45-.323.65-.517a60.582 60.582 0 0 1 9.2 7.759 30.85 30.85 0 0 1-7.47 10.274c-.32-.24-.67-.434-1.05-.571.2-1.863.28-3.744.25-5.604-.02-1.309-2-1.278-1.98.031.03 1.788-.06 3.596-.24 5.387-2.34.375-3.87 2.826-3.23 5.122a30.04 30.04 0 0 1-13.94 3.43Zm17.8-2.481c-1.12 0-2.03-.923-2.03-2.059.11-2.732 3.94-2.731 4.05 0 0 1.136-.91 2.059-2.02 2.059Z" />
  </g>
  <defs>
    <clipPath id="a">
      <path fill="#fff" d="M0 0h1920v1080H0z" />
    </clipPath>
  </defs>
</svg>
