<svg xmlns="http://www.w3.org/2000/svg" xmlns:xlink="http://www.w3.org/1999/xlink" fill="none" viewBox="0 0 1920 1080">
  <path fill="url(#a)" d="M0 0h1920v1080H0z" />
  <path fill="#A0ECFD"
    d="m417.395 693.226-12.169 1.379 1.379 12.169 12.169-1.379-1.379-12.169Zm-92.222 118.205 3.143-3.947-2.346-1.869-3.143 3.947 2.346 1.869Zm9.429-11.839 6.286-7.893-2.347-1.869-6.286 7.893 2.347 1.869Zm12.571-15.785 6.286-7.893-2.347-1.869-6.285 7.893 2.346 1.869Zm12.572-15.786 6.285-7.892-2.346-1.869-6.286 7.892 2.347 1.869Zm12.571-15.785 6.286-7.892-2.347-1.869-6.286 7.892 2.347 1.869Zm12.572-15.785 6.285-7.892-2.346-1.869-6.286 7.892 2.347 1.869Zm12.571-15.785 6.286-7.893-2.347-1.869-6.286 7.893 2.347 1.869Zm12.571-15.785 3.143-3.947-2.346-1.868-3.143 3.946 2.346 1.869Zm7.365-11.655-12.169 1.379 1.379 12.169 12.169-1.379-1.379-12.169Zm-92.222 118.205 3.143-3.947-2.346-1.869-3.143 3.947 2.346 1.869Zm9.429-11.839 6.286-7.893-2.347-1.869-6.286 7.893 2.347 1.869Zm12.571-15.785 6.286-7.893-2.347-1.869-6.285 7.893 2.346 1.869Zm12.572-15.786 6.285-7.892-2.346-1.869-6.286 7.892 2.347 1.869Zm12.571-15.785 6.286-7.892-2.347-1.869-6.286 7.892 2.347 1.869Zm12.572-15.785 6.285-7.892-2.346-1.869-6.286 7.892 2.347 1.869Zm12.571-15.785 6.286-7.893-2.347-1.869-6.286 7.893 2.347 1.869Zm12.571-15.785 3.143-3.947-2.346-1.868-3.143 3.946 2.346 1.869ZM675.221 507.276l-10.945-5.497-5.497 10.945 10.945 5.497 5.497-10.945ZM412.472 595.92l4.904-1.625-.944-2.848-4.904 1.625.944 2.848Zm14.711-4.875 9.808-3.25-.944-2.847-9.807 3.249.943 2.848Zm19.616-6.5 9.807-3.249-.943-2.848-9.808 3.25.944 2.847Zm19.615-6.499 9.808-3.25-.944-2.848-9.807 3.25.943 2.848Zm19.615-6.5 9.808-3.25-.943-2.847-9.808 3.249.943 2.848Zm19.616-6.5 9.808-3.249-.944-2.848-9.808 3.25.944 2.847Zm19.615-6.499 9.808-3.25-.944-2.848-9.807 3.25.943 2.848Zm19.616-6.5 9.807-3.25-.943-2.848-9.808 3.25.944 2.848Zm19.615-6.5 9.808-3.25-.944-2.847-9.808 3.25.944 2.847Zm19.615-6.499 9.808-3.25-.943-2.848-9.808 3.25.943 2.848Zm19.616-6.5 9.808-3.25-.944-2.848-9.808 3.25.944 2.848Zm19.615-6.5 9.808-3.25-.944-2.847-9.807 3.249.943 2.848Zm19.616-6.5 9.807-3.249-.943-2.848-9.808 3.25.944 2.847Zm19.615-6.499 4.904-1.625-.944-2.848-4.904 1.625.944 2.848Zm12.653-5.773-10.945-5.497-5.497 10.945 10.945 5.497 5.497-10.945ZM412.472 595.92l4.904-1.625-.944-2.848-4.904 1.625.944 2.848Zm14.711-4.875 9.808-3.25-.944-2.847-9.807 3.249.943 2.848Zm19.616-6.5 9.807-3.249-.943-2.848-9.808 3.25.944 2.847Zm19.615-6.499 9.808-3.25-.944-2.848-9.807 3.25.943 2.848Zm19.615-6.5 9.808-3.25-.943-2.847-9.808 3.249.943 2.848Zm19.616-6.5 9.808-3.249-.944-2.848-9.808 3.25.944 2.847Zm19.615-6.499 9.808-3.25-.944-2.848-9.807 3.25.943 2.848Zm19.616-6.5 9.807-3.25-.943-2.848-9.808 3.25.944 2.848Zm19.615-6.5 9.808-3.25-.944-2.847-9.808 3.25.944 2.847Zm19.615-6.499 9.808-3.25-.943-2.848-9.808 3.25.943 2.848Zm19.616-6.5 9.808-3.25-.944-2.848-9.808 3.25.944 2.848Zm19.615-6.5 9.808-3.25-.944-2.847-9.807 3.249.943 2.848Zm19.616-6.5 9.807-3.249-.943-2.848-9.808 3.25.944 2.847Zm19.615-6.499 4.904-1.625-.944-2.848-4.904 1.625.944 2.848Z" />
  <path fill="#A0ECFD"
    d="m660.132 504.724 1.592 12.144 12.144-1.592-1.592-12.144-12.144 1.592Zm117.782 88.583-3.929-3.018-1.827 2.379 3.928 3.018 1.828-2.379Zm-11.786-9.054-7.857-6.035-1.828 2.379 7.858 6.035 1.827-2.379Zm-15.714-12.07-7.857-6.036-1.828 2.379 7.857 6.036 1.828-2.379Zm-15.715-12.071-7.857-6.036-1.827 2.379 7.857 6.036 1.827-2.379Zm-15.714-12.071-7.857-6.036-1.827 2.379 7.857 6.036 1.827-2.379Zm-15.714-12.071-7.857-6.036-1.828 2.38 7.857 6.035 1.828-2.379Zm-15.714-12.071-7.858-6.035-1.827 2.379 7.857 6.035 1.828-2.379Zm-15.715-12.071-3.928-3.018-1.828 2.38 3.929 3.017 1.827-2.379Zm-11.71-7.104 1.592 12.144 12.144-1.592-1.592-12.144-12.144 1.592Zm117.782 88.583-3.929-3.018-1.827 2.379 3.928 3.018 1.828-2.379Zm-11.786-9.054-7.857-6.035-1.828 2.379 7.858 6.035 1.827-2.379Zm-15.714-12.07-7.857-6.036-1.828 2.379 7.857 6.036 1.828-2.379Zm-15.715-12.071-7.857-6.036-1.827 2.379 7.857 6.036 1.827-2.379Zm-15.714-12.071-7.857-6.036-1.827 2.379 7.857 6.036 1.827-2.379Zm-15.714-12.071-7.857-6.036-1.828 2.38 7.857 6.035 1.828-2.379Zm-15.714-12.071-7.858-6.035-1.827 2.379 7.857 6.035 1.828-2.379Zm-15.715-12.071-3.928-3.018-1.828 2.38 3.929 3.017 1.827-2.379ZM968.459 343.143l-10.316-6.602-6.602 10.316 10.316 6.602 6.602-10.316Zm-279.137 62.818 4.839-1.062-.643-2.93-4.84 1.062.644 2.93Zm14.518-3.187 9.678-2.125-.643-2.93-9.679 2.125.644 2.93Zm19.357-4.25 9.678-2.125-.643-2.93-9.679 2.125.644 2.93Zm19.357-4.25 9.678-2.124-.643-2.931-9.679 2.125.644 2.93Zm19.357-4.249 9.678-2.125-.643-2.93-9.678 2.125.643 2.93Zm19.357-4.25 9.679-2.125-.644-2.93-9.678 2.125.643 2.93Zm19.357-4.25 9.679-2.125-.644-2.93-9.678 2.125.643 2.93Zm19.357-4.249 9.679-2.125-.643-2.93-9.679 2.124.643 2.931Zm19.357-4.25 9.679-2.125-.643-2.93-9.679 2.125.643 2.93Zm19.358-4.25 9.678-2.125-.643-2.93-9.679 2.125.644 2.93Zm19.357-4.25 9.678-2.124-.643-2.931-9.679 2.125.644 2.93Zm19.357-4.249 9.678-2.125-.643-2.93-9.678 2.124.643 2.931Zm19.357-4.25 9.679-2.125-.644-2.93-9.678 2.125.643 2.93Zm19.357-4.25 9.679-2.125-.644-2.93-9.678 2.125.643 2.93Zm19.357-4.249 4.84-1.063-.644-2.93-4.839 1.062.643 2.931Zm12.977-4.385-10.316-6.602-6.602 10.316 10.316 6.602 6.602-10.316Zm-279.137 62.818 4.839-1.062-.643-2.93-4.84 1.062.644 2.93Zm14.518-3.187 9.678-2.125-.643-2.93-9.679 2.125.644 2.93Zm19.357-4.25 9.678-2.125-.643-2.93-9.679 2.125.644 2.93Zm19.357-4.25 9.678-2.124-.643-2.931-9.679 2.125.644 2.93Zm19.357-4.249 9.678-2.125-.643-2.93-9.678 2.125.643 2.93Zm19.357-4.25 9.679-2.125-.644-2.93-9.678 2.125.643 2.93Zm19.357-4.25 9.679-2.125-.644-2.93-9.678 2.125.643 2.93Zm19.357-4.249 9.679-2.125-.643-2.93-9.679 2.124.643 2.931Zm19.357-4.25 9.679-2.125-.643-2.93-9.679 2.125.643 2.93Zm19.358-4.25 9.678-2.125-.643-2.93-9.679 2.125.644 2.93Zm19.357-4.25 9.678-2.124-.643-2.931-9.679 2.125.644 2.93Zm19.357-4.249 9.678-2.125-.643-2.93-9.678 2.124.643 2.931Zm19.357-4.25 9.679-2.125-.644-2.93-9.678 2.125.643 2.93Zm19.357-4.25 9.679-2.125-.644-2.93-9.678 2.125.643 2.93Zm19.357-4.249 4.84-1.063-.644-2.93-4.839 1.062.643 2.931Z" />
  <path fill="#A0ECFD"
    d="m951.525 343.22 6.695 10.255 10.255-6.695-6.695-10.255-10.255 6.695Zm289.785 59.312-5.02-1.054-.62 2.936 5.02 1.054.62-2.936Zm-15.06-3.161-10.03-2.107-.62 2.936 10.04 2.107.61-2.936Zm-20.07-4.214-10.03-2.107-.62 2.936 10.04 2.107.61-2.936Zm-20.07-4.214-10.03-2.107-.62 2.936 10.04 2.107.61-2.936Zm-20.07-4.215-10.04-2.107-.61 2.936 10.03 2.107.62-2.936Zm-20.07-4.214-10.04-2.107-.61 2.936 10.03 2.107.62-2.936Zm-20.07-4.214-10.04-2.107-.61 2.936 10.03 2.107.62-2.936Zm-20.07-4.214-10.04-2.108-.62 2.936 10.04 2.108.62-2.936Zm-20.08-4.215-10.03-2.107-.62 2.936 10.04 2.107.61-2.936Zm-20.07-4.214-10.03-2.107-.62 2.936 10.04 2.107.61-2.936Zm-20.07-4.214-10.03-2.107-.62 2.936 10.04 2.107.61-2.936Zm-20.07-4.215-10.04-2.107-.61 2.936 10.03 2.107.62-2.936Zm-20.07-4.214-10.037-2.107-.616 2.936 10.033 2.107.62-2.936Zm-20.073-4.214-10.035-2.107-.617 2.936 10.036 2.107.616-2.936Zm-20.071-4.214-5.018-1.054-.616 2.936 5.018 1.054.616-2.936Zm-13.801-1.366 6.695 10.255 10.255-6.695-6.695-10.255-10.255 6.695Zm289.785 59.312-5.02-1.054-.62 2.936 5.02 1.054.62-2.936Zm-15.06-3.161-10.03-2.107-.62 2.936 10.04 2.107.61-2.936Zm-20.07-4.214-10.03-2.107-.62 2.936 10.04 2.107.61-2.936Zm-20.07-4.214-10.03-2.107-.62 2.936 10.04 2.107.61-2.936Zm-20.07-4.215-10.04-2.107-.61 2.936 10.03 2.107.62-2.936Zm-20.07-4.214-10.04-2.107-.61 2.936 10.03 2.107.62-2.936Zm-20.07-4.214-10.04-2.107-.61 2.936 10.03 2.107.62-2.936Zm-20.07-4.214-10.04-2.108-.62 2.936 10.04 2.108.62-2.936Zm-20.08-4.215-10.03-2.107-.62 2.936 10.04 2.107.61-2.936Zm-20.07-4.214-10.03-2.107-.62 2.936 10.04 2.107.61-2.936Zm-20.07-4.214-10.03-2.107-.62 2.936 10.04 2.107.61-2.936Zm-20.07-4.215-10.04-2.107-.61 2.936 10.03 2.107.62-2.936Zm-20.07-4.214-10.037-2.107-.616 2.936 10.033 2.107.62-2.936Zm-20.073-4.214-10.035-2.107-.617 2.936 10.036 2.107.616-2.936Zm-20.071-4.214-5.018-1.054-.616 2.936 5.018 1.054.616-2.936ZM1232.74 507.392l5.65 10.866 10.87-5.65-5.65-10.866-10.87 5.65Zm274.71 85.178-4.75-1.5-.9 2.86 4.75 1.5.9-2.86Zm-14.25-4.5-9.5-3-.9 2.86 9.5 3 .9-2.86Zm-19-6-9.5-3-.9 2.86 9.5 3 .9-2.86Zm-19-6-9.5-3-.9 2.86 9.5 3 .9-2.86Zm-19-6-9.5-3-.9 2.86 9.5 3 .9-2.86Zm-19-6-9.5-3-.9 2.86 9.5 3 .9-2.86Zm-19-6-9.5-3-.9 2.86 9.5 3 .9-2.86Zm-19-6-9.5-3-.9 2.86 9.5 3 .9-2.86Zm-19-6-9.5-3-.9 2.86 9.5 3 .9-2.86Zm-19-6-9.5-3-.9 2.86 9.5 3 .9-2.86Zm-19-6-9.5-3-.9 2.86 9.5 3 .9-2.86Zm-19-6-9.5-3-.9 2.86 9.5 3 .9-2.86Zm-19-6-9.5-3-.9 2.86 9.5 3 .9-2.86Zm-19-6-9.5-3-.9 2.86 9.5 3 .9-2.86Zm-19-6-4.75-1.5-.9 2.86 4.75 1.5.9-2.86Zm-13.46-2.678 5.65 10.866 10.87-5.65-5.65-10.866-10.87 5.65Zm274.71 85.178-4.75-1.5-.9 2.86 4.75 1.5.9-2.86Zm-14.25-4.5-9.5-3-.9 2.86 9.5 3 .9-2.86Zm-19-6-9.5-3-.9 2.86 9.5 3 .9-2.86Zm-19-6-9.5-3-.9 2.86 9.5 3 .9-2.86Zm-19-6-9.5-3-.9 2.86 9.5 3 .9-2.86Zm-19-6-9.5-3-.9 2.86 9.5 3 .9-2.86Zm-19-6-9.5-3-.9 2.86 9.5 3 .9-2.86Zm-19-6-9.5-3-.9 2.86 9.5 3 .9-2.86Zm-19-6-9.5-3-.9 2.86 9.5 3 .9-2.86Zm-19-6-9.5-3-.9 2.86 9.5 3 .9-2.86Zm-19-6-9.5-3-.9 2.86 9.5 3 .9-2.86Zm-19-6-9.5-3-.9 2.86 9.5 3 .9-2.86Zm-19-6-9.5-3-.9 2.86 9.5 3 .9-2.86Zm-19-6-9.5-3-.9 2.86 9.5 3 .9-2.86Zm-19-6-4.75-1.5-.9 2.86 4.75 1.5.9-2.86Z" />
  <path fill="#A0ECFD"
    d="m1247.59 504.378-12.21-.965-.97 12.209 12.21.965.97-12.209Zm-104.62 91.259 3.54-3.018-1.95-2.282-3.53 3.018 1.94 2.282Zm10.61-9.053 7.07-6.036-1.95-2.281-7.07 6.035 1.95 2.282Zm14.14-12.071 7.08-6.035-1.95-2.282-7.07 6.035 1.94 2.282Zm14.15-12.071 7.07-6.035-1.95-2.282-7.07 6.035 1.95 2.282Zm14.14-12.071 7.07-6.035-1.95-2.282-7.07 6.035 1.95 2.282Zm14.14-12.071 7.07-6.035-1.94-2.282-7.08 6.036 1.95 2.281Zm14.15-12.07 7.07-6.036-1.95-2.282-7.07 6.036 1.95 2.282Zm14.14-12.071 3.53-3.018-1.94-2.282-3.54 3.018 1.95 2.282Zm9.15-9.781-12.21-.965-.97 12.209 12.21.965.97-12.209Zm-104.62 91.259 3.54-3.018-1.95-2.282-3.53 3.018 1.94 2.282Zm10.61-9.053 7.07-6.036-1.95-2.281-7.07 6.035 1.95 2.282Zm14.14-12.071 7.08-6.035-1.95-2.282-7.07 6.035 1.94 2.282Zm14.15-12.071 7.07-6.035-1.95-2.282-7.07 6.035 1.95 2.282Zm14.14-12.071 7.07-6.035-1.95-2.282-7.07 6.035 1.95 2.282Zm14.14-12.071 7.07-6.035-1.94-2.282-7.08 6.036 1.95 2.281Zm14.15-12.07 7.07-6.036-1.95-2.282-7.07 6.036 1.95 2.282Zm14.14-12.071 3.53-3.018-1.94-2.282-3.54 3.018 1.95 2.282ZM782.41 693.237l-12.173 1.353 1.353 12.173 12.173-1.353-1.353-12.173Zm-92.239 117.7 3.143-3.929-2.342-1.874-3.143 3.929 2.342 1.874Zm9.429-11.786 6.286-7.857-2.343-1.874-6.286 7.857 2.343 1.874Zm12.571-15.714 6.286-7.857-2.343-1.874-6.285 7.857 2.342 1.874Zm12.572-15.714 6.285-7.857-2.342-1.874-6.286 7.857 2.343 1.874Zm12.571-15.715 6.286-7.857-2.343-1.874-6.285 7.857 2.342 1.874Zm12.572-15.714 6.285-7.857-2.342-1.874-6.286 7.857 2.343 1.874Zm12.571-15.714 6.286-7.857-2.343-1.874-6.286 7.857 2.343 1.874Zm12.571-15.714 3.143-3.929-2.342-1.874-3.143 3.929 2.342 1.874Zm7.382-11.629-12.173 1.353 1.353 12.173 12.173-1.353-1.353-12.173Zm-92.239 117.7 3.143-3.929-2.342-1.874-3.143 3.929 2.342 1.874Zm9.429-11.786 6.286-7.857-2.343-1.874-6.286 7.857 2.343 1.874Zm12.571-15.714 6.286-7.857-2.343-1.874-6.285 7.857 2.342 1.874Zm12.572-15.714 6.285-7.857-2.342-1.874-6.286 7.857 2.343 1.874Zm12.571-15.715 6.286-7.857-2.343-1.874-6.285 7.857 2.342 1.874Zm12.572-15.714 6.285-7.857-2.342-1.874-6.286 7.857 2.343 1.874Zm12.571-15.714 6.286-7.857-2.343-1.874-6.286 7.857 2.343 1.874Zm12.571-15.714 3.143-3.929-2.342-1.874-3.143 3.929 2.342 1.874ZM1147.41 693.237l-12.17 1.353 1.35 12.173 12.17-1.353-1.35-12.173Zm-92.24 117.7 3.14-3.929-2.34-1.874-3.14 3.929 2.34 1.874Zm9.43-11.786 6.29-7.857-2.35-1.874-6.28 7.857 2.34 1.874Zm12.57-15.714 6.29-7.857-2.35-1.874-6.28 7.857 2.34 1.874Zm12.57-15.714 6.29-7.857-2.34-1.874-6.29 7.857 2.34 1.874Zm12.57-15.715 6.29-7.857-2.34-1.874-6.29 7.857 2.34 1.874Zm12.58-15.714 6.28-7.857-2.34-1.874-6.29 7.857 2.35 1.874Zm12.57-15.714 6.28-7.857-2.34-1.874-6.29 7.857 2.35 1.874Zm12.57-15.714 3.14-3.929-2.34-1.874-3.14 3.929 2.34 1.874Zm7.38-11.629-12.17 1.353 1.35 12.173 12.17-1.353-1.35-12.173Zm-92.24 117.7 3.14-3.929-2.34-1.874-3.14 3.929 2.34 1.874Zm9.43-11.786 6.29-7.857-2.35-1.874-6.28 7.857 2.34 1.874Zm12.57-15.714 6.29-7.857-2.35-1.874-6.28 7.857 2.34 1.874Zm12.57-15.714 6.29-7.857-2.34-1.874-6.29 7.857 2.34 1.874Zm12.57-15.715 6.29-7.857-2.34-1.874-6.29 7.857 2.34 1.874Zm12.58-15.714 6.28-7.857-2.34-1.874-6.29 7.857 2.35 1.874Zm12.57-15.714 6.28-7.857-2.34-1.874-6.29 7.857 2.35 1.874Zm12.57-15.714 3.14-3.929-2.34-1.874-3.14 3.929 2.34 1.874ZM1512.41 693.237l-12.17 1.353 1.35 12.173 12.17-1.353-1.35-12.173Zm-92.24 117.7 3.14-3.929-2.34-1.874-3.14 3.929 2.34 1.874Zm9.43-11.786 6.29-7.857-2.35-1.874-6.28 7.857 2.34 1.874Zm12.57-15.714 6.29-7.857-2.35-1.874-6.28 7.857 2.34 1.874Zm12.57-15.714 6.29-7.857-2.34-1.874-6.29 7.857 2.34 1.874Zm12.57-15.715 6.29-7.857-2.34-1.874-6.29 7.857 2.34 1.874Zm12.58-15.714 6.28-7.857-2.34-1.874-6.29 7.857 2.35 1.874Zm12.57-15.714 6.28-7.857-2.34-1.874-6.29 7.857 2.35 1.874Zm12.57-15.714 3.14-3.929-2.34-1.874-3.14 3.929 2.34 1.874Zm7.38-11.629-12.17 1.353 1.35 12.173 12.17-1.353-1.35-12.173Zm-92.24 117.7 3.14-3.929-2.34-1.874-3.14 3.929 2.34 1.874Zm9.43-11.786 6.29-7.857-2.35-1.874-6.28 7.857 2.34 1.874Zm12.57-15.714 6.29-7.857-2.35-1.874-6.28 7.857 2.34 1.874Zm12.57-15.714 6.29-7.857-2.34-1.874-6.29 7.857 2.34 1.874Zm12.57-15.715 6.29-7.857-2.34-1.874-6.29 7.857 2.34 1.874Zm12.58-15.714 6.28-7.857-2.34-1.874-6.29 7.857 2.35 1.874Zm12.57-15.714 6.28-7.857-2.34-1.874-6.29 7.857 2.35 1.874Zm12.57-15.714 3.14-3.929-2.34-1.874-3.14 3.929 2.34 1.874Z" />
  <path fill="#A0ECFD"
    d="m1501.59 693.237-1.35 12.173 12.17 1.353 1.35-12.173-12.17-1.353Zm94.58 115.826-3.14-3.929-2.34 1.874 3.14 3.929 2.34-1.874Zm-9.43-11.786-6.28-7.857-2.35 1.874 6.29 7.857 2.34-1.874Zm-12.57-15.714-6.28-7.857-2.35 1.874 6.29 7.857 2.34-1.874Zm-12.57-15.714-6.29-7.857-2.34 1.874 6.29 7.857 2.34-1.874Zm-12.57-15.715-6.29-7.857-2.34 1.874 6.29 7.857 2.34-1.874Zm-12.57-15.714-6.29-7.857-2.34 1.874 6.28 7.857 2.35-1.874Zm-12.57-15.714-6.29-7.857-2.34 1.874 6.28 7.857 2.35-1.874Zm-12.58-15.714-3.14-3.929-2.34 1.874 3.14 3.929 2.34-1.874Zm-9.72-9.755-1.35 12.173 12.17 1.353 1.35-12.173-12.17-1.353Zm94.58 115.826-3.14-3.929-2.34 1.874 3.14 3.929 2.34-1.874Zm-9.43-11.786-6.28-7.857-2.35 1.874 6.29 7.857 2.34-1.874Zm-12.57-15.714-6.28-7.857-2.35 1.874 6.29 7.857 2.34-1.874Zm-12.57-15.714-6.29-7.857-2.34 1.874 6.29 7.857 2.34-1.874Zm-12.57-15.715-6.29-7.857-2.34 1.874 6.29 7.857 2.34-1.874Zm-12.57-15.714-6.29-7.857-2.34 1.874 6.28 7.857 2.35-1.874Zm-12.57-15.714-6.29-7.857-2.34 1.874 6.28 7.857 2.35-1.874Zm-12.58-15.714-3.14-3.929-2.34 1.874 3.14 3.929 2.34-1.874ZM1136.59 693.237l-1.35 12.173 12.17 1.353 1.35-12.173-12.17-1.353Zm94.58 115.826-3.14-3.929-2.34 1.874 3.14 3.929 2.34-1.874Zm-9.43-11.786-6.28-7.857-2.35 1.874 6.29 7.857 2.34-1.874Zm-12.57-15.714-6.28-7.857-2.35 1.874 6.29 7.857 2.34-1.874Zm-12.57-15.714-6.29-7.857-2.34 1.874 6.29 7.857 2.34-1.874Zm-12.57-15.715-6.29-7.857-2.34 1.874 6.29 7.857 2.34-1.874Zm-12.57-15.714-6.29-7.857-2.34 1.874 6.28 7.857 2.35-1.874Zm-12.57-15.714-6.29-7.857-2.34 1.874 6.28 7.857 2.35-1.874Zm-12.58-15.714-3.14-3.929-2.34 1.874 3.14 3.929 2.34-1.874Zm-9.72-9.755-1.35 12.173 12.17 1.353 1.35-12.173-12.17-1.353Zm94.58 115.826-3.14-3.929-2.34 1.874 3.14 3.929 2.34-1.874Zm-9.43-11.786-6.28-7.857-2.35 1.874 6.29 7.857 2.34-1.874Zm-12.57-15.714-6.28-7.857-2.35 1.874 6.29 7.857 2.34-1.874Zm-12.57-15.714-6.29-7.857-2.34 1.874 6.29 7.857 2.34-1.874Zm-12.57-15.715-6.29-7.857-2.34 1.874 6.29 7.857 2.34-1.874Zm-12.57-15.714-6.29-7.857-2.34 1.874 6.28 7.857 2.35-1.874Zm-12.57-15.714-6.29-7.857-2.34 1.874 6.28 7.857 2.35-1.874Zm-12.58-15.714-3.14-3.929-2.34 1.874 3.14 3.929 2.34-1.874ZM771.59 693.237l-1.353 12.173 12.173 1.353 1.353-12.173-12.173-1.353Zm94.581 115.826-3.143-3.929-2.342 1.874 3.143 3.929 2.342-1.874Zm-9.428-11.786-6.286-7.857-2.343 1.874 6.286 7.857 2.343-1.874Zm-12.572-15.714-6.285-7.857-2.343 1.874 6.286 7.857 2.342-1.874ZM831.6 765.849l-6.286-7.857-2.342 1.874 6.285 7.857 2.343-1.874Zm-12.572-15.715-6.285-7.857-2.343 1.874 6.286 7.857 2.342-1.874Zm-12.571-15.714-6.286-7.857-2.342 1.874 6.285 7.857 2.343-1.874Zm-12.571-15.714-6.286-7.857-2.343 1.874 6.286 7.857 2.343-1.874Zm-12.572-15.714-3.143-3.929-2.342 1.874 3.143 3.929 2.342-1.874Zm-9.724-9.755-1.353 12.173 12.173 1.353 1.353-12.173-12.173-1.353Zm94.581 115.826-3.143-3.929-2.342 1.874 3.143 3.929 2.342-1.874Zm-9.428-11.786-6.286-7.857-2.343 1.874 6.286 7.857 2.343-1.874Zm-12.572-15.714-6.285-7.857-2.343 1.874 6.286 7.857 2.342-1.874ZM831.6 765.849l-6.286-7.857-2.342 1.874 6.285 7.857 2.343-1.874Zm-12.572-15.715-6.285-7.857-2.343 1.874 6.286 7.857 2.342-1.874Zm-12.571-15.714-6.286-7.857-2.342 1.874 6.285 7.857 2.343-1.874Zm-12.571-15.714-6.286-7.857-2.343 1.874 6.286 7.857 2.343-1.874Zm-12.572-15.714-3.143-3.929-2.342 1.874 3.143 3.929 2.342-1.874ZM406.59 693.237l-1.353 12.173 12.173 1.353 1.353-12.173-12.173-1.353Zm94.581 115.826-3.143-3.929-2.342 1.874 3.143 3.929 2.342-1.874Zm-9.428-11.786-6.286-7.857-2.343 1.874 6.286 7.857 2.343-1.874Zm-12.572-15.714-6.285-7.857-2.343 1.874 6.286 7.857 2.342-1.874ZM466.6 765.849l-6.286-7.857-2.342 1.874 6.285 7.857 2.343-1.874Zm-12.572-15.715-6.285-7.857-2.343 1.874 6.286 7.857 2.342-1.874Zm-12.571-15.714-6.286-7.857-2.342 1.874 6.285 7.857 2.343-1.874Zm-12.571-15.714-6.286-7.857-2.343 1.874 6.286 7.857 2.343-1.874Zm-12.572-15.714-3.143-3.929-2.342 1.874 3.143 3.929 2.342-1.874Zm-9.724-9.755-1.353 12.173 12.173 1.353 1.353-12.173-12.173-1.353Zm94.581 115.826-3.143-3.929-2.342 1.874 3.143 3.929 2.342-1.874Zm-9.428-11.786-6.286-7.857-2.343 1.874 6.286 7.857 2.343-1.874Zm-12.572-15.714-6.285-7.857-2.343 1.874 6.286 7.857 2.342-1.874ZM466.6 765.849l-6.286-7.857-2.342 1.874 6.285 7.857 2.343-1.874Zm-12.572-15.715-6.285-7.857-2.343 1.874 6.286 7.857 2.342-1.874Zm-12.571-15.714-6.286-7.857-2.342 1.874 6.285 7.857 2.343-1.874Zm-12.571-15.714-6.286-7.857-2.343 1.874 6.286 7.857 2.343-1.874Zm-12.572-15.714-3.143-3.929-2.342 1.874 3.143 3.929 2.342-1.874Z" />
  <path fill="#fff" fill-rule="evenodd"
    d="M889.023 1002.98c0 12.15-10.073 22-22.5 22-12.426 0-22.5-9.85-22.5-22h11.25c0 6.08 5.037 11 11.25 11 6.214 0 11.25-4.92 11.25-11h11.25ZM855.25 986H844v11h11.25v-11Zm33.75 0h-11.25v11H889v-11ZM894.738 997h11.25v-11h-11.25v11Zm-33.75 0h11.25v-11h-11.25v11ZM860.988 980c0-12.15 10.074-22 22.5-22 12.427 0 22.5 9.85 22.5 22h-11.25c0-6.075-5.037-11-11.25-11s-11.25 4.925-11.25 11h-11.25Z"
    clip-rule="evenodd" />
  <path fill="#fff"
    d="M948.043 971.335h8.576v26.661c0 2.994-.706 5.614-2.119 7.854-1.399 2.25-3.36 4-5.882 5.26-2.522 1.24-5.46 1.86-8.814 1.86-3.367 0-6.312-.62-8.834-1.86-2.522-1.26-4.483-3.01-5.882-5.26-1.4-2.24-2.1-4.86-2.1-7.854v-26.661h8.576v25.919c0 1.564.337 2.956 1.011 4.166a7.354 7.354 0 0 0 2.891 2.87c1.241.7 2.687 1.04 4.338 1.04 1.664 0 3.109-.34 4.338-1.04a7.23 7.23 0 0 0 2.872-2.87c.686-1.21 1.029-2.602 1.029-4.166v-25.919Zm24.238 23.253v17.802h-8.437v-30.791h8.041v5.432h.357c.673-1.791 1.802-3.207 3.387-4.249 1.584-1.056 3.505-1.584 5.763-1.584 2.113 0 3.955.468 5.526 1.403 1.572.936 2.793 2.272 3.664 4.009.872 1.724 1.308 3.782 1.308 6.174v19.606h-8.438v-18.082c.013-1.885-.462-3.355-1.426-4.41-.964-1.069-2.291-1.604-3.981-1.604-1.136 0-2.139.247-3.011.742-.858.494-1.531 1.216-2.02 2.165-.475.935-.72 2.064-.733 3.387Zm26.259 17.802v-30.791h8.44v30.791h-8.44Zm4.24-34.76c-1.26 0-2.33-.421-3.23-1.263-.885-.856-1.327-1.878-1.327-3.067 0-1.176.442-2.185 1.327-3.027.9-.855 1.97-1.283 3.23-1.283 1.25 0 2.32.428 3.21 1.283.89.842 1.34 1.851 1.34 3.027 0 1.189-.45 2.211-1.34 3.067-.89.842-1.96 1.263-3.21 1.263Zm24.7 35.36c-3.07 0-5.74-.66-7.98-1.98-2.23-1.34-3.96-3.2-5.17-5.58-1.21-2.39-1.82-5.16-1.82-8.316 0-3.181.61-5.96 1.82-8.339 1.21-2.392 2.94-4.25 5.17-5.573 2.24-1.336 4.91-2.004 7.98-2.004 3.08 0 5.73.668 7.96 2.004 2.25 1.323 3.98 3.181 5.19 5.573 1.22 2.379 1.83 5.158 1.83 8.339 0 3.156-.61 5.926-1.83 8.316-1.21 2.38-2.94 4.24-5.19 5.58-2.23 1.32-4.88 1.98-7.96 1.98Zm.04-6.61c1.4 0 2.57-.41 3.51-1.21.93-.81 1.64-1.92 2.12-3.33.48-1.4.73-2.995.73-4.786 0-1.791-.25-3.388-.73-4.791-.48-1.403-1.19-2.513-2.12-3.327-.94-.816-2.11-1.223-3.51-1.223-1.41 0-2.6.407-3.56 1.223-.95.814-1.67 1.924-2.16 3.327-.48 1.403-.72 3-.72 4.791 0 1.791.24 3.386.72 4.786.49 1.41 1.21 2.52 2.16 3.33.96.8 2.15 1.21 3.56 1.21Zm28.86-11.792v17.802h-8.44v-30.791h8.04v5.432h.36c.67-1.791 1.8-3.207 3.39-4.249 1.58-1.056 3.5-1.584 5.76-1.584 2.11 0 3.96.468 5.53 1.403 1.57.936 2.79 2.272 3.66 4.009.87 1.724 1.31 3.782 1.31 6.174v19.606h-8.44v-18.082c.01-1.885-.46-3.355-1.43-4.41-.96-1.069-2.29-1.604-3.98-1.604-1.13 0-2.13.247-3.01.742-.86.494-1.53 1.216-2.02 2.165-.47.935-.72 2.064-.73 3.387ZM719.312 162V96.522h19.731l10.811 30.498a355.149 355.149 0 0 1 2.285 7.558 429.323 429.323 0 0 1 2.592 8.833 718.034 718.034 0 0 1 2.549-8.833c.938-3.105 1.699-5.625 2.285-7.558l10.679-30.498h19.732V162h-13.228v-31.113c0-2.285.044-5.215.132-8.789.117-3.575.22-7.163.308-10.767a2435.77 2435.77 0 0 0-3.296 11.074c-1.055 3.545-1.934 6.372-2.637 8.482L760.181 162h-10.987l-11.206-31.113a479.931 479.931 0 0 1-2.592-8.086c-1.026-3.369-2.095-6.885-3.208-10.547.087 3.457.175 6.885.263 10.283.088 3.369.132 6.152.132 8.35V162h-13.271Zm101.381 1.055c-4.687 0-8.774-1.04-12.26-3.12-3.457-2.081-6.153-4.937-8.086-8.57-1.905-3.662-2.857-7.837-2.857-12.524 0-4.717.967-8.906 2.901-12.569 1.963-3.662 4.658-6.533 8.086-8.613 3.427-2.08 7.353-3.12 11.777-3.12 4.57 0 8.555 1.025 11.953 3.076 3.428 2.022 6.094 4.849 7.998 8.482 1.934 3.603 2.9 7.763 2.9 12.48v3.472h-33.002c.117 3.428 1.127 6.167 3.032 8.218 1.904 2.05 4.555 3.076 7.954 3.076 2.519 0 4.614-.542 6.284-1.626 1.699-1.084 2.842-2.52 3.428-4.307h11.821c-.557 3.076-1.86 5.786-3.911 8.13-2.051 2.344-4.629 4.189-7.734 5.537-3.106 1.319-6.534 1.978-10.284 1.978Zm-10.503-29.268h20.699c-.323-2.9-1.407-5.185-3.252-6.855-1.817-1.7-4.19-2.549-7.119-2.549-2.901 0-5.259.849-7.076 2.549-1.816 1.67-2.9 3.955-3.252 6.855ZM850.049 162v-46.406h12.48v7.91h.132c.85-2.783 2.183-4.849 3.999-6.196 1.817-1.348 4.263-2.022 7.339-2.022.762 0 1.45.015 2.065.044.645.029 1.231.044 1.758.044v11.03c-.468-.029-1.245-.073-2.329-.132a60.855 60.855 0 0 0-3.252-.087c-2.666 0-4.878.908-6.636 2.724-1.728 1.817-2.592 4.468-2.592 7.954V162h-12.964Zm33.662 0V96.522h12.964v36.826h.132l16.259-17.754h15.205l-18.149 20.127L929.238 162h-15.161l-13.667-18.853-3.735 4.131V162h-12.964Zm62.534-65.478V162h-12.964V96.522h12.964Zm30.366 66.533c-4.687 0-8.774-1.04-12.26-3.12-3.457-2.081-6.153-4.937-8.086-8.57-1.905-3.662-2.857-7.837-2.857-12.524 0-4.717.967-8.906 2.901-12.569 1.962-3.662 4.658-6.533 8.086-8.613 3.427-2.08 7.353-3.12 11.777-3.12 4.57 0 8.555 1.025 11.953 3.076 3.428 2.022 6.094 4.849 7.998 8.482 1.934 3.603 2.9 7.763 2.9 12.48v3.472h-33.002c.117 3.428 1.127 6.167 3.032 8.218 1.904 2.05 4.555 3.076 7.954 3.076 2.519 0 4.614-.542 6.284-1.626 1.699-1.084 2.842-2.52 3.428-4.307h11.821c-.557 3.076-1.86 5.786-3.911 8.13-2.051 2.344-4.629 4.189-7.734 5.537-3.106 1.319-6.534 1.978-10.284 1.978Zm-10.503-29.268h20.699c-.323-2.9-1.407-5.185-3.252-6.855-1.817-1.7-4.19-2.549-7.119-2.549-2.901 0-5.259.849-7.076 2.549-1.816 1.67-2.9 3.955-3.252 6.855Zm56.602-25.664V96.521h53.22v11.602h-19.82V162h-13.54v-53.877h-19.86ZM1075.93 162v-46.406h12.48v7.91h.13c.85-2.783 2.18-4.849 4-6.196 1.82-1.348 4.26-2.022 7.34-2.022.76 0 1.45.015 2.06.044.65.029 1.23.044 1.76.044v11.03c-.47-.029-1.24-.073-2.33-.132a60.78 60.78 0 0 0-3.25-.087c-2.67 0-4.88.908-6.64 2.724-1.72 1.817-2.59 4.468-2.59 7.954V162h-12.96Zm54.31 1.055c-4.68 0-8.77-1.04-12.26-3.12-3.45-2.081-6.15-4.937-8.08-8.57-1.91-3.662-2.86-7.837-2.86-12.524 0-4.717.97-8.906 2.9-12.569 1.96-3.662 4.66-6.533 8.09-8.613 3.43-2.08 7.35-3.12 11.77-3.12 4.58 0 8.56 1.025 11.96 3.076 3.43 2.022 6.09 4.849 8 8.482 1.93 3.603 2.9 7.763 2.9 12.48v3.472h-33.01c.12 3.428 1.13 6.167 3.04 8.218 1.9 2.05 4.55 3.076 7.95 3.076 2.52 0 4.61-.542 6.28-1.626 1.7-1.084 2.85-2.52 3.43-4.307h11.82c-.55 3.076-1.86 5.786-3.91 8.13-2.05 2.344-4.63 4.189-7.73 5.537-3.11 1.319-6.54 1.978-10.29 1.978Zm-10.5-29.268h20.7c-.32-2.9-1.41-5.185-3.25-6.855-1.82-1.7-4.19-2.549-7.12-2.549-2.9 0-5.26.849-7.08 2.549-1.81 1.67-2.9 3.955-3.25 6.855Zm61.04 29.268c-4.69 0-8.77-1.04-12.26-3.12-3.46-2.081-6.15-4.937-8.09-8.57-1.9-3.662-2.85-7.837-2.85-12.524 0-4.717.96-8.906 2.9-12.569 1.96-3.662 4.66-6.533 8.08-8.613 3.43-2.08 7.36-3.12 11.78-3.12 4.57 0 8.56 1.025 11.95 3.076 3.43 2.022 6.1 4.849 8 8.482 1.94 3.603 2.9 7.763 2.9 12.48v3.472h-33c.12 3.428 1.13 6.167 3.03 8.218 1.91 2.05 4.56 3.076 7.96 3.076 2.52 0 4.61-.542 6.28-1.626 1.7-1.084 2.84-2.52 3.43-4.307h11.82c-.56 3.076-1.86 5.786-3.91 8.13-2.05 2.344-4.63 4.189-7.74 5.537-3.1 1.319-6.53 1.978-10.28 1.978Zm-10.5-29.268h20.7c-.33-2.9-1.41-5.185-3.26-6.855-1.81-1.7-4.18-2.549-7.11-2.549-2.9 0-5.26.849-7.08 2.549-1.82 1.67-2.9 3.955-3.25 6.855Z" />
  <rect width="265" height="105" x="827.5" y="239.5" fill="#A0ECFD" fill-opacity=".2" rx="20.5" />
  <rect width="265" height="105" x="827.5" y="239.5" stroke="#A0ECFD" rx="20.5" />
  <path fill="#A0ECFD"
    d="M918.643 313.5v-43.652h9.023v17.519h18.545v-17.519h8.994V313.5h-8.994v-18.398h-18.545V313.5h-9.023Zm39.982 0 6.385-18.188h4.834l6.384 18.188h-4.163l-1.269-3.967h-6.799l-1.319 3.967h-4.053Zm6.385-6.97h4.809l-.61-1.88a315.387 315.387 0 0 1-1.77-5.969 211.21 211.21 0 0 1-.928 3.137c-.293.96-.586 1.904-.879 2.832l-.622 1.88Zm20.19-3.565v2.881h-8.264v-2.881h8.264Zm2.796 10.535v-18.188h3.759v7.299h7.727v-7.299h3.748V313.5h-3.748v-7.666h-7.727v7.666h-3.759Z" />
  <rect width="265" height="105" x="1108.5" y="404.5" fill="#A0ECFD" fill-opacity=".2" rx="20.5" />
  <rect width="265" height="105" x="1108.5" y="404.5" stroke="#A0ECFD" rx="20.5" />
  <path fill="#A0ECFD"
    d="M1200.53 478.5v-43.652h9.03v17.519h18.54v-17.519h9V478.5h-9v-18.398h-18.54V478.5h-9.03Zm41.23 0v-18.188h13.05v3.222h-9.29v4.212h8.6v3.137h-8.6v4.394h9.29v3.223h-13.05Zm23.55-10.535v2.881h-8.27v-2.881h8.27Zm2.79 10.535v-18.188h3.76v7.299h7.73v-7.299h3.75V478.5h-3.75v-7.666h-7.73v7.666h-3.76Z" />
  <rect width="265" height="105" x="545.5" y="404.5" fill="#A0ECFD" fill-opacity=".2" rx="20.5" />
  <rect width="265" height="105" x="545.5" y="404.5" stroke="#A0ECFD" rx="20.5" />
  <path fill="#A0ECFD"
    d="M636.862 478.5v-43.652h9.024v17.519h18.545v-17.519h8.994V478.5h-8.994v-18.398h-18.545V478.5h-9.024Zm39.983 0 6.384-18.188h4.834l6.385 18.188h-4.163l-1.269-3.967h-6.8l-1.318 3.967h-4.053Zm6.384-6.97h4.81l-.61-1.88a315.387 315.387 0 0 1-1.77-5.969 211.21 211.21 0 0 1-.928 3.137c-.293.96-.586 1.904-.879 2.832l-.623 1.88Zm20.191-3.565v2.881h-8.264v-2.881h8.264Zm9.216 10.535h-6.421v-18.188h6.494c1.823 0 3.402.37 4.737 1.11a7.633 7.633 0 0 1 3.088 3.15c.724 1.359 1.087 2.966 1.087 4.822 0 1.863-.363 3.479-1.087 4.846a7.605 7.605 0 0 1-3.1 3.149c-1.335.741-2.934 1.111-4.798 1.111Zm-2.661-3.162h2.466c1.839 0 3.198-.512 4.077-1.538.879-1.025 1.318-2.494 1.318-4.406 0-1.913-.443-3.378-1.33-4.395-.879-1.017-2.222-1.526-4.028-1.526h-2.503v11.865Z" />
  <rect width="265" height="105" x="1374.5" y="594.5" fill="#A0ECFD" fill-opacity=".2" rx="20.5" />
  <rect width="265" height="105" x="1374.5" y="594.5" stroke="#A0ECFD" rx="20.5" />
  <path fill="#A0ECFD"
    d="M1464.93 668.5v-43.652h9.03v17.519h18.54v-17.519h9V668.5h-9v-18.398h-18.54V668.5h-9.03Zm49.3.293c-1.72 0-3.23-.391-4.53-1.172-1.3-.781-2.31-1.876-3.04-3.284-.72-1.407-1.08-3.047-1.08-4.919 0-1.937.37-3.605 1.12-5.005.75-1.408 1.77-2.49 3.06-3.247 1.31-.765 2.77-1.147 4.41-1.147 1.39 0 2.66.268 3.81.805s2.1 1.286 2.84 2.246c.74.952 1.19 2.063 1.35 3.333h-3.81c-.21-.928-.67-1.668-1.38-2.222-.71-.561-1.61-.842-2.7-.842-1.53 0-2.73.545-3.61 1.636-.87 1.09-1.31 2.571-1.31 4.443 0 1.864.44 3.341 1.32 4.431.89 1.082 2.1 1.624 3.65 1.624 1.25 0 2.27-.346 3.06-1.038.8-.7 1.21-1.615 1.22-2.747h-3.96v-2.856h7.64v2.319c0 1.506-.35 2.832-1.04 3.98-.68 1.147-1.63 2.047-2.84 2.698-1.22.643-2.61.964-4.18.964Zm18.68-10.828v2.881h-8.27v-2.881h8.27Zm2.79 10.535v-18.188h3.76v7.299h7.73v-7.299h3.75V668.5h-3.75v-7.666h-7.73v7.666h-3.76Z" />
  <rect width="265" height="105" x="1009.5" y="594.5" fill="#A0ECFD" fill-opacity=".2" rx="20.5" />
  <rect width="265" height="105" x="1009.5" y="594.5" stroke="#A0ECFD" rx="20.5" />
  <path fill="#A0ECFD"
    d="M1103.24 668.5v-43.652h9.03v17.519h18.54v-17.519h9V668.5h-9v-18.398h-18.54V668.5h-9.03Zm41.23 0v-18.188h13.05v3.222h-9.29v4.212h8.59v3.137h-8.59v4.394h9.29v3.223h-13.05Zm23.55-10.535v2.881h-8.27v-2.881h8.27Zm2.79 10.535v-18.188h12.65v3.222h-8.89v4.468h8.28v3.125h-8.28v7.373h-3.76Z" />
  <rect width="265" height="105" x="279.5" y="594.5" fill="#A0ECFD" fill-opacity=".2" rx="20.5" />
  <rect width="265" height="105" x="279.5" y="594.5" stroke="#A0ECFD" rx="20.5" />
  <path fill="#A0ECFD"
    d="M371.57 668.5v-43.652h9.024v17.519h18.545v-17.519h8.994V668.5h-8.994v-18.398h-18.545V668.5h-9.024Zm39.983 0 6.385-18.188h4.833l6.385 18.188h-4.163l-1.269-3.967h-6.8l-1.318 3.967h-4.053Zm6.385-6.97h4.809l-.61-1.88a315.387 315.387 0 0 1-1.77-5.969 211.21 211.21 0 0 1-.928 3.137c-.293.96-.586 1.904-.879 2.832l-.622 1.88Zm20.19-3.565v2.881h-8.264v-2.881h8.264Zm2.795 10.535v-18.188h7.288c1.953 0 3.459.431 4.517 1.293 1.066.855 1.599 1.982 1.599 3.382 0 1.05-.293 1.916-.879 2.6-.586.684-1.38 1.151-2.381 1.404v.024c1.107.098 2.039.525 2.796 1.282.757.757 1.135 1.782 1.135 3.076 0 1.522-.545 2.759-1.636 3.711-1.09.944-2.669 1.416-4.736 1.416h-7.703Zm3.675-2.954h3.503c.968 0 1.721-.208 2.258-.623.537-.415.806-1.001.806-1.757 0-.757-.264-1.355-.793-1.795-.529-.447-1.266-.671-2.21-.671h-3.564v4.846Zm0-7.678h3.332c.83 0 1.481-.208 1.953-.623.472-.415.708-.972.708-1.672 0-.708-.236-1.27-.708-1.685-.472-.415-1.123-.622-1.953-.622h-3.332v4.602Z" />
  <rect width="265" height="105" x="644.5" y="594.5" fill="#A0ECFD" fill-opacity=".2" rx="20.5" />
  <rect width="265" height="105" x="644.5" y="594.5" stroke="#A0ECFD" rx="20.5" />
  <path fill="#A0ECFD"
    d="M735.276 668.5v-43.652h9.024v17.519h18.545v-17.519h8.994V668.5h-8.994v-18.398H744.3V668.5h-9.024Zm49.285.293c-1.668 0-3.153-.378-4.456-1.135-1.302-.765-2.327-1.848-3.076-3.247-.74-1.408-1.111-3.072-1.111-4.993 0-1.937.371-3.605 1.111-5.005.749-1.408 1.774-2.49 3.076-3.247 1.303-.765 2.788-1.147 4.456-1.147 1.424 0 2.702.276 3.833.83a7.312 7.312 0 0 1 2.795 2.343c.725 1.001 1.185 2.177 1.38 3.528h-3.797c-.219-1.074-.699-1.904-1.44-2.49-.732-.594-1.64-.891-2.722-.891-1.546 0-2.751.549-3.613 1.648-.863 1.09-1.294 2.567-1.294 4.431 0 1.847.431 3.32 1.294 4.419.862 1.09 2.067 1.636 3.613 1.636 1.074 0 1.977-.293 2.71-.879.74-.586 1.229-1.412 1.465-2.478h3.784c-.195 1.351-.655 2.527-1.38 3.528a7.354 7.354 0 0 1-2.795 2.331c-1.131.545-2.409.818-3.833.818Zm18.445-10.828v2.881h-8.264v-2.881h8.264Zm9.216 10.535h-6.421v-18.188h6.494c1.823 0 3.402.37 4.737 1.11a7.633 7.633 0 0 1 3.088 3.15c.724 1.359 1.087 2.966 1.087 4.822 0 1.863-.363 3.479-1.087 4.846a7.605 7.605 0 0 1-3.1 3.149c-1.335.741-2.934 1.111-4.798 1.111Zm-2.661-3.162h2.466c1.839 0 3.198-.512 4.077-1.538.879-1.025 1.318-2.494 1.318-4.406 0-1.913-.443-3.378-1.33-4.395-.879-1.017-2.222-1.526-4.029-1.526h-2.502v11.865Z" />
  <rect width="132" height="105" x="1163.5" y="810.5" fill="#A0ECFD" fill-opacity=".2" rx="20.5" />
  <rect width="132" height="105" x="1163.5" y="810.5" stroke="#A0ECFD" rx="20.5" />
  <path fill="#A0ECFD" d="M1215.29 884.5v-43.652h30.35v7.734h-21.33v10.723h19.87v7.5h-19.87V884.5h-9.02Z" />
  <rect width="132" height="105" x="987.5" y="810.5" fill="#A0ECFD" fill-opacity=".2" rx="20.5" />
  <rect width="132" height="105" x="987.5" y="810.5" stroke="#A0ECFD" rx="20.5" />
  <path fill="#A0ECFD" d="M1038.5 884.5v-43.652h31.32v7.734h-22.3v10.107h20.63v7.53h-20.63v10.547h22.3v7.734h-31.32Z" />
  <rect width="132" height="105" x="257.5" y="810.5" fill="#A0ECFD" fill-opacity=".2" rx="20.5" />
  <rect width="132" height="105" x="257.5" y="810.5" stroke="#A0ECFD" rx="20.5" />
  <path fill="#A0ECFD"
    d="m302.348 884.5 15.322-43.652h11.601l15.323 43.652h-9.99l-3.047-9.521h-16.319l-3.164 9.521h-9.726Zm15.322-16.729h11.543l-1.465-4.511a745.615 745.615 0 0 1-2.051-6.797 998.91 998.91 0 0 1-2.197-7.529 486.502 486.502 0 0 1-2.227 7.529 730.323 730.323 0 0 1-2.109 6.797l-1.494 4.511Z" />
  <rect width="132" height="105" x="433.5" y="810.5" fill="#A0ECFD" fill-opacity=".2" rx="20.5" />
  <rect width="132" height="105" x="433.5" y="810.5" stroke="#A0ECFD" rx="20.5" />
  <path fill="#A0ECFD"
    d="M483.416 884.5v-43.652h17.49c4.688 0 8.301 1.035 10.84 3.105 2.559 2.051 3.838 4.756 3.838 8.115 0 2.52-.703 4.6-2.109 6.241-1.407 1.64-3.311 2.763-5.713 3.369v.058c2.656.235 4.892 1.26 6.709 3.076 1.816 1.817 2.724 4.278 2.724 7.383 0 3.653-1.308 6.621-3.925 8.907-2.618 2.265-6.407 3.398-11.368 3.398h-18.486Zm8.818-7.09h8.409c2.324 0 4.13-.498 5.419-1.494 1.29-.996 1.934-2.402 1.934-4.219 0-1.816-.635-3.252-1.904-4.306-1.27-1.075-3.037-1.612-5.303-1.612h-8.555v11.631Zm0-18.428h7.998c1.993 0 3.555-.498 4.688-1.494 1.133-.996 1.699-2.334 1.699-4.013 0-1.7-.566-3.047-1.699-4.043s-2.695-1.494-4.688-1.494h-7.998v11.044Z" />
  <rect width="132" height="105" x="622.5" y="810.5" fill="#A0ECFD" fill-opacity=".2" rx="20.5" />
  <rect width="132" height="105" x="622.5" y="810.5" stroke="#A0ECFD" rx="20.5" />
  <path fill="#A0ECFD"
    d="M689.291 885.203c-4.004 0-7.568-.908-10.693-2.724-3.125-1.836-5.586-4.434-7.383-7.793-1.777-3.379-2.666-7.374-2.666-11.983 0-4.648.889-8.652 2.666-12.012 1.797-3.379 4.258-5.976 7.383-7.793 3.125-1.836 6.689-2.753 10.693-2.753 3.418 0 6.484.664 9.199 1.992 2.735 1.328 4.971 3.203 6.709 5.625 1.739 2.402 2.842 5.224 3.311 8.467h-9.112c-.527-2.579-1.679-4.571-3.457-5.977-1.757-1.426-3.935-2.139-6.533-2.139-3.711 0-6.601 1.319-8.672 3.955-2.07 2.618-3.105 6.162-3.105 10.635 0 4.434 1.035 7.969 3.105 10.606 2.071 2.617 4.961 3.925 8.672 3.925 2.578 0 4.746-.703 6.504-2.109 1.777-1.406 2.949-3.389 3.516-5.947h9.082c-.469 3.242-1.572 6.064-3.311 8.467-1.738 2.402-3.974 4.267-6.709 5.595-2.715 1.309-5.781 1.963-9.199 1.963Z" />
  <rect width="132" height="105" x="798.5" y="810.5" fill="#A0ECFD" fill-opacity=".2" rx="20.5" />
  <rect width="132" height="105" x="798.5" y="810.5" stroke="#A0ECFD" rx="20.5" />
  <path fill="#A0ECFD"
    d="M862.127 884.5h-15.41v-43.652h15.586c4.375 0 8.164.888 11.367 2.666 3.203 1.777 5.674 4.297 7.412 7.558 1.738 3.262 2.607 7.119 2.607 11.573 0 4.472-.869 8.349-2.607 11.63-1.738 3.262-4.219 5.782-7.441 7.559-3.203 1.777-7.041 2.666-11.514 2.666Zm-6.387-7.588h5.918c4.414 0 7.676-1.23 9.785-3.691 2.11-2.461 3.164-5.987 3.164-10.576 0-4.59-1.064-8.106-3.193-10.547-2.109-2.442-5.332-3.662-9.668-3.662h-6.006v28.476Z" />
  <rect width="132" height="105" x="1352.5" y="810.5" fill="#A0ECFD" fill-opacity=".2" rx="20.5" />
  <rect width="132" height="105" x="1352.5" y="810.5" stroke="#A0ECFD" rx="20.5" />
  <path fill="#A0ECFD"
    d="M1419.03 885.203c-4.12 0-7.75-.937-10.87-2.812-3.13-1.875-5.56-4.502-7.3-7.881-1.74-3.379-2.6-7.315-2.6-11.807 0-4.648.89-8.652 2.69-12.012 1.8-3.379 4.25-5.976 7.35-7.793 3.13-1.836 6.66-2.753 10.58-2.753 3.34 0 6.39.644 9.14 1.933 2.77 1.289 5.05 3.086 6.83 5.391 1.77 2.285 2.85 4.951 3.22 7.998h-9.14c-.49-2.227-1.59-4.004-3.31-5.332-1.7-1.348-3.86-2.022-6.48-2.022-3.67 0-6.56 1.309-8.67 3.926-2.09 2.617-3.13 6.172-3.13 10.664 0 4.473 1.05 8.018 3.16 10.635 2.13 2.598 5.05 3.896 8.76 3.896 3.01 0 5.46-.83 7.36-2.49 1.91-1.68 2.89-3.877 2.92-6.592h-9.52v-6.855h18.34v5.566c0 3.614-.83 6.797-2.49 9.551-1.64 2.754-3.91 4.912-6.82 6.475-2.91 1.543-6.25 2.314-10.02 2.314Z" />
  <rect width="132" height="105" x="1528.5" y="810.5" fill="#A0ECFD" fill-opacity=".2" rx="20.5" />
  <rect width="132" height="105" x="1528.5" y="810.5" stroke="#A0ECFD" rx="20.5" />
  <path fill="#A0ECFD"
    d="M1576.19 884.5v-43.652h9.02v17.519h18.55v-17.519h8.99V884.5h-8.99v-18.398h-18.55V884.5h-9.02Z" />
  <defs>
    <pattern id="a" width="1" height="1" patternContentUnits="objectBoundingBox">
      <use xlink:href="#b" transform="scale(.00052 .00093)" />
    </pattern>
  </defs>
</svg>
