<svg xmlns="http://www.w3.org/2000/svg" xmlns:xlink="http://www.w3.org/1999/xlink" fill="none" viewBox="0 0 1920 1080">
  <path fill="url(#a)" d="M0 0h1920v1080H0z" />
  <rect width="578" height="227" x="670.5" y="599.5" fill="#A0ECFD" fill-opacity=".2" rx="20.5" />
  <rect width="578" height="227" x="670.5" y="599.5" stroke="#A0ECFD" rx="20.5" />
  <path fill="#fff"
    d="M878.785 777.536V803h-5.264v-25.464h5.264ZM882.579 803v-25.464h10.202c2.735 0 4.842.604 6.323 1.812 1.493 1.196 2.239 2.774 2.239 4.734 0 1.469-.41 2.683-1.23 3.64-.821.957-1.931 1.612-3.333 1.965v.034c1.55.137 2.854.735 3.914 1.795 1.059 1.059 1.589 2.495 1.589 4.306 0 2.131-.763 3.863-2.29 5.196-1.527 1.321-3.737 1.982-6.631 1.982h-10.783Zm5.144-4.136h4.904c1.356 0 2.41-.29 3.162-.871.752-.581 1.128-1.402 1.128-2.461 0-1.06-.37-1.897-1.111-2.512-.74-.627-1.771-.94-3.093-.94h-4.99v6.784Zm0-10.749h4.665c1.162 0 2.074-.291 2.735-.872.66-.581.991-1.361.991-2.341 0-.991-.331-1.777-.991-2.359-.661-.581-1.573-.871-2.735-.871h-4.665v6.443Zm28.694 15.295c-2.336 0-4.415-.53-6.238-1.589-1.823-1.071-3.259-2.586-4.307-4.546-1.037-1.971-1.555-4.301-1.555-6.99 0-2.711.518-5.047 1.555-7.007 1.048-1.971 2.484-3.486 4.307-4.546 1.823-1.071 3.902-1.606 6.238-1.606 1.993 0 3.782.387 5.366 1.162a10.252 10.252 0 0 1 3.913 3.281c1.014 1.402 1.658 3.048 1.931 4.939h-5.315c-.307-1.504-.979-2.666-2.016-3.486-1.025-.832-2.296-1.248-3.811-1.248-2.165 0-3.851.769-5.059 2.308-1.207 1.526-1.811 3.594-1.811 6.203 0 2.586.604 4.649 1.811 6.187 1.208 1.526 2.894 2.29 5.059 2.29 1.504 0 2.768-.41 3.794-1.231 1.037-.82 1.72-1.976 2.051-3.469h5.297c-.273 1.891-.917 3.538-1.931 4.939a10.308 10.308 0 0 1-3.913 3.264c-1.584.763-3.373 1.145-5.366 1.145Zm21.669-.41v-25.464h10.049c1.903 0 3.549.342 4.939 1.026 1.402.672 2.478 1.634 3.23 2.888.764 1.253 1.145 2.734 1.145 4.443 0 1.709-.387 3.19-1.162 4.443-.763 1.242-1.846 2.205-3.247 2.889-1.401.683-3.059 1.025-4.973 1.025h-4.717V803h-5.264Zm5.264-13.159h4.443c1.39 0 2.49-.353 3.299-1.06.809-.718 1.213-1.68 1.213-2.888 0-1.219-.404-2.182-1.213-2.888s-1.909-1.06-3.299-1.06h-4.443v7.896Zm21.465 13.467c-1.8 0-3.287-.45-4.461-1.35-1.162-.901-1.743-2.251-1.743-4.051 0-1.356.325-2.415.974-3.178.65-.775 1.51-1.339 2.581-1.692a15.581 15.581 0 0 1 3.486-.701c1.652-.171 2.809-.342 3.47-.513.66-.171.991-.547.991-1.128v-.119c0-.661-.262-1.202-.786-1.624-.524-.421-1.248-.632-2.171-.632-.934 0-1.692.216-2.273.649-.581.433-.9.997-.957 1.692h-4.734c.114-1.857.878-3.332 2.29-4.426 1.413-1.105 3.356-1.658 5.828-1.658 2.472 0 4.386.553 5.742 1.658 1.356 1.094 2.034 2.603 2.034 4.529V803h-4.922v-2.546h-.068a5.499 5.499 0 0 1-1.966 2.085c-.831.512-1.936.769-3.315.769Zm1.401-3.504c1.208 0 2.165-.319 2.871-.957.707-.649 1.06-1.464 1.06-2.444v-1.811c-.285.159-.758.307-1.418.444-.661.125-1.396.251-2.205.376-.866.137-1.601.387-2.205.752-.592.353-.888.889-.888 1.607 0 .638.25 1.139.752 1.503.512.354 1.19.53 2.033.53Zm20.696 3.606c-1.811 0-3.395-.393-4.751-1.179a8.41 8.41 0 0 1-3.179-3.315c-.752-1.425-1.128-3.065-1.128-4.922 0-1.869.376-3.509 1.128-4.922.764-1.424 1.823-2.535 3.179-3.333 1.356-.797 2.94-1.196 4.751-1.196 1.584 0 2.991.308 4.221.923 1.242.604 2.233 1.447 2.974 2.529.752 1.071 1.179 2.307 1.282 3.709h-4.871c-.137-.923-.513-1.669-1.128-2.239-.604-.57-1.407-.855-2.41-.855-1.264 0-2.255.485-2.973 1.453-.718.968-1.077 2.279-1.077 3.931 0 1.64.359 2.945 1.077 3.913.718.957 1.709 1.436 2.973 1.436 1.014 0 1.812-.285 2.393-.855.581-.569.951-1.327 1.111-2.273h4.905c-.069 1.39-.473 2.626-1.214 3.709-.74 1.082-1.737 1.937-2.99 2.563-1.242.616-2.666.923-4.273.923Zm11.177-.41v-25.464h5.041v14.321h.05l6.32-6.904h5.92l-7.06 7.827 7.43 10.22h-5.89l-5.32-7.332-1.45 1.607V803h-5.041Zm26.731.41c-1.83 0-3.41-.404-4.77-1.213-1.35-.809-2.39-1.92-3.15-3.333-.74-1.424-1.11-3.047-1.11-4.87 0-1.835.38-3.464 1.13-4.888.77-1.424 1.81-2.541 3.15-3.35 1.33-.809 2.86-1.213 4.58-1.213 1.77 0 3.32.399 4.64 1.196 1.34.786 2.37 1.886 3.12 3.299.75 1.401 1.12 3.019 1.12 4.853v1.35h-12.83c.04 1.333.44 2.398 1.18 3.196s1.77 1.196 3.09 1.196c.98 0 1.8-.21 2.45-.632.66-.422 1.1-.98 1.33-1.675h4.6a6.49 6.49 0 0 1-1.53 3.162c-.79.911-1.8 1.629-3 2.153-1.21.513-2.54.769-4 .769Zm-4.09-11.382h8.05c-.12-1.128-.54-2.016-1.26-2.666-.71-.661-1.63-.991-2.77-.991-1.13 0-2.05.33-2.75.991-.71.65-1.13 1.538-1.27 2.666Zm25.88-7.075v3.948h-3.69v8.528c0 .615.12 1.042.35 1.281.26.228.72.342 1.41.342h1.93V803h-2.94c-1.98 0-3.45-.387-4.39-1.162-.94-.775-1.41-1.983-1.41-3.623v-9.314h-3.11v-3.948h3.11v-4.922h5.05v4.922h3.69Z" />
  <rect width="330" height="683" x="156.5" y="238.5" fill="#A0ECFD" fill-opacity=".2" rx="20.5" />
  <rect width="330" height="683" x="156.5" y="238.5" stroke="#A0ECFD" rx="20.5" />
  <path fill="#fff"
    d="M256.856 297.527c-3.002 0-5.676-.681-8.02-2.043-2.343-1.377-4.189-3.325-5.537-5.845-1.333-2.534-1.999-5.53-1.999-8.987 0-3.486.666-6.489 1.999-9.008 1.348-2.535 3.194-4.483 5.537-5.845 2.344-1.377 5.018-2.066 8.02-2.066 2.564 0 4.864.498 6.9 1.495 2.051.996 3.728 2.402 5.032 4.218 1.303 1.802 2.131 3.919 2.483 6.35h-6.834c-.395-1.933-1.26-3.427-2.593-4.482-1.318-1.069-2.951-1.604-4.9-1.604-2.783 0-4.951.989-6.504 2.966-1.552 1.963-2.329 4.622-2.329 7.976 0 3.326.777 5.977 2.329 7.954 1.553 1.963 3.721 2.945 6.504 2.945 1.934 0 3.56-.528 4.878-1.582 1.333-1.055 2.212-2.542 2.637-4.461h6.812c-.352 2.432-1.18 4.549-2.483 6.35-1.304 1.802-2.981 3.201-5.032 4.197-2.036.982-4.336 1.472-6.9 1.472Zm24.522-13.425V297h-6.482v-32.739h6.482v13.03c.776-1.275 1.75-2.256 2.922-2.945 1.187-.688 2.593-1.033 4.219-1.033 2.461 0 4.431.799 5.911 2.395 1.479 1.583 2.219 3.838 2.219 6.768V297h-6.46v-13.337c0-1.553-.374-2.732-1.121-3.538-.747-.82-1.794-1.23-3.142-1.23-1.333 0-2.424.417-3.274 1.252-.849.835-1.274 2.153-1.274 3.955Zm26.982 13.294c-2.314 0-4.226-.579-5.735-1.736-1.494-1.158-2.241-2.893-2.241-5.208 0-1.743.418-3.105 1.253-4.087.835-.996 1.941-1.721 3.318-2.175 1.377-.454 2.871-.754 4.482-.901 2.124-.22 3.611-.439 4.46-.659.85-.22 1.275-.703 1.275-1.45v-.154c0-.85-.337-1.546-1.011-2.088-.674-.542-1.604-.813-2.79-.813-1.202 0-2.176.279-2.923.835-.747.557-1.157 1.282-1.23 2.176h-6.087c.147-2.388 1.128-4.285 2.945-5.691 1.816-1.421 4.314-2.132 7.492-2.132 3.179 0 5.64.711 7.383 2.132 1.743 1.406 2.615 3.347 2.615 5.823V297h-6.328v-3.274h-.088a7.06 7.06 0 0 1-2.527 2.681c-1.069.659-2.49.989-4.263.989Zm1.802-4.505c1.553 0 2.783-.41 3.692-1.23.908-.835 1.362-1.883 1.362-3.142v-2.33c-.366.206-.974.396-1.824.572-.85.161-1.794.322-2.834.483-1.114.176-2.058.498-2.835.967-.762.454-1.142 1.143-1.142 2.065 0 .821.322 1.465.966 1.934.66.454 1.531.681 2.615.681ZM326.136 297v-23.203h6.482V297h-6.482Zm3.23-26.125c-1.069 0-1.955-.323-2.658-.967-.704-.659-1.055-1.487-1.055-2.483s.351-1.817 1.055-2.461c.703-.659 1.589-.989 2.658-.989 1.055 0 1.934.33 2.637.989.703.644 1.055 1.465 1.055 2.461 0 .996-.352 1.824-1.055 2.483-.703.644-1.582.967-2.637.967Zm14.326 13.227V297h-6.482v-23.203h6.373v3.647c.791-1.318 1.779-2.336 2.966-3.054 1.186-.718 2.615-1.077 4.284-1.077 2.461 0 4.432.799 5.911 2.395 1.48 1.583 2.219 3.838 2.219 6.768V297h-6.46v-13.337c0-1.553-.373-2.732-1.12-3.538-.747-.82-1.795-1.23-3.142-1.23-1.333 0-2.425.417-3.274 1.252-.85.835-1.275 2.153-1.275 3.955ZM371.158 297l11.492-32.739h8.701L402.843 297h-7.493l-2.285-7.141h-12.239L378.453 297h-7.295Zm11.492-12.546h8.657l-1.099-3.384a587.627 587.627 0 0 1-1.538-5.098 755.18 755.18 0 0 1-1.648-5.647 364.31 364.31 0 0 1-1.669 5.647 574.487 574.487 0 0 1-1.582 5.098l-1.121 3.384Z" />
  <ellipse cx="321" cy="719" fill="#A0ECFD" fill-opacity=".75" rx="107" ry="100" />
  <path fill="#fff"
    d="M237.235 694.812V713h-3.76v-18.188h3.76Zm2.71 18.188v-18.188h7.287c1.954 0 3.459.431 4.517 1.293 1.066.855 1.599 1.982 1.599 3.382 0 1.05-.293 1.916-.879 2.6-.586.684-1.379 1.151-2.38 1.404v.024c1.107.098 2.038.525 2.795 1.282.757.757 1.136 1.782 1.136 3.076 0 1.522-.546 2.759-1.636 3.711-1.091.944-2.669 1.416-4.737 1.416h-7.702Zm3.674-2.954h3.504c.968 0 1.721-.208 2.258-.623.537-.415.806-1.001.806-1.757 0-.757-.265-1.355-.794-1.795-.529-.447-1.265-.671-2.209-.671h-3.565v4.846Zm0-7.678h3.333c.83 0 1.481-.208 1.953-.623.472-.415.708-.972.708-1.672 0-.708-.236-1.27-.708-1.685-.472-.415-1.123-.622-1.953-.622h-3.333v4.602Zm20.496 10.925c-1.669 0-3.154-.378-4.456-1.135-1.302-.765-2.327-1.848-3.076-3.247-.741-1.408-1.111-3.072-1.111-4.993 0-1.937.37-3.605 1.111-5.005.749-1.408 1.774-2.49 3.076-3.247 1.302-.765 2.787-1.147 4.456-1.147 1.424 0 2.702.276 3.833.83a7.312 7.312 0 0 1 2.795 2.343c.724 1.001 1.184 2.177 1.38 3.528h-3.797c-.22-1.074-.7-1.904-1.44-2.49-.733-.594-1.64-.891-2.722-.891-1.547 0-2.751.549-3.614 1.648-.862 1.09-1.294 2.567-1.294 4.431 0 1.847.432 3.32 1.294 4.419.863 1.09 2.067 1.636 3.614 1.636 1.074 0 1.977-.293 2.71-.879.74-.586 1.228-1.412 1.464-2.478h3.785c-.196 1.351-.656 2.527-1.38 3.528a7.354 7.354 0 0 1-2.795 2.331c-1.131.545-2.409.818-3.833.818Zm15.478-.293v-18.188h3.76v14.965h8.264V713h-12.024Zm13.831 0v-12.891h3.601V713h-3.601Zm1.794-14.514c-.594 0-1.086-.179-1.477-.537a1.813 1.813 0 0 1-.586-1.38c0-.553.196-1.009.586-1.367.391-.366.883-.549 1.477-.549.586 0 1.074.183 1.465.549.391.358.586.814.586 1.367 0 .554-.195 1.014-.586 1.38-.391.358-.879.537-1.465.537Zm10.449 19.787c-1.831 0-3.247-.382-4.248-1.147-1.001-.765-1.591-1.774-1.77-3.027h3.467c.13.488.419.862.867 1.123.448.268 1.009.403 1.684.403.879 0 1.555-.241 2.027-.721.48-.48.72-1.184.72-2.112v-1.977h-.012c-.383.757-.903 1.314-1.563 1.672-.651.35-1.399.525-2.246.525-1.123 0-2.103-.281-2.942-.842-.838-.562-1.489-1.331-1.953-2.307-.455-.985-.683-2.12-.683-3.406 0-1.294.232-2.437.695-3.43.472-.993 1.123-1.77 1.954-2.332.838-.569 1.806-.854 2.905-.854.83 0 1.57.179 2.222.537.659.35 1.196.883 1.611 1.599h.012v-1.868h3.552V712.5c0 1.359-.268 2.461-.805 3.308a4.6 4.6 0 0 1-2.21 1.867c-.944.399-2.038.598-3.284.598Zm-.146-8.142c.911 0 1.644-.337 2.197-1.013.554-.675.83-1.579.83-2.71 0-1.123-.276-2.022-.83-2.698-.553-.675-1.286-1.013-2.197-1.013-.871 0-1.571.326-2.1.977-.52.643-.781 1.554-.781 2.734 0 1.188.261 2.108.781 2.759.529.643 1.229.964 2.1.964Zm12.598-4.297V713h-3.601v-18.188h3.601v7.238c.431-.708.972-1.253 1.623-1.635.659-.383 1.441-.574 2.344-.574 1.367 0 2.462.443 3.284 1.33.822.879 1.233 2.133 1.233 3.76V713h-3.589v-7.41c0-.862-.208-1.517-.623-1.965-.415-.456-.997-.684-1.745-.684-.741 0-1.347.232-1.819.696-.472.464-.708 1.196-.708 2.197Zm18.457-5.725v2.82h-2.637v6.092c0 .439.085.744.256.915.179.163.513.244 1.001.244h1.38V713h-2.1c-1.416 0-2.462-.277-3.137-.83-.667-.553-1.001-1.416-1.001-2.588v-6.653h-2.222v-2.82h2.222v-3.515h3.601v3.515h2.637Zm15.332 13.184c-1.669 0-3.154-.378-4.456-1.135-1.302-.765-2.327-1.848-3.076-3.247-.741-1.408-1.111-3.072-1.111-4.993 0-1.937.37-3.605 1.111-5.005.749-1.408 1.774-2.49 3.076-3.247 1.302-.765 2.787-1.147 4.456-1.147 1.424 0 2.702.276 3.833.83a7.312 7.312 0 0 1 2.795 2.343c.724 1.001 1.184 2.177 1.38 3.528h-3.797c-.22-1.074-.7-1.904-1.44-2.49-.733-.594-1.64-.891-2.722-.891-1.547 0-2.751.549-3.614 1.648-.862 1.09-1.294 2.567-1.294 4.431 0 1.847.432 3.32 1.294 4.419.863 1.09 2.067 1.636 3.614 1.636 1.074 0 1.977-.293 2.71-.879.74-.586 1.228-1.412 1.464-2.478h3.785c-.196 1.351-.656 2.527-1.38 3.528a7.354 7.354 0 0 1-2.795 2.331c-1.131.545-2.409.818-3.833.818Zm13.623-18.481V713h-3.601v-18.188h3.601ZM368.082 713v-12.891h3.601V713h-3.601Zm1.794-14.514c-.594 0-1.086-.179-1.477-.537a1.813 1.813 0 0 1-.586-1.38c0-.553.196-1.009.586-1.367.391-.366.883-.549 1.477-.549.586 0 1.075.183 1.465.549.391.358.586.814.586 1.367 0 .554-.195 1.014-.586 1.38-.39.358-.879.537-1.465.537Zm10.242 14.807c-1.302 0-2.437-.289-3.406-.867a6.028 6.028 0 0 1-2.246-2.38c-.529-1.017-.793-2.177-.793-3.479 0-1.31.268-2.474.806-3.491a6.11 6.11 0 0 1 2.246-2.393c.952-.578 2.042-.867 3.271-.867 1.27 0 2.376.285 3.32.855a5.792 5.792 0 0 1 2.222 2.356c.537 1.001.806 2.156.806 3.467v.964h-9.168c.033.952.314 1.713.843 2.283.529.569 1.265.854 2.209.854.7 0 1.282-.15 1.746-.451.472-.302.789-.7.952-1.197h3.283a4.607 4.607 0 0 1-1.086 2.259c-.57.651-1.286 1.163-2.148 1.538-.863.366-1.815.549-2.857.549Zm-2.917-8.13h5.749c-.089-.806-.39-1.44-.903-1.904-.505-.472-1.164-.708-1.978-.708-.805 0-1.46.236-1.965.708-.505.464-.806 1.098-.903 1.904Zm14.673.671V713h-3.602v-12.891h3.54v2.027c.44-.733.989-1.298 1.648-1.697.66-.399 1.453-.598 2.381-.598 1.367 0 2.462.443 3.284 1.33.821.879 1.232 2.133 1.232 3.76V713h-3.588v-7.41c0-.862-.208-1.517-.623-1.965-.415-.456-.997-.684-1.746-.684-.74 0-1.346.232-1.818.696-.472.464-.708 1.196-.708 2.197Zm18.457-5.725v2.82h-2.637v6.092c0 .439.085.744.256.915.179.163.513.244 1.001.244h1.38V713h-2.1c-1.416 0-2.462-.277-3.137-.83-.668-.553-1.001-1.416-1.001-2.588v-6.653h-2.222v-2.82h2.222v-3.515h3.601v3.515h2.637Zm-124.744 43.184c-1.668 0-3.154-.378-4.456-1.135-1.302-.765-2.327-1.848-3.076-3.247-.74-1.408-1.111-3.072-1.111-4.993 0-1.937.371-3.605 1.111-5.005.749-1.408 1.774-2.49 3.076-3.247 1.302-.765 2.788-1.147 4.456-1.147 1.424 0 2.702.276 3.833.83a7.312 7.312 0 0 1 2.795 2.343c.725 1.001 1.184 2.177 1.38 3.528h-3.797c-.219-1.074-.7-1.904-1.44-2.49-.733-.594-1.64-.891-2.722-.891-1.546 0-2.751.549-3.614 1.648-.862 1.09-1.293 2.567-1.293 4.431 0 1.847.431 3.32 1.293 4.419.863 1.09 2.068 1.636 3.614 1.636 1.074 0 1.977-.293 2.71-.879.74-.586 1.229-1.412 1.465-2.478h3.784c-.196 1.351-.655 2.527-1.38 3.528a7.354 7.354 0 0 1-2.795 2.331c-1.131.545-2.409.818-3.833.818Zm13.623-7.459V743h-3.601v-18.188h3.601v7.238c.431-.708.972-1.253 1.623-1.635.66-.383 1.441-.574 2.344-.574 1.367 0 2.462.443 3.284 1.33.822.879 1.233 2.133 1.233 3.76V743h-3.589v-7.41c0-.862-.208-1.517-.623-1.965-.415-.456-.996-.684-1.745-.684-.741 0-1.347.232-1.819.696-.472.464-.708 1.196-.708 2.197Zm14.99 7.386c-1.286 0-2.348-.322-3.186-.965-.83-.643-1.245-1.607-1.245-2.893 0-.968.232-1.725.696-2.27.464-.554 1.078-.956 1.843-1.209a11.154 11.154 0 0 1 2.49-.5c1.18-.122 2.006-.244 2.478-.366.472-.122.708-.391.708-.806v-.086c0-.472-.187-.858-.561-1.159-.374-.301-.891-.452-1.55-.452-.668 0-1.209.155-1.624.464-.415.309-.643.712-.684 1.209h-3.381c.081-1.327.627-2.381 1.636-3.162 1.009-.789 2.396-1.184 4.162-1.184s3.134.395 4.102 1.184c.968.781 1.453 1.859 1.453 3.235V743h-3.516v-1.819h-.049a3.92 3.92 0 0 1-1.404 1.489c-.594.367-1.383.55-2.368.55Zm1.001-2.503c.863 0 1.546-.228 2.051-.683.505-.464.757-1.046.757-1.746v-1.294c-.204.114-.541.22-1.013.318-.472.089-.997.179-1.575.268-.619.098-1.143.277-1.575.537-.423.252-.635.635-.635 1.148 0 .455.179.813.538 1.074.366.252.85.378 1.452.378Zm8.875 2.283v-12.891h3.601V743h-3.601Zm1.794-14.514c-.594 0-1.086-.179-1.477-.537-.391-.366-.586-.826-.586-1.38 0-.553.195-1.009.586-1.367.391-.366.883-.549 1.477-.549.586 0 1.074.183 1.465.549.391.358.586.814.586 1.367 0 .554-.195 1.014-.586 1.38-.391.358-.879.537-1.465.537Zm7.959 7.348V743h-3.601v-12.891h3.54v2.027c.44-.733.989-1.298 1.648-1.697.659-.399 1.453-.598 2.38-.598 1.368 0 2.462.443 3.284 1.33.822.879 1.233 2.133 1.233 3.76V743h-3.589v-7.41c0-.862-.207-1.517-.622-1.965-.415-.456-.997-.684-1.746-.684-.741 0-1.347.232-1.819.696-.472.464-.708 1.196-.708 2.197ZM349.088 743l6.384-18.188h4.834L366.69 743h-4.162l-1.27-3.967h-6.799L353.141 743h-4.053Zm6.384-6.97h4.81l-.611-1.88a352.157 352.157 0 0 1-1.77-5.969 200.383 200.383 0 0 1-.927 3.137c-.293.96-.586 1.904-.879 2.832l-.623 1.88Z" />
  <rect width="330" height="683" x="1432.5" y="238.5" fill="#A0ECFD" fill-opacity=".2" rx="20.5" />
  <rect width="330" height="683" x="1432.5" y="238.5" stroke="#A0ECFD" rx="20.5" />
  <path fill="#fff"
    d="M1534.42 297.527c-3.01 0-5.68-.681-8.02-2.043-2.35-1.377-4.19-3.325-5.54-5.845-1.33-2.534-2-5.53-2-8.987 0-3.486.67-6.489 2-9.008 1.35-2.535 3.19-4.483 5.54-5.845 2.34-1.377 5.01-2.066 8.02-2.066 2.56 0 4.86.498 6.9 1.495a13.22 13.22 0 0 1 5.03 4.218c1.3 1.802 2.13 3.919 2.48 6.35H1542c-.4-1.933-1.26-3.427-2.6-4.482-1.31-1.069-2.95-1.604-4.9-1.604-2.78 0-4.95.989-6.5 2.966-1.55 1.963-2.33 4.622-2.33 7.976 0 3.326.78 5.977 2.33 7.954 1.55 1.963 3.72 2.945 6.5 2.945 1.94 0 3.56-.528 4.88-1.582 1.34-1.055 2.21-2.542 2.64-4.461h6.81c-.35 2.432-1.18 4.549-2.48 6.35a13.293 13.293 0 0 1-5.03 4.197c-2.04.982-4.34 1.472-6.9 1.472Zm24.52-13.425V297h-6.48v-32.739h6.48v13.03c.77-1.275 1.75-2.256 2.92-2.945 1.19-.688 2.59-1.033 4.22-1.033 2.46 0 4.43.799 5.91 2.395 1.48 1.583 2.22 3.838 2.22 6.768V297h-6.46v-13.337c0-1.553-.37-2.732-1.12-3.538-.75-.82-1.8-1.23-3.14-1.23s-2.43.417-3.28 1.252c-.85.835-1.27 2.153-1.27 3.955Zm26.98 13.294c-2.31 0-4.23-.579-5.73-1.736-1.5-1.158-2.25-2.893-2.25-5.208 0-1.743.42-3.105 1.26-4.087.83-.996 1.94-1.721 3.31-2.175 1.38-.454 2.88-.754 4.49-.901 2.12-.22 3.61-.439 4.46-.659.85-.22 1.27-.703 1.27-1.45v-.154c0-.85-.33-1.546-1.01-2.088-.67-.542-1.6-.813-2.79-.813-1.2 0-2.17.279-2.92.835-.75.557-1.16 1.282-1.23 2.176h-6.09c.15-2.388 1.13-4.285 2.95-5.691 1.81-1.421 4.31-2.132 7.49-2.132 3.18 0 5.64.711 7.38 2.132 1.74 1.406 2.62 3.347 2.62 5.823V297h-6.33v-3.274h-.09a7.099 7.099 0 0 1-2.53 2.681c-1.07.659-2.49.989-4.26.989Zm1.8-4.505c1.55 0 2.79-.41 3.69-1.23.91-.835 1.37-1.883 1.37-3.142v-2.33c-.37.206-.98.396-1.83.572-.85.161-1.79.322-2.83.483-1.12.176-2.06.498-2.84.967-.76.454-1.14 1.143-1.14 2.065 0 .821.32 1.465.97 1.934.66.454 1.53.681 2.61.681ZM1603.7 297v-23.203h6.48V297h-6.48Zm3.23-26.125c-1.07 0-1.96-.323-2.66-.967-.71-.659-1.06-1.487-1.06-2.483s.35-1.817 1.06-2.461c.7-.659 1.59-.989 2.66-.989 1.05 0 1.93.33 2.63.989.71.644 1.06 1.465 1.06 2.461 0 .996-.35 1.824-1.06 2.483-.7.644-1.58.967-2.63.967Zm14.32 13.227V297h-6.48v-23.203h6.37v3.647c.79-1.318 1.78-2.336 2.97-3.054 1.19-.718 2.61-1.077 4.28-1.077 2.46 0 4.43.799 5.91 2.395 1.48 1.583 2.22 3.838 2.22 6.768V297h-6.46v-13.337c0-1.553-.37-2.732-1.12-3.538-.74-.82-1.79-1.23-3.14-1.23-1.33 0-2.42.417-3.27 1.252-.85.835-1.28 2.153-1.28 3.955ZM1650.96 297v-32.739h13.12c3.51 0 6.22.776 8.13 2.329 1.92 1.538 2.88 3.567 2.88 6.086 0 1.89-.53 3.45-1.59 4.68-1.05 1.231-2.48 2.073-4.28 2.527v.044c1.99.176 3.67.945 5.03 2.307 1.36 1.363 2.04 3.208 2.04 5.537 0 2.74-.98 4.966-2.94 6.68-1.96 1.699-4.81 2.549-8.53 2.549h-13.86Zm6.61-5.317h6.31c1.74 0 3.1-.374 4.06-1.121.97-.747 1.45-1.802 1.45-3.164s-.47-2.439-1.42-3.23c-.96-.806-2.28-1.209-3.98-1.209h-6.42v8.724Zm0-13.821h6c1.5 0 2.67-.374 3.52-1.121.85-.747 1.27-1.75 1.27-3.01 0-1.274-.42-2.285-1.27-3.032-.85-.747-2.02-1.121-3.52-1.121h-6v8.284Z" />
  <ellipse cx="1598" cy="720" fill="#A0ECFD" fill-opacity=".75" rx="107" ry="100" />
  <path fill="#fff"
    d="M1514.23 695.812V714h-3.75v-18.188h3.75Zm2.71 18.188v-18.188h7.29c1.96 0 3.46.431 4.52 1.293 1.07.855 1.6 1.982 1.6 3.382 0 1.05-.29 1.916-.88 2.6-.59.684-1.38 1.151-2.38 1.404v.024c1.11.098 2.04.525 2.79 1.282.76.757 1.14 1.782 1.14 3.076 0 1.522-.55 2.759-1.64 3.711-1.09.944-2.67 1.416-4.73 1.416h-7.71Zm3.68-2.954h3.5c.97 0 1.72-.208 2.26-.623.54-.415.81-1.001.81-1.757 0-.757-.27-1.355-.8-1.795-.53-.447-1.26-.671-2.21-.671h-3.56v4.846Zm0-7.678h3.33c.83 0 1.48-.208 1.95-.623.48-.415.71-.972.71-1.672 0-.708-.23-1.27-.71-1.685-.47-.415-1.12-.622-1.95-.622h-3.33v4.602Zm20.49 10.925c-1.66 0-3.15-.378-4.45-1.135-1.3-.765-2.33-1.848-3.08-3.247-.74-1.408-1.11-3.072-1.11-4.993 0-1.937.37-3.605 1.11-5.005.75-1.408 1.78-2.49 3.08-3.247 1.3-.765 2.79-1.147 4.45-1.147 1.43 0 2.71.276 3.84.83a7.26 7.26 0 0 1 2.79 2.343c.73 1.001 1.19 2.177 1.38 3.528h-3.79c-.22-1.074-.7-1.904-1.44-2.49-.74-.594-1.64-.891-2.73-.891-1.54 0-2.75.549-3.61 1.648-.86 1.09-1.29 2.567-1.29 4.431 0 1.847.43 3.32 1.29 4.419.86 1.09 2.07 1.636 3.61 1.636 1.08 0 1.98-.293 2.71-.879.74-.586 1.23-1.412 1.47-2.478h3.78c-.19 1.351-.65 2.527-1.38 3.528a7.301 7.301 0 0 1-2.79 2.331c-1.13.545-2.41.818-3.84.818Zm15.48-.293v-18.188h3.76v14.965h8.27V714h-12.03Zm13.83 0v-12.891h3.6V714h-3.6Zm1.8-14.514c-.6 0-1.09-.179-1.48-.537-.39-.366-.58-.826-.58-1.38 0-.553.19-1.009.58-1.367.39-.366.88-.549 1.48-.549.58 0 1.07.183 1.46.549.39.358.59.814.59 1.367 0 .554-.2 1.014-.59 1.38-.39.358-.88.537-1.46.537Zm10.45 19.787c-1.83 0-3.25-.382-4.25-1.147s-1.59-1.774-1.77-3.027h3.47c.13.488.42.862.86 1.123.45.268 1.01.403 1.69.403.88 0 1.55-.241 2.02-.721.48-.48.72-1.184.72-2.112v-1.977h-.01c-.38.757-.9 1.314-1.56 1.672-.65.35-1.4.525-2.25.525-1.12 0-2.1-.281-2.94-.842-.84-.562-1.49-1.331-1.95-2.307-.46-.985-.69-2.12-.69-3.406 0-1.294.24-2.437.7-3.43.47-.993 1.12-1.77 1.95-2.332.84-.569 1.81-.854 2.91-.854.83 0 1.57.179 2.22.537.66.35 1.2.883 1.61 1.599h.01v-1.868h3.56V713.5c0 1.359-.27 2.461-.81 3.308a4.578 4.578 0 0 1-2.21 1.867c-.94.399-2.04.598-3.28.598Zm-.15-8.142c.91 0 1.64-.337 2.2-1.013.55-.675.83-1.579.83-2.71 0-1.123-.28-2.022-.83-2.698-.56-.675-1.29-1.013-2.2-1.013-.87 0-1.57.326-2.1.977-.52.643-.78 1.554-.78 2.734 0 1.188.26 2.108.78 2.759.53.643 1.23.964 2.1.964Zm12.6-4.297V714h-3.6v-18.188h3.6v7.238c.43-.708.97-1.253 1.62-1.635.66-.383 1.44-.574 2.35-.574 1.36 0 2.46.443 3.28 1.33.82.879 1.23 2.133 1.23 3.76V714h-3.59v-7.41c0-.862-.2-1.517-.62-1.965-.41-.456-1-.684-1.74-.684-.75 0-1.35.232-1.82.696-.48.464-.71 1.196-.71 2.197Zm18.46-5.725v2.82h-2.64v6.092c0 .439.08.744.26.915.17.163.51.244 1 .244h1.38V714h-2.1c-1.42 0-2.47-.277-3.14-.83-.67-.553-1-1.416-1-2.588v-6.653h-2.22v-2.82h2.22v-3.515h3.6v3.515h2.64Zm15.33 13.184c-1.67 0-3.16-.378-4.46-1.135-1.3-.765-2.33-1.848-3.07-3.247-.74-1.408-1.11-3.072-1.11-4.993 0-1.937.37-3.605 1.11-5.005.74-1.408 1.77-2.49 3.07-3.247 1.3-.765 2.79-1.147 4.46-1.147 1.42 0 2.7.276 3.83.83a7.365 7.365 0 0 1 2.8 2.343c.72 1.001 1.18 2.177 1.38 3.528h-3.8c-.22-1.074-.7-1.904-1.44-2.49-.73-.594-1.64-.891-2.72-.891-1.55 0-2.75.549-3.62 1.648-.86 1.09-1.29 2.567-1.29 4.431 0 1.847.43 3.32 1.29 4.419.87 1.09 2.07 1.636 3.62 1.636 1.07 0 1.97-.293 2.71-.879.74-.586 1.23-1.412 1.46-2.478h3.79c-.2 1.351-.66 2.527-1.38 3.528a7.407 7.407 0 0 1-2.8 2.331c-1.13.545-2.41.818-3.83.818Zm13.62-18.481V714h-3.6v-18.188h3.6Zm2.55 18.188v-12.891h3.6V714h-3.6Zm1.8-14.514c-.6 0-1.09-.179-1.48-.537a1.817 1.817 0 0 1-.59-1.38c0-.553.2-1.009.59-1.367.39-.366.88-.549 1.48-.549.58 0 1.07.183 1.46.549.39.358.59.814.59 1.367 0 .554-.2 1.014-.59 1.38-.39.358-.88.537-1.46.537Zm10.24 14.807c-1.3 0-2.44-.289-3.41-.867a5.965 5.965 0 0 1-2.24-2.38c-.53-1.017-.8-2.177-.8-3.479 0-1.31.27-2.474.81-3.491a6.08 6.08 0 0 1 2.24-2.393c.96-.578 2.05-.867 3.28-.867 1.27 0 2.37.285 3.32.855a5.814 5.814 0 0 1 2.22 2.356c.54 1.001.8 2.156.8 3.467v.964h-9.16c.03.952.31 1.713.84 2.283.53.569 1.26.854 2.21.854.7 0 1.28-.15 1.74-.451.48-.302.79-.7.96-1.197h3.28a4.665 4.665 0 0 1-1.09 2.259c-.57.651-1.28 1.163-2.15 1.538-.86.366-1.81.549-2.85.549Zm-2.92-8.13h5.75c-.09-.806-.39-1.44-.9-1.904-.51-.472-1.17-.708-1.98-.708s-1.46.236-1.97.708c-.5.464-.8 1.098-.9 1.904Zm14.67.671V714h-3.6v-12.891h3.54v2.027c.44-.733.99-1.298 1.65-1.697.66-.399 1.45-.598 2.38-.598 1.37 0 2.46.443 3.28 1.33.83.879 1.24 2.133 1.24 3.76V714h-3.59v-7.41c0-.862-.21-1.517-.62-1.965-.42-.456-1-.684-1.75-.684-.74 0-1.35.232-1.82.696-.47.464-.71 1.196-.71 2.197Zm18.46-5.725v2.82h-2.64v6.092c0 .439.09.744.26.915.18.163.51.244 1 .244h1.38V714h-2.1c-1.42 0-2.46-.277-3.14-.83-.66-.553-1-1.416-1-2.588v-6.653h-2.22v-2.82h2.22v-3.515h3.6v3.515h2.64Zm-123.88 43.184c-1.66 0-3.15-.378-4.45-1.135-1.3-.765-2.33-1.848-3.08-3.247-.74-1.408-1.11-3.072-1.11-4.993 0-1.937.37-3.605 1.11-5.005.75-1.408 1.78-2.49 3.08-3.247 1.3-.765 2.79-1.147 4.45-1.147 1.43 0 2.71.276 3.84.83a7.26 7.26 0 0 1 2.79 2.343c.73 1.001 1.19 2.177 1.38 3.528h-3.79c-.22-1.074-.7-1.904-1.45-2.49-.73-.594-1.64-.891-2.72-.891-1.54 0-2.75.549-3.61 1.648-.86 1.09-1.29 2.567-1.29 4.431 0 1.847.43 3.32 1.29 4.419.86 1.09 2.07 1.636 3.61 1.636 1.08 0 1.98-.293 2.71-.879.74-.586 1.23-1.412 1.47-2.478h3.78c-.19 1.351-.65 2.527-1.38 3.528a7.301 7.301 0 0 1-2.79 2.331c-1.13.545-2.41.818-3.84.818Zm13.63-7.459V744h-3.6v-18.188h3.6v7.238c.43-.708.97-1.253 1.62-1.635.66-.383 1.44-.574 2.34-.574 1.37 0 2.47.443 3.29 1.33.82.879 1.23 2.133 1.23 3.76V744h-3.59v-7.41c0-.862-.21-1.517-.62-1.965-.42-.456-1-.684-1.75-.684-.74 0-1.34.232-1.82.696-.47.464-.7 1.196-.7 2.197Zm14.99 7.386c-1.29 0-2.35-.322-3.19-.965-.83-.643-1.24-1.607-1.24-2.893 0-.968.23-1.725.69-2.27.47-.554 1.08-.956 1.84-1.209.77-.252 1.6-.419 2.5-.5 1.18-.122 2-.244 2.47-.366.48-.122.71-.391.71-.806v-.086c0-.472-.19-.858-.56-1.159-.37-.301-.89-.452-1.55-.452-.67 0-1.21.155-1.62.464-.42.309-.65.712-.69 1.209h-3.38c.08-1.327.63-2.381 1.64-3.162 1.01-.789 2.39-1.184 4.16-1.184s3.13.395 4.1 1.184c.97.781 1.45 1.859 1.45 3.235V744h-3.51v-1.819h-.05a3.925 3.925 0 0 1-1.4 1.489c-.6.367-1.39.55-2.37.55Zm1-2.503c.86 0 1.54-.228 2.05-.683.5-.464.76-1.046.76-1.746v-1.294c-.21.114-.55.22-1.02.318-.47.089-.99.179-1.57.268-.62.098-1.15.277-1.58.537-.42.252-.63.635-.63 1.148 0 .455.18.813.54 1.074.36.252.85.378 1.45.378Zm8.87 2.283v-12.891h3.6V744h-3.6Zm1.8-14.514c-.6 0-1.09-.179-1.48-.537a1.817 1.817 0 0 1-.59-1.38c0-.553.2-1.009.59-1.367.39-.366.88-.549 1.48-.549.58 0 1.07.183 1.46.549.39.358.59.814.59 1.367 0 .554-.2 1.014-.59 1.38-.39.358-.88.537-1.46.537Zm7.96 7.348V744h-3.61v-12.891h3.54v2.027c.44-.733.99-1.298 1.65-1.697.66-.399 1.46-.598 2.38-.598 1.37 0 2.46.443 3.29 1.33.82.879 1.23 2.133 1.23 3.76V744h-3.59v-7.41c0-.862-.21-1.517-.62-1.965-.42-.456-1-.684-1.75-.684-.74 0-1.34.232-1.82.696-.47.464-.7 1.196-.7 2.197Zm16.5 7.166v-18.188h7.29c1.95 0 3.46.431 4.51 1.293 1.07.855 1.6 1.982 1.6 3.382 0 1.05-.29 1.916-.88 2.6-.58.684-1.38 1.151-2.38 1.404v.024c1.11.098 2.04.525 2.8 1.282.76.757 1.13 1.782 1.13 3.076 0 1.522-.54 2.759-1.63 3.711-1.09.944-2.67 1.416-4.74 1.416h-7.7Zm3.67-2.954h3.51c.97 0 1.72-.208 2.26-.623.53-.415.8-1.001.8-1.757 0-.757-.26-1.355-.79-1.795-.53-.447-1.27-.671-2.21-.671h-3.57v4.846Zm0-7.678h3.34c.83 0 1.48-.208 1.95-.623.47-.415.71-.972.71-1.672 0-.708-.24-1.27-.71-1.685-.47-.415-1.12-.622-1.95-.622h-3.34v4.602Z" />
  <path fill="#A0ECFD"
    d="M834.488 717.461a3.498 3.498 0 0 0-.027-4.949l-22.395-22.152a3.501 3.501 0 0 0-4.923 4.977l19.907 19.69-19.69 19.907a3.501 3.501 0 0 0 4.977 4.923l22.151-22.396ZM467.019 720.5l5.07-.028-.039-7-5.069.028.038 7Zm15.209-.083 10.138-.056-.038-7-10.139.056.039 7Zm20.277-.111 10.139-.056-.038-7-10.139.056.038 7Zm20.278-.112 10.139-.055-.038-7-10.139.055.038 7Zm20.278-.111 10.139-.055-.039-7-10.139.055.039 7Zm20.278-.111 10.139-.055-.039-7-10.139.055.039 7Zm20.277-.111 10.139-.055-.038-7-10.139.055.038 7Zm20.278-.111 10.139-.056-.038-7-10.139.056.038 7Zm20.278-.111 10.139-.056-.039-7-10.138.056.038 7Zm20.278-.111 10.139-.056-.039-7-10.139.056.039 7Zm20.277-.111 10.139-.056-.038-7-10.139.056.038 7Zm20.278-.111 10.139-.056-.038-7-10.139.056.038 7Zm20.278-.112 10.139-.055-.038-7-10.139.055.038 7Zm20.278-.111 10.139-.055-.039-7-10.139.055.039 7Zm20.278-.111 10.138-.055-.038-7-10.139.055.039 7Zm20.277-.111 10.139-.055-.038-7-10.139.055.038 7Zm20.278-.111 10.139-.056-.038-7-10.139.056.038 7Zm20.278-.111 10.139-.056-.039-7-10.138.056.038 7Zm20.278-.111 5.069-.028-.038-7-5.07.028.039 7Zm7.538-1.067a3.498 3.498 0 0 0-.027-4.949l-22.395-22.152a3.501 3.501 0 0 0-4.923 4.977l19.907 19.69-19.69 19.907a3.501 3.501 0 0 0 4.977 4.923l22.151-22.396ZM467.019 720.5l5.07-.028-.039-7-5.069.028.038 7Zm15.209-.083 10.138-.056-.038-7-10.139.056.039 7Zm20.277-.111 10.139-.056-.038-7-10.139.056.038 7Zm20.278-.112 10.139-.055-.038-7-10.139.055.038 7Zm20.278-.111 10.139-.055-.039-7-10.139.055.039 7Zm20.278-.111 10.139-.055-.039-7-10.139.055.039 7Zm20.277-.111 10.139-.055-.038-7-10.139.055.038 7Zm20.278-.111 10.139-.056-.038-7-10.139.056.038 7Zm20.278-.111 10.139-.056-.039-7-10.138.056.038 7Zm20.278-.111 10.139-.056-.039-7-10.139.056.039 7Zm20.277-.111 10.139-.056-.038-7-10.139.056.038 7Zm20.278-.111 10.139-.056-.038-7-10.139.056.038 7Zm20.278-.112 10.139-.055-.038-7-10.139.055.038 7Zm20.278-.111 10.139-.055-.039-7-10.139.055.039 7Zm20.278-.111 10.138-.055-.038-7-10.139.055.039 7Zm20.277-.111 10.139-.055-.038-7-10.139.055.038 7Zm20.278-.111 10.139-.056-.038-7-10.139.056.038 7Zm20.278-.111 10.139-.056-.039-7-10.138.056.038 7Zm20.278-.111 5.069-.028-.038-7-5.07.028.039 7ZM1458.49 715.461a3.493 3.493 0 0 0-.03-4.949l-22.39-22.152a3.504 3.504 0 0 0-4.93 4.977l19.91 19.69-19.69 19.907a3.495 3.495 0 0 0 .03 4.95 3.501 3.501 0 0 0 4.95-.027l22.15-22.396Zm-367.47 3.039 5.07-.028-.04-7-5.07.028.04 7Zm15.21-.083 10.14-.056-.04-7-10.14.056.04 7Zm20.28-.111 10.13-.056-.03-7-10.14.056.04 7Zm20.27-.112 10.14-.055-.04-7-10.14.055.04 7Zm20.28-.111 10.14-.055-.04-7-10.14.055.04 7Zm20.28-.111 10.14-.055-.04-7-10.14.055.04 7Zm20.28-.111 10.14-.055-.04-7-10.14.055.04 7Zm20.27-.111 10.14-.056-.04-7-10.13.056.03 7Zm20.28-.111 10.14-.056-.04-7-10.14.056.04 7Zm20.28-.111 10.14-.056-.04-7-10.14.056.04 7Zm20.28-.111 10.14-.056-.04-7-10.14.056.04 7Zm20.28-.111 10.13-.056-.03-7-10.14.056.04 7Zm20.27-.112 10.14-.055-.04-7-10.14.055.04 7Zm20.28-.111 10.14-.055-.04-7-10.14.055.04 7Zm20.28-.111 10.14-.055-.04-7-10.14.055.04 7Zm20.28-.111 10.14-.055-.04-7-10.14.055.04 7Zm20.27-.111 10.14-.056-.04-7-10.13.056.03 7Zm20.28-.111 10.14-.056-.04-7-10.14.056.04 7Zm20.28-.111 5.07-.028-.04-7-5.07.028.04 7Zm7.54-1.067a3.493 3.493 0 0 0-.03-4.949l-22.39-22.152a3.504 3.504 0 0 0-4.93 4.977l19.91 19.69-19.69 19.907a3.495 3.495 0 0 0 .03 4.95 3.501 3.501 0 0 0 4.95-.027l22.15-22.396Zm-367.47 3.039 5.07-.028-.04-7-5.07.028.04 7Zm15.21-.083 10.14-.056-.04-7-10.14.056.04 7Zm20.28-.111 10.13-.056-.03-7-10.14.056.04 7Zm20.27-.112 10.14-.055-.04-7-10.14.055.04 7Zm20.28-.111 10.14-.055-.04-7-10.14.055.04 7Zm20.28-.111 10.14-.055-.04-7-10.14.055.04 7Zm20.28-.111 10.14-.055-.04-7-10.14.055.04 7Zm20.27-.111 10.14-.056-.04-7-10.13.056.03 7Zm20.28-.111 10.14-.056-.04-7-10.14.056.04 7Zm20.28-.111 10.14-.056-.04-7-10.14.056.04 7Zm20.28-.111 10.14-.056-.04-7-10.14.056.04 7Zm20.28-.111 10.13-.056-.03-7-10.14.056.04 7Zm20.27-.112 10.14-.055-.04-7-10.14.055.04 7Zm20.28-.111 10.14-.055-.04-7-10.14.055.04 7Zm20.28-.111 10.14-.055-.04-7-10.14.055.04 7Zm20.28-.111 10.14-.055-.04-7-10.14.055.04 7Zm20.27-.111 10.14-.056-.04-7-10.13.056.03 7Zm20.28-.111 10.14-.056-.04-7-10.14.056.04 7Zm20.28-.111 5.07-.028-.04-7-5.07.028.04 7Z" />
  <path fill="#fff"
    d="M1012.35 749.145H911.503c-7.058 0-12.8-4.441-12.8-9.9v-53.599c0-5.459 5.742-9.9 12.8-9.9h100.847c7.06 0 12.8 4.441 12.8 9.9v53.599c0 5.46-5.74 9.9-12.8 9.9Zm-100.847-66.879c-2.41 0-4.37 1.517-4.37 3.38v53.599c0 1.864 1.96 3.38 4.37 3.38h100.847c2.41 0 4.37-1.517 4.37-3.38v-53.599c0-1.864-1.96-3.38-4.37-3.38H911.503Z" />
  <path fill="#fff"
    d="M961.929 723.775c-7.598 0-14.891-2.49-20.01-6.833l-39.712-33.702 6.231-4.392 39.713 33.701c3.575 3.034 8.469 4.706 13.778 4.706 5.31 0 10.203-1.671 13.781-4.706l39.71-33.701 6.23 4.392-39.712 33.701c-5.117 4.344-12.41 6.834-20.009 6.834Z" />
  <path fill="#fff"
    d="m941.061 711.605-38.627 30.028 5.976 4.598 38.627-30.028-5.976-4.598ZM982.801 711.605l-5.977 4.598 38.626 30.032 5.98-4.598-38.629-30.032Z" />
  <path fill="#fff" fill-rule="evenodd"
    d="M889.023 1002.98c0 12.15-10.073 22-22.5 22-12.426 0-22.5-9.85-22.5-22h11.25c0 6.08 5.037 11 11.25 11 6.214 0 11.25-4.92 11.25-11h11.25ZM855.25 986H844v11h11.25v-11Zm33.75 0h-11.25v11H889v-11ZM894.738 997h11.25v-11h-11.25v11Zm-33.75 0h11.25v-11h-11.25v11ZM860.988 980c0-12.15 10.074-22 22.5-22 12.427 0 22.5 9.85 22.5 22h-11.25c0-6.075-5.037-11-11.25-11s-11.25 4.925-11.25 11h-11.25Z"
    clip-rule="evenodd" />
  <path fill="#fff"
    d="M948.043 971.335h8.576v26.661c0 2.994-.706 5.614-2.119 7.854-1.399 2.25-3.36 4-5.882 5.26-2.522 1.24-5.46 1.86-8.814 1.86-3.367 0-6.312-.62-8.834-1.86-2.522-1.26-4.483-3.01-5.882-5.26-1.4-2.24-2.1-4.86-2.1-7.854v-26.661h8.576v25.919c0 1.564.337 2.956 1.011 4.166a7.354 7.354 0 0 0 2.891 2.87c1.241.7 2.687 1.04 4.338 1.04 1.664 0 3.109-.34 4.338-1.04a7.23 7.23 0 0 0 2.872-2.87c.686-1.21 1.029-2.602 1.029-4.166v-25.919Zm24.238 23.253v17.802h-8.437v-30.791h8.041v5.432h.357c.673-1.791 1.802-3.207 3.387-4.249 1.584-1.056 3.505-1.584 5.763-1.584 2.113 0 3.955.468 5.526 1.403 1.572.936 2.793 2.272 3.664 4.009.872 1.724 1.308 3.782 1.308 6.174v19.606h-8.438v-18.082c.013-1.885-.462-3.355-1.426-4.41-.964-1.069-2.291-1.604-3.981-1.604-1.136 0-2.139.247-3.011.742-.858.494-1.531 1.216-2.02 2.165-.475.935-.72 2.064-.733 3.387Zm26.259 17.802v-30.791h8.44v30.791h-8.44Zm4.24-34.76c-1.26 0-2.33-.421-3.23-1.263-.885-.856-1.327-1.878-1.327-3.067 0-1.176.442-2.185 1.327-3.027.9-.855 1.97-1.283 3.23-1.283 1.25 0 2.32.428 3.21 1.283.89.842 1.34 1.851 1.34 3.027 0 1.189-.45 2.211-1.34 3.067-.89.842-1.96 1.263-3.21 1.263Zm24.7 35.36c-3.07 0-5.74-.66-7.98-1.98-2.23-1.34-3.96-3.2-5.17-5.58-1.21-2.39-1.82-5.16-1.82-8.316 0-3.181.61-5.96 1.82-8.339 1.21-2.392 2.94-4.25 5.17-5.573 2.24-1.336 4.91-2.004 7.98-2.004 3.08 0 5.73.668 7.96 2.004 2.25 1.323 3.98 3.181 5.19 5.573 1.22 2.379 1.83 5.158 1.83 8.339 0 3.156-.61 5.926-1.83 8.316-1.21 2.38-2.94 4.24-5.19 5.58-2.23 1.32-4.88 1.98-7.96 1.98Zm.04-6.61c1.4 0 2.57-.41 3.51-1.21.93-.81 1.64-1.92 2.12-3.33.48-1.4.73-2.995.73-4.786 0-1.791-.25-3.388-.73-4.791-.48-1.403-1.19-2.513-2.12-3.327-.94-.816-2.11-1.223-3.51-1.223-1.41 0-2.6.407-3.56 1.223-.95.814-1.67 1.924-2.16 3.327-.48 1.403-.72 3-.72 4.791 0 1.791.24 3.386.72 4.786.49 1.41 1.21 2.52 2.16 3.33.96.8 2.15 1.21 3.56 1.21Zm28.86-11.792v17.802h-8.44v-30.791h8.04v5.432h.36c.67-1.791 1.8-3.207 3.39-4.249 1.58-1.056 3.5-1.584 5.76-1.584 2.11 0 3.96.468 5.53 1.403 1.57.936 2.79 2.272 3.66 4.009.87 1.724 1.31 3.782 1.31 6.174v19.606h-8.44v-18.082c.01-1.885-.46-3.355-1.43-4.41-.96-1.069-2.29-1.604-3.98-1.604-1.13 0-2.13.247-3.01.742-.86.494-1.53 1.216-2.02 2.165-.47.935-.72 2.064-.73 3.387ZM648.279 153V87.522h25.84c4.893 0 9.126.878 12.7 2.636 3.604 1.729 6.372 4.204 8.306 7.427 1.963 3.223 2.944 7.031 2.944 11.426 0 4.394-.996 8.203-2.988 11.426-1.963 3.193-4.746 5.668-8.35 7.426-3.603 1.758-7.866 2.637-12.788 2.637h-12.129V153h-13.535Zm13.535-33.838h11.426c3.574 0 6.402-.908 8.482-2.724 2.08-1.846 3.12-4.322 3.12-7.427 0-3.135-1.04-5.611-3.12-7.427-2.08-1.816-4.908-2.725-8.482-2.725h-11.426v20.303Zm55.196 34.629c-4.629 0-8.452-1.157-11.47-3.472-2.988-2.314-4.482-5.786-4.482-10.415 0-3.486.835-6.211 2.504-8.174 1.67-1.992 3.882-3.442 6.636-4.35 2.754-.908 5.742-1.509 8.965-1.802 4.248-.439 7.222-.879 8.921-1.318 1.699-.44 2.549-1.406 2.549-2.901v-.307c0-1.699-.674-3.091-2.022-4.175-1.347-1.084-3.208-1.626-5.581-1.626-2.402 0-4.35.557-5.844 1.67-1.495 1.113-2.315 2.563-2.461 4.35h-12.173c.293-4.775 2.256-8.569 5.888-11.381 3.633-2.842 8.628-4.263 14.986-4.263 6.357 0 11.279 1.421 14.765 4.263 3.487 2.812 5.23 6.694 5.23 11.645V153h-12.656v-6.548h-.176c-1.231 2.256-2.915 4.043-5.054 5.361-2.139 1.319-4.98 1.978-8.525 1.978Zm3.603-9.009c3.106 0 5.567-.82 7.383-2.461 1.816-1.67 2.725-3.764 2.725-6.284v-4.658c-.733.41-1.949.791-3.648 1.142-1.699.323-3.589.645-5.669.967-2.226.352-4.116.996-5.669 1.934-1.523.908-2.285 2.285-2.285 4.131 0 1.64.645 2.929 1.934 3.867 1.318.908 3.061 1.362 5.229 1.362Zm53.218 9.273c-4.658 0-8.73-1.011-12.217-3.033-3.486-2.05-6.211-4.892-8.174-8.525-1.933-3.662-2.9-7.881-2.9-12.656 0-4.805.967-9.024 2.9-12.656 1.963-3.663 4.688-6.519 8.174-8.57 3.487-2.051 7.559-3.076 12.217-3.076 4.072 0 7.69.791 10.855 2.373 3.193 1.553 5.742 3.721 7.646 6.504 1.934 2.754 3.032 5.933 3.296 9.536h-12.524c-.352-2.373-1.319-4.292-2.901-5.757-1.553-1.465-3.618-2.197-6.196-2.197-3.252 0-5.801 1.245-7.647 3.735-1.845 2.491-2.768 5.86-2.768 10.108 0 4.219.923 7.573 2.768 10.063 1.846 2.461 4.395 3.692 7.647 3.692 2.607 0 4.658-.733 6.152-2.198 1.494-1.464 2.446-3.413 2.857-5.844h12.612c-.176 3.574-1.216 6.753-3.12 9.536-1.904 2.783-4.468 4.98-7.691 6.592-3.193 1.582-6.855 2.373-10.986 2.373Zm28.74-1.055V87.522h12.964v36.826h.132l16.26-17.754h15.205l-18.15 20.127L848.099 153h-15.161l-13.667-18.853-3.736 4.131V153h-12.964Zm68.731 1.055c-4.688 0-8.775-1.04-12.261-3.12-3.457-2.081-6.152-4.937-8.086-8.57-1.904-3.662-2.856-7.837-2.856-12.524 0-4.717.966-8.906 2.9-12.569 1.963-3.662 4.658-6.533 8.086-8.613 3.428-2.08 7.353-3.12 11.777-3.12 4.571 0 8.555 1.025 11.953 3.076 3.428 2.022 6.094 4.849 7.998 8.482 1.934 3.603 2.901 7.763 2.901 12.48v3.472h-33.003c.117 3.428 1.128 6.167 3.032 8.218 1.904 2.05 4.556 3.076 7.954 3.076 2.52 0 4.615-.542 6.284-1.626 1.7-1.084 2.842-2.52 3.428-4.307h11.821c-.556 3.076-1.86 5.786-3.911 8.13-2.05 2.344-4.629 4.189-7.734 5.537-3.106 1.319-6.533 1.978-10.283 1.978Zm-10.503-29.268h20.698c-.322-2.9-1.406-5.185-3.252-6.855-1.816-1.7-4.189-2.549-7.119-2.549-2.9 0-5.259.849-7.075 2.549-1.817 1.67-2.901 3.955-3.252 6.855Zm66.533-18.193v10.151h-9.492v21.929c0 1.582.307 2.68.923 3.296.644.586 1.845.879 3.603.879h4.966V153h-7.559c-5.097 0-8.862-.996-11.294-2.988-2.402-1.992-3.603-5.098-3.603-9.317v-23.95h-7.998v-10.151h7.998V93.938h12.964v12.656h9.492ZM953.523 153V87.522h25.84c4.893 0 9.126.878 12.7 2.636 3.604 1.729 6.373 4.204 8.307 7.427 1.96 3.223 2.94 7.031 2.94 11.426 0 4.394-.99 8.203-2.98 11.426-1.968 3.193-4.751 5.668-8.354 7.426-3.604 1.758-7.867 2.637-12.788 2.637h-12.129V153h-13.536Zm13.536-33.838h11.425c3.575 0 6.402-.908 8.482-2.724 2.08-1.846 3.12-4.322 3.12-7.427 0-3.135-1.04-5.611-3.12-7.427-2.08-1.816-4.907-2.725-8.482-2.725h-11.425v20.303Zm55.191 34.629c-4.63 0-8.45-1.157-11.47-3.472-2.98-2.314-4.48-5.786-4.48-10.415 0-3.486.84-6.211 2.51-8.174 1.67-1.992 3.88-3.442 6.63-4.35 2.76-.908 5.74-1.509 8.97-1.802 4.25-.439 7.22-.879 8.92-1.318 1.7-.44 2.55-1.406 2.55-2.901v-.307c0-1.699-.68-3.091-2.02-4.175-1.35-1.084-3.21-1.626-5.59-1.626-2.4 0-4.35.557-5.84 1.67-1.49 1.113-2.31 2.563-2.46 4.35h-12.17c.29-4.775 2.25-8.569 5.88-11.381 3.64-2.842 8.63-4.263 14.99-4.263 6.36 0 11.28 1.421 14.77 4.263 3.48 2.812 5.23 6.694 5.23 11.645V153h-12.66v-6.548h-.18c-1.23 2.256-2.91 4.043-5.05 5.361-2.14 1.319-4.98 1.978-8.53 1.978Zm3.61-9.009c3.1 0 5.56-.82 7.38-2.461 1.82-1.67 2.72-3.764 2.72-6.284v-4.658c-.73.41-1.94.791-3.64 1.142-1.7.323-3.59.645-5.67.967-2.23.352-4.12.996-5.67 1.934-1.52.908-2.29 2.285-2.29 4.131 0 1.64.65 2.929 1.94 3.867 1.32.908 3.06 1.362 5.23 1.362Zm51.24 9.361c-6.04 0-11.03-1.377-14.99-4.131-3.92-2.754-6.09-6.621-6.5-11.602h12.74c.24 2.022 1.09 3.604 2.55 4.746 1.47 1.143 3.46 1.714 5.98 1.714 2.4 0 4.29-.454 5.67-1.362 1.37-.908 2.06-2.08 2.06-3.516 0-1.23-.54-2.212-1.62-2.944-1.06-.762-2.52-1.333-4.4-1.714l-8.13-1.582c-9.2-1.758-13.8-6.27-13.8-13.535 0-4.395 1.78-7.925 5.32-10.591 3.55-2.666 8.34-3.999 14.37-3.999 6.01 0 10.84 1.406 14.5 4.219 3.66 2.812 5.55 6.635 5.67 11.469h-12c-.02-1.845-.77-3.383-2.24-4.614-1.43-1.26-3.29-1.889-5.58-1.889-2.22 0-3.97.483-5.23 1.45-1.26.937-1.89 2.094-1.89 3.471 0 1.202.49 2.183 1.45 2.945 1 .761 2.39 1.333 4.18 1.714l8.79 1.713c4.68.909 8.13 2.403 10.32 4.483 2.23 2.051 3.34 4.79 3.34 8.218 0 3.076-.87 5.771-2.63 8.086-1.73 2.285-4.15 4.072-7.25 5.361-3.08 1.26-6.64 1.89-10.68 1.89Zm46.84 0c-6.03 0-11.03-1.377-14.98-4.131-3.93-2.754-6.1-6.621-6.51-11.602h12.75c.23 2.022 1.08 3.604 2.55 4.746 1.46 1.143 3.45 1.714 5.97 1.714 2.41 0 4.3-.454 5.67-1.362 1.38-.908 2.07-2.08 2.07-3.516 0-1.23-.54-2.212-1.63-2.944-1.05-.762-2.52-1.333-4.39-1.714l-8.13-1.582c-9.2-1.758-13.8-6.27-13.8-13.535 0-4.395 1.77-7.925 5.32-10.591 3.54-2.666 8.33-3.999 14.37-3.999 6 0 10.84 1.406 14.5 4.219 3.66 2.812 5.55 6.635 5.67 11.469h-12c-.03-1.845-.78-3.383-2.24-4.614-1.44-1.26-3.3-1.889-5.58-1.889-2.23 0-3.97.483-5.23 1.45-1.26.937-1.89 2.094-1.89 3.471 0 1.202.48 2.183 1.45 2.945 1 .761 2.39 1.333 4.17 1.714l8.79 1.713c4.69.909 8.13 2.403 10.33 4.483 2.23 2.051 3.34 4.79 3.34 8.218 0 3.076-.88 5.771-2.64 8.086-1.73 2.285-4.14 4.072-7.25 5.361-3.07 1.26-6.63 1.89-10.68 1.89ZM1151.5 153v-46.406h12.96V153h-12.96Zm6.46-52.251c-2.14 0-3.91-.645-5.32-1.934-1.41-1.318-2.11-2.973-2.11-4.965 0-1.993.7-3.633 2.11-4.922 1.41-1.319 3.18-1.978 5.32-1.978 2.11 0 3.86.66 5.27 1.978 1.41 1.289 2.11 2.93 2.11 4.922 0 1.992-.7 3.647-2.11 4.965-1.41 1.289-3.16 1.934-5.27 1.934Zm28.65 26.455V153h-12.96v-46.406h12.74v7.295c1.58-2.637 3.56-4.673 5.93-6.109 2.38-1.435 5.23-2.153 8.57-2.153 4.92 0 8.86 1.597 11.82 4.79 2.96 3.164 4.44 7.676 4.44 13.535V153h-12.92v-26.675c0-3.105-.75-5.464-2.24-7.075-1.49-1.641-3.59-2.461-6.28-2.461-2.67 0-4.85.835-6.55 2.505-1.7 1.67-2.55 4.307-2.55 7.91Zm61.7 44.78c-6.59 0-11.69-1.377-15.29-4.13-3.61-2.754-5.73-6.387-6.38-10.899h12.48c.47 1.758 1.51 3.106 3.12 4.043 1.62.967 3.64 1.45 6.07 1.45 3.16 0 5.59-.864 7.29-2.593 1.73-1.728 2.6-4.262 2.6-7.602v-7.119h-.05c-1.37 2.724-3.25 4.731-5.62 6.02-2.35 1.26-5.04 1.89-8.09 1.89-4.04 0-7.57-1.011-10.59-3.032-3.02-2.022-5.36-4.79-7.03-8.306-1.64-3.545-2.46-7.632-2.46-12.261 0-4.658.83-8.774 2.5-12.348 1.7-3.575 4.05-6.372 7.03-8.394 3.02-2.051 6.51-3.076 10.46-3.076 2.99 0 5.66.644 8 1.934 2.37 1.259 4.31 3.178 5.8 5.756h.05v-6.723h12.78v44.604c0 4.893-.96 8.863-2.9 11.909-1.9 3.077-4.55 5.318-7.95 6.724-3.4 1.436-7.34 2.153-11.82 2.153Zm-.53-29.311c3.28 0 5.92-1.216 7.91-3.648 1.99-2.431 2.99-5.683 2.99-9.755 0-4.043-1-7.281-2.99-9.712-1.99-2.432-4.63-3.648-7.91-3.648-3.13 0-5.65 1.172-7.56 3.516-1.87 2.314-2.81 5.595-2.81 9.844 0 4.277.94 7.587 2.81 9.931 1.91 2.315 4.43 3.472 7.56 3.472ZM696.853 631.293c-1.669 0-3.154-.378-4.456-1.135-1.302-.765-2.328-1.848-3.076-3.247-.741-1.408-1.111-3.072-1.111-4.993 0-1.937.37-3.605 1.111-5.005.748-1.408 1.774-2.49 3.076-3.247 1.302-.765 2.787-1.147 4.456-1.147 1.424 0 2.701.276 3.833.83a7.312 7.312 0 0 1 2.795 2.343c.724 1.001 1.184 2.177 1.379 3.528h-3.796c-.22-1.074-.7-1.904-1.44-2.49-.733-.594-1.64-.891-2.723-.891-1.546 0-2.75.549-3.613 1.648-.863 1.09-1.294 2.567-1.294 4.431 0 1.847.431 3.32 1.294 4.419.863 1.09 2.067 1.636 3.613 1.636 1.075 0 1.978-.293 2.71-.879.741-.586 1.229-1.412 1.465-2.478h3.784c-.195 1.351-.655 2.527-1.379 3.528a7.354 7.354 0 0 1-2.795 2.331c-1.132.545-2.409.818-3.833.818Zm13.623-7.459V631h-3.601v-18.188h3.601v7.238c.431-.708.972-1.253 1.623-1.635.659-.383 1.441-.574 2.344-.574 1.367 0 2.462.443 3.284 1.33.822.879 1.232 2.133 1.232 3.76V631h-3.588v-7.41c0-.862-.208-1.517-.623-1.965-.415-.456-.997-.684-1.746-.684-.74 0-1.346.232-1.818.696-.472.464-.708 1.196-.708 2.197Zm14.99 7.386c-1.286 0-2.348-.322-3.186-.965-.83-.643-1.245-1.607-1.245-2.893 0-.968.232-1.725.695-2.27.464-.554 1.079-.956 1.844-1.209a11.154 11.154 0 0 1 2.49-.5c1.18-.122 2.006-.244 2.478-.366.472-.122.708-.391.708-.806v-.086a1.42 1.42 0 0 0-.562-1.159c-.374-.301-.891-.452-1.55-.452-.667 0-1.208.155-1.623.464-.415.309-.643.712-.684 1.209h-3.381c.081-1.327.626-2.381 1.635-3.162 1.01-.789 2.397-1.184 4.163-1.184 1.766 0 3.133.395 4.102 1.184.968.781 1.452 1.859 1.452 3.235V631h-3.515v-1.819h-.049a3.92 3.92 0 0 1-1.404 1.489c-.594.367-1.383.55-2.368.55Zm1.001-2.503c.862 0 1.546-.228 2.051-.683.504-.464.756-1.046.756-1.746v-1.294c-.203.114-.541.22-1.013.318-.472.089-.997.179-1.574.268-.619.098-1.144.277-1.575.537-.423.252-.635.635-.635 1.148 0 .455.179.813.537 1.074.366.252.851.378 1.453.378Zm12.475-4.883V631h-3.601v-12.891h3.54v2.027c.44-.733.989-1.298 1.648-1.697.659-.399 1.453-.598 2.381-.598 1.367 0 2.461.443 3.283 1.33.822.879 1.233 2.133 1.233 3.76V631h-3.589v-7.41c0-.862-.207-1.517-.622-1.965-.415-.456-.997-.684-1.746-.684-.74 0-1.347.232-1.819.696-.472.464-.708 1.196-.708 2.197Zm14.649 0V631h-3.601v-12.891h3.54v2.027c.439-.733.989-1.298 1.648-1.697.659-.399 1.452-.598 2.38-.598 1.367 0 2.462.443 3.284 1.33.822.879 1.233 2.133 1.233 3.76V631h-3.589v-7.41c0-.862-.208-1.517-.623-1.965-.415-.456-.997-.684-1.745-.684-.741 0-1.347.232-1.819.696-.472.464-.708 1.196-.708 2.197Zm16.931 7.459c-1.302 0-2.437-.289-3.406-.867a6.028 6.028 0 0 1-2.246-2.38c-.529-1.017-.793-2.177-.793-3.479 0-1.31.268-2.474.805-3.491a6.124 6.124 0 0 1 2.246-2.393c.953-.578 2.043-.867 3.272-.867 1.269 0 2.376.285 3.32.855a5.799 5.799 0 0 1 2.222 2.356c.537 1.001.806 2.156.806 3.467v.964h-9.168c.033.952.313 1.713.842 2.283.529.569 1.266.854 2.21.854.7 0 1.282-.15 1.745-.451.472-.302.79-.7.953-1.197h3.283a4.607 4.607 0 0 1-1.086 2.259c-.57.651-1.286 1.163-2.149 1.538-.862.366-1.814.549-2.856.549Zm-2.918-8.13h5.75c-.09-.806-.391-1.44-.903-1.904-.505-.472-1.164-.708-1.978-.708-.806 0-1.461.236-1.965.708-.505.464-.806 1.098-.904 1.904Zm14.673-10.351V631h-3.601v-18.188h3.601Z" />
  <defs>
    <pattern id="a" width="1" height="1" patternContentUnits="objectBoundingBox">
      <use xlink:href="#b" transform="scale(.00052 .00093)" />
    </pattern>
  </defs>
</svg>
