<svg xmlns="http://www.w3.org/2000/svg" xmlns:xlink="http://www.w3.org/1999/xlink" fill="none" viewBox="0 0 1920 1080">
  <path fill="url(#a)" d="M0 0h1920v1080H0z" />
  <path fill="#A0ECFD"
    d="m620 517-15-8.66v17.32l15-8.66Zm-213 1.5h4.841v-3H407v3Zm14.523 0h9.682v-3h-9.682v3Zm19.363 0h9.682v-3h-9.682v3Zm19.364 0h9.682v-3h-9.682v3Zm19.364 0h9.681v-3h-9.681v3Zm19.363 0h9.682v-3h-9.682v3Zm19.364 0h9.682v-3h-9.682v3Zm19.364 0h9.681v-3h-9.681v3Zm19.363 0h9.682v-3h-9.682v3Zm19.364 0h9.682v-3h-9.682v3Zm19.363 0h9.682v-3h-9.682v3ZM620 517l-15-8.66v17.32l15-8.66Zm-213 1.5h4.841v-3H407v3Zm14.523 0h9.682v-3h-9.682v3Zm19.363 0h9.682v-3h-9.682v3Zm19.364 0h9.682v-3h-9.682v3Zm19.364 0h9.681v-3h-9.681v3Zm19.363 0h9.682v-3h-9.682v3Zm19.364 0h9.682v-3h-9.682v3Zm19.364 0h9.681v-3h-9.681v3Zm19.363 0h9.682v-3h-9.682v3Zm19.364 0h9.682v-3h-9.682v3Zm19.363 0h9.682v-3h-9.682v3ZM1063 414l-15-8.66v17.32l15-8.66Zm-213 1.5h4.841v-3H850v3Zm14.523 0h9.682v-3h-9.682v3Zm19.363 0h9.682v-3h-9.682v3Zm19.364 0h9.682v-3h-9.682v3Zm19.364 0h9.681v-3h-9.681v3Zm19.363 0h9.682v-3h-9.682v3Zm19.364 0h9.682v-3h-9.682v3Zm19.364 0h9.681v-3h-9.681v3Zm19.365 0h9.68v-3h-9.68v3Zm19.36 0h9.68v-3h-9.68v3Zm19.37 0h9.68v-3h-9.68v3Zm24.2-1.5-15-8.66v17.32l15-8.66Zm-213 1.5h4.841v-3H850v3Zm14.523 0h9.682v-3h-9.682v3Zm19.363 0h9.682v-3h-9.682v3Zm19.364 0h9.682v-3h-9.682v3Zm19.364 0h9.681v-3h-9.681v3Zm19.363 0h9.682v-3h-9.682v3Zm19.364 0h9.682v-3h-9.682v3Zm19.364 0h9.681v-3h-9.681v3Zm19.365 0h9.68v-3h-9.68v3Zm19.36 0h9.68v-3h-9.68v3Zm19.37 0h9.68v-3h-9.68v3ZM850 619l15 8.66v-17.32L850 619Zm14.523 1.5h9.682v-3h-9.682v3Zm19.363 0h9.682v-3h-9.682v3Zm19.364 0h9.682v-3h-9.682v3Zm19.364 0h9.681v-3h-9.681v3Zm19.363 0h9.682v-3h-9.682v3Zm19.364 0h9.682v-3h-9.682v3Zm19.364 0h9.681v-3h-9.681v3Zm19.365 0h9.68v-3h-9.68v3Zm19.36 0h9.68v-3h-9.68v3Zm19.37 0h9.68v-3h-9.68v3Zm19.36 0h4.84v-3h-4.84v3ZM850 619l15 8.66v-17.32L850 619Zm14.523 1.5h9.682v-3h-9.682v3Zm19.363 0h9.682v-3h-9.682v3Zm19.364 0h9.682v-3h-9.682v3Zm19.364 0h9.681v-3h-9.681v3Zm19.363 0h9.682v-3h-9.682v3Zm19.364 0h9.682v-3h-9.682v3Zm19.364 0h9.681v-3h-9.681v3Zm19.365 0h9.68v-3h-9.68v3Zm19.36 0h9.68v-3h-9.68v3Zm19.37 0h9.68v-3h-9.68v3Zm19.36 0h4.84v-3h-4.84v3ZM1506 805l-14.95-8.738-.09 17.32L1506 805Zm-771.008-2.5 4.943.026.015-3-4.942-.026-.016 3Zm14.827.077 9.885.051.015-3-9.884-.051-.016 3Zm19.769.102 9.885.052.016-3-9.885-.051-.016 2.999Zm19.77.103 9.884.051.016-3-9.885-.051-.015 3Zm19.769.103 9.884.051.016-3-9.885-.051-.015 3Zm19.769.102 9.885.051.015-3-9.884-.051-.016 3Zm19.769.103 9.885.051.015-3-9.884-.051-.016 3Zm19.77.102 9.884.052.016-3-9.885-.052-.015 3Zm19.769.103 9.884.051.016-3-9.885-.051-.015 3Zm19.769.102 9.885.052.015-3-9.884-.052-.016 3Zm19.769.103 9.885.051.015-3-9.884-.051-.016 3Zm19.769.103 9.885.051.016-3-9.885-.051-.016 3Zm19.77.102 9.884.051.016-3-9.885-.051-.015 3Zm19.769.103 9.885.051.015-3-9.884-.051-.016 3Zm19.77.102 9.88.052.02-3-9.89-.052-.01 3Zm19.77.103 9.88.051.02-3-9.89-.051-.01 3Zm19.77.102 9.88.052.02-3-9.89-.052-.01 3Zm19.77.103 9.88.051.02-3-9.89-.051-.01 3Zm19.77.102 9.88.052.02-3-9.89-.051-.01 2.999Zm19.77.103 9.88.051.02-3-9.89-.051-.01 3Zm19.76.103 9.89.051.01-3-9.88-.051-.02 3Zm19.77.102 9.89.051.01-2.999-9.88-.052-.02 3Zm19.77.103 9.89.051.01-3-9.88-.051-.02 3Zm19.77.102 9.89.052.01-3-9.88-.052-.02 3Zm19.77.103 9.89.051.01-3-9.88-.051-.02 3Zm19.77.102 9.89.052.01-3-9.88-.052-.02 3Zm19.77.103 9.88.051.02-3-9.88-.051-.02 3Zm19.77.103 9.88.051.02-3-9.89-.051-.01 3Zm19.77.102 9.88.051.02-3-9.89-.051-.01 3Zm19.77.103 9.88.051.02-3-9.89-.051-.01 3Zm19.77.102 9.88.052.02-3-9.89-.052-.01 3Zm19.77.103 9.88.051.02-3-9.89-.051-.01 3Zm19.77.102 9.88.052.02-3-9.89-.052-.01 3Zm19.76.103 9.89.051.01-3-9.88-.051-.02 3Zm19.77.103 9.89.051.01-3-9.88-.051-.02 3Zm19.77.102 9.89.051.01-3-9.88-.051-.02 3Zm19.77.103 9.89.051.01-3-9.88-.051-.02 3Zm19.77.102 9.89.051.01-2.999-9.88-.052-.02 3Zm19.77.103 9.89.051.01-3-9.88-.051-.02 3ZM1506 805l-14.95-8.738-.09 17.32L1506 805Zm-771.008-2.5 4.943.026.015-3-4.942-.026-.016 3Zm14.827.077 9.885.051.015-3-9.884-.051-.016 3Zm19.769.102 9.885.052.016-3-9.885-.051-.016 2.999Zm19.77.103 9.884.051.016-3-9.885-.051-.015 3Zm19.769.103 9.884.051.016-3-9.885-.051-.015 3Zm19.769.102 9.885.051.015-3-9.884-.051-.016 3Zm19.769.103 9.885.051.015-3-9.884-.051-.016 3Zm19.77.102 9.884.052.016-3-9.885-.052-.015 3Zm19.769.103 9.884.051.016-3-9.885-.051-.015 3Zm19.769.102 9.885.052.015-3-9.884-.052-.016 3Zm19.769.103 9.885.051.015-3-9.884-.051-.016 3Zm19.769.103 9.885.051.016-3-9.885-.051-.016 3Zm19.77.102 9.884.051.016-3-9.885-.051-.015 3Zm19.769.103 9.885.051.015-3-9.884-.051-.016 3Zm19.77.102 9.88.052.02-3-9.89-.052-.01 3Zm19.77.103 9.88.051.02-3-9.89-.051-.01 3Zm19.77.102 9.88.052.02-3-9.89-.052-.01 3Zm19.77.103 9.88.051.02-3-9.89-.051-.01 3Zm19.77.102 9.88.052.02-3-9.89-.051-.01 2.999Zm19.77.103 9.88.051.02-3-9.89-.051-.01 3Zm19.76.103 9.89.051.01-3-9.88-.051-.02 3Zm19.77.102 9.89.051.01-2.999-9.88-.052-.02 3Zm19.77.103 9.89.051.01-3-9.88-.051-.02 3Zm19.77.102 9.89.052.01-3-9.88-.052-.02 3Zm19.77.103 9.89.051.01-3-9.88-.051-.02 3Zm19.77.102 9.89.052.01-3-9.88-.052-.02 3Zm19.77.103 9.88.051.02-3-9.88-.051-.02 3Zm19.77.103 9.88.051.02-3-9.89-.051-.01 3Zm19.77.102 9.88.051.02-3-9.89-.051-.01 3Zm19.77.103 9.88.051.02-3-9.89-.051-.01 3Zm19.77.102 9.88.052.02-3-9.89-.052-.01 3Zm19.77.103 9.88.051.02-3-9.89-.051-.01 3Zm19.77.102 9.88.052.02-3-9.89-.052-.01 3Zm19.76.103 9.89.051.01-3-9.88-.051-.02 3Zm19.77.103 9.89.051.01-3-9.88-.051-.02 3Zm19.77.102 9.89.051.01-3-9.88-.051-.02 3Zm19.77.103 9.89.051.01-3-9.88-.051-.02 3Zm19.77.102 9.89.051.01-2.999-9.88-.052-.02 3Zm19.77.103 9.89.051.01-3-9.88-.051-.02 3Z" />
  <path stroke="#A0ECFD" stroke-dasharray="10 10" stroke-width="3" d="M735 719v82" />
  <path fill="#fff" fill-rule="evenodd"
    d="M889.023 1002.98c0 12.15-10.073 22-22.5 22-12.426 0-22.5-9.85-22.5-22h11.25c0 6.08 5.037 11 11.25 11 6.214 0 11.25-4.92 11.25-11h11.25ZM855.25 986H844v11h11.25v-11Zm33.75 0h-11.25v11H889v-11ZM894.738 997h11.25v-11h-11.25v11Zm-33.75 0h11.25v-11h-11.25v11ZM860.988 980c0-12.15 10.074-22 22.5-22 12.427 0 22.5 9.85 22.5 22h-11.25c0-6.075-5.037-11-11.25-11s-11.25 4.925-11.25 11h-11.25Z"
    clip-rule="evenodd" />
  <path fill="#fff"
    d="M948.043 971.335h8.576v26.661c0 2.994-.706 5.614-2.119 7.854-1.399 2.25-3.36 4-5.882 5.26-2.522 1.24-5.46 1.86-8.814 1.86-3.367 0-6.312-.62-8.834-1.86-2.522-1.26-4.483-3.01-5.882-5.26-1.4-2.24-2.1-4.86-2.1-7.854v-26.661h8.576v25.919c0 1.564.337 2.956 1.011 4.166a7.354 7.354 0 0 0 2.891 2.87c1.241.7 2.687 1.04 4.338 1.04 1.664 0 3.109-.34 4.338-1.04a7.23 7.23 0 0 0 2.872-2.87c.686-1.21 1.029-2.602 1.029-4.166v-25.919Zm24.238 23.253v17.802h-8.437v-30.791h8.041v5.432h.357c.673-1.791 1.802-3.207 3.387-4.249 1.584-1.056 3.505-1.584 5.763-1.584 2.113 0 3.955.468 5.526 1.403 1.572.936 2.793 2.272 3.664 4.009.872 1.724 1.308 3.782 1.308 6.174v19.606h-8.438v-18.082c.013-1.885-.462-3.355-1.426-4.41-.964-1.069-2.291-1.604-3.981-1.604-1.136 0-2.139.247-3.011.742-.858.494-1.531 1.216-2.02 2.165-.475.935-.72 2.064-.733 3.387Zm26.259 17.802v-30.791h8.44v30.791h-8.44Zm4.24-34.76c-1.26 0-2.33-.421-3.23-1.263-.885-.856-1.327-1.878-1.327-3.067 0-1.176.442-2.185 1.327-3.027.9-.855 1.97-1.283 3.23-1.283 1.25 0 2.32.428 3.21 1.283.89.842 1.34 1.851 1.34 3.027 0 1.189-.45 2.211-1.34 3.067-.89.842-1.96 1.263-3.21 1.263Zm24.7 35.36c-3.07 0-5.74-.66-7.98-1.98-2.23-1.34-3.96-3.2-5.17-5.58-1.21-2.39-1.82-5.16-1.82-8.316 0-3.181.61-5.96 1.82-8.339 1.21-2.392 2.94-4.25 5.17-5.573 2.24-1.336 4.91-2.004 7.98-2.004 3.08 0 5.73.668 7.96 2.004 2.25 1.323 3.98 3.181 5.19 5.573 1.22 2.379 1.83 5.158 1.83 8.339 0 3.156-.61 5.926-1.83 8.316-1.21 2.38-2.94 4.24-5.19 5.58-2.23 1.32-4.88 1.98-7.96 1.98Zm.04-6.61c1.4 0 2.57-.41 3.51-1.21.93-.81 1.64-1.92 2.12-3.33.48-1.4.73-2.995.73-4.786 0-1.791-.25-3.388-.73-4.791-.48-1.403-1.19-2.513-2.12-3.327-.94-.816-2.11-1.223-3.51-1.223-1.41 0-2.6.407-3.56 1.223-.95.814-1.67 1.924-2.16 3.327-.48 1.403-.72 3-.72 4.791 0 1.791.24 3.386.72 4.786.49 1.41 1.21 2.52 2.16 3.33.96.8 2.15 1.21 3.56 1.21Zm28.86-11.792v17.802h-8.44v-30.791h8.04v5.432h.36c.67-1.791 1.8-3.207 3.39-4.249 1.58-1.056 3.5-1.584 5.76-1.584 2.11 0 3.96.468 5.53 1.403 1.57.936 2.79 2.272 3.66 4.009.87 1.724 1.31 3.782 1.31 6.174v19.606h-8.44v-18.082c.01-1.885-.46-3.355-1.43-4.41-.96-1.069-2.29-1.604-3.98-1.604-1.13 0-2.13.247-3.01.742-.86.494-1.53 1.216-2.02 2.165-.47.935-.72 2.064-.73 3.387ZM565.854 153l-22.983-65.478h14.722l10.591 31.86a572.227 572.227 0 0 1 3.076 10.019c1.054 3.516 2.168 7.281 3.34 11.294 1.142-4.013 2.212-7.778 3.208-11.294a591.047 591.047 0 0 1 2.988-10.019l10.239-31.86h14.546L583.081 153h-17.227Zm58.799 1.055c-4.687 0-8.774-1.04-12.26-3.12-3.457-2.081-6.153-4.937-8.086-8.57-1.905-3.662-2.857-7.837-2.857-12.524 0-4.717.967-8.906 2.901-12.569 1.962-3.662 4.658-6.533 8.086-8.613 3.427-2.08 7.353-3.12 11.777-3.12 4.57 0 8.555 1.025 11.953 3.076 3.428 2.022 6.094 4.849 7.998 8.482 1.934 3.603 2.9 7.763 2.9 12.48v3.472h-33.003c.118 3.428 1.128 6.167 3.033 8.218 1.904 2.05 4.555 3.076 7.954 3.076 2.519 0 4.614-.542 6.284-1.626 1.699-1.084 2.842-2.52 3.428-4.307h11.821c-.557 3.076-1.86 5.786-3.911 8.13-2.051 2.344-4.629 4.189-7.734 5.537-3.106 1.319-6.534 1.978-10.284 1.978Zm-10.503-29.268h20.699c-.323-2.9-1.407-5.185-3.252-6.855-1.817-1.7-4.19-2.549-7.119-2.549-2.901 0-5.259.849-7.076 2.549-1.816 1.67-2.9 3.955-3.252 6.855ZM654.009 153v-46.406h12.48v7.91h.132c.85-2.783 2.183-4.849 3.999-6.196 1.817-1.348 4.263-2.022 7.339-2.022.762 0 1.45.015 2.065.044.645.029 1.231.044 1.758.044v11.03c-.469-.029-1.245-.073-2.329-.132a60.855 60.855 0 0 0-3.252-.087c-2.666 0-4.878.908-6.636 2.724-1.728 1.817-2.592 4.468-2.592 7.954V153h-12.964Zm34.101 0v-46.406h12.964V153H688.11Zm6.46-52.251c-2.138 0-3.911-.645-5.317-1.934-1.406-1.318-2.109-2.973-2.109-4.965 0-1.993.703-3.633 2.109-4.922 1.406-1.319 3.179-1.978 5.317-1.978 2.11 0 3.868.66 5.274 1.978 1.406 1.289 2.109 2.93 2.109 4.922 0 1.992-.703 3.647-2.109 4.965-1.406 1.289-3.164 1.934-5.274 1.934Zm42.715 5.845v10.151h-9.492V153h-12.92v-36.255h-8.394v-10.151h8.394v-6.021c0-8.7 5.024-13.051 15.073-13.051h7.339v10.15h-4.394c-1.875 0-3.194.396-3.955 1.187-.762.762-1.143 2.066-1.143 3.912v3.823h9.492ZM743.657 153v-46.406h12.964V153h-12.964Zm6.46-52.251c-2.138 0-3.911-.645-5.317-1.934-1.406-1.318-2.11-2.973-2.11-4.965 0-1.993.704-3.633 2.11-4.922 1.406-1.319 3.179-1.978 5.317-1.978 2.11 0 3.867.66 5.274 1.978 1.406 1.289 2.109 2.93 2.109 4.922 0 1.992-.703 3.647-2.109 4.965-1.407 1.289-3.164 1.934-5.274 1.934Zm36.958 53.306c-4.658 0-8.73-1.011-12.217-3.033-3.486-2.05-6.211-4.892-8.173-8.525-1.934-3.662-2.901-7.881-2.901-12.656 0-4.805.967-9.024 2.901-12.656 1.962-3.663 4.687-6.519 8.173-8.57 3.487-2.051 7.559-3.076 12.217-3.076 4.072 0 7.691.791 10.855 2.373 3.193 1.553 5.742 3.721 7.646 6.504 1.934 2.754 3.032 5.933 3.296 9.536h-12.524c-.352-2.373-1.319-4.292-2.901-5.757-1.552-1.465-3.618-2.197-6.196-2.197-3.252 0-5.801 1.245-7.647 3.735-1.845 2.491-2.768 5.86-2.768 10.108 0 4.219.923 7.573 2.768 10.063 1.846 2.461 4.395 3.692 7.647 3.692 2.607 0 4.658-.733 6.152-2.198 1.494-1.464 2.447-3.413 2.857-5.844h12.612c-.176 3.574-1.216 6.753-3.12 9.536-1.904 2.783-4.468 4.98-7.69 6.592-3.194 1.582-6.856 2.373-10.987 2.373Zm43.638-.264c-4.629 0-8.452-1.157-11.47-3.472-2.988-2.314-4.482-5.786-4.482-10.415 0-3.486.835-6.211 2.505-8.174 1.67-1.992 3.881-3.442 6.635-4.35 2.754-.908 5.743-1.509 8.965-1.802 4.248-.439 7.222-.879 8.921-1.318 1.699-.44 2.549-1.406 2.549-2.901v-.307c0-1.699-.674-3.091-2.022-4.175-1.347-1.084-3.208-1.626-5.581-1.626-2.402 0-4.35.557-5.844 1.67-1.494 1.113-2.315 2.563-2.461 4.35h-12.173c.293-4.775 2.256-8.569 5.889-11.381 3.632-2.842 8.627-4.263 14.985-4.263 6.357 0 11.279 1.421 14.766 4.263 3.486 2.812 5.229 6.694 5.229 11.645V153h-12.656v-6.548h-.176c-1.23 2.256-2.915 4.043-5.054 5.361-2.138 1.319-4.98 1.978-8.525 1.978Zm3.603-9.009c3.106 0 5.567-.82 7.383-2.461 1.817-1.67 2.725-3.764 2.725-6.284v-4.658c-.733.41-1.948.791-3.648 1.142a168.64 168.64 0 0 1-5.669.967c-2.226.352-4.116.996-5.669 1.934-1.523.908-2.285 2.285-2.285 4.131 0 1.64.645 2.929 1.934 3.867 1.318.908 3.061 1.362 5.229 1.362Zm58.623-38.188v10.151h-9.492v21.929c0 1.582.308 2.68.923 3.296.645.586 1.846.879 3.604.879h4.965V153h-7.558c-5.098 0-8.862-.996-11.294-2.988-2.402-1.992-3.604-5.098-3.604-9.317v-23.95h-7.998v-10.151h7.998V93.938h12.964v12.656h9.492ZM899.487 153v-46.406h12.964V153h-12.964Zm6.46-52.251c-2.138 0-3.911-.645-5.317-1.934-1.406-1.318-2.109-2.973-2.109-4.965 0-1.993.703-3.633 2.109-4.922 1.406-1.319 3.179-1.978 5.317-1.978 2.11 0 3.867.66 5.274 1.978 1.406 1.289 2.109 2.93 2.109 4.922 0 1.992-.703 3.647-2.109 4.965-1.407 1.289-3.164 1.934-5.274 1.934Zm37.222 53.306c-4.688 0-8.804-1.011-12.349-3.033-3.515-2.021-6.269-4.834-8.261-8.437-1.963-3.633-2.945-7.881-2.945-12.744 0-4.863.982-9.112 2.945-12.744 1.992-3.633 4.746-6.46 8.261-8.482 3.545-2.051 7.661-3.076 12.349-3.076 4.717 0 8.833 1.025 12.349 3.076 3.544 2.022 6.298 4.849 8.261 8.482 1.992 3.632 2.989 7.881 2.989 12.744 0 4.834-.997 9.067-2.989 12.7-1.963 3.633-4.717 6.46-8.261 8.481-3.516 2.022-7.632 3.033-12.349 3.033Zm0-10.503c3.164 0 5.713-1.201 7.646-3.604 1.934-2.431 2.901-5.801 2.901-10.107 0-4.336-.967-7.72-2.901-10.152-1.933-2.431-4.482-3.647-7.646-3.647-3.135 0-5.669 1.216-7.603 3.647-1.933 2.432-2.9 5.816-2.9 10.152 0 4.306.967 7.676 2.9 10.107 1.934 2.403 4.468 3.604 7.603 3.604Zm43.726-16.348V153h-12.964v-46.406h12.744v7.295c1.582-2.637 3.559-4.673 5.932-6.109 2.373-1.435 5.23-2.153 8.573-2.153 4.92 0 8.86 1.597 11.82 4.79 2.96 3.164 4.44 7.676 4.44 13.535V153h-12.92v-26.675c0-3.105-.75-5.464-2.24-7.075-1.5-1.641-3.593-2.461-6.289-2.461-2.666 0-4.848.835-6.548 2.505-1.699 1.67-2.548 4.307-2.548 7.91ZM1046.31 153V87.522h25.84c4.89 0 9.12.878 12.7 2.636 3.6 1.729 6.37 4.204 8.3 7.427 1.97 3.223 2.95 7.031 2.95 11.426 0 4.394-1 8.203-2.99 11.426-1.96 3.193-4.75 5.668-8.35 7.426-3.6 1.758-7.87 2.637-12.79 2.637h-12.13V153h-13.53Zm13.53-33.838h11.43c3.57 0 6.4-.908 8.48-2.724 2.08-1.846 3.12-4.322 3.12-7.427 0-3.135-1.04-5.611-3.12-7.427-2.08-1.816-4.91-2.725-8.48-2.725h-11.43v20.303ZM1102.43 153v-46.406h12.48v7.91h.13c.85-2.783 2.18-4.849 4-6.196 1.81-1.348 4.26-2.022 7.34-2.022.76 0 1.45.015 2.06.044.65.029 1.23.044 1.76.044v11.03c-.47-.029-1.24-.073-2.33-.132a60.78 60.78 0 0 0-3.25-.087c-2.67 0-4.88.908-6.64 2.724-1.73 1.817-2.59 4.468-2.59 7.954V153h-12.96Zm54.66 1.055c-4.68 0-8.8-1.011-12.34-3.033-3.52-2.021-6.27-4.834-8.27-8.437-1.96-3.633-2.94-7.881-2.94-12.744 0-4.863.98-9.112 2.94-12.744 2-3.633 4.75-6.46 8.27-8.482 3.54-2.051 7.66-3.076 12.34-3.076 4.72 0 8.84 1.025 12.35 3.076 3.55 2.022 6.3 4.849 8.27 8.482 1.99 3.632 2.98 7.881 2.98 12.744 0 4.834-.99 9.067-2.98 12.7-1.97 3.633-4.72 6.46-8.27 8.481-3.51 2.022-7.63 3.033-12.35 3.033Zm0-10.503c3.17 0 5.72-1.201 7.65-3.604 1.93-2.431 2.9-5.801 2.9-10.107 0-4.336-.97-7.72-2.9-10.152-1.93-2.431-4.48-3.647-7.65-3.647-3.13 0-5.66 1.216-7.6 3.647-1.93 2.432-2.9 5.816-2.9 10.152 0 4.306.97 7.676 2.9 10.107 1.94 2.403 4.47 3.604 7.6 3.604Zm52.04 10.503c-4.66 0-8.73-1.011-12.22-3.033-3.49-2.05-6.21-4.892-8.17-8.525-1.94-3.662-2.91-7.881-2.91-12.656 0-4.805.97-9.024 2.91-12.656 1.96-3.663 4.68-6.519 8.17-8.57s7.56-3.076 12.22-3.076c4.07 0 7.69.791 10.85 2.373 3.19 1.553 5.74 3.721 7.65 6.504 1.93 2.754 3.03 5.933 3.29 9.536h-12.52c-.35-2.373-1.32-4.292-2.9-5.757-1.55-1.465-3.62-2.197-6.2-2.197-3.25 0-5.8 1.245-7.64 3.735-1.85 2.491-2.77 5.86-2.77 10.108 0 4.219.92 7.573 2.77 10.063 1.84 2.461 4.39 3.692 7.64 3.692 2.61 0 4.66-.733 6.15-2.198 1.5-1.464 2.45-3.413 2.86-5.844h12.61c-.17 3.574-1.21 6.753-3.12 9.536-1.9 2.783-4.47 4.98-7.69 6.592-3.19 1.582-6.85 2.373-10.98 2.373Zm49.92 0c-4.69 0-8.78-1.04-12.26-3.12-3.46-2.081-6.16-4.937-8.09-8.57-1.9-3.662-2.86-7.837-2.86-12.524 0-4.717.97-8.906 2.91-12.569 1.96-3.662 4.65-6.533 8.08-8.613 3.43-2.08 7.35-3.12 11.78-3.12 4.57 0 8.55 1.025 11.95 3.076 3.43 2.022 6.1 4.849 8 8.482 1.93 3.603 2.9 7.763 2.9 12.48v3.472h-33c.11 3.428 1.12 6.167 3.03 8.218 1.9 2.05 4.55 3.076 7.95 3.076 2.52 0 4.62-.542 6.29-1.626 1.7-1.084 2.84-2.52 3.43-4.307h11.82c-.56 3.076-1.86 5.786-3.91 8.13-2.06 2.344-4.63 4.189-7.74 5.537-3.1 1.319-6.53 1.978-10.28 1.978Zm-10.51-29.268h20.7c-.32-2.9-1.4-5.185-3.25-6.855-1.82-1.7-4.19-2.549-7.12-2.549-2.9 0-5.26.849-7.07 2.549-1.82 1.67-2.9 3.955-3.26 6.855Zm59.16 29.356c-6.04 0-11.03-1.377-14.99-4.131-3.93-2.754-6.09-6.621-6.5-11.602h12.74c.23 2.022 1.08 3.604 2.55 4.746 1.46 1.143 3.46 1.714 5.98 1.714 2.4 0 4.29-.454 5.66-1.362 1.38-.908 2.07-2.08 2.07-3.516 0-1.23-.54-2.212-1.63-2.944-1.05-.762-2.52-1.333-4.39-1.714l-8.13-1.582c-9.2-1.758-13.8-6.27-13.8-13.535 0-4.395 1.77-7.925 5.32-10.591 3.54-2.666 8.33-3.999 14.37-3.999 6 0 10.84 1.406 14.5 4.219 3.66 2.812 5.55 6.635 5.67 11.469h-12c-.03-1.845-.77-3.383-2.24-4.614-1.43-1.26-3.3-1.889-5.58-1.889-2.23 0-3.97.483-5.23 1.45-1.26.937-1.89 2.094-1.89 3.471 0 1.202.48 2.183 1.45 2.945 1 .761 2.39 1.333 4.18 1.714l8.78 1.713c4.69.909 8.13 2.403 10.33 4.483 2.23 2.051 3.34 4.79 3.34 8.218 0 3.076-.88 5.771-2.64 8.086-1.72 2.285-4.14 4.072-7.25 5.361-3.07 1.26-6.63 1.89-10.67 1.89Zm46.84 0c-6.03 0-11.03-1.377-14.98-4.131-3.93-2.754-6.1-6.621-6.51-11.602h12.75c.23 2.022 1.08 3.604 2.54 4.746 1.47 1.143 3.46 1.714 5.98 1.714 2.4 0 4.29-.454 5.67-1.362 1.38-.908 2.07-2.08 2.07-3.516 0-1.23-.55-2.212-1.63-2.944-1.05-.762-2.52-1.333-4.39-1.714l-8.13-1.582c-9.2-1.758-13.8-6.27-13.8-13.535 0-4.395 1.77-7.925 5.31-10.591 3.55-2.666 8.34-3.999 14.37-3.999 6.01 0 10.84 1.406 14.51 4.219 3.66 2.812 5.55 6.635 5.66 11.469h-11.99c-.03-1.845-.78-3.383-2.24-4.614-1.44-1.26-3.3-1.889-5.58-1.889-2.23 0-3.97.483-5.23 1.45-1.26.937-1.89 2.094-1.89 3.471 0 1.202.48 2.183 1.45 2.945.99.761 2.38 1.333 4.17 1.714l8.79 1.713c4.69.909 8.13 2.403 10.33 4.483 2.22 2.051 3.34 4.79 3.34 8.218 0 3.076-.88 5.771-2.64 8.086-1.73 2.285-4.14 4.072-7.25 5.361-3.08 1.26-6.64 1.89-10.68 1.89ZM462.621 453v-18.188h11.828v1.953h-9.631v5.944h8.923v1.954h-8.923v6.384h9.631V453h-11.828Zm14.233 0v-12.891h2.026v2.088c.407-.757.948-1.335 1.624-1.734a4.252 4.252 0 0 1 2.197-.598c.879 0 1.648.224 2.307.672.659.447 1.123.997 1.392 1.648.35-.66.875-1.209 1.575-1.648.699-.448 1.53-.672 2.49-.672.789 0 1.505.171 2.148.513.651.342 1.168.858 1.551 1.55.39.692.586 1.567.586 2.625V453h-2.076v-8.447c0-1.001-.28-1.713-.842-2.136-.561-.432-1.213-.647-1.953-.647-.944 0-1.689.288-2.234.866-.537.57-.806 1.29-.806 2.161V453h-2.075v-8.667c0-.773-.26-1.392-.781-1.855-.513-.472-1.16-.708-1.941-.708-.537 0-1.046.126-1.526.378a2.901 2.901 0 0 0-1.147 1.135c-.293.497-.44 1.115-.44 1.856V453h-2.075Zm20.972 0v-12.891h2.075V453h-2.075Zm1.037-15.405c-.39 0-.724-.139-1.001-.415a1.368 1.368 0 0 1-.415-1.001c0-.391.139-.725.415-1.001a1.364 1.364 0 0 1 1.001-.415c.391 0 .725.138 1.001.415.277.276.415.61.415 1.001 0 .39-.138.724-.415 1.001-.276.276-.61.415-1.001.415Zm9.986 2.514v1.783h-2.613v7.983c0 .496.102.846.306 1.05.211.195.581.293 1.11.293h1.197V453h-1.392c-2.197 0-3.296-.968-3.296-2.905v-8.203h-2.295v-1.783h2.295v-3.515h2.075v3.515h2.613Zm6.408 13.184c-.919 0-1.753-.151-2.502-.452a4.204 4.204 0 0 1-1.819-1.367c-.464-.618-.724-1.396-.781-2.331h2.051c.146 1.578 1.147 2.368 3.002 2.368.896 0 1.6-.187 2.112-.562.521-.374.782-.846.782-1.416 0-.488-.179-.879-.538-1.172-.358-.293-.826-.504-1.403-.634l-2.076-.489c-2.425-.569-3.637-1.79-3.637-3.662 0-.732.195-1.379.586-1.941.398-.569.948-1.013 1.648-1.33.708-.326 1.521-.489 2.441-.489.895 0 1.697.171 2.405.513.716.334 1.282.81 1.697 1.428.423.619.647 1.355.671 2.21h-2.026c-.009-.684-.261-1.249-.757-1.697-.497-.448-1.16-.671-1.99-.671-.789 0-1.42.191-1.892.573-.472.383-.708.851-.708 1.404 0 .488.179.883.537 1.184.358.293.846.513 1.465.659l2.075.489c1.237.293 2.144.732 2.722 1.318.578.578.867 1.331.867 2.258 0 .798-.216 1.481-.647 2.051-.431.57-1.021 1.005-1.77 1.306-.741.301-1.579.452-2.515.452Zm16.089-18.481V453h-2.197v-18.188h2.197ZM534.959 453v-18.188h6.568c1.823 0 3.255.435 4.297 1.306 1.041.87 1.562 2.046 1.562 3.528 0 1.041-.26 1.879-.781 2.514-.521.635-1.245 1.107-2.173 1.416v.025c1.034.17 1.908.606 2.625 1.306.716.691 1.074 1.688 1.074 2.99 0 1.555-.537 2.796-1.611 3.724-1.075.919-2.706 1.379-4.895 1.379h-6.666Zm2.198-1.953h4.468c1.375 0 2.429-.256 3.161-.769.741-.521 1.111-1.286 1.111-2.295s-.358-1.803-1.074-2.38c-.716-.586-1.742-.879-3.076-.879h-4.59v6.323Zm0-8.252h4.455c1.131 0 2.014-.269 2.649-.806.635-.545.952-1.281.952-2.209 0-.928-.317-1.66-.952-2.197-.635-.546-1.518-.818-2.649-.818h-4.455v6.03Zm21.472 10.498c-1.677 0-3.145-.399-4.407-1.196-1.261-.806-2.246-1.913-2.954-3.321-.7-1.416-1.05-3.035-1.05-4.858 0-1.839.35-3.463 1.05-4.871.7-1.416 1.681-2.522 2.942-3.32 1.269-.806 2.742-1.208 4.419-1.208 1.269 0 2.429.252 3.479.756a6.972 6.972 0 0 1 2.624 2.137c.708.919 1.172 2.014 1.392 3.283h-2.246c-.293-1.326-.912-2.343-1.856-3.051-.935-.717-2.067-1.075-3.393-1.075-1.278 0-2.38.314-3.308.94-.928.619-1.644 1.481-2.149 2.588-.504 1.099-.756 2.372-.756 3.821 0 1.44.252 2.71.756 3.809.505 1.098 1.221 1.961 2.149 2.587.928.619 2.03.928 3.308.928 1.31 0 2.437-.354 3.381-1.062.944-.708 1.571-1.721 1.88-3.039h2.234c-.22 1.261-.68 2.352-1.379 3.271a7.1 7.1 0 0 1-2.637 2.136c-1.05.497-2.21.745-3.479.745Zm-90.1 24.951c-1.115 0-2.096-.281-2.942-.842-.838-.57-1.489-1.355-1.953-2.356-.464-1.009-.696-2.173-.696-3.491 0-1.327.232-2.491.696-3.492.464-1.009 1.115-1.794 1.953-2.355.846-.562 1.827-.843 2.942-.843a5.14 5.14 0 0 1 2.331.537 3.9 3.9 0 0 1 1.697 1.612h.025v-7.202h2.075V478h-2.027v-1.953h-.024c-.464.74-1.05 1.294-1.758 1.66a5.065 5.065 0 0 1-2.319.537Zm.317-1.868c1.196 0 2.145-.439 2.844-1.318.708-.879 1.062-2.047 1.062-3.503 0-1.457-.354-2.625-1.062-3.504-.699-.887-1.648-1.33-2.844-1.33-1.115 0-2.03.411-2.746 1.233-.708.822-1.062 2.022-1.062 3.601 0 1.578.354 2.779 1.062 3.601.716.814 1.631 1.22 2.746 1.22Zm12.818 1.819c-1.278 0-2.348-.329-3.211-.988-.854-.66-1.282-1.632-1.282-2.918 0-.74.143-1.343.428-1.807a3.099 3.099 0 0 1 1.159-1.086 6.27 6.27 0 0 1 1.648-.61 20.081 20.081 0 0 1 1.892-.33c.822-.114 1.469-.199 1.941-.256.472-.057.806-.151 1.001-.281.204-.13.305-.358.305-.684v-.122c0-.7-.252-1.277-.756-1.733-.497-.456-1.197-.684-2.1-.684-.895 0-1.632.22-2.21.659-.569.432-.878.969-.927 1.612h-2.112a3.81 3.81 0 0 1 .732-2.1c.448-.618 1.058-1.107 1.831-1.465.774-.358 1.669-.537 2.686-.537 1.505 0 2.698.391 3.577 1.172.887.773 1.33 1.799 1.33 3.076V478h-2.051v-1.831h-.048a3.982 3.982 0 0 1-.684.94c-.301.309-.708.57-1.221.781-.504.204-1.147.305-1.928.305Zm.293-1.855c.846 0 1.534-.151 2.063-.452.529-.309.915-.708 1.159-1.196a3.473 3.473 0 0 0 .366-1.575v-1.611c-.154.146-.565.281-1.233.403-.667.114-1.371.223-2.111.329a6.63 6.63 0 0 0-1.416.342c-.44.155-.798.378-1.075.671-.276.285-.415.672-.415 1.16 0 .602.236 1.074.708 1.416.481.342 1.132.513 1.954.513Zm14.343-11.231v1.783h-2.612v7.983c0 .496.101.846.305 1.05.211.195.582.293 1.111.293h1.196V478h-1.392c-2.197 0-3.296-.968-3.296-2.905v-8.203h-2.295v-1.783h2.295v-3.515h2.076v3.515h2.612Zm6.457 13.086c-1.277 0-2.347-.329-3.21-.988-.855-.66-1.282-1.632-1.282-2.918 0-.74.143-1.343.427-1.807.293-.463.68-.826 1.16-1.086a6.256 6.256 0 0 1 1.648-.61 20.025 20.025 0 0 1 1.892-.33c.822-.114 1.469-.199 1.941-.256.472-.057.806-.151 1.001-.281.203-.13.305-.358.305-.684v-.122c0-.7-.252-1.277-.757-1.733-.496-.456-1.196-.684-2.099-.684-.895 0-1.632.22-2.21.659-.569.432-.879.969-.927 1.612h-2.112c.04-.79.285-1.489.732-2.1.448-.618 1.058-1.107 1.831-1.465.773-.358 1.668-.537 2.686-.537 1.505 0 2.697.391 3.576 1.172.887.773 1.331 1.799 1.331 3.076V478h-2.051v-1.831h-.049a3.947 3.947 0 0 1-.683.94c-.301.309-.708.57-1.221.781-.505.204-1.147.305-1.929.305Zm.293-1.855c.847 0 1.534-.151 2.063-.452.529-.309.916-.708 1.16-1.196a3.473 3.473 0 0 0 .366-1.575v-1.611c-.154.146-.565.281-1.233.403-.667.114-1.371.223-2.112.329a6.659 6.659 0 0 0-1.416.342 2.67 2.67 0 0 0-1.074.671c-.276.285-.415.672-.415 1.16 0 .602.236 1.074.708 1.416.48.342 1.131.513 1.953.513Zm14.112 6.933c-1.449 0-2.674-.333-3.675-1.001-1.001-.667-1.583-1.635-1.745-2.905h2.124c.187.692.573 1.209 1.159 1.55.594.35 1.307.525 2.137.525 1.123 0 2.006-.301 2.649-.903.642-.594.964-1.44.964-2.539v-1.953h-.012c-.472.749-1.058 1.302-1.758 1.66-.692.358-1.461.537-2.307.537-1.115 0-2.096-.281-2.942-.842-.838-.57-1.489-1.355-1.953-2.356-.464-1.009-.696-2.173-.696-3.491 0-1.327.232-2.491.696-3.492.464-1.009 1.115-1.794 1.953-2.355.846-.562 1.827-.843 2.942-.843a5.14 5.14 0 0 1 2.331.537c.725.35 1.311.924 1.758 1.722h.012v-2.015h2.027V478c0 1.27-.265 2.291-.794 3.064a4.48 4.48 0 0 1-2.075 1.685 7.382 7.382 0 0 1-2.795.524Zm-.147-6.897c1.196 0 2.145-.439 2.844-1.318.708-.879 1.062-2.047 1.062-3.503 0-1.457-.354-2.625-1.062-3.504-.699-.887-1.648-1.33-2.844-1.33-1.115 0-2.03.411-2.746 1.233-.708.822-1.062 2.022-1.062 3.601 0 1.578.354 2.779 1.062 3.601.716.814 1.631 1.22 2.746 1.22Zm8.887 1.624v-12.891h1.977v2.027h.049c.236-.668.611-1.205 1.123-1.612.513-.406 1.172-.61 1.978-.61a5.023 5.023 0 0 1 .879.073v2.075a4.042 4.042 0 0 0-.476-.085 4.538 4.538 0 0 0-.794-.061c-.716 0-1.339.252-1.867.757-.529.504-.794 1.302-.794 2.392V478h-2.075Zm11.597.195c-1.278 0-2.348-.329-3.211-.988-.854-.66-1.282-1.632-1.282-2.918 0-.74.143-1.343.428-1.807a3.099 3.099 0 0 1 1.159-1.086 6.27 6.27 0 0 1 1.648-.61 20.081 20.081 0 0 1 1.892-.33c.822-.114 1.469-.199 1.941-.256.472-.057.806-.151 1.001-.281.204-.13.305-.358.305-.684v-.122c0-.7-.252-1.277-.756-1.733-.497-.456-1.197-.684-2.1-.684-.895 0-1.632.22-2.21.659-.569.432-.878.969-.927 1.612h-2.112a3.81 3.81 0 0 1 .732-2.1c.448-.618 1.058-1.107 1.831-1.465.773-.358 1.669-.537 2.686-.537 1.505 0 2.698.391 3.577 1.172.887.773 1.33 1.799 1.33 3.076V478h-2.051v-1.831h-.048a3.982 3.982 0 0 1-.684.94c-.301.309-.708.57-1.221.781-.504.204-1.147.305-1.928.305Zm.293-1.855c.846 0 1.534-.151 2.062-.452.529-.309.916-.708 1.16-1.196a3.473 3.473 0 0 0 .366-1.575v-1.611c-.154.146-.565.281-1.233.403-.667.114-1.371.223-2.111.329a6.63 6.63 0 0 0-1.416.342c-.44.155-.798.378-1.075.671-.276.285-.415.672-.415 1.16 0 .602.236 1.074.708 1.416.481.342 1.132.513 1.954.513Zm8.715 1.66v-12.891h2.027v2.088c.407-.757.948-1.335 1.623-1.734a4.255 4.255 0 0 1 2.197-.598c.879 0 1.648.224 2.308.672.659.447 1.123.997 1.391 1.648.35-.66.875-1.209 1.575-1.648.7-.448 1.53-.672 2.49-.672.79 0 1.506.171 2.149.513.651.342 1.167.858 1.55 1.55.391.692.586 1.567.586 2.625V478h-2.075v-8.447c0-1.001-.281-1.713-.843-2.136-.561-.432-1.212-.647-1.953-.647-.944 0-1.688.288-2.234.866-.537.57-.805 1.29-.805 2.161V478h-2.076v-8.667c0-.773-.26-1.392-.781-1.855-.512-.472-1.159-.708-1.941-.708a3.24 3.24 0 0 0-1.526.378 2.901 2.901 0 0 0-1.147 1.135c-.293.497-.439 1.115-.439 1.856V478h-2.076Zm-81.921 25.195c-1.278 0-2.348-.329-3.211-.988-.854-.66-1.281-1.632-1.281-2.918 0-.74.142-1.343.427-1.807.293-.463.68-.826 1.16-1.086a6.243 6.243 0 0 1 1.648-.61 20.025 20.025 0 0 1 1.892-.33c.822-.114 1.469-.199 1.941-.256.472-.057.805-.151 1.001-.281.203-.13.305-.358.305-.684v-.122c0-.7-.253-1.277-.757-1.733-.496-.456-1.196-.684-2.1-.684-.895 0-1.631.22-2.209.659-.57.432-.879.969-.928 1.612h-2.112c.041-.79.285-1.489.733-2.1.447-.618 1.058-1.107 1.831-1.465.773-.358 1.668-.537 2.685-.537 1.506 0 2.698.391 3.577 1.172.887.773 1.331 1.799 1.331 3.076V503h-2.051v-1.831h-.049a3.982 3.982 0 0 1-.684.94c-.301.309-.708.57-1.22.781-.505.204-1.148.305-1.929.305Zm.293-1.855c.846 0 1.534-.151 2.063-.452.529-.309.915-.708 1.16-1.196a3.473 3.473 0 0 0 .366-1.575v-1.611c-.155.146-.566.281-1.233.403-.667.114-1.371.223-2.112.329a6.659 6.659 0 0 0-1.416.342 2.67 2.67 0 0 0-1.074.671c-.277.285-.415.672-.415 1.16 0 .602.236 1.074.708 1.416.48.342 1.131.513 1.953.513Zm14.343-11.231v1.783h-2.612v7.983c0 .496.102.846.305 1.05.212.195.582.293 1.111.293h1.196V503h-1.391c-2.198 0-3.296-.968-3.296-2.905v-8.203h-2.295v-1.783h2.295v-3.515h2.075v3.515h2.612Zm14.539 13.135a5.07 5.07 0 0 1-2.32-.537c-.708-.366-1.294-.92-1.757-1.66h-.025V503h-2.026v-18.188h2.075v7.202h.024a3.9 3.9 0 0 1 1.697-1.612 5.143 5.143 0 0 1 2.332-.537c1.123 0 2.103.281 2.942.843.838.561 1.489 1.346 1.953 2.355.464 1.001.696 2.165.696 3.492 0 1.318-.232 2.482-.696 3.491-.464 1.001-1.115 1.786-1.953 2.356-.839.561-1.819.842-2.942.842Zm-.318-1.868c1.115 0 2.027-.406 2.735-1.22.716-.822 1.074-2.023 1.074-3.601 0-1.579-.358-2.779-1.074-3.601-.708-.822-1.62-1.233-2.735-1.233-1.196 0-2.148.443-2.856 1.33-.7.879-1.05 2.047-1.05 3.504 0 1.456.35 2.624 1.05 3.503.708.879 1.66 1.318 2.856 1.318Zm10.401-16.564V503h-2.075v-18.188h2.075Zm8.398 18.481c-1.188 0-2.234-.285-3.137-.855-.895-.577-1.595-1.371-2.1-2.38-.496-1.009-.744-2.169-.744-3.479 0-1.318.248-2.486.744-3.503.505-1.018 1.205-1.815 2.1-2.393.903-.578 1.949-.867 3.137-.867 1.196 0 2.242.289 3.137.867.896.578 1.591 1.375 2.088 2.393.504 1.017.757 2.185.757 3.503 0 1.31-.253 2.47-.757 3.479-.497 1.009-1.192 1.803-2.088 2.38-.895.57-1.941.855-3.137.855Zm0-1.88c1.221 0 2.173-.439 2.857-1.318.683-.887 1.025-2.059 1.025-3.516 0-1.473-.346-2.653-1.038-3.54-.683-.895-1.631-1.343-2.844-1.343-1.212 0-2.165.444-2.856 1.331-.684.887-1.026 2.071-1.026 3.552 0 1.465.342 2.637 1.026 3.516.683.879 1.635 1.318 2.856 1.318Zm13.721 1.88c-1.188 0-2.234-.285-3.137-.855-.895-.577-1.595-1.371-2.1-2.38-.496-1.009-.745-2.169-.745-3.479 0-1.318.249-2.486.745-3.503.505-1.018 1.205-1.815 2.1-2.393.903-.578 1.949-.867 3.137-.867.976 0 1.851.196 2.624.586a5.064 5.064 0 0 1 1.892 1.587c.497.676.802 1.449.916 2.32h-2.1a3.264 3.264 0 0 0-1.074-1.868c-.553-.497-1.306-.745-2.258-.745-1.213 0-2.165.444-2.857 1.331-.683.887-1.025 2.071-1.025 3.552 0 1.465.342 2.637 1.025 3.516.684.879 1.636 1.318 2.857 1.318.968 0 1.709-.236 2.222-.708.512-.48.87-1.115 1.074-1.904h2.136a4.973 4.973 0 0 1-.916 2.295 5.258 5.258 0 0 1-1.904 1.611c-.773.391-1.644.586-2.612.586Zm7.764-.293v-18.188h2.075v11.096h.024l5.994-5.799h2.685l-5.676 5.518L544.92 503h-2.636l-5.042-6.067-1.44 1.306V503h-2.075Zm19.213 0v-18.188h2.527l7.495 11.84c.212.342.505.826.879 1.453.375.627.745 1.261 1.111 1.904a137.12 137.12 0 0 1-.061-1.977c-.008-.684-.012-1.176-.012-1.477v-11.743h2.197V503h-2.551l-6.665-10.522a109.47 109.47 0 0 1-1.123-1.795 1985.94 1985.94 0 0 1-1.709-2.856c.041 1.131.069 2.087.085 2.868.017.773.025 1.359.025 1.758V503h-2.198ZM867.803 373v-18.188h6.519c1.896 0 3.397.496 4.504 1.489 1.115.984 1.673 2.327 1.673 4.028 0 1.131-.261 2.112-.782 2.942-.512.822-1.241 1.461-2.185 1.917-.936.447-2.038.671-3.308.671H870V373h-2.197Zm2.197-9.094h4.249c1.261 0 2.254-.318 2.978-.952.732-.643 1.099-1.518 1.099-2.625s-.367-1.977-1.099-2.612c-.724-.635-1.717-.952-2.978-.952H870v7.141ZM882.598 373v-12.891h1.978v2.027h.049c.236-.668.61-1.205 1.123-1.612.512-.406 1.171-.61 1.977-.61a5.023 5.023 0 0 1 .879.073v2.075a4 4 0 0 0-.476-.085 4.53 4.53 0 0 0-.794-.061c-.716 0-1.338.252-1.867.757-.529.504-.794 1.302-.794 2.392V373h-2.075Zm13.135.293c-1.188 0-2.234-.285-3.137-.855-.895-.577-1.595-1.371-2.1-2.38-.496-1.009-.745-2.169-.745-3.479 0-1.318.249-2.486.745-3.503.505-1.018 1.205-1.815 2.1-2.393.903-.578 1.949-.867 3.137-.867 1.196 0 2.242.289 3.137.867.895.578 1.591 1.375 2.088 2.393.504 1.017.756 2.185.756 3.503 0 1.31-.252 2.47-.756 3.479-.497 1.009-1.193 1.803-2.088 2.38-.895.57-1.941.855-3.137.855Zm0-1.88c1.221 0 2.173-.439 2.856-1.318.684-.887 1.026-2.059 1.026-3.516 0-1.473-.346-2.653-1.038-3.54-.683-.895-1.632-1.343-2.844-1.343-1.213 0-2.165.444-2.857 1.331-.683.887-1.025 2.071-1.025 3.552 0 1.465.342 2.637 1.025 3.516.684.879 1.636 1.318 2.857 1.318Zm13.721 1.88c-1.189 0-2.234-.285-3.138-.855-.895-.577-1.595-1.371-2.099-2.38-.497-1.009-.745-2.169-.745-3.479 0-1.318.248-2.486.745-3.503.504-1.018 1.204-1.815 2.099-2.393.904-.578 1.949-.867 3.138-.867 1.196 0 2.242.289 3.137.867.895.578 1.591 1.375 2.087 2.393.505 1.017.757 2.185.757 3.503 0 1.31-.252 2.47-.757 3.479-.496 1.009-1.192 1.803-2.087 2.38-.895.57-1.941.855-3.137.855Zm0-1.88c1.22 0 2.172-.439 2.856-1.318.684-.887 1.025-2.059 1.025-3.516 0-1.473-.345-2.653-1.037-3.54-.684-.895-1.632-1.343-2.844-1.343-1.213 0-2.165.444-2.857 1.331-.683.887-1.025 2.071-1.025 3.552 0 1.465.342 2.637 1.025 3.516.684.879 1.636 1.318 2.857 1.318Zm14.025-11.304v1.783h-2.612V373h-2.075v-11.108h-2.295v-1.783h2.295v-2.295c0-.919.305-1.647.916-2.185.61-.545 1.436-.817 2.478-.817h1.293v1.782h-1.098c-.545 0-.936.118-1.172.354-.228.236-.342.63-.342 1.184v1.977h2.612ZM931.768 373v-12.891h1.978v2.027h.048c.236-.668.611-1.205 1.123-1.612.513-.406 1.172-.61 1.978-.61a5.023 5.023 0 0 1 .879.073v2.075a4 4 0 0 0-.476-.085 4.53 4.53 0 0 0-.794-.061c-.716 0-1.338.252-1.867.757-.529.504-.794 1.302-.794 2.392V373h-2.075Zm13.135.293c-1.262 0-2.34-.289-3.235-.867-.887-.578-1.567-1.371-2.039-2.38-.472-1.017-.708-2.173-.708-3.467 0-1.31.249-2.474.745-3.491s1.184-1.815 2.063-2.393c.879-.586 1.888-.879 3.027-.879 1.197 0 2.234.285 3.113.855.879.57 1.555 1.363 2.027 2.38.48 1.018.72 2.193.72 3.528v.574h-9.644c.049 1.261.411 2.287 1.087 3.076.675.789 1.623 1.184 2.844 1.184.919 0 1.668-.212 2.246-.635a3.024 3.024 0 0 0 1.172-1.635h2.075a4.86 4.86 0 0 1-1.013 2.172 5.305 5.305 0 0 1-1.929 1.453c-.765.35-1.615.525-2.551.525Zm-3.906-7.922h7.544c-.114-1.132-.509-2.031-1.185-2.698-.675-.667-1.542-1.001-2.6-1.001s-1.92.334-2.588 1.001c-.667.667-1.057 1.566-1.171 2.698Zm23.046 12.732h-2.075v-7.056h-.024c-.464.74-1.042 1.294-1.734 1.66a4.912 4.912 0 0 1-2.294.537c-1.115 0-2.096-.281-2.942-.842-.839-.57-1.49-1.355-1.953-2.356-.464-1.009-.696-2.173-.696-3.491 0-1.327.232-2.491.696-3.492.463-1.009 1.114-1.794 1.953-2.355.846-.562 1.827-.843 2.942-.843.838 0 1.623.179 2.355.537.733.35 1.307.887 1.722 1.612h.024v-1.905h2.026v17.994Zm-5.81-6.727c1.196 0 2.144-.439 2.844-1.318.708-.879 1.062-2.047 1.062-3.503 0-1.457-.354-2.625-1.062-3.504-.7-.887-1.648-1.33-2.844-1.33-1.115 0-2.031.411-2.747 1.233-.708.822-1.062 2.022-1.062 3.601 0 1.578.354 2.779 1.062 3.601.716.814 1.632 1.22 2.747 1.22Zm13.623 1.868a5.107 5.107 0 0 1-2.38-.561c-.717-.383-1.29-.953-1.722-1.709-.423-.765-.634-1.717-.634-2.857v-8.008h2.075v7.862c0 1.115.268 1.957.805 2.527.538.561 1.286.842 2.247.842.944 0 1.745-.289 2.404-.867.66-.578.989-1.518.989-2.82v-7.544h2.075V373h-2.026v-1.892c-.448.732-.997 1.274-1.648 1.623-.643.342-1.371.513-2.185.513Zm14.258.049c-1.262 0-2.34-.289-3.235-.867-.887-.578-1.567-1.371-2.039-2.38-.472-1.017-.708-2.173-.708-3.467 0-1.31.249-2.474.745-3.491s1.184-1.815 2.063-2.393c.879-.586 1.888-.879 3.027-.879 1.197 0 2.234.285 3.113.855.879.57 1.554 1.363 2.026 2.38.481 1.018.721 2.193.721 3.528v.574h-9.644c.049 1.261.411 2.287 1.087 3.076.675.789 1.623 1.184 2.844 1.184.919 0 1.668-.212 2.246-.635a3.024 3.024 0 0 0 1.172-1.635h2.075a4.871 4.871 0 0 1-1.013 2.172 5.305 5.305 0 0 1-1.929 1.453c-.765.35-1.615.525-2.551.525Zm-3.906-7.922h7.543c-.113-1.132-.508-2.031-1.184-2.698-.675-.667-1.542-1.001-2.6-1.001s-1.92.334-2.588 1.001c-.667.667-1.058 1.566-1.171 2.698Zm16.479 7.922c-.92 0-1.754-.151-2.502-.452a4.204 4.204 0 0 1-1.819-1.367c-.464-.618-.725-1.396-.782-2.331h2.051c.147 1.578 1.148 2.368 3.003 2.368.895 0 1.602-.187 2.112-.562.52-.374.78-.846.78-1.416 0-.488-.18-.879-.54-1.172-.35-.293-.82-.504-1.4-.634l-2.075-.489c-2.425-.569-3.638-1.79-3.638-3.662 0-.732.196-1.379.586-1.941.399-.569.948-1.013 1.648-1.33.708-.326 1.522-.489 2.442-.489.895 0 1.697.171 2.407.513.71.334 1.28.81 1.69 1.428.43.619.65 1.355.68 2.21h-2.03c-.01-.684-.26-1.249-.76-1.697-.49-.448-1.157-.671-1.987-.671-.79 0-1.42.191-1.892.573-.472.383-.708.851-.708 1.404 0 .488.179.883.537 1.184.358.293.846.513 1.465.659l2.075.489c1.24.293 2.14.732 2.72 1.318.58.578.87 1.331.87 2.258 0 .798-.22 1.481-.65 2.051-.43.57-1.02 1.005-1.77 1.306-.74.301-1.577.452-2.513.452Zm13.243-13.184v1.783h-2.61v7.983c0 .496.1.846.3 1.05.22.195.59.293 1.12.293h1.19V373h-1.39c-2.2 0-3.3-.968-3.3-2.905v-8.203h-2.29v-1.783h2.29v-3.515h2.08v3.515h2.61Zm14.04 0v1.783h-2.61V373h-2.08v-11.108h-2.29v-1.783h2.29v-2.295c0-.919.31-1.647.92-2.185.61-.545 1.43-.817 2.48-.817h1.29v1.782h-1.1c-.54 0-.93.118-1.17.354-.23.236-.34.63-.34 1.184v1.977h2.61Zm7.12 13.184c-1.19 0-2.24-.285-3.14-.855-.9-.577-1.6-1.371-2.1-2.38s-.75-2.169-.75-3.479c0-1.318.25-2.486.75-3.503.5-1.018 1.2-1.815 2.1-2.393.9-.578 1.95-.867 3.14-.867 1.19 0 2.24.289 3.13.867.9.578 1.59 1.375 2.09 2.393.51 1.017.76 2.185.76 3.503 0 1.31-.25 2.47-.76 3.479-.5 1.009-1.19 1.803-2.09 2.38-.89.57-1.94.855-3.13.855Zm0-1.88c1.22 0 2.17-.439 2.85-1.318.69-.887 1.03-2.059 1.03-3.516 0-1.473-.35-2.653-1.04-3.54-.68-.895-1.63-1.343-2.84-1.343-1.22 0-2.17.444-2.86 1.331-.68.887-1.03 2.071-1.03 3.552 0 1.465.35 2.637 1.03 3.516s1.64 1.318 2.86 1.318Zm8.39 1.587v-12.891h1.98v2.027h.05c.24-.668.61-1.205 1.12-1.612.52-.406 1.18-.61 1.98-.61.19 0 .36.008.51.024.17.017.29.033.37.049v2.075a3.915 3.915 0 0 0-.48-.085 4.435 4.435 0 0 0-.79-.061c-.71 0-1.34.252-1.87.757-.53.504-.79 1.302-.79 2.392V373h-2.08Zm-149.543 25.244a5.066 5.066 0 0 1-2.32-.537c-.708-.366-1.294-.92-1.758-1.66h-.024V398h-2.026v-18.188h2.075v7.202h.024a3.9 3.9 0 0 1 1.697-1.612 5.14 5.14 0 0 1 2.332-.537c1.123 0 2.103.281 2.941.843.839.561 1.49 1.346 1.954 2.355.463 1.001.695 2.165.695 3.492 0 1.318-.232 2.482-.695 3.491-.464 1.001-1.115 1.786-1.954 2.356-.838.561-1.818.842-2.941.842Zm-.318-1.868c1.115 0 2.027-.406 2.735-1.22.716-.822 1.074-2.023 1.074-3.601 0-1.579-.358-2.779-1.074-3.601-.708-.822-1.62-1.233-2.735-1.233-1.196 0-2.148.443-2.856 1.33-.7.879-1.05 2.047-1.05 3.504 0 1.456.35 2.624 1.05 3.503.708.879 1.66 1.318 2.856 1.318Zm10.401-16.564V398h-2.076v-18.188h2.076Zm8.398 18.481c-1.188 0-2.234-.285-3.137-.855-.895-.577-1.595-1.371-2.1-2.38-.496-1.009-.744-2.169-.744-3.479 0-1.318.248-2.486.744-3.503.505-1.018 1.205-1.815 2.1-2.393.903-.578 1.949-.867 3.137-.867 1.196 0 2.242.289 3.137.867.895.578 1.591 1.375 2.088 2.393.504 1.017.756 2.185.756 3.503 0 1.31-.252 2.47-.756 3.479-.497 1.009-1.193 1.803-2.088 2.38-.895.57-1.941.855-3.137.855Zm0-1.88c1.221 0 2.173-.439 2.856-1.318.684-.887 1.026-2.059 1.026-3.516 0-1.473-.346-2.653-1.038-3.54-.683-.895-1.631-1.343-2.844-1.343-1.213 0-2.165.444-2.856 1.331-.684.887-1.026 2.071-1.026 3.552 0 1.465.342 2.637 1.026 3.516.683.879 1.635 1.318 2.856 1.318Zm13.721 1.88c-1.188 0-2.234-.285-3.138-.855-.895-.577-1.595-1.371-2.099-2.38-.497-1.009-.745-2.169-.745-3.479 0-1.318.248-2.486.745-3.503.504-1.018 1.204-1.815 2.099-2.393.904-.578 1.95-.867 3.138-.867.976 0 1.851.196 2.624.586a5.072 5.072 0 0 1 1.892 1.587c.497.676.802 1.449.916 2.32h-2.1a3.27 3.27 0 0 0-1.074-1.868c-.553-.497-1.306-.745-2.258-.745-1.213 0-2.165.444-2.857 1.331-.683.887-1.025 2.071-1.025 3.552 0 1.465.342 2.637 1.025 3.516.684.879 1.636 1.318 2.857 1.318.968 0 1.709-.236 2.221-.708.513-.48.871-1.115 1.075-1.904h2.136a4.973 4.973 0 0 1-.916 2.295 5.258 5.258 0 0 1-1.904 1.611c-.773.391-1.644.586-2.612.586Zm7.763-.293v-18.188h2.076v11.096h.024l5.994-5.799h2.685l-5.676 5.518 6.091 7.373h-2.637l-5.041-6.067-1.44 1.306V398h-2.076Zm19.214 0v-18.188h2.991l4.614 11.743c.114.276.248.626.403 1.049.163.416.326.847.488 1.294.171.44.322.843.452 1.209.13-.366.277-.769.439-1.209.171-.447.334-.878.489-1.294l.403-1.049 4.541-11.743h3.002V398h-2.16v-10.547c0-.651.008-1.375.024-2.173l.049-2.392c-.35.96-.671 1.839-.964 2.636a72.004 72.004 0 0 1-.733 1.929L960.931 398h-1.807l-4.248-10.547c-.187-.464-.423-1.07-.708-1.819a495.4 495.4 0 0 0-.952-2.478c.024.749.041 1.498.049 2.246.016.749.024 1.433.024 2.051V398h-2.173Zm22.376.208a1.504 1.504 0 0 1-1.526-1.526 1.503 1.503 0 0 1 1.526-1.526c.431 0 .793.146 1.086.439.293.293.44.655.44 1.087 0 .423-.147.785-.44 1.086-.293.293-.655.44-1.086.44Zm5.493 0a1.5 1.5 0 0 1-1.526-1.526c0-.432.146-.794.439-1.087a1.505 1.505 0 0 1 1.087-.439c.431 0 .793.146 1.086.439.293.293.44.655.44 1.087 0 .423-.147.785-.44 1.086-.293.293-.655.44-1.086.44Zm5.493 0a1.502 1.502 0 0 1-1.526-1.526 1.5 1.5 0 0 1 1.526-1.526c.431 0 .793.146 1.086.439.293.293.44.655.44 1.087 0 .423-.147.785-.44 1.086-.293.293-.655.44-1.086.44Zm4.553-.208v-18.188h2.527l7.495 11.84c.212.342.505.826.879 1.453.378.627.748 1.261 1.108 1.904l-.06-1.977c-.01-.684-.01-1.176-.01-1.477v-11.743h2.2V398h-2.55l-6.669-10.522c-.253-.391-.627-.989-1.123-1.795-.489-.814-1.058-1.766-1.709-2.856.04 1.131.069 2.087.085 2.868.016.773.025 1.359.025 1.758V398h-2.198Zm22.799-3.137v-4.907h-4.87v-1.905h4.87v-4.907h1.98v4.907h4.87v1.905h-4.87v4.907h-1.98Zm16.09-15.051V398h-2.12v-15.918h-.01l-4.53 3.003v-2.246l4.54-3.027h2.12ZM930.596 553.293c-1.4 0-2.612-.248-3.638-.745-1.025-.504-1.818-1.216-2.38-2.136-.561-.919-.842-2.01-.842-3.271h2.246c0 1.302.403 2.319 1.208 3.051.814.733 1.949 1.099 3.406 1.099 1.327 0 2.389-.289 3.186-.867.806-.577 1.209-1.355 1.209-2.331 0-.757-.273-1.371-.818-1.843-.545-.472-1.473-.871-2.783-1.197l-2.039-.5c-1.855-.456-3.194-1.066-4.016-1.831-.822-.765-1.233-1.766-1.233-3.003 0-1.05.256-1.962.769-2.735.521-.781 1.253-1.387 2.197-1.818.944-.432 2.047-.647 3.308-.647 1.897 0 3.406.508 4.529 1.525 1.131 1.01 1.721 2.389 1.77 4.139h-2.173c-.065-1.14-.472-2.031-1.22-2.674-.749-.651-1.742-.976-2.979-.976-1.18 0-2.148.289-2.905.866-.749.57-1.123 1.307-1.123 2.21 0 .708.277 1.286.83 1.733.562.44 1.501.826 2.82 1.16l2.063.513c1.774.439 3.084 1.062 3.93 1.867.847.806 1.27 1.844 1.27 3.113 0 1.05-.277 1.974-.83 2.771-.545.798-1.314 1.42-2.307 1.868-.985.439-2.136.659-3.455.659Zm14.404 0c-1.261 0-2.339-.289-3.234-.867-.887-.578-1.567-1.371-2.039-2.38-.472-1.017-.708-2.173-.708-3.467 0-1.31.248-2.474.745-3.491.496-1.017 1.184-1.815 2.063-2.393.879-.586 1.888-.879 3.027-.879 1.196 0 2.234.285 3.113.855.879.57 1.554 1.363 2.026 2.38.48 1.018.72 2.193.72 3.528v.574h-9.643c.049 1.261.411 2.287 1.086 3.076.676.789 1.624 1.184 2.844 1.184.92 0 1.669-.212 2.247-.635a3.017 3.017 0 0 0 1.171-1.635h2.076a4.862 4.862 0 0 1-1.014 2.172 5.293 5.293 0 0 1-1.928 1.453c-.765.35-1.616.525-2.552.525Zm-3.906-7.922h7.544c-.114-1.132-.508-2.031-1.184-2.698-.675-.667-1.542-1.001-2.6-1.001s-1.921.334-2.588 1.001c-.667.667-1.058 1.566-1.172 2.698Zm14.063.085V553h-2.075v-12.891h2.026v1.892c.448-.732.993-1.269 1.636-1.611.651-.35 1.383-.525 2.197-.525.871 0 1.664.191 2.38.574.716.374 1.286.94 1.709 1.697.432.757.647 1.709.647 2.856V553h-2.075v-7.861c0-1.115-.269-1.953-.806-2.515-.529-.57-1.277-.854-2.246-.854-.936 0-1.737.288-2.404.866-.66.578-.989 1.518-.989 2.82Zm16.528 7.788c-1.115 0-2.095-.281-2.942-.842-.838-.57-1.489-1.355-1.953-2.356-.464-1.009-.696-2.173-.696-3.491 0-1.327.232-2.491.696-3.492.464-1.009 1.115-1.794 1.953-2.355.847-.562 1.827-.843 2.942-.843.838 0 1.615.179 2.332.537.716.35 1.281.887 1.696 1.612h.025v-7.202h2.075V553h-2.026v-1.953h-.025c-.464.74-1.05 1.294-1.758 1.66a5.065 5.065 0 0 1-2.319.537Zm.317-1.868c1.197 0 2.145-.439 2.845-1.318.708-.879 1.062-2.047 1.062-3.503 0-1.457-.354-2.625-1.062-3.504-.7-.887-1.648-1.33-2.845-1.33-1.114 0-2.03.411-2.746 1.233-.708.822-1.062 2.022-1.062 3.601 0 1.578.354 2.779 1.062 3.601.716.814 1.632 1.22 2.746 1.22Zm13.379 1.917c-.919 0-1.753-.151-2.502-.452a4.204 4.204 0 0 1-1.819-1.367c-.464-.618-.724-1.396-.781-2.331h2.051c.146 1.578 1.147 2.368 3.003 2.368.895 0 1.599-.187 2.111-.562.521-.374.782-.846.782-1.416 0-.488-.179-.879-.538-1.172-.358-.293-.826-.504-1.403-.634l-2.076-.489c-2.425-.569-3.637-1.79-3.637-3.662 0-.732.195-1.379.586-1.941.398-.569.948-1.013 1.648-1.33.708-.326 1.521-.489 2.441-.489.895 0 1.697.171 2.405.513.716.334 1.282.81 1.697 1.428.423.619.647 1.355.671 2.21h-2.026c-.008-.684-.261-1.249-.757-1.697-.497-.448-1.16-.671-1.99-.671-.789 0-1.42.191-1.892.573-.472.383-.708.851-.708 1.404 0 .488.179.883.537 1.184.358.293.846.513 1.465.659l2.075.489c1.237.293 2.144.732 2.722 1.318.578.578.867 1.331.867 2.258 0 .798-.216 1.481-.647 2.051-.431.57-1.021 1.005-1.77 1.306-.741.301-1.579.452-2.515.452Zm-108.252 29.98c-1.448 0-2.673-.333-3.674-1.001-1.001-.667-1.583-1.635-1.746-2.905h2.124c.188.692.574 1.209 1.16 1.55.594.35 1.306.525 2.136.525 1.123 0 2.006-.301 2.649-.903.643-.594.965-1.44.965-2.539v-1.953h-.013c-.472.749-1.057 1.302-1.757 1.66-.692.358-1.461.537-2.307.537-1.115 0-2.096-.281-2.942-.842-.839-.57-1.49-1.355-1.953-2.356-.464-1.009-.696-2.173-.696-3.491 0-1.327.232-2.491.696-3.492.463-1.009 1.114-1.794 1.953-2.355.846-.562 1.827-.843 2.942-.843a5.14 5.14 0 0 1 2.331.537c.724.35 1.31.924 1.758 1.722h.012v-2.015h2.026V578c0 1.27-.264 2.291-.793 3.064a4.485 4.485 0 0 1-2.075 1.685 7.388 7.388 0 0 1-2.796.524Zm-.146-6.897c1.196 0 2.144-.439 2.844-1.318.708-.879 1.062-2.047 1.062-3.503 0-1.457-.354-2.625-1.062-3.504-.7-.887-1.648-1.33-2.844-1.33-1.115 0-2.031.411-2.747 1.233-.708.822-1.062 2.022-1.062 3.601 0 1.578.354 2.779 1.062 3.601.716.814 1.632 1.22 2.747 1.22Zm14.209 1.917c-1.261 0-2.34-.289-3.235-.867-.887-.578-1.567-1.371-2.039-2.38-.472-1.017-.708-2.173-.708-3.467 0-1.31.249-2.474.745-3.491s1.184-1.815 2.063-2.393c.879-.586 1.888-.879 3.027-.879 1.197 0 2.234.285 3.113.855.879.57 1.555 1.363 2.027 2.38.48 1.018.72 2.193.72 3.528v.574h-9.644c.049 1.261.411 2.287 1.087 3.076.675.789 1.623 1.184 2.844 1.184.919 0 1.668-.212 2.246-.635a3.019 3.019 0 0 0 1.172-1.635h2.075a4.86 4.86 0 0 1-1.013 2.172 5.305 5.305 0 0 1-1.929 1.453c-.765.35-1.615.525-2.551.525Zm-3.906-7.922h7.544c-.114-1.132-.509-2.031-1.184-2.698-.676-.667-1.543-1.001-2.601-1.001s-1.92.334-2.587 1.001c-.668.667-1.058 1.566-1.172 2.698Zm14.062.085V578h-2.075v-12.891h2.026v1.892c.448-.732.993-1.269 1.636-1.611.651-.35 1.384-.525 2.197-.525.871 0 1.665.191 2.381.574.716.374 1.286.94 1.709 1.697.431.757.647 1.709.647 2.856V578h-2.076v-7.861c0-1.115-.268-1.953-.805-2.515-.529-.57-1.278-.854-2.246-.854-.936 0-1.738.288-2.405.866-.659.578-.989 1.518-.989 2.82Zm16.919 7.837c-1.261 0-2.34-.289-3.235-.867-.887-.578-1.566-1.371-2.038-2.38-.472-1.017-.708-2.173-.708-3.467 0-1.31.248-2.474.744-3.491.497-1.017 1.184-1.815 2.063-2.393.879-.586 1.888-.879 3.028-.879 1.196 0 2.233.285 3.112.855.879.57 1.555 1.363 2.027 2.38.48 1.018.72 2.193.72 3.528v.574h-9.644c.049 1.261.411 2.287 1.087 3.076.675.789 1.623 1.184 2.844 1.184.92 0 1.668-.212 2.246-.635a3.019 3.019 0 0 0 1.172-1.635h2.075a4.86 4.86 0 0 1-1.013 2.172 5.305 5.305 0 0 1-1.929 1.453c-.765.35-1.615.525-2.551.525Zm-3.906-7.922h7.544c-.114-1.132-.509-2.031-1.184-2.698-.676-.667-1.542-1.001-2.6-1.001s-1.921.334-2.588 1.001c-.668.667-1.058 1.566-1.172 2.698ZM926.348 578v-12.891h1.978v2.027h.049c.236-.668.61-1.205 1.123-1.612.512-.406 1.171-.61 1.977-.61a5.023 5.023 0 0 1 .879.073v2.075a4 4 0 0 0-.476-.085 4.53 4.53 0 0 0-.794-.061c-.716 0-1.338.252-1.867.757-.529.504-.794 1.302-.794 2.392V578h-2.075Zm11.597.195c-1.278 0-2.348-.329-3.211-.988-.854-.66-1.281-1.632-1.281-2.918 0-.74.142-1.343.427-1.807a3.094 3.094 0 0 1 1.16-1.086 6.243 6.243 0 0 1 1.648-.61 20.025 20.025 0 0 1 1.892-.33c.822-.114 1.469-.199 1.941-.256.472-.057.805-.151 1-.281.204-.13.306-.358.306-.684v-.122c0-.7-.253-1.277-.757-1.733-.497-.456-1.196-.684-2.1-.684-.895 0-1.631.22-2.209.659-.57.432-.879.969-.928 1.612h-2.112c.041-.79.285-1.489.733-2.1.447-.618 1.058-1.107 1.831-1.465.773-.358 1.668-.537 2.685-.537 1.506 0 2.698.391 3.577 1.172.887.773 1.33 1.799 1.33 3.076V578h-2.05v-1.831h-.049a3.982 3.982 0 0 1-.684.94c-.301.309-.708.57-1.22.781-.505.204-1.148.305-1.929.305Zm.293-1.855c.846 0 1.534-.151 2.063-.452.529-.309.915-.708 1.159-1.196a3.461 3.461 0 0 0 .367-1.575v-1.611c-.155.146-.566.281-1.233.403-.668.114-1.372.223-2.112.329a6.659 6.659 0 0 0-1.416.342c-.44.155-.798.378-1.074.671-.277.285-.415.672-.415 1.16 0 .602.236 1.074.708 1.416.48.342 1.131.513 1.953.513Zm14.343-11.231v1.783h-2.612v7.983c0 .496.101.846.305 1.05.212.195.582.293 1.111.293h1.196V578h-1.392c-2.197 0-3.295-.968-3.295-2.905v-8.203h-2.295v-1.783h2.295v-3.515h2.075v3.515h2.612Zm7.239 13.184c-1.262 0-2.34-.289-3.235-.867-.887-.578-1.567-1.371-2.039-2.38-.472-1.017-.708-2.173-.708-3.467 0-1.31.249-2.474.745-3.491s1.184-1.815 2.063-2.393c.879-.586 1.888-.879 3.027-.879 1.197 0 2.234.285 3.113.855.879.57 1.554 1.363 2.026 2.38.481 1.018.721 2.193.721 3.528v.574h-9.644c.049 1.261.411 2.287 1.087 3.076.675.789 1.623 1.184 2.844 1.184.919 0 1.668-.212 2.246-.635a3.024 3.024 0 0 0 1.172-1.635h2.075a4.871 4.871 0 0 1-1.013 2.172 5.305 5.305 0 0 1-1.929 1.453c-.765.35-1.615.525-2.551.525Zm-3.906-7.922h7.544c-.114-1.132-.509-2.031-1.185-2.698-.675-.667-1.542-1.001-2.6-1.001s-1.92.334-2.588 1.001c-.667.667-1.057 1.566-1.171 2.698Zm16.919 7.873c-1.115 0-2.096-.281-2.942-.842-.839-.57-1.49-1.355-1.953-2.356-.464-1.009-.696-2.173-.696-3.491 0-1.327.232-2.491.696-3.492.463-1.009 1.114-1.794 1.953-2.355.846-.562 1.827-.843 2.942-.843a5.14 5.14 0 0 1 2.331.537 3.9 3.9 0 0 1 1.697 1.612h.024v-7.202h2.075V578h-2.026v-1.953h-.024c-.464.74-1.05 1.294-1.758 1.66a5.065 5.065 0 0 1-2.319.537Zm.317-1.868c1.196 0 2.144-.439 2.844-1.318.708-.879 1.062-2.047 1.062-3.503 0-1.457-.354-2.625-1.062-3.504-.7-.887-1.648-1.33-2.844-1.33-1.115 0-2.031.411-2.747 1.233-.708.822-1.062 2.022-1.062 3.601 0 1.578.354 2.779 1.062 3.601.716.814 1.632 1.22 2.747 1.22Zm15.137 6.727v-17.994h2.026v1.905h.024a3.868 3.868 0 0 1 1.722-1.612 5.29 5.29 0 0 1 2.356-.537c1.123 0 2.103.281 2.941.843.839.561 1.49 1.346 1.954 2.355.463 1.001.7 2.165.7 3.492 0 1.318-.237 2.482-.7 3.491-.464 1.001-1.115 1.786-1.954 2.356-.838.561-1.818.842-2.941.842-.839 0-1.604-.179-2.295-.537-.692-.366-1.27-.92-1.734-1.66h-.024v7.056h-2.075Zm5.81-6.727c1.115 0 2.027-.406 2.735-1.22.716-.822 1.074-2.023 1.074-3.601 0-1.579-.358-2.779-1.074-3.601-.708-.822-1.62-1.233-2.735-1.233-1.196 0-2.148.443-2.856 1.33-.7.879-1.05 2.047-1.05 3.504 0 1.456.35 2.624 1.05 3.503.708.879 1.66 1.318 2.856 1.318Zm8.323 1.624v-12.891h1.98v2.027h.05a3.46 3.46 0 0 1 1.12-1.612c.51-.406 1.17-.61 1.98-.61.19 0 .36.008.51.024.16.017.29.033.37.049v2.075a3.915 3.915 0 0 0-.48-.085 4.514 4.514 0 0 0-.79-.061c-.72 0-1.34.252-1.87.757-.53.504-.79 1.302-.79 2.392V578h-2.08Zm13.14.293c-1.19 0-2.24-.285-3.14-.855-.9-.577-1.6-1.371-2.1-2.38s-.74-2.169-.74-3.479c0-1.318.24-2.486.74-3.503.5-1.018 1.2-1.815 2.1-2.393.9-.578 1.95-.867 3.14-.867 1.19 0 2.24.289 3.13.867.9.578 1.6 1.375 2.09 2.393.51 1.017.76 2.185.76 3.503 0 1.31-.25 2.47-.76 3.479-.49 1.009-1.19 1.803-2.09 2.38-.89.57-1.94.855-3.13.855Zm0-1.88c1.22 0 2.17-.439 2.85-1.318.69-.887 1.03-2.059 1.03-3.516 0-1.473-.35-2.653-1.04-3.54-.68-.895-1.63-1.343-2.84-1.343-1.22 0-2.17.444-2.86 1.331-.68.887-1.02 2.071-1.02 3.552 0 1.465.34 2.637 1.02 3.516.68.879 1.64 1.318 2.86 1.318Zm13.72 1.88c-1.19 0-2.24-.285-3.14-.855-.89-.577-1.59-1.371-2.1-2.38-.5-1.009-.74-2.169-.74-3.479 0-1.318.24-2.486.74-3.503.51-1.018 1.21-1.815 2.1-2.393.9-.578 1.95-.867 3.14-.867 1.19 0 2.24.289 3.14.867.89.578 1.59 1.375 2.08 2.393.51 1.017.76 2.185.76 3.503 0 1.31-.25 2.47-.76 3.479a5.797 5.797 0 0 1-2.08 2.38c-.9.57-1.95.855-3.14.855Zm0-1.88c1.22 0 2.17-.439 2.85-1.318.69-.887 1.03-2.059 1.03-3.516 0-1.473-.35-2.653-1.04-3.54-.68-.895-1.63-1.343-2.84-1.343s-2.17.444-2.86 1.331c-.68.887-1.02 2.071-1.02 3.552 0 1.465.34 2.637 1.02 3.516.68.879 1.64 1.318 2.86 1.318Zm14.02-11.304v1.783h-2.61V578h-2.07v-11.108h-2.3v-1.783h2.3v-2.295c0-.919.3-1.647.91-2.185.61-.545 1.44-.817 2.48-.817h1.29v1.782h-1.09c-.55 0-.94.118-1.18.354-.22.236-.34.63-.34 1.184v1.977h2.61Zm-132.186 25v1.783h-2.613V603h-2.075v-11.108h-2.295v-1.783h2.295v-2.295c0-.919.305-1.647.916-2.185.61-.545 1.436-.817 2.478-.817h1.294v1.782h-1.099c-.545 0-.936.118-1.172.354-.228.236-.342.63-.342 1.184v1.977h2.613Zm7.116 13.184c-1.188 0-2.233-.285-3.137-.855-.895-.577-1.595-1.371-2.099-2.38-.497-1.009-.745-2.169-.745-3.479 0-1.318.248-2.486.745-3.503.504-1.018 1.204-1.815 2.099-2.393.904-.578 1.949-.867 3.137-.867 1.197 0 2.242.289 3.138.867.895.578 1.591 1.375 2.087 2.393.505 1.017.757 2.185.757 3.503 0 1.31-.252 2.47-.757 3.479-.496 1.009-1.192 1.803-2.087 2.38-.896.57-1.941.855-3.138.855Zm0-1.88c1.221 0 2.173-.439 2.857-1.318.684-.887 1.025-2.059 1.025-3.516 0-1.473-.346-2.653-1.037-3.54-.684-.895-1.632-1.343-2.845-1.343-1.212 0-2.164.444-2.856 1.331-.684.887-1.025 2.071-1.025 3.552 0 1.465.341 2.637 1.025 3.516.684.879 1.636 1.318 2.856 1.318Zm8.399 1.587v-12.891h1.977v2.027h.049c.236-.668.611-1.205 1.123-1.612.513-.406 1.172-.61 1.978-.61a5.023 5.023 0 0 1 .879.073v2.075a4.042 4.042 0 0 0-.476-.085 4.538 4.538 0 0 0-.794-.061c-.716 0-1.338.252-1.867.757-.529.504-.794 1.302-.794 2.392V603h-2.075Zm20.434.244a5.065 5.065 0 0 1-2.319-.537c-.708-.366-1.294-.92-1.758-1.66h-.024V603h-2.026v-18.188h2.075v7.202h.024a3.9 3.9 0 0 1 1.697-1.612 5.14 5.14 0 0 1 2.331-.537c1.124 0 2.104.281 2.942.843.839.561 1.49 1.346 1.953 2.355.464 1.001.696 2.165.696 3.492 0 1.318-.232 2.482-.696 3.491-.463 1.001-1.114 1.786-1.953 2.356-.838.561-1.818.842-2.942.842Zm-.317-1.868c1.115 0 2.026-.406 2.734-1.22.717-.822 1.075-2.023 1.075-3.601 0-1.579-.358-2.779-1.075-3.601-.708-.822-1.619-1.233-2.734-1.233-1.196 0-2.148.443-2.856 1.33-.7.879-1.05 2.047-1.05 3.504 0 1.456.35 2.624 1.05 3.503.708.879 1.66 1.318 2.856 1.318Zm10.4-16.564V603h-2.075v-18.188h2.075Zm8.399 18.481c-1.188 0-2.234-.285-3.137-.855-.895-.577-1.595-1.371-2.1-2.38-.496-1.009-.745-2.169-.745-3.479 0-1.318.249-2.486.745-3.503.505-1.018 1.205-1.815 2.1-2.393.903-.578 1.949-.867 3.137-.867 1.196 0 2.242.289 3.137.867.895.578 1.591 1.375 2.088 2.393.504 1.017.756 2.185.756 3.503 0 1.31-.252 2.47-.756 3.479-.497 1.009-1.193 1.803-2.088 2.38-.895.57-1.941.855-3.137.855Zm0-1.88c1.221 0 2.173-.439 2.856-1.318.684-.887 1.026-2.059 1.026-3.516 0-1.473-.346-2.653-1.038-3.54-.683-.895-1.632-1.343-2.844-1.343-1.213 0-2.165.444-2.857 1.331-.683.887-1.025 2.071-1.025 3.552 0 1.465.342 2.637 1.025 3.516.684.879 1.636 1.318 2.857 1.318Zm13.721 1.88c-1.189 0-2.234-.285-3.138-.855-.895-.577-1.595-1.371-2.099-2.38-.497-1.009-.745-2.169-.745-3.479 0-1.318.248-2.486.745-3.503.504-1.018 1.204-1.815 2.099-2.393.904-.578 1.949-.867 3.138-.867.976 0 1.851.196 2.624.586a5.072 5.072 0 0 1 1.892 1.587c.497.676.802 1.449.916 2.32h-2.1a3.27 3.27 0 0 0-1.074-1.868c-.553-.497-1.306-.745-2.258-.745-1.213 0-2.165.444-2.857 1.331-.683.887-1.025 2.071-1.025 3.552 0 1.465.342 2.637 1.025 3.516.684.879 1.636 1.318 2.857 1.318.968 0 1.709-.236 2.221-.708.513-.48.871-1.115 1.075-1.904h2.136a4.973 4.973 0 0 1-.916 2.295 5.258 5.258 0 0 1-1.904 1.611c-.773.391-1.644.586-2.612.586Zm7.763-.293v-18.188h2.075v11.096h.025l5.994-5.799h2.685l-5.676 5.518 6.091 7.373h-2.637l-5.041-6.067-1.441 1.306V603h-2.075Zm17.191.293c-.92 0-1.76-.151-2.51-.452a4.242 4.242 0 0 1-1.814-1.367c-.464-.618-.725-1.396-.782-2.331h2.056c.14 1.578 1.14 2.368 3 2.368.89 0 1.6-.187 2.11-.562.52-.374.78-.846.78-1.416 0-.488-.18-.879-.54-1.172-.35-.293-.82-.504-1.4-.634l-2.08-.489c-2.42-.569-3.633-1.79-3.633-3.662 0-.732.196-1.379.586-1.941.397-.569.947-1.013 1.647-1.33.71-.326 1.52-.489 2.44-.489.9 0 1.7.171 2.41.513.71.334 1.28.81 1.69 1.428.43.619.65 1.355.68 2.21h-2.03c-.01-.684-.26-1.249-.76-1.697-.49-.448-1.16-.671-1.99-.671-.79 0-1.42.191-1.89.573-.47.383-.71.851-.71 1.404 0 .488.18.883.54 1.184.36.293.85.513 1.46.659l2.08.489c1.24.293 2.14.732 2.72 1.318.58.578.87 1.331.87 2.258 0 .798-.22 1.481-.65 2.051-.43.57-1.02 1.005-1.77 1.306-.74.301-1.58.452-2.51.452ZM918.133 791.293c-1.424 0-2.669-.281-3.736-.842-1.057-.562-1.879-1.327-2.465-2.295-.586-.977-.879-2.088-.879-3.333v-12.011h2.197v11.84c0 .887.195 1.677.586 2.369a4.187 4.187 0 0 0 1.685 1.635c.732.391 1.603.586 2.612.586 1.017 0 1.888-.195 2.612-.586a4.187 4.187 0 0 0 1.685-1.635c.39-.692.586-1.482.586-2.369v-11.84h2.197v12.011c0 1.245-.293 2.356-.879 3.333-.586.968-1.408 1.733-2.466 2.295-1.058.561-2.303.842-3.735.842Zm10.327 4.81v-17.994h2.026v1.905h.025a3.871 3.871 0 0 1 1.721-1.612 5.293 5.293 0 0 1 2.356-.537c1.123 0 2.104.281 2.942.843.838.561 1.489 1.346 1.953 2.355.464 1.001.696 2.165.696 3.492 0 1.318-.232 2.482-.696 3.491-.464 1.001-1.115 1.786-1.953 2.356-.838.561-1.819.842-2.942.842a4.92 4.92 0 0 1-2.295-.537c-.692-.366-1.27-.92-1.733-1.66h-.025v7.056h-2.075Zm5.811-6.727c1.114 0 2.026-.406 2.734-1.22.716-.822 1.074-2.023 1.074-3.601 0-1.579-.358-2.779-1.074-3.601-.708-.822-1.62-1.233-2.734-1.233-1.197 0-2.149.443-2.857 1.33-.7.879-1.05 2.047-1.05 3.504 0 1.456.35 2.624 1.05 3.503.708.879 1.66 1.318 2.857 1.318Zm13.256 1.868c-1.115 0-2.095-.281-2.942-.842-.838-.57-1.489-1.355-1.953-2.356-.464-1.009-.695-2.173-.695-3.491 0-1.327.231-2.491.695-3.492.464-1.009 1.115-1.794 1.953-2.355.847-.562 1.827-.843 2.942-.843a5.14 5.14 0 0 1 2.332.537 3.9 3.9 0 0 1 1.697 1.612h.024v-7.202h2.075V791h-2.026v-1.953h-.025c-.463.74-1.049 1.294-1.757 1.66a5.066 5.066 0 0 1-2.32.537Zm.318-1.868c1.196 0 2.144-.439 2.844-1.318.708-.879 1.062-2.047 1.062-3.503 0-1.457-.354-2.625-1.062-3.504-.7-.887-1.648-1.33-2.844-1.33-1.115 0-2.031.411-2.747 1.233-.708.822-1.062 2.022-1.062 3.601 0 1.578.354 2.779 1.062 3.601.716.814 1.632 1.22 2.747 1.22Zm12.817 1.819c-1.278 0-2.348-.329-3.21-.988-.855-.66-1.282-1.632-1.282-2.918 0-.74.142-1.343.427-1.807.293-.463.68-.826 1.16-1.086a6.243 6.243 0 0 1 1.648-.61 20.025 20.025 0 0 1 1.892-.33c.822-.114 1.469-.199 1.941-.256.472-.057.805-.151 1.001-.281.203-.13.305-.358.305-.684v-.122c0-.7-.252-1.277-.757-1.733-.496-.456-1.196-.684-2.099-.684-.896 0-1.632.22-2.21.659-.57.432-.879.969-.928 1.612h-2.112c.041-.79.285-1.489.733-2.1.447-.618 1.058-1.107 1.831-1.465.773-.358 1.668-.537 2.686-.537 1.505 0 2.697.391 3.576 1.172.887.773 1.331 1.799 1.331 3.076V791h-2.051v-1.831h-.049a3.975 3.975 0 0 1-.683.94c-.302.309-.708.57-1.221.781-.505.204-1.148.305-1.929.305Zm.293-1.855c.846 0 1.534-.151 2.063-.452.529-.309.916-.708 1.16-1.196a3.473 3.473 0 0 0 .366-1.575v-1.611c-.155.146-.566.281-1.233.403-.667.114-1.371.223-2.112.329a6.659 6.659 0 0 0-1.416.342 2.67 2.67 0 0 0-1.074.671c-.277.285-.415.672-.415 1.16 0 .602.236 1.074.708 1.416.48.342 1.131.513 1.953.513Zm14.343-11.231v1.783h-2.612v7.983c0 .496.102.846.305 1.05.212.195.582.293 1.111.293h1.196V791h-1.391c-2.198 0-3.296-.968-3.296-2.905v-8.203h-2.295v-1.783h2.295v-3.515h2.075v3.515h2.612Zm7.239 13.184c-1.261 0-2.34-.289-3.235-.867-.887-.578-1.566-1.371-2.038-2.38-.472-1.017-.708-2.173-.708-3.467 0-1.31.248-2.474.744-3.491.497-1.017 1.184-1.815 2.063-2.393.879-.586 1.888-.879 3.028-.879 1.196 0 2.234.285 3.112.855.879.57 1.555 1.363 2.027 2.38.48 1.018.72 2.193.72 3.528v.574h-9.644c.049 1.261.411 2.287 1.087 3.076.675.789 1.623 1.184 2.844 1.184.92 0 1.668-.212 2.246-.635a3.019 3.019 0 0 0 1.172-1.635h2.075a4.85 4.85 0 0 1-1.013 2.172 5.305 5.305 0 0 1-1.929 1.453c-.765.35-1.615.525-2.551.525Zm-3.906-7.922h7.544c-.114-1.132-.509-2.031-1.184-2.698-.676-.667-1.542-1.001-2.6-1.001s-1.921.334-2.588 1.001c-.668.667-1.058 1.566-1.172 2.698Zm16.479 7.922c-.919 0-1.753-.151-2.502-.452a4.204 4.204 0 0 1-1.819-1.367c-.464-.618-.724-1.396-.781-2.331h2.051c.146 1.578 1.147 2.368 3.003 2.368.895 0 1.599-.187 2.111-.562.521-.374.782-.846.782-1.416 0-.488-.179-.879-.538-1.172-.358-.293-.826-.504-1.403-.634l-2.076-.489c-2.425-.569-3.637-1.79-3.637-3.662 0-.732.195-1.379.586-1.941.398-.569.948-1.013 1.648-1.33.708-.326 1.521-.489 2.441-.489.895 0 1.697.171 2.405.513.716.334 1.282.81 1.697 1.428.423.619.647 1.355.671 2.21h-2.026c-.008-.684-.261-1.249-.757-1.697-.497-.448-1.16-.671-1.99-.671-.789 0-1.42.191-1.892.573-.472.383-.708.851-.708 1.404 0 .488.179.883.537 1.184.358.293.846.513 1.465.659l2.075.489c1.237.293 2.144.732 2.722 1.318.578.578.865 1.331.865 2.258 0 .798-.214 1.481-.645 2.051-.431.57-1.021 1.005-1.77 1.306-.741.301-1.579.452-2.515.452Zm18.95 0c-1.19 0-2.24-.285-3.14-.855-.9-.577-1.6-1.371-2.1-2.38s-.75-2.169-.75-3.479c0-1.318.25-2.486.75-3.503.5-1.018 1.2-1.815 2.1-2.393.9-.578 1.95-.867 3.14-.867.97 0 1.85.196 2.62.586.77.383 1.4.912 1.89 1.587.5.676.8 1.449.92 2.32h-2.1c-.16-.757-.51-1.38-1.08-1.868-.55-.497-1.3-.745-2.25-.745-1.22 0-2.17.444-2.86 1.331-.68.887-1.03 2.071-1.03 3.552 0 1.465.35 2.637 1.03 3.516s1.63 1.318 2.86 1.318c.96 0 1.7-.236 2.22-.708.51-.48.87-1.115 1.07-1.904h2.14a5.012 5.012 0 0 1-.92 2.295 5.27 5.27 0 0 1-1.9 1.611c-.78.391-1.65.586-2.61.586Zm13.08 0c-1.19 0-2.23-.285-3.14-.855-.89-.577-1.59-1.371-2.1-2.38-.49-1.009-.74-2.169-.74-3.479 0-1.318.25-2.486.74-3.503.51-1.018 1.21-1.815 2.1-2.393.91-.578 1.95-.867 3.14-.867 1.2 0 2.24.289 3.14.867.89.578 1.59 1.375 2.09 2.393.5 1.017.75 2.185.75 3.503 0 1.31-.25 2.47-.75 3.479s-1.2 1.803-2.09 2.38c-.9.57-1.94.855-3.14.855Zm0-1.88c1.22 0 2.17-.439 2.86-1.318.68-.887 1.02-2.059 1.02-3.516 0-1.473-.34-2.653-1.03-3.54-.69-.895-1.64-1.343-2.85-1.343-1.21 0-2.16.444-2.85 1.331s-1.03 2.071-1.03 3.552c0 1.465.34 2.637 1.03 3.516.68.879 1.63 1.318 2.85 1.318Zm13.14 1.831c-.87 0-1.66-.187-2.38-.561-.72-.383-1.29-.953-1.73-1.709-.42-.765-.63-1.717-.63-2.857v-8.008h2.08v7.862c0 1.115.26 1.957.8 2.527.54.561 1.29.842 2.25.842.94 0 1.74-.289 2.4-.867.66-.578.99-1.518.99-2.82v-7.544h2.08V791h-2.03v-1.892c-.45.732-1 1.274-1.65 1.623-.64.342-1.37.513-2.18.513Zm11.01-7.788V791h-2.08v-12.891h2.03v1.892c.45-.732.99-1.269 1.63-1.611.66-.35 1.39-.525 2.2-.525.87 0 1.67.191 2.38.574.72.374 1.29.94 1.71 1.697.43.757.65 1.709.65 2.856V791h-2.08v-7.861c0-1.115-.27-1.953-.8-2.515-.53-.57-1.28-.854-2.25-.854-.94 0-1.74.288-2.4.866-.66.578-.99 1.518-.99 2.82Zm17.22-5.347v1.783h-2.61v7.983c0 .496.1.846.3 1.05.22.195.59.293 1.11.293h1.2V791h-1.39c-2.2 0-3.3-.968-3.3-2.905v-8.203h-2.29v-1.783h2.29v-3.515h2.08v3.515h2.61Zm7.24 13.184c-1.26 0-2.34-.289-3.23-.867-.89-.578-1.57-1.371-2.04-2.38-.48-1.017-.71-2.173-.71-3.467 0-1.31.25-2.474.74-3.491.5-1.017 1.19-1.815 2.07-2.393.88-.586 1.88-.879 3.02-.879 1.2 0 2.24.285 3.12.855.88.57 1.55 1.363 2.02 2.38.48 1.018.72 2.193.72 3.528v.574h-9.64c.05 1.261.41 2.287 1.09 3.076.67.789 1.62 1.184 2.84 1.184.92 0 1.67-.212 2.25-.635.58-.423.97-.968 1.17-1.635h2.07c-.16.822-.5 1.546-1.01 2.172a5.308 5.308 0 0 1-1.93 1.453c-.76.35-1.61.525-2.55.525Zm-3.91-7.922h7.55c-.12-1.132-.51-2.031-1.19-2.698-.67-.667-1.54-1.001-2.6-1.001-1.05 0-1.92.334-2.58 1.001-.67.667-1.06 1.566-1.18 2.698Zm11.99 7.629v-12.891h1.98v2.027h.05a3.46 3.46 0 0 1 1.12-1.612c.51-.406 1.17-.61 1.98-.61.19 0 .36.008.51.024.16.017.29.033.37.049v2.075a3.915 3.915 0 0 0-.48-.085 4.514 4.514 0 0 0-.79-.061c-.72 0-1.34.252-1.87.757-.53.504-.79 1.302-.79 2.392V791h-2.08Zm8.06 5.103v-17.994h2.02v1.905h.03c.41-.725.99-1.262 1.72-1.612a5.298 5.298 0 0 1 2.36-.537c1.12 0 2.1.281 2.94.843.84.561 1.49 1.346 1.95 2.355.46 1.001.7 2.165.7 3.492 0 1.318-.24 2.482-.7 3.491-.46 1.001-1.11 1.786-1.95 2.356-.84.561-1.82.842-2.94.842-.84 0-1.61-.179-2.3-.537-.69-.366-1.27-.92-1.73-1.66h-.03v7.056h-2.07Zm5.81-6.727c1.11 0 2.02-.406 2.73-1.22.72-.822 1.08-2.023 1.08-3.601 0-1.579-.36-2.779-1.08-3.601-.71-.822-1.62-1.233-2.73-1.233-1.2 0-2.15.443-2.86 1.33-.7.879-1.05 2.047-1.05 3.504 0 1.456.35 2.624 1.05 3.503.71.879 1.66 1.318 2.86 1.318Zm12.38 1.819c-1.28 0-2.35-.329-3.21-.988-.86-.66-1.29-1.632-1.29-2.918 0-.74.15-1.343.43-1.807a3.08 3.08 0 0 1 1.16-1.086 6.297 6.297 0 0 1 1.65-.61c.62-.139 1.25-.249 1.89-.33.82-.114 1.47-.199 1.94-.256.47-.057.81-.151 1-.281.21-.13.31-.358.31-.684v-.122c0-.7-.25-1.277-.76-1.733-.5-.456-1.2-.684-2.1-.684-.89 0-1.63.22-2.21.659-.57.432-.88.969-.93 1.612h-2.11c.04-.79.29-1.489.73-2.1.45-.618 1.06-1.107 1.84-1.465.77-.358 1.66-.537 2.68-.537 1.51 0 2.7.391 3.58 1.172.89.773 1.33 1.799 1.33 3.076V791h-2.05v-1.831h-.05c-.16.309-.38.623-.68.94-.31.309-.71.57-1.23.781-.5.204-1.14.305-1.92.305Zm.29-1.855c.85 0 1.53-.151 2.06-.452.53-.309.92-.708 1.16-1.196a3.4 3.4 0 0 0 .37-1.575v-1.611c-.16.146-.57.281-1.23.403-.67.114-1.38.223-2.12.329-.49.065-.97.179-1.41.342-.44.155-.8.378-1.08.671-.27.285-.41.672-.41 1.16 0 .602.23 1.074.71 1.416.48.342 1.13.513 1.95.513Zm8.71 1.66v-12.891h1.98v2.027h.05c.24-.668.61-1.205 1.12-1.612.52-.406 1.18-.61 1.98-.61.19 0 .36.008.51.024.17.017.29.033.37.049v2.075a3.915 3.915 0 0 0-.48-.085 4.435 4.435 0 0 0-.79-.061c-.71 0-1.34.252-1.87.757-.53.504-.79 1.302-.79 2.392V791h-2.08Zm14.08-12.891v1.783h-2.61v7.983c0 .496.1.846.3 1.05.21.195.58.293 1.11.293h1.2V791h-1.39c-2.2 0-3.3-.968-3.3-2.905v-8.203h-2.29v-1.783h2.29v-3.515h2.08v3.515h2.61Zm2.99 17.994v-1.832h1.27c.76 0 1.35-.516 1.75-1.55l.7-1.831-4.99-12.781h2.25l2.78 7.422c.18.48.35.965.53 1.453l.51 1.44.51-1.44c.18-.488.36-.973.54-1.453l2.73-7.422h2.21l-5.94 15.284c-.34.862-.81 1.53-1.43 2.002-.62.472-1.34.708-2.15.708h-1.27Zm21.78-5.103-4.01-12.891h2.18l1.62 5.664c.23.782.44 1.579.65 2.393.21.814.42 1.619.63 2.417.21-.798.43-1.603.64-2.417.21-.814.43-1.611.66-2.393l1.63-5.664h2.05l1.61 5.664c.22.774.44 1.563.64 2.369.21.805.42 1.599.63 2.38.21-.781.43-1.575.64-2.38.21-.806.43-1.595.66-2.369l1.66-5.664h2.17l-4 12.891h-2.18l-1.69-5.859c-.21-.708-.4-1.429-.59-2.161-.19-.741-.38-1.473-.57-2.197-.19.724-.38 1.456-.58 2.197-.19.732-.39 1.453-.59 2.161l-1.74 5.859h-2.12Zm15.96 0v-12.891h2.08V791h-2.08Zm1.04-15.405c-.39 0-.72-.139-1-.415a1.348 1.348 0 0 1-.41-1.001c0-.391.13-.725.41-1.001.28-.277.61-.415 1-.415s.73.138 1 .415c.28.276.42.61.42 1.001 0 .39-.14.724-.42 1.001-.27.276-.61.415-1 .415Zm9.99 2.514v1.783h-2.61v7.983c0 .496.1.846.3 1.05.21.195.58.293 1.11.293h1.2V791h-1.39c-2.2 0-3.3-.968-3.3-2.905v-8.203h-2.29v-1.783h2.29v-3.515h2.08v3.515h2.61Zm4.23 5.347V791h-2.07v-18.188h2.07v7.104c.45-.7.99-1.217 1.63-1.55.64-.334 1.36-.501 2.16-.501.87 0 1.66.191 2.38.574.71.374 1.28.94 1.71 1.697.43.757.64 1.709.64 2.856V791h-2.07v-7.861c0-1.115-.27-1.953-.81-2.515-.53-.57-1.27-.854-2.24-.854-.94 0-1.74.288-2.41.866-.66.578-.99 1.518-.99 2.82Zm25.1 7.837c-1.42 0-2.67-.281-3.73-.842-1.06-.562-1.88-1.327-2.47-2.295-.59-.977-.88-2.088-.88-3.333v-12.011h2.2v11.84c0 .887.19 1.677.58 2.369.39.691.96 1.236 1.69 1.635.73.391 1.6.586 2.61.586 1.02 0 1.89-.195 2.61-.586a4.15 4.15 0 0 0 1.69-1.635c.39-.692.58-1.482.58-2.369v-11.84h2.2v12.011c0 1.245-.29 2.356-.88 3.333-.58.968-1.41 1.733-2.46 2.295-1.06.561-2.31.842-3.74.842Zm12.4-7.837V791h-2.07v-12.891h2.02v1.892c.45-.732 1-1.269 1.64-1.611.65-.35 1.38-.525 2.2-.525.87 0 1.66.191 2.38.574.71.374 1.28.94 1.71 1.697.43.757.64 1.709.64 2.856V791h-2.07v-7.861c0-1.115-.27-1.953-.81-2.515-.53-.57-1.27-.854-2.24-.854-.94 0-1.74.288-2.41.866-.66.578-.99 1.518-.99 2.82Zm11.6 7.544v-12.891h2.08V791h-2.08Zm1.04-15.405c-.39 0-.73-.139-1-.415a1.358 1.358 0 0 1-.42-1.001c0-.391.14-.725.42-1.001.27-.277.61-.415 1-.415s.72.138 1 .415c.28.276.41.61.41 1.001 0 .39-.13.724-.41 1.001-.28.276-.61.415-1 .415Zm9.43 15.698c-1.18 0-2.23-.285-3.13-.855-.9-.577-1.6-1.371-2.1-2.38s-.75-2.169-.75-3.479c0-1.318.25-2.486.75-3.503.5-1.018 1.2-1.815 2.1-2.393.9-.578 1.95-.867 3.13-.867 1.2 0 2.25.289 3.14.867.9.578 1.59 1.375 2.09 2.393.5 1.017.76 2.185.76 3.503 0 1.31-.26 2.47-.76 3.479s-1.19 1.803-2.09 2.38c-.89.57-1.94.855-3.14.855Zm0-1.88c1.22 0 2.18-.439 2.86-1.318.68-.887 1.03-2.059 1.03-3.516 0-1.473-.35-2.653-1.04-3.54-.69-.895-1.63-1.343-2.85-1.343-1.21 0-2.16.444-2.85 1.331s-1.03 2.071-1.03 3.552c0 1.465.34 2.637 1.03 3.516.68.879 1.63 1.318 2.85 1.318Zm10.48-5.957V791h-2.08v-12.891h2.03v1.892c.45-.732.99-1.269 1.63-1.611.66-.35 1.39-.525 2.2-.525.87 0 1.67.191 2.38.574.72.374 1.29.94 1.71 1.697.43.757.65 1.709.65 2.856V791h-2.08v-7.861c0-1.115-.27-1.953-.8-2.515-.53-.57-1.28-.854-2.25-.854-.94 0-1.74.288-2.4.866-.66.578-.99 1.518-.99 2.82Zm22.34 7.837c-.92 0-1.76-.151-2.51-.452a4.236 4.236 0 0 1-1.82-1.367c-.46-.618-.72-1.396-.78-2.331h2.05c.15 1.578 1.15 2.368 3.01 2.368.89 0 1.6-.187 2.11-.562.52-.374.78-.846.78-1.416 0-.488-.18-.879-.54-1.172-.35-.293-.82-.504-1.4-.634l-2.08-.489c-2.42-.569-3.63-1.79-3.63-3.662 0-.732.19-1.379.58-1.941.4-.569.95-1.013 1.65-1.33.71-.326 1.52-.489 2.44-.489.9 0 1.7.171 2.41.513.71.334 1.28.81 1.69 1.428.43.619.65 1.355.67 2.21h-2.02c-.01-.684-.26-1.249-.76-1.697-.49-.448-1.16-.671-1.99-.671-.79 0-1.42.191-1.89.573-.47.383-.71.851-.71 1.404 0 .488.18.883.54 1.184.36.293.85.513 1.46.659l2.08.489c1.24.293 2.14.732 2.72 1.318.58.578.87 1.331.87 2.258 0 .798-.22 1.481-.65 2.051-.43.57-1.02 1.005-1.77 1.306-.74.301-1.58.452-2.51.452Zm13.24-13.184v1.783h-2.61v7.983c0 .496.1.846.3 1.05.22.195.59.293 1.11.293h1.2V791h-1.39c-2.2 0-3.3-.968-3.3-2.905v-8.203h-2.29v-1.783h2.29v-3.515h2.08v3.515h2.61Zm6.46 13.086c-1.28 0-2.35-.329-3.21-.988-.86-.66-1.28-1.632-1.28-2.918 0-.74.14-1.343.42-1.807.3-.463.68-.826 1.16-1.086a6.297 6.297 0 0 1 1.65-.61c.62-.139 1.25-.249 1.89-.33.82-.114 1.47-.199 1.94-.256.48-.057.81-.151 1-.281.21-.13.31-.358.31-.684v-.122c0-.7-.25-1.277-.76-1.733-.49-.456-1.19-.684-2.1-.684-.89 0-1.63.22-2.21.659-.57.432-.87.969-.92 1.612h-2.12c.05-.79.29-1.489.74-2.1.44-.618 1.06-1.107 1.83-1.465.77-.358 1.67-.537 2.68-.537 1.51 0 2.7.391 3.58 1.172.89.773 1.33 1.799 1.33 3.076V791h-2.05v-1.831h-.05c-.15.309-.38.623-.68.94-.3.309-.71.57-1.22.781-.51.204-1.15.305-1.93.305Zm.29-1.855c.85 0 1.54-.151 2.06-.452.53-.309.92-.708 1.16-1.196a3.4 3.4 0 0 0 .37-1.575v-1.611c-.15.146-.57.281-1.23.403-.67.114-1.37.223-2.11.329-.5.065-.97.179-1.42.342-.44.155-.8.378-1.07.671-.28.285-.42.672-.42 1.16 0 .602.24 1.074.71 1.416.48.342 1.13.513 1.95.513Zm14.34-11.231v1.783h-2.61v7.983c0 .496.1.846.31 1.05.21.195.58.293 1.11.293h1.19V791h-1.39c-2.19 0-3.29-.968-3.29-2.905v-8.203h-2.3v-1.783h2.3v-3.515h2.07v3.515h2.61Zm7.24 13.184c-1.26 0-2.34-.289-3.23-.867-.89-.578-1.57-1.371-2.04-2.38-.47-1.017-.71-2.173-.71-3.467 0-1.31.25-2.474.75-3.491.49-1.017 1.18-1.815 2.06-2.393.88-.586 1.89-.879 3.03-.879 1.19 0 2.23.285 3.11.855.88.57 1.55 1.363 2.03 2.38.48 1.018.72 2.193.72 3.528v.574h-9.65c.05 1.261.41 2.287 1.09 3.076.67.789 1.62 1.184 2.84 1.184.92 0 1.67-.212 2.25-.635.59-.423.98-.968 1.17-1.635h2.08c-.17.822-.5 1.546-1.02 2.172a5.225 5.225 0 0 1-1.93 1.453c-.76.35-1.61.525-2.55.525Zm-3.9-7.922h7.54c-.11-1.132-.51-2.031-1.18-2.698-.68-.667-1.55-1.001-2.6-1.001-1.06 0-1.92.334-2.59 1.001-.67.667-1.06 1.566-1.17 2.698Z" />
  <rect width="229" height="401" x="177.5" y="316.5" fill="#A0ECFD" fill-opacity=".2" rx="20.5" />
  <rect width="229" height="401" x="177.5" y="316.5" stroke="#A0ECFD" rx="20.5" />
  <path fill="#A0ECFD"
    d="M242.024 535.586c-3.027 0-5.664-.553-7.91-1.66-2.246-1.123-3.987-2.678-5.224-4.663-1.221-2.002-1.831-4.313-1.831-6.934v-23.706h7.348v23.096c0 2.132.692 3.898 2.075 5.298 1.384 1.383 3.231 2.075 5.542 2.075 2.328 0 4.183-.692 5.567-2.075 1.383-1.384 2.075-3.15 2.075-5.298v-23.096h7.349v23.706c0 2.621-.619 4.932-1.856 6.934-1.237 1.985-2.978 3.54-5.224 4.663-2.247 1.107-4.883 1.66-7.911 1.66Zm27.344-14.917V535h-7.202v-25.781h7.08v4.052c.879-1.464 1.978-2.596 3.296-3.393 1.318-.798 2.905-1.196 4.761-1.196 2.734 0 4.923.887 6.567 2.661 1.644 1.758 2.466 4.264 2.466 7.519V535h-7.178v-14.819c0-1.726-.415-3.036-1.245-3.931-.83-.911-1.994-1.367-3.491-1.367-1.481 0-2.694.464-3.638 1.391-.944.928-1.416 2.393-1.416 4.395ZM291.463 535v-25.781h7.202V535h-7.202Zm3.589-29.028c-1.188 0-2.173-.358-2.954-1.075-.782-.732-1.172-1.652-1.172-2.758 0-1.107.39-2.019 1.172-2.735.781-.732 1.766-1.098 2.954-1.098 1.172 0 2.148.366 2.929 1.098.782.716 1.172 1.628 1.172 2.735 0 1.106-.39 2.026-1.172 2.758-.781.717-1.757 1.075-2.929 1.075Zm20.678 29.614c-2.604 0-4.89-.562-6.86-1.685-1.953-1.123-3.483-2.685-4.59-4.687-1.09-2.018-1.635-4.378-1.635-7.08s.545-5.062 1.635-7.08c1.107-2.019 2.637-3.589 4.59-4.712 1.97-1.14 4.256-1.709 6.86-1.709 2.621 0 4.908.569 6.861 1.709 1.969 1.123 3.499 2.693 4.59 4.712 1.106 2.018 1.66 4.378 1.66 7.08 0 2.685-.554 5.037-1.66 7.055-1.091 2.019-2.621 3.589-4.59 4.712-1.953 1.123-4.24 1.685-6.861 1.685Zm0-5.835c1.758 0 3.174-.667 4.249-2.002 1.074-1.351 1.611-3.223 1.611-5.615 0-2.409-.537-4.289-1.611-5.64-1.075-1.351-2.491-2.026-4.249-2.026-1.741 0-3.149.675-4.223 2.026-1.074 1.351-1.611 3.231-1.611 5.64 0 2.392.537 4.264 1.611 5.615 1.074 1.335 2.482 2.002 4.223 2.002Zm24.292-9.082V535h-7.202v-25.781h7.08v4.052c.879-1.464 1.978-2.596 3.296-3.393 1.319-.798 2.906-1.196 4.761-1.196 2.734 0 4.924.887 6.567 2.661 1.644 1.758 2.466 4.264 2.466 7.519V535h-7.178v-14.819c0-1.726-.415-3.036-1.245-3.931-.83-.911-1.993-1.367-3.491-1.367-1.481 0-2.694.464-3.638 1.391-.944.928-1.416 2.393-1.416 4.395Z" />
  <rect width="229" height="401" x="620.5" y="316.5" fill="#A0ECFD" fill-opacity=".2" rx="20.5" />
  <rect width="229" height="401" x="620.5" y="316.5" stroke="#A0ECFD" rx="20.5" />
  <path fill="#A0ECFD"
    d="m652.725 535-12.769-36.377h8.179l5.884 17.7a319.378 319.378 0 0 1 1.709 5.567 934.823 934.823 0 0 1 1.855 6.274c.635-2.23 1.229-4.321 1.782-6.274.57-1.97 1.123-3.825 1.66-5.567l5.689-17.7h8.081L662.295 535h-9.57Zm32.861.586c-2.604 0-4.891-.562-6.86-1.685-1.954-1.123-3.483-2.685-4.59-4.687-1.091-2.018-1.636-4.378-1.636-7.08s.545-5.062 1.636-7.08c1.107-2.019 2.636-3.589 4.59-4.712 1.969-1.14 4.256-1.709 6.86-1.709 2.62 0 4.907.569 6.86 1.709 1.97 1.123 3.5 2.693 4.59 4.712 1.107 2.018 1.66 4.378 1.66 7.08 0 2.685-.553 5.037-1.66 7.055-1.09 2.019-2.62 3.589-4.59 4.712-1.953 1.123-4.24 1.685-6.86 1.685Zm0-5.835c1.758 0 3.174-.667 4.248-2.002 1.074-1.351 1.611-3.223 1.611-5.615 0-2.409-.537-4.289-1.611-5.64-1.074-1.351-2.49-2.026-4.248-2.026-1.742 0-3.149.675-4.224 2.026-1.074 1.351-1.611 3.231-1.611 5.64 0 2.392.537 4.264 1.611 5.615 1.075 1.335 2.482 2.002 4.224 2.002Zm16.797 15.454v-5.688h3.271c.863 0 1.498-.212 1.905-.635.423-.407.805-1.107 1.147-2.1l.708-1.88-9.912-25.683h7.544l4.321 12.744c.293.928.578 1.855.855 2.783.293.928.577 1.856.854 2.783.277-.927.562-1.855.855-2.783.293-.944.586-1.872.879-2.783l4.345-12.744h7.471l-11.353 29.76c-.813 2.149-1.871 3.72-3.173 4.712-1.302 1.01-2.954 1.514-4.956 1.514h-4.761Zm34.057-9.766c-2.571 0-4.695-.642-6.372-1.928-1.66-1.286-2.49-3.215-2.49-5.786 0-1.937.464-3.451 1.392-4.541.927-1.107 2.156-1.913 3.686-2.417 1.53-.505 3.19-.839 4.981-1.001 2.36-.245 4.012-.489 4.956-.733.944-.244 1.416-.781 1.416-1.611v-.171c0-.944-.375-1.717-1.123-2.319-.749-.603-1.782-.904-3.101-.904-1.334 0-2.417.31-3.247.928-.83.619-1.286 1.424-1.367 2.417h-6.763c.163-2.653 1.253-4.761 3.272-6.323 2.018-1.579 4.793-2.368 8.325-2.368 3.532 0 6.266.789 8.203 2.368 1.937 1.562 2.905 3.719 2.905 6.47V535h-7.031v-3.638h-.098a7.84 7.84 0 0 1-2.807 2.979c-1.188.732-2.767 1.098-4.737 1.098Zm2.002-5.004c1.726 0 3.093-.456 4.102-1.368 1.009-.927 1.514-2.091 1.514-3.491v-2.588c-.407.228-1.083.44-2.027.635-.944.179-1.994.358-3.149.537-1.237.195-2.287.554-3.15 1.074-.846.505-1.269 1.27-1.269 2.295 0 .912.358 1.628 1.074 2.149.733.504 1.701.757 2.905.757Zm29.932 15.112c-3.662 0-6.494-.765-8.496-2.295-2.002-1.53-3.182-3.548-3.54-6.055h6.933c.261.977.839 1.726 1.734 2.246.895.537 2.018.806 3.369.806 1.758 0 3.109-.48 4.053-1.44.96-.961 1.44-2.369 1.44-4.224v-3.955h-.024c-.765 1.514-1.807 2.628-3.125 3.345-1.302.699-2.8 1.049-4.492 1.049-2.247 0-4.208-.561-5.884-1.684-1.677-1.123-2.979-2.661-3.906-4.614-.912-1.97-1.368-4.24-1.368-6.812 0-2.588.464-4.875 1.392-6.86.944-1.986 2.246-3.54 3.906-4.663 1.677-1.14 3.613-1.709 5.811-1.709 1.66 0 3.141.358 4.443 1.074 1.318.7 2.393 1.766 3.223 3.198h.024v-3.735h7.105v24.78c0 2.718-.537 4.924-1.612 6.616-1.058 1.709-2.531 2.954-4.419 3.736-1.888.797-4.077 1.196-6.567 1.196Zm-.293-16.284c1.823 0 3.288-.676 4.395-2.027 1.106-1.351 1.66-3.157 1.66-5.42 0-2.246-.554-4.044-1.66-5.395-1.107-1.351-2.572-2.026-4.395-2.026-1.741 0-3.141.651-4.199 1.953-1.042 1.285-1.563 3.108-1.563 5.468 0 2.377.521 4.216 1.563 5.518 1.058 1.286 2.458 1.929 4.199 1.929Zm29.761 6.323c-2.604 0-4.875-.578-6.812-1.733-1.92-1.156-3.418-2.743-4.492-4.761-1.058-2.035-1.587-4.354-1.587-6.958 0-2.621.537-4.948 1.611-6.983 1.091-2.034 2.588-3.629 4.493-4.785 1.904-1.155 4.085-1.733 6.543-1.733 2.539 0 4.752.569 6.64 1.709 1.905 1.123 3.386 2.693 4.444 4.712 1.074 2.002 1.611 4.313 1.611 6.933v1.929h-18.335c.065 1.904.627 3.426 1.685 4.565 1.058 1.14 2.531 1.709 4.419 1.709 1.399 0 2.563-.301 3.491-.903.944-.602 1.579-1.4 1.904-2.392h6.567a9.229 9.229 0 0 1-2.172 4.516c-1.14 1.302-2.572 2.328-4.297 3.076-1.726.733-3.63 1.099-5.713 1.099Zm-5.835-16.26h11.499c-.179-1.611-.781-2.881-1.807-3.808-1.009-.944-2.327-1.416-3.955-1.416-1.611 0-2.921.472-3.931 1.416-1.009.927-1.611 2.197-1.806 3.808ZM814.15 535v-25.781h6.934v4.394h.073c.472-1.546 1.213-2.693 2.222-3.442 1.009-.749 2.368-1.123 4.077-1.123.423 0 .806.008 1.148.024.358.017.683.025.976.025v6.128c-.26-.017-.692-.041-1.294-.074a34.027 34.027 0 0 0-1.807-.048c-1.481 0-2.709.504-3.686 1.513-.96 1.009-1.44 2.482-1.44 4.419V535h-7.203Z" />
  <rect width="229" height="401" x="1063.5" y="316.5" fill="#A0ECFD" fill-opacity=".2" rx="20.5" />
  <rect width="229" height="401" x="1063.5" y="316.5" stroke="#A0ECFD" rx="20.5" />
  <path fill="#A0ECFD"
    d="M1124.78 535.586c-3.44 0-6.46-.781-9.06-2.344-2.6-1.562-4.63-3.751-6.08-6.567-1.45-2.816-2.17-6.096-2.17-9.839 0-3.874.75-7.21 2.24-10.01 1.5-2.816 3.54-4.98 6.13-6.494 2.61-1.53 5.54-2.295 8.82-2.295 2.78 0 5.32.537 7.61 1.611 2.31 1.075 4.21 2.572 5.69 4.493 1.48 1.904 2.38 4.126 2.69 6.665h-7.62c-.41-1.856-1.33-3.337-2.76-4.444-1.42-1.123-3.21-1.684-5.39-1.684-3.06 0-5.47 1.09-7.23 3.271-1.74 2.181-2.61 5.143-2.61 8.887 0 3.727.88 6.681 2.63 8.862 1.78 2.165 4.21 3.247 7.3 3.247 2.51 0 4.55-.691 6.13-2.075 1.6-1.4 2.41-3.231 2.44-5.493h-7.93v-5.713h15.28v4.639c0 3.011-.69 5.664-2.07 7.959-1.37 2.295-3.27 4.093-5.69 5.395-2.43 1.286-5.21 1.929-8.35 1.929Zm28.39-.147c-2.57 0-4.69-.642-6.37-1.928-1.66-1.286-2.49-3.215-2.49-5.786 0-1.937.46-3.451 1.39-4.541.93-1.107 2.16-1.913 3.69-2.417 1.53-.505 3.19-.839 4.98-1.001 2.36-.245 4.01-.489 4.95-.733.95-.244 1.42-.781 1.42-1.611v-.171c0-.944-.38-1.717-1.12-2.319-.75-.603-1.79-.904-3.1-.904-1.34 0-2.42.31-3.25.928-.83.619-1.29 1.424-1.37 2.417h-6.76c.16-2.653 1.25-4.761 3.27-6.323 2.02-1.579 4.79-2.368 8.33-2.368 3.53 0 6.26.789 8.2 2.368 1.94 1.562 2.9 3.719 2.9 6.47V535h-7.03v-3.638h-.1a7.785 7.785 0 0 1-2.8 2.979c-1.19.732-2.77 1.098-4.74 1.098Zm2-5.004c1.73 0 3.1-.456 4.1-1.368 1.01-.927 1.52-2.091 1.52-3.491v-2.588c-.41.228-1.08.44-2.03.635-.94.179-1.99.358-3.15.537-1.23.195-2.28.554-3.15 1.074-.84.505-1.27 1.27-1.27 2.295 0 .912.36 1.628 1.08 2.149.73.504 1.7.757 2.9.757Zm24.95-31.812V535h-7.2v-36.377h7.2Zm17.07 36.963c-2.6 0-4.89-.562-6.86-1.685-1.95-1.123-3.48-2.685-4.59-4.687-1.09-2.018-1.64-4.378-1.64-7.08s.55-5.062 1.64-7.08c1.11-2.019 2.64-3.589 4.59-4.712 1.97-1.14 4.26-1.709 6.86-1.709 2.62 0 4.91.569 6.86 1.709 1.97 1.123 3.5 2.693 4.59 4.712 1.11 2.018 1.66 4.378 1.66 7.08 0 2.685-.55 5.037-1.66 7.055-1.09 2.019-2.62 3.589-4.59 4.712-1.95 1.123-4.24 1.685-6.86 1.685Zm0-5.835c1.76 0 3.17-.667 4.25-2.002 1.07-1.351 1.61-3.223 1.61-5.615 0-2.409-.54-4.289-1.61-5.64-1.08-1.351-2.49-2.026-4.25-2.026-1.74 0-3.15.675-4.22 2.026-1.08 1.351-1.62 3.231-1.62 5.64 0 2.392.54 4.264 1.62 5.615 1.07 1.335 2.48 2.002 4.22 2.002Zm17.09 5.249v-25.781h7.2V535h-7.2Zm3.59-29.028c-1.19 0-2.17-.358-2.96-1.075-.78-.732-1.17-1.652-1.17-2.758 0-1.107.39-2.019 1.17-2.735.79-.732 1.77-1.098 2.96-1.098 1.17 0 2.15.366 2.93 1.098.78.716 1.17 1.628 1.17 2.735 0 1.106-.39 2.026-1.17 2.758-.78.717-1.76 1.075-2.93 1.075Zm19.43 29.663c-3.35 0-6.13-.765-8.32-2.295-2.18-1.53-3.39-3.679-3.62-6.445h7.08c.13 1.123.61 2.001 1.42 2.636.81.635 1.92.952 3.32.952 1.33 0 2.38-.252 3.15-.756.76-.505 1.15-1.156 1.15-1.954 0-.683-.3-1.228-.91-1.635-.58-.423-1.4-.741-2.44-.952l-4.51-.879c-5.12-.977-7.67-3.483-7.67-7.52 0-2.441.98-4.403 2.95-5.884 1.97-1.481 4.63-2.221 7.99-2.221 3.33 0 6.02.781 8.05 2.343 2.04 1.563 3.09 3.687 3.15 6.372h-6.66c-.02-1.025-.43-1.879-1.25-2.563-.79-.7-1.83-1.05-3.1-1.05-1.23 0-2.2.269-2.9.806-.7.521-1.05 1.164-1.05 1.929 0 .667.27 1.212.8 1.635.56.423 1.33.741 2.32.952l4.88.953c2.61.504 4.52 1.334 5.74 2.49 1.24 1.139 1.86 2.661 1.86 4.565 0 1.709-.49 3.207-1.47 4.492-.96 1.27-2.3 2.263-4.03 2.979-1.7.7-3.68 1.05-5.93 1.05Z" />
  <rect width="229" height="401" x="1506.5" y="578.5" fill="#A0ECFD" fill-opacity=".2" rx="20.5" />
  <rect width="229" height="401" x="1506.5" y="578.5" stroke="#A0ECFD" rx="20.5" />
  <path fill="#A0ECFD"
    d="M1529.77 791.387c-2.21 0-4.17-.5-5.88-1.499-1.72-1.01-3.08-2.438-4.07-4.286-.97-1.858-1.46-4.055-1.46-6.59 0-2.557.49-4.759 1.46-6.607.99-1.858 2.35-3.287 4.07-4.286 1.71-1.01 3.67-1.515 5.88-1.515 1.88 0 3.56.366 5.06 1.096a9.724 9.724 0 0 1 3.69 3.094c.95 1.321 1.56 2.873 1.82 4.657h-5.01c-.29-1.418-.93-2.514-1.91-3.287-.96-.785-2.16-1.177-3.59-1.177-2.04 0-3.63.725-4.77 2.176-1.14 1.439-1.71 3.389-1.71 5.849 0 2.438.57 4.383 1.71 5.833 1.14 1.439 2.73 2.159 4.77 2.159 1.42 0 2.61-.387 3.58-1.16.98-.774 1.62-1.864 1.93-3.271h5c-.26 1.783-.87 3.335-1.82 4.656a9.765 9.765 0 0 1-3.69 3.078c-1.5.72-3.18 1.08-5.06 1.08Zm21.12 0c-1.72 0-3.23-.371-4.53-1.112a7.908 7.908 0 0 1-3.03-3.094c-.72-1.332-1.08-2.889-1.08-4.673 0-1.783.36-3.341 1.08-4.673a7.875 7.875 0 0 1 3.03-3.109c1.3-.752 2.81-1.128 4.53-1.128 1.73 0 3.24.376 4.53 1.128a7.744 7.744 0 0 1 3.03 3.109c.73 1.332 1.09 2.89 1.09 4.673 0 1.773-.36 3.325-1.09 4.657a7.746 7.746 0 0 1-3.03 3.11c-1.29.741-2.8 1.112-4.53 1.112Zm0-3.851c1.16 0 2.1-.441 2.8-1.322.71-.891 1.07-2.127 1.07-3.706 0-1.59-.36-2.83-1.07-3.722-.7-.891-1.64-1.337-2.8-1.337-1.15 0-2.08.446-2.79 1.337-.71.892-1.06 2.132-1.06 3.722 0 1.579.35 2.815 1.06 3.706.71.881 1.64 1.322 2.79 1.322Zm17.26 3.818c-1.82 0-3.27-.58-4.35-1.74-1.09-1.171-1.63-2.83-1.63-4.979v-10.651h4.75v9.781c0 1.139.27 2.009.81 2.61.55.591 1.32.887 2.32.887.98 0 1.78-.306 2.4-.919.62-.612.94-1.579.94-2.9v-9.459h4.73V791h-4.65v-2.675c-.58.967-1.31 1.714-2.18 2.24-.87.526-1.92.789-3.14.789Zm18.11-9.812V791h-4.75v-17.016h4.67v2.675c.58-.967 1.3-1.713 2.17-2.24.87-.526 1.92-.789 3.15-.789 1.8 0 3.25.585 4.33 1.756 1.09 1.16 1.63 2.815 1.63 4.963V791h-4.74v-9.781c0-1.138-.27-2.003-.82-2.594-.55-.602-1.32-.902-2.3-.902-.98 0-1.78.306-2.41.918-.62.612-.93 1.579-.93 2.901Zm24.36-7.558v3.723h-3.48v8.04c0 .58.12.983.34 1.209.24.214.68.322 1.32.322h1.82V791h-2.77c-1.87 0-3.25-.365-4.14-1.096-.88-.73-1.32-1.869-1.32-3.416v-8.781h-2.93v-3.723h2.93v-4.64h4.75v4.64h3.48Zm9.91 17.403c-1.72 0-3.21-.382-4.49-1.144a7.96 7.96 0 0 1-2.97-3.142c-.7-1.343-1.05-2.874-1.05-4.593 0-1.729.36-3.265 1.07-4.608.72-1.343 1.71-2.396 2.96-3.158 1.26-.763 2.7-1.144 4.32-1.144 1.68 0 3.14.376 4.38 1.128 1.26.741 2.24 1.777 2.94 3.109.71 1.322 1.06 2.847 1.06 4.577v1.273h-12.1c.04 1.256.41 2.261 1.11 3.013.7.752 1.67 1.128 2.92 1.128.92 0 1.69-.199 2.3-.597.62-.397 1.04-.923 1.26-1.579h4.33a6.066 6.066 0 0 1-1.43 2.981c-.75.86-1.7 1.536-2.84 2.031-1.14.483-2.39.725-3.77.725Zm-3.85-10.732h7.59c-.12-1.063-.51-1.901-1.19-2.513-.67-.623-1.54-.935-2.61-.935-1.07 0-1.93.312-2.6.935-.66.612-1.06 1.45-1.19 2.513ZM1631.3 791v-17.016h4.57v2.901h.05c.31-1.021.8-1.778 1.47-2.272.66-.494 1.56-.741 2.69-.741.28 0 .53.005.76.016.23.01.45.016.64.016v4.044c-.17-.01-.46-.027-.85-.048-.4-.022-.8-.032-1.2-.032-.97 0-1.78.333-2.43.999-.63.666-.95 1.638-.95 2.916V791h-4.75Zm12.56 6.735v-23.751h4.69v2.305h.05c.53-.881 1.22-1.542 2.08-1.982.87-.452 1.86-.677 2.97-.677 1.45 0 2.72.376 3.81 1.128 1.11.741 1.97 1.778 2.58 3.11.63 1.332.94 2.868.94 4.608 0 1.773-.31 3.325-.92 4.657-.61 1.332-1.47 2.368-2.58 3.11-1.1.741-2.38 1.111-3.87 1.111-2.31 0-3.96-.966-4.94-2.9h-.05v9.281h-4.76Zm8.53-10.248c1.15 0 2.07-.435 2.75-1.305.7-.881 1.05-2.116 1.05-3.706 0-1.59-.35-2.82-1.05-3.69-.68-.881-1.6-1.321-2.75-1.321-1.2 0-2.17.456-2.9 1.369-.73.914-1.1 2.127-1.1 3.642 0 1.525.37 2.745 1.1 3.658.73.902 1.7 1.353 2.9 1.353Zm16.66 3.803c-1.7 0-3.1-.424-4.21-1.273-1.09-.849-1.64-2.121-1.64-3.819 0-1.278.31-2.277.92-2.997.61-.73 1.42-1.262 2.43-1.595a14.81 14.81 0 0 1 3.29-.661c1.56-.161 2.65-.322 3.27-.483.62-.161.93-.516.93-1.064v-.112a1.86 1.86 0 0 0-.74-1.531c-.49-.398-1.17-.596-2.04-.596-.88 0-1.6.204-2.15.612-.54.408-.84.94-.9 1.595h-4.46c.11-1.751.83-3.142 2.16-4.173 1.33-1.042 3.16-1.563 5.49-1.563s4.14.521 5.42 1.563c1.27 1.031 1.91 2.454 1.91 4.27V791h-4.64v-2.401h-.06a5.192 5.192 0 0 1-1.85 1.966c-.79.483-1.83.725-3.13.725Zm1.32-3.303c1.14 0 2.04-.301 2.71-.903.66-.612 1-1.38 1-2.304v-1.708c-.27.151-.72.29-1.34.419-.62.118-1.32.237-2.08.355-.82.129-1.51.365-2.08.709-.56.333-.84.838-.84 1.514 0 .602.24 1.075.71 1.418.49.333 1.13.5 1.92.5Zm11.72 3.013v-17.016h4.57v2.901h.05c.31-1.021.8-1.778 1.47-2.272.66-.494 1.56-.741 2.69-.741.28 0 .53.005.75.016.24.01.46.016.65.016v4.044c-.17-.01-.46-.027-.85-.048-.4-.022-.8-.032-1.2-.032-.97 0-1.79.333-2.43.999-.63.666-.95 1.638-.95 2.916V791h-4.75Zm22.76-17.016v3.723h-3.48v8.04c0 .58.12.983.34 1.209.24.214.68.322 1.32.322h1.82V791h-2.77c-1.87 0-3.25-.365-4.14-1.096-.88-.73-1.32-1.869-1.32-3.416v-8.781h-2.93v-3.723h2.93v-4.64h4.75v4.64h3.48Zm3.63 23.751v-3.754h2.16c.57 0 .99-.14 1.26-.419.27-.269.53-.73.75-1.386l.47-1.24-6.54-16.952h4.98l2.85 8.412c.19.612.38 1.224.56 1.836.2.613.38 1.225.57 1.837.18-.612.37-1.224.56-1.837.19-.623.39-1.235.58-1.836l2.87-8.412h4.93l-7.49 19.642c-.54 1.418-1.24 2.455-2.1 3.11-.86.666-1.95.999-3.27.999h-3.14Z" />
  <defs>
    <pattern id="a" width="1" height="1" patternContentUnits="objectBoundingBox">
      <use xlink:href="#b" transform="scale(.00052 .00093)" />
    </pattern>
  </defs>
</svg>
