<svg width="1920" height="1080" viewBox="0 0 1920 1080" fill="none" xmlns="http://www.w3.org/2000/svg">
<g clip-path="url(#clip0_560_2785)">
<rect width="1920" height="1080" fill="black"/>
<path d="M1755.66 990.364C1751.36 1004.92 1739.9 1016.39 1725.37 1020.68C1723.54 1021.22 1723.54 1023.78 1725.37 1024.32C1739.9 1028.61 1751.36 1040.08 1755.66 1054.64C1756.2 1056.45 1758.79 1056.45 1759.34 1054.64C1763.64 1040.08 1775.1 1028.61 1789.63 1024.32C1791.46 1023.78 1791.46 1021.22 1789.63 1020.68C1775.1 1016.39 1763.64 1004.92 1759.34 990.364C1758.8 988.545 1756.21 988.545 1755.66 990.364Z" fill="#1B1B1D"/>
<path d="M619.779 11.1212C618.758 10.1002 617.103 10.1002 616.082 11.1212C615.061 12.1422 615.061 13.7968 616.082 14.8177L653.309 52.0425C654.33 53.0634 655.985 53.0634 657.006 52.0425C658.027 51.0215 658.027 49.3668 657.006 48.3458L619.779 11.1212Z" fill="#1B1B1D"/>
<path d="M671.783 63.131C670.762 62.11 669.107 62.11 668.086 63.131C667.065 64.1519 667.065 65.8067 668.086 66.8276L705.313 104.052C706.334 105.073 707.988 105.073 709.009 104.052C710.031 103.031 710.031 101.377 709.009 100.356L671.783 63.131Z" fill="#1B1B1D"/>
<path d="M671.783 52.0464L709.009 14.8216C710.031 13.8007 710.031 12.1461 709.009 11.1251C707.988 10.1041 706.334 10.1041 705.313 11.1251L668.086 48.3497C667.065 49.3707 667.065 51.0254 668.086 52.0464C669.107 53.0673 670.762 53.0673 671.783 52.0464Z" fill="#1B1B1D"/>
<path d="M653.309 63.131L616.082 100.356C615.061 101.377 615.061 103.031 616.082 104.052C617.103 105.073 618.758 105.073 619.779 104.052L657.006 66.8276C658.027 65.8067 658.027 64.1519 657.006 63.131C655.985 62.11 654.33 62.11 653.309 63.131Z" fill="#1B1B1D"/>
<path d="M733.135 11.1212C732.113 10.1002 730.459 10.1002 729.438 11.1212C728.417 12.1422 728.417 13.7968 729.438 14.8177L766.664 52.0425C767.685 53.0634 769.34 53.0634 770.361 52.0425C771.382 51.0215 771.382 49.3668 770.361 48.3458L733.135 11.1212Z" fill="#1B1B1D"/>
<path d="M785.138 63.131C784.117 62.11 782.463 62.11 781.442 63.131C780.421 64.1519 780.421 65.8067 781.442 66.8276L818.668 104.052C819.689 105.073 821.344 105.073 822.365 104.052C823.386 103.031 823.386 101.377 822.365 100.356L785.138 63.131Z" fill="#1B1B1D"/>
<path d="M785.138 52.0464L822.365 14.8216C823.386 13.8007 823.386 12.1461 822.365 11.1251C821.344 10.1041 819.689 10.1041 818.668 11.1251L781.442 48.3497C780.421 49.3707 780.421 51.0254 781.442 52.0464C782.463 53.0673 784.117 53.0673 785.138 52.0464Z" fill="#1B1B1D"/>
<path d="M766.664 63.131L729.438 100.356C728.417 101.377 728.417 103.031 729.438 104.052C730.459 105.073 732.113 105.073 733.135 104.052L770.361 66.8276C771.382 65.8067 771.382 64.1519 770.361 63.131C769.34 62.11 767.685 62.11 766.664 63.131Z" fill="#1B1B1D"/>
<path d="M850.033 11.1212C849.012 10.1002 847.357 10.1002 846.336 11.1212C845.315 12.1422 845.315 13.7968 846.336 14.8177L883.563 52.0425C884.584 53.0634 886.239 53.0634 887.26 52.0425C888.281 51.0215 888.281 49.3668 887.26 48.3458L850.033 11.1212Z" fill="#1B1B1D"/>
<path d="M902.037 63.131C901.016 62.11 899.361 62.11 898.34 63.131C897.319 64.1519 897.319 65.8067 898.34 66.8276L935.567 104.052C936.588 105.073 938.242 105.073 939.263 104.052C940.284 103.031 940.284 101.377 939.263 100.356L902.037 63.131Z" fill="#1B1B1D"/>
<path d="M902.037 52.0464L939.263 14.8216C940.284 13.8007 940.284 12.1461 939.263 11.1251C938.242 10.1041 936.588 10.1041 935.567 11.1251L898.34 48.3497C897.319 49.3707 897.319 51.0254 898.34 52.0464C899.361 53.0673 901.016 53.0673 902.037 52.0464Z" fill="#1B1B1D"/>
<path d="M883.563 63.131L846.336 100.356C845.315 101.377 845.315 103.031 846.336 104.052C847.357 105.073 849.012 105.073 850.033 104.052L887.26 66.8276C888.281 65.8067 888.281 64.1519 887.26 63.131C886.239 62.11 884.584 62.11 883.563 63.131Z" fill="#1B1B1D"/>
<path d="M619.779 124.479C618.758 123.458 617.103 123.458 616.082 124.479C615.061 125.5 615.061 127.154 616.082 128.175L653.309 165.4C654.33 166.421 655.985 166.421 657.006 165.4C658.027 164.379 658.027 162.724 657.006 161.703L619.779 124.479Z" fill="#1B1B1D"/>
<path d="M671.783 176.488C670.762 175.467 669.107 175.467 668.086 176.488C667.065 177.509 667.065 179.164 668.086 180.185L705.313 217.41C706.334 218.431 707.988 218.431 709.009 217.41C710.031 216.389 710.031 214.734 709.009 213.713L671.783 176.488Z" fill="#1B1B1D"/>
<path d="M671.783 165.404L709.009 128.179C710.031 127.158 710.031 125.504 709.009 124.483C707.988 123.462 706.334 123.462 705.313 124.483L668.086 161.707C667.065 162.728 667.065 164.383 668.086 165.404C669.107 166.425 670.762 166.425 671.783 165.404Z" fill="#1B1B1D"/>
<path d="M653.309 176.488L616.082 213.713C615.061 214.734 615.061 216.389 616.082 217.41C617.103 218.431 618.758 218.431 619.779 217.41L657.006 180.185C658.027 179.164 658.027 177.509 657.006 176.488C655.985 175.467 654.33 175.467 653.309 176.488Z" fill="#1B1B1D"/>
<path d="M733.135 124.479C732.113 123.458 730.459 123.458 729.438 124.479C728.417 125.5 728.417 127.154 729.438 128.175L766.664 165.4C767.685 166.421 769.34 166.421 770.361 165.4C771.382 164.379 771.382 162.724 770.361 161.703L733.135 124.479Z" fill="#1B1B1D"/>
<path d="M785.138 176.488C784.117 175.467 782.463 175.467 781.442 176.488C780.421 177.509 780.421 179.164 781.442 180.185L818.668 217.41C819.689 218.431 821.344 218.431 822.365 217.41C823.386 216.389 823.386 214.734 822.365 213.713L785.138 176.488Z" fill="#1B1B1D"/>
<path d="M785.138 165.404L822.365 128.179C823.386 127.158 823.386 125.504 822.365 124.483C821.344 123.462 819.689 123.462 818.668 124.483L781.442 161.707C780.421 162.728 780.421 164.383 781.442 165.404C782.463 166.425 784.117 166.425 785.138 165.404Z" fill="#1B1B1D"/>
<path d="M766.664 176.488L729.438 213.713C728.417 214.734 728.417 216.389 729.438 217.41C730.459 218.431 732.113 218.431 733.135 217.41L770.361 180.185C771.382 179.164 771.382 177.509 770.361 176.488C769.34 175.467 767.685 175.467 766.664 176.488Z" fill="#1B1B1D"/>
<path d="M850.033 124.479C849.012 123.458 847.357 123.458 846.336 124.479C845.315 125.5 845.315 127.154 846.336 128.175L883.563 165.4C884.584 166.421 886.239 166.421 887.26 165.4C888.281 164.379 888.281 162.724 887.26 161.703L850.033 124.479Z" fill="#1B1B1D"/>
<path d="M902.037 176.488C901.016 175.467 899.361 175.467 898.34 176.488C897.319 177.509 897.319 179.164 898.34 180.185L935.567 217.41C936.588 218.431 938.242 218.431 939.263 217.41C940.284 216.389 940.284 214.734 939.263 213.713L902.037 176.488Z" fill="#1B1B1D"/>
<path d="M902.037 165.404L939.263 128.179C940.284 127.158 940.284 125.504 939.263 124.483C938.242 123.462 936.588 123.462 935.567 124.483L898.34 161.707C897.319 162.728 897.319 164.383 898.34 165.404C899.361 166.425 901.016 166.425 902.037 165.404Z" fill="#1B1B1D"/>
<path d="M883.563 176.488L846.336 213.713C845.315 214.734 845.315 216.389 846.336 217.41C847.357 218.431 849.012 218.431 850.033 217.41L887.26 180.185C888.281 179.164 888.281 177.509 887.26 176.488C886.239 175.467 884.584 175.467 883.563 176.488Z" fill="#1B1B1D"/>
<path d="M1274.03 12.3107C1273 11.2897 1271.35 11.2897 1270.33 12.3107C1269.31 13.3316 1269.31 14.9862 1270.33 16.0072L1307.55 53.2319C1308.58 54.2529 1310.23 54.2529 1311.25 53.2319C1312.27 52.2109 1312.27 50.5562 1311.25 49.5352L1274.03 12.3107Z" fill="#1B1B1D"/>
<path d="M1326.03 64.3204C1325.01 63.2994 1323.35 63.2994 1322.33 64.3204C1321.31 65.3414 1321.31 66.9961 1322.33 68.0171L1359.56 105.242C1360.58 106.263 1362.23 106.263 1363.26 105.242C1364.28 104.221 1364.28 102.566 1363.26 101.545L1326.03 64.3204Z" fill="#1B1B1D"/>
<path d="M1326.03 53.2358L1363.26 16.0111C1364.28 14.9901 1364.28 13.3355 1363.26 12.3146C1362.23 11.2936 1360.58 11.2936 1359.56 12.3146L1322.33 49.5391C1321.31 50.5601 1321.31 52.2148 1322.33 53.2358C1323.35 54.2568 1325.01 54.2568 1326.03 53.2358Z" fill="#1B1B1D"/>
<path d="M1307.55 64.3204L1270.33 101.545C1269.31 102.566 1269.31 104.221 1270.33 105.242C1271.35 106.263 1273 106.263 1274.03 105.242L1311.25 68.0171C1312.27 66.9961 1312.27 65.3414 1311.25 64.3204C1310.23 63.2994 1308.58 63.2994 1307.55 64.3204Z" fill="#1B1B1D"/>
<path d="M1387.38 12.3107C1386.36 11.2897 1384.7 11.2897 1383.68 12.3107C1382.66 13.3316 1382.66 14.9862 1383.68 16.0072L1420.91 53.2319C1421.93 54.2529 1423.59 54.2529 1424.61 53.2319C1425.63 52.2109 1425.63 50.5562 1424.61 49.5352L1387.38 12.3107Z" fill="#1B1B1D"/>
<path d="M1439.38 64.3204C1438.36 63.2994 1436.71 63.2994 1435.69 64.3204C1434.67 65.3414 1434.67 66.9961 1435.69 68.0171L1472.91 105.242C1473.94 106.263 1475.59 106.263 1476.61 105.242C1477.63 104.221 1477.63 102.566 1476.61 101.545L1439.38 64.3204Z" fill="#1B1B1D"/>
<path d="M1439.38 53.2358L1476.61 16.0111C1477.63 14.9901 1477.63 13.3355 1476.61 12.3146C1475.59 11.2936 1473.94 11.2936 1472.91 12.3146L1435.69 49.5391C1434.67 50.5601 1434.67 52.2148 1435.69 53.2358C1436.71 54.2568 1438.36 54.2568 1439.38 53.2358Z" fill="#1B1B1D"/>
<path d="M1420.91 64.3204L1383.68 101.545C1382.66 102.566 1382.66 104.221 1383.68 105.242C1384.7 106.263 1386.36 106.263 1387.38 105.242L1424.61 68.0171C1425.63 66.9961 1425.63 65.3414 1424.61 64.3204C1423.59 63.2994 1421.93 63.2994 1420.91 64.3204Z" fill="#1B1B1D"/>
<path d="M1504.28 12.3107C1503.26 11.2897 1501.6 11.2897 1500.58 12.3107C1499.56 13.3316 1499.56 14.9862 1500.58 16.0072L1537.81 53.2319C1538.83 54.2529 1540.48 54.2529 1541.51 53.2319C1542.53 52.2109 1542.53 50.5562 1541.51 49.5352L1504.28 12.3107Z" fill="#1B1B1D"/>
<path d="M1556.28 64.3204C1555.26 63.2994 1553.61 63.2994 1552.59 64.3204C1551.57 65.3414 1551.57 66.9961 1552.59 68.0171L1589.81 105.242C1590.83 106.263 1592.49 106.263 1593.51 105.242C1594.53 104.221 1594.53 102.566 1593.51 101.545L1556.28 64.3204Z" fill="#1B1B1D"/>
<path d="M1556.28 53.2358L1593.51 16.0111C1594.53 14.9901 1594.53 13.3355 1593.51 12.3146C1592.49 11.2936 1590.83 11.2936 1589.81 12.3146L1552.59 49.5391C1551.57 50.5601 1551.57 52.2148 1552.59 53.2358C1553.61 54.2568 1555.26 54.2568 1556.28 53.2358Z" fill="#1B1B1D"/>
<path d="M1537.81 64.3204L1500.58 101.545C1499.56 102.566 1499.56 104.221 1500.58 105.242C1501.6 106.263 1503.26 106.263 1504.28 105.242L1541.51 68.0171C1542.53 66.9961 1542.53 65.3414 1541.51 64.3204C1540.48 63.2994 1538.83 63.2994 1537.81 64.3204Z" fill="#1B1B1D"/>
<path d="M1274.03 125.668C1273 124.647 1271.35 124.647 1270.33 125.668C1269.31 126.689 1269.31 128.344 1270.33 129.365L1307.55 166.589C1308.58 167.61 1310.23 167.61 1311.25 166.589C1312.27 165.568 1312.27 163.914 1311.25 162.893L1274.03 125.668Z" fill="#1B1B1D"/>
<path d="M1326.03 177.678C1325.01 176.657 1323.35 176.657 1322.33 177.678C1321.31 178.699 1321.31 180.354 1322.33 181.375L1359.56 218.599C1360.58 219.62 1362.23 219.62 1363.26 218.599C1364.28 217.578 1364.28 215.923 1363.26 214.902L1326.03 177.678Z" fill="#1B1B1D"/>
<path d="M1326.03 166.593L1363.26 129.369C1364.28 128.348 1364.28 126.693 1363.26 125.672C1362.23 124.651 1360.58 124.651 1359.56 125.672L1322.33 162.897C1321.31 163.918 1321.31 165.572 1322.33 166.593C1323.35 167.614 1325.01 167.614 1326.03 166.593Z" fill="#1B1B1D"/>
<path d="M1307.55 177.678L1270.33 214.902C1269.31 215.923 1269.31 217.578 1270.33 218.599C1271.35 219.62 1273 219.62 1274.03 218.599L1311.25 181.375C1312.27 180.354 1312.27 178.699 1311.25 177.678C1310.23 176.657 1308.58 176.657 1307.55 177.678Z" fill="#1B1B1D"/>
<path d="M1387.38 125.668C1386.36 124.647 1384.7 124.647 1383.68 125.668C1382.66 126.689 1382.66 128.344 1383.68 129.365L1420.91 166.589C1421.93 167.61 1423.59 167.61 1424.61 166.589C1425.63 165.568 1425.63 163.914 1424.61 162.893L1387.38 125.668Z" fill="#1B1B1D"/>
<path d="M1439.38 177.678C1438.36 176.657 1436.71 176.657 1435.69 177.678C1434.67 178.699 1434.67 180.354 1435.69 181.375L1472.91 218.599C1473.94 219.62 1475.59 219.62 1476.61 218.599C1477.63 217.578 1477.63 215.923 1476.61 214.902L1439.38 177.678Z" fill="#1B1B1D"/>
<path d="M1439.38 166.593L1476.61 129.369C1477.63 128.348 1477.63 126.693 1476.61 125.672C1475.59 124.651 1473.94 124.651 1472.91 125.672L1435.69 162.897C1434.67 163.918 1434.67 165.572 1435.69 166.593C1436.71 167.614 1438.36 167.614 1439.38 166.593Z" fill="#1B1B1D"/>
<path d="M1420.91 177.678L1383.68 214.902C1382.66 215.923 1382.66 217.578 1383.68 218.599C1384.7 219.62 1386.36 219.62 1387.38 218.599L1424.61 181.375C1425.63 180.354 1425.63 178.699 1424.61 177.678C1423.59 176.657 1421.93 176.657 1420.91 177.678Z" fill="#1B1B1D"/>
<path d="M1504.28 125.668C1503.26 124.647 1501.6 124.647 1500.58 125.668C1499.56 126.689 1499.56 128.344 1500.58 129.365L1537.81 166.589C1538.83 167.61 1540.48 167.61 1541.51 166.589C1542.53 165.568 1542.53 163.914 1541.51 162.893L1504.28 125.668Z" fill="#1B1B1D"/>
<path d="M1556.28 177.678C1555.26 176.657 1553.61 176.657 1552.59 177.678C1551.57 178.699 1551.57 180.354 1552.59 181.375L1589.81 218.599C1590.83 219.62 1592.49 219.62 1593.51 218.599C1594.53 217.578 1594.53 215.923 1593.51 214.902L1556.28 177.678Z" fill="#1B1B1D"/>
<path d="M1556.28 166.593L1593.51 129.369C1594.53 128.348 1594.53 126.693 1593.51 125.672C1592.49 124.651 1590.83 124.651 1589.81 125.672L1552.59 162.897C1551.57 163.918 1551.57 165.572 1552.59 166.593C1553.61 167.614 1555.26 167.614 1556.28 166.593Z" fill="#1B1B1D"/>
<path d="M1537.81 177.678L1500.58 214.902C1499.56 215.923 1499.56 217.578 1500.58 218.599C1501.6 219.62 1503.26 219.62 1504.28 218.599L1541.51 181.375C1542.53 180.354 1542.53 178.699 1541.51 177.678C1540.48 176.657 1538.83 176.657 1537.81 177.678Z" fill="#1B1B1D"/>
<path d="M1711.52 856.126C1710.51 857.132 1710.51 858.763 1711.52 859.769C1712.53 860.775 1714.16 860.775 1715.16 859.769L1751.85 823.084C1752.85 822.078 1752.85 820.447 1751.85 819.441C1750.84 818.435 1749.21 818.435 1748.2 819.441L1711.52 856.126Z" fill="#1B1B1D"/>
<path d="M1762.77 804.878C1761.77 805.884 1761.77 807.515 1762.77 808.521C1763.78 809.527 1765.41 809.527 1766.42 808.521L1803.1 771.836C1804.11 770.83 1804.11 769.199 1803.1 768.193C1802.09 767.187 1800.46 767.187 1799.46 768.193L1762.77 804.878Z" fill="#1B1B1D"/>
<path d="M1751.85 804.878L1715.17 768.193C1714.16 767.187 1712.53 767.187 1711.52 768.193C1710.52 769.199 1710.52 770.83 1711.52 771.836L1748.21 808.521C1749.21 809.527 1750.84 809.527 1751.85 808.521C1752.86 807.515 1752.86 805.884 1751.85 804.878Z" fill="#1B1B1D"/>
<path d="M1762.77 823.084L1799.46 859.769C1800.46 860.775 1802.09 860.775 1803.1 859.769C1804.11 858.763 1804.11 857.132 1803.1 856.126L1766.42 819.441C1765.41 818.435 1763.78 818.435 1762.77 819.441C1761.77 820.447 1761.77 822.078 1762.77 823.084Z" fill="#1B1B1D"/>
<path d="M1711.52 744.421C1710.51 745.427 1710.51 747.058 1711.52 748.064C1712.53 749.07 1714.16 749.07 1715.16 748.064L1751.85 711.379C1752.85 710.373 1752.85 708.742 1751.85 707.736C1750.84 706.73 1749.21 706.73 1748.2 707.736L1711.52 744.421Z" fill="#1B1B1D"/>
<path d="M1762.77 693.173C1761.77 694.179 1761.77 695.81 1762.77 696.816C1763.78 697.822 1765.41 697.822 1766.42 696.816L1803.1 660.131C1804.11 659.125 1804.11 657.494 1803.1 656.488C1802.09 655.482 1800.46 655.482 1799.46 656.488L1762.77 693.173Z" fill="#1B1B1D"/>
<path d="M1751.85 693.173L1715.17 656.488C1714.16 655.482 1712.53 655.482 1711.52 656.488C1710.52 657.494 1710.52 659.125 1711.52 660.131L1748.21 696.816C1749.21 697.822 1750.84 697.822 1751.85 696.816C1752.86 695.81 1752.86 694.179 1751.85 693.173Z" fill="#1B1B1D"/>
<path d="M1762.77 711.379L1799.46 748.064C1800.46 749.07 1802.09 749.07 1803.1 748.064C1804.11 747.058 1804.11 745.427 1803.1 744.421L1766.42 707.736C1765.41 706.73 1763.78 706.73 1762.77 707.736C1761.77 708.742 1761.77 710.373 1762.77 711.379Z" fill="#1B1B1D"/>
<path d="M1711.52 629.223C1710.51 630.23 1710.51 631.86 1711.52 632.866C1712.53 633.873 1714.16 633.873 1715.16 632.866L1751.85 596.182C1752.85 595.176 1752.85 593.545 1751.85 592.539C1750.84 591.533 1749.21 591.533 1748.2 592.539L1711.52 629.223Z" fill="#1B1B1D"/>
<path d="M1762.77 577.975C1761.77 578.982 1761.77 580.612 1762.77 581.618C1763.78 582.625 1765.41 582.625 1766.42 581.618L1803.1 544.934C1804.11 543.928 1804.11 542.297 1803.1 541.291C1802.09 540.285 1800.46 540.285 1799.46 541.291L1762.77 577.975Z" fill="#1B1B1D"/>
<path d="M1751.85 577.975L1715.17 541.291C1714.16 540.285 1712.53 540.285 1711.52 541.291C1710.52 542.297 1710.52 543.928 1711.52 544.934L1748.21 581.618C1749.21 582.625 1750.84 582.625 1751.85 581.618C1752.86 580.612 1752.86 578.982 1751.85 577.975Z" fill="#1B1B1D"/>
<path d="M1762.77 596.182L1799.46 632.866C1800.46 633.873 1802.09 633.873 1803.1 632.866C1804.11 631.86 1804.11 630.23 1803.1 629.223L1766.42 592.539C1765.41 591.533 1763.78 591.533 1762.77 592.539C1761.77 593.545 1761.77 595.176 1762.77 596.182Z" fill="#1B1B1D"/>
<path d="M1823.23 856.126C1822.22 857.132 1822.22 858.763 1823.23 859.769C1824.23 860.775 1825.86 860.775 1826.87 859.769L1863.55 823.084C1864.56 822.078 1864.56 820.447 1863.55 819.441C1862.55 818.435 1860.92 818.435 1859.91 819.441L1823.23 856.126Z" fill="#1B1B1D"/>
<path d="M1874.48 804.878C1873.48 805.884 1873.48 807.515 1874.48 808.521C1875.49 809.527 1877.12 809.527 1878.12 808.521L1914.81 771.836C1915.81 770.83 1915.81 769.199 1914.81 768.193C1913.8 767.187 1912.17 767.187 1911.16 768.193L1874.48 804.878Z" fill="#1B1B1D"/>
<path d="M1863.56 804.878L1826.87 768.193C1825.87 767.187 1824.24 767.187 1823.23 768.193C1822.23 769.199 1822.23 770.83 1823.23 771.836L1859.91 808.521C1860.92 809.527 1862.55 809.527 1863.56 808.521C1864.56 807.515 1864.56 805.884 1863.56 804.878Z" fill="#1B1B1D"/>
<path d="M1874.48 823.084L1911.16 859.769C1912.17 860.775 1913.8 860.775 1914.81 859.769C1915.81 858.763 1915.81 857.132 1914.81 856.126L1878.12 819.441C1877.12 818.435 1875.49 818.435 1874.48 819.441C1873.48 820.447 1873.48 822.078 1874.48 823.084Z" fill="#1B1B1D"/>
<path d="M1823.23 744.421C1822.22 745.427 1822.22 747.058 1823.23 748.064C1824.23 749.07 1825.86 749.07 1826.87 748.064L1863.55 711.379C1864.56 710.373 1864.56 708.742 1863.55 707.736C1862.55 706.73 1860.92 706.73 1859.91 707.736L1823.23 744.421Z" fill="#1B1B1D"/>
<path d="M1874.48 693.173C1873.48 694.179 1873.48 695.81 1874.48 696.816C1875.49 697.822 1877.12 697.822 1878.12 696.816L1914.81 660.131C1915.81 659.125 1915.81 657.494 1914.81 656.488C1913.8 655.482 1912.17 655.482 1911.16 656.488L1874.48 693.173Z" fill="#1B1B1D"/>
<path d="M1863.56 693.173L1826.87 656.488C1825.87 655.482 1824.24 655.482 1823.23 656.488C1822.23 657.494 1822.23 659.125 1823.23 660.131L1859.91 696.816C1860.92 697.822 1862.55 697.822 1863.56 696.816C1864.56 695.81 1864.56 694.179 1863.56 693.173Z" fill="#1B1B1D"/>
<path d="M1874.48 711.379L1911.16 748.064C1912.17 749.07 1913.8 749.07 1914.81 748.064C1915.81 747.058 1915.81 745.427 1914.81 744.421L1878.12 707.736C1877.12 706.73 1875.49 706.73 1874.48 707.736C1873.48 708.742 1873.48 710.373 1874.48 711.379Z" fill="#1B1B1D"/>
<path d="M1823.23 629.223C1822.22 630.23 1822.22 631.86 1823.23 632.866C1824.23 633.873 1825.86 633.873 1826.87 632.866L1863.55 596.182C1864.56 595.176 1864.56 593.545 1863.55 592.539C1862.55 591.533 1860.92 591.533 1859.91 592.539L1823.23 629.223Z" fill="#1B1B1D"/>
<path d="M1874.48 577.975C1873.48 578.982 1873.48 580.612 1874.48 581.618C1875.49 582.625 1877.12 582.625 1878.12 581.618L1914.81 544.934C1915.81 543.928 1915.81 542.297 1914.81 541.291C1913.8 540.285 1912.17 540.285 1911.16 541.291L1874.48 577.975Z" fill="#1B1B1D"/>
<path d="M1863.56 577.975L1826.87 541.291C1825.87 540.285 1824.24 540.285 1823.23 541.291C1822.23 542.297 1822.23 543.928 1823.23 544.934L1859.91 581.618C1860.92 582.625 1862.55 582.625 1863.56 581.618C1864.56 580.612 1864.56 578.982 1863.56 577.975Z" fill="#1B1B1D"/>
<path d="M1874.48 596.182L1911.16 632.866C1912.17 633.873 1913.8 633.873 1914.81 632.866C1915.81 631.86 1915.81 630.23 1914.81 629.223L1878.12 592.539C1877.12 591.533 1875.49 591.533 1874.48 592.539C1873.48 593.545 1873.48 595.176 1874.48 596.182Z" fill="#1B1B1D"/>
<path d="M1599.82 856.126C1598.81 857.132 1598.81 858.763 1599.82 859.769C1600.82 860.775 1602.45 860.775 1603.46 859.769L1640.14 823.084C1641.15 822.078 1641.15 820.447 1640.14 819.441C1639.14 818.435 1637.51 818.435 1636.5 819.441L1599.82 856.126Z" fill="#1B1B1D"/>
<path d="M1651.07 804.878C1650.06 805.884 1650.06 807.515 1651.07 808.521C1652.08 809.527 1653.71 809.527 1654.71 808.521L1691.4 771.836C1692.4 770.83 1692.4 769.199 1691.4 768.193C1690.39 767.187 1688.76 767.187 1687.75 768.193L1651.07 804.878Z" fill="#1B1B1D"/>
<path d="M1640.15 804.878L1603.46 768.193C1602.46 767.187 1600.83 767.187 1599.82 768.193C1598.81 769.199 1598.81 770.83 1599.82 771.836L1636.5 808.521C1637.51 809.527 1639.14 809.527 1640.15 808.521C1641.15 807.515 1641.15 805.884 1640.15 804.878Z" fill="#1B1B1D"/>
<path d="M1651.07 823.084L1687.75 859.769C1688.76 860.775 1690.39 860.775 1691.4 859.769C1692.4 858.763 1692.4 857.132 1691.4 856.126L1654.71 819.441C1653.71 818.435 1652.08 818.435 1651.07 819.441C1650.06 820.447 1650.06 822.078 1651.07 823.084Z" fill="#1B1B1D"/>
<path d="M1599.82 744.421C1598.81 745.427 1598.81 747.058 1599.82 748.064C1600.82 749.07 1602.45 749.07 1603.46 748.064L1640.14 711.379C1641.15 710.373 1641.15 708.742 1640.14 707.736C1639.14 706.73 1637.51 706.73 1636.5 707.736L1599.82 744.421Z" fill="#1B1B1D"/>
<path d="M1651.07 693.173C1650.06 694.179 1650.06 695.81 1651.07 696.816C1652.08 697.822 1653.71 697.822 1654.71 696.816L1691.4 660.131C1692.4 659.125 1692.4 657.494 1691.4 656.488C1690.39 655.482 1688.76 655.482 1687.75 656.488L1651.07 693.173Z" fill="#1B1B1D"/>
<path d="M1640.15 693.173L1603.46 656.488C1602.46 655.482 1600.83 655.482 1599.82 656.488C1598.81 657.494 1598.81 659.125 1599.82 660.131L1636.5 696.816C1637.51 697.822 1639.14 697.822 1640.15 696.816C1641.15 695.81 1641.15 694.179 1640.15 693.173Z" fill="#1B1B1D"/>
<path d="M1651.07 711.379L1687.75 748.064C1688.76 749.07 1690.39 749.07 1691.4 748.064C1692.4 747.058 1692.4 745.427 1691.4 744.421L1654.71 707.736C1653.71 706.73 1652.08 706.73 1651.07 707.736C1650.06 708.742 1650.06 710.373 1651.07 711.379Z" fill="#1B1B1D"/>
<path d="M1599.82 629.223C1598.81 630.23 1598.81 631.86 1599.82 632.866C1600.82 633.873 1602.45 633.873 1603.46 632.866L1640.14 596.182C1641.15 595.176 1641.15 593.545 1640.14 592.539C1639.14 591.533 1637.51 591.533 1636.5 592.539L1599.82 629.223Z" fill="#1B1B1D"/>
<path d="M1651.07 577.975C1650.06 578.982 1650.06 580.612 1651.07 581.618C1652.08 582.625 1653.71 582.625 1654.71 581.618L1691.4 544.934C1692.4 543.928 1692.4 542.297 1691.4 541.291C1690.39 540.285 1688.76 540.285 1687.75 541.291L1651.07 577.975Z" fill="#1B1B1D"/>
<path d="M1640.15 577.975L1603.46 541.291C1602.46 540.285 1600.83 540.285 1599.82 541.291C1598.81 542.297 1598.81 543.928 1599.82 544.934L1636.5 581.618C1637.51 582.625 1639.14 582.625 1640.15 581.618C1641.15 580.612 1641.15 578.982 1640.15 577.975Z" fill="#1B1B1D"/>
<path d="M1651.07 596.182L1687.75 632.866C1688.76 633.873 1690.39 633.873 1691.4 632.866C1692.4 631.86 1692.4 630.23 1691.4 629.223L1654.71 592.539C1653.71 591.533 1652.08 591.533 1651.07 592.539C1650.06 593.545 1650.06 595.176 1651.07 596.182Z" fill="#1B1B1D"/>
<rect x="-37.7383" y="-101.811" width="327.122" height="321.175" stroke="#1B1B1D"/>
<rect x="289.383" y="-101.811" width="325.933" height="321.175" stroke="#1B1B1D"/>
<rect x="615.316" y="-101.811" width="325.933" height="321.175" stroke="#1B1B1D"/>
<rect x="941.25" y="-101.811" width="325.933" height="321.175" stroke="#1B1B1D"/>
<rect x="1267.18" y="-101.811" width="327.122" height="321.175" stroke="#1B1B1D"/>
<rect x="1594.3" y="-101.811" width="325.933" height="321.175" stroke="#1B1B1D"/>
<rect x="-37.7383" y="219.363" width="327.122" height="321.175" stroke="#1B1B1D"/>
<rect x="289.383" y="219.363" width="325.933" height="321.175" stroke="#1B1B1D"/>
<rect x="615.316" y="219.363" width="325.933" height="321.175" stroke="#1B1B1D"/>
<rect x="941.25" y="219.363" width="325.933" height="321.175" stroke="#1B1B1D"/>
<rect x="1267.18" y="219.363" width="327.122" height="321.175" stroke="#1B1B1D"/>
<rect x="-37.7383" y="540.539" width="327.122" height="321.175" stroke="#1B1B1D"/>
<rect x="289.383" y="540.539" width="325.933" height="321.175" stroke="#1B1B1D"/>
<rect x="941.25" y="540.539" width="325.933" height="321.175" stroke="#1B1B1D"/>
<rect x="615.316" y="540.539" width="325.933" height="321.175" stroke="#1B1B1D"/>
<rect x="1267.18" y="540.539" width="327.122" height="321.175" stroke="#1B1B1D"/>
<rect x="-37.7383" y="861.713" width="327.122" height="321.175" stroke="#1B1B1D"/>
<rect x="289.383" y="861.713" width="325.933" height="321.175" stroke="#1B1B1D"/>
<rect x="615.316" y="861.713" width="325.933" height="321.175" stroke="#1B1B1D"/>
<rect x="941.25" y="861.713" width="325.933" height="321.175" stroke="#1B1B1D"/>
<rect x="1267.18" y="861.713" width="327.122" height="321.175" stroke="#1B1B1D"/>
<rect x="1594.3" y="219.363" width="325.933" height="321.175" stroke="#1B1B1D"/>
<rect x="1594.3" y="540.539" width="325.933" height="321.175" stroke="#1B1B1D"/>
<rect x="1594.3" y="861.713" width="325.933" height="321.175" stroke="#1B1B1D"/>
<path d="M-33.2426 13.1562C-34.2712 12.1276 -35.9382 12.1276 -36.9668 13.1562C-37.9954 14.1847 -37.9954 15.8515 -36.9668 16.8801L0.535538 54.3806C1.56413 55.4091 3.2312 55.4091 4.25979 54.3806C5.28839 53.352 5.28839 51.685 4.25979 50.6565L-33.2426 13.1562Z" fill="#1B1B1D"/>
<path d="M19.148 65.5527C18.1194 64.5241 16.4524 64.5241 15.4238 65.5527C14.3952 66.5812 14.3952 68.2482 15.4238 69.2767L52.9262 106.777C53.9548 107.806 55.6217 107.806 56.6503 106.777C57.6789 105.748 57.6789 104.082 56.6503 103.053L19.148 65.5527Z" fill="#1B1B1D"/>
<path d="M19.148 54.3845L56.6503 16.884C57.6789 15.8554 57.6789 14.1886 56.6503 13.1601C55.6217 12.1315 53.9548 12.1315 52.9262 13.1601L15.4238 50.6604C14.3952 51.6889 14.3952 53.3559 15.4238 54.3845C16.4524 55.413 18.1194 55.413 19.148 54.3845Z" fill="#1B1B1D"/>
<path d="M0.535538 65.5527L-36.9668 103.053C-37.9954 104.082 -37.9954 105.748 -36.9668 106.777C-35.9382 107.806 -34.2712 107.806 -33.2426 106.777L4.25979 69.2767C5.28839 68.2482 5.28839 66.5812 4.25979 65.5527C3.2312 64.5241 1.56413 64.5241 0.535538 65.5527Z" fill="#1B1B1D"/>
<path d="M80.9527 13.1562C79.9241 12.1276 78.2571 12.1276 77.2285 13.1562C76.1999 14.1847 76.1999 15.8515 77.2285 16.8801L114.731 54.3806C115.759 55.4091 117.427 55.4091 118.455 54.3806C119.484 53.352 119.484 51.685 118.455 50.6565L80.9527 13.1562Z" fill="#1B1B1D"/>
<path d="M133.343 65.5527C132.315 64.5241 130.648 64.5241 129.619 65.5527C128.591 66.5812 128.591 68.2482 129.619 69.2767L167.121 106.777C168.15 107.806 169.817 107.806 170.846 106.777C171.874 105.748 171.874 104.082 170.846 103.053L133.343 65.5527Z" fill="#1B1B1D"/>
<path d="M133.343 54.3845L170.846 16.884C171.874 15.8554 171.874 14.1886 170.846 13.1601C169.817 12.1315 168.15 12.1315 167.121 13.1601L129.619 50.6604C128.591 51.6889 128.591 53.3559 129.619 54.3845C130.648 55.413 132.315 55.413 133.343 54.3845Z" fill="#1B1B1D"/>
<path d="M114.731 65.5527L77.2285 103.053C76.1999 104.082 76.1999 105.748 77.2285 106.777C78.2571 107.806 79.9241 107.806 80.9527 106.777L118.455 69.2767C119.484 68.2482 119.484 66.5812 118.455 65.5527C117.427 64.5241 115.759 64.5241 114.731 65.5527Z" fill="#1B1B1D"/>
<path d="M198.718 13.1562C197.69 12.1276 196.023 12.1276 194.994 13.1562C193.966 14.1847 193.966 15.8515 194.994 16.8801L232.496 54.3806C233.525 55.4091 235.192 55.4091 236.221 54.3806C237.249 53.352 237.249 51.685 236.221 50.6565L198.718 13.1562Z" fill="#1B1B1D"/>
<path d="M251.109 65.5527C250.08 64.5241 248.413 64.5241 247.385 65.5527C246.356 66.5812 246.356 68.2482 247.385 69.2767L284.887 106.777C285.916 107.806 287.583 107.806 288.611 106.777C289.64 105.748 289.64 104.082 288.611 103.053L251.109 65.5527Z" fill="#1B1B1D"/>
<path d="M251.109 54.3845L288.611 16.884C289.64 15.8554 289.64 14.1886 288.611 13.1601C287.583 12.1315 285.916 12.1315 284.887 13.1601L247.385 50.6604C246.356 51.6889 246.356 53.3559 247.385 54.3845C248.413 55.413 250.08 55.413 251.109 54.3845Z" fill="#1B1B1D"/>
<path d="M232.496 65.5527L194.994 103.053C193.966 104.082 193.966 105.748 194.994 106.777C196.023 107.806 197.69 107.806 198.718 106.777L236.221 69.2767C237.249 68.2482 237.249 66.5812 236.221 65.5527C235.192 64.5241 233.525 64.5241 232.496 65.5527Z" fill="#1B1B1D"/>
<path d="M-33.2426 127.351C-34.2712 126.323 -35.9382 126.323 -36.9668 127.351C-37.9954 128.38 -37.9954 130.047 -36.9668 131.075L0.535538 168.576C1.56413 169.604 3.2312 169.604 4.25979 168.576C5.28839 167.547 5.28839 165.88 4.25979 164.852L-33.2426 127.351Z" fill="#1B1B1D"/>
<path d="M19.148 179.746C18.1194 178.717 16.4524 178.717 15.4238 179.746C14.3952 180.775 14.3952 182.442 15.4238 183.47L52.9262 220.97C53.9548 221.999 55.6217 221.999 56.6503 220.97C57.6789 219.942 57.6789 218.275 56.6503 217.246L19.148 179.746Z" fill="#1B1B1D"/>
<path d="M19.148 168.58L56.6503 131.079C57.6789 130.051 57.6789 128.384 56.6503 127.355C55.6217 126.327 53.9548 126.327 52.9262 127.355L15.4238 164.856C14.3952 165.884 14.3952 167.551 15.4238 168.58C16.4524 169.608 18.1194 169.608 19.148 168.58Z" fill="#1B1B1D"/>
<path d="M0.535538 179.748L-36.9668 217.248C-37.9954 218.277 -37.9954 219.944 -36.9668 220.972C-35.9382 222.001 -34.2712 222.001 -33.2426 220.972L4.25979 183.472C5.28839 182.443 5.28839 180.777 4.25979 179.748C3.2312 178.719 1.56413 178.719 0.535538 179.748Z" fill="#1B1B1D"/>
<path d="M80.9527 127.351C79.9241 126.323 78.2571 126.323 77.2285 127.351C76.1999 128.38 76.1999 130.047 77.2285 131.075L114.731 168.576C115.759 169.604 117.427 169.604 118.455 168.576C119.484 167.547 119.484 165.88 118.455 164.852L80.9527 127.351Z" fill="#1B1B1D"/>
<path d="M133.343 179.746C132.315 178.717 130.648 178.717 129.619 179.746C128.591 180.775 128.591 182.442 129.619 183.47L167.121 220.97C168.15 221.999 169.817 221.999 170.846 220.97C171.874 219.942 171.874 218.275 170.846 217.246L133.343 179.746Z" fill="#1B1B1D"/>
<path d="M133.343 168.58L170.846 131.079C171.874 130.051 171.874 128.384 170.846 127.355C169.817 126.327 168.15 126.327 167.121 127.355L129.619 164.856C128.591 165.884 128.591 167.551 129.619 168.58C130.648 169.608 132.315 169.608 133.343 168.58Z" fill="#1B1B1D"/>
<path d="M114.731 179.748L77.2285 217.248C76.1999 218.277 76.1999 219.944 77.2285 220.972C78.2571 222.001 79.9241 222.001 80.9527 220.972L118.455 183.472C119.484 182.443 119.484 180.777 118.455 179.748C117.427 178.719 115.759 178.719 114.731 179.748Z" fill="#1B1B1D"/>
<path d="M198.718 127.351C197.69 126.323 196.023 126.323 194.994 127.351C193.966 128.38 193.966 130.047 194.994 131.075L232.496 168.576C233.525 169.604 235.192 169.604 236.221 168.576C237.249 167.547 237.249 165.88 236.221 164.852L198.718 127.351Z" fill="#1B1B1D"/>
<path d="M251.109 179.746C250.08 178.717 248.413 178.717 247.385 179.746C246.356 180.775 246.356 182.442 247.385 183.47L284.887 220.97C285.916 221.999 287.583 221.999 288.611 220.97C289.64 219.942 289.64 218.275 288.611 217.246L251.109 179.746Z" fill="#1B1B1D"/>
<path d="M251.109 168.58L288.611 131.079C289.64 130.051 289.64 128.384 288.611 127.355C287.583 126.327 285.916 126.327 284.887 127.355L247.385 164.856C246.356 165.884 246.356 167.551 247.385 168.58C248.413 169.608 250.08 169.608 251.109 168.58Z" fill="#1B1B1D"/>
<path d="M232.496 179.748L194.994 217.248C193.966 218.277 193.966 219.944 194.994 220.972C196.023 222.001 197.69 222.001 198.718 220.972L236.221 183.472C237.249 182.443 237.249 180.777 236.221 179.748C235.192 178.719 233.525 178.719 232.496 179.748Z" fill="#1B1B1D"/>
<path d="M295.037 975.834C294.016 974.813 292.361 974.813 291.34 975.834C290.319 976.855 290.319 978.51 291.34 979.531L328.567 1016.76C329.588 1017.78 331.242 1017.78 332.263 1016.76C333.285 1015.73 333.285 1014.08 332.263 1013.06L295.037 975.834Z" fill="#1B1B1D"/>
<path d="M347.041 1027.84C346.02 1026.82 344.365 1026.82 343.344 1027.84C342.323 1028.86 342.323 1030.52 343.344 1031.54L380.571 1068.77C381.592 1069.79 383.246 1069.79 384.267 1068.77C385.288 1067.74 385.288 1066.09 384.267 1065.07L347.041 1027.84Z" fill="#1B1B1D"/>
<path d="M347.041 1016.76L384.267 979.535C385.288 978.514 385.288 976.859 384.267 975.838C383.246 974.817 381.592 974.817 380.571 975.838L343.344 1013.06C342.323 1014.08 342.323 1015.74 343.344 1016.76C344.365 1017.78 346.02 1017.78 347.041 1016.76Z" fill="#1B1B1D"/>
<path d="M328.567 1027.84L291.34 1065.07C290.319 1066.09 290.319 1067.74 291.34 1068.77C292.361 1069.79 294.016 1069.79 295.037 1068.77L332.263 1031.54C333.285 1030.52 333.285 1028.86 332.263 1027.84C331.242 1026.82 329.588 1026.82 328.567 1027.84Z" fill="#1B1B1D"/>
<path d="M408.392 975.834C407.371 974.813 405.716 974.813 404.695 975.834C403.674 976.855 403.674 978.51 404.695 979.531L441.922 1016.76C442.943 1017.78 444.598 1017.78 445.619 1016.76C446.64 1015.73 446.64 1014.08 445.619 1013.06L408.392 975.834Z" fill="#1B1B1D"/>
<path d="M460.396 1027.84C459.375 1026.82 457.72 1026.82 456.699 1027.84C455.678 1028.86 455.678 1030.52 456.699 1031.54L493.926 1068.77C494.947 1069.79 496.602 1069.79 497.623 1068.77C498.644 1067.74 498.644 1066.09 497.623 1065.07L460.396 1027.84Z" fill="#1B1B1D"/>
<path d="M460.396 1016.76L497.623 979.535C498.644 978.514 498.644 976.859 497.623 975.838C496.602 974.817 494.947 974.817 493.926 975.838L456.699 1013.06C455.678 1014.08 455.678 1015.74 456.699 1016.76C457.72 1017.78 459.375 1017.78 460.396 1016.76Z" fill="#1B1B1D"/>
<path d="M441.922 1027.84L404.695 1065.07C403.674 1066.09 403.674 1067.74 404.695 1068.77C405.716 1069.79 407.371 1069.79 408.392 1068.77L445.619 1031.54C446.64 1030.52 446.64 1028.86 445.619 1027.84C444.598 1026.82 442.943 1026.82 441.922 1027.84Z" fill="#1B1B1D"/>
<path d="M525.291 975.834C524.27 974.813 522.615 974.813 521.594 975.834C520.573 976.855 520.573 978.51 521.594 979.531L558.821 1016.76C559.842 1017.78 561.496 1017.78 562.517 1016.76C563.538 1015.73 563.538 1014.08 562.517 1013.06L525.291 975.834Z" fill="#1B1B1D"/>
<path d="M577.295 1027.84C576.274 1026.82 574.619 1026.82 573.598 1027.84C572.577 1028.86 572.577 1030.52 573.598 1031.54L610.824 1068.77C611.845 1069.79 613.5 1069.79 614.521 1068.77C615.542 1067.74 615.542 1066.09 614.521 1065.07L577.295 1027.84Z" fill="#1B1B1D"/>
<path d="M577.295 1016.76L614.521 979.535C615.542 978.514 615.542 976.859 614.521 975.838C613.5 974.817 611.845 974.817 610.824 975.838L573.598 1013.06C572.577 1014.08 572.577 1015.74 573.598 1016.76C574.619 1017.78 576.274 1017.78 577.295 1016.76Z" fill="#1B1B1D"/>
<path d="M558.821 1027.84L521.594 1065.07C520.573 1066.09 520.573 1067.74 521.594 1068.77C522.615 1069.79 524.27 1069.79 525.291 1068.77L562.517 1031.54C563.538 1030.52 563.538 1028.86 562.517 1027.84C561.496 1026.82 559.842 1026.82 558.821 1027.84Z" fill="#1B1B1D"/>
<path d="M295.037 862.479C294.016 861.458 292.361 861.458 291.34 862.479C290.319 863.5 290.319 865.154 291.34 866.175L328.567 903.4C329.588 904.421 331.242 904.421 332.263 903.4C333.285 902.379 333.285 900.724 332.263 899.703L295.037 862.479Z" fill="#1B1B1D"/>
<path d="M347.041 914.488C346.02 913.467 344.365 913.467 343.344 914.488C342.323 915.509 342.323 917.164 343.344 918.185L380.571 955.41C381.592 956.431 383.246 956.431 384.267 955.41C385.288 954.389 385.288 952.734 384.267 951.713L347.041 914.488Z" fill="#1B1B1D"/>
<path d="M347.041 903.404L384.267 866.179C385.288 865.158 385.288 863.504 384.267 862.483C383.246 861.462 381.592 861.462 380.571 862.483L343.344 899.707C342.323 900.728 342.323 902.383 343.344 903.404C344.365 904.425 346.02 904.425 347.041 903.404Z" fill="#1B1B1D"/>
<path d="M328.567 914.488L291.34 951.713C290.319 952.734 290.319 954.389 291.34 955.41C292.361 956.431 294.016 956.431 295.037 955.41L332.263 918.185C333.285 917.164 333.285 915.509 332.263 914.488C331.242 913.467 329.588 913.467 328.567 914.488Z" fill="#1B1B1D"/>
<path d="M408.392 862.479C407.371 861.458 405.716 861.458 404.695 862.479C403.674 863.5 403.674 865.154 404.695 866.175L441.922 903.4C442.943 904.421 444.598 904.421 445.619 903.4C446.64 902.379 446.64 900.724 445.619 899.703L408.392 862.479Z" fill="#1B1B1D"/>
<path d="M460.396 914.488C459.375 913.467 457.72 913.467 456.699 914.488C455.678 915.509 455.678 917.164 456.699 918.185L493.926 955.41C494.947 956.431 496.602 956.431 497.623 955.41C498.644 954.389 498.644 952.734 497.623 951.713L460.396 914.488Z" fill="#1B1B1D"/>
<path d="M460.396 903.404L497.623 866.179C498.644 865.158 498.644 863.504 497.623 862.483C496.602 861.462 494.947 861.462 493.926 862.483L456.699 899.707C455.678 900.728 455.678 902.383 456.699 903.404C457.72 904.425 459.375 904.425 460.396 903.404Z" fill="#1B1B1D"/>
<path d="M441.922 914.488L404.695 951.713C403.674 952.734 403.674 954.389 404.695 955.41C405.716 956.431 407.371 956.431 408.392 955.41L445.619 918.185C446.64 917.164 446.64 915.509 445.619 914.488C444.598 913.467 442.943 913.467 441.922 914.488Z" fill="#1B1B1D"/>
<path d="M525.291 862.479C524.27 861.458 522.615 861.458 521.594 862.479C520.573 863.5 520.573 865.154 521.594 866.175L558.821 903.4C559.842 904.421 561.496 904.421 562.517 903.4C563.538 902.379 563.538 900.724 562.517 899.703L525.291 862.479Z" fill="#1B1B1D"/>
<path d="M577.295 914.488C576.274 913.467 574.619 913.467 573.598 914.488C572.577 915.509 572.577 917.164 573.598 918.185L610.824 955.41C611.845 956.431 613.5 956.431 614.521 955.41C615.542 954.389 615.542 952.734 614.521 951.713L577.295 914.488Z" fill="#1B1B1D"/>
<path d="M577.295 903.404L614.521 866.179C615.542 865.158 615.542 863.504 614.521 862.483C613.5 861.462 611.845 861.462 610.824 862.483L573.598 899.707C572.577 900.728 572.577 902.383 573.598 903.404C574.619 904.425 576.274 904.425 577.295 903.404Z" fill="#1B1B1D"/>
<path d="M558.821 914.488L521.594 951.713C520.573 952.734 520.573 954.389 521.594 955.41C522.615 956.431 524.27 956.431 525.291 955.41L562.517 918.185C563.538 917.164 563.538 915.509 562.517 914.488C561.496 913.467 559.842 913.467 558.821 914.488Z" fill="#1B1B1D"/>
<path d="M945.713 975.834C944.692 974.813 943.037 974.813 942.016 975.834C940.995 976.855 940.995 978.51 942.016 979.531L979.242 1016.76C980.263 1017.78 981.918 1017.78 982.939 1016.76C983.96 1015.73 983.96 1014.08 982.939 1013.06L945.713 975.834Z" fill="#1B1B1D"/>
<path d="M997.717 1027.84C996.696 1026.82 995.041 1026.82 994.02 1027.84C992.999 1028.86 992.999 1030.52 994.02 1031.54L1031.25 1068.77C1032.27 1069.79 1033.92 1069.79 1034.94 1068.77C1035.96 1067.74 1035.96 1066.09 1034.94 1065.07L997.717 1027.84Z" fill="#1B1B1D"/>
<path d="M997.717 1016.76L1034.94 979.535C1035.96 978.514 1035.96 976.859 1034.94 975.838C1033.92 974.817 1032.27 974.817 1031.25 975.838L994.02 1013.06C992.999 1014.08 992.999 1015.74 994.02 1016.76C995.041 1017.78 996.696 1017.78 997.717 1016.76Z" fill="#1B1B1D"/>
<path d="M979.242 1027.84L942.016 1065.07C940.995 1066.09 940.995 1067.74 942.016 1068.77C943.037 1069.79 944.692 1069.79 945.713 1068.77L982.939 1031.54C983.96 1030.52 983.96 1028.86 982.939 1027.84C981.918 1026.82 980.263 1026.82 979.242 1027.84Z" fill="#1B1B1D"/>
<path d="M1059.07 975.834C1058.05 974.813 1056.39 974.813 1055.37 975.834C1054.35 976.855 1054.35 978.51 1055.37 979.531L1092.6 1016.76C1093.62 1017.78 1095.27 1017.78 1096.29 1016.76C1097.32 1015.73 1097.32 1014.08 1096.29 1013.06L1059.07 975.834Z" fill="#1B1B1D"/>
<path d="M1111.07 1027.84C1110.05 1026.82 1108.4 1026.82 1107.38 1027.84C1106.35 1028.86 1106.35 1030.52 1107.38 1031.54L1144.6 1068.77C1145.62 1069.79 1147.28 1069.79 1148.3 1068.77C1149.32 1067.74 1149.32 1066.09 1148.3 1065.07L1111.07 1027.84Z" fill="#1B1B1D"/>
<path d="M1111.07 1016.76L1148.3 979.535C1149.32 978.514 1149.32 976.859 1148.3 975.838C1147.28 974.817 1145.62 974.817 1144.6 975.838L1107.38 1013.06C1106.35 1014.08 1106.35 1015.74 1107.38 1016.76C1108.4 1017.78 1110.05 1017.78 1111.07 1016.76Z" fill="#1B1B1D"/>
<path d="M1092.6 1027.84L1055.37 1065.07C1054.35 1066.09 1054.35 1067.74 1055.37 1068.77C1056.39 1069.79 1058.05 1069.79 1059.07 1068.77L1096.29 1031.54C1097.32 1030.52 1097.32 1028.86 1096.29 1027.84C1095.27 1026.82 1093.62 1026.82 1092.6 1027.84Z" fill="#1B1B1D"/>
<path d="M1175.97 975.834C1174.95 974.813 1173.29 974.813 1172.27 975.834C1171.25 976.855 1171.25 978.51 1172.27 979.531L1209.5 1016.76C1210.52 1017.78 1212.17 1017.78 1213.19 1016.76C1214.21 1015.73 1214.21 1014.08 1213.19 1013.06L1175.97 975.834Z" fill="#1B1B1D"/>
<path d="M1227.97 1027.84C1226.95 1026.82 1225.29 1026.82 1224.27 1027.84C1223.25 1028.86 1223.25 1030.52 1224.27 1031.54L1261.5 1068.77C1262.52 1069.79 1264.18 1069.79 1265.2 1068.77C1266.22 1067.74 1266.22 1066.09 1265.2 1065.07L1227.97 1027.84Z" fill="#1B1B1D"/>
<path d="M1227.97 1016.76L1265.2 979.535C1266.22 978.514 1266.22 976.859 1265.2 975.838C1264.18 974.817 1262.52 974.817 1261.5 975.838L1224.27 1013.06C1223.25 1014.08 1223.25 1015.74 1224.27 1016.76C1225.29 1017.78 1226.95 1017.78 1227.97 1016.76Z" fill="#1B1B1D"/>
<path d="M1209.5 1027.84L1172.27 1065.07C1171.25 1066.09 1171.25 1067.74 1172.27 1068.77C1173.29 1069.79 1174.95 1069.79 1175.97 1068.77L1213.19 1031.54C1214.21 1030.52 1214.21 1028.86 1213.19 1027.84C1212.17 1026.82 1210.52 1026.82 1209.5 1027.84Z" fill="#1B1B1D"/>
<path d="M945.713 862.479C944.692 861.458 943.037 861.458 942.016 862.479C940.995 863.5 940.995 865.154 942.016 866.175L979.242 903.4C980.263 904.421 981.918 904.421 982.939 903.4C983.96 902.379 983.96 900.724 982.939 899.703L945.713 862.479Z" fill="#1B1B1D"/>
<path d="M997.717 914.488C996.696 913.467 995.041 913.467 994.02 914.488C992.999 915.509 992.999 917.164 994.02 918.185L1031.25 955.41C1032.27 956.431 1033.92 956.431 1034.94 955.41C1035.96 954.389 1035.96 952.734 1034.94 951.713L997.717 914.488Z" fill="#1B1B1D"/>
<path d="M997.717 903.404L1034.94 866.179C1035.96 865.158 1035.96 863.504 1034.94 862.483C1033.92 861.462 1032.27 861.462 1031.25 862.483L994.02 899.707C992.999 900.728 992.999 902.383 994.02 903.404C995.041 904.425 996.696 904.425 997.717 903.404Z" fill="#1B1B1D"/>
<path d="M979.242 914.488L942.016 951.713C940.995 952.734 940.995 954.389 942.016 955.41C943.037 956.431 944.692 956.431 945.713 955.41L982.939 918.185C983.96 917.164 983.96 915.509 982.939 914.488C981.918 913.467 980.263 913.467 979.242 914.488Z" fill="#1B1B1D"/>
<path d="M1059.07 862.479C1058.05 861.458 1056.39 861.458 1055.37 862.479C1054.35 863.5 1054.35 865.154 1055.37 866.175L1092.6 903.4C1093.62 904.421 1095.27 904.421 1096.29 903.4C1097.32 902.379 1097.32 900.724 1096.29 899.703L1059.07 862.479Z" fill="#1B1B1D"/>
<path d="M1111.07 914.488C1110.05 913.467 1108.4 913.467 1107.38 914.488C1106.35 915.509 1106.35 917.164 1107.38 918.185L1144.6 955.41C1145.62 956.431 1147.28 956.431 1148.3 955.41C1149.32 954.389 1149.32 952.734 1148.3 951.713L1111.07 914.488Z" fill="#1B1B1D"/>
<path d="M1111.07 903.404L1148.3 866.179C1149.32 865.158 1149.32 863.504 1148.3 862.483C1147.28 861.462 1145.62 861.462 1144.6 862.483L1107.38 899.707C1106.35 900.728 1106.35 902.383 1107.38 903.404C1108.4 904.425 1110.05 904.425 1111.07 903.404Z" fill="#1B1B1D"/>
<path d="M1092.6 914.488L1055.37 951.713C1054.35 952.734 1054.35 954.389 1055.37 955.41C1056.39 956.431 1058.05 956.431 1059.07 955.41L1096.29 918.185C1097.32 917.164 1097.32 915.509 1096.29 914.488C1095.27 913.467 1093.62 913.467 1092.6 914.488Z" fill="#1B1B1D"/>
<path d="M1175.97 862.479C1174.95 861.458 1173.29 861.458 1172.27 862.479C1171.25 863.5 1171.25 865.154 1172.27 866.175L1209.5 903.4C1210.52 904.421 1212.17 904.421 1213.19 903.4C1214.21 902.379 1214.21 900.724 1213.19 899.703L1175.97 862.479Z" fill="#1B1B1D"/>
<path d="M1227.97 914.488C1226.95 913.467 1225.29 913.467 1224.27 914.488C1223.25 915.509 1223.25 917.164 1224.27 918.185L1261.5 955.41C1262.52 956.431 1264.18 956.431 1265.2 955.41C1266.22 954.389 1266.22 952.734 1265.2 951.713L1227.97 914.488Z" fill="#1B1B1D"/>
<path d="M1227.97 903.404L1265.2 866.179C1266.22 865.158 1266.22 863.504 1265.2 862.483C1264.18 861.462 1262.52 861.462 1261.5 862.483L1224.27 899.707C1223.25 900.728 1223.25 902.383 1224.27 903.404C1225.29 904.425 1226.95 904.425 1227.97 903.404Z" fill="#1B1B1D"/>
<path d="M1209.5 914.488L1172.27 951.713C1171.25 952.734 1171.25 954.389 1172.27 955.41C1173.29 956.431 1174.95 956.431 1175.97 955.41L1213.19 918.185C1214.21 917.164 1214.21 915.509 1213.19 914.488C1212.17 913.467 1210.52 913.467 1209.5 914.488Z" fill="#1B1B1D"/>
<path d="M1920 -99L1594 218" stroke="#1B1B1D" stroke-width="6"/>
<path d="M1916 544L1598 217" stroke="#1B1B1D" stroke-width="6"/>
<path d="M616 -94L289 223" stroke="#1B1B1D" stroke-width="6"/>
<path d="M288 862L-37 1182" stroke="#1B1B1D" stroke-width="6"/>
<path d="M944 864L618 1182" stroke="#1B1B1D" stroke-width="6"/>
<path d="M1592 864L1266 1182" stroke="#1B1B1D" stroke-width="6"/>
<path d="M1599.06 540.537L1594.3 540.537L1594.3 545.295" stroke="white" stroke-width="2"/>
<path d="M1594.31 535.779V540.537H1589.55" stroke="white" stroke-width="2"/>
<path d="M294.141 219.363L289.382 219.363L289.382 224.121" stroke="white" stroke-width="2"/>
<path d="M289.383 214.605V219.364H284.625" stroke="white" stroke-width="2"/>
<path d="M620.074 219.363L615.316 219.363L615.316 224.121" stroke="white" stroke-width="2"/>
<path d="M615.317 214.605V219.364H610.559" stroke="white" stroke-width="2"/>
<path d="M946.008 219.363L941.25 219.363L941.25 224.121" stroke="white" stroke-width="2"/>
<path d="M941.25 214.605V219.364H936.492" stroke="white" stroke-width="2"/>
<path d="M1271.94 219.363L1267.18 219.363L1267.18 224.121" stroke="white" stroke-width="2"/>
<path d="M1267.18 214.605V219.364H1262.43" stroke="white" stroke-width="2"/>
<path d="M1599.06 219.363L1594.3 219.363L1594.3 224.121" stroke="white" stroke-width="2"/>
<path d="M1594.31 214.605V219.364H1589.55" stroke="white" stroke-width="2"/>
<path d="M294.141 861.713L289.382 861.713L289.382 866.471" stroke="white" stroke-width="2"/>
<path d="M289.383 856.955V861.713H284.625" stroke="white" stroke-width="2"/>
<path d="M620.074 861.713L615.316 861.713L615.316 866.471" stroke="white" stroke-width="2"/>
<path d="M615.317 856.955V861.713H610.559" stroke="white" stroke-width="2"/>
<path d="M946.008 861.713L941.25 861.713L941.25 866.471" stroke="white" stroke-width="2"/>
<path d="M941.25 856.955V861.713H936.492" stroke="white" stroke-width="2"/>
<path d="M1271.94 861.713L1267.18 861.713L1267.18 866.471" stroke="white" stroke-width="2"/>
<path d="M1267.18 856.955V861.713H1262.43" stroke="white" stroke-width="2"/>
<path d="M1599.06 861.713L1594.3 861.713L1594.3 866.471" stroke="white" stroke-width="2"/>
<path d="M1594.31 856.955V861.713H1589.55" stroke="white" stroke-width="2"/>
<path d="M1258 0H1941V1088H630.5L1258 0Z" fill="black"/>
<path fill-rule="evenodd" clip-rule="evenodd" d="M259.928 574.926C259.928 609.423 231.962 637.39 197.464 637.39C162.966 637.39 135 609.423 135 574.926H166.232C166.232 592.175 180.215 606.158 197.464 606.158C214.713 606.158 228.696 592.175 228.696 574.926H259.928Z" fill="white"/>
<path fill-rule="evenodd" clip-rule="evenodd" d="M166.232 528.078H135V559.31H166.232V528.078ZM259.928 528.078H228.696V559.31H259.928V528.078Z" fill="white"/>
<path fill-rule="evenodd" clip-rule="evenodd" d="M275.544 559.31H306.776V528.078H275.544V559.31ZM181.848 559.31H213.08V528.078H181.848V559.31Z" fill="white"/>
<path fill-rule="evenodd" clip-rule="evenodd" d="M181.848 512.464C181.848 477.966 209.814 450 244.312 450C278.809 450 306.776 477.966 306.776 512.464H275.544C275.544 495.215 261.56 481.232 244.312 481.232C227.063 481.232 213.08 495.215 213.08 512.464H181.848Z" fill="white"/>
<path d="M425.775 485.753H449.786V559.508C449.786 567.789 447.809 575.036 443.853 581.246C439.935 587.457 434.445 592.3 427.383 595.776C420.322 599.213 412.096 600.933 402.706 600.933C393.279 600.933 385.035 599.213 377.973 595.776C370.912 592.3 365.422 587.457 361.503 581.246C357.585 575.036 355.625 567.789 355.625 559.508V485.753H379.637V557.456C379.637 561.781 380.579 565.626 382.465 568.99C384.388 572.355 387.086 574.998 390.562 576.92C394.036 578.843 398.085 579.804 402.706 579.804C407.365 579.804 411.412 578.843 414.851 576.92C418.326 574.998 421.006 572.355 422.892 568.99C424.814 565.626 425.775 561.781 425.775 557.456V485.753ZM493.637 550.08V599.324H470.014V514.146H492.528V529.174H493.527C495.412 524.22 498.573 520.302 503.01 517.418C507.446 514.497 512.824 513.037 519.147 513.037C525.061 513.037 530.219 514.331 534.618 516.919C539.018 519.507 542.437 523.204 544.877 528.01C547.317 532.779 548.537 538.473 548.537 545.09V599.324H524.914V549.304C524.951 544.092 523.62 540.025 520.921 537.104C518.223 534.147 514.507 532.668 509.774 532.668C506.596 532.668 503.786 533.352 501.346 534.72C498.943 536.087 497.057 538.084 495.69 540.709C494.358 543.297 493.674 546.42 493.637 550.08ZM567.156 599.324V514.146H590.78V599.324H567.156ZM579.023 503.166C575.512 503.166 572.499 502.002 569.985 499.673C567.508 497.306 566.269 494.479 566.269 491.188C566.269 487.934 567.508 485.143 569.985 482.814C572.499 480.449 575.512 479.266 579.023 479.266C582.536 479.266 585.53 480.449 588.008 482.814C590.521 485.143 591.778 487.934 591.778 491.188C591.778 494.479 590.521 497.306 588.008 499.673C585.53 502.002 582.536 503.166 579.023 503.166ZM648.19 600.988C639.575 600.988 632.126 599.158 625.841 595.498C619.593 591.801 614.768 586.663 611.367 580.081C607.967 573.464 606.266 565.793 606.266 557.068C606.266 548.269 607.967 540.58 611.367 533.999C614.768 527.381 619.593 522.243 625.841 518.583C632.126 514.886 639.575 513.037 648.19 513.037C656.803 513.037 664.234 514.886 670.482 518.583C676.767 522.243 681.61 527.381 685.011 533.999C688.412 540.58 690.113 548.269 690.113 557.068C690.113 565.793 688.412 573.464 685.011 580.081C681.61 586.663 676.767 591.801 670.482 595.498C664.234 599.158 656.803 600.988 648.19 600.988ZM648.3 582.688C652.219 582.688 655.491 581.579 658.115 579.36C660.741 577.106 662.718 574.037 664.05 570.156C665.417 566.273 666.101 561.856 666.101 556.901C666.101 551.947 665.417 547.53 664.05 543.648C662.718 539.766 660.741 536.697 658.115 534.443C655.491 532.187 652.219 531.06 648.3 531.06C644.344 531.06 641.017 532.187 638.318 534.443C635.657 536.697 633.641 539.766 632.274 543.648C630.943 547.53 630.277 551.947 630.277 556.901C630.277 561.856 630.943 566.273 632.274 570.156C633.641 574.037 635.657 577.106 638.318 579.36C641.017 581.579 644.344 582.688 648.3 582.688ZM729.1 550.08V599.324H705.474V514.146H727.987V529.174H728.983C730.876 524.22 734.029 520.302 738.47 517.418C742.91 514.497 748.288 513.037 754.603 513.037C760.517 513.037 765.68 514.331 770.082 516.919C774.474 519.507 777.9 523.204 780.34 528.01C782.78 532.779 784 538.473 784 545.09V599.324H760.371V549.304C760.41 544.092 759.083 540.025 756.379 537.104C753.685 534.147 749.967 532.668 745.233 532.668C742.051 532.668 739.25 533.352 736.81 534.72C734.4 536.087 732.516 538.084 731.15 540.709C729.822 543.297 729.139 546.42 729.1 550.08Z" fill="white"/>
<path d="M1380.49 444.379C1425.05 444.379 1462.85 474.209 1475.11 514.977C1479.9 517.96 1484.58 521.053 1488.98 524.257C1479.84 472.497 1434.68 433 1380.49 433C1329.5 433 1286.48 468.022 1273.99 515.363C1277.01 517.96 1280.31 520.556 1283.84 523.152C1293.24 478.242 1333.02 444.379 1380.49 444.379Z" fill="white"/>
<path d="M1477.15 564.082C1467.74 608.992 1427.97 642.799 1380.49 642.799C1335.93 642.799 1298.14 612.97 1285.87 572.202C1281.08 569.219 1276.41 566.126 1272.01 562.922C1281.14 614.737 1326.3 654.234 1380.49 654.234C1431.49 654.234 1474.51 619.212 1487 571.871C1483.97 569.275 1480.67 566.678 1477.15 564.082Z" fill="white"/>
<path d="M1486.83 620.982C1506.14 620.982 1519.35 614.188 1524.08 601.814C1530.51 585.021 1519.46 567.344 1509 555.468C1495.69 540.332 1474.95 525.141 1452.12 513.872C1413.61 494.869 1376.7 489.621 1358.05 500.503C1355.85 501.774 1354.2 503.984 1353.48 506.635C1352.71 509.287 1352.93 512.159 1354.09 514.645C1355.24 517.131 1357.11 519.009 1359.48 519.838C1361.85 520.721 1364.32 520.445 1366.52 519.175C1377.91 512.546 1408.44 515.197 1444.75 533.095C1447.55 534.476 1450.36 535.968 1453.11 537.459C1470.94 546.629 1486.89 557.677 1498.06 568.504C1516.6 586.513 1517.04 599.273 1514.17 606.841C1510.87 615.458 1499.65 619.822 1480.84 619.822C1477.26 619.822 1473.41 619.657 1469.34 619.325C1475.5 620.43 1481.33 620.982 1486.83 620.982Z" fill="white"/>
<path d="M1274.15 466.25C1254.84 466.25 1241.64 473.045 1236.91 485.418C1230.47 502.211 1241.53 519.888 1251.98 531.765C1265.3 546.901 1286.03 562.092 1308.86 573.361C1347.37 592.364 1384.29 597.611 1402.94 586.729C1405.14 585.458 1406.79 583.249 1407.5 580.597C1408.27 577.946 1408.05 575.073 1406.9 572.587C1405.74 570.102 1403.87 568.224 1401.51 567.395C1399.14 566.511 1396.66 566.787 1394.46 568.058C1383.08 574.687 1352.54 572.035 1316.24 554.137C1313.43 552.756 1310.63 551.265 1307.87 549.773C1290.05 540.603 1274.1 529.555 1262.93 518.728C1244.39 500.72 1243.95 487.959 1246.81 480.392C1250.11 471.774 1261.33 467.41 1280.15 467.41C1283.72 467.41 1287.58 467.576 1291.65 467.907C1285.48 466.747 1279.65 466.25 1274.15 466.25Z" fill="white"/>
<path d="M1611.01 566.96C1613.65 566.96 1616.24 566.021 1618.72 564.143C1621.19 562.265 1622.79 560 1623.61 557.348C1624.44 554.697 1624.16 552.377 1622.9 550.499C1621.58 548.62 1619.6 547.681 1616.96 547.681H1606.12C1601.28 547.681 1597.7 545.969 1595.34 542.489C1592.92 539.064 1592.47 534.921 1593.96 530.004C1595.45 525.143 1598.42 521 1602.93 517.575C1607.38 514.095 1612.06 512.383 1616.9 512.383H1627.74C1632.58 512.383 1636.21 514.095 1638.58 517.575C1641 521 1641.44 525.143 1639.95 530.004C1639.62 531.109 1638.96 532.048 1637.92 532.822C1636.87 533.595 1635.82 533.982 1634.72 533.982C1633.62 533.982 1632.8 533.595 1632.3 532.822C1631.75 532.048 1631.64 531.109 1631.97 530.004C1632.8 527.353 1632.52 525.088 1631.2 523.21C1629.88 521.332 1627.9 520.393 1625.26 520.393H1614.42C1611.78 520.393 1609.25 521.332 1606.78 523.21C1604.3 525.088 1602.71 527.353 1601.88 530.004C1601.06 532.656 1601.33 534.976 1602.6 536.854C1603.92 538.732 1605.9 539.672 1608.54 539.672H1619.38C1624.22 539.672 1627.85 541.384 1630.21 544.864C1632.63 548.289 1633.07 552.432 1631.59 557.348C1630.1 562.21 1627.13 566.353 1622.62 569.777C1618.11 573.258 1613.43 574.97 1608.59 574.97H1597.76C1592.92 574.97 1589.34 573.258 1586.97 569.777C1584.55 566.353 1584.11 562.21 1585.6 557.348C1585.93 556.244 1586.59 555.304 1587.63 554.531C1588.62 553.758 1589.67 553.371 1590.77 553.371C1591.87 553.371 1592.7 553.758 1593.25 554.531C1593.8 555.304 1593.91 556.244 1593.58 557.348C1592.75 560 1593.03 562.265 1594.35 564.143C1595.67 566.021 1597.65 566.96 1600.29 566.96H1611.01Z" fill="white"/>
<path d="M1659.81 516.307C1660.14 515.258 1660.8 514.319 1661.85 513.49C1662.84 512.717 1663.88 512.33 1664.98 512.33C1666.08 512.33 1666.91 512.717 1667.46 513.49C1668.01 514.264 1668.12 515.203 1667.79 516.307L1660.47 540.337L1698.32 513.38C1699.36 512.606 1700.41 512.275 1701.51 512.33C1702.56 512.385 1703.33 512.827 1703.88 513.656C1704.37 514.484 1704.37 515.424 1703.99 516.528C1703.6 517.633 1702.89 518.572 1701.84 519.29L1670.7 541.497L1687.21 568.288C1687.7 569.117 1687.76 570.056 1687.37 571.106C1686.99 572.211 1686.33 573.15 1685.28 573.923C1684.29 574.641 1683.3 574.973 1682.26 574.973C1681.1 574.973 1680.28 574.531 1679.73 573.702L1663.22 546.8L1657.23 551.054L1651.17 570.94C1650.84 572.045 1650.18 572.984 1649.14 573.757C1648.09 574.531 1647.05 574.917 1645.95 574.917C1644.85 574.917 1644.02 574.531 1643.53 573.757C1642.98 572.984 1642.87 572.045 1643.2 570.94L1659.81 516.307Z" fill="white"/>
<path d="M1706.02 574.916C1704.92 574.916 1704.1 574.529 1703.6 573.756C1703.05 572.982 1702.94 572.043 1703.27 570.939L1719.94 516.251C1720.27 515.201 1720.93 514.262 1721.98 513.433C1722.97 512.66 1724.01 512.273 1725.11 512.273C1726.21 512.273 1727.04 512.66 1727.59 513.433C1728.14 514.207 1728.25 515.146 1727.92 516.251L1711.25 570.939C1710.92 572.043 1710.26 572.982 1709.21 573.756C1708.17 574.529 1707.12 574.916 1706.02 574.916Z" fill="white"/>
<path d="M1746.4 520.287C1745.3 520.287 1744.48 519.9 1743.98 519.127C1743.43 518.353 1743.32 517.414 1743.65 516.309C1743.98 515.26 1744.64 514.321 1745.69 513.492C1746.68 512.719 1747.72 512.332 1748.82 512.332H1769.89C1775.5 512.332 1779.68 514.321 1782.43 518.298C1785.19 522.331 1785.74 527.136 1784.03 532.716C1782.32 538.35 1778.86 543.156 1773.63 547.133C1768.46 551.111 1763.07 553.099 1757.46 553.099H1740.41L1734.96 570.887C1734.63 571.992 1733.97 572.931 1732.92 573.704C1731.88 574.477 1730.83 574.864 1729.73 574.864C1728.63 574.864 1727.81 574.477 1727.31 573.704C1726.76 572.931 1726.65 571.992 1726.98 570.887L1733.64 549.122C1733.97 548.017 1734.63 547.078 1735.67 546.305C1736.66 545.531 1737.71 545.145 1738.81 545.145H1759.88C1763.29 545.145 1766.59 543.929 1769.73 541.499C1772.92 539.068 1775.01 536.141 1776.05 532.66C1777.1 529.236 1776.77 526.308 1775.06 523.822C1773.41 521.391 1770.83 520.176 1767.42 520.176H1746.4V520.287Z" fill="white"/>
<line x1="1321.43" y1="-88.4023" x2="581.092" y2="1193.91" stroke="url(#paint0_linear_560_2785)" stroke-width="21"/>
<g filter="url(#filter0_f_560_2785)">
<line x1="1321.43" y1="-88.4023" x2="581.092" y2="1193.91" stroke="url(#paint1_linear_560_2785)" stroke-width="21"/>
</g>
</g>
<defs>
<filter id="filter0_f_560_2785" x="518" y="-147.652" width="866.527" height="1400.81" filterUnits="userSpaceOnUse" color-interpolation-filters="sRGB">
<feFlood flood-opacity="0" result="BackgroundImageFix"/>
<feBlend mode="normal" in="SourceGraphic" in2="BackgroundImageFix" result="shape"/>
<feGaussianBlur stdDeviation="27" result="effect1_foregroundBlur_560_2785"/>
</filter>
<linearGradient id="paint0_linear_560_2785" x1="572.005" y1="1189" x2="1356.02" y2="-129.49" gradientUnits="userSpaceOnUse">
<stop stop-color="#A0ECFD" stop-opacity="0"/>
<stop offset="0.45" stop-color="#A0ECFD"/>
<stop offset="1" stop-color="#A0ECFD" stop-opacity="0"/>
</linearGradient>
<linearGradient id="paint1_linear_560_2785" x1="572.005" y1="1189" x2="1356.02" y2="-129.49" gradientUnits="userSpaceOnUse">
<stop stop-color="#A0ECFD" stop-opacity="0"/>
<stop offset="0.45" stop-color="#A0ECFD"/>
<stop offset="1" stop-color="#A0ECFD" stop-opacity="0"/>
</linearGradient>
<clipPath id="clip0_560_2785">
<rect width="1920" height="1080" fill="white"/>
</clipPath>
</defs>
</svg>
