<svg width="1920" height="1080" viewBox="0 0 1920 1080" fill="none" xmlns="http://www.w3.org/2000/svg">
<g clip-path="url(#clip0_844_443)">
<rect width="1920" height="1080" fill="black"/>
<path d="M1755.66 990.364C1751.36 1004.92 1739.9 1016.39 1725.37 1020.68C1723.54 1021.22 1723.54 1023.78 1725.37 1024.32C1739.9 1028.61 1751.36 1040.08 1755.66 1054.64C1756.2 1056.45 1758.79 1056.45 1759.34 1054.64C1763.64 1040.08 1775.1 1028.61 1789.63 1024.32C1791.46 1023.78 1791.46 1021.22 1789.63 1020.68C1775.1 1016.39 1763.64 1004.92 1759.34 990.364C1758.8 988.545 1756.21 988.545 1755.66 990.364Z" fill="#1B1B1D"/>
<path d="M619.783 11.1202C618.762 10.0992 617.107 10.0992 616.086 11.1202C615.065 12.1412 615.065 13.7958 616.086 14.8168L653.313 52.0415C654.334 53.0625 655.989 53.0625 657.01 52.0415C658.031 51.0205 658.031 49.3658 657.01 48.3448L619.783 11.1202Z" fill="#1B1B1D"/>
<path d="M671.791 63.13C670.77 62.109 669.115 62.109 668.094 63.13C667.073 64.151 667.073 65.8057 668.094 66.8267L705.321 104.051C706.342 105.072 707.996 105.072 709.017 104.051C710.038 103.03 710.038 101.376 709.017 100.355L671.791 63.13Z" fill="#1B1B1D"/>
<path d="M671.791 52.0464L709.017 14.8216C710.038 13.8007 710.038 12.1461 709.017 11.1251C707.996 10.1041 706.342 10.1041 705.321 11.1251L668.094 48.3497C667.073 49.3707 667.073 51.0254 668.094 52.0464C669.115 53.0673 670.77 53.0673 671.791 52.0464Z" fill="#1B1B1D"/>
<path d="M653.313 63.13L616.086 100.355C615.065 101.376 615.065 103.03 616.086 104.051C617.107 105.072 618.762 105.072 619.783 104.051L657.01 66.8267C658.031 65.8057 658.031 64.151 657.01 63.13C655.989 62.109 654.334 62.109 653.313 63.13Z" fill="#1B1B1D"/>
<path d="M733.142 11.1202C732.121 10.0992 730.466 10.0992 729.445 11.1202C728.424 12.1412 728.424 13.7958 729.445 14.8168L766.672 52.0415C767.693 53.0625 769.348 53.0625 770.369 52.0415C771.39 51.0205 771.39 49.3658 770.369 48.3448L733.142 11.1202Z" fill="#1B1B1D"/>
<path d="M785.15 63.13C784.129 62.109 782.474 62.109 781.453 63.13C780.432 64.151 780.432 65.8057 781.453 66.8267L818.68 104.051C819.701 105.072 821.356 105.072 822.377 104.051C823.398 103.03 823.398 101.376 822.377 100.355L785.15 63.13Z" fill="#1B1B1D"/>
<path d="M785.15 52.0464L822.377 14.8216C823.398 13.8007 823.398 12.1461 822.377 11.1251C821.356 10.1041 819.701 10.1041 818.68 11.1251L781.453 48.3497C780.432 49.3707 780.432 51.0254 781.453 52.0464C782.474 53.0673 784.129 53.0673 785.15 52.0464Z" fill="#1B1B1D"/>
<path d="M766.672 63.13L729.445 100.355C728.424 101.376 728.424 103.03 729.445 104.051C730.466 105.072 732.121 105.072 733.142 104.051L770.369 66.8267C771.39 65.8057 771.39 64.151 770.369 63.13C769.348 62.109 767.693 62.109 766.672 63.13Z" fill="#1B1B1D"/>
<path d="M850.033 11.1202C849.012 10.0992 847.357 10.0992 846.336 11.1202C845.315 12.1412 845.315 13.7958 846.336 14.8168L883.563 52.0415C884.584 53.0625 886.239 53.0625 887.26 52.0415C888.281 51.0205 888.281 49.3658 887.26 48.3448L850.033 11.1202Z" fill="#1B1B1D"/>
<path d="M902.041 63.13C901.02 62.109 899.365 62.109 898.344 63.13C897.323 64.151 897.323 65.8057 898.344 66.8267L935.571 104.051C936.592 105.072 938.246 105.072 939.267 104.051C940.288 103.03 940.288 101.376 939.267 100.355L902.041 63.13Z" fill="#1B1B1D"/>
<path d="M902.041 52.0464L939.267 14.8216C940.288 13.8007 940.288 12.1461 939.267 11.1251C938.246 10.1041 936.592 10.1041 935.571 11.1251L898.344 48.3497C897.323 49.3707 897.323 51.0254 898.344 52.0464C899.365 53.0673 901.02 53.0673 902.041 52.0464Z" fill="#1B1B1D"/>
<path d="M883.563 63.13L846.336 100.355C845.315 101.376 845.315 103.03 846.336 104.051C847.357 105.072 849.012 105.072 850.033 104.051L887.26 66.8267C888.281 65.8057 888.281 64.151 887.26 63.13C886.239 62.109 884.584 62.109 883.563 63.13Z" fill="#1B1B1D"/>
<path d="M619.783 124.478C618.762 123.457 617.107 123.457 616.086 124.478C615.065 125.499 615.065 127.153 616.086 128.174L653.313 165.399C654.334 166.42 655.989 166.42 657.01 165.399C658.031 164.378 658.031 162.723 657.01 161.702L619.783 124.478Z" fill="#1B1B1D"/>
<path d="M671.791 176.487C670.77 175.466 669.115 175.466 668.094 176.487C667.073 177.508 667.073 179.163 668.094 180.184L705.321 217.409C706.342 218.43 707.996 218.43 709.017 217.409C710.038 216.388 710.038 214.733 709.017 213.712L671.791 176.487Z" fill="#1B1B1D"/>
<path d="M671.791 165.404L709.017 128.179C710.038 127.158 710.038 125.504 709.017 124.483C707.996 123.462 706.342 123.462 705.321 124.483L668.094 161.707C667.073 162.728 667.073 164.383 668.094 165.404C669.115 166.425 670.77 166.425 671.791 165.404Z" fill="#1B1B1D"/>
<path d="M653.313 176.487L616.086 213.712C615.065 214.733 615.065 216.388 616.086 217.409C617.107 218.43 618.762 218.43 619.783 217.409L657.01 180.184C658.031 179.163 658.031 177.508 657.01 176.487C655.989 175.466 654.334 175.466 653.313 176.487Z" fill="#1B1B1D"/>
<path d="M733.142 124.478C732.121 123.457 730.466 123.457 729.445 124.478C728.424 125.499 728.424 127.153 729.445 128.174L766.672 165.399C767.693 166.42 769.348 166.42 770.369 165.399C771.39 164.378 771.39 162.723 770.369 161.702L733.142 124.478Z" fill="#1B1B1D"/>
<path d="M785.15 176.487C784.129 175.466 782.474 175.466 781.453 176.487C780.432 177.508 780.432 179.163 781.453 180.184L818.68 217.409C819.701 218.43 821.356 218.43 822.377 217.409C823.398 216.388 823.398 214.733 822.377 213.712L785.15 176.487Z" fill="#1B1B1D"/>
<path d="M785.15 165.404L822.377 128.179C823.398 127.158 823.398 125.504 822.377 124.483C821.356 123.462 819.701 123.462 818.68 124.483L781.453 161.707C780.432 162.728 780.432 164.383 781.453 165.404C782.474 166.425 784.129 166.425 785.15 165.404Z" fill="#1B1B1D"/>
<path d="M766.672 176.487L729.445 213.712C728.424 214.733 728.424 216.388 729.445 217.409C730.466 218.43 732.121 218.43 733.142 217.409L770.369 180.184C771.39 179.163 771.39 177.508 770.369 176.487C769.348 175.466 767.693 175.466 766.672 176.487Z" fill="#1B1B1D"/>
<path d="M850.033 124.478C849.012 123.457 847.357 123.457 846.336 124.478C845.315 125.499 845.315 127.153 846.336 128.174L883.563 165.399C884.584 166.42 886.239 166.42 887.26 165.399C888.281 164.378 888.281 162.723 887.26 161.702L850.033 124.478Z" fill="#1B1B1D"/>
<path d="M902.041 176.487C901.02 175.466 899.365 175.466 898.344 176.487C897.323 177.508 897.323 179.163 898.344 180.184L935.571 217.409C936.592 218.43 938.246 218.43 939.267 217.409C940.288 216.388 940.288 214.733 939.267 213.712L902.041 176.487Z" fill="#1B1B1D"/>
<path d="M902.041 165.404L939.267 128.179C940.288 127.158 940.288 125.504 939.267 124.483C938.246 123.462 936.592 123.462 935.571 124.483L898.344 161.707C897.323 162.728 897.323 164.383 898.344 165.404C899.365 166.425 901.02 166.425 902.041 165.404Z" fill="#1B1B1D"/>
<path d="M883.563 176.487L846.336 213.712C845.315 214.733 845.315 216.388 846.336 217.409C847.357 218.43 849.012 218.43 850.033 217.409L887.26 180.184C888.281 179.163 888.281 177.508 887.26 176.487C886.239 175.466 884.584 175.466 883.563 176.487Z" fill="#1B1B1D"/>
<path d="M1274.03 12.3097C1273 11.2887 1271.35 11.2887 1270.33 12.3097C1269.31 13.3307 1269.31 14.9852 1270.33 16.0062L1307.55 53.2309C1308.58 54.2519 1310.23 54.2519 1311.25 53.2309C1312.27 52.21 1312.27 50.5552 1311.25 49.5343L1274.03 12.3097Z" fill="#1B1B1D"/>
<path d="M1326.03 64.3194C1325.01 63.2985 1323.36 63.2985 1322.34 64.3194C1321.32 65.3404 1321.32 66.9951 1322.34 68.0161L1359.56 105.241C1360.58 106.262 1362.24 106.262 1363.26 105.241C1364.28 104.22 1364.28 102.565 1363.26 101.544L1326.03 64.3194Z" fill="#1B1B1D"/>
<path d="M1326.03 53.2358L1363.26 16.0111C1364.28 14.9901 1364.28 13.3355 1363.26 12.3146C1362.24 11.2936 1360.58 11.2936 1359.56 12.3146L1322.34 49.5391C1321.32 50.5601 1321.32 52.2148 1322.34 53.2358C1323.36 54.2568 1325.01 54.2568 1326.03 53.2358Z" fill="#1B1B1D"/>
<path d="M1307.55 64.3194L1270.33 101.544C1269.31 102.565 1269.31 104.22 1270.33 105.241C1271.35 106.262 1273 106.262 1274.03 105.241L1311.25 68.0161C1312.27 66.9951 1312.27 65.3404 1311.25 64.3194C1310.23 63.2985 1308.58 63.2985 1307.55 64.3194Z" fill="#1B1B1D"/>
<path d="M1387.38 12.3097C1386.36 11.2887 1384.71 11.2887 1383.69 12.3097C1382.67 13.3307 1382.67 14.9852 1383.69 16.0062L1420.91 53.2309C1421.94 54.2519 1423.59 54.2519 1424.61 53.2309C1425.63 52.21 1425.63 50.5552 1424.61 49.5343L1387.38 12.3097Z" fill="#1B1B1D"/>
<path d="M1439.39 64.3194C1438.37 63.2985 1436.72 63.2985 1435.7 64.3194C1434.67 65.3404 1434.67 66.9951 1435.7 68.0161L1472.92 105.241C1473.94 106.262 1475.6 106.262 1476.62 105.241C1477.64 104.22 1477.64 102.565 1476.62 101.544L1439.39 64.3194Z" fill="#1B1B1D"/>
<path d="M1439.39 53.2358L1476.62 16.0111C1477.64 14.9901 1477.64 13.3355 1476.62 12.3146C1475.6 11.2936 1473.94 11.2936 1472.92 12.3146L1435.7 49.5391C1434.67 50.5601 1434.67 52.2148 1435.7 53.2358C1436.72 54.2568 1438.37 54.2568 1439.39 53.2358Z" fill="#1B1B1D"/>
<path d="M1420.91 64.3194L1383.69 101.544C1382.67 102.565 1382.67 104.22 1383.69 105.241C1384.71 106.262 1386.36 106.262 1387.38 105.241L1424.61 68.0161C1425.63 66.9951 1425.63 65.3404 1424.61 64.3194C1423.59 63.2985 1421.94 63.2985 1420.91 64.3194Z" fill="#1B1B1D"/>
<path d="M1504.28 12.3097C1503.25 11.2887 1501.6 11.2887 1500.58 12.3097C1499.56 13.3307 1499.56 14.9852 1500.58 16.0062L1537.8 53.2309C1538.83 54.2519 1540.48 54.2519 1541.5 53.2309C1542.52 52.21 1542.52 50.5552 1541.5 49.5343L1504.28 12.3097Z" fill="#1B1B1D"/>
<path d="M1556.28 64.3194C1555.26 63.2985 1553.61 63.2985 1552.59 64.3194C1551.57 65.3404 1551.57 66.9951 1552.59 68.0161L1589.81 105.241C1590.83 106.262 1592.49 106.262 1593.51 105.241C1594.53 104.22 1594.53 102.565 1593.51 101.544L1556.28 64.3194Z" fill="#1B1B1D"/>
<path d="M1556.28 53.2358L1593.51 16.0111C1594.53 14.9901 1594.53 13.3355 1593.51 12.3146C1592.49 11.2936 1590.83 11.2936 1589.81 12.3146L1552.59 49.5391C1551.57 50.5601 1551.57 52.2148 1552.59 53.2358C1553.61 54.2568 1555.26 54.2568 1556.28 53.2358Z" fill="#1B1B1D"/>
<path d="M1537.8 64.3194L1500.58 101.544C1499.56 102.565 1499.56 104.22 1500.58 105.241C1501.6 106.262 1503.25 106.262 1504.28 105.241L1541.5 68.0161C1542.52 66.9951 1542.52 65.3404 1541.5 64.3194C1540.48 63.2985 1538.83 63.2985 1537.8 64.3194Z" fill="#1B1B1D"/>
<path d="M1274.03 125.667C1273 124.646 1271.35 124.646 1270.33 125.667C1269.31 126.688 1269.31 128.343 1270.33 129.364L1307.55 166.588C1308.58 167.609 1310.23 167.609 1311.25 166.588C1312.27 165.567 1312.27 163.913 1311.25 162.892L1274.03 125.667Z" fill="#1B1B1D"/>
<path d="M1326.03 177.677C1325.01 176.656 1323.36 176.656 1322.34 177.677C1321.32 178.698 1321.32 180.353 1322.34 181.374L1359.56 218.598C1360.58 219.619 1362.24 219.619 1363.26 218.598C1364.28 217.577 1364.28 215.922 1363.26 214.901L1326.03 177.677Z" fill="#1B1B1D"/>
<path d="M1326.03 166.593L1363.26 129.369C1364.28 128.348 1364.28 126.693 1363.26 125.672C1362.24 124.651 1360.58 124.651 1359.56 125.672L1322.34 162.897C1321.32 163.918 1321.32 165.572 1322.34 166.593C1323.36 167.614 1325.01 167.614 1326.03 166.593Z" fill="#1B1B1D"/>
<path d="M1307.55 177.677L1270.33 214.901C1269.31 215.922 1269.31 217.577 1270.33 218.598C1271.35 219.619 1273 219.619 1274.03 218.598L1311.25 181.374C1312.27 180.353 1312.27 178.698 1311.25 177.677C1310.23 176.656 1308.58 176.656 1307.55 177.677Z" fill="#1B1B1D"/>
<path d="M1387.38 125.667C1386.36 124.646 1384.71 124.646 1383.69 125.667C1382.67 126.688 1382.67 128.343 1383.69 129.364L1420.91 166.588C1421.94 167.609 1423.59 167.609 1424.61 166.588C1425.63 165.567 1425.63 163.913 1424.61 162.892L1387.38 125.667Z" fill="#1B1B1D"/>
<path d="M1439.39 177.677C1438.37 176.656 1436.72 176.656 1435.7 177.677C1434.67 178.698 1434.67 180.353 1435.7 181.374L1472.92 218.598C1473.94 219.619 1475.6 219.619 1476.62 218.598C1477.64 217.577 1477.64 215.922 1476.62 214.901L1439.39 177.677Z" fill="#1B1B1D"/>
<path d="M1439.39 166.593L1476.62 129.369C1477.64 128.348 1477.64 126.693 1476.62 125.672C1475.6 124.651 1473.94 124.651 1472.92 125.672L1435.7 162.897C1434.67 163.918 1434.67 165.572 1435.7 166.593C1436.72 167.614 1438.37 167.614 1439.39 166.593Z" fill="#1B1B1D"/>
<path d="M1420.91 177.677L1383.69 214.901C1382.67 215.922 1382.67 217.577 1383.69 218.598C1384.71 219.619 1386.36 219.619 1387.38 218.598L1424.61 181.374C1425.63 180.353 1425.63 178.698 1424.61 177.677C1423.59 176.656 1421.94 176.656 1420.91 177.677Z" fill="#1B1B1D"/>
<path d="M1504.28 125.667C1503.25 124.646 1501.6 124.646 1500.58 125.667C1499.56 126.688 1499.56 128.343 1500.58 129.364L1537.8 166.588C1538.83 167.609 1540.48 167.609 1541.5 166.588C1542.52 165.567 1542.52 163.913 1541.5 162.892L1504.28 125.667Z" fill="#1B1B1D"/>
<path d="M1556.28 177.677C1555.26 176.656 1553.61 176.656 1552.59 177.677C1551.57 178.698 1551.57 180.353 1552.59 181.374L1589.81 218.598C1590.83 219.619 1592.49 219.619 1593.51 218.598C1594.53 217.577 1594.53 215.922 1593.51 214.901L1556.28 177.677Z" fill="#1B1B1D"/>
<path d="M1556.28 166.593L1593.51 129.369C1594.53 128.348 1594.53 126.693 1593.51 125.672C1592.49 124.651 1590.83 124.651 1589.81 125.672L1552.59 162.897C1551.57 163.918 1551.57 165.572 1552.59 166.593C1553.61 167.614 1555.26 167.614 1556.28 166.593Z" fill="#1B1B1D"/>
<path d="M1537.8 177.677L1500.58 214.901C1499.56 215.922 1499.56 217.577 1500.58 218.598C1501.6 219.619 1503.25 219.619 1504.28 218.598L1541.5 181.374C1542.52 180.353 1542.52 178.698 1541.5 177.677C1540.48 176.656 1538.83 176.656 1537.8 177.677Z" fill="#1B1B1D"/>
<path d="M1711.52 856.126C1710.51 857.132 1710.51 858.763 1711.52 859.769C1712.53 860.775 1714.16 860.775 1715.16 859.769L1751.85 823.084C1752.85 822.078 1752.85 820.447 1751.85 819.441C1750.84 818.435 1749.21 818.435 1748.2 819.441L1711.52 856.126Z" fill="#1B1B1D"/>
<path d="M1762.77 804.878C1761.76 805.884 1761.76 807.515 1762.77 808.521C1763.78 809.527 1765.41 809.527 1766.41 808.521L1803.1 771.836C1804.1 770.83 1804.1 769.199 1803.1 768.193C1802.09 767.187 1800.46 767.187 1799.45 768.193L1762.77 804.878Z" fill="#1B1B1D"/>
<path d="M1751.85 804.878L1715.17 768.193C1714.16 767.187 1712.53 767.187 1711.53 768.193C1710.52 769.199 1710.52 770.83 1711.53 771.836L1748.21 808.521C1749.22 809.527 1750.85 809.527 1751.85 808.521C1752.86 807.515 1752.86 805.884 1751.85 804.878Z" fill="#1B1B1D"/>
<path d="M1762.77 823.084L1799.45 859.769C1800.46 860.775 1802.09 860.775 1803.1 859.769C1804.1 858.763 1804.1 857.132 1803.1 856.126L1766.41 819.441C1765.41 818.435 1763.78 818.435 1762.77 819.441C1761.76 820.447 1761.76 822.078 1762.77 823.084Z" fill="#1B1B1D"/>
<path d="M1711.52 744.421C1710.51 745.427 1710.51 747.058 1711.52 748.064C1712.53 749.07 1714.16 749.07 1715.16 748.064L1751.85 711.379C1752.85 710.373 1752.85 708.742 1751.85 707.736C1750.84 706.73 1749.21 706.73 1748.2 707.736L1711.52 744.421Z" fill="#1B1B1D"/>
<path d="M1762.77 693.173C1761.76 694.179 1761.76 695.81 1762.77 696.816C1763.78 697.822 1765.41 697.822 1766.41 696.816L1803.1 660.131C1804.1 659.125 1804.1 657.494 1803.1 656.488C1802.09 655.482 1800.46 655.482 1799.45 656.488L1762.77 693.173Z" fill="#1B1B1D"/>
<path d="M1751.85 693.173L1715.17 656.488C1714.16 655.482 1712.53 655.482 1711.53 656.488C1710.52 657.494 1710.52 659.125 1711.53 660.131L1748.21 696.816C1749.22 697.822 1750.85 697.822 1751.85 696.816C1752.86 695.81 1752.86 694.179 1751.85 693.173Z" fill="#1B1B1D"/>
<path d="M1762.77 711.379L1799.45 748.064C1800.46 749.07 1802.09 749.07 1803.1 748.064C1804.1 747.058 1804.1 745.427 1803.1 744.421L1766.41 707.736C1765.41 706.73 1763.78 706.73 1762.77 707.736C1761.76 708.742 1761.76 710.373 1762.77 711.379Z" fill="#1B1B1D"/>
<path d="M1711.52 629.224C1710.51 630.231 1710.51 631.861 1711.52 632.867C1712.53 633.874 1714.16 633.874 1715.16 632.867L1751.85 596.183C1752.85 595.177 1752.85 593.546 1751.85 592.54C1750.84 591.534 1749.21 591.534 1748.2 592.54L1711.52 629.224Z" fill="#1B1B1D"/>
<path d="M1762.77 577.976C1761.76 578.983 1761.76 580.613 1762.77 581.619C1763.78 582.626 1765.41 582.626 1766.41 581.619L1803.1 544.935C1804.1 543.929 1804.1 542.298 1803.1 541.292C1802.09 540.286 1800.46 540.286 1799.45 541.292L1762.77 577.976Z" fill="#1B1B1D"/>
<path d="M1751.85 577.976L1715.17 541.292C1714.16 540.286 1712.53 540.286 1711.53 541.292C1710.52 542.298 1710.52 543.929 1711.53 544.935L1748.21 581.619C1749.22 582.626 1750.85 582.626 1751.85 581.619C1752.86 580.613 1752.86 578.983 1751.85 577.976Z" fill="#1B1B1D"/>
<path d="M1762.77 596.183L1799.45 632.867C1800.46 633.874 1802.09 633.874 1803.1 632.867C1804.1 631.861 1804.1 630.231 1803.1 629.224L1766.41 592.54C1765.41 591.534 1763.78 591.534 1762.77 592.54C1761.76 593.546 1761.76 595.177 1762.77 596.183Z" fill="#1B1B1D"/>
<path d="M1823.23 856.126C1822.23 857.132 1822.23 858.763 1823.23 859.769C1824.24 860.775 1825.87 860.775 1826.87 859.769L1863.56 823.084C1864.56 822.078 1864.56 820.447 1863.56 819.441C1862.55 818.435 1860.92 818.435 1859.91 819.441L1823.23 856.126Z" fill="#1B1B1D"/>
<path d="M1874.48 804.878C1873.48 805.884 1873.48 807.515 1874.48 808.521C1875.49 809.527 1877.12 809.527 1878.12 808.521L1914.81 771.836C1915.81 770.83 1915.81 769.199 1914.81 768.193C1913.8 767.187 1912.17 767.187 1911.16 768.193L1874.48 804.878Z" fill="#1B1B1D"/>
<path d="M1863.56 804.878L1826.88 768.193C1825.88 767.187 1824.25 767.187 1823.24 768.193C1822.23 769.199 1822.23 770.83 1823.24 771.836L1859.92 808.521C1860.93 809.527 1862.56 809.527 1863.56 808.521C1864.57 807.515 1864.57 805.884 1863.56 804.878Z" fill="#1B1B1D"/>
<path d="M1874.48 823.084L1911.16 859.769C1912.17 860.775 1913.8 860.775 1914.81 859.769C1915.81 858.763 1915.81 857.132 1914.81 856.126L1878.12 819.441C1877.12 818.435 1875.49 818.435 1874.48 819.441C1873.48 820.447 1873.48 822.078 1874.48 823.084Z" fill="#1B1B1D"/>
<path d="M1823.23 744.421C1822.23 745.427 1822.23 747.058 1823.23 748.064C1824.24 749.07 1825.87 749.07 1826.87 748.064L1863.56 711.379C1864.56 710.373 1864.56 708.742 1863.56 707.736C1862.55 706.73 1860.92 706.73 1859.91 707.736L1823.23 744.421Z" fill="#1B1B1D"/>
<path d="M1874.48 693.173C1873.48 694.179 1873.48 695.81 1874.48 696.816C1875.49 697.822 1877.12 697.822 1878.12 696.816L1914.81 660.131C1915.81 659.125 1915.81 657.494 1914.81 656.488C1913.8 655.482 1912.17 655.482 1911.16 656.488L1874.48 693.173Z" fill="#1B1B1D"/>
<path d="M1863.56 693.173L1826.88 656.488C1825.88 655.482 1824.25 655.482 1823.24 656.488C1822.23 657.494 1822.23 659.125 1823.24 660.131L1859.92 696.816C1860.93 697.822 1862.56 697.822 1863.56 696.816C1864.57 695.81 1864.57 694.179 1863.56 693.173Z" fill="#1B1B1D"/>
<path d="M1874.48 711.379L1911.16 748.064C1912.17 749.07 1913.8 749.07 1914.81 748.064C1915.81 747.058 1915.81 745.427 1914.81 744.421L1878.12 707.736C1877.12 706.73 1875.49 706.73 1874.48 707.736C1873.48 708.742 1873.48 710.373 1874.48 711.379Z" fill="#1B1B1D"/>
<path d="M1823.23 629.224C1822.23 630.231 1822.23 631.861 1823.23 632.867C1824.24 633.874 1825.87 633.874 1826.87 632.867L1863.56 596.183C1864.56 595.177 1864.56 593.546 1863.56 592.54C1862.55 591.534 1860.92 591.534 1859.91 592.54L1823.23 629.224Z" fill="#1B1B1D"/>
<path d="M1874.48 577.976C1873.48 578.983 1873.48 580.613 1874.48 581.619C1875.49 582.626 1877.12 582.626 1878.12 581.619L1914.81 544.935C1915.81 543.929 1915.81 542.298 1914.81 541.292C1913.8 540.286 1912.17 540.286 1911.16 541.292L1874.48 577.976Z" fill="#1B1B1D"/>
<path d="M1863.56 577.976L1826.88 541.292C1825.88 540.286 1824.25 540.286 1823.24 541.292C1822.23 542.298 1822.23 543.929 1823.24 544.935L1859.92 581.619C1860.93 582.626 1862.56 582.626 1863.56 581.619C1864.57 580.613 1864.57 578.983 1863.56 577.976Z" fill="#1B1B1D"/>
<path d="M1874.48 596.183L1911.16 632.867C1912.17 633.874 1913.8 633.874 1914.81 632.867C1915.81 631.861 1915.81 630.231 1914.81 629.224L1878.12 592.54C1877.12 591.534 1875.49 591.534 1874.48 592.54C1873.48 593.546 1873.48 595.177 1874.48 596.183Z" fill="#1B1B1D"/>
<path d="M1599.82 856.126C1598.81 857.132 1598.81 858.763 1599.82 859.769C1600.82 860.775 1602.45 860.775 1603.46 859.769L1640.14 823.084C1641.15 822.078 1641.15 820.447 1640.14 819.441C1639.14 818.435 1637.51 818.435 1636.5 819.441L1599.82 856.126Z" fill="#1B1B1D"/>
<path d="M1651.07 804.878C1650.06 805.884 1650.06 807.515 1651.07 808.521C1652.07 809.527 1653.7 809.527 1654.71 808.521L1691.39 771.836C1692.4 770.83 1692.4 769.199 1691.39 768.193C1690.39 767.187 1688.76 767.187 1687.75 768.193L1651.07 804.878Z" fill="#1B1B1D"/>
<path d="M1640.15 804.878L1603.47 768.193C1602.46 767.187 1600.83 767.187 1599.82 768.193C1598.82 769.199 1598.82 770.83 1599.82 771.836L1636.51 808.521C1637.51 809.527 1639.14 809.527 1640.15 808.521C1641.16 807.515 1641.16 805.884 1640.15 804.878Z" fill="#1B1B1D"/>
<path d="M1651.07 823.084L1687.75 859.769C1688.76 860.775 1690.39 860.775 1691.39 859.769C1692.4 858.763 1692.4 857.132 1691.39 856.126L1654.71 819.441C1653.7 818.435 1652.07 818.435 1651.07 819.441C1650.06 820.447 1650.06 822.078 1651.07 823.084Z" fill="#1B1B1D"/>
<path d="M1599.82 744.421C1598.81 745.427 1598.81 747.058 1599.82 748.064C1600.82 749.07 1602.45 749.07 1603.46 748.064L1640.14 711.379C1641.15 710.373 1641.15 708.742 1640.14 707.736C1639.14 706.73 1637.51 706.73 1636.5 707.736L1599.82 744.421Z" fill="#1B1B1D"/>
<path d="M1651.07 693.173C1650.06 694.179 1650.06 695.81 1651.07 696.816C1652.07 697.822 1653.7 697.822 1654.71 696.816L1691.39 660.131C1692.4 659.125 1692.4 657.494 1691.39 656.488C1690.39 655.482 1688.76 655.482 1687.75 656.488L1651.07 693.173Z" fill="#1B1B1D"/>
<path d="M1640.15 693.173L1603.47 656.488C1602.46 655.482 1600.83 655.482 1599.82 656.488C1598.82 657.494 1598.82 659.125 1599.82 660.131L1636.51 696.816C1637.51 697.822 1639.14 697.822 1640.15 696.816C1641.16 695.81 1641.16 694.179 1640.15 693.173Z" fill="#1B1B1D"/>
<path d="M1651.07 711.379L1687.75 748.064C1688.76 749.07 1690.39 749.07 1691.39 748.064C1692.4 747.058 1692.4 745.427 1691.39 744.421L1654.71 707.736C1653.7 706.73 1652.07 706.73 1651.07 707.736C1650.06 708.742 1650.06 710.373 1651.07 711.379Z" fill="#1B1B1D"/>
<path d="M1599.82 629.224C1598.81 630.231 1598.81 631.861 1599.82 632.867C1600.82 633.874 1602.45 633.874 1603.46 632.867L1640.14 596.183C1641.15 595.177 1641.15 593.546 1640.14 592.54C1639.14 591.534 1637.51 591.534 1636.5 592.54L1599.82 629.224Z" fill="#1B1B1D"/>
<path d="M1651.07 577.976C1650.06 578.983 1650.06 580.613 1651.07 581.619C1652.07 582.626 1653.7 582.626 1654.71 581.619L1691.39 544.935C1692.4 543.929 1692.4 542.298 1691.39 541.292C1690.39 540.286 1688.76 540.286 1687.75 541.292L1651.07 577.976Z" fill="#1B1B1D"/>
<path d="M1640.15 577.976L1603.47 541.292C1602.46 540.286 1600.83 540.286 1599.82 541.292C1598.82 542.298 1598.82 543.929 1599.82 544.935L1636.51 581.619C1637.51 582.626 1639.14 582.626 1640.15 581.619C1641.16 580.613 1641.16 578.983 1640.15 577.976Z" fill="#1B1B1D"/>
<path d="M1651.07 596.183L1687.75 632.867C1688.76 633.874 1690.39 633.874 1691.39 632.867C1692.4 631.861 1692.4 630.231 1691.39 629.224L1654.71 592.54C1653.7 591.534 1652.07 591.534 1651.07 592.54C1650.06 593.546 1650.06 595.177 1651.07 596.183Z" fill="#1B1B1D"/>
<rect x="-37.7422" y="-101.811" width="327.122" height="321.175" stroke="#1B1B1D"/>
<rect x="289.383" y="-101.811" width="325.933" height="321.175" stroke="#1B1B1D"/>
<rect x="615.312" y="-101.811" width="325.933" height="321.175" stroke="#1B1B1D"/>
<rect x="941.25" y="-101.811" width="325.933" height="321.175" stroke="#1B1B1D"/>
<rect x="1267.18" y="-101.811" width="327.122" height="321.175" stroke="#1B1B1D"/>
<rect x="1594.3" y="-101.811" width="325.933" height="321.175" stroke="#1B1B1D"/>
<rect x="-37.7422" y="219.364" width="327.122" height="321.175" stroke="#1B1B1D"/>
<rect x="289.383" y="219.364" width="325.933" height="321.175" stroke="#1B1B1D"/>
<rect x="615.312" y="219.364" width="325.933" height="321.175" stroke="#1B1B1D"/>
<rect x="941.25" y="219.364" width="325.933" height="321.175" stroke="#1B1B1D"/>
<rect x="1267.18" y="219.364" width="327.122" height="321.175" stroke="#1B1B1D"/>
<rect x="-37.7422" y="540.539" width="327.122" height="321.175" stroke="#1B1B1D"/>
<rect x="289.383" y="540.539" width="325.933" height="321.175" stroke="#1B1B1D"/>
<rect x="941.25" y="540.539" width="325.933" height="321.175" stroke="#1B1B1D"/>
<rect x="615.312" y="540.539" width="325.933" height="321.175" stroke="#1B1B1D"/>
<rect x="1267.18" y="540.539" width="327.122" height="321.175" stroke="#1B1B1D"/>
<rect x="-37.7422" y="861.713" width="327.122" height="321.175" stroke="#1B1B1D"/>
<rect x="289.383" y="861.713" width="325.933" height="321.175" stroke="#1B1B1D"/>
<rect x="615.312" y="861.713" width="325.933" height="321.175" stroke="#1B1B1D"/>
<rect x="941.25" y="861.713" width="325.933" height="321.175" stroke="#1B1B1D"/>
<rect x="1267.18" y="861.713" width="327.122" height="321.175" stroke="#1B1B1D"/>
<rect x="1594.3" y="219.364" width="325.933" height="321.175" stroke="#1B1B1D"/>
<rect x="1594.3" y="540.539" width="325.933" height="321.175" stroke="#1B1B1D"/>
<rect x="1594.3" y="861.713" width="325.933" height="321.175" stroke="#1B1B1D"/>
<path d="M-33.2387 13.1562C-34.2673 12.1276 -35.9343 12.1276 -36.9629 13.1562C-37.9915 14.1847 -37.9915 15.8515 -36.9629 16.8801L0.539445 54.3806C1.56804 55.4091 3.2351 55.4091 4.2637 54.3806C5.29229 53.352 5.29229 51.685 4.2637 50.6565L-33.2387 13.1562Z" fill="#1B1B1D"/>
<path d="M19.1519 65.5517C18.1234 64.5231 16.4563 64.5231 15.4277 65.5517C14.3991 66.5802 14.3991 68.2472 15.4277 69.2757L52.9301 106.776C53.9587 107.805 55.6257 107.805 56.6542 106.776C57.6828 105.748 57.6828 104.081 56.6542 103.052L19.1519 65.5517Z" fill="#1B1B1D"/>
<path d="M19.1519 54.3854L56.6542 16.885C57.6828 15.8564 57.6828 14.1896 56.6542 13.1611C55.6257 12.1325 53.9587 12.1325 52.9301 13.1611L15.4277 50.6614C14.3991 51.6899 14.3991 53.3569 15.4277 54.3854C16.4563 55.414 18.1234 55.414 19.1519 54.3854Z" fill="#1B1B1D"/>
<path d="M0.539445 65.5517L-36.9629 103.052C-37.9915 104.081 -37.9915 105.748 -36.9629 106.776C-35.9343 107.805 -34.2673 107.805 -33.2387 106.776L4.2637 69.2757C5.29229 68.2472 5.29229 66.5802 4.2637 65.5517C3.2351 64.5231 1.56804 64.5231 0.539445 65.5517Z" fill="#1B1B1D"/>
<path d="M80.9566 13.1562C79.928 12.1276 78.261 12.1276 77.2324 13.1562C76.2038 14.1847 76.2038 15.8515 77.2324 16.8801L114.735 54.3806C115.763 55.4091 117.43 55.4091 118.459 54.3806C119.488 53.352 119.488 51.685 118.459 50.6565L80.9566 13.1562Z" fill="#1B1B1D"/>
<path d="M133.347 65.5517C132.319 64.5231 130.652 64.5231 129.623 65.5517C128.594 66.5802 128.594 68.2472 129.623 69.2757L167.125 106.776C168.154 107.805 169.821 107.805 170.85 106.776C171.878 105.748 171.878 104.081 170.85 103.052L133.347 65.5517Z" fill="#1B1B1D"/>
<path d="M133.347 54.3854L170.85 16.885C171.878 15.8564 171.878 14.1896 170.85 13.1611C169.821 12.1325 168.154 12.1325 167.125 13.1611L129.623 50.6614C128.594 51.6899 128.594 53.3569 129.623 54.3854C130.652 55.414 132.319 55.414 133.347 54.3854Z" fill="#1B1B1D"/>
<path d="M114.735 65.5517L77.2324 103.052C76.2038 104.081 76.2038 105.748 77.2324 106.776C78.261 107.805 79.928 107.805 80.9566 106.776L118.459 69.2757C119.488 68.2472 119.488 66.5802 118.459 65.5517C117.43 64.5231 115.763 64.5231 114.735 65.5517Z" fill="#1B1B1D"/>
<path d="M198.722 13.1562C197.694 12.1276 196.027 12.1276 194.998 13.1562C193.969 14.1847 193.969 15.8515 194.998 16.8801L232.5 54.3806C233.529 55.4091 235.196 55.4091 236.225 54.3806C237.253 53.352 237.253 51.685 236.225 50.6565L198.722 13.1562Z" fill="#1B1B1D"/>
<path d="M251.113 65.5517C250.084 64.5231 248.417 64.5231 247.389 65.5517C246.36 66.5802 246.36 68.2472 247.389 69.2757L284.891 106.776C285.92 107.805 287.587 107.805 288.615 106.776C289.644 105.748 289.644 104.081 288.615 103.052L251.113 65.5517Z" fill="#1B1B1D"/>
<path d="M251.113 54.3854L288.615 16.885C289.644 15.8564 289.644 14.1896 288.615 13.1611C287.587 12.1325 285.92 12.1325 284.891 13.1611L247.389 50.6614C246.36 51.6899 246.36 53.3569 247.389 54.3854C248.417 55.414 250.084 55.414 251.113 54.3854Z" fill="#1B1B1D"/>
<path d="M232.5 65.5517L194.998 103.052C193.969 104.081 193.969 105.748 194.998 106.776C196.027 107.805 197.694 107.805 198.722 106.776L236.225 69.2757C237.253 68.2472 237.253 66.5802 236.225 65.5517C235.196 64.5231 233.529 64.5231 232.5 65.5517Z" fill="#1B1B1D"/>
<path d="M-33.2387 127.351C-34.2673 126.323 -35.9343 126.323 -36.9629 127.351C-37.9915 128.38 -37.9915 130.047 -36.9629 131.075L0.539445 168.576C1.56804 169.604 3.2351 169.604 4.2637 168.576C5.29229 167.547 5.29229 165.88 4.2637 164.852L-33.2387 127.351Z" fill="#1B1B1D"/>
<path d="M19.1519 179.747C18.1234 178.718 16.4563 178.718 15.4277 179.747C14.3991 180.776 14.3991 182.443 15.4277 183.471L52.9301 220.971C53.9587 222 55.6257 222 56.6542 220.971C57.6828 219.943 57.6828 218.276 56.6542 217.247L19.1519 179.747Z" fill="#1B1B1D"/>
<path d="M19.1519 168.58L56.6542 131.079C57.6828 130.051 57.6828 128.384 56.6542 127.355C55.6257 126.327 53.9587 126.327 52.9301 127.355L15.4277 164.856C14.3991 165.884 14.3991 167.551 15.4277 168.58C16.4563 169.608 18.1234 169.608 19.1519 168.58Z" fill="#1B1B1D"/>
<path d="M0.539445 179.747L-36.9629 217.247C-37.9915 218.276 -37.9915 219.943 -36.9629 220.971C-35.9343 222 -34.2673 222 -33.2387 220.971L4.2637 183.471C5.29229 182.443 5.29229 180.776 4.2637 179.747C3.2351 178.718 1.56804 178.718 0.539445 179.747Z" fill="#1B1B1D"/>
<path d="M80.9566 127.351C79.928 126.323 78.261 126.323 77.2324 127.351C76.2038 128.38 76.2038 130.047 77.2324 131.075L114.735 168.576C115.763 169.604 117.43 169.604 118.459 168.576C119.488 167.547 119.488 165.88 118.459 164.852L80.9566 127.351Z" fill="#1B1B1D"/>
<path d="M133.347 179.747C132.319 178.718 130.652 178.718 129.623 179.747C128.594 180.776 128.594 182.443 129.623 183.471L167.125 220.971C168.154 222 169.821 222 170.85 220.971C171.878 219.943 171.878 218.276 170.85 217.247L133.347 179.747Z" fill="#1B1B1D"/>
<path d="M133.347 168.58L170.85 131.079C171.878 130.051 171.878 128.384 170.85 127.355C169.821 126.327 168.154 126.327 167.125 127.355L129.623 164.856C128.594 165.884 128.594 167.551 129.623 168.58C130.652 169.608 132.319 169.608 133.347 168.58Z" fill="#1B1B1D"/>
<path d="M114.735 179.747L77.2324 217.247C76.2038 218.276 76.2038 219.943 77.2324 220.971C78.261 222 79.928 222 80.9566 220.971L118.459 183.471C119.488 182.443 119.488 180.776 118.459 179.747C117.43 178.718 115.763 178.718 114.735 179.747Z" fill="#1B1B1D"/>
<path d="M198.722 127.351C197.694 126.323 196.027 126.323 194.998 127.351C193.969 128.38 193.969 130.047 194.998 131.075L232.5 168.576C233.529 169.604 235.196 169.604 236.225 168.576C237.253 167.547 237.253 165.88 236.225 164.852L198.722 127.351Z" fill="#1B1B1D"/>
<path d="M251.113 179.747C250.084 178.718 248.417 178.718 247.389 179.747C246.36 180.776 246.36 182.443 247.389 183.471L284.891 220.971C285.92 222 287.587 222 288.615 220.971C289.644 219.943 289.644 218.276 288.615 217.247L251.113 179.747Z" fill="#1B1B1D"/>
<path d="M251.113 168.58L288.615 131.079C289.644 130.051 289.644 128.384 288.615 127.355C287.587 126.327 285.92 126.327 284.891 127.355L247.389 164.856C246.36 165.884 246.36 167.551 247.389 168.58C248.417 169.608 250.084 169.608 251.113 168.58Z" fill="#1B1B1D"/>
<path d="M232.5 179.747L194.998 217.247C193.969 218.276 193.969 219.943 194.998 220.971C196.027 222 197.694 222 198.722 220.971L236.225 183.471C237.253 182.443 237.253 180.776 236.225 179.747C235.196 178.718 233.529 178.718 232.5 179.747Z" fill="#1B1B1D"/>
<path d="M295.041 975.833C294.02 974.812 292.365 974.812 291.344 975.833C290.323 976.854 290.323 978.509 291.344 979.53L328.571 1016.75C329.592 1017.78 331.246 1017.78 332.267 1016.75C333.288 1015.73 333.288 1014.08 332.267 1013.06L295.041 975.833Z" fill="#1B1B1D"/>
<path d="M347.049 1027.84C346.028 1026.82 344.373 1026.82 343.352 1027.84C342.331 1028.86 342.331 1030.52 343.352 1031.54L380.578 1068.76C381.599 1069.79 383.254 1069.79 384.275 1068.76C385.296 1067.74 385.296 1066.09 384.275 1065.07L347.049 1027.84Z" fill="#1B1B1D"/>
<path d="M347.049 1016.76L384.275 979.535C385.296 978.514 385.296 976.859 384.275 975.838C383.254 974.817 381.599 974.817 380.578 975.838L343.352 1013.06C342.331 1014.08 342.331 1015.74 343.352 1016.76C344.373 1017.78 346.028 1017.78 347.049 1016.76Z" fill="#1B1B1D"/>
<path d="M328.571 1027.84L291.344 1065.07C290.323 1066.09 290.323 1067.74 291.344 1068.76C292.365 1069.79 294.02 1069.79 295.041 1068.76L332.267 1031.54C333.288 1030.52 333.288 1028.86 332.267 1027.84C331.246 1026.82 329.592 1026.82 328.571 1027.84Z" fill="#1B1B1D"/>
<path d="M408.4 975.833C407.379 974.812 405.724 974.812 404.703 975.833C403.682 976.854 403.682 978.509 404.703 979.53L441.93 1016.75C442.951 1017.78 444.606 1017.78 445.627 1016.75C446.648 1015.73 446.648 1014.08 445.627 1013.06L408.4 975.833Z" fill="#1B1B1D"/>
<path d="M460.408 1027.84C459.387 1026.82 457.732 1026.82 456.711 1027.84C455.69 1028.86 455.69 1030.52 456.711 1031.54L493.938 1068.76C494.959 1069.79 496.613 1069.79 497.634 1068.76C498.656 1067.74 498.656 1066.09 497.634 1065.07L460.408 1027.84Z" fill="#1B1B1D"/>
<path d="M460.408 1016.76L497.634 979.535C498.656 978.514 498.656 976.859 497.634 975.838C496.613 974.817 494.959 974.817 493.938 975.838L456.711 1013.06C455.69 1014.08 455.69 1015.74 456.711 1016.76C457.732 1017.78 459.387 1017.78 460.408 1016.76Z" fill="#1B1B1D"/>
<path d="M441.93 1027.84L404.703 1065.07C403.682 1066.09 403.682 1067.74 404.703 1068.76C405.724 1069.79 407.379 1069.79 408.4 1068.76L445.627 1031.54C446.648 1030.52 446.648 1028.86 445.627 1027.84C444.606 1026.82 442.951 1026.82 441.93 1027.84Z" fill="#1B1B1D"/>
<path d="M525.291 975.833C524.27 974.812 522.615 974.812 521.594 975.833C520.573 976.854 520.573 978.509 521.594 979.53L558.821 1016.75C559.842 1017.78 561.496 1017.78 562.517 1016.75C563.538 1015.73 563.538 1014.08 562.517 1013.06L525.291 975.833Z" fill="#1B1B1D"/>
<path d="M577.299 1027.84C576.278 1026.82 574.623 1026.82 573.602 1027.84C572.581 1028.86 572.581 1030.52 573.602 1031.54L610.828 1068.76C611.849 1069.79 613.504 1069.79 614.525 1068.76C615.546 1067.74 615.546 1066.09 614.525 1065.07L577.299 1027.84Z" fill="#1B1B1D"/>
<path d="M577.299 1016.76L614.525 979.535C615.546 978.514 615.546 976.859 614.525 975.838C613.504 974.817 611.849 974.817 610.828 975.838L573.602 1013.06C572.581 1014.08 572.581 1015.74 573.602 1016.76C574.623 1017.78 576.278 1017.78 577.299 1016.76Z" fill="#1B1B1D"/>
<path d="M558.821 1027.84L521.594 1065.07C520.573 1066.09 520.573 1067.74 521.594 1068.76C522.615 1069.79 524.27 1069.79 525.291 1068.76L562.517 1031.54C563.538 1030.52 563.538 1028.86 562.517 1027.84C561.496 1026.82 559.842 1026.82 558.821 1027.84Z" fill="#1B1B1D"/>
<path d="M295.041 862.479C294.02 861.458 292.365 861.458 291.344 862.479C290.323 863.5 290.323 865.154 291.344 866.175L328.571 903.4C329.592 904.421 331.246 904.421 332.267 903.4C333.288 902.379 333.288 900.724 332.267 899.703L295.041 862.479Z" fill="#1B1B1D"/>
<path d="M347.049 914.488C346.028 913.467 344.373 913.467 343.352 914.488C342.331 915.509 342.331 917.164 343.352 918.185L380.578 955.41C381.599 956.431 383.254 956.431 384.275 955.41C385.296 954.389 385.296 952.734 384.275 951.713L347.049 914.488Z" fill="#1B1B1D"/>
<path d="M347.049 903.405L384.275 866.18C385.296 865.159 385.296 863.504 384.275 862.484C383.254 861.463 381.599 861.463 380.578 862.484L343.352 899.708C342.331 900.729 342.331 902.384 343.352 903.405C344.373 904.426 346.028 904.426 347.049 903.405Z" fill="#1B1B1D"/>
<path d="M328.571 914.488L291.344 951.713C290.323 952.734 290.323 954.389 291.344 955.41C292.365 956.431 294.02 956.431 295.041 955.41L332.267 918.185C333.288 917.164 333.288 915.509 332.267 914.488C331.246 913.467 329.592 913.467 328.571 914.488Z" fill="#1B1B1D"/>
<path d="M408.4 862.479C407.379 861.458 405.724 861.458 404.703 862.479C403.682 863.5 403.682 865.154 404.703 866.175L441.93 903.4C442.951 904.421 444.606 904.421 445.627 903.4C446.648 902.379 446.648 900.724 445.627 899.703L408.4 862.479Z" fill="#1B1B1D"/>
<path d="M460.408 914.488C459.387 913.467 457.732 913.467 456.711 914.488C455.69 915.509 455.69 917.164 456.711 918.185L493.938 955.41C494.959 956.431 496.613 956.431 497.634 955.41C498.656 954.389 498.656 952.734 497.634 951.713L460.408 914.488Z" fill="#1B1B1D"/>
<path d="M460.408 903.405L497.634 866.18C498.656 865.159 498.656 863.504 497.634 862.484C496.613 861.463 494.959 861.463 493.938 862.484L456.711 899.708C455.69 900.729 455.69 902.384 456.711 903.405C457.732 904.426 459.387 904.426 460.408 903.405Z" fill="#1B1B1D"/>
<path d="M441.93 914.488L404.703 951.713C403.682 952.734 403.682 954.389 404.703 955.41C405.724 956.431 407.379 956.431 408.4 955.41L445.627 918.185C446.648 917.164 446.648 915.509 445.627 914.488C444.606 913.467 442.951 913.467 441.93 914.488Z" fill="#1B1B1D"/>
<path d="M525.291 862.479C524.27 861.458 522.615 861.458 521.594 862.479C520.573 863.5 520.573 865.154 521.594 866.175L558.821 903.4C559.842 904.421 561.496 904.421 562.517 903.4C563.538 902.379 563.538 900.724 562.517 899.703L525.291 862.479Z" fill="#1B1B1D"/>
<path d="M577.299 914.488C576.278 913.467 574.623 913.467 573.602 914.488C572.581 915.509 572.581 917.164 573.602 918.185L610.828 955.41C611.849 956.431 613.504 956.431 614.525 955.41C615.546 954.389 615.546 952.734 614.525 951.713L577.299 914.488Z" fill="#1B1B1D"/>
<path d="M577.299 903.405L614.525 866.18C615.546 865.159 615.546 863.504 614.525 862.484C613.504 861.463 611.849 861.463 610.828 862.484L573.602 899.708C572.581 900.729 572.581 902.384 573.602 903.405C574.623 904.426 576.278 904.426 577.299 903.405Z" fill="#1B1B1D"/>
<path d="M558.821 914.488L521.594 951.713C520.573 952.734 520.573 954.389 521.594 955.41C522.615 956.431 524.27 956.431 525.291 955.41L562.517 918.185C563.538 917.164 563.538 915.509 562.517 914.488C561.496 913.467 559.842 913.467 558.821 914.488Z" fill="#1B1B1D"/>
<path d="M945.713 975.833C944.692 974.812 943.037 974.812 942.016 975.833C940.995 976.854 940.995 978.509 942.016 979.53L979.242 1016.75C980.263 1017.78 981.918 1017.78 982.939 1016.75C983.96 1015.73 983.96 1014.08 982.939 1013.06L945.713 975.833Z" fill="#1B1B1D"/>
<path d="M997.72 1027.84C996.699 1026.82 995.045 1026.82 994.024 1027.84C993.003 1028.86 993.003 1030.52 994.024 1031.54L1031.25 1068.76C1032.27 1069.79 1033.93 1069.79 1034.95 1068.76C1035.97 1067.74 1035.97 1066.09 1034.95 1065.07L997.72 1027.84Z" fill="#1B1B1D"/>
<path d="M997.72 1016.76L1034.95 979.535C1035.97 978.514 1035.97 976.859 1034.95 975.838C1033.93 974.817 1032.27 974.817 1031.25 975.838L994.024 1013.06C993.003 1014.08 993.003 1015.74 994.024 1016.76C995.045 1017.78 996.699 1017.78 997.72 1016.76Z" fill="#1B1B1D"/>
<path d="M979.242 1027.84L942.016 1065.07C940.995 1066.09 940.995 1067.74 942.016 1068.76C943.037 1069.79 944.692 1069.79 945.713 1068.76L982.939 1031.54C983.96 1030.52 983.96 1028.86 982.939 1027.84C981.918 1026.82 980.263 1026.82 979.242 1027.84Z" fill="#1B1B1D"/>
<path d="M1059.07 975.833C1058.05 974.812 1056.4 974.812 1055.38 975.833C1054.35 976.854 1054.35 978.509 1055.38 979.53L1092.6 1016.75C1093.62 1017.78 1095.28 1017.78 1096.3 1016.75C1097.32 1015.73 1097.32 1014.08 1096.3 1013.06L1059.07 975.833Z" fill="#1B1B1D"/>
<path d="M1111.08 1027.84C1110.06 1026.82 1108.4 1026.82 1107.38 1027.84C1106.36 1028.86 1106.36 1030.52 1107.38 1031.54L1144.61 1068.76C1145.63 1069.79 1147.29 1069.79 1148.31 1068.76C1149.33 1067.74 1149.33 1066.09 1148.31 1065.07L1111.08 1027.84Z" fill="#1B1B1D"/>
<path d="M1111.08 1016.76L1148.31 979.535C1149.33 978.514 1149.33 976.859 1148.31 975.838C1147.29 974.817 1145.63 974.817 1144.61 975.838L1107.38 1013.06C1106.36 1014.08 1106.36 1015.74 1107.38 1016.76C1108.4 1017.78 1110.06 1017.78 1111.08 1016.76Z" fill="#1B1B1D"/>
<path d="M1092.6 1027.84L1055.38 1065.07C1054.35 1066.09 1054.35 1067.74 1055.38 1068.76C1056.4 1069.79 1058.05 1069.79 1059.07 1068.76L1096.3 1031.54C1097.32 1030.52 1097.32 1028.86 1096.3 1027.84C1095.28 1026.82 1093.62 1026.82 1092.6 1027.84Z" fill="#1B1B1D"/>
<path d="M1175.96 975.833C1174.94 974.812 1173.29 974.812 1172.27 975.833C1171.24 976.854 1171.24 978.509 1172.27 979.53L1209.49 1016.75C1210.51 1017.78 1212.17 1017.78 1213.19 1016.75C1214.21 1015.73 1214.21 1014.08 1213.19 1013.06L1175.96 975.833Z" fill="#1B1B1D"/>
<path d="M1227.97 1027.84C1226.95 1026.82 1225.29 1026.82 1224.27 1027.84C1223.25 1028.86 1223.25 1030.52 1224.27 1031.54L1261.5 1068.76C1262.52 1069.79 1264.18 1069.79 1265.2 1068.76C1266.22 1067.74 1266.22 1066.09 1265.2 1065.07L1227.97 1027.84Z" fill="#1B1B1D"/>
<path d="M1227.97 1016.76L1265.2 979.535C1266.22 978.514 1266.22 976.859 1265.2 975.838C1264.18 974.817 1262.52 974.817 1261.5 975.838L1224.27 1013.06C1223.25 1014.08 1223.25 1015.74 1224.27 1016.76C1225.29 1017.78 1226.95 1017.78 1227.97 1016.76Z" fill="#1B1B1D"/>
<path d="M1209.49 1027.84L1172.27 1065.07C1171.24 1066.09 1171.24 1067.74 1172.27 1068.76C1173.29 1069.79 1174.94 1069.79 1175.96 1068.76L1213.19 1031.54C1214.21 1030.52 1214.21 1028.86 1213.19 1027.84C1212.17 1026.82 1210.51 1026.82 1209.49 1027.84Z" fill="#1B1B1D"/>
<path d="M945.713 862.479C944.692 861.458 943.037 861.458 942.016 862.479C940.995 863.5 940.995 865.154 942.016 866.175L979.242 903.4C980.263 904.421 981.918 904.421 982.939 903.4C983.96 902.379 983.96 900.724 982.939 899.703L945.713 862.479Z" fill="#1B1B1D"/>
<path d="M997.72 914.488C996.699 913.467 995.045 913.467 994.024 914.488C993.003 915.509 993.003 917.164 994.024 918.185L1031.25 955.41C1032.27 956.431 1033.93 956.431 1034.95 955.41C1035.97 954.389 1035.97 952.734 1034.95 951.713L997.72 914.488Z" fill="#1B1B1D"/>
<path d="M997.72 903.405L1034.95 866.18C1035.97 865.159 1035.97 863.504 1034.95 862.484C1033.93 861.463 1032.27 861.463 1031.25 862.484L994.024 899.708C993.003 900.729 993.003 902.384 994.024 903.405C995.045 904.426 996.699 904.426 997.72 903.405Z" fill="#1B1B1D"/>
<path d="M979.242 914.488L942.016 951.713C940.995 952.734 940.995 954.389 942.016 955.41C943.037 956.431 944.692 956.431 945.713 955.41L982.939 918.185C983.96 917.164 983.96 915.509 982.939 914.488C981.918 913.467 980.263 913.467 979.242 914.488Z" fill="#1B1B1D"/>
<path d="M1059.07 862.479C1058.05 861.458 1056.4 861.458 1055.38 862.479C1054.35 863.5 1054.35 865.154 1055.38 866.175L1092.6 903.4C1093.62 904.421 1095.28 904.421 1096.3 903.4C1097.32 902.379 1097.32 900.724 1096.3 899.703L1059.07 862.479Z" fill="#1B1B1D"/>
<path d="M1111.08 914.488C1110.06 913.467 1108.4 913.467 1107.38 914.488C1106.36 915.509 1106.36 917.164 1107.38 918.185L1144.61 955.41C1145.63 956.431 1147.29 956.431 1148.31 955.41C1149.33 954.389 1149.33 952.734 1148.31 951.713L1111.08 914.488Z" fill="#1B1B1D"/>
<path d="M1111.08 903.405L1148.31 866.18C1149.33 865.159 1149.33 863.504 1148.31 862.484C1147.29 861.463 1145.63 861.463 1144.61 862.484L1107.38 899.708C1106.36 900.729 1106.36 902.384 1107.38 903.405C1108.4 904.426 1110.06 904.426 1111.08 903.405Z" fill="#1B1B1D"/>
<path d="M1092.6 914.488L1055.38 951.713C1054.35 952.734 1054.35 954.389 1055.38 955.41C1056.4 956.431 1058.05 956.431 1059.07 955.41L1096.3 918.185C1097.32 917.164 1097.32 915.509 1096.3 914.488C1095.28 913.467 1093.62 913.467 1092.6 914.488Z" fill="#1B1B1D"/>
<path d="M1175.96 862.479C1174.94 861.458 1173.29 861.458 1172.27 862.479C1171.24 863.5 1171.24 865.154 1172.27 866.175L1209.49 903.4C1210.51 904.421 1212.17 904.421 1213.19 903.4C1214.21 902.379 1214.21 900.724 1213.19 899.703L1175.96 862.479Z" fill="#1B1B1D"/>
<path d="M1227.97 914.488C1226.95 913.467 1225.29 913.467 1224.27 914.488C1223.25 915.509 1223.25 917.164 1224.27 918.185L1261.5 955.41C1262.52 956.431 1264.18 956.431 1265.2 955.41C1266.22 954.389 1266.22 952.734 1265.2 951.713L1227.97 914.488Z" fill="#1B1B1D"/>
<path d="M1227.97 903.405L1265.2 866.18C1266.22 865.159 1266.22 863.504 1265.2 862.484C1264.18 861.463 1262.52 861.463 1261.5 862.484L1224.27 899.708C1223.25 900.729 1223.25 902.384 1224.27 903.405C1225.29 904.426 1226.95 904.426 1227.97 903.405Z" fill="#1B1B1D"/>
<path d="M1209.49 914.488L1172.27 951.713C1171.24 952.734 1171.24 954.389 1172.27 955.41C1173.29 956.431 1174.94 956.431 1175.96 955.41L1213.19 918.185C1214.21 917.164 1214.21 915.509 1213.19 914.488C1212.17 913.467 1210.51 913.467 1209.49 914.488Z" fill="#1B1B1D"/>
<path d="M1920 -99L1594 218" stroke="#1B1B1D" stroke-width="6"/>
<path d="M1916 544L1598 217" stroke="#1B1B1D" stroke-width="6"/>
<path d="M616 -94L289 223" stroke="#1B1B1D" stroke-width="6"/>
<path d="M288 862L-37 1182" stroke="#1B1B1D" stroke-width="6"/>
<path d="M944 864L618 1182" stroke="#1B1B1D" stroke-width="6"/>
<path d="M1592 864L1266 1182" stroke="#1B1B1D" stroke-width="6"/>
<path d="M1599.06 540.538L1594.3 540.538L1594.3 545.296" stroke="white" stroke-width="2"/>
<path d="M1594.31 535.78V540.538H1589.55" stroke="white" stroke-width="2"/>
<path d="M294.148 219.363L289.39 219.363L289.39 224.121" stroke="white" stroke-width="2"/>
<path d="M289.391 214.605V219.364H284.633" stroke="white" stroke-width="2"/>
<path d="M620.078 219.363L615.32 219.363L615.32 224.121" stroke="white" stroke-width="2"/>
<path d="M615.321 214.605V219.364H610.562" stroke="white" stroke-width="2"/>
<path d="M946.008 219.363L941.25 219.363L941.25 224.121" stroke="white" stroke-width="2"/>
<path d="M941.25 214.605V219.364H936.492" stroke="white" stroke-width="2"/>
<path d="M1271.95 219.363L1267.19 219.363L1267.19 224.121" stroke="white" stroke-width="2"/>
<path d="M1267.19 214.605V219.364H1262.43" stroke="white" stroke-width="2"/>
<path d="M1599.06 219.363L1594.3 219.363L1594.3 224.121" stroke="white" stroke-width="2"/>
<path d="M1594.31 214.605V219.364H1589.55" stroke="white" stroke-width="2"/>
<path d="M294.148 861.713L289.39 861.713L289.39 866.471" stroke="white" stroke-width="2"/>
<path d="M289.391 856.955V861.713H284.633" stroke="white" stroke-width="2"/>
<path d="M620.078 861.713L615.32 861.713L615.32 866.471" stroke="white" stroke-width="2"/>
<path d="M615.321 856.955V861.713H610.562" stroke="white" stroke-width="2"/>
<path d="M946.008 861.713L941.25 861.713L941.25 866.471" stroke="white" stroke-width="2"/>
<path d="M941.25 856.955V861.713H936.492" stroke="white" stroke-width="2"/>
<path d="M1271.95 861.713L1267.19 861.713L1267.19 866.471" stroke="white" stroke-width="2"/>
<path d="M1267.19 856.955V861.713H1262.43" stroke="white" stroke-width="2"/>
<path d="M1599.06 861.713L1594.3 861.713L1594.3 866.471" stroke="white" stroke-width="2"/>
<path d="M1594.31 856.955V861.713H1589.55" stroke="white" stroke-width="2"/>
<path d="M1258 0H1941V1088H630.5L1258 0Z" fill="black"/>
<path d="M1236.79 566.501L1184.62 540.723L1182.54 542.005L1180.96 540.481L1128.29 566.501L1126.21 569.841L1127.48 572.777L1177.87 597.667H1182.54H1187.21L1237.59 572.777L1238.87 569.841L1236.79 566.501Z" fill="#95001A"/>
<path d="M1126.2 569.842L1182.53 597.668V599.978L1146.02 618.018H1141.34L1126.2 610.43L1124.12 607.344V573.171L1126.2 569.842Z" fill="#40004D"/>
<path d="M1238.88 569.842L1182.57 597.668V599.978L1219.07 618.018H1223.76L1238.9 610.43L1240.98 607.344V573.171L1238.88 569.842Z" fill="#520033"/>
<path d="M1238.89 514.503L1236.81 515.795V566.503L1238.87 569.842L1240.97 573.172L1275.02 589.99H1279.69L1286.4 586.631L1238.89 514.503Z" fill="#FFA80A"/>
<path d="M1126.21 514.503L1128.28 515.795V566.503L1126.21 569.842L1124.13 573.172L1090.08 589.99H1085.41L1078.7 586.631L1126.21 514.503Z" fill="#FF3417"/>
<path d="M1126.22 610.43L1085.42 589.99L1126.22 569.842V610.43Z" fill="#6D0044"/>
<path d="M1182.54 638.641L1223.72 618.019L1182.54 597.669L1141.36 618.019L1182.54 638.641Z" fill="#6D0074"/>
<path d="M1238.9 610.43L1279.7 589.99L1238.88 569.842L1238.9 610.43Z" fill="#6D0044"/>
<path d="M1182.55 450.667H1168.27L1126.21 514.502L1128.29 515.793L1182.54 488.986V486.675L1184.62 485.233L1184.63 452.473L1182.55 450.667Z" fill="#FFA80A"/>
<path d="M1182.54 486.671L1126.21 514.497V569.836L1182.54 542L1184.62 540.719V490L1182.54 486.671Z" fill="#D7001F"/>
<path d="M1182.56 450.667H1196.84L1238.9 514.502L1236.82 515.793L1184.62 490.005L1182.55 486.675L1182.56 450.667Z" fill="#FFE50A"/>
<path d="M1238.88 569.836L1182.55 542V486.671L1238.88 514.497V569.836Z" fill="#EF8109"/>
<path d="M1750.81 584.137C1742.73 599.713 1724.5 610.667 1695.95 610.667C1668.78 610.667 1653.82 601.596 1653.82 582.768V582.597C1653.82 571.129 1658.64 562.571 1669.47 557.608C1672.74 556.067 1676.35 554.869 1680.3 553.671C1688.39 551.617 1700.08 550.248 1721.23 549.05C1728.63 548.536 1734.3 548.194 1738.26 547.509C1746.34 546.311 1749.09 544.086 1749.09 539.807V539.636C1749.09 537.41 1748.4 535.357 1746.51 533.303C1743.24 529.366 1735.5 526.628 1721.23 526.628C1712.63 526.628 1706.1 527.141 1701.28 528.51C1691.31 530.736 1687.18 535.528 1686.32 543.401H1656.23C1659.49 517.214 1680.65 505.746 1718.65 505.746C1731.55 505.746 1742.04 506.944 1750.81 509.169C1768.18 513.962 1777.12 524.916 1777.12 546.311V607.415H1753.39L1750.81 584.137ZM1704.72 590.128C1713.49 590.128 1721.06 588.588 1727.77 585.678C1741.35 579.858 1749.43 570.273 1749.43 560.346V559.662C1746.86 563.084 1739.98 565.481 1723.81 566.336C1704.89 567.192 1696.3 568.562 1690.97 571.129C1686.84 573.183 1684.77 576.093 1684.77 580.03V580.2C1684.77 586.704 1690.28 590.128 1704.72 590.128Z" fill="white"/>
<path d="M1568.46 607.414L1514.8 509.169H1547.13L1583.08 577.975L1620.05 509.169H1652.72L1596.15 607.414H1568.46Z" fill="white"/>
<path d="M1482.47 584.137C1474.38 599.713 1456.16 610.667 1427.61 610.667C1400.44 610.667 1385.48 601.596 1385.48 582.768V582.597C1385.48 571.129 1390.29 562.571 1401.13 557.608C1404.39 556.067 1408 554.869 1411.96 553.671C1420.04 551.617 1431.74 550.248 1452.89 549.05C1460.28 548.536 1465.96 548.194 1469.91 547.509C1477.99 546.311 1480.75 544.086 1480.75 539.807V539.636C1480.75 537.41 1480.06 535.357 1478.17 533.303C1474.9 529.366 1467.16 526.628 1452.89 526.628C1444.29 526.628 1437.75 527.141 1432.94 528.51C1422.97 530.736 1418.84 535.528 1417.98 543.401H1387.88C1391.15 517.214 1412.3 505.746 1450.31 505.746C1463.21 505.746 1473.7 506.944 1482.47 509.169C1499.83 513.962 1508.78 524.916 1508.78 546.311V607.415H1485.05L1482.47 584.137ZM1436.38 590.128C1445.15 590.128 1452.72 588.588 1459.42 585.678C1473.01 579.858 1481.09 570.273 1481.09 560.346V559.662C1478.51 563.084 1471.63 565.481 1455.47 566.336C1436.55 567.192 1427.95 568.562 1422.62 571.129C1418.49 573.183 1416.43 576.093 1416.43 580.03V580.2C1416.43 586.704 1421.93 590.128 1436.38 590.128Z" fill="white"/>
<path d="M1339.92 610.144V477.333H1369.33V610.144H1339.92Z" fill="white"/>
<path fill-rule="evenodd" clip-rule="evenodd" d="M259.928 574.926C259.928 609.423 231.962 637.39 197.464 637.39C162.966 637.39 135 609.423 135 574.926H166.232C166.232 592.175 180.215 606.158 197.464 606.158C214.713 606.158 228.696 592.175 228.696 574.926H259.928Z" fill="white"/>
<path fill-rule="evenodd" clip-rule="evenodd" d="M166.232 528.078H135V559.31H166.232V528.078ZM259.928 528.078H228.696V559.31H259.928V528.078Z" fill="white"/>
<path fill-rule="evenodd" clip-rule="evenodd" d="M275.548 559.31H306.779V528.078H275.548V559.31ZM181.852 559.31H213.084V528.078H181.852V559.31Z" fill="white"/>
<path fill-rule="evenodd" clip-rule="evenodd" d="M181.852 512.464C181.852 477.966 209.818 450 244.316 450C278.813 450 306.779 477.966 306.779 512.464H275.548C275.548 495.215 261.564 481.232 244.316 481.232C227.067 481.232 213.084 495.215 213.084 512.464H181.852Z" fill="white"/>
<path d="M425.775 485.753H449.786V559.508C449.786 567.789 447.809 575.036 443.853 581.246C439.935 587.457 434.445 592.3 427.383 595.776C420.322 599.213 412.096 600.933 402.706 600.933C393.279 600.933 385.035 599.213 377.973 595.776C370.912 592.3 365.422 587.457 361.503 581.246C357.585 575.036 355.625 567.789 355.625 559.508V485.753H379.637V557.456C379.637 561.781 380.579 565.626 382.465 568.99C384.388 572.355 387.086 574.998 390.562 576.92C394.036 578.843 398.085 579.804 402.706 579.804C407.365 579.804 411.412 578.843 414.851 576.92C418.326 574.998 421.006 572.355 422.892 568.99C424.814 565.626 425.775 561.781 425.775 557.456V485.753ZM493.637 550.08V599.324H470.014V514.146H492.528V529.174H493.527C495.412 524.22 498.573 520.302 503.01 517.418C507.446 514.497 512.824 513.037 519.147 513.037C525.061 513.037 530.219 514.331 534.618 516.919C539.018 519.507 542.437 523.204 544.877 528.01C547.317 532.779 548.537 538.473 548.537 545.09V599.324H524.914V549.304C524.951 544.092 523.62 540.025 520.921 537.104C518.223 534.147 514.507 532.668 509.774 532.668C506.596 532.668 503.786 533.352 501.346 534.72C498.943 536.087 497.057 538.084 495.69 540.709C494.358 543.297 493.674 546.42 493.637 550.08ZM567.156 599.324V514.146H590.78V599.324H567.156ZM579.023 503.166C575.512 503.166 572.499 502.002 569.985 499.673C567.508 497.306 566.269 494.479 566.269 491.188C566.269 487.934 567.508 485.143 569.985 482.814C572.499 480.449 575.512 479.266 579.023 479.266C582.536 479.266 585.53 480.449 588.008 482.814C590.521 485.143 591.778 487.934 591.778 491.188C591.778 494.479 590.521 497.306 588.008 499.673C585.53 502.002 582.536 503.166 579.023 503.166ZM648.19 600.988C639.575 600.988 632.126 599.158 625.841 595.498C619.593 591.801 614.768 586.663 611.367 580.081C607.967 573.464 606.266 565.793 606.266 557.068C606.266 548.269 607.967 540.58 611.367 533.999C614.768 527.381 619.593 522.243 625.841 518.583C632.126 514.886 639.575 513.037 648.19 513.037C656.803 513.037 664.234 514.886 670.482 518.583C676.767 522.243 681.61 527.381 685.011 533.999C688.412 540.58 690.113 548.269 690.113 557.068C690.113 565.793 688.412 573.464 685.011 580.081C681.61 586.663 676.767 591.801 670.482 595.498C664.234 599.158 656.803 600.988 648.19 600.988ZM648.3 582.688C652.219 582.688 655.491 581.579 658.115 579.36C660.741 577.106 662.718 574.037 664.05 570.156C665.417 566.273 666.101 561.856 666.101 556.901C666.101 551.947 665.417 547.53 664.05 543.648C662.718 539.766 660.741 536.697 658.115 534.443C655.491 532.187 652.219 531.06 648.3 531.06C644.344 531.06 641.017 532.187 638.318 534.443C635.657 536.697 633.641 539.766 632.274 543.648C630.943 547.53 630.277 551.947 630.277 556.901C630.277 561.856 630.943 566.273 632.274 570.156C633.641 574.037 635.657 577.106 638.318 579.36C641.017 581.579 644.344 582.688 648.3 582.688ZM729.1 550.08V599.324H705.474V514.146H727.987V529.174H728.983C730.876 524.22 734.029 520.302 738.47 517.418C742.91 514.497 748.288 513.037 754.603 513.037C760.517 513.037 765.68 514.331 770.082 516.919C774.474 519.507 777.9 523.204 780.34 528.01C782.78 532.779 784 538.473 784 545.09V599.324H760.371V549.304C760.41 544.092 759.083 540.025 756.379 537.104C753.685 534.147 749.967 532.668 745.233 532.668C742.051 532.668 739.25 533.352 736.81 534.72C734.4 536.087 732.516 538.084 731.15 540.709C729.822 543.297 729.139 546.42 729.1 550.08Z" fill="white"/>
<line x1="1352.01" y1="-10.8963" x2="535.759" y2="1224.48" stroke="url(#paint0_linear_844_443)" stroke-width="21"/>
<g filter="url(#filter0_f_844_443)">
<line x1="1352.01" y1="-10.8963" x2="535.759" y2="1224.48" stroke="url(#paint1_linear_844_443)" stroke-width="21"/>
</g>
<path d="M1618.68 1989.92L425 1389.25L971.112 556.319L1454.45 -181H1618.53H1782.62L2266.04 556.254L2812.15 1389.18L1618.68 1989.92ZM1642.45 200.562C1642.45 222.362 1654.79 242.258 1674.29 251.91L2121.24 473.782C2125.59 475.949 2130.05 470.959 2127.36 466.888L1746.52 -114.025H1642.45V200.562ZM2672.95 1384.39L2715.04 1363.24L2284.36 706.357C2281.73 702.418 2275.56 704.256 2275.56 708.984V1158.25C2275.56 1175.97 2285.61 1192.13 2301.43 1200.01L2672.95 1384.39ZM962.642 1176.43L578.321 1367.18C560.658 1375.92 560.593 1401.06 578.19 1409.93L599.53 1420.7C619.689 1430.81 643.458 1430.87 663.617 1420.89L993.634 1257.07L1619.58 1567.78L2251.12 1254.24C2276.99 1241.37 2276.99 1204.47 2251.12 1191.6L2225.07 1178.67C2218.55 1175.45 2214.43 1168.82 2214.43 1161.53V589.15L1652.95 310.415C1646.45 307.197 1642.3 300.566 1642.3 293.277V270.886C1642.3 253.617 1624.13 242.323 1608.63 250.006L1014.25 545.091C982.537 560.85 962.51 593.156 962.51 628.548V1176.24L962.642 1176.43ZM1033.23 615.021V1140.45L1580.33 868.871V343.443L1033.23 615.021ZM1618.53 1482.03L2158.55 1213.99L1618.53 945.958L1078.6 1213.99L1618.53 1482.03Z" fill="#787A7E" fill-opacity="0.24"/>
</g>
<defs>
<filter id="filter0_f_844_443" x="473" y="-70.6846" width="941.773" height="1354.95" filterUnits="userSpaceOnUse" color-interpolation-filters="sRGB">
<feFlood flood-opacity="0" result="BackgroundImageFix"/>
<feBlend mode="normal" in="SourceGraphic" in2="BackgroundImageFix" result="shape"/>
<feGaussianBlur stdDeviation="27" result="effect1_foregroundBlur_844_443"/>
</filter>
<linearGradient id="paint0_linear_844_443" x1="526.983" y1="1219.04" x2="1389.01" y2="-49.826" gradientUnits="userSpaceOnUse">
<stop stop-color="#A0ECFD" stop-opacity="0"/>
<stop offset="0.45" stop-color="#A0ECFD"/>
<stop offset="1" stop-color="#A0ECFD" stop-opacity="0"/>
</linearGradient>
<linearGradient id="paint1_linear_844_443" x1="526.983" y1="1219.04" x2="1389.01" y2="-49.826" gradientUnits="userSpaceOnUse">
<stop stop-color="#A0ECFD" stop-opacity="0"/>
<stop offset="0.45" stop-color="#A0ECFD"/>
<stop offset="1" stop-color="#A0ECFD" stop-opacity="0"/>
</linearGradient>
<clipPath id="clip0_844_443">
<rect width="1920" height="1080" fill="white"/>
</clipPath>
</defs>
</svg>
