<svg xmlns="http://www.w3.org/2000/svg" viewBox="0 0 512 154">
  <path fill="currentColor"
    d="M498.44 20.96a7.4 7.4 0 0 1-7.4-7.4 7.4 7.4 0 0 1 7.4-7.4 7.4 7.4 0 1 1 0 14.8m-73.53 126.5a7.4 7.4 0 0 1-7.4-7.4 7.4 7.4 0 0 1 7.4-7.4 7.4 7.4 0 0 1 7.4 7.4 7.4 7.4 0 0 1-7.4 7.4M498.44 0a13.56 13.56 0 0 0-13.55 13.55c0 1.6.4 3.09.91 4.51l-63.59 108.98c-6.14 1.3-10.85 6.49-10.85 13.02a13.56 13.56 0 0 0 27.1 0c0-1.5-.4-2.88-.85-4.24l63.9-109.34c5.97-1.42 10.49-6.53 10.49-12.93C512 6.07 505.93 0 498.44 0" />
  <path fill="currentColor"
    d="M442.99 20.96a7.4 7.4 0 0 1-7.4-7.4 7.4 7.4 0 0 1 7.4-7.4 7.4 7.4 0 0 1 7.4 7.4 7.4 7.4 0 0 1-7.4 7.4m-73.54 126.5a7.4 7.4 0 1 1 0-14.8 7.4 7.4 0 0 1 7.4 7.4 7.4 7.4 0 0 1-7.4 7.4M442.99 0c-7.5 0-13.56 6.07-13.56 13.55 0 1.6.4 3.09.91 4.51l-63.59 108.98c-6.15 1.3-10.86 6.49-10.86 13.02a13.55 13.55 0 0 0 27.11 0c0-1.5-.4-2.88-.85-4.24l63.9-109.34c5.97-1.42 10.49-6.53 10.49-12.93 0-7.48-6.08-13.55-13.55-13.55M341.7 84.83a13.4 13.4 0 0 1 12.7 9.32c.44 1.36.85 2.73.85 4.24a13.56 13.56 0 0 1-27.1 0c0-6.53 4.7-11.73 10.85-13.02.9-.18 1.74-.54 2.7-.54m0 6.15a7.4 7.4 0 0 0-7.4 7.4 7.4 7.4 0 0 0 14.8 0 7.4 7.4 0 0 0-7.4-7.4m0-53.51c5.98 0 10.9 3.94 12.7 9.32.45 1.35.85 2.74.85 4.23a13.56 13.56 0 0 1-27.1 0c0-6.53 4.7-11.72 10.85-13 .9-.2 1.74-.55 2.7-.55m0 6.15a7.4 7.4 0 0 0-7.4 7.4 7.4 7.4 0 1 0 14.8 0 7.4 7.4 0 0 0-7.4-7.4M72.75 56.88c5.67.03 11.6 1.36 11.6 8.6 0 7.53-6.81 8.63-11.85 8.63H42.2c-3.43 0-6.84 1.8-9.9 4.29l-10.4 8.8c-2.7 2.16-4.66 3.96-4.66 7.36v21.36c0 3.4 1.96 5.2 4.67 7.35l10.4 8.79c3.05 2.52 6.46 4.31 9.89 4.31h30.3c5.04 0 11.85 1.08 11.85 8.63 0 7.35-6.11 8.6-11.85 8.6H44.26c-9.36-.01-13.48-.4-21.29-6.8l-12.73-10.61C1.98 129.38 0 124.18 0 113.59v-16.7c0-10.58 1.98-15.78 10.24-22.62L22.97 63.7c7.8-6.41 11.93-6.8 21.3-6.81Zm96.32 0c7.34 0 8.6 5.92 8.6 11.84v72.3l.02 1.42v.53l-.01.74-.02.38c-.16 4.22-1.31 9.52-8.43 9.52-7.34 0-8.6-6.11-8.6-12.04v-2.87l-14 9.17c-5.57 3.6-10.23 5.74-14.9 5.74H119c-4.85 0-10.24-1.45-15.97-6.28-7.72-6.64-7.56-14.01-7.9-23.34l-1.8-54.2c-.2-6.27.72-12.91 8.6-12.91 7.37 0 8.25 6.27 8.44 11.84l1.8 52.94c.18 3.94.35 8.63 1.8 11.12 1.44 2.52 5.92 3.6 10.04 3.6h5.74q2.97 0 5.39-1.62l25.3-15.97V68.46c.04-5.83 1.37-11.58 8.63-11.58m77.35 0c6.65 0 12.2 2.14 16.86 6.8 5.74 5.77 7.72 11.69 7.72 19.57 0 5.92-1.07 12.03-8.44 12.03-6.28 0-8.8-5.03-8.8-10.58 0-2.87 0-5.04-1.8-7.54-2.03-2.9-5.85-3.04-9.76-3.05h-5.67c-3.22 0-5.55 1.6-8.6 4.13l-24.05 19.91v43.61c0 5.92-1.26 11.85-8.62 11.85-7.35 0-8.61-5.93-8.61-11.85v-72.4c.02-6.2.83-12.48 8.6-12.48 6.84 0 8.63 5.73 8.63 11.47v7.02l13.46-11.15c4.85-3.94 9.86-7.34 15.25-7.34Zm43.76-35.54c9.6.04 12.4 1.9 12.4 12.03v103h12.92c5.76 0 11.85 1.26 11.85 8.63 0 7.53-6.81 8.6-11.85 8.6h-44c-5-.03-11.62-1.17-11.62-8.6 0-7.37 6.09-8.63 11.85-8.63h13.64v-97.8h-13.64c-5.04 0-11.85-1.07-11.85-8.63 0-7.34 6.09-8.6 11.85-8.6Z" />
</svg>
