<svg xmlns="http://www.w3.org/2000/svg" viewBox="0 0 32 32">
  <path fill="#e10098" d="M4.8 22.7 16.2 3l1 .6L5.9 23.3z" />
  <path fill="#e10098" d="M4.5 21.2h23v1.1h-23z" />
  <path fill="#e10098" d="m5 21.8.6-1L17 27.4l-.5 1zM15 4.6l.5-1L27 10.2l-.6 1z" />
  <path fill="#e10098" d="m5 10.2 11.5-6.6.5 1-11.4 6.6z" />
  <path fill="#e10098" d="m14.7 3.5 1-.6 11.5 19.8-1 .6zM5.5 9.4h1.1v13.2H5.5z" />
  <path fill="#e10098" d="M25.4 9.4h1.1v13.2h-1.1z" />
  <path fill="#e10098" d="m15.7 27 10-5.7.5.9-10 5.7z" />
  <path fill="#e10098"
    d="M28.1 23a2.5 2.5 0 1 1-.9-3.4 2.5 2.5 0 0 1 1 3.4m-20-11.5a2.5 2.5 0 1 1-1-3.4 2.5 2.5 0 0 1 1 3.4M3.9 23a2.5 2.5 0 1 1 3.4 1 2.5 2.5 0 0 1-3.4-1m19.9-11.5a2.5 2.5 0 1 1 3.4 1 2.5 2.5 0 0 1-3.4-1M16 30a2.5 2.5 0 1 1 2.5-2.5A2.5 2.5 0 0 1 16 30m0-23a2.5 2.5 0 1 1 2.5-2.5A2.5 2.5 0 0 1 16 7" />
</svg>
