<svg xmlns="http://www.w3.org/2000/svg" viewBox="0 0 32 32">
  <path fill="#fbc02d"
    d="M4 15a2.5 2.5 0 0 0 1.6-.5 2.4 2.4 0 0 0 .8-1.4 15.3 15.3 0 0 0 .2-3V7.5a5.2 5.2 0 0 1 .5-1.7 3 3 0 0 1 .7-1A3 3 0 0 1 9 4.1a6.8 6.8 0 0 1 1.5-.1h.7v2H11a2.3 2.3 0 0 0-1.8.4 3.4 3.4 0 0 0-.4 2.1 36 36 0 0 1-.1 4.2 4.7 4.7 0 0 1-.8 2A4.6 4.6 0 0 1 6.1 16a3.8 3.8 0 0 1 2 1.8 8.9 8.9 0 0 1 .6 3.8v3a1.8 1.8 0 0 0 .6 1.1 2.6 2.6 0 0 0 1.6.3h.3v2h-.7a5.7 5.7 0 0 1-1.7-.2 3 3 0 0 1-1.4-1 3.4 3.4 0 0 1-.6-1.6 24 24 0 0 1-.2-3.2 16.5 16.5 0 0 0-.2-3.1 2.4 2.4 0 0 0-.8-1.4A2.5 2.5 0 0 0 4 17Zm24 2a2.5 2.5 0 0 0-1.6.5 2.4 2.4 0 0 0-.8 1.4 16.5 16.5 0 0 0-.2 3.1 24 24 0 0 1-.2 3.2 3.4 3.4 0 0 1-.6 1.7 3 3 0 0 1-1.4.9 5.7 5.7 0 0 1-1.7.2h-.7v-2h.3a2.6 2.6 0 0 0 1.6-.3 1.8 1.8 0 0 0 .5-1.2v-2.9a8.9 8.9 0 0 1 .7-3.8 3.8 3.8 0 0 1 2-1.8 4.6 4.6 0 0 1-1.7-1.3 4.7 4.7 0 0 1-.8-2 36 36 0 0 1-.1-4.2 3.4 3.4 0 0 0-.4-2A2.3 2.3 0 0 0 21 6h-.3V4h.7a6.8 6.8 0 0 1 1.5.1 3 3 0 0 1 1.1.6 3 3 0 0 1 .8 1 5.2 5.2 0 0 1 .4 1.7l.1 2.8a15.3 15.3 0 0 0 .2 2.9 2.4 2.4 0 0 0 .8 1.4 2.5 2.5 0 0 0 1.6.5Z" />
</svg>
