<svg xmlns="http://www.w3.org/2000/svg" width="32" height="32" viewBox="0 0 24 24" data-chain-icon="arbitrum">
  <g fill="none">
    <path fill="#12AAFF"
      d="m13.15 13.17-.75 2.05a.24.24 0 0 0 0 .18l1.28 3.52 1.5-.86-1.8-4.89a.13.13 0 0 0-.23 0m1.5-3.44a.13.13 0 0 0-.24 0l-.75 2.04a.24.24 0 0 0 0 .18l2.11 5.77 1.5-.86-2.62-7.14z" />
    <path fill="#9DCCED"
      d="M12 5.15q.06 0 .1.03l5.8 3.36a.21.21 0 0 1 .1.19v6.54a.21.21 0 0 1-.1.18l-5.8 3.38a.22.22 0 0 1-.2 0l-5.8-3.37a.21.21 0 0 1-.1-.19V8.73c0-.08.04-.15.1-.19l5.8-3.36a.2.2 0 0 1 .1-.04zm0-.86a1.2 1.2 0 0 0-.59.15L5.73 7.71a1.17 1.17 0 0 0-.59 1.02v6.54c0 .42.23.8.59 1.02l5.68 3.27a1.17 1.17 0 0 0 1.18 0l5.68-3.27a1.16 1.16 0 0 0 .59-1.02V8.73c0-.42-.23-.81-.59-1.02l-5.68-3.27A1.2 1.2 0 0 0 12 4.3" />
    <path fill="#213147" d="m8.24 17.73.52-1.43 1.05.87-.98.9z" />
    <path fill="#fff"
      d="M11.52 8.14h-1.44a.26.26 0 0 0-.24.18l-3.09 8.54 1.5.87 3.4-9.4a.14.14 0 0 0-.07-.17.13.13 0 0 0-.06-.02zm2.52 0H12.6a.26.26 0 0 0-.24.17l-3.53 9.75 1.5.87 3.83-10.61a.13.13 0 0 0-.06-.16.13.13 0 0 0-.06-.02" />
  </g>
</svg>
