<svg xmlns="http://www.w3.org/2000/svg" fill="none" viewBox="0 0 166 166">
  <g clip-path="url(#a)">
    <path fill="#C5FFCE" d="M0 0h166v166H0z" />
    <path fill="#24A95A"
      d="M138.61 100.44c0 19.78-24.13 27.81-54.09 27.81-29.96 0-54.44-8.03-54.44-27.8 0-19.78 24.3-35.78 54.27-35.78 29.96 0 54.26 16.04 54.26 35.77Z" />
    <path fill="#32DA6D"
      d="M133.1 57.35c0-10.41-8.5-18.87-18.96-18.87a18.98 18.98 0 0 0-13.81 5.94c-.54.56-1.32.84-2.08.68a69.8 69.8 0 0 0-27.59 0 2.27 2.27 0 0 1-2.08-.68 19.07 19.07 0 0 0-13.8-5.94A18.93 18.93 0 0 0 35.8 57.35c0 3.03.72 5.88 1.98 8.4.3.61.33 1.32.07 1.95a23.67 23.67 0 0 0-1.88 9.21c0 18.34 21.71 33.19 48.48 33.19 26.76 0 48.47-14.85 48.47-33.19 0-3.2-.65-6.29-1.88-9.21a2.33 2.33 0 0 1 .07-1.94 18.72 18.72 0 0 0 1.98-8.41Z" />
    <path fill="#fff"
      d="M53.23 67.81c6.4 0 11.59-5.16 11.59-11.53 0-6.36-5.2-11.52-11.6-11.52-6.4 0-11.58 5.16-11.58 11.52 0 6.37 5.19 11.53 11.59 11.53Zm61.83 0c6.4 0 11.6-5.16 11.6-11.53 0-6.36-5.2-11.52-11.6-11.52-6.4 0-11.59 5.16-11.59 11.52 0 6.37 5.2 11.53 11.6 11.53Z" />
    <path fill="#32DA6D"
      d="M47.08 126.83a4.19 4.19 0 0 0 4.18-4.61c-1.02-8.67-5.34-27.42-24.35-38.7-20.83-12.38-10.92 20.51-6.77 32.5a5.34 5.34 0 0 1-2.36 6.4l-1.37.78c-1.75 1-1.02 3.63.99 3.63h29.68Zm75.49 0c-2.25 0-4-2.17-3.76-4.61.88-8.63 4.81-27.42 21.95-38.7 18.98-12.48 9.74 21.03 6.06 32.77a5.33 5.33 0 0 0 2.2 6.1l1.26.8c1.58 1.02.91 3.64-.88 3.64h-26.83Z" />
    <path fill="#092511"
      d="M53.24 63.18a6.91 6.91 0 1 0 0-13.83 6.91 6.91 0 0 0 0 13.83Zm61.84 0a6.91 6.91 0 1 0 0-13.83 6.91 6.91 0 0 0 0 13.83ZM99.8 83.02c1.71.15 3.01 1.67 2.58 3.33A18.6 18.6 0 0 1 82.8 100.2a18.58 18.58 0 0 1-16.97-18.02c-.03-1.15.98-2 2.13-1.9l16.43 1.41 15.4 1.33Z" />
  </g>
  <defs>
    <clipPath id="a">
      <path fill="#fff" d="M0 0h166v166H0z" />
    </clipPath>
  </defs>
</svg>
