<svg xmlns="http://www.w3.org/2000/svg" fill="none" viewBox="0 0 200 200" data-chain-icon="osmosis">
  <path fill="#5E12A0"
    d="M191.14 35.35c-2.04-7.84-8.58-15.68-20.36-24.4C161.32 3.99 151.28 0 143.29 0c-1.6 0-3.05.15-4.5.44-3.64.74-6.84 3.4-8.88 7.4-2.47 4.73-3.05 11.1-1.45 14.94a37.2 37.2 0 0 0 2.18 4c-7.7 4.73-12.07 6.06-12.65 6.2 20.07 6.8 36.79 21 47.26 39.5l.15-1.78c.43-4.88 1.89-10.5 3.92-16.27 2.04.6 4.07.9 6.11.9 5.38 0 10.03-2.23 12.94-6.22 2.91-4 4.07-9.32 2.77-13.76Z" />
  <path fill="url(#a)"
    d="M170.2 50.15c13.23 3.7 18.61-6.66 16.87-13.61-1.9-6.95-8-14.05-18.76-22.04-10.77-7.99-21.67-11.24-28.65-9.76-6.98 1.48-9.02 12.27-7.28 16.42.73 1.62 2.33 3.99 4.51 6.65-2.76 1.93-5.38 3.4-7.56 4.74a86.26 86.26 0 0 1 33.74 27.36c1.02-4 2.47-7.54 3.78-10.65 1.02.15 2.18.44 3.35.89Z" />
  <path fill="url(#b)"
    d="M94.42 195.11c44.9 0 81.3-37.02 81.3-82.68 0-45.67-36.4-82.69-81.3-82.69s-81.29 37.02-81.29 82.69c0 45.66 36.4 82.68 81.3 82.68Z" />
  <path fill="#A98698"
    d="M180.38 29.73c-11.06-11.83-20.36-14.94-31.56-17.45-8.73-2.07-6.4-7.1 4.22-6.07-5.1-1.77-9.9-2.22-13.38-1.48-6.98 1.48-9.02 12.28-7.27 16.42.72 1.63 2.32 4 4.5 6.66a110.35 110.35 0 0 1-10.03 6.06c1.3.6 2.9 1.33 4.8 2.37a76.65 76.65 0 0 1 10.32 7.1c-8.14-7.1-6.4-10.36 4.8-18.34 3.5-2.52 9.9-2.22 15.85.88 5.97 3.11 12.95 10.95 12.95 10.95l-6.7 13.02 1.32.44c4.21 1.18 7.56.89 10.18-.15 3.05-1.92 11.05-8.43 0-20.4Z"
    opacity=".6" />
  <path fill="#5E12A0"
    d="M148.67 19.39c2.91 1.18 6.7 3.25 11.35 6.36a80.96 80.96 0 0 1 13.38 11.09c-5.1 6.8-8.44 16.12-10.47 22.63 1.01 1.48 2.18 2.96 3.2 4.44a121.3 121.3 0 0 1 5.08-14.65c.59.15 1.31.15 2.04.15 1.75 0 3.78-.3 5.38-1.63 1.16-.88 2.47-2.51 2.33-5.47 0-2.8-2.18-6.36-6.7-10.65-3.2-3.1-7.55-6.5-11.92-9.61-12.5-8.43-21.23-10.8-25.16-6.8-2.61 2.66-2.32 5.91-1.45 8.28-4.65 3.1-8.58 5.32-11.2 6.8 1.75.6 3.35 1.33 5.1 2.07 4.65-2.51 11.34-6.8 19.04-13.01Zm27.49 21.15c.44.74.58 1.48.58 1.92 0 1.33-.44 1.77-.73 2.07a5.1 5.1 0 0 1-2.76.74c.87-1.77 1.9-3.25 2.9-4.73ZM140.24 18.5c.44-.45 1.6-.74 3.49-.45-1.45 1.19-2.9 2.22-4.36 3.26-.15-1.04 0-2.07.87-2.81Z" />
  <path fill="#5E12A0"
    d="M94.42 24.87c-47.55 0-86.09 39.2-86.09 87.56 0 48.37 38.54 87.57 86.1 87.57 47.55 0 86.09-39.2 86.09-87.57 0-48.37-38.69-87.56-86.1-87.56Zm0 170.25c-44.93 0-81.29-36.98-81.29-82.69 0-45.7 36.36-82.68 81.3-82.68 44.93 0 81.29 36.98 81.29 82.68 0 45.71-36.5 82.69-81.3 82.69Z" />
  <path fill="url(#c)"
    d="M94.42 195.11c44.9 0 81.3-37.02 81.3-82.68 0-45.67-36.4-82.69-81.3-82.69s-81.29 37.02-81.29 82.69c0 45.66 36.4 82.68 81.3 82.68Z"
    opacity=".6" />
  <path fill="#A98698"
    d="M93.85 185.06c-44.35-7.25-74.46-49.7-67.19-94.81a82.57 82.57 0 0 1 27.05-49.26 82.53 82.53 0 0 0-39.55 58.28c-7.13 45.11 22.97 87.57 67.18 94.82 24.73 4.14 48.58-3.7 66.17-19.09a80.37 80.37 0 0 1-53.66 10.06Z"
    opacity=".6" />
  <path fill="url(#d)"
    d="M107.36 30.92a80 80 0 0 0-56.71 11.84l-.58.59c6.25-3.85 15.41-7.25 15.41-7.25C41.92 50 34.65 65.83 34.65 65.83 43.81 47.8 70.72 35.07 91.8 34.18c21.1-.89 34.9 5.47 51.78 19.23 16.86 13.9 27.04 42.3 26.03 64.78-.88 22.49-12.5 40.68-12.5 40.68 7.99-10.5 12.79-18.2 15.84-26.03.58-2.37 1.17-4.74 1.46-7.25 7.27-44.97-22.69-87.42-67.05-94.67Z"
    opacity=".6" />
  <path fill="url(#e)" d="M171.64 111.69c0 43.34-34.6 78.54-77.22 78.54-42.6 0-77.36-35.2-77.36-78.54h154.58Z" />
  <path fill="url(#f)" d="M165.53 111.69c0 42.3-32.86 76.91-74.16 78.54h3.05c42.61 0 77.22-35.2 77.22-78.54h-6.1Z"
    opacity=".6" />
  <path fill="url(#g)"
    d="M27.96 111.69h-10.9c0 43.34 34.6 78.54 77.22 78.54 1.89 0 3.63 0 5.38-.15-40-2.95-71.7-36.97-71.7-78.4Z"
    opacity=".7" />
  <path fill="url(#h)"
    d="M171.5 112.42c0-9.02-15.42-14.2-35.92-15.97-14.84-1.19-29.81.3-46.97 5.62-14.84 4.44-28.22 3.7-37.96 2.51-21.67-2.51-33.6-2.8-33.6 7.84 0 15.39 30.84 34.61 77.08 27.96 23.42-3.4 35.49-10.36 49.3-15.09 14.98-5.03 28.07-4.88 28.07-12.87Z" />
  <path fill="#fff"
    d="M119.73 75.15a13.2 13.2 0 0 0 13.08-13.31 13.2 13.2 0 0 0-13.08-13.31 13.2 13.2 0 0 0-13.1 13.31 13.2 13.2 0 0 0 13.1 13.31Zm21.37 9.91a5.57 5.57 0 0 0 5.53-5.62c0-3.1-2.47-5.62-5.52-5.62a5.57 5.57 0 0 0-5.53 5.62c0 3.1 2.48 5.62 5.53 5.62Z" />
  <path fill="url(#i)"
    d="M160.88 51.2h-.29c-.87-.14-1.45-1.03-1.3-2.07 1.3-6.8 6.83-13.31 7.12-13.6a1.61 1.61 0 0 1 2.33-.15c.72.59.72 1.77.14 2.36-.14.15-5.23 6.22-6.4 12.13a1.57 1.57 0 0 1-1.6 1.33Z"
    opacity=".6" />
  <path fill="#fff"
    d="M89.06 174.1a4.1 4.1 0 0 0 4.07-4.14 4.1 4.1 0 0 0-4.07-4.15 4.1 4.1 0 0 0-4.07 4.15 4.1 4.1 0 0 0 4.07 4.14Z"
    opacity=".2" />
  <g opacity=".4">
    <path fill="url(#j)"
      d="M86.71 172.66a4.25 4.25 0 0 1 0-5.92c.3-.3.58-.44.88-.74-.59.15-1.02.44-1.46.89a4.25 4.25 0 0 0 0 5.92 4.14 4.14 0 0 0 4.95.73c-1.46.6-3.2.3-4.37-.88Z"
      opacity=".6" />
  </g>
  <path fill="#fff" d="M90.5 168.78c.47 0 .86-.4.86-.89s-.39-.89-.87-.89-.87.4-.87.9c0 .48.39.88.87.88Z" opacity=".3" />
  <path fill="#fff"
    d="M110.3 172.03a4.1 4.1 0 0 0 4.07-4.14 4.1 4.1 0 0 0-4.07-4.14 4.1 4.1 0 0 0-4.07 4.14 4.1 4.1 0 0 0 4.07 4.15Z"
    opacity=".2" />
  <g opacity=".4">
    <path fill="url(#k)"
      d="M107.95 170.6a4.25 4.25 0 0 1 0-5.92c.3-.3.59-.45.88-.74a3 3 0 0 0-1.46.88 4.25 4.25 0 0 0 0 5.92 4.14 4.14 0 0 0 4.95.74c-1.46.6-3.2.3-4.36-.89Z"
      opacity=".6" />
  </g>
  <path fill="#fff" d="M111.73 166.71c.49 0 .88-.4.88-.88a.88.88 0 0 0-.88-.9c-.48 0-.87.4-.87.9 0 .49.4.88.87.88Z"
    opacity=".3" />
  <path fill="#fff"
    d="M99.8 181.66a3.07 3.07 0 0 0 3.05-3.1 3.08 3.08 0 0 0-3.05-3.11 3.08 3.08 0 0 0-3.06 3.1 3.08 3.08 0 0 0 3.06 3.11Z"
    opacity=".2" />
  <g opacity=".4">
    <path fill="url(#l)"
      d="M98.05 180.5a3.26 3.26 0 0 1 0-4.44c.15-.15.44-.3.58-.44-.43.14-.72.44-1.01.73a3.26 3.26 0 0 0 0 4.44c1.01 1.04 2.47 1.19 3.78.45a3.13 3.13 0 0 1-3.35-.74Z"
      opacity=".6" />
  </g>
  <path fill="#fff" d="M100.82 177.5a.59.59 0 0 0 0-1.18.59.59 0 0 0-.58.6c0 .32.26.59.58.59Z" opacity=".3" />
  <path fill="#fff"
    d="M118.56 179.43a3.08 3.08 0 0 0 3.06-3.1 3.08 3.08 0 0 0-3.06-3.11 3.08 3.08 0 0 0-3.05 3.1c0 1.72 1.37 3.1 3.05 3.1Z"
    opacity=".2" />
  <g opacity=".4">
    <path fill="url(#m)"
      d="M116.82 178.26a3.26 3.26 0 0 1 0-4.43c.15-.15.44-.3.58-.45a2.6 2.6 0 0 0-1.02.74 3.26 3.26 0 0 0 0 4.44c1.02 1.04 2.48 1.18 3.79.44a3.13 3.13 0 0 1-3.35-.74Z"
      opacity=".6" />
  </g>
  <path fill="#fff" d="M119.6 175.3c.31 0 .57-.27.57-.6a.6.6 0 0 0-.58-.6.59.59 0 0 0-.58.6c0 .33.26.6.58.6Z"
    opacity=".3" />
  <path fill="#fff"
    d="M71.74 172.63c3.7 0 6.69-3.04 6.69-6.8s-3-6.8-6.7-6.8a6.75 6.75 0 0 0-6.68 6.8c0 3.76 3 6.8 6.69 6.8Z"
    opacity=".2" />
  <g opacity=".4">
    <path fill="url(#n)"
      d="M67.96 170.1a6.87 6.87 0 0 1 0-9.61 5.1 5.1 0 0 1 1.45-1.04c-.87.3-1.6.9-2.33 1.48a6.87 6.87 0 0 0 0 9.62 6.53 6.53 0 0 0 8.15 1.03 6.4 6.4 0 0 1-7.27-1.48Z"
      opacity=".6" />
  </g>
  <path fill="#fff"
    d="M74.07 163.75c.8 0 1.46-.66 1.46-1.48s-.66-1.48-1.46-1.48c-.8 0-1.45.66-1.45 1.48s.65 1.48 1.45 1.48Z"
    opacity=".3" />
  <path fill="#fff"
    d="M131.54 155.91c3.7 0 6.69-3.04 6.69-6.8s-3-6.8-6.7-6.8a6.75 6.75 0 0 0-6.68 6.8c0 3.76 3 6.8 6.69 6.8Z"
    opacity=".2" />
  <g opacity=".4">
    <path fill="url(#o)"
      d="M127.57 153.4a6.87 6.87 0 0 1 0-9.61 5.3 5.3 0 0 1 1.46-1.04c-.88.3-1.6.89-2.33 1.48a6.87 6.87 0 0 0 0 9.61 6.53 6.53 0 0 0 8.15 1.04 6.44 6.44 0 0 1-7.28-1.48Z"
      opacity=".6" />
  </g>
  <path fill="#fff"
    d="M133.84 147.05c.8 0 1.45-.66 1.45-1.48s-.65-1.48-1.45-1.48c-.8 0-1.46.66-1.46 1.48s.65 1.48 1.46 1.48Z"
    opacity=".3" />
  <defs>
    <linearGradient id="c" x1="81.38" x2="108.26" y1="193.94" y2="30.92" gradientUnits="userSpaceOnUse">
      <stop stop-color="#81FFFF" />
      <stop offset=".62" stop-color="#fff" stop-opacity="0" />
    </linearGradient>
    <linearGradient id="d" x1="151.71" x2="83.45" y1="56.27" y2="117.85" gradientUnits="userSpaceOnUse">
      <stop offset=".29" stop-color="#fff" />
      <stop offset=".78" stop-color="#fff" stop-opacity="0" />
    </linearGradient>
    <linearGradient id="e" x1="17.12" x2="171.61" y1="150.91" y2="150.91" gradientUnits="userSpaceOnUse">
      <stop stop-color="#0002E9" />
      <stop offset="1" stop-color="#FF00C7" />
    </linearGradient>
    <linearGradient id="f" x1="178.92" x2="93.49" y1="118.58" y2="197.96" gradientUnits="userSpaceOnUse">
      <stop offset=".29" stop-color="#fff" />
      <stop offset=".78" stop-color="#fff" stop-opacity="0" />
    </linearGradient>
    <linearGradient id="g" x1="17.12" x2="99.77" y1="150.91" y2="150.91" gradientUnits="userSpaceOnUse">
      <stop stop-color="#000292" />
      <stop offset="1" stop-color="#7D00C7" />
    </linearGradient>
    <linearGradient id="h" x1="17.23" x2="171.5" y1="118.95" y2="118.95" gradientUnits="userSpaceOnUse">
      <stop stop-color="#000292" />
      <stop offset="1" stop-color="#BE00C7" />
    </linearGradient>
    <linearGradient id="i" x1="168.97" x2="157.61" y1="34.8" y2="52.96" gradientUnits="userSpaceOnUse">
      <stop offset=".29" stop-color="#fff" />
      <stop offset=".78" stop-color="#fff" stop-opacity="0" />
    </linearGradient>
    <linearGradient id="j" x1="84.93" x2="91.08" y1="170.12" y2="170.12" gradientUnits="userSpaceOnUse">
      <stop offset=".29" stop-color="#fff" />
      <stop offset=".78" stop-color="#fff" stop-opacity="0" />
    </linearGradient>
    <linearGradient id="k" x1="106.16" x2="112.31" y1="168.03" y2="168.03" gradientUnits="userSpaceOnUse">
      <stop offset=".29" stop-color="#fff" />
      <stop offset=".78" stop-color="#fff" stop-opacity="0" />
    </linearGradient>
    <linearGradient id="l" x1="96.66" x2="101.28" y1="178.6" y2="178.6" gradientUnits="userSpaceOnUse">
      <stop offset=".29" stop-color="#fff" />
      <stop offset=".78" stop-color="#fff" stop-opacity="0" />
    </linearGradient>
    <linearGradient id="m" x1="115.43" x2="120.05" y1="176.37" y2="176.37" gradientUnits="userSpaceOnUse">
      <stop offset=".29" stop-color="#fff" />
      <stop offset=".78" stop-color="#fff" stop-opacity="0" />
    </linearGradient>
    <linearGradient id="n" x1="65.05" x2="75.1" y1="165.99" y2="165.99" gradientUnits="userSpaceOnUse">
      <stop offset=".29" stop-color="#fff" />
      <stop offset=".78" stop-color="#fff" stop-opacity="0" />
    </linearGradient>
    <linearGradient id="o" x1="124.73" x2="134.78" y1="149.28" y2="149.28" gradientUnits="userSpaceOnUse">
      <stop offset=".29" stop-color="#fff" />
      <stop offset=".78" stop-color="#fff" stop-opacity="0" />
    </linearGradient>
    <radialGradient id="a" cx="0" cy="0" r="1" gradientTransform="matrix(65 0 0 66 184.41 27.22)"
      gradientUnits="userSpaceOnUse">
      <stop stop-color="#FFEAFF" stop-opacity=".6" />
      <stop offset=".68" stop-color="#A087C9" />
      <stop offset="1" stop-color="#10002F" />
    </radialGradient>
    <radialGradient id="b" cx="0" cy="0" r="1" gradientTransform="matrix(182 0 0 197 167.4 97.74)"
      gradientUnits="userSpaceOnUse">
      <stop stop-color="#FFEAFF" stop-opacity=".6" />
      <stop offset=".68" stop-color="#A087C9" />
      <stop offset="1" stop-color="#10002F" />
    </radialGradient>
  </defs>
</svg>
