<svg xmlns="http://www.w3.org/2000/svg" width="32" height="32" viewBox="0 0 24 24" data-chain-icon="scroll">
  <g fill="none">
    <path fill="#FFEEDA"
      d="M18.86 14.68V5.4A1.41 1.41 0 0 0 17.45 4H7.77A3.83 3.83 0 0 0 4 7.83a3.82 3.82 0 0 0 1.49 3.02c.1.09.05.05.38.25.46.28.98.42.98.42v5.55c0 .26.03.51.1.75.22.79.76 1.39 1.5 1.67.3.13.65.2 1.03.21l7.73.03a2.79 2.79 0 0 0 2.79-2.8 2.8 2.8 0 0 0-1.14-2.25" />
    <path fill="#EBC28E"
      d="M19.05 17a1.85 1.85 0 0 1-1.84 1.78l-5.32-.01c.42-.5.68-1.13.68-1.83 0-1.09-.65-1.84-.65-1.84h5.3c1 0 1.84.82 1.84 1.84z" />
    <path fill="#101010"
      d="M6 10.07a3.06 3.06 0 0 1-1.04-2.23v-.09a2.9 2.9 0 0 1 2.81-2.79h9.68c.26.01.46.2.46.45v8.2a2.47 2.47 0 0 1 .95.33V5.41a1.41 1.41 0 0 0-1.41-1.4H7.77A3.83 3.83 0 0 0 4 7.84c0 1.22.56 2.26 1.46 3 .07.04.13.1.29.1a.46.46 0 0 0 .47-.46c0-.21-.1-.28-.22-.41" />
    <path fill="#101010"
      d="M17.2 14.14H9.63a.93.93 0 0 0-.92.93v1.09a.97.97 0 0 0 .95.93h.57v-.93h-.57v-1.07h.3c.96 0 1.67.89 1.67 1.84 0 .85-.77 1.93-2.06 1.84a1.9 1.9 0 0 1-1.76-1.84V7.68a.76.76 0 0 0-.76-.76h-.76v.95h.57v9.07c-.03 1.84 1.3 2.77 2.71 2.77l7.65.02A2.79 2.79 0 0 0 20 16.94a2.8 2.8 0 0 0-2.8-2.8M19.06 17a1.85 1.85 0 0 1-1.84 1.79l-5.32-.02c.42-.5.68-1.13.68-1.83 0-1.09-.65-1.84-.65-1.84h5.3c1.01 0 1.84.82 1.84 1.84zm-3.9-8.96H9.45V7.1h5.72c.26 0 .47.21.47.48a.47.47 0 0 1-.47.47" />
    <path fill="#101010"
      d="M15.16 12.5H9.44v-.95h5.72c.26 0 .47.21.47.48a.46.46 0 0 1-.47.47m1.01-2.23H9.43v-.95h6.73c.26 0 .47.2.47.47a.46.46 0 0 1-.46.48" />
  </g>
</svg>
