<?xml version="1.0" standalone="no"?>
<!DOCTYPE svg PUBLIC "-//W3C//DTD SVG 20010904//EN"
 "http://www.w3.org/TR/2001/REC-SVG-20010904/DTD/svg10.dtd">
<svg version="1.0" xmlns="http://www.w3.org/2000/svg"
 width="240.000000pt" height="240.000000pt" viewBox="0 0 240.000000 240.000000"
 preserveAspectRatio="xMidYMid meet">

<g transform="translate(0.000000,240.000000) scale(0.100000,-0.100000)"
fill="#000000" stroke="none">
<path d="M0 1200 l0 -1200 1200 0 1200 0 0 1200 0 1200 -1200 0 -1200 0 0
-1200z m1482 861 c102 -26 165 -60 236 -126 102 -94 167 -264 148 -390 -6 -38
-16 -58 -46 -87 -21 -21 -42 -38 -48 -38 -9 0 15 57 43 100 12 20 14 51 2 43
-5 -3 -7 11 -4 35 5 45 1 55 -26 65 -10 4 -17 15 -16 24 3 36 -1 44 -23 41
-11 -2 -23 3 -26 11 -3 9 2 11 19 7 13 -3 18 -3 11 0 -6 3 -10 9 -7 14 3 4 -2
10 -10 14 -8 3 -14 0 -12 -6 1 -6 -9 -17 -23 -25 -21 -11 -21 -17 1 -15 3 1 6
-5 6 -12 0 -8 -8 -11 -19 -8 -11 3 -18 -1 -18 -11 0 -8 -9 -17 -21 -20 -12 -3
-19 -11 -17 -18 2 -7 -8 -26 -23 -42 -22 -22 -29 -41 -32 -80 l-3 -52 -2 56
c-2 40 7 83 33 160 26 75 35 118 33 154 -3 58 -10 70 -52 92 -32 17 -149 26
-139 10 3 -4 -1 -8 -8 -6 -30 4 -60 -1 -55 -9 3 -5 -1 -9 -9 -9 -8 0 -12 4 -9
9 3 4 -2 5 -10 2 -9 -3 -13 -11 -9 -18 4 -6 -1 -5 -10 3 -10 8 -21 11 -24 7
-4 -4 -2 -10 5 -14 7 -5 0 -12 -21 -20 -30 -11 -31 -10 -12 4 19 16 19 16 -5
9 -36 -11 -50 -24 -43 -43 4 -13 2 -12 -10 3 l-16 20 -1 -20 c-1 -11 -4 -14
-7 -7 -2 6 -11 12 -19 12 -10 0 -12 -5 -8 -12 6 -10 4 -10 -8 0 -13 11 -18 11
-24 0 -5 -7 -9 -17 -9 -22 0 -5 -7 -11 -15 -13 -9 -3 -11 -1 -5 4 6 4 11 17
12 28 1 11 0 14 -3 7 -3 -6 -10 -10 -15 -6 -5 3 -9 2 -8 -3 3 -19 -2 -33 -12
-33 -5 0 -8 4 -5 8 2 4 -6 9 -20 10 -16 1 -24 -3 -24 -14 0 -12 -6 -15 -25
-10 -15 4 -25 2 -25 -4 0 -6 5 -8 10 -5 6 3 10 2 10 -4 0 -5 -9 -9 -19 -8 -11
0 -17 5 -15 9 3 4 0 8 -5 8 -6 0 -11 -7 -11 -15 0 -18 -5 -19 -32 -4 -13 7
-18 7 -14 1 3 -6 2 -13 -4 -17 -6 -4 -7 -11 -4 -17 4 -5 -4 -5 -16 2 -19 10
-24 10 -32 -3 -4 -9 -17 -14 -28 -12 -11 2 -22 -1 -26 -7 -4 -7 -10 -5 -16 3
-6 10 -7 7 -3 -10 5 -18 4 -22 -6 -16 -9 6 -11 3 -5 -10 5 -15 4 -16 -8 -6
-10 8 -16 9 -21 1 -3 -5 -14 -10 -23 -9 -14 0 -13 2 3 9 11 5 14 9 8 9 -18 1
-74 -35 -66 -42 7 -8 -11 -11 -41 -7 -15 1 -18 -3 -13 -21 4 -15 3 -19 -5 -11
-12 12 -71 -5 -63 -18 3 -4 -2 -10 -10 -14 -8 -3 -15 -12 -15 -20 0 -8 -5 -18
-12 -22 -6 -4 -8 -3 -5 4 5 7 -1 6 -17 -1 -13 -7 -22 -15 -20 -19 2 -3 -5 -9
-16 -13 -16 -5 -18 -10 -10 -26 8 -14 7 -19 -3 -19 -17 0 -21 -26 -21 -137 0
-124 -19 -94 -24 39 -6 127 18 208 91 315 115 170 330 300 582 353 126 26 316
27 417 1z m-417 -230 c3 -5 2 -12 -3 -15 -5 -3 -9 1 -9 9 0 17 3 19 12 6z
m-125 -45 c0 -3 -4 -8 -10 -11 -5 -3 -10 -1 -10 4 0 6 5 11 10 11 6 0 10 -2
10 -4z m-120 -51 c0 -8 -4 -15 -10 -15 -5 0 -7 7 -4 15 4 8 8 15 10 15 2 0 4
-7 4 -15z m791 -292 c13 -16 12 -17 -3 -4 -10 7 -18 15 -18 17 0 8 8 3 21 -13z
m-1115 -135 c3 -10 10 -18 15 -18 6 0 7 5 4 10 -3 6 -1 10 4 10 6 0 11 -6 11
-14 0 -7 12 -26 28 -41 32 -32 -39 -34 627 20 237 19 459 37 495 40 36 3 81 8
101 11 124 19 239 -100 239 -247 0 -138 -93 -324 -221 -444 -43 -40 -36 -22
10 25 28 29 91 125 91 138 0 5 7 15 15 22 8 7 17 27 21 46 4 22 10 31 18 27 6
-4 5 1 -3 10 -7 9 -9 17 -4 17 17 0 33 70 22 97 -6 18 -6 30 2 39 6 8 8 14 3
14 -5 0 -9 17 -9 38 0 20 -4 43 -8 49 -5 7 -7 19 -4 27 3 8 -5 22 -19 32 -13
11 -24 24 -24 29 0 6 -23 19 -50 29 -41 15 -68 17 -153 12 -56 -4 -115 -8
-132 -10 -16 -2 -68 -6 -115 -10 -47 -4 -112 -9 -145 -12 -33 -2 -73 -7 -89
-10 -16 -4 -56 -8 -90 -9 -33 -2 -81 -6 -106 -9 -74 -9 -167 -15 -316 -22
-122 -6 -145 -4 -177 11 -32 15 -90 75 -72 75 3 0 1 9 -5 19 -8 17 -7 20 10
18 11 -1 23 -9 26 -19z m-56 -78 c6 -11 8 -20 6 -20 -3 0 -10 9 -16 20 -6 11
-8 20 -6 20 3 0 10 -9 16 -20z m1404 -162 c-4 -7 -14 -21 -22 -31 -12 -13 -13
-20 -4 -29 8 -8 5 -15 -14 -24 -13 -7 -31 -11 -38 -8 -19 7 -29 -25 -14 -44
11 -13 10 -14 -9 -4 -27 15 -36 15 -28 2 3 -5 0 -8 -7 -5 -18 7 -42 -31 -26
-41 6 -4 8 -3 5 3 -7 11 22 28 31 18 3 -3 -1 -5 -9 -5 -11 0 -12 -2 -1 -9 10
-6 7 -10 -12 -15 -14 -3 -26 -11 -26 -17 0 -6 -4 -8 -9 -4 -5 3 -12 1 -16 -5
-3 -5 -15 -10 -25 -10 -10 0 -21 -4 -25 -9 -3 -6 4 -8 15 -6 11 2 18 0 15 -6
-4 -5 -13 -9 -21 -9 -8 0 -14 -8 -14 -17 0 -15 -1 -15 -13 1 -12 16 -14 16
-31 -3 -10 -11 -16 -26 -13 -34 3 -9 -2 -13 -17 -13 -12 1 -20 -4 -18 -12 1
-8 -2 -11 -8 -7 -6 3 -8 12 -4 18 3 7 0 5 -8 -3 -15 -17 -162 -138 -193 -159
-35 -23 109 107 338 305 122 106 223 193 225 193 2 1 0 -5 -4 -11z m7 -31 c-6
-8 -9 -16 -6 -19 3 -2 -2 -5 -10 -5 -13 0 -13 3 2 19 19 21 31 25 14 5z
m-1131 -72 c61 -32 81 -74 140 -299 34 -128 35 -164 5 -95 -22 50 -55 91 -55
69 0 -9 -8 -6 -23 8 -13 12 -27 19 -31 15 -4 -4 -4 0 0 10 4 11 1 17 -9 17 -8
0 -17 10 -21 23 -3 12 -19 28 -36 35 -16 8 -30 18 -30 24 0 5 -11 24 -24 41
-14 18 -26 39 -28 47 -2 8 -10 21 -18 28 -11 10 -11 12 -1 6 9 -5 12 -3 7 4
-4 7 -18 12 -32 12 -37 0 -65 -70 -66 -165 l0 -50 -10 40 c-11 47 -3 127 17
166 16 30 61 69 79 69 6 0 3 -5 -6 -11 -10 -5 -18 -17 -18 -26 0 -11 5 -13 18
-7 9 4 41 10 70 12 56 4 65 13 30 30 -19 9 -20 11 -5 11 10 1 31 -6 47 -14z
m1079 -2 c-7 -10 -14 -19 -15 -21 -1 -1 -7 4 -14 13 -11 13 -10 14 3 10 8 -4
18 -2 22 4 3 6 9 11 12 11 3 0 -1 -8 -8 -17z m-1208 -110 c13 -16 12 -17 -3
-4 -10 7 -18 15 -18 17 0 8 8 3 21 -13z m979 -57 c0 -2 -8 -10 -17 -17 -16
-13 -17 -12 -4 4 13 16 21 21 21 13z"/>
<path d="M700 926 c0 -2 8 -10 18 -17 15 -13 16 -12 3 4 -13 16 -21 21 -21 13z"/>
</g>
</svg>
