<svg width="400" height="400" viewBox="0 0 400 400" fill="none" xmlns="http://www.w3.org/2000/svg">
<g clip-path="url(#clip0_222_599)">
<path d="M200 400C310.457 400 400 310.457 400 200C400 89.543 310.457 0 200 0C89.543 0 0 89.543 0 200C0 310.457 89.543 400 200 400Z" fill="black"/>
<mask id="mask0_222_599" style="mask-type:luminance" maskUnits="userSpaceOnUse" x="85" y="70" width="231" height="260">
<path d="M315.351 70H85V330H315.351V70Z" fill="white"/>
</mask>
<g mask="url(#mask0_222_599)">
<path d="M93.7441 149.034V250.965C93.7441 257.473 97.2207 263.49 102.852 266.733L191.089 317.709C196.719 320.952 203.651 320.952 209.282 317.709L297.519 266.733C303.15 263.49 306.627 257.473 306.627 250.965V149.034C306.627 142.526 303.15 136.509 297.519 133.266L209.282 82.29C203.651 79.0466 196.719 79.0466 191.089 82.29L102.83 133.266C97.1994 136.509 93.7441 142.526 93.7441 149.034Z" fill="black"/>
<path d="M219.434 219.769L206.849 254.293C206.509 255.253 206.509 256.299 206.849 257.259L228.499 316.663L253.539 302.197L223.486 219.769C222.804 217.87 220.116 217.87 219.434 219.769Z" fill="white"/>
<path d="M244.667 161.708C243.984 159.809 241.296 159.809 240.614 161.708L228.03 196.232C227.688 197.193 227.688 198.238 228.03 199.199L263.499 296.456L288.539 281.989L244.667 161.708Z" fill="white"/>
<path d="M192.134 136.957H167.926C166.113 136.957 164.492 138.088 163.873 139.795L111.98 282.117L137.02 296.585L194.161 139.859C194.693 138.451 193.649 136.957 192.134 136.957Z" fill="white"/>
<path d="M234.495 136.957H210.286C208.473 136.957 206.853 138.088 206.233 139.795L146.982 302.302L172.022 316.77L236.521 139.859C237.033 138.451 235.987 136.957 234.495 136.957Z" fill="white"/>
</g>
<path fill-rule="evenodd" clip-rule="evenodd" d="M201.967 86.5794C201.413 86.2807 200.794 86.11 200.175 86.11C199.557 86.11 198.938 86.2807 198.384 86.6008L102.895 141.759C101.786 142.399 101.103 143.572 101.103 144.853V255.169C101.103 256.428 101.786 257.622 102.895 258.263L142.757 281.271L137.14 296.643L94.8539 272.217C88.7539 268.697 85 262.189 85 255.147V144.853C85 137.811 88.7539 131.303 94.8539 127.782L190.322 72.6459C193.372 70.8748 196.784 70 200.175 70C203.567 70 206.979 70.8748 210.029 72.6459L305.539 127.782C311.64 131.303 315.393 137.811 315.393 144.853V255.147C315.393 262.189 311.64 268.697 305.539 272.217L210.051 327.375C207 329.147 203.589 330.022 200.197 330.022C196.784 330.022 193.393 329.125 190.343 327.375L147.011 302.345L152.503 286.896L198.384 313.378C198.938 313.677 199.557 313.847 200.175 313.847C200.794 313.847 201.434 313.698 201.967 313.378L297.456 258.219C298.565 257.58 299.248 256.406 299.248 255.126V144.831C299.248 143.572 298.565 142.378 297.456 141.737L201.967 86.5794Z" fill="white"/>
</g>
<defs>
<clipPath id="clip0_222_599">
<rect width="400" height="400" fill="white"/>
</clipPath>
</defs>
</svg>
