<svg width="400" height="400" viewBox="0 0 400 400" fill="none" xmlns="http://www.w3.org/2000/svg">
<g clip-path="url(#clip0_222_557)">
<path d="M200 400C310.457 400 400 310.457 400 200C400 89.543 310.457 0 200 0C89.543 0 0 89.543 0 200C0 310.457 89.543 400 200 400Z" fill="black"/>
<path fill-rule="evenodd" clip-rule="evenodd" d="M79.5377 127.445C78.3667 124.252 79.139 120.684 81.5557 118.264L114.218 85.5545C116.61 83.1593 120.198 82.3609 123.387 83.5335L193.047 109.157C194.766 109.781 195.887 111.428 195.887 113.249V128.518C195.887 129.666 195.439 130.789 194.617 131.587L177.675 148.553C176.479 149.751 174.685 150.15 173.091 149.551L154.38 142.64L133.826 135.055C132.082 134.407 130.388 136.103 131.035 137.85L145.511 177.171C146.109 178.768 145.71 180.564 144.514 181.762L129.441 196.856C127.747 198.553 127.747 201.322 129.441 203.019L144.589 218.189C145.785 219.386 146.183 221.183 145.585 222.779L131.11 262.1C130.463 263.847 132.157 265.544 133.901 264.895L173.166 250.399C174.76 249.8 176.554 250.199 177.75 251.397L194.617 268.288C195.439 269.111 195.887 270.209 195.887 271.357V286.626C195.887 288.448 194.766 290.069 193.047 290.718L123.487 316.417C120.297 317.589 116.735 316.816 114.318 314.396L81.6553 281.686C79.2635 279.291 78.4663 275.698 79.6373 272.505L105.224 203.069C105.947 201.123 105.947 198.977 105.224 197.031L79.5626 127.371L79.5377 127.445ZM319.462 272.555C320.633 275.748 319.861 279.316 317.444 281.736L284.782 314.446C282.39 316.841 278.802 317.639 275.613 316.466L205.953 290.843C204.234 290.219 203.113 288.572 203.113 286.751V271.482C203.113 270.334 203.561 269.211 204.383 268.413L221.325 251.447C222.521 250.249 224.315 249.85 225.909 250.449L244.62 257.36L265.174 264.945C266.918 265.593 268.612 263.897 267.965 262.15L253.489 222.829C252.891 221.232 253.29 219.436 254.486 218.238L269.559 203.144C271.253 201.447 271.253 198.678 269.559 196.981L254.411 181.811C253.215 180.614 252.817 178.817 253.414 177.221L267.89 137.9C268.537 136.153 266.843 134.456 265.099 135.105L225.834 149.601C224.24 150.2 222.446 149.801 221.25 148.603L204.383 131.712C203.561 130.889 203.113 129.791 203.113 128.643V113.374C203.113 111.552 204.259 109.931 205.953 109.282L275.513 83.5834C278.703 82.4108 282.265 83.1842 284.682 85.6044L317.345 118.314C319.736 120.709 320.534 124.302 319.363 127.495L293.776 196.931C293.053 198.877 293.053 201.023 293.776 202.969L319.437 272.629L319.462 272.555Z" fill="white"/>
</g>
<defs>
<clipPath id="clip0_222_557">
<rect width="400" height="400" fill="white"/>
</clipPath>
</defs>
</svg>
