<svg width="400" height="400" viewBox="0 0 400 400" fill="none" xmlns="http://www.w3.org/2000/svg">
<g clip-path="url(#clip0_222_574)">
<path d="M200 400C310.457 400 400 310.457 400 200C400 89.543 310.457 0 200 0C89.543 0 0 89.543 0 200C0 310.457 89.543 400 200 400Z" fill="black"/>
<path d="M152.902 259.589C150.562 259.589 148.212 259.609 145.872 259.579C145.042 259.569 144.442 259.779 143.832 260.429C140.262 264.279 135.802 266.289 130.562 266.459C126.972 266.569 123.382 266.749 119.812 266.179C115.602 265.519 112.002 263.669 109.082 260.579C108.362 259.819 107.642 259.549 106.632 259.549C102.522 259.579 98.4023 259.639 94.2923 259.519C88.0723 259.339 81.9623 258.439 76.1223 256.179C63.0323 251.109 55.2923 241.719 53.4223 227.749C52.3923 220.109 53.1323 212.679 56.9123 205.769C58.6223 202.649 60.8423 199.889 63.0123 197.089C65.1823 194.279 67.2023 191.409 68.2323 187.919C68.9023 185.629 68.9023 183.759 67.4623 181.559C63.8023 175.939 61.3823 169.749 60.1723 163.109C57.9623 151.059 63.4723 140.049 74.4623 135.069C80.7323 132.219 87.0423 132.859 93.2723 135.339C98.3123 137.349 102.742 140.349 106.722 143.999C107.482 144.699 108.132 144.829 109.082 144.569C117.222 142.399 125.502 141.969 133.852 142.759C137.262 143.089 140.682 143.529 143.962 144.599C144.822 144.879 145.372 144.689 146.032 144.089C150.822 139.739 156.152 136.279 162.392 134.339C178.512 129.309 191.642 142.109 192.952 154.239C193.552 159.819 192.612 165.119 190.852 170.339C189.272 174.999 187.042 179.339 184.352 183.449C183.942 184.069 183.912 184.589 184.032 185.319C184.722 189.689 186.872 193.309 189.542 196.709C191.312 198.959 193.072 201.219 194.632 203.619C198.082 208.929 199.632 214.769 199.762 221.049C199.892 227.389 198.852 233.479 196.032 239.209C192.422 246.579 186.722 251.759 179.322 255.159C172.832 258.139 165.932 259.289 158.862 259.559C156.882 259.639 154.902 259.569 152.922 259.569V259.589H152.902Z" fill="white"/>
<path d="M326.433 133.009C327.943 133.009 329.453 133.009 330.963 133.009C331.853 133.009 332.303 133.429 332.283 134.349C332.263 135.389 332.303 136.429 332.283 137.469C332.283 138.099 332.493 138.559 333.073 138.859C340.603 142.859 344.103 149.629 345.753 157.579C347.423 165.619 346.593 173.429 342.883 180.819C340.713 185.139 337.763 188.789 333.303 190.969C332.533 191.349 332.283 191.879 332.283 192.699C332.303 197.489 332.303 202.279 332.283 207.069C332.283 207.799 332.463 208.359 333.163 208.739C340.473 212.619 343.963 219.219 345.663 226.899C347.533 235.359 346.573 243.569 342.543 251.299C340.483 255.249 337.633 258.539 333.583 260.609C332.613 261.109 332.163 261.729 332.273 262.809C332.333 263.479 332.293 264.159 332.273 264.839C332.253 266.619 332.133 266.769 330.283 266.789C327.623 266.819 324.973 266.799 322.313 266.799C322.213 266.799 322.103 266.799 322.003 266.799C320.703 266.709 320.573 266.589 320.543 265.329C320.513 264.289 320.513 263.249 320.543 262.209C320.553 261.619 320.333 261.229 319.803 260.959C312.563 257.299 309.053 250.879 307.213 243.409C305.223 235.319 305.953 227.379 309.423 219.779C311.573 215.069 314.793 211.239 319.483 208.829C320.323 208.399 320.563 207.869 320.553 206.999C320.523 202.309 320.533 197.629 320.553 192.939C320.553 192.109 320.453 191.439 319.583 191.019C314.413 188.459 311.103 184.169 309.003 178.979C304.783 168.559 305.143 158.249 310.343 148.229C312.423 144.209 315.433 140.999 319.553 138.979C320.253 138.639 320.593 138.209 320.553 137.419C320.503 136.589 320.543 135.749 320.553 134.919C320.573 133.079 320.613 133.029 322.513 133.009C323.813 132.989 325.113 133.009 326.423 133.009H326.433ZM332.463 219.549C332.333 221.649 331.853 223.359 330.593 224.689C328.903 226.459 326.793 227.069 324.463 226.189C322.033 225.279 320.853 223.359 320.553 220.829C320.503 220.449 320.763 219.899 320.243 219.729C319.783 219.579 319.513 220.059 319.233 220.329C317.143 222.349 316.113 224.869 316.073 227.739C316.013 232.269 316.073 236.799 316.043 241.329C316.043 242.379 316.113 243.419 316.373 244.419C316.993 246.789 318.163 248.799 320.543 250.259C320.543 248.929 320.473 247.799 320.553 246.679C320.713 244.449 321.773 242.679 323.763 241.649C325.703 240.639 327.703 240.739 329.543 241.979C331.473 243.279 332.163 245.249 332.283 247.489C332.323 248.279 332.093 249.129 332.593 250.019C334.903 248.309 336.103 246.109 336.473 243.419C337.063 239.059 336.633 234.679 336.763 230.319C336.813 228.859 336.733 227.409 336.473 225.969C336.003 223.369 334.823 221.209 332.453 219.559L332.463 219.549ZM320.403 149.639C317.793 151.229 316.063 154.419 316.043 157.619C316.023 162.509 316.013 167.409 316.063 172.299C316.093 174.829 316.993 177.079 318.723 178.959C319.133 179.409 319.553 180.189 320.143 180.029C320.873 179.829 320.373 178.949 320.523 178.389C320.583 178.139 320.543 177.869 320.563 177.609C320.733 175.179 322.573 172.929 324.823 172.399C327.463 171.779 329.933 172.799 331.273 175.059C331.953 176.209 332.213 177.469 332.293 178.779C332.323 179.209 332.133 179.699 332.593 180.139C334.863 178.439 336.293 176.209 336.433 173.439C336.713 167.769 336.673 162.099 336.433 156.429C336.333 153.989 335.093 151.979 333.293 150.339C333.103 150.169 332.893 149.939 332.623 150.009C332.233 150.119 332.283 150.489 332.293 150.789C332.313 151.629 332.173 152.449 331.953 153.249C331.183 156.129 328.593 158.019 325.813 157.739C322.853 157.439 320.643 154.989 320.543 151.919C320.523 151.199 320.653 150.469 320.403 149.639Z" fill="white"/>
<path d="M253.622 146.179C253.942 145.379 253.852 144.479 253.982 143.629C254.402 140.719 256.532 138.599 259.332 138.379C262.002 138.169 264.442 139.959 265.252 142.749C265.482 143.549 265.602 144.369 265.632 145.209C265.642 145.549 265.522 146.009 266.002 146.129C266.332 146.219 266.572 145.929 266.792 145.719C268.622 143.969 269.792 141.849 269.952 139.299C270.052 137.739 269.972 136.179 270.012 134.619C270.042 133.319 270.212 133.099 271.422 133.079C273.762 133.029 276.112 133.029 278.452 133.069C279.612 133.089 279.842 133.349 279.712 134.509C278.982 141.049 277.012 147.099 272.682 152.209C271.042 154.139 269.142 155.739 266.902 156.899C266.002 157.369 265.622 157.939 265.632 158.959C265.672 163.389 265.652 167.809 265.632 172.239C265.632 172.949 265.732 173.529 266.482 173.899C271.702 176.499 275.002 180.849 277.102 186.099C281.052 195.959 280.852 205.809 276.292 215.459C274.202 219.889 271.122 223.509 266.692 225.789C265.862 226.219 265.622 226.779 265.622 227.639C265.642 232.069 265.632 236.489 265.622 240.919C265.622 241.759 265.832 242.339 266.672 242.779C271.872 245.489 275.072 249.949 277.292 255.219C278.632 258.409 279.302 261.769 279.712 265.189C279.862 266.409 279.652 266.679 278.382 266.709C276.042 266.759 273.692 266.719 271.352 266.739C270.442 266.739 270.022 266.329 270.022 265.419C270.022 263.959 270.002 262.499 269.992 261.049C269.962 258.409 268.872 256.229 267.102 254.349C266.802 254.029 266.462 253.519 265.952 253.699C265.492 253.869 265.692 254.419 265.632 254.819C265.532 255.439 265.492 256.059 265.372 256.669C264.802 259.459 262.512 261.389 259.762 261.429C257.092 261.459 254.692 259.479 254.102 256.719C253.962 256.059 253.942 255.379 253.842 254.709C253.792 254.319 253.982 253.789 253.452 253.639C253.062 253.529 252.802 253.899 252.542 254.149C250.702 255.979 249.552 258.139 249.442 260.759C249.382 262.269 249.372 263.779 249.412 265.289C249.442 266.309 248.992 266.689 248.012 266.679C245.562 266.639 243.122 266.629 240.672 266.619C240.042 266.619 239.652 266.409 239.732 265.719C240.602 257.369 243.282 249.909 250.102 244.469C250.962 243.789 251.882 243.179 252.882 242.749C253.562 242.459 253.802 241.989 253.802 241.289C253.802 236.599 253.802 231.919 253.802 227.229C253.802 226.589 253.582 226.179 252.982 225.879C246.982 222.839 243.552 217.669 241.512 211.509C238.702 203.059 238.932 194.599 242.242 186.319C244.372 180.999 247.702 176.639 252.912 173.949C253.562 173.609 253.812 173.159 253.812 172.469C253.812 167.839 253.812 163.199 253.812 158.569C253.812 157.889 253.582 157.419 252.932 157.079C246.282 153.579 242.892 147.669 240.902 140.729C240.322 138.719 240.012 136.669 239.772 134.599C239.632 133.399 239.792 133.169 240.962 133.149C243.352 133.109 245.752 133.149 248.142 133.129C249.072 133.129 249.432 133.569 249.422 134.479C249.402 136.039 249.362 137.609 249.452 139.159C249.612 141.829 250.762 144.049 252.732 145.839C252.882 145.979 253.072 146.079 253.252 146.169C253.332 146.209 253.452 146.169 253.632 146.169L253.622 146.179ZM253.692 184.419C251.062 186.379 249.552 188.709 249.472 191.659C249.322 197.119 249.352 202.589 249.462 208.059C249.512 210.609 250.752 212.739 252.592 214.489C252.842 214.729 253.112 215.109 253.512 214.919C253.892 214.739 253.772 214.289 253.822 213.939C253.902 213.319 253.942 212.699 254.052 212.079C254.562 209.199 256.852 207.209 259.682 207.169C262.422 207.129 264.852 209.179 265.382 212.009C265.512 212.719 265.532 213.459 265.632 214.179C265.762 215.089 265.992 215.189 266.692 214.569C268.602 212.869 269.862 210.719 269.932 208.199C270.082 202.679 270.102 197.159 269.932 191.649C269.832 188.679 268.332 186.269 265.662 184.429C265.592 185.619 265.602 186.609 265.412 187.579C264.822 190.649 262.512 192.639 259.542 192.559C256.672 192.489 254.462 190.439 254.012 187.389C253.882 186.519 253.832 185.639 253.712 184.419H253.692Z" fill="white"/>
</g>
<defs>
<clipPath id="clip0_222_574">
<rect width="400" height="400" fill="white"/>
</clipPath>
</defs>
</svg>
