<svg width="400" height="400" viewBox="0 0 400 400" fill="none" xmlns="http://www.w3.org/2000/svg">
<path d="M200 400C310.457 400 400 310.457 400 200C400 89.5431 310.457 0 200 0C89.5431 0 0 89.5431 0 200C0 310.457 89.5431 400 200 400Z" fill="black"/>
<path d="M195.483 164.798L224.505 174.387C231.537 176.731 235.372 184.317 233.028 191.348C230.684 198.38 223.099 202.216 216.067 199.872L187.045 190.283C180.013 187.939 176.178 180.353 178.522 173.321C180.866 166.29 188.451 162.454 195.483 164.798Z" fill="white"/>
<path d="M183.977 199.446L212.999 209.034C220.031 211.378 223.866 218.964 221.523 225.996C219.179 233.027 211.593 236.863 204.561 234.519L175.539 224.93C168.507 222.586 164.672 215.001 167.016 207.969C169.36 200.937 176.946 197.102 183.977 199.446Z" fill="white"/>
<path d="M210.186 131.173L232.688 138.631C239.72 140.975 243.555 148.561 241.211 155.592C238.867 162.624 231.282 166.46 224.25 164.116L201.748 156.658C194.716 154.314 190.881 146.728 193.225 139.696C195.569 132.665 203.155 128.829 210.186 131.173Z" fill="white"/>
<path d="M228.17 98.6565L237.673 101.81C244.705 104.154 248.54 111.74 246.197 118.772C243.853 125.803 236.267 129.639 229.235 127.295L219.732 124.141C212.7 121.797 208.864 114.212 211.208 107.18C213.552 100.148 221.138 96.3126 228.17 98.6565Z" fill="white"/>
<path d="M239.08 65.5432L248.583 68.6968C255.615 71.0407 259.451 78.6265 257.107 85.6583C254.763 92.69 247.177 96.5255 240.145 94.1816L230.642 91.0279C223.61 88.684 219.774 81.0983 222.118 74.0665C224.462 67.0348 232.048 63.1993 239.08 65.5432Z" fill="white"/>
<path d="M252.673 183.548L239.931 179.329C239.462 179.158 238.951 179.031 238.482 178.945C244.619 181.758 244.533 187.724 242.36 194.287C240.186 200.85 236.692 205.666 230.129 204.302C230.598 204.515 231.066 204.686 231.535 204.856L244.278 209.075C251.309 211.419 258.938 207.584 261.239 200.552C263.583 193.52 259.747 185.892 252.716 183.591L252.673 183.548Z" fill="white"/>
<path d="M243.256 220.71L230.514 216.491C230.045 216.321 229.534 216.193 229.065 216.107C235.202 218.92 235.116 224.886 232.943 231.449C230.769 238.012 227.275 242.828 220.712 241.464C221.181 241.677 221.649 241.848 222.118 242.018L234.861 246.237C241.892 248.581 249.521 244.746 251.822 237.714C254.166 230.682 250.33 223.054 243.299 220.753L243.256 220.71Z" fill="white"/>
<path d="M261.325 147.921L248.583 143.702C248.114 143.531 247.603 143.404 247.134 143.318C253.271 146.131 253.186 152.097 251.012 158.66C248.839 165.223 245.344 170.039 238.781 168.675C239.25 168.888 239.719 169.059 240.188 169.229L252.93 173.448C259.962 175.792 267.59 171.957 269.891 164.925C272.235 157.893 268.4 150.265 261.368 147.964L261.325 147.921Z" fill="white"/>
<path d="M264.693 110.589L251.95 106.37C251.481 106.199 250.97 106.072 250.501 105.986C256.638 108.799 256.553 114.765 254.379 121.328C252.206 127.891 248.711 132.707 242.148 131.343C242.617 131.556 243.086 131.727 243.555 131.897L256.297 136.116C263.329 138.46 270.957 134.625 273.259 127.593C275.603 120.561 271.767 112.933 264.735 110.632L264.693 110.589Z" fill="white"/>
<path d="M193.437 115.32L206.18 119.539C206.648 119.709 207.16 119.837 207.629 119.922C201.492 117.109 201.577 111.143 203.75 104.58C205.924 98.0172 209.419 93.2015 215.981 94.5653C215.513 94.3522 215.044 94.1817 214.575 94.0113L201.833 89.7922C194.801 87.4483 187.173 91.2838 184.871 98.3155C182.527 105.347 186.363 112.976 193.395 115.277L193.437 115.32Z" fill="white"/>
<path d="M174.899 147.708L187.642 151.927C188.11 152.098 188.622 152.226 189.091 152.311C182.954 149.498 183.039 143.532 185.212 136.969C187.386 130.406 190.88 125.59 197.443 126.954C196.975 126.741 196.506 126.57 196.037 126.4L183.295 122.181C176.263 119.837 168.635 123.672 166.333 130.704C163.989 137.736 167.825 145.364 174.857 147.666L174.899 147.708Z" fill="white"/>
<path d="M159.046 180.949L171.788 185.169C172.257 185.339 172.768 185.467 173.237 185.552C167.1 182.739 167.185 176.773 169.359 170.21C171.532 163.647 175.027 158.831 181.59 160.195C181.121 159.982 180.652 159.812 180.184 159.641L167.441 155.422C160.409 153.078 152.781 156.914 150.48 163.945C148.136 170.977 151.971 178.606 159.003 180.907L159.046 180.949Z" fill="white"/>
<path d="M167.654 361.006C162.966 361.006 157.724 360.239 152.099 358.79C138.674 355.295 130.066 348.903 126.486 339.868C123.332 331.941 125.037 324.27 126.912 319.455C110.079 296.996 101.939 280.546 100.618 266.567C99.2541 252.035 105.433 242.574 111.442 233.412C114.511 228.766 117.664 223.951 119.923 218.24C124.952 205.583 119.113 179.203 116.684 174.984C117.068 175.623 109.226 162.157 112.124 162.37H122.778C141.53 163.648 156.147 171.021 166.205 184.36C180.439 203.239 182.101 229.917 181.078 248.626C185.212 245.685 189.9 242.787 194.971 240.06C210.398 231.75 225.783 226.465 237.247 226.977C248.711 227.488 241.892 227.19 243.98 227.573C254.592 229.576 259.748 235.116 262.263 239.378C268.101 249.478 264.394 261.07 263.925 262.348L260.132 273.301L251.651 265.63C250.628 264.778 247.091 262.391 243.98 262.391C238.994 262.391 234.732 270.062 232.261 283.401C228.169 305.562 217.558 317.494 209.376 323.589C205.242 326.657 201.321 328.617 198.167 329.853C198.167 336.203 196.718 344.812 190.795 351.63C187.044 355.892 180.055 361.006 167.782 361.006H167.654Z" fill="black"/>
<path d="M135.777 318.517C135.777 318.517 120.69 342.638 153.974 351.374C187.258 360.111 191.86 337.907 189.985 324.27C189.985 324.27 217.515 320.264 224.547 282.08C232.516 238.909 256.51 259.919 256.51 259.919C256.51 259.919 263.328 241.253 241.977 237.716C220.626 234.178 177.456 260.899 169.018 275.559C169.018 275.559 184.147 178.99 122.097 170.083C124.995 170.339 133.646 204.176 126.912 221.095C115.448 249.947 86.4691 254.464 135.734 318.559H135.777V318.517Z" fill="white"/>
<path d="M162.711 318.986C162.711 318.986 179.545 327.85 214.362 321.5C249.18 315.15 254.635 323.759 254.635 323.759L214.362 330.322C214.362 330.322 175.709 338.334 162.711 318.943V318.986Z" fill="black"/>
<path d="M181.59 237.758L192.585 241.38L180.312 250.202L181.59 237.758Z" fill="white"/>
</svg>
