<svg width="400" height="400" viewBox="0 0 400 400" fill="none" xmlns="http://www.w3.org/2000/svg">
<g clip-path="url(#clip0_222_594)">
<path d="M200 400C310.457 400 400 310.457 400 200C400 89.543 310.457 0 200 0C89.543 0 0 89.543 0 200C0 310.457 89.543 400 200 400Z" fill="black"/>
<path d="M222.29 110.821L200.066 89L177.711 110.952L199.967 132.773L222.323 110.821H222.29ZM304.967 134.671L282.875 112.49L220.537 172.26C209.194 183.122 190.773 183.122 179.463 172.26L117.092 112.457L95 134.671V310.351H126.484V164.834L157.339 194.409C169.079 205.695 184.556 211.322 200 211.322C215.445 211.322 230.888 205.695 242.661 194.409L272.922 165.39V310.318H305V134.671H304.967Z" fill="white"/>
</g>
<defs>
<clipPath id="clip0_222_594">
<rect width="400" height="400" fill="white"/>
</clipPath>
</defs>
</svg>
