<svg width="400" height="400" viewBox="0 0 400 400" fill="none" xmlns="http://www.w3.org/2000/svg">
<g clip-path="url(#clip0_222_522)">
<circle cx="200" cy="200" r="200" fill="black"/>
<path d="M295.666 197.162C293.391 197.162 291.322 196.748 289.253 196.128H289.046C288.839 196.128 288.632 195.921 288.219 195.921C287.598 195.714 286.977 195.3 286.15 194.887L285.943 194.68C283.254 193.232 280.771 191.163 278.909 188.68C273.117 181.026 273.117 170.475 278.909 163.028C281.185 159.925 284.495 157.649 288.012 156.201L288.426 155.994C289.46 155.58 290.287 155.374 290.908 155.167L291.529 154.96C292.977 154.753 294.425 154.546 295.873 154.546C304.562 154.546 311.802 151.857 316.767 146.892C321.319 142.134 323.801 135.721 323.801 128.273V102H270.841V119.584C270.841 122.894 270.841 126.411 270.841 129.721C270.841 136.548 266.911 146.064 259.67 148.34C255.119 149.788 249.326 147.512 244.568 148.133C240.638 148.547 236.707 149.995 233.397 152.064C226.57 156.408 222.019 163.649 220.985 171.717C220.571 174.82 220.778 177.095 220.985 178.75C221.191 180.612 221.191 181.233 220.571 183.095C219.33 186.818 216.433 190.128 212.71 192.611C208.986 195.093 204.641 196.542 200.711 196.542H200.297H199.883C195.746 196.542 191.608 195.093 187.885 192.611C184.161 190.128 181.472 186.612 180.023 183.095C179.403 181.233 179.403 180.612 179.61 178.75C179.817 177.095 180.023 174.82 179.61 171.717C178.782 163.649 174.024 156.408 167.197 152.064C163.887 149.995 159.957 148.547 156.026 148.133C151.268 147.512 145.475 149.788 140.924 148.34C133.684 145.857 129.753 136.548 129.753 129.721C129.753 126.411 129.753 122.894 129.753 119.584V102H77.2069V128.687C77.2069 136.134 79.4825 142.547 84.2406 147.305C89.2056 152.27 96.4462 154.96 105.135 154.96C106.583 154.96 108.031 155.167 109.479 155.374L110.1 155.58C110.721 155.58 111.548 155.994 112.582 156.408L112.996 156.615C116.513 158.063 119.616 160.339 122.099 163.442C127.891 170.889 127.891 181.44 122.099 189.094C120.237 191.577 117.754 193.645 115.065 195.093H114.444C113.617 195.507 112.996 195.714 112.376 196.128C112.169 196.128 111.755 196.335 111.548 196.335H111.341C109.272 196.955 106.997 197.369 104.928 197.369C88.1712 197.162 77 207.506 77 222.815C77 234.813 82.3787 241.02 86.93 244.123C92.5156 247.846 99.3424 248.881 105.756 249.501H106.169C107.824 249.708 109.272 250.122 110.927 250.743L111.755 250.949H111.962C116.306 252.398 120.03 255.501 122.099 259.431C123.34 261.707 124.167 264.603 124.581 267.706C124.788 268.948 124.788 270.189 124.788 271.223C124.788 272.051 124.995 273.085 124.995 274.119V297.082H177.334V270.396C177.334 263.362 174.645 256.742 169.68 251.777C169.473 251.57 169.266 251.363 169.059 251.156C168.645 250.743 168.232 250.536 168.025 250.329L167.818 250.122C162.232 245.157 154.785 245.157 149.406 244.95C148.579 244.95 147.751 244.95 146.924 244.95L146.51 244.743L144.855 244.33L143.2 243.916L141.338 243.295C139.476 242.468 137.821 241.433 136.166 239.985L135.752 239.778C130.787 235.434 128.512 230.055 128.305 223.435C128.305 218.677 129.753 214.126 132.649 210.402C135.545 206.678 139.476 203.989 143.82 202.748C148.372 201.507 156.647 201.3 160.577 202.748C167.818 205.023 173.197 211.85 173.61 219.505C173.61 220.125 173.61 220.746 173.61 221.573C173.61 223.849 173.403 226.952 174.645 230.883C178.368 241.64 188.505 249.088 199.883 249.088C211.468 249.088 221.605 241.64 225.122 230.883C226.363 226.952 226.363 223.849 226.156 221.573C226.156 220.746 226.156 220.125 226.156 219.505C226.57 211.85 231.742 205.023 239.189 202.748C243.12 201.507 251.602 201.507 255.946 202.748C260.291 203.989 264.428 206.885 267.117 210.402C270.014 214.126 271.462 218.677 271.462 223.435C271.462 230.055 268.979 235.434 264.014 239.778L263.601 239.985C262.152 241.226 260.291 242.468 258.429 243.295L256.567 243.916L254.912 244.33L254.291 244.743L253.464 244.95C252.636 244.95 251.809 244.95 250.981 244.95C245.603 244.95 238.155 245.157 232.569 250.122L232.156 250.329C231.949 250.536 231.535 250.949 231.121 251.156C230.914 251.363 230.708 251.57 230.501 251.777C225.536 256.742 222.846 263.569 222.846 270.396V297.496H275.186V274.533C275.186 273.499 275.392 272.464 275.392 271.637C275.392 270.396 275.599 269.361 275.599 268.12C276.013 265.017 276.841 262.121 278.082 259.845C280.357 255.914 284.081 252.811 288.219 251.363H288.426L289.253 251.156C290.908 250.536 292.356 250.122 294.011 249.915H294.425C300.838 249.294 307.665 248.26 313.25 244.536C317.802 241.433 323.18 235.227 323.18 223.228C323.594 207.506 312.423 197.162 295.666 197.162Z" fill="white"/>
</g>
<defs>
<clipPath id="clip0_222_522">
<rect width="400" height="400" fill="white"/>
</clipPath>
</defs>
</svg>
