<svg width="400" height="400" viewBox="0 0 400 400" fill="none" xmlns="http://www.w3.org/2000/svg">
<g clip-path="url(#clip0_795_180)">
<path d="M200 400C310.457 400 400 310.457 400 200C400 89.543 310.457 0 200 0C89.543 0 0 89.543 0 200C0 310.457 89.543 400 200 400Z" fill="black"/>
<path d="M275.678 298.51L229.365 238.124C221.479 244.163 211.411 247.753 200.672 247.753C174.664 247.753 153.52 226.699 153.52 200.586C153.52 189.813 157.212 179.859 163.253 171.861L102.006 124.857V298.51H275.678Z" fill="white"/>
<path d="M298.506 102.006H124.834L171.817 163.209C179.704 157.006 189.772 153.417 200.511 153.417C226.52 153.417 247.663 174.47 247.663 200.584C247.663 211.355 243.971 221.31 237.931 229.308L298.338 275.66V102.006H298.506Z" fill="white"/>
</g>
<defs>
<clipPath id="clip0_795_180">
<rect width="400" height="400" fill="white"/>
</clipPath>
</defs>
</svg>
