<svg width="400" height="400" viewBox="0 0 400 400" fill="none" xmlns="http://www.w3.org/2000/svg">
<g clip-path="url(#clip0_0_8825)">
<path fill-rule="evenodd" clip-rule="evenodd" d="M198.991 400C258.257 400 311.502 374.226 348.128 333.271C331.09 318.464 305.416 317.564 287.278 332.201L283.813 334.995C250.604 361.79 202.214 357.833 173.8 325.999C158.302 308.635 131.762 306.864 114.093 322.011L74.1421 356.26C108.359 383.632 151.764 400 198.991 400ZM263.839 303.154C295.471 277.631 339.93 278.546 370.353 303.197C388.538 273.069 399 237.756 399 200C399 158.047 386.083 119.111 364.006 86.9523C349.775 83.9215 334.35 87.4612 322.639 97.8369L319.308 100.79C287.37 129.09 238.85 127.37 208.997 96.8805C192.715 80.2517 166.121 79.7055 149.17 95.6524L102.679 139.389L77.1036 112.205L123.595 68.4686C155.348 38.5964 205.166 39.6194 235.666 70.7697C251.603 87.0464 277.505 87.9645 294.554 72.8568L297.886 69.9037C308.236 60.7333 320.209 54.5508 332.747 51.2994C297.311 19.4083 250.418 0 198.991 0C97.4593 0 13.5976 75.6513 0.702395 173.658C31.5417 158.86 69.5817 164.555 94.7269 190.303C110.601 206.558 136.161 208.274 154.065 194.287L180.059 173.98C212.727 148.459 258.908 149.694 290.164 176.926L340.772 221.015L316.255 249.156L265.647 205.066C247.873 189.582 221.614 188.879 203.037 203.391L177.044 223.698C144.148 249.396 97.1878 246.244 68.0229 216.379C51.0637 199.012 23.3266 198.407 5.62505 215.016L0 220.294C4.20964 262.067 21.2741 300.045 47.1775 330.215L89.7995 293.676C122.898 265.301 172.616 268.622 201.646 301.147C216.815 318.14 242.646 320.253 260.375 305.95L263.839 303.154Z" fill="black"/>
</g>
<defs>
<clipPath id="clip0_0_8825">
<rect width="400" height="400" fill="white"/>
</clipPath>
</defs>
</svg>
