<svg width="400" height="400" viewBox="0 0 400 400" fill="none" xmlns="http://www.w3.org/2000/svg">
<path d="M200 400C310.457 400 400 310.457 400 200C400 89.5431 310.457 0 200 0C89.5431 0 0 89.5431 0 200C0 310.457 89.5431 400 200 400Z" fill="black"/>
<path d="M176.911 216.08C159.566 195.599 152.156 177.354 152.156 159.296C152.156 148.624 153.27 141.935 154.737 135.772C146.251 153.998 143.316 167.639 143.316 180.491C143.316 248.568 205.008 257.343 205.008 305.52C205.008 317.151 198.916 332.954 178.322 362.567C240.366 278.782 256.151 248.643 256.151 227.73C256.151 169.218 194.701 159.39 194.701 93.5877C194.701 78.5749 203.188 60.4984 219.066 36.8984C219.066 36.8984 203.968 58.3754 195.815 69.8562C166.79 110.743 155.554 163.825 176.873 216.118L176.911 216.08Z" fill="white"/>
</svg>
