<svg xmlns="http://www.w3.org/2000/svg" fill="none" class="h-12 py-1" viewBox="0 0 656 182">
  <path fill="#000"
    d="M484.2 141.2c-7.2 0-13.1-1.3-17.6-5.2a20 20 0 0 1-6.3-15.7v-60c0-6.5 1.9-11.9 6.3-15.7 4.5-3.9 10.4-5.3 17.6-5.3h39c7.3 0 13.1 1.4 17.6 5.3 4.4 3.8 6.2 9.2 6.2 15.6v60.1a20 20 0 0 1-6.2 15.7c-4.5 3.9-10.3 5.2-17.6 5.2h-39Zm30.2-19.6c2.5 0 4.8 0 6.2-1.3 1.5-1.2 2.6-3 2.6-5.2V65.5c0-2.3-1-4-2.6-5.3-1.4-1.2-3.7-1.3-6.2-1.3H493c-2.7 0-5 .1-6.3 1.3a6.9 6.9 0 0 0-2.5 5.3V115c0 2.3 1 4 2.5 5.2 1.4 1.3 3.6 1.3 6.3 1.3h21.4ZM438 140.2h-24V40.4h24v99.8Zm-109.2 0H305V40.4h25.2l37.7 61v-61h23.9v99.8h-25.2l-37.7-61v61Zm264.1-.3H569V40h25.1l37.8 61V40h23.9v99.9h-25.2l-37.7-61v61ZM221 141.2c-7.3 0-13.2-1.3-17.7-5.2-4.4-4-6.3-9.4-6.3-15.7v-80h24V115c0 2.3 1 4 2.5 5.3 1.4 1.2 3.6 1.3 6.3 1.3h20.1c2.7 0 5 0 6.3-1.3 1.4-1.3 2.6-3 2.6-5.3V40.4h24v79.9c0 6.3-2 11.7-6.4 15.7-4.4 3.9-10.3 5.2-17.6 5.2h-37.9Z" />
  <path fill="#000" fill-rule="evenodd"
    d="M121 121a60.5 60.5 0 0 1-121 0h29.6a30.8 30.8 0 0 0 31 30.3 30.8 30.8 0 0 0 30.8-30.2h29.7Z"
    clip-rule="evenodd" />
  <path fill="#000"
    d="M137 105.2h29.7V75.4H137v29.8Zm-16-29.8H91.4v29.8H121V75.4Zm-75.4 29.8h29.8V75.4H45.6v29.8ZM29.8 75.4H0v29.8h29.8V75.4Z" />
  <path fill="#000" fill-rule="evenodd"
    d="M45.6 60.5a60.5 60.5 0 0 1 121.1 0h-29.6a30.8 30.8 0 0 0-31-30.2 30.8 30.8 0 0 0-30.8 30.2H45.6Z"
    clip-rule="evenodd" />
</svg>
