<svg width="1200" height="300" viewBox="0 0 1200 300" fill="none" xmlns="http://www.w3.org/2000/svg">
<g clip-path="url(#clip0_945_3295)">
<path d="M2.18557e-06 -2.18557e-06L25 0C25 13.8071 13.8071 25 0 25L2.18557e-06 -2.18557e-06Z" fill="#EE6700"/>
<path d="M50 50H25C25 36.1929 36.1929 25 50 25V50Z" fill="#EE6700"/>
<path d="M100 100H75C75 86.1929 86.1929 75 100 75V100Z" fill="#EE6700"/>
<path d="M75 25L100 25C100 11.1929 88.8071 0 75 0V25Z" fill="#EE6700"/>
<path d="M25 75L25 100C11.1929 100 1.33474e-07 88.8071 2.98122e-07 75L25 75Z" fill="#EE6700"/>
<path d="M50 50L75 50C75 63.8071 63.8071 75 50 75L50 50Z" fill="#EE6700"/>
</g>
<g clip-path="url(#clip1_945_3295)">
<path d="M100 100L100 125C86.1929 125 75 113.807 75 100L100 100Z" fill="#EE6700"/>
<path d="M50 150L50 125C63.8071 125 75 136.193 75 150L50 150Z" fill="#EE6700"/>
<path d="M-1.09278e-06 200L0 175C13.8071 175 25 186.193 25 200L-1.09278e-06 200Z" fill="#EE6700"/>
<path d="M75 175L75 200C88.8071 200 100 188.807 100 175L75 175Z" fill="#EE6700"/>
<path d="M25 125L-1.39091e-06 125C4.08082e-07 111.193 11.1929 100 25 100L25 125Z" fill="#EE6700"/>
<path d="M50 150L50 175C36.1929 175 25 163.807 25 150L50 150Z" fill="#EE6700"/>
</g>
<g clip-path="url(#clip2_945_3295)">
<path d="M2.18557e-06 200L25 200C25 213.807 13.8071 225 0 225L2.18557e-06 200Z" fill="#EE6700"/>
<path d="M50 250H25C25 236.193 36.1929 225 50 225V250Z" fill="#EE6700"/>
<path d="M100 300H75C75 286.193 86.1929 275 100 275V300Z" fill="#EE6700"/>
<path d="M75 225H100C100 211.193 88.8071 200 75 200V225Z" fill="#EE6700"/>
<path d="M25 275L25 300C11.1929 300 1.33474e-07 288.807 2.98122e-07 275L25 275Z" fill="#EE6700"/>
<path d="M50 250L75 250C75 263.807 63.8071 275 50 275L50 250Z" fill="#EE6700"/>
</g>
<g clip-path="url(#clip3_945_3295)">
<path d="M200 -2.18557e-06L175 0C175 13.8071 186.193 25 200 25L200 -2.18557e-06Z" fill="#EE6700"/>
<path d="M150 50H175C175 36.1929 163.807 25 150 25V50Z" fill="#EE6700"/>
<path d="M100 100H125C125 86.1929 113.807 75 100 75V100Z" fill="#EE6700"/>
<path d="M125 25L100 25C100 11.1929 111.193 0 125 0V25Z" fill="#EE6700"/>
<path d="M175 75L175 100C188.807 100 200 88.8071 200 75L175 75Z" fill="#EE6700"/>
<path d="M150 50L125 50C125 63.8071 136.193 75 150 75L150 50Z" fill="#EE6700"/>
</g>
<g clip-path="url(#clip4_945_3295)">
<path d="M100 100L100 125C113.807 125 125 113.807 125 100L100 100Z" fill="#EE6700"/>
<path d="M150 150L150 125C136.193 125 125 136.193 125 150L150 150Z" fill="#EE6700"/>
<path d="M200 200L200 175C186.193 175 175 186.193 175 200L200 200Z" fill="#EE6700"/>
<path d="M125 175L125 200C111.193 200 100 188.807 100 175L125 175Z" fill="#EE6700"/>
<path d="M175 125L200 125C200 111.193 188.807 100 175 100L175 125Z" fill="#EE6700"/>
<path d="M150 150L150 175C163.807 175 175 163.807 175 150L150 150Z" fill="#EE6700"/>
</g>
<g clip-path="url(#clip5_945_3295)">
<path d="M200 200L175 200C175 213.807 186.193 225 200 225L200 200Z" fill="#EE6700"/>
<path d="M150 250H175C175 236.193 163.807 225 150 225V250Z" fill="#EE6700"/>
<path d="M100 300H125C125 286.193 113.807 275 100 275V300Z" fill="#EE6700"/>
<path d="M125 225H100C100 211.193 111.193 200 125 200V225Z" fill="#EE6700"/>
<path d="M175 275L175 300C188.807 300 200 288.807 200 275L175 275Z" fill="#EE6700"/>
<path d="M150 250L125 250C125 263.807 136.193 275 150 275L150 250Z" fill="#EE6700"/>
</g>
<g clip-path="url(#clip6_945_3295)">
<path d="M200 -2.18557e-06L225 0C225 13.8071 213.807 25 200 25L200 -2.18557e-06Z" fill="#EE6700"/>
<path d="M250 50H225C225 36.1929 236.193 25 250 25V50Z" fill="#EE6700"/>
<path d="M300 100H275C275 86.1929 286.193 75 300 75V100Z" fill="#EE6700"/>
<path d="M275 25L300 25C300 11.1929 288.807 0 275 0V25Z" fill="#EE6700"/>
<path d="M225 75L225 100C211.193 100 200 88.8071 200 75L225 75Z" fill="#EE6700"/>
<path d="M250 50L275 50C275 63.8071 263.807 75 250 75L250 50Z" fill="#EE6700"/>
</g>
<g clip-path="url(#clip7_945_3295)">
<path d="M300 100L300 125C286.193 125 275 113.807 275 100L300 100Z" fill="#EE6700"/>
<path d="M250 150L250 125C263.807 125 275 136.193 275 150L250 150Z" fill="#EE6700"/>
<path d="M200 200L200 175C213.807 175 225 186.193 225 200L200 200Z" fill="#EE6700"/>
<path d="M275 175L275 200C288.807 200 300 188.807 300 175L275 175Z" fill="#EE6700"/>
<path d="M225 125L200 125C200 111.193 211.193 100 225 100L225 125Z" fill="#EE6700"/>
<path d="M250 150L250 175C236.193 175 225 163.807 225 150L250 150Z" fill="#EE6700"/>
</g>
<g clip-path="url(#clip8_945_3295)">
<path d="M200 200L225 200C225 213.807 213.807 225 200 225L200 200Z" fill="#EE6700"/>
<path d="M250 250H225C225 236.193 236.193 225 250 225V250Z" fill="#EE6700"/>
<path d="M300 300H275C275 286.193 286.193 275 300 275V300Z" fill="#EE6700"/>
<path d="M275 225H300C300 211.193 288.807 200 275 200V225Z" fill="#EE6700"/>
<path d="M225 275L225 300C211.193 300 200 288.807 200 275L225 275Z" fill="#EE6700"/>
<path d="M250 250L275 250C275 263.807 263.807 275 250 275L250 250Z" fill="#EE6700"/>
</g>
<g clip-path="url(#clip9_945_3295)">
<path d="M400 -2.18557e-06L375 0C375 13.8071 386.193 25 400 25L400 -2.18557e-06Z" fill="#EE6700"/>
<path d="M350 50H375C375 36.1929 363.807 25 350 25V50Z" fill="#EE6700"/>
<path d="M300 100H325C325 86.1929 313.807 75 300 75V100Z" fill="#EE6700"/>
<path d="M325 25L300 25C300 11.1929 311.193 0 325 0V25Z" fill="#EE6700"/>
<path d="M375 75L375 100C388.807 100 400 88.8071 400 75L375 75Z" fill="#EE6700"/>
<path d="M350 50L325 50C325 63.8071 336.193 75 350 75L350 50Z" fill="#EE6700"/>
</g>
<g clip-path="url(#clip10_945_3295)">
<path d="M300 100L300 125C313.807 125 325 113.807 325 100L300 100Z" fill="#EE6700"/>
<path d="M350 150L350 125C336.193 125 325 136.193 325 150L350 150Z" fill="#EE6700"/>
<path d="M400 200L400 175C386.193 175 375 186.193 375 200L400 200Z" fill="#EE6700"/>
<path d="M325 175L325 200C311.193 200 300 188.807 300 175L325 175Z" fill="#EE6700"/>
<path d="M375 125L400 125C400 111.193 388.807 100 375 100L375 125Z" fill="#EE6700"/>
<path d="M350 150L350 175C363.807 175 375 163.807 375 150L350 150Z" fill="#EE6700"/>
</g>
<g clip-path="url(#clip11_945_3295)">
<path d="M400 200L375 200C375 213.807 386.193 225 400 225L400 200Z" fill="#EE6700"/>
<path d="M350 250H375C375 236.193 363.807 225 350 225V250Z" fill="#EE6700"/>
<path d="M300 300H325C325 286.193 313.807 275 300 275V300Z" fill="#EE6700"/>
<path d="M325 225H300C300 211.193 311.193 200 325 200V225Z" fill="#EE6700"/>
<path d="M375 275L375 300C388.807 300 400 288.807 400 275L375 275Z" fill="#EE6700"/>
<path d="M350 250L325 250C325 263.807 336.193 275 350 275L350 250Z" fill="#EE6700"/>
</g>
<g clip-path="url(#clip12_945_3295)">
<path d="M400 -2.18557e-06L425 0C425 13.8071 413.807 25 400 25L400 -2.18557e-06Z" fill="#EE6700"/>
<path d="M450 50H425C425 36.1929 436.193 25 450 25V50Z" fill="#EE6700"/>
<path d="M500 100H475C475 86.1929 486.193 75 500 75V100Z" fill="#EE6700"/>
<path d="M475 25L500 25C500 11.1929 488.807 0 475 0V25Z" fill="#EE6700"/>
<path d="M425 75L425 100C411.193 100 400 88.8071 400 75L425 75Z" fill="#EE6700"/>
<path d="M450 50L475 50C475 63.8071 463.807 75 450 75L450 50Z" fill="#EE6700"/>
</g>
<g clip-path="url(#clip13_945_3295)">
<path d="M500 100L500 125C486.193 125 475 113.807 475 100L500 100Z" fill="#EE6700"/>
<path d="M450 150L450 125C463.807 125 475 136.193 475 150L450 150Z" fill="#EE6700"/>
<path d="M400 200L400 175C413.807 175 425 186.193 425 200L400 200Z" fill="#EE6700"/>
<path d="M475 175L475 200C488.807 200 500 188.807 500 175L475 175Z" fill="#EE6700"/>
<path d="M425 125L400 125C400 111.193 411.193 100 425 100L425 125Z" fill="#EE6700"/>
<path d="M450 150L450 175C436.193 175 425 163.807 425 150L450 150Z" fill="#EE6700"/>
</g>
<g clip-path="url(#clip14_945_3295)">
<path d="M400 200L425 200C425 213.807 413.807 225 400 225L400 200Z" fill="#EE6700"/>
<path d="M450 250H425C425 236.193 436.193 225 450 225V250Z" fill="#EE6700"/>
<path d="M500 300H475C475 286.193 486.193 275 500 275V300Z" fill="#EE6700"/>
<path d="M475 225H500C500 211.193 488.807 200 475 200V225Z" fill="#EE6700"/>
<path d="M425 275L425 300C411.193 300 400 288.807 400 275L425 275Z" fill="#EE6700"/>
<path d="M450 250L475 250C475 263.807 463.807 275 450 275L450 250Z" fill="#EE6700"/>
</g>
<g clip-path="url(#clip15_945_3295)">
<path d="M600 -2.18557e-06L575 0C575 13.8071 586.193 25 600 25L600 -2.18557e-06Z" fill="#EE6700"/>
<path d="M550 50H575C575 36.1929 563.807 25 550 25V50Z" fill="#EE6700"/>
<path d="M500 100H525C525 86.1929 513.807 75 500 75V100Z" fill="#EE6700"/>
<path d="M525 25L500 25C500 11.1929 511.193 0 525 0V25Z" fill="#EE6700"/>
<path d="M575 75L575 100C588.807 100 600 88.8071 600 75L575 75Z" fill="#EE6700"/>
<path d="M550 50L525 50C525 63.8071 536.193 75 550 75L550 50Z" fill="#EE6700"/>
</g>
<g clip-path="url(#clip16_945_3295)">
<path d="M500 100L500 125C513.807 125 525 113.807 525 100L500 100Z" fill="#EE6700"/>
<path d="M550 150L550 125C536.193 125 525 136.193 525 150L550 150Z" fill="#EE6700"/>
<path d="M600 200L600 175C586.193 175 575 186.193 575 200L600 200Z" fill="#EE6700"/>
<path d="M525 175L525 200C511.193 200 500 188.807 500 175L525 175Z" fill="#EE6700"/>
<path d="M575 125L600 125C600 111.193 588.807 100 575 100L575 125Z" fill="#EE6700"/>
<path d="M550 150L550 175C563.807 175 575 163.807 575 150L550 150Z" fill="#EE6700"/>
</g>
<g clip-path="url(#clip17_945_3295)">
<path d="M600 200L575 200C575 213.807 586.193 225 600 225L600 200Z" fill="#EE6700"/>
<path d="M550 250H575C575 236.193 563.807 225 550 225V250Z" fill="#EE6700"/>
<path d="M500 300H525C525 286.193 513.807 275 500 275V300Z" fill="#EE6700"/>
<path d="M525 225H500C500 211.193 511.193 200 525 200V225Z" fill="#EE6700"/>
<path d="M575 275L575 300C588.807 300 600 288.807 600 275L575 275Z" fill="#EE6700"/>
<path d="M550 250L525 250C525 263.807 536.193 275 550 275L550 250Z" fill="#EE6700"/>
</g>
<g clip-path="url(#clip18_945_3295)">
<path d="M600 -2.18557e-06L625 0C625 13.8071 613.807 25 600 25L600 -2.18557e-06Z" fill="#EE6700"/>
<path d="M650 50H625C625 36.1929 636.193 25 650 25V50Z" fill="#EE6700"/>
<path d="M700 100H675C675 86.1929 686.193 75 700 75V100Z" fill="#EE6700"/>
<path d="M675 25L700 25C700 11.1929 688.807 0 675 0V25Z" fill="#EE6700"/>
<path d="M625 75L625 100C611.193 100 600 88.8071 600 75L625 75Z" fill="#EE6700"/>
<path d="M650 50L675 50C675 63.8071 663.807 75 650 75L650 50Z" fill="#EE6700"/>
</g>
<g clip-path="url(#clip19_945_3295)">
<path d="M700 100L700 125C686.193 125 675 113.807 675 100L700 100Z" fill="#EE6700"/>
<path d="M650 150L650 125C663.807 125 675 136.193 675 150L650 150Z" fill="#EE6700"/>
<path d="M600 200L600 175C613.807 175 625 186.193 625 200L600 200Z" fill="#EE6700"/>
<path d="M675 175L675 200C688.807 200 700 188.807 700 175L675 175Z" fill="#EE6700"/>
<path d="M625 125L600 125C600 111.193 611.193 100 625 100L625 125Z" fill="#EE6700"/>
<path d="M650 150L650 175C636.193 175 625 163.807 625 150L650 150Z" fill="#EE6700"/>
</g>
<g clip-path="url(#clip20_945_3295)">
<path d="M600 200L625 200C625 213.807 613.807 225 600 225L600 200Z" fill="#EE6700"/>
<path d="M650 250H625C625 236.193 636.193 225 650 225V250Z" fill="#EE6700"/>
<path d="M700 300H675C675 286.193 686.193 275 700 275V300Z" fill="#EE6700"/>
<path d="M675 225H700C700 211.193 688.807 200 675 200V225Z" fill="#EE6700"/>
<path d="M625 275L625 300C611.193 300 600 288.807 600 275L625 275Z" fill="#EE6700"/>
<path d="M650 250L675 250C675 263.807 663.807 275 650 275L650 250Z" fill="#EE6700"/>
</g>
<g clip-path="url(#clip21_945_3295)">
<path d="M800 -2.18557e-06L775 0C775 13.8071 786.193 25 800 25L800 -2.18557e-06Z" fill="#EE6700"/>
<path d="M750 50H775C775 36.1929 763.807 25 750 25V50Z" fill="#EE6700"/>
<path d="M700 100H725C725 86.1929 713.807 75 700 75V100Z" fill="#EE6700"/>
<path d="M725 25L700 25C700 11.1929 711.193 0 725 0V25Z" fill="#EE6700"/>
<path d="M775 75L775 100C788.807 100 800 88.8071 800 75L775 75Z" fill="#EE6700"/>
<path d="M750 50L725 50C725 63.8071 736.193 75 750 75L750 50Z" fill="#EE6700"/>
</g>
<g clip-path="url(#clip22_945_3295)">
<path d="M700 100L700 125C713.807 125 725 113.807 725 100L700 100Z" fill="#EE6700"/>
<path d="M750 150L750 125C736.193 125 725 136.193 725 150L750 150Z" fill="#EE6700"/>
<path d="M800 200L800 175C786.193 175 775 186.193 775 200L800 200Z" fill="#EE6700"/>
<path d="M725 175L725 200C711.193 200 700 188.807 700 175L725 175Z" fill="#EE6700"/>
<path d="M775 125L800 125C800 111.193 788.807 100 775 100L775 125Z" fill="#EE6700"/>
<path d="M750 150L750 175C763.807 175 775 163.807 775 150L750 150Z" fill="#EE6700"/>
</g>
<g clip-path="url(#clip23_945_3295)">
<path d="M800 200L775 200C775 213.807 786.193 225 800 225L800 200Z" fill="#EE6700"/>
<path d="M750 250H775C775 236.193 763.807 225 750 225V250Z" fill="#EE6700"/>
<path d="M700 300H725C725 286.193 713.807 275 700 275V300Z" fill="#EE6700"/>
<path d="M725 225H700C700 211.193 711.193 200 725 200V225Z" fill="#EE6700"/>
<path d="M775 275L775 300C788.807 300 800 288.807 800 275L775 275Z" fill="#EE6700"/>
<path d="M750 250L725 250C725 263.807 736.193 275 750 275L750 250Z" fill="#EE6700"/>
</g>
<g clip-path="url(#clip24_945_3295)">
<path d="M800 -2.18557e-06L825 0C825 13.8071 813.807 25 800 25L800 -2.18557e-06Z" fill="#EE6700"/>
<path d="M850 50H825C825 36.1929 836.193 25 850 25V50Z" fill="#EE6700"/>
<path d="M900 100H875C875 86.1929 886.193 75 900 75V100Z" fill="#EE6700"/>
<path d="M875 25L900 25C900 11.1929 888.807 0 875 0V25Z" fill="#EE6700"/>
<path d="M825 75L825 100C811.193 100 800 88.8071 800 75L825 75Z" fill="#EE6700"/>
<path d="M850 50L875 50C875 63.8071 863.807 75 850 75L850 50Z" fill="#EE6700"/>
</g>
<g clip-path="url(#clip25_945_3295)">
<path d="M900 100L900 125C886.193 125 875 113.807 875 100L900 100Z" fill="#EE6700"/>
<path d="M850 150L850 125C863.807 125 875 136.193 875 150L850 150Z" fill="#EE6700"/>
<path d="M800 200L800 175C813.807 175 825 186.193 825 200L800 200Z" fill="#EE6700"/>
<path d="M875 175L875 200C888.807 200 900 188.807 900 175L875 175Z" fill="#EE6700"/>
<path d="M825 125L800 125C800 111.193 811.193 100 825 100L825 125Z" fill="#EE6700"/>
<path d="M850 150L850 175C836.193 175 825 163.807 825 150L850 150Z" fill="#EE6700"/>
</g>
<g clip-path="url(#clip26_945_3295)">
<path d="M800 200L825 200C825 213.807 813.807 225 800 225L800 200Z" fill="#EE6700"/>
<path d="M850 250H825C825 236.193 836.193 225 850 225V250Z" fill="#EE6700"/>
<path d="M900 300H875C875 286.193 886.193 275 900 275V300Z" fill="#EE6700"/>
<path d="M875 225H900C900 211.193 888.807 200 875 200V225Z" fill="#EE6700"/>
<path d="M825 275L825 300C811.193 300 800 288.807 800 275L825 275Z" fill="#EE6700"/>
<path d="M850 250L875 250C875 263.807 863.807 275 850 275L850 250Z" fill="#EE6700"/>
</g>
<g clip-path="url(#clip27_945_3295)">
<path d="M1000 -2.18557e-06L975 0C975 13.8071 986.193 25 1000 25L1000 -2.18557e-06Z" fill="#EE6700"/>
<path d="M950 50H975C975 36.1929 963.807 25 950 25V50Z" fill="#EE6700"/>
<path d="M900 100H925C925 86.1929 913.807 75 900 75V100Z" fill="#EE6700"/>
<path d="M925 25L900 25C900 11.1929 911.193 0 925 0V25Z" fill="#EE6700"/>
<path d="M975 75L975 100C988.807 100 1000 88.8071 1000 75L975 75Z" fill="#EE6700"/>
<path d="M950 50L925 50C925 63.8071 936.193 75 950 75L950 50Z" fill="#EE6700"/>
</g>
<g clip-path="url(#clip28_945_3295)">
<path d="M900 100L900 125C913.807 125 925 113.807 925 100L900 100Z" fill="#EE6700"/>
<path d="M950 150L950 125C936.193 125 925 136.193 925 150L950 150Z" fill="#EE6700"/>
<path d="M1000 200L1000 175C986.193 175 975 186.193 975 200L1000 200Z" fill="#EE6700"/>
<path d="M925 175L925 200C911.193 200 900 188.807 900 175L925 175Z" fill="#EE6700"/>
<path d="M975 125L1000 125C1000 111.193 988.807 100 975 100L975 125Z" fill="#EE6700"/>
<path d="M950 150L950 175C963.807 175 975 163.807 975 150L950 150Z" fill="#EE6700"/>
</g>
<g clip-path="url(#clip29_945_3295)">
<path d="M1000 200L975 200C975 213.807 986.193 225 1000 225L1000 200Z" fill="#EE6700"/>
<path d="M950 250H975C975 236.193 963.807 225 950 225V250Z" fill="#EE6700"/>
<path d="M900 300H925C925 286.193 913.807 275 900 275V300Z" fill="#EE6700"/>
<path d="M925 225H900C900 211.193 911.193 200 925 200V225Z" fill="#EE6700"/>
<path d="M975 275L975 300C988.807 300 1000 288.807 1000 275L975 275Z" fill="#EE6700"/>
<path d="M950 250L925 250C925 263.807 936.193 275 950 275L950 250Z" fill="#EE6700"/>
</g>
<g clip-path="url(#clip30_945_3295)">
<path d="M1000 -2.18557e-06L1025 0C1025 13.8071 1013.81 25 1000 25L1000 -2.18557e-06Z" fill="#EE6700"/>
<path d="M1050 50H1025C1025 36.1929 1036.19 25 1050 25V50Z" fill="#EE6700"/>
<path d="M1100 100H1075C1075 86.1929 1086.19 75 1100 75V100Z" fill="#EE6700"/>
<path d="M1075 25L1100 25C1100 11.1929 1088.81 0 1075 0V25Z" fill="#EE6700"/>
<path d="M1025 75L1025 100C1011.19 100 1000 88.8071 1000 75L1025 75Z" fill="#EE6700"/>
<path d="M1050 50L1075 50C1075 63.8071 1063.81 75 1050 75L1050 50Z" fill="#EE6700"/>
</g>
<g clip-path="url(#clip31_945_3295)">
<path d="M1100 100L1100 125C1086.19 125 1075 113.807 1075 100L1100 100Z" fill="#EE6700"/>
<path d="M1050 150L1050 125C1063.81 125 1075 136.193 1075 150L1050 150Z" fill="#EE6700"/>
<path d="M1000 200L1000 175C1013.81 175 1025 186.193 1025 200L1000 200Z" fill="#EE6700"/>
<path d="M1075 175L1075 200C1088.81 200 1100 188.807 1100 175L1075 175Z" fill="#EE6700"/>
<path d="M1025 125L1000 125C1000 111.193 1011.19 100 1025 100L1025 125Z" fill="#EE6700"/>
<path d="M1050 150L1050 175C1036.19 175 1025 163.807 1025 150L1050 150Z" fill="#EE6700"/>
</g>
<g clip-path="url(#clip32_945_3295)">
<path d="M1000 200L1025 200C1025 213.807 1013.81 225 1000 225L1000 200Z" fill="#EE6700"/>
<path d="M1050 250H1025C1025 236.193 1036.19 225 1050 225V250Z" fill="#EE6700"/>
<path d="M1100 300H1075C1075 286.193 1086.19 275 1100 275V300Z" fill="#EE6700"/>
<path d="M1075 225H1100C1100 211.193 1088.81 200 1075 200V225Z" fill="#EE6700"/>
<path d="M1025 275L1025 300C1011.19 300 1000 288.807 1000 275L1025 275Z" fill="#EE6700"/>
<path d="M1050 250L1075 250C1075 263.807 1063.81 275 1050 275L1050 250Z" fill="#EE6700"/>
</g>
<g clip-path="url(#clip33_945_3295)">
<path d="M1200 -2.18557e-06L1175 0C1175 13.8071 1186.19 25 1200 25L1200 -2.18557e-06Z" fill="#EE6700"/>
<path d="M1150 50H1175C1175 36.1929 1163.81 25 1150 25V50Z" fill="#EE6700"/>
<path d="M1100 100H1125C1125 86.1929 1113.81 75 1100 75V100Z" fill="#EE6700"/>
<path d="M1125 25L1100 25C1100 11.1929 1111.19 0 1125 0V25Z" fill="#EE6700"/>
<path d="M1175 75L1175 100C1188.81 100 1200 88.8071 1200 75L1175 75Z" fill="#EE6700"/>
<path d="M1150 50L1125 50C1125 63.8071 1136.19 75 1150 75L1150 50Z" fill="#EE6700"/>
</g>
<g clip-path="url(#clip34_945_3295)">
<path d="M1100 100L1100 125C1113.81 125 1125 113.807 1125 100L1100 100Z" fill="#EE6700"/>
<path d="M1150 150L1150 125C1136.19 125 1125 136.193 1125 150L1150 150Z" fill="#EE6700"/>
<path d="M1200 200L1200 175C1186.19 175 1175 186.193 1175 200L1200 200Z" fill="#EE6700"/>
<path d="M1125 175L1125 200C1111.19 200 1100 188.807 1100 175L1125 175Z" fill="#EE6700"/>
<path d="M1175 125L1200 125C1200 111.193 1188.81 100 1175 100L1175 125Z" fill="#EE6700"/>
<path d="M1150 150L1150 175C1163.81 175 1175 163.807 1175 150L1150 150Z" fill="#EE6700"/>
</g>
<g clip-path="url(#clip35_945_3295)">
<path d="M1200 200L1175 200C1175 213.807 1186.19 225 1200 225L1200 200Z" fill="#EE6700"/>
<path d="M1150 250H1175C1175 236.193 1163.81 225 1150 225V250Z" fill="#EE6700"/>
<path d="M1100 300H1125C1125 286.193 1113.81 275 1100 275V300Z" fill="#EE6700"/>
<path d="M1125 225H1100C1100 211.193 1111.19 200 1125 200V225Z" fill="#EE6700"/>
<path d="M1175 275L1175 300C1188.81 300 1200 288.807 1200 275L1175 275Z" fill="#EE6700"/>
<path d="M1150 250L1125 250C1125 263.807 1136.19 275 1150 275L1150 250Z" fill="#EE6700"/>
</g>
<defs>
<clipPath id="clip0_945_3295">
<rect width="100" height="100" fill="white"/>
</clipPath>
<clipPath id="clip1_945_3295">
<rect width="100" height="100" fill="white" transform="translate(100 100) rotate(90)"/>
</clipPath>
<clipPath id="clip2_945_3295">
<rect width="100" height="100" fill="white" transform="translate(0 200)"/>
</clipPath>
<clipPath id="clip3_945_3295">
<rect width="100" height="100" fill="white" transform="matrix(-1 0 0 1 200 0)"/>
</clipPath>
<clipPath id="clip4_945_3295">
<rect width="100" height="100" fill="white" transform="matrix(4.37114e-08 1 1 -4.37114e-08 100 100)"/>
</clipPath>
<clipPath id="clip5_945_3295">
<rect width="100" height="100" fill="white" transform="matrix(-1 0 0 1 200 200)"/>
</clipPath>
<clipPath id="clip6_945_3295">
<rect width="100" height="100" fill="white" transform="translate(200)"/>
</clipPath>
<clipPath id="clip7_945_3295">
<rect width="100" height="100" fill="white" transform="translate(300 100) rotate(90)"/>
</clipPath>
<clipPath id="clip8_945_3295">
<rect width="100" height="100" fill="white" transform="translate(200 200)"/>
</clipPath>
<clipPath id="clip9_945_3295">
<rect width="100" height="100" fill="white" transform="matrix(-1 0 0 1 400 0)"/>
</clipPath>
<clipPath id="clip10_945_3295">
<rect width="100" height="100" fill="white" transform="matrix(4.37114e-08 1 1 -4.37114e-08 300 100)"/>
</clipPath>
<clipPath id="clip11_945_3295">
<rect width="100" height="100" fill="white" transform="matrix(-1 0 0 1 400 200)"/>
</clipPath>
<clipPath id="clip12_945_3295">
<rect width="100" height="100" fill="white" transform="translate(400)"/>
</clipPath>
<clipPath id="clip13_945_3295">
<rect width="100" height="100" fill="white" transform="translate(500 100) rotate(90)"/>
</clipPath>
<clipPath id="clip14_945_3295">
<rect width="100" height="100" fill="white" transform="translate(400 200)"/>
</clipPath>
<clipPath id="clip15_945_3295">
<rect width="100" height="100" fill="white" transform="matrix(-1 0 0 1 600 0)"/>
</clipPath>
<clipPath id="clip16_945_3295">
<rect width="100" height="100" fill="white" transform="matrix(4.37114e-08 1 1 -4.37114e-08 500 100)"/>
</clipPath>
<clipPath id="clip17_945_3295">
<rect width="100" height="100" fill="white" transform="matrix(-1 0 0 1 600 200)"/>
</clipPath>
<clipPath id="clip18_945_3295">
<rect width="100" height="100" fill="white" transform="translate(600)"/>
</clipPath>
<clipPath id="clip19_945_3295">
<rect width="100" height="100" fill="white" transform="translate(700 100) rotate(90)"/>
</clipPath>
<clipPath id="clip20_945_3295">
<rect width="100" height="100" fill="white" transform="translate(600 200)"/>
</clipPath>
<clipPath id="clip21_945_3295">
<rect width="100" height="100" fill="white" transform="matrix(-1 0 0 1 800 0)"/>
</clipPath>
<clipPath id="clip22_945_3295">
<rect width="100" height="100" fill="white" transform="matrix(4.37114e-08 1 1 -4.37114e-08 700 100)"/>
</clipPath>
<clipPath id="clip23_945_3295">
<rect width="100" height="100" fill="white" transform="matrix(-1 0 0 1 800 200)"/>
</clipPath>
<clipPath id="clip24_945_3295">
<rect width="100" height="100" fill="white" transform="translate(800)"/>
</clipPath>
<clipPath id="clip25_945_3295">
<rect width="100" height="100" fill="white" transform="translate(900 100) rotate(90)"/>
</clipPath>
<clipPath id="clip26_945_3295">
<rect width="100" height="100" fill="white" transform="translate(800 200)"/>
</clipPath>
<clipPath id="clip27_945_3295">
<rect width="100" height="100" fill="white" transform="matrix(-1 0 0 1 1000 0)"/>
</clipPath>
<clipPath id="clip28_945_3295">
<rect width="100" height="100" fill="white" transform="matrix(4.37114e-08 1 1 -4.37114e-08 900 100)"/>
</clipPath>
<clipPath id="clip29_945_3295">
<rect width="100" height="100" fill="white" transform="matrix(-1 0 0 1 1000 200)"/>
</clipPath>
<clipPath id="clip30_945_3295">
<rect width="100" height="100" fill="white" transform="translate(1000)"/>
</clipPath>
<clipPath id="clip31_945_3295">
<rect width="100" height="100" fill="white" transform="translate(1100 100) rotate(90)"/>
</clipPath>
<clipPath id="clip32_945_3295">
<rect width="100" height="100" fill="white" transform="translate(1000 200)"/>
</clipPath>
<clipPath id="clip33_945_3295">
<rect width="100" height="100" fill="white" transform="matrix(-1 0 0 1 1200 0)"/>
</clipPath>
<clipPath id="clip34_945_3295">
<rect width="100" height="100" fill="white" transform="matrix(4.37114e-08 1 1 -4.37114e-08 1100 100)"/>
</clipPath>
<clipPath id="clip35_945_3295">
<rect width="100" height="100" fill="white" transform="matrix(-1 0 0 1 1200 200)"/>
</clipPath>
</defs>
</svg>
