<svg width="1020" height="1020" viewBox="0 0 1020 1020" fill="none" xmlns="http://www.w3.org/2000/svg">
<rect width="1020" height="1020" fill="black"/>
<path fill-rule="evenodd" clip-rule="evenodd" d="M629.421 605.421C629.421 711.299 543.589 797.132 437.711 797.132C331.832 797.132 246 711.299 246 605.421H339.899C339.899 658.36 384.771 701.276 437.711 701.276C490.65 701.276 535.522 658.36 535.522 605.421H629.421Z" fill="white"/>
<path d="M679.711 555.138H773.995V460.854H679.711V555.138Z" fill="white"/>
<path d="M629.416 460.853H535.132V555.136H629.416V460.853Z" fill="white"/>
<path d="M390.579 555.138H484.863V460.854H390.579V555.138Z" fill="white"/>
<path d="M340.284 460.853H246V555.136H340.284V460.853Z" fill="white"/>
<path fill-rule="evenodd" clip-rule="evenodd" d="M390.573 413.71C390.573 307.831 476.406 221.999 582.284 221.999C688.162 221.999 773.995 307.831 773.995 413.71H680.095C680.095 360.77 635.223 317.854 582.284 317.854C529.345 317.854 484.472 360.77 484.472 413.71H390.573Z" fill="white"/>
</svg>
