<?xml version="1.0" encoding="utf-8"?>
<!-- Generator: Adobe Illustrator 26.5.0, SVG Export Plug-In . SVG Version: 6.00 Build 0)  -->
<svg version="1.1" id="Layer_1" xmlns="http://www.w3.org/2000/svg" xmlns:xlink="http://www.w3.org/1999/xlink" x="0px" y="0px"
	 viewBox="0 0 432 432" style="enable-background:new 0 0 432 432;" xml:space="preserve">
<style type="text/css">
	.st0{fill:url(#SVGID_1_);}
</style>
<linearGradient id="SVGID_1_" gradientUnits="userSpaceOnUse" x1="47.4819" y1="174.3585" x2="432.0715" y2="269.3923">
	<stop  offset="0" style="stop-color:#FEF5A0"/>
	<stop  offset="0.6354" style="stop-color:#93D4CB"/>
	<stop  offset="1" style="stop-color:#719AD1"/>
</linearGradient>
<path class="st0" d="M216,414c-52.9,0-102.6-20.6-140-58c-37.4-37.4-58-87.1-58-140S38.6,113.4,76,76c37.4-37.4,87.1-58,140-58
	s102.6,20.6,140,58c37.4,37.4,58,87.1,58,140s-20.6,102.6-58,140C318.6,393.4,268.9,414,216,414z M216,34.1
	C115.7,34.1,34.1,115.7,34.1,216S115.7,397.9,216,397.9S397.9,316.3,397.9,216S316.3,34.1,216,34.1z M192.4,158L76.8,129.4
	l76.8,91.1L90.6,321.7L201,276.8l76.8,91.1l-8.6-118.8l110.4-44.9l-115.6-28.6l-8.6-118.8L192.4,158z"/>
</svg>
