<svg width="720" height="256" viewBox="0 0 720 256" fill="none" xmlns="http://www.w3.org/2000/svg">
<path d="M313.578 187.875C304.047 187.875 295.74 186.104 288.656 182.562C281.625 178.969 276.156 174.021 272.25 167.719C268.396 161.365 266.469 154.047 266.469 145.766V69.5938H286.859V144.125C286.859 151.521 289.255 157.615 294.047 162.406C298.891 167.198 305.401 169.594 313.578 169.594C321.755 169.594 328.24 167.198 333.031 162.406C337.823 157.615 340.219 151.521 340.219 144.125V69.5938H360.609V145.766C360.609 154.047 358.656 161.365 354.75 167.719C350.896 174.021 345.427 178.969 338.344 182.562C331.312 186.104 323.057 187.875 313.578 187.875ZM399.594 139.359V186H379.906V103.5H399.281V116.156C405.01 106.625 413.448 101.859 424.594 101.859C433.24 101.859 440.297 104.646 445.766 110.219C451.286 115.792 454.047 123.865 454.047 134.438V186H434.281V137.562C434.281 131.521 432.823 126.938 429.906 123.812C426.99 120.688 422.901 119.125 417.641 119.125C412.484 119.125 408.188 120.74 404.75 123.969C401.312 127.198 399.594 132.328 399.594 139.359ZM471.625 186V103.5H491.312V186H471.625ZM481.469 91.2344C478.083 91.2344 475.271 90.1667 473.031 88.0312C470.792 85.8438 469.672 83.1615 469.672 79.9844C469.672 76.8073 470.792 74.151 473.031 72.0156C475.271 69.8802 478.083 68.8125 481.469 68.8125C484.802 68.8125 487.589 69.8802 489.828 72.0156C492.068 74.151 493.188 76.8073 493.188 79.9844C493.188 83.1615 492.068 85.8438 489.828 88.0312C487.589 90.1667 484.802 91.2344 481.469 91.2344ZM545.688 187.875C537.562 187.875 530.453 186.078 524.359 182.484C518.266 178.839 513.5 173.786 510.062 167.328C506.677 160.87 504.984 153.37 504.984 144.828C504.984 136.286 506.677 128.786 510.062 122.328C513.5 115.818 518.266 110.74 524.359 107.094C530.453 103.448 537.562 101.625 545.688 101.625C553.76 101.625 560.844 103.448 566.938 107.094C573.083 110.74 577.849 115.818 581.234 122.328C584.672 128.786 586.391 136.286 586.391 144.828C586.391 153.37 584.672 160.87 581.234 167.328C577.849 173.786 573.083 178.839 566.938 182.484C560.844 186.078 553.76 187.875 545.688 187.875ZM545.688 171.391C551.99 171.391 557.016 169.021 560.766 164.281C564.516 159.542 566.391 153.057 566.391 144.828C566.391 136.599 564.516 130.089 560.766 125.297C557.016 120.505 551.99 118.109 545.688 118.109C539.333 118.109 534.281 120.505 530.531 125.297C526.781 130.036 524.906 136.547 524.906 144.828C524.906 153.057 526.781 159.542 530.531 164.281C534.281 169.021 539.333 171.391 545.688 171.391ZM619.75 139.359V186H600.062V103.5H619.438V116.156C625.167 106.625 633.604 101.859 644.75 101.859C653.396 101.859 660.453 104.646 665.922 110.219C671.443 115.792 674.203 123.865 674.203 134.438V186H654.438V137.562C654.438 131.521 652.979 126.938 650.062 123.812C647.146 120.688 643.057 119.125 637.797 119.125C632.641 119.125 628.344 120.74 624.906 123.969C621.469 127.198 619.75 132.328 619.75 139.359Z" fill="white"/>
<path fill-rule="evenodd" clip-rule="evenodd" d="M168 160C168 195.346 139.346 224 104 224C68.6538 224 40 195.346 40 160H72C72 177.673 86.3269 192 104 192C121.673 192 136 177.673 136 160H168Z" fill="white"/>
<rect x="216" y="144" width="32" height="32" transform="rotate(-180 216 144)" fill="white"/>
<rect x="136" y="112" width="32" height="32" fill="white"/>
<rect x="120" y="144" width="32" height="32" transform="rotate(-180 120 144)" fill="white"/>
<rect x="40" y="112" width="32" height="32" fill="white"/>
<path fill-rule="evenodd" clip-rule="evenodd" d="M88 96C88 60.6538 116.654 32 152 32C187.346 32 216 60.6538 216 96L184 96C184 78.3269 169.673 64 152 64C134.327 64 120 78.3269 120 96L88 96Z" fill="white"/>
</svg>
