<svg width="556" height="172" viewBox="0 0 556 172" fill="none" xmlns="http://www.w3.org/2000/svg">
<g clip-path="url(#clip0_199_693)">
<path d="M490 119H471V43H491L522 90V90L521 76V43H540V119H520L489 72V72L490 86V119Z" fill="white"/>
<path d="M404 120C398.261 120 393.598 118.961 390 116C386.488 112.967 385 108.839 385 104V58C385 53.0889 386.488 48.9611 390 46C393.598 43.0389 398.261 42 404 42H435C440.825 42 445.488 43.0389 449 46C452.512 48.9611 454 53.0889 454 58V104C454 108.839 452.512 112.967 449 116C445.488 118.961 440.825 120 435 120H404ZM428 105C430.056 105 431.886 104.939 433 104C434.199 103.061 435 101.733 435 100V62C435 60.2667 434.199 58.9389 433 58C431.886 57.0611 430.056 57 428 57H411C408.858 57 407.114 57.0611 406 58C404.886 58.9389 404 60.2667 404 62V100C404 101.733 404.886 103.061 406 104C407.114 104.939 408.858 105 411 105H428Z" fill="white"/>
<path d="M368 119H349V43H368V119Z" fill="white"/>
<path d="M280 119H261V43H281L312 90V90L311 76V43H330V119H310L279 72V72L280 86V119Z" fill="white"/>
<path d="M195 120C189.269 120 184.592 118.964 181 116C177.493 112.963 176 108.844 176 104V43H195V100C195 101.735 195.888 103.06 197 104C198.112 104.94 199.862 105 202 105H218C220.138 105 221.888 104.94 223 104C224.112 103.06 225 101.735 225 100V43H244V104C244 108.844 242.507 112.963 239 116C235.493 118.964 230.816 120 225 120H195Z" fill="white"/>
<path fill-rule="evenodd" clip-rule="evenodd" d="M114 106C114 133.062 92.0618 155 65 155C37.9381 155 16 133.062 16 106H40C40 119.531 51.469 130.5 65 130.5C78.5309 130.5 90 119.531 90 106H114Z" fill="white"/>
<path d="M127 93H151V69H127V93Z" fill="white"/>
<path d="M114 69H90V93H114V69Z" fill="white"/>
<path d="M53 93H77V69H53V93Z" fill="white"/>
<path d="M40 69H16V93H40V69Z" fill="white"/>
<path fill-rule="evenodd" clip-rule="evenodd" d="M53 57C53 29.9381 74.9382 8 102 8C129.062 8 151 29.9381 151 57H127C127 43.469 115.531 32.5 102 32.5C88.4691 32.5 77 43.469 77 57H53Z" fill="white"/>
</g>
<defs>
<clipPath id="clip0_199_693">
<rect width="556" height="172" fill="white"/>
</clipPath>
</defs>
</svg>
