<svg width="228" height="40" viewBox="0 0 228 40" fill="none" xmlns="http://www.w3.org/2000/svg">
<path d="M0.428589 0H50.8239L57.0327 8.00004H6.63732L0.428589 0Z" fill="white"/>
<path d="M0.428589 16H50.8239L57.0327 24H6.63732L0.428589 16Z" fill="white"/>
<path d="M0.428589 32H50.8239L57.0327 40H6.63732L0.428589 32Z" fill="white"/>
<path d="M6.61707 24V32H13.3341L6.61707 24Z" fill="white"/>
<path d="M6.61707 8V16H13.3341L6.61707 8Z" fill="white"/>
<path d="M71.0171 12.9551H93.6001V16.0897H74.1691V18.3931H93.0632V21.5276H74.1691V23.6751H93.6001V26.8096H71.0171V12.9551Z" fill="white"/>
<path d="M100.763 26.8096C100.162 26.8096 99.6025 26.6595 99.0829 26.3593C98.5749 26.0476 98.1709 25.6378 97.8707 25.1298C97.5705 24.6102 97.4203 24.0502 97.4203 23.4498V22.3934H100.572V23.1727C100.572 23.3229 100.618 23.4442 100.711 23.5365C100.803 23.6289 100.919 23.6751 101.057 23.6751H116.557C116.707 23.6751 116.823 23.6289 116.903 23.5365C116.996 23.4442 117.042 23.3229 117.042 23.1727V22.4282C117.042 22.3011 116.996 22.1973 116.903 22.1164C116.823 22.024 116.713 21.9605 116.574 21.926L100.745 20.8869C100.122 20.7829 99.5621 20.5923 99.0656 20.3153C98.5807 20.0382 98.1881 19.6514 97.8879 19.1551C97.5878 18.6471 97.4319 18.0293 97.4203 17.3019L97.403 16.2109C97.3916 15.6336 97.5243 15.0968 97.8014 14.6003C98.0899 14.0923 98.4825 13.694 98.979 13.4054C99.4754 13.1052 100.018 12.9551 100.607 12.9551H116.851C117.429 12.9551 117.971 13.1109 118.479 13.4227C118.987 13.7228 119.397 14.1327 119.709 14.6523C120.021 15.1603 120.176 15.7087 120.176 16.2975V17.2846H117.042V16.5919C117.042 16.4303 116.996 16.309 116.903 16.2282C116.823 16.1359 116.707 16.0897 116.557 16.0897H101.057C100.919 16.0897 100.803 16.1359 100.711 16.2282C100.618 16.3206 100.572 16.4418 100.572 16.5919V17.2673C100.572 17.3135 100.572 17.3539 100.572 17.3885C100.584 17.4116 100.601 17.4405 100.624 17.4751C100.659 17.5559 100.711 17.6194 100.78 17.6656C100.849 17.7118 100.93 17.7464 101.022 17.7695L116.938 18.8605C117.608 18.9876 118.179 19.1954 118.652 19.484C119.137 19.7611 119.513 20.1363 119.778 20.6098C120.044 21.0716 120.176 21.6258 120.176 22.2722L120.211 23.5884C120.211 24.2004 120.067 24.7545 119.778 25.2509C119.489 25.7358 119.097 26.1169 118.601 26.394C118.116 26.6711 117.59 26.8096 117.025 26.8096H100.763Z" fill="white"/>
<path d="M127.511 26.8096C126.934 26.8096 126.391 26.6595 125.883 26.3593C125.375 26.0476 124.965 25.6378 124.654 25.1298C124.342 24.6102 124.186 24.056 124.186 23.4673V16.2975C124.186 15.6971 124.336 15.1429 124.636 14.6349C124.948 14.1154 125.358 13.7055 125.866 13.4054C126.385 13.1052 126.928 12.9551 127.494 12.9551H143.652C144.229 12.9551 144.772 13.1109 145.28 13.4227C145.799 13.7228 146.215 14.1327 146.526 14.6523C146.838 15.1603 146.994 15.7087 146.994 16.2975V18.8087H143.842V16.6092C143.842 16.4476 143.796 16.3206 143.704 16.2282C143.611 16.1359 143.49 16.0897 143.34 16.0897H127.823C127.684 16.0897 127.563 16.1416 127.459 16.2455C127.367 16.3379 127.321 16.4591 127.321 16.6092V23.1555C127.321 23.2595 127.344 23.3518 127.39 23.4325C127.448 23.5018 127.511 23.5596 127.58 23.6058C127.661 23.652 127.748 23.6751 127.84 23.6751H143.34C143.49 23.6751 143.611 23.6231 143.704 23.5191C143.796 23.4153 143.842 23.294 143.842 23.1555V20.8002H146.994V23.4673C146.994 24.056 146.838 24.6102 146.526 25.1298C146.226 25.6378 145.816 26.0476 145.297 26.3593C144.777 26.6595 144.223 26.8096 143.634 26.8096H127.511Z" fill="white"/>
<path d="M151.151 12.9551H154.286V18.4969H171.049V12.9551H174.201V26.8096H171.049V21.6489H154.286V26.8096H151.151V12.9551Z" fill="white"/>
<path d="M178.353 12.9551H200.935V16.0897H181.505V18.3931H200.399V21.5276H181.505V23.6751H200.935V26.8096H178.353V12.9551Z" fill="white"/>
<path d="M204.573 12.9551H224.142C224.71 12.9551 225.235 13.0994 225.719 13.388C226.204 13.6651 226.584 14.0461 226.862 14.531C227.139 15.0159 227.277 15.5528 227.277 16.1416V19.536C227.277 20.2749 227.088 20.91 226.706 21.4411C226.337 21.9722 225.84 22.3358 225.217 22.532L227.571 26.8096H224.022L221.735 22.6878H207.708V26.8096H204.573V12.9551ZM223.659 19.5533C223.808 19.5533 223.93 19.5071 224.022 19.4147C224.115 19.3223 224.16 19.2013 224.16 19.0511V16.6092C224.16 16.4476 224.115 16.3206 224.022 16.2282C223.93 16.1359 223.808 16.0897 223.659 16.0897H207.708V19.5533H223.659Z" fill="white"/>
</svg>
