<?xml version="1.0" encoding="UTF-8"?>
<svg xmlns:xlink="http://www.w3.org/1999/xlink" xmlns="http://www.w3.org/2000/svg" aria-roledescription="er" role="graphics-document document" viewBox="0 0 540 465" style="max-width: 540px; background-color: transparent;" width="100%" id="my-svg">
  <style>
    #my-svg {
      font-family: "trebuchet ms", verdana, arial, sans-serif;
      font-size: 16px;
      fill: #333;
    }

    #my-svg .error-icon {
      fill: #552222;
    }

    #my-svg .error-text {
      fill: #552222;
      stroke: #552222;
    }

    #my-svg .edge-thickness-normal {
      stroke-width: 2px;
    }

    #my-svg .edge-thickness-thick {
      stroke-width: 3.5px;
    }

    #my-svg .edge-pattern-solid {
      stroke-dasharray: 0;
    }

    #my-svg .edge-pattern-dashed {
      stroke-dasharray: 3;
    }

    #my-svg .edge-pattern-dotted {
      stroke-dasharray: 2;
    }

    #my-svg .marker {
      fill: #333333;
      stroke: #333333;
    }

    #my-svg .marker.cross {
      stroke: #333333;
    }

    #my-svg svg {
      font-family: "trebuchet ms", verdana, arial, sans-serif;
      font-size: 16px;
    }

    #my-svg .entityBox {
      fill: #ECECFF;
      stroke: #9370DB;
    }

    #my-svg .attributeBoxOdd {
      fill: #ffffff;
      stroke: #9370DB;
    }

    #my-svg .attributeBoxEven {
      fill: #f2f2f2;
      stroke: #9370DB;
    }

    #my-svg .relationshipLabelBox {
      fill: hsl(80, 100%, 96.2745098039%);
      opacity: 0.7;
      background-color: hsl(80, 100%, 96.2745098039%);
    }

    #my-svg .relationshipLabelBox rect {
      opacity: 0.5;
    }

    #my-svg .relationshipLine {
      stroke: #333333;
    }

    #my-svg .entityTitleText {
      text-anchor: middle;
      font-size: 18px;
      fill: #333;
    }

    #my-svg #MD_PARENT_START {
      fill: #f5f5f5 !important;
      stroke: #333333 !important;
      stroke-width: 1;
    }

    #my-svg #MD_PARENT_END {
      fill: #f5f5f5 !important;
      stroke: #333333 !important;
      stroke-width: 1;
    }

    #my-svg :root {
      --mermaid-font-family: "trebuchet ms", verdana, arial, sans-serif;
    }
  </style>
  <g></g>
  <defs>
    <marker orient="auto" markerHeight="240" markerWidth="190" refY="7" refX="0" id="MD_PARENT_START">
      <path d="M 18,7 L9,13 L1,7 L9,1 Z"></path>
    </marker>
  </defs>
  <defs>
    <marker orient="auto" markerHeight="28" markerWidth="20" refY="7" refX="19" id="MD_PARENT_END">
      <path d="M 18,7 L9,13 L1,7 L9,1 Z"></path>
    </marker>
  </defs>
  <defs>
    <marker orient="auto" markerHeight="18" markerWidth="18" refY="9" refX="0" id="ONLY_ONE_START">
      <path d="M9,0 L9,18 M15,0 L15,18" fill="none" stroke="gray"></path>
    </marker>
  </defs>
  <defs>
    <marker orient="auto" markerHeight="18" markerWidth="18" refY="9" refX="18" id="ONLY_ONE_END">
      <path d="M3,0 L3,18 M9,0 L9,18" fill="none" stroke="gray"></path>
    </marker>
  </defs>
  <defs>
    <marker orient="auto" markerHeight="18" markerWidth="30" refY="9" refX="0" id="ZERO_OR_ONE_START">
      <circle r="6" cy="9" cx="21" fill="white" stroke="gray"></circle>
      <path d="M9,0 L9,18" fill="none" stroke="gray"></path>
    </marker>
  </defs>
  <defs>
    <marker orient="auto" markerHeight="18" markerWidth="30" refY="9" refX="30" id="ZERO_OR_ONE_END">
      <circle r="6" cy="9" cx="9" fill="white" stroke="gray"></circle>
      <path d="M21,0 L21,18" fill="none" stroke="gray"></path>
    </marker>
  </defs>
  <defs>
    <marker orient="auto" markerHeight="36" markerWidth="45" refY="18" refX="18" id="ONE_OR_MORE_START">
      <path d="M0,18 Q 18,0 36,18 Q 18,36 0,18 M42,9 L42,27" fill="none" stroke="gray"></path>
    </marker>
  </defs>
  <defs>
    <marker orient="auto" markerHeight="36" markerWidth="45" refY="18" refX="27" id="ONE_OR_MORE_END">
      <path d="M3,9 L3,27 M9,18 Q27,0 45,18 Q27,36 9,18" fill="none" stroke="gray"></path>
    </marker>
  </defs>
  <defs>
    <marker orient="auto" markerHeight="36" markerWidth="57" refY="18" refX="18" id="ZERO_OR_MORE_START">
      <circle r="6" cy="18" cx="48" fill="white" stroke="gray"></circle>
      <path d="M0,18 Q18,0 36,18 Q18,36 0,18" fill="none" stroke="gray"></path>
    </marker>
  </defs>
  <defs>
    <marker orient="auto" markerHeight="36" markerWidth="57" refY="18" refX="39" id="ZERO_OR_MORE_END">
      <circle r="6" cy="18" cx="9" fill="white" stroke="gray"></circle>
      <path d="M21,18 Q39,0 57,18 Q39,36 21,18" fill="none" stroke="gray"></path>
    </marker>
  </defs>
  <path style="stroke: gray; fill: none;" marker-start="url(#ONE_OR_MORE_START)" marker-end="url(#ONLY_ONE_END)" d="M70,270L70,278.3333333333333C70,286.6666666666667,70,303.3333333333333,79.52380952380952,320C89.04761904761904,336.6666666666667,108.09523809523809,353.3333333333333,117.6190476190476,361.6666666666667L127.14285714285714,370" class="er relationshipLine"></path>
  <path style="stroke: gray; fill: none;" marker-start="url(#ONE_OR_MORE_START)" marker-end="url(#ONLY_ONE_END)" d="M270,270L270,278.3333333333333C270,286.6666666666667,270,303.3333333333333,260.4761904761905,320C250.95238095238096,336.6666666666667,231.90476190476193,353.3333333333333,222.3809523809524,361.6666666666667L212.85714285714286,370" class="er relationshipLine"></path>
  <path style="stroke: gray; fill: none;" marker-start="url(#ONE_OR_MORE_START)" marker-end="url(#ONLY_ONE_END)" stroke-dasharray="8,8" d="M70,95L70,103.33333333333333C70,111.66666666666667,70,128.33333333333334,95,147.60416666666666C120,166.875,170,188.75,195,199.6875L220,210.625" class="er relationshipLine"></path>
  <path style="stroke: gray; fill: none;" marker-start="url(#ONE_OR_MORE_START)" marker-end="url(#ONLY_ONE_END)" stroke-dasharray="8,8" d="M270,95L270,103.33333333333333C270,111.66666666666667,270,128.33333333333334,270,145C270,161.66666666666666,270,178.33333333333334,270,186.66666666666666L270,195" class="er relationshipLine"></path>
  <path style="stroke: gray; fill: none;" marker-start="url(#ONE_OR_MORE_START)" marker-end="url(#ONLY_ONE_END)" stroke-dasharray="8,8" d="M470,95L470,103.33333333333333C470,111.66666666666667,470,128.33333333333334,445,147.60416666666666C420,166.875,370,188.75,345,199.6875L320,210.625" class="er relationshipLine"></path>
  <g transform="translate(20,195 )" id="entity-Galois-09319b27-bc61-5c03-8f58-a12b3ba4de5f">
    <rect height="75" width="100" y="0" x="0" class="er entityBox"></rect>
    <text style="dominant-baseline: middle; text-anchor: middle; font-size: 12px;" transform="translate(50,37.5)" y="0" x="0" id="text-entity-Galois-09319b27-bc61-5c03-8f58-a12b3ba4de5f" class="er entityLabel">Galois</text>
  </g>
  <g transform="translate(120,370 )" id="entity-Union-c4cb0abb-5440-5ffe-b1fe-e5db7b48adf7">
    <rect height="75" width="100" y="0" x="0" class="er entityBox"></rect>
    <text style="dominant-baseline: middle; text-anchor: middle; font-size: 12px;" transform="translate(50,37.5)" y="0" x="0" id="text-entity-Union-c4cb0abb-5440-5ffe-b1fe-e5db7b48adf7" class="er entityLabel">Union</text>
  </g>
  <g transform="translate(220,195 )" id="entity-Validator-488fde6b-22ea-5d13-970a-7bc2fb13df21">
    <rect height="75" width="100" y="0" x="0" class="er entityBox"></rect>
    <text style="dominant-baseline: middle; text-anchor: middle; font-size: 12px;" transform="translate(50,37.5)" y="0" x="0" id="text-entity-Validator-488fde6b-22ea-5d13-970a-7bc2fb13df21" class="er entityLabel">Validator</text>
  </g>
  <g transform="translate(20,20 )" id="entity-DVT1-b7e678fe-f0f3-58bb-9169-c1fdc6c4a5a2">
    <rect height="75" width="100" y="0" x="0" class="er entityBox"></rect>
    <text style="dominant-baseline: middle; text-anchor: middle; font-size: 12px;" transform="translate(50,37.5)" y="0" x="0" id="text-entity-DVT1-b7e678fe-f0f3-58bb-9169-c1fdc6c4a5a2" class="er entityLabel">DVT-1</text>
  </g>
  <g transform="translate(220,20 )" id="entity-DVT2-55b7ea63-6fa0-5321-9e84-21975e0fa441">
    <rect height="75" width="100" y="0" x="0" class="er entityBox"></rect>
    <text style="dominant-baseline: middle; text-anchor: middle; font-size: 12px;" transform="translate(50,37.5)" y="0" x="0" id="text-entity-DVT2-55b7ea63-6fa0-5321-9e84-21975e0fa441" class="er entityLabel">DVT-2</text>
  </g>
  <g transform="translate(420,20 )" id="entity-DVT3-55e3397d-82f9-5faa-97fd-fcfbf614499c">
    <rect height="75" width="100" y="0" x="0" class="er entityBox"></rect>
    <text style="dominant-baseline: middle; text-anchor: middle; font-size: 12px;" transform="translate(50,37.5)" y="0" x="0" id="text-entity-DVT3-55e3397d-82f9-5faa-97fd-fcfbf614499c" class="er entityLabel">DVT-3</text>
  </g>
  <rect height="14" width="35.0703125" y="320.4354553222656" x="66.82665252685547" class="er relationshipLabelBox"></rect>
  <text style="text-anchor: middle; dominant-baseline: middle; font-size: 12px;" y="327.4354553222656" x="84.36180877685547" id="rel1" class="er relationshipLabel">proves</text>
  <rect height="14" width="87.4375" y="320.4354553222656" x="211.91946411132812" class="er relationshipLabelBox"></rect>
  <text style="text-anchor: middle; dominant-baseline: middle; font-size: 12px;" y="327.4354553222656" x="255.63821411132812" id="rel2" class="er relationshipLabel">transitions state</text>
  <rect height="14" width="33.9296875" y="161.3433074951172" x="111.56942749023438" class="er relationshipLabelBox"></rect>
  <text style="text-anchor: middle; dominant-baseline: middle; font-size: 12px;" y="168.3433074951172" x="128.53427124023438" id="rel3" class="er relationshipLabel">shards</text>
  <rect height="14" width="33.9296875" y="138" x="253.03515625" class="er relationshipLabelBox"></rect>
  <text style="text-anchor: middle; dominant-baseline: middle; font-size: 12px;" y="145" x="270" id="rel4" class="er relationshipLabel">shards</text>
  <rect height="14" width="33.9296875" y="161.3433074951172" x="394.50091552734375" class="er relationshipLabelBox"></rect>
  <text style="text-anchor: middle; dominant-baseline: middle; font-size: 12px;" y="168.3433074951172" x="411.46575927734375" id="rel5" class="er relationshipLabel">shards</text>
</svg>

