<svg xmlns="http://www.w3.org/2000/svg" viewBox="0 0 645.886 645.693">
  <path fill="#fff"
    d="M638.886 255.8a323.08 323.08 0 0 0-544.4-161.22 327.26 327.26 0 0 0-39.54 47.87 116.86 116.86 0 0 0-9.21 14.4 323.12 323.12 0 1 0 572.95 296.29 115.61 115.61 0 0 0 5.1-12.31 322.75 322.75 0 0 0 22.1-117.85 326.18 326.18 0 0 0-6.8-66.34c-.06-.28-.11-.56-.2-.84zm-112-147.69c1.86 1.76 3.7 3.56 5.52 5.38a295.77 295.77 0 0 1 65.25 98.24 5 5 0 0 1-5.52 6.8 149.4 149.4 0 0 0-28.68-2 14.93 14.93 0 0 1-15-12.26c-5.76-32.3-14.09-62.13-24.79-88.17a252.6 252.6 0 0 0-1.85-4.4 3.17 3.17 0 0 1 5.07-3.59zm30.72 189.49a3.44 3.44 0 0 1 6.24-2.08q3.63 5.1 7 10.24 4.46 6.84 8.3 13.6a7.46 7.46 0 0 1-1 8.72q-5.19 5.7-11.29 11.8c-1.49 1.49-3 3-4.55 4.47a3 3 0 0 1-5-2.23q.29-7.29.42-14.64.24-15.06-.15-29.88zM150.886 81.68a294.07 294.07 0 0 1 172-55 298.84 298.84 0 0 1 48.77 4 5 5 0 0 1 2.3 8.84c-15.47 12.13-29.85 30.08-42.57 53.36a13.86 13.86 0 0 1-15.92 6.7c-42.15-11.87-83.63-17.45-121.95-16.11a274.6 274.6 0 0 0-40.09 4.25 3.37 3.37 0 0 1-2.54-6.04zm-42.3 442.54c-6.22-11.75 1.83-39 42.72-80.34a10.18 10.18 0 0 0-.91-15.15c-1.64-1.29-3.26-2.59-4.88-3.89a10.22 10.22 0 0 0-13.66.71l-1.6 1.61c-20.44 21-34.74 40.4-42.76 57.87a7 7 0 0 1-12.13.94 294.09 294.09 0 0 1-48.77-163 298.81 298.81 0 0 1 6.44-61.83 3 3 0 0 1 5.83-.26c6.14 20.3 16.15 41.29 30 62.51 18.61 28.58 43.15 56.05 72.23 81.25 9.93 8.6 20.42 16.92 31.35 25a550.24 550.24 0 0 0 71.87 44.59c11.36 5.9 22.42 11.53 33.75 16.63a25.69 25.69 0 0 0 19.92.54q8-3.15 16.14-6.53a12.91 12.91 0 0 0 7.51-15.06l-.43-1.76c-8.92-37.54-13.88-79.81-14.47-124.07v-1.6c0-2.42 0-4.85-.06-7.27V331.35c0-2.77 0-5.53.09-8.31.13-7.6.41-15.14.8-22.61 2.76-53.41 11.81-103.61 26.23-145.83a7.47 7.47 0 0 0-4.66-9.48q-5.72-2-11.42-3.74a7.43 7.43 0 0 0-9.25 4.69c-15.62 45.85-25.25 100.25-27.83 157.81a21.63 21.63 0 0 1-10.59 17.68c-34.09 20.21-65.4 41.63-92.45 63.22a15 15 0 0 1-19.14-.4c-27.11-23.5-49.93-49-67.18-75.52-33.89-52.06-42-101.09-22.67-138l.15-.26q3.68-6.12 7.67-12.07c22.15-29.32 63.38-46.31 118-48.23q5.19-.18 10.46-.18c33.54 0 69.53 5.53 106.14 16.09l2.41.71 1.85.54q12.69 3.8 25.44 8.38l.6.22q3.31 1.2 6.63 2.45l2.08.79 2 .77a532.47 532.47 0 0 1 53.37 24.13 510.79 510.79 0 0 1 92.59 61.34c-51.9 11.89-112.23 34.83-172.88 65.76a8.83 8.83 0 0 0-4.82 7.37c-.21 3.76-.49 11.32-.69 17.33a4.91 4.91 0 0 0 7.2 4.51c60-31.53 120-55.1 171.46-67.56a19.23 19.23 0 0 0 14.5-21.37q-1.43-10.28-3.19-20.22a33.66 33.66 0 0 0-12.69-20.98 546.85 546.85 0 0 0-79.12-50 558.17 558.17 0 0 0-58.1-26.13 7.32 7.32 0 0 1-3.78-10.4c20.07-35.92 44-56 67.22-56h.72c27.45.49 54.81 29.06 75.08 78.4 10.25 25 18.2 53.77 23.63 85.07a.6.6 0 0 0-.08-.08c2.32 13.36 4.18 27.16 5.57 41.32l-.37.22.5.5a647.89 647.89 0 0 1 2.81 73.7c-.29 16-1.14 31.72-2.51 47.13-36.72 29.67-82.11 59.2-132 85.64-16.4 8.69-32.8 16.78-49 24.23l-.75.34-3.73 1.71q-20.17 9.12-39.88 16.85l-2.22.85-2.76 1.07q-3.3 1.27-6.57 2.49l-1.81.68c-2.65 1-5.29 1.94-7.92 2.88-.32.12-.65.25-1 .36-28.08 10-54.83 17.55-79.21 22.25-58.96 11.38-86.72 2.68-93.02-9.24zm81.19-115c26.11-21.26 56.7-42.47 90.25-62.55.72 42.92 5.43 84.12 13.76 121.34q-18.67-8-37.15-17.54a526.1 526.1 0 0 1-66.86-41.25zm171.33 207.59a300.77 300.77 0 0 1-38.22 2.44 294.28 294.28 0 0 1-160-46.77 4 4 0 0 1 2-7.33c.8 0 1.55-.07 2.21-.12a321.06 321.06 0 0 0 39.47-5.28c30.37-5.85 64.13-15.87 99.48-29.37a6.26 6.26 0 0 1 8 3.5v.06c13.7 33.35 30.56 58.56 49.49 74.59a4.73 4.73 0 0 1-2.43 8.28zm125.25-79.11c-21.15 41.6-47.2 64.95-72.45 64.48-27.44-.49-54.81-29.06-75.07-78.4a6.23 6.23 0 0 1 3.29-8.07l.65-.28a6.32 6.32 0 0 1 4.22-.29c37.9 10.64 75.25 16.19 110.25 16.19q5.7 0 11.32-.19 6.57-.24 12.93-.74a5.06 5.06 0 0 1 4.86 7.3zm9.12-35.78a257.52 257.52 0 0 1-27.87 2.45 347.35 347.35 0 0 1-74.62-6 3.34 3.34 0 0 1-.9-6.27q8.44-4.26 16.88-8.74a912.2 912.2 0 0 0 108.48-67.2 3.34 3.34 0 0 1 5.25 3.27 480.54 480.54 0 0 1-18.42 75.08 11 11 0 0 1-8.8 7.41zm43.73 23.5c-2.23 2.38-4.51 4.74-6.83 7q-6 6.06-12.39 11.71a3.3 3.3 0 0 1-5.19-3.84q.65-1.38 1.29-2.79 2.65-5.87 5.15-12a3.32 3.32 0 0 1 2.24-1.95q6.3-1.61 12.28-3.53a3.29 3.29 0 0 1 3.45 5.4zm59.54-94q-2.13 5.44-4.48 10.79c-.24.49-.47 1-.73 1.47-9.77 18.81-26.16 33.61-48.06 43.92a6.34 6.34 0 0 1-8.83-7.42 563.4 563.4 0 0 0 16.34-83.86 22.39 22.39 0 0 1 7.6-14.23c9-7.79 17.42-15.57 25.16-23.3l.08-.09a7.13 7.13 0 0 1 11.86 3c7.64 25.42 8.07 49.09 1.06 69.73zm5.93-138.8a6 6 0 0 1-10.32.33l-1.15-1.79a352.65 352.65 0 0 0-30.32-39.82 4.93 4.93 0 0 1 3.73-8.16h.1c26.54 0 40.45 6.55 44.7 14.56 3.47 6.69 2.41 18.4-6.74 34.89zm14.34 39.16a1.86 1.86 0 0 1-3.57.68l-1-2.39a4.43 4.43 0 0 1 .5-4.44l1.08-1.42c1.3-1.69 3.17-1.44 3.17.44-.04 2.47-.1 4.61-.18 7.14z" />
</svg>
