<svg xmlns="http://www.w3.org/2000/svg" fill="none" viewBox="0 0 31 31">
   <path
      fill="#fff"
      d="m26.47 10.01.05-.02.3-.1h.1c.17-.04.35-.06.53-.06 1.08 0 1.98-.34 2.61-.98.45-.46.74-1.05.84-1.74h.05V3.14h-6.61V6c-.02.2-.02.4-.01.56 0 .19 0 .36-.02.5l-.01.04a2.44 2.44 0 0 1-.76 1.47c-.43.39-.63.48-.7.5-.06.01-.16 0-.44-.03a6.92 6.92 0 0 0-.97-.08 3.37 3.37 0 0 0-3.34 3.01c-.04.4-.02.68 0 .9a1 1 0 0 1-.06.54c-.16.46-.5.9-.97 1.21-.47.32-1 .5-1.51.5h-.1c-.5 0-1.04-.18-1.5-.5a2.5 2.5 0 0 1-.98-1.2 1 1 0 0 1-.06-.55c.02-.22.04-.5 0-.9a3.37 3.37 0 0 0-3.34-3.01c-.4 0-.73.04-.97.08a1.3 1.3 0 0 1-.44.02 2.1 2.1 0 0 1-.7-.5c-.41-.38-.68-.9-.76-1.46v-.04a1.66 1.66 0 0 1-.02-.22V3.14H.06V6.5c0 .95.3 1.76.88 2.35.63.64 1.53.98 2.61.98.18 0 .36.02.54.05l.08.02c.08 0 .18.04.31.1l.05.01a2.7 2.7 0 0 1 .25 4.87l-.03.02a1.7 1.7 0 0 1-.35.15h-.04c-.26.1-.53.13-.8.13-2.1 0-3.51 1.3-3.51 3.24 0 1.51.68 2.3 1.25 2.69.7.47 1.55.6 2.35.68l.06.01c.21.03.4.07.6.15l.1.04h.02c.54.19 1 .57 1.28 1.08.16.29.27.66.31 1.06a13.77 13.77 0 0 1 .07.82v2.91h6.61v-3.89h-.04a3.38 3.38 0 0 0-1.15-2.08l-.03-.02c-.7-.62-1.63-.64-2.3-.65h-.02l-.31-.01-.1-.02-.22-.05-.2-.06-.22-.09c-.24-.1-.45-.24-.64-.4l-.05-.04a2.71 2.71 0 0 1-.92-2.08 2.75 2.75 0 0 1 1.96-2.64c.56-.17 1.6-.17 2.1-.01.93.3 1.58 1.15 1.63 2.12v.26c-.01.28-.03.67.14 1.17a3.37 3.37 0 0 0 3.17 2.3c1.44 0 2.71-.93 3.17-2.3.17-.5.15-.89.14-1.17v-.26c.05-.97.7-1.83 1.62-2.12.5-.16 1.55-.16 2.11 0a2.76 2.76 0 0 1 1.04 4.73l-.04.03c-.2.17-.41.3-.65.41l-.22.09-.2.06-.18.05-.14.02h-.32c-.68.02-1.6.04-2.31.66l-.03.02-.13.12a3.38 3.38 0 0 0-1 1.88h-.06v3.97h6.61v-2.91l.03-.37c0-.14.02-.3.04-.45a2.35 2.35 0 0 1 1.6-2.13l.1-.05c.22-.08.4-.12.61-.15h.06c.8-.08 1.65-.21 2.35-.7 1.03-.7 1.25-1.84 1.25-2.68 0-1.93-1.4-3.23-3.5-3.23-.28 0-.55-.05-.82-.13l-.03-.01a1.96 1.96 0 0 1-.35-.15l-.03-.02a2.7 2.7 0 0 1-.88-4c.3-.39.68-.69 1.13-.87z"
   />
</svg>
