<svg
   viewBox="0 0 31 31"
   fill="none"
   xmlns="http://www.w3.org/2000/svg">
  <path
     d="m 26.472078,10.01295 0.045,-0.01899 c 0.134,-0.05735 0.2324,-0.08866 0.3098,-0.09851 l 0.0851,-0.01443 c 0.1744,-0.03588 0.3544,-0.05382 0.5344,-0.05382 1.0828,0 1.987,-0.33739 2.6149,-0.97558 0.4517,-0.45946 0.736,-1.05578 0.8354,-1.74604 l 0.0551,7.1e-4 V 3.13785 h -6.6131 v 2.87113 c -0.016,0.20687 -0.0147,0.3972 -0.0133,0.56572 0.0014,0.18505 0.0025,0.3599 -0.0198,0.49253 l -0.0063,0.04222 c -0.0747,0.56079 -0.3457,1.08147 -0.7629,1.466 -0.4273,0.39403 -0.6272,0.48058 -0.6931,0.49922 -0.0663,0.019 -0.1626,0.0102 -0.441,-0.02744 -0.24,-0.03237 -0.5689,-0.07669 -0.9701,-0.07669 -1.7138,0 -3.1502,1.29396 -3.3414,3.01115 -0.0426,0.39051 -0.0185,0.68252 -0.0011,0.89536 0.0196,0.23677 0.0255,0.3082 -0.0565,0.5439 -0.1625,0.4633 -0.5086,0.8933 -0.9742,1.2102 -0.4657,0.317 -1.0019,0.4919 -1.5091,0.4919 l -0.0495,-7e-4 -0.0496,7e-4 c -0.5072,0 -1.0433,-0.1745 -1.509,-0.4919 -0.466,-0.3169 -0.8121,-0.7469 -0.9739,-1.2091 -0.0824,-0.2368 -0.0768,-0.30858 -0.0569,-0.5457 0.0175,-0.21285 0.0415,-0.5045 -10e-4,-0.89607 -0.1908,-1.71613 -1.6273,-3.0101 -3.3411,-3.0101 -0.4012,0 -0.73013,0.04433 -0.97187,0.07705 -0.27627,0.03729 -0.3729,0.04609 -0.43918,0.02709 C 8.091898,9.05532 7.892018,8.96913 7.464708,8.57475 7.047508,8.19057 6.776808,7.66989 6.701808,7.1091 L 6.695538,7.06688 C 6.684718,7.0025 6.679488,6.92827 6.677048,6.8477 V 3.13785 H 0.062524 v 3.36367 c -0.007674,0.94743 0.295464,1.76012 0.875914,2.35046 0.62754,0.63818 1.53171,0.97522 2.61448,0.97522 0.18,0 0.35965,0.01829 0.53476,0.05418 l 0.08477,0.01407 c 0.07709,0.0102 0.17546,0.04151 0.31045,0.09886 l 0.04431,0.01864 c 0.44824,0.17872 0.84103,0.47812 1.13579,0.86616 0.72556,0.95412 0.72766,2.28924 0.00558,3.24614 -0.23651,0.3138 -0.54418,0.5756 -0.88917,0.7575 l -0.03105,0.0169 c -0.09453,0.052 -0.17895,0.0907 -0.25639,0.1178 -0.03453,0.012 -0.06558,0.0218 -0.09453,0.0303 l -0.03279,0.0098 c -0.26092,0.0845 -0.53406,0.127 -0.81138,0.127 -2.09647,0 -3.505046,1.3003 -3.505046,3.2356 0,1.5107 0.683006,2.2946 1.255786,2.6861 0.69906,0.4778 1.54218,0.6132 2.34938,0.6878 l 0.05581,0.0064 c 0.21418,0.0281 0.39487,0.0724 0.60243,0.1477 l 0.10011,0.0384 0.0171,0.0063 c 0.54347,0.1872 0.9987,0.5696 1.2823,1.0772 0.16011,0.2868 0.27104,0.6622 0.3122,1.0565 0.01605,0.1552 0.02686,0.3054 0.03732,0.4539 0.00803,0.1129 0.0171,0.2396 0.02931,0.3669 v 2.9137 h 6.61311 v -3.8907 l -0.0467,-7e-4 c -0.1089,-0.7483 -0.4612,-1.4336 -1.0186,-1.9659 -0.0492,-0.0464 -0.0945,-0.0858 -0.1308,-0.1172 l -0.0224,-0.0193 c -0.7116,-0.622 -1.637,-0.6385 -2.313,-0.6509 h -0.0074 c -0.11299,-0.0021 -0.22008,-0.0042 -0.31462,-0.0087 l -0.10151,-0.0159 -0.21732,-0.0489 -0.20476,-0.0637 -0.22081,-0.0886 c -0.23128,-0.1059 -0.4472,-0.2438 -0.63871,-0.4081 l -0.04291,-0.0373 c -0.61184,-0.5517 -0.91533,-1.2317 -0.92788,-2.0785 0.00174,-0.6051 0.1936,-1.1786 0.55498,-1.6588 0.35232,-0.4679 0.8515,-0.8162 1.40544,-0.9809 0.56092,-0.1664 1.6071,-0.1706 2.1115,-0.008 0.9191,0.2958 1.5715,1.1465 1.6227,2.1168 0.0042,0.0802 0.0011,0.1643 -0.0024,0.2628 -0.0105,0.2846 -0.0248,0.6744 0.1381,1.1673 0.4608,1.3714 1.7355,2.2963 3.1754,2.3019 1.4362,-0.0056 2.7104,-0.9309 3.1723,-2.3043 0.1622,-0.4901 0.1479,-0.8799 0.1374,-1.1659 -0.0035,-0.0975 -0.0066,-0.1816 -0.0024,-0.2614 0.0513,-0.9703 0.7036,-1.8214 1.6227,-2.1169 0.5045,-0.1625 1.5503,-0.1583 2.1112,0.0081 0.5543,0.165 1.0538,0.5133 1.4058,0.9812 0.3613,0.4802 0.5532,1.0537 0.5549,1.6588 -0.0125,0.8468 -0.316,1.5269 -0.9282,2.0788 l -0.0391,0.0342 c -0.1946,0.1667 -0.4109,0.305 -0.6422,0.4109 l -0.2204,0.0886 -0.2048,0.0637 -0.1779,0.0415 -0.1409,0.0233 c -0.0942,0.0045 -0.2016,0.0066 -0.3147,0.0088 h -0.0073 c -0.676,0.0123 -1.6015,0.0288 -2.3113,0.6494 l -0.0245,0.0215 c -0.0362,0.0313 -0.0812,0.0703 -0.1315,0.1178 -0.5368,0.5126 -0.8835,1.1701 -1.0046,1.8889 h -0.0593 v 3.9674 h 6.6131 v -2.9137 c 0.0122,-0.127 0.0213,-0.254 0.0293,-0.367 0.0105,-0.146 0.0213,-0.2969 0.0374,-0.4531 0.0411,-0.3951 0.152,-0.7705 0.3122,-1.0572 0.2836,-0.5073 0.7388,-0.8897 1.2823,-1.0773 l 0.1172,-0.0446 c 0.2075,-0.075 0.3882,-0.1193 0.6027,-0.1478 l 0.0555,-0.0063 c 0.8072,-0.0746 1.6503,-0.2101 2.3494,-0.6878 1.0381,-0.7093 1.2558,-1.8523 1.2558,-2.6861 0,-1.9353 -1.4086,-3.2356 -3.5051,-3.2356 -0.2773,0 -0.5504,-0.0429 -0.8114,-0.127 l -0.0327,-0.0099 c -0.029,-0.0084 -0.06,-0.0183 -0.0925,-0.0295 -0.0795,-0.0275 -0.1639,-0.0665 -0.2606,-0.1196 l -0.0289,-0.0159 c -0.345,-0.1819 -0.6527,-0.4436 -0.8895,-0.7574 -0.7221,-0.9569 -0.72,-2.29207 0.0056,-3.24618 0.2947,-0.3877 0.6875,-0.68744 1.1357,-0.86581 z"
     fill="white"
     id="path1" />
</svg>
