<svg xmlns="http://www.w3.org/2000/svg" viewBox="0 0 41 41" fill="none">
  <path xmlns="http://www.w3.org/2000/svg" d="M35.012 0.00086924C33.5094 0.00477842 32.0695 0.603991 31.0078 1.66728C29.9461 2.73057 29.349 4.17127 29.3473 5.67386V8.65709C27.6762 5.25366 24.814 2.58191 21.3036 1.14863C17.7933 -0.284654 13.879 -0.379789 10.3032 0.881271C7.29137 1.94905 4.68395 3.92309 2.83911 6.53227C0.994272 9.14146 0.00249575 12.2578 0 15.4533L0 35.0121C0 36.5173 0.597924 37.9607 1.66224 39.025C2.72655 40.0893 4.17006 40.6872 5.67523 40.6872C7.18039 40.6872 8.62391 40.0893 9.68822 39.025C10.7525 37.9607 11.3505 36.5173 11.3505 35.0121V32.0352C13.0212 35.4374 15.8826 38.1079 19.3919 39.54C22.9012 40.9722 26.8141 41.0664 30.3882 39.8047C33.3991 38.7373 36.0057 36.7638 37.8498 34.1553C39.6939 31.5469 40.6851 28.4314 40.6872 25.2369V5.67386C40.685 4.16961 40.0863 2.72764 39.0224 1.66417C37.9585 0.600704 36.5163 0.00254456 35.012 0.00086924ZM25.2345 39.1164C22.2676 39.1288 19.3757 38.1854 16.9868 36.426C14.598 34.6665 12.8393 32.1845 11.9712 29.3476L11.948 29.2652C11.5495 27.9597 11.3482 26.6019 11.3505 25.2369V15.4533C11.3516 14.3647 11.7846 13.3211 12.5546 12.5516C13.3245 11.7821 14.3684 11.3495 15.457 11.349C16.5445 11.3518 17.5866 11.7851 18.3554 12.5543C19.1242 13.3235 19.557 14.3658 19.5593 15.4533V25.2327C19.5611 26.7377 20.1602 28.1805 21.2251 29.2441C22.0196 30.0352 23.0304 30.5734 24.1302 30.7909C25.23 31.0085 26.3696 30.8957 27.4054 30.4668C28.4412 30.0378 29.3269 29.3119 29.9509 28.3805C30.5749 27.4491 30.9092 26.3538 30.9118 25.2327V5.67386C30.9118 5.13515 31.0179 4.60172 31.2241 4.10402C31.4303 3.60631 31.7324 3.15409 32.1134 2.77317C32.4943 2.39224 32.9465 2.09007 33.4442 1.88392C33.9419 1.67776 34.4754 1.57166 35.0141 1.57166C35.5528 1.57166 36.0863 1.67776 36.584 1.88392C37.0817 2.09007 37.5339 2.39224 37.9149 2.77317C38.2958 3.15409 38.598 3.60631 38.8041 4.10402C39.0103 4.60172 39.1164 5.13515 39.1164 5.67386V25.2327C39.1178 27.0562 38.7597 28.862 38.0626 30.5469C37.3655 32.2319 36.343 33.7629 35.0537 35.0523C33.7644 36.3418 32.2335 37.3645 30.5487 38.0618C28.8638 38.7592 27.058 39.1176 25.2345 39.1164ZM29.3473 25.2327C29.3465 26.0439 29.1055 26.8367 28.6548 27.5112C28.2041 28.1856 27.5637 28.7116 26.8146 29.0227C26.0654 29.3338 25.2409 29.4162 24.4449 29.2595C23.649 29.1028 22.9173 28.714 22.342 28.142C21.9207 27.7247 21.5957 27.2203 21.3898 26.6642C21.3518 26.5649 21.318 26.453 21.2842 26.3411L21.2715 26.2841L21.2589 26.2313C21.2399 26.1574 21.2209 26.0835 21.2082 26.0054C21.2082 25.978 21.2082 25.9484 21.1934 25.9189V25.8745C21.1934 25.8049 21.1723 25.7352 21.166 25.6634C21.1596 25.5916 21.166 25.5768 21.166 25.5198C21.166 25.4628 21.166 25.3784 21.166 25.3087V15.4533C21.1646 14.7055 21.0157 13.9653 20.728 13.275C20.4402 12.5848 20.0191 11.9581 19.4888 11.4308C18.9586 10.9035 18.3295 10.4859 17.6377 10.2019C16.9458 9.91801 16.2048 9.77329 15.457 9.77607C13.9518 9.77774 12.5087 10.3764 11.4443 11.4407C10.38 12.5051 9.78131 13.9481 9.77963 15.4533V35.0121C9.77963 36.1007 9.3472 37.1446 8.57748 37.9143C7.80775 38.684 6.76378 39.1164 5.67523 39.1164C4.58667 39.1164 3.5427 38.684 2.77297 37.9143C2.00325 37.1446 1.57082 36.1007 1.57082 35.0121V15.4533C1.57326 12.1249 2.77114 8.9082 4.94629 6.38892C7.12145 3.86964 10.1292 2.21543 13.4216 1.72758C16.7141 1.23974 20.0723 1.9507 22.8845 3.731C25.6968 5.51129 27.776 8.24246 28.7435 11.4271L28.8005 11.6129C29.1618 12.8611 29.3459 14.1539 29.3473 15.4533V25.2327Z" fill="white" />
</svg>
