<svg xmlns="http://www.w3.org/2000/svg" fill="none" viewBox="0 0 41 41">
  <path 
    xmlns="http://www.w3.org/2000/svg" 
    fill="#fff"
    d="M35.01 0a5.68 5.68 0 0 0-5.66 5.67v2.99A15.48 15.48 0 0 0 2.84 6.53 15.47 15.47 0 0 0 0 15.45v19.56a5.67 5.67 0 1 0 11.35 0v-2.97a15.47 15.47 0 0 0 29.34-6.8V5.67A5.68 5.68 0 0 0 35 0Zm-9.78 39.12a13.81 13.81 0 0 1-13.26-9.77l-.02-.08c-.4-1.31-.6-2.67-.6-4.03v-9.79a4.1 4.1 0 0 1 8.2 0v9.78a5.68 5.68 0 0 0 11.36 0V5.67a4.1 4.1 0 1 1 8.2 0v19.56a13.87 13.87 0 0 1-13.88 13.89Zm4.12-13.89a4.1 4.1 0 0 1-7.96 1.43l-.1-.32-.02-.06-.01-.05a2.53 2.53 0 0 1-.05-.22c0-.03 0-.06-.02-.1v-.04l-.02-.2V15.44a5.69 5.69 0 0 0-11.39 0v19.56a4.1 4.1 0 1 1-8.2 0V15.45a13.89 13.89 0 0 1 27.16-4.02l.06.18c.36 1.25.55 2.54.55 3.84v9.78Z" />
</svg>
