<?xml version="1.0" encoding="utf-8"?>
<svg version="1.1" id="Layer_1" xmlns="http://www.w3.org/2000/svg" xmlns:xlink="http://www.w3.org/1999/xlink" x="0px" y="0px"
	 viewBox="0 0 84 81.1" style="enable-background:new 0 0 84 81.1;" xml:space="preserve">
<style type="text/css">
	.st0{fill:#FFFFFF;}
</style>
<g>
	<path class="st0" d="M10.3,31.3c-3.2-3-5.4-6.9-5.4-11.5v-0.5c0.3-7.8,6.7-14.2,14.5-14.4h49.9c1.3,0.1,2.3,1,2.3,2.3v42.3
		c1.1,0.2,1.7,0.4,2.8,0.7c0.9,0.3,2.1,1,2.1,1v-44c-0.1-4-3.3-7.2-7.3-7.2H19.4C8.6,0.2,0,9,0,19.8c0,6.3,2.9,11.7,7.5,15.4
		c0.3,0.3,0.6,0.6,1.5,0.6c1.5,0,2.5-1.2,2.4-2.4C11.4,32.3,11,31.9,10.3,31.3z"/>
	<path class="st0" d="M68,52.3H28.9c-2.6,0-4.7,2.1-4.7,4.8v5.6c0.1,2.6,2.3,4.8,4.9,4.8H32v-4.8h-2.9v-5.5c0,0,0.7,0,1.6,0
		c4.9,0,8.6,4.6,8.6,9.5c0,4.4-4,9.9-10.6,9.5c-5.9-0.4-9.1-5.6-9.1-9.5V19c0-2.1-1.8-3.9-3.9-3.9h-3.9v4.9h2.9v46.8
		c-0.2,9.5,6.8,14.3,14,14.3l39.4,0.1c7.9,0,14.4-6.4,14.4-14.4C82.4,58.7,76,52.3,68,52.3z M77.5,67c-0.2,5.1-4.4,9.2-9.5,9.2
		l-27.4-0.1c2.2-2.5,3.5-5.8,3.5-9.4c0-5.6-3.3-9.5-3.3-9.5h27.3c5.2,0,9.5,4.3,9.5,9.5L77.5,67z"/>
	<path class="st0" d="M57.5,20.8H28v-4.9h29.5c1.3,0,2.4,1.1,2.4,2.4C59.9,19.7,58.9,20.8,57.5,20.8z"/>
	<path class="st0" d="M57.5,43.8H28v-4.9h29.5c1.3,0,2.4,1.1,2.4,2.4C59.9,42.7,58.9,43.8,57.5,43.8z"/>
	<path class="st0" d="M62.7,32.3H28v-4.9h34.7c1.3,0,2.4,1.1,2.4,2.4C65.1,31.2,64,32.3,62.7,32.3z"/>
</g>
</svg>
