<?xml version="1.0"?>
<svg xmlns="http://www.w3.org/2000/svg" viewBox="0 0 284 284" fill="none">
  <path d="M241.422 41.5659C214.698 14.8136 179.198 0.0927734 141.433 0.0927734C63.4411 0.0927734 0 63.5905 0 141.639C0 219.688 63.4411 283.186 141.433 283.186C179.198 283.186 214.726 268.465 241.422 241.713C268.146 214.96 282.838 179.432 282.838 141.639C282.838 103.846 268.146 68.2898 241.422 41.5659ZM141.433 273.391C68.8482 273.391 9.79502 214.281 9.79502 141.639C9.79502 68.9976 68.8482 9.88779 141.433 9.88779C214.018 9.88779 273.071 68.9976 273.071 141.639C273.071 214.281 214.018 273.391 141.433 273.391Z" fill="white"/>
  <path d="M187.862 144.98C178.803 136.884 166.941 131.477 155.447 126.239L155.363 126.211C135.093 116.954 117.57 108.942 118.815 90.0034C119.353 82.7845 124.59 78.4249 128.893 76.0752C133.734 73.4142 140.16 71.8289 146.105 71.8289C146.813 71.8289 147.521 71.8572 148.2 71.8855C165.497 73.0461 179.142 80.3783 192.476 95.6087L193.269 96.5429L194.203 95.7502L199.412 91.2207L200.346 90.3997L199.525 89.4655C184.663 72.4233 168.526 63.8456 148.795 62.5151C147.945 62.4302 147.04 62.4019 146.049 62.4019C145.454 62.4019 144.803 62.4019 144.124 62.4302H143.274C130.337 62.4302 116.154 66.6766 105.368 73.8105C92.4876 82.3316 85.2687 94.0516 85.0706 106.819C84.561 137.874 109.954 148.321 132.347 157.578L132.404 157.606L132.63 157.691C152.447 165.901 169.545 172.978 169.177 191.945C169.008 204.458 151.116 211.365 138.83 211.365H138.32H137.103V211.394C118.787 210.856 102.424 202.957 88.4677 187.982L87.6184 187.076L86.7125 187.897L81.6452 192.596L80.7393 193.446L81.5885 194.351C97.4417 211.422 117.003 220.594 138.179 220.849H139.141C152.815 220.849 167.677 217.169 178.888 210.969C192.929 203.297 201.11 192.115 201.96 179.489C202.922 165.618 198.308 154.322 187.862 144.98ZM122.127 117.973C130.196 124.88 141.123 129.835 151.682 134.619L151.88 134.704C163.063 139.856 173.65 144.725 181.322 151.491C189.815 158.965 193.41 167.627 192.646 178.753C191.938 189.765 183.757 197.126 176.311 201.57C177.755 198.626 178.548 195.427 178.633 192.03C178.803 180.593 174.415 171.449 165.186 164.032C157.118 157.549 146.417 153.161 136.056 148.887C114.512 140.026 94.1579 131.646 94.5259 106.904C94.6391 97.3921 100.358 88.3898 110.634 81.5672C110.974 81.3408 111.313 81.1143 111.681 80.8878C110.464 83.5489 109.785 86.3232 109.615 89.2391C108.794 100.704 112.899 110.103 122.127 117.973Z" fill="white"/>
</svg>
