<svg
   viewBox="0 0 530 530"
   xml:space="preserve"
   id="svg9"
   xmlns="http://www.w3.org/1999/xhtml">
 <style
   type="text/css"
   id="style1">
	.st0{fill:#FFFFFF;}
</style>
<g
   id="Layer_1"
   transform="translate(0.5,64.75)">
	<g
   id="g9">
		<g
   id="g4">
			<path
   class="st0"
   d="m 264.5,20.6 c 81,0 149.7,54 172,127.8 8.7,5.4 17.2,11 25.2,16.8 C 445.1,71.5 363,0 264.5,0 171.8,0 93.6,63.4 70.9,149.1 c 5.5,4.7 11.5,9.4 17.9,14.1 C 105.9,81.9 178.2,20.6 264.5,20.6 Z"
   id="path1" />
			<path
   class="st0"
   d="m 440.2,237.3 c -17.1,81.3 -89.4,142.5 -175.7,142.5 -81,0 -149.7,-54 -172,-127.8 -8.7,-5.4 -17.2,-11 -25.2,-16.8 16.6,93.8 98.7,165.3 197.2,165.3 92.7,0 170.9,-63.4 193.6,-149.1 -5.5,-4.7 -11.5,-9.4 -17.9,-14.1 z"
   id="path2" />
			<path
   class="st0"
   d="m 457.8,340.3 c 35.1,0 59.1,-12.3 67.7,-34.7 11.7,-30.4 -8.4,-62.4 -27.4,-83.9 -24.2,-27.4 -61.9,-54.9 -103.4,-75.3 -70,-34.4 -137.1,-43.9 -171,-24.2 -4,2.3 -7,6.3 -8.3,11.1 -1.4,4.8 -1,10 1.1,14.5 2.1,4.5 5.5,7.9 9.8,9.4 4.3,1.6 8.8,1.1 12.8,-1.2 20.7,-12 76.2,-7.2 142.2,25.2 5.1,2.5 10.2,5.2 15.2,7.9 32.4,16.6 61.4,36.6 81.7,56.2 33.7,32.6 34.5,55.7 29.3,69.4 -6,15.6 -26.4,23.5 -60.6,23.5 -6.5,0 -13.5,-0.3 -20.9,-0.9 11.2,2 21.8,3 31.8,3 z"
   id="path3" />
			<path
   class="st0"
   d="m 71.2,60.2 c -35.1,0 -59.1,12.3 -67.7,34.7 -11.7,30.4 8.4,62.4 27.4,83.9 24.2,27.4 61.9,54.9 103.4,75.3 70,34.4 137.1,43.9 171,24.2 4,-2.3 7,-6.3 8.3,-11.1 1.4,-4.8 1,-10 -1.1,-14.5 -2.1,-4.5 -5.5,-7.9 -9.8,-9.4 -4.3,-1.6 -8.8,-1.1 -12.8,1.2 -20.7,12 -76.2,7.2 -142.2,-25.2 -5.1,-2.5 -10.2,-5.2 -15.2,-7.9 C 100.1,194.8 71.1,174.8 50.8,155.2 17.1,122.6 16.3,99.5 21.5,85.8 c 6,-15.6 26.4,-23.5 60.6,-23.5 6.5,0 13.5,0.3 20.9,0.9 -11.2,-2.1 -21.8,-3 -31.8,-3 z"
   id="path4" />
		</g>
		
	</g>
</g>

</svg>
