<svg width="400" height="400" viewBox="0 0 400 400" fill="none" xmlns="http://www.w3.org/2000/svg">
<g clip-path="url(#clip0_228_775)">
<g clip-path="url(#clip1_228_775)">
<path d="M400 200C400 89.5431 310.457 0 200 0C89.5431 0 0 89.5431 0 200C0 310.457 89.5431 400 200 400C310.457 400 400 310.457 400 200Z" fill="white"/>
<mask id="mask0_228_775" style="mask-type:luminance" maskUnits="userSpaceOnUse" x="204" y="131" width="140" height="139">
<path d="M343.423 204.035C341.663 240.773 311.263 270 274.173 270C237.083 270 204.805 238.896 204.805 200.632C204.805 162.368 235.791 131.264 274.173 131.264C312.554 131.264 339.785 158.612 343.188 193.707H311.732C308.446 175.983 292.952 162.485 274.173 162.485C255.393 162.485 236.026 179.622 236.026 200.632C236.026 221.642 253.163 238.778 274.173 238.778C295.183 238.778 304.22 228.684 309.737 214.482H256.801V204.035H343.423Z" fill="white"/>
</mask>
<g mask="url(#mask0_228_775)">
<mask id="mask1_228_775" style="mask-type:luminance" maskUnits="userSpaceOnUse" x="56" y="119" width="288" height="161">
<path d="M136.727 119.526H263.725C307.975 119.526 343.892 155.443 343.892 199.693C343.892 243.943 307.975 279.859 263.725 279.859H136.727C92.477 279.742 56.5605 243.943 56.5605 199.693C56.5605 155.443 92.477 119.526 136.727 119.526Z" fill="white"/>
</mask>
<g mask="url(#mask1_228_775)">
<path d="M136.727 119.526H263.725C307.975 119.526 343.892 155.443 343.892 199.693C343.892 243.943 307.975 279.859 263.725 279.859H136.727C92.477 279.742 56.5605 243.943 56.5605 199.693C56.5605 155.443 92.477 119.526 136.727 119.526Z" fill="black"/>
</g>
</g>
<mask id="mask2_228_775" style="mask-type:luminance" maskUnits="userSpaceOnUse" x="57" y="131" width="139" height="139">
<path d="M79.9198 251.807C107.151 276.456 149.288 275.634 175.462 249.46C202.576 222.346 202.576 178.448 175.462 151.335C148.349 124.222 104.451 124.222 77.3376 151.335C51.8675 176.805 50.3416 217.064 72.6427 244.295L94.9437 221.994C84.7322 207.088 86.1407 186.665 99.4039 173.401C114.31 158.495 138.489 158.495 153.396 173.401C168.302 188.308 168.302 212.487 153.396 227.393C142.011 238.779 125.109 241.478 111.141 235.375L148.584 197.932L141.189 190.538L79.9198 251.807Z" fill="white"/>
</mask>
<g mask="url(#mask2_228_775)">
<mask id="mask3_228_775" style="mask-type:luminance" maskUnits="userSpaceOnUse" x="56" y="119" width="288" height="161">
<path d="M136.727 119.526H263.725C307.975 119.526 343.892 155.443 343.892 199.693C343.892 243.943 307.975 279.859 263.725 279.859H136.727C92.477 279.742 56.5605 243.943 56.5605 199.693C56.5605 155.443 92.477 119.526 136.727 119.526Z" fill="white"/>
</mask>
<g mask="url(#mask3_228_775)">
<path d="M136.727 119.526H263.725C307.975 119.526 343.892 155.443 343.892 199.693C343.892 243.943 307.975 279.859 263.725 279.859H136.727C92.477 279.742 56.5605 243.943 56.5605 199.693C56.5605 155.443 92.477 119.526 136.727 119.526Z" fill="black"/>
</g>
</g>
</g>
</g>
<defs>
<clipPath id="clip0_228_775">
<rect width="400" height="400" fill="white"/>
</clipPath>
<clipPath id="clip1_228_775">
<rect width="400" height="400" fill="white"/>
</clipPath>
</defs>
</svg>
