<svg width="400" height="400" viewBox="0 0 400 400" fill="none" xmlns="http://www.w3.org/2000/svg">
<g clip-path="url(#clip0_222_450)">
<g clip-path="url(#clip1_222_450)">
<path d="M400 200C400 89.543 310.457 0 200 0C89.543 0 0 89.543 0 200C0 310.457 89.543 400 200 400C310.457 400 400 310.457 400 200Z" fill="white"/>
<path d="M263.9 161.001H243.35C240.96 161.001 238.68 159.971 237.09 158.181L228.76 148.771C227.52 147.371 225.73 146.561 223.86 146.561C221.99 146.561 220.2 147.361 218.96 148.771L211.81 156.851C209.47 159.491 206.11 161.011 202.58 161.011H90.12C86.92 170.141 84.83 179.781 84 189.791H190.17C192.04 189.791 193.82 189.031 195.11 187.681L205 177.371C206.23 176.081 207.94 175.351 209.72 175.351H210.13C212 175.351 213.79 176.151 215.03 177.561L223.36 186.971C224.95 188.761 227.22 189.791 229.62 189.791H316.28C315.45 179.781 313.36 170.141 310.16 161.011H263.9V161.001Z" fill="black"/>
<path d="M148.259 250.28C150.129 250.28 151.909 249.52 153.199 248.17L163.089 237.86C164.319 236.57 166.029 235.84 167.809 235.84H168.219C170.089 235.84 171.879 236.64 173.119 238.05L181.449 247.46C183.039 249.25 185.309 250.28 187.709 250.28H305.149C309.549 241.19 312.769 231.43 314.689 221.22H201.969C199.579 221.22 197.299 220.19 195.709 218.4L187.379 208.99C186.139 207.59 184.349 206.78 182.479 206.78C180.609 206.78 178.819 207.58 177.579 208.99L170.429 217.07C168.089 219.71 164.729 221.23 161.199 221.23H85.6094C87.5294 231.45 90.7494 241.2 95.1494 250.29H148.259V250.28Z" fill="black"/>
<path d="M231.569 129.56C233.439 129.56 235.219 128.8 236.509 127.45L246.399 117.14C247.629 115.85 249.339 115.12 251.119 115.12H251.529C253.399 115.12 255.189 115.92 256.429 117.33L264.759 126.74C266.349 128.53 268.619 129.56 271.019 129.56H293.349C272.079 101.29 238.249 83 200.149 83C162.049 83 128.219 101.29 106.949 129.56H231.579H231.569Z" fill="black"/>
<path d="M186.712 279.09H156.172C153.782 279.09 151.502 278.06 149.912 276.27L141.582 266.86C140.342 265.46 138.552 264.65 136.682 264.65C134.812 264.65 133.022 265.45 131.782 266.86L124.632 274.94C122.292 277.58 118.932 279.1 115.402 279.1H114.922C136.202 301.9 166.492 316.17 200.142 316.17C233.792 316.17 264.082 301.9 285.362 279.1H186.712V279.09Z" fill="black"/>
</g>
</g>
<defs>
<clipPath id="clip0_222_450">
<rect width="400" height="400" fill="white"/>
</clipPath>
<clipPath id="clip1_222_450">
<rect width="400" height="400" fill="white"/>
</clipPath>
</defs>
</svg>
