<svg width="400" height="400" viewBox="0 0 400 400" fill="none" xmlns="http://www.w3.org/2000/svg">
<g clip-path="url(#clip0_795_146)">
<path d="M200 400C310.457 400 400 310.457 400 200C400 89.543 310.457 0 200 0C89.543 0 0 89.543 0 200C0 310.457 89.543 400 200 400Z" fill="white"/>
<path d="M288.012 99H111.988C104.815 99 99 104.815 99 111.988V288.012C99 295.185 104.815 301 111.988 301H288.012C295.185 301 301 295.185 301 288.012V111.988C301 104.815 295.185 99 288.012 99Z" fill="black"/>
</g>
<defs>
<clipPath id="clip0_795_146">
<rect width="400" height="400" fill="white"/>
</clipPath>
</defs>
</svg>
