<svg width="400" height="400" viewBox="0 0 400 400" fill="none" xmlns="http://www.w3.org/2000/svg">
<path d="M200 400C310.457 400 400 310.457 400 200C400 89.5432 310.457 0 200 0C89.5432 0 0 89.5432 0 200C0 310.457 89.5432 400 200 400Z" fill="white"/>
<path d="M124.852 158.317V219.296C124.852 221.395 126.552 223.096 128.652 223.096H189.631C191.73 223.096 193.431 221.395 193.431 219.296V158.317C193.431 156.217 191.73 154.517 189.631 154.517H128.652C126.552 154.517 124.852 156.217 124.852 158.317Z" fill="black"/>
<path d="M124.874 244.014V304.994C124.874 307.093 126.576 308.794 128.675 308.794H189.654C191.753 308.794 193.454 307.093 193.454 304.994V244.014C193.454 241.915 191.753 240.214 189.654 240.214H128.675C126.576 240.214 124.874 241.915 124.874 244.014Z" fill="black"/>
<path d="M210.564 244.019V304.999C210.564 307.098 212.265 308.799 214.364 308.799H275.344C277.443 308.799 279.144 307.098 279.144 304.999V244.019C279.144 241.92 277.443 240.219 275.344 240.219H214.364C212.265 240.219 210.564 241.92 210.564 244.019Z" fill="black"/>
<path d="M210.564 158.296V219.277C210.564 221.375 212.265 223.076 214.364 223.076H275.344C277.443 223.076 279.144 221.375 279.144 219.277V158.296C279.144 156.198 277.443 154.496 275.344 154.496H214.364C212.265 154.496 210.564 156.198 210.564 158.296Z" fill="black"/>
<path d="M189.631 68.7979H128.652C126.552 68.7979 124.852 70.4993 124.852 72.5979V133.578C124.852 135.677 126.552 137.378 128.652 137.378H189.631C191.73 137.378 193.431 135.677 193.431 133.578V72.5979C193.431 70.4993 191.73 68.7979 189.631 68.7979Z" fill="black"/>
</svg>
