<svg width="400" height="400" viewBox="0 0 400 400" fill="none" xmlns="http://www.w3.org/2000/svg">
<g clip-path="url(#clip0_688_173)">
<g clip-path="url(#clip1_688_173)">
<path fill-rule="evenodd" clip-rule="evenodd" d="M200 0C310.465 0 400 89.5353 400 200C400 310.465 310.465 400 200 400C89.5353 400 0 310.465 0 200C0 89.5353 89.5353 0 200 0Z" fill="white"/>
<path d="M109.92 200L110.064 252.885L155 279.327V310.289L83.766 268.51V184.536L109.92 200ZM109.92 147.116V177.933L83.75 162.452V131.635L109.92 116.154L136.218 131.635L109.92 147.116ZM173.766 131.635L199.936 116.154L226.234 131.635L199.936 147.116L173.766 131.635Z" fill="black"/>
<path d="M128.832 241.924V210.962L155.002 226.443V257.26L128.832 241.924ZM173.768 290.417L199.938 305.898L226.236 290.417V321.234L199.938 336.715L173.768 321.234V290.417ZM263.768 131.635L289.938 116.154L316.236 131.635V162.452L289.938 177.933V147.116L263.768 131.635ZM289.938 252.885L290.082 200L316.252 184.52V268.494L245.018 310.273V279.311L289.938 252.885Z" fill="black"/>
<path d="M271.17 241.922L245 257.259V226.442L271.17 210.961V241.922Z" fill="black"/>
<path d="M271.172 158.077L271.316 189.038L226.252 215.481V268.493L200.082 283.83L173.912 268.493V215.481L128.848 189.038V158.077L155.13 142.596L199.922 169.167L244.986 142.596L271.284 158.077H271.172ZM128.832 105.208L199.938 63.2852L271.172 105.208L245.002 120.689L199.938 94.1185L155.002 120.689L128.832 105.208Z" fill="black"/>
</g>
</g>
<defs>
<clipPath id="clip0_688_173">
<rect width="400" height="400" fill="white"/>
</clipPath>
<clipPath id="clip1_688_173">
<rect width="400" height="400" fill="white"/>
</clipPath>
</defs>
</svg>
