<svg width="400" height="400" viewBox="0 0 400 400" fill="none" xmlns="http://www.w3.org/2000/svg">
<g clip-path="url(#clip0_221_107)">
<circle cx="200" cy="200" r="200" fill="white"/>
<path d="M320.118 113.841C317.426 103.453 308.766 93.0654 293.173 81.5008C280.665 72.2894 267.383 67 256.794 67C254.674 67 252.755 67.1908 250.826 67.583C246.014 68.5582 241.784 72.088 239.081 77.388C235.806 83.6632 235.043 92.0902 237.152 97.1888C237.926 98.7576 238.88 100.719 240.035 102.478C229.838 108.753 224.061 110.513 223.287 110.714C249.851 119.735 271.984 138.55 285.848 163.047L286.039 160.693C286.611 154.227 288.541 146.776 291.233 139.133C293.925 139.917 296.618 140.31 299.321 140.31C306.444 140.31 312.603 137.373 316.451 132.073C320.32 126.784 321.856 119.724 320.118 113.841Z" fill="black"/>
<path d="M292.409 133.451C309.921 138.348 317.044 124.632 314.733 115.42C312.231 106.209 304.144 96.7963 289.908 86.2175C275.661 75.6281 261.224 71.3245 251.992 73.2855C242.748 75.2465 240.056 89.5565 242.367 95.0473C243.331 97.1991 245.451 100.337 248.335 103.866C244.678 106.41 241.211 108.372 238.328 110.142C256.041 118.177 271.432 130.727 282.986 146.404C284.332 141.115 286.261 136.408 287.989 132.296C289.325 132.465 290.862 132.858 292.409 133.451Z" fill="white"/>
<path d="M263.916 92.6729C267.764 94.2417 272.767 96.9871 278.926 101.1C286.24 105.997 292.589 111.488 296.639 115.802C289.897 124.823 285.477 137.172 282.784 145.79C284.131 147.751 285.668 149.712 287.024 151.673C288.371 146.775 290.681 139.514 293.766 132.264C294.54 132.465 295.494 132.465 296.458 132.465C298.769 132.465 301.462 132.073 303.582 130.313C305.119 129.137 306.857 126.985 306.666 123.063C306.666 119.343 303.783 114.636 297.815 108.954C293.575 104.842 287.809 100.326 282.032 96.2133C265.475 85.0409 253.931 81.9033 248.737 87.1927C245.271 90.7225 245.653 95.0367 246.808 98.1743C240.649 102.287 235.455 105.234 231.989 107.195C234.3 107.979 236.42 108.955 238.731 109.94C244.858 106.591 253.719 100.909 263.916 92.6729ZM300.296 120.71C300.868 121.685 301.069 122.671 301.069 123.254C301.069 125.014 300.497 125.607 300.105 125.999C299.331 126.582 297.794 126.974 296.448 126.974C297.603 124.621 298.949 122.66 300.296 120.71ZM252.755 91.4963C253.327 90.9133 254.875 90.5211 257.376 90.9133C255.447 92.4821 253.528 93.8495 251.599 95.2275C251.408 93.8495 251.599 92.4821 252.755 91.4963Z" fill="black"/>
<path d="M192.123 99.9238C129.18 99.9238 78.1729 151.864 78.1729 215.962C78.1729 280.06 129.18 332 192.123 332C255.066 332 306.073 280.06 306.073 215.962C306.073 151.874 254.875 99.9238 192.123 99.9238ZM192.123 325.534C132.646 325.534 84.5223 276.53 84.5223 215.962C84.5223 155.394 132.646 106.39 192.123 106.39C251.599 106.39 299.723 155.394 299.723 215.962C299.713 276.53 251.409 325.534 192.123 325.534Z" fill="black"/>
<path d="M190.933 312.533C132.192 302.899 92.3205 246.463 101.952 186.486C106.194 159.943 119.283 137.324 137.782 121C110.808 136.941 90.7825 164.664 85.3836 198.492C75.9434 258.469 115.815 314.905 174.365 324.539C207.109 330.048 238.697 319.626 262 299.177C241.401 311.353 216.358 316.67 190.933 312.533Z" fill="black"/>
<path d="M290.957 218C289.4 272.399 245.627 316 192.095 316C138.556 316 94.6071 272.392 93.0431 218H290.957Z" stroke="black" stroke-width="6"/>
<path d="M294.137 215.962C294.137 204.005 273.732 197.147 246.596 194.794C226.965 193.225 207.143 195.186 184.427 202.246C164.796 208.129 147.083 207.143 134.194 205.574C105.51 202.246 89.7266 201.854 89.7266 215.962C89.7266 236.346 130.537 261.828 191.741 253.009C222.735 248.504 238.71 239.293 256.995 233.018C276.817 226.35 294.137 226.552 294.137 215.962Z" fill="black"/>
<path d="M239.929 148.927C239.929 157.064 233.472 163.566 225.608 163.566C217.755 163.566 211.288 157.063 211.288 148.927C211.288 140.792 217.755 134.289 225.608 134.289C233.462 134.289 239.929 140.792 239.929 148.927Z" stroke="black" stroke-width="6"/>
<path d="M259.225 172.248C259.225 175.292 256.809 177.699 253.911 177.699C251.01 177.699 248.597 175.3 248.597 172.248C248.597 169.204 251.012 166.796 253.911 166.796C256.809 166.796 259.225 169.204 259.225 172.248Z" stroke="black" stroke-width="4"/>
<path d="M185.01 297.698C187.988 297.698 190.395 295.239 190.395 292.208C190.395 289.176 187.978 286.717 185.01 286.717C182.031 286.717 179.625 289.176 179.625 292.208C179.625 295.239 182.031 297.698 185.01 297.698Z" fill="black"/>
<path d="M186.929 290.638C187.565 290.638 188.084 290.108 188.084 289.462C188.084 288.815 187.565 288.285 186.929 288.285C186.293 288.285 185.773 288.815 185.773 289.462C185.773 290.119 186.282 290.638 186.929 290.638Z" fill="white"/>
<path d="M213.11 294.953C216.089 294.953 218.495 292.494 218.495 289.462C218.495 286.431 216.078 283.972 213.11 283.972C210.132 283.972 207.726 286.431 207.726 289.462C207.726 292.494 210.142 294.953 213.11 294.953Z" fill="black"/>
<path d="M215.029 287.904C215.665 287.904 216.185 287.374 216.185 286.727C216.185 286.081 215.665 285.551 215.029 285.551C214.393 285.551 213.874 286.081 213.874 286.727C213.874 287.374 214.393 287.904 215.029 287.904Z" fill="white"/>
<path d="M199.246 307.694C201.482 307.694 203.284 305.85 203.284 303.582C203.284 301.313 201.472 299.469 199.246 299.469C197.009 299.469 195.207 301.313 195.207 303.582C195.207 305.85 197.009 307.694 199.246 307.694Z" fill="black"/>
<path d="M200.592 302.204C201.016 302.204 201.366 301.854 201.366 301.419C201.366 300.985 201.016 300.635 200.592 300.635C200.168 300.635 199.818 300.985 199.818 301.419C199.818 301.854 200.168 302.204 200.592 302.204Z" fill="white"/>
<path d="M224.071 304.758C226.307 304.758 228.109 302.913 228.109 300.645C228.109 298.377 226.297 296.532 224.071 296.532C221.845 296.532 220.032 298.377 220.032 300.645C220.032 302.913 221.845 304.758 224.071 304.758Z" fill="black"/>
<path d="M225.417 299.267C225.841 299.267 226.191 298.917 226.191 298.483C226.191 298.048 225.841 297.698 225.417 297.698C224.993 297.698 224.644 298.048 224.644 298.483C224.654 298.917 224.993 299.267 225.417 299.267Z" fill="white"/>
<path d="M162.093 295.737C166.98 295.737 170.944 291.699 170.944 286.717C170.944 281.735 166.98 277.696 162.093 277.696C157.207 277.696 153.242 281.735 153.242 286.717C153.242 291.699 157.207 295.737 162.093 295.737Z" fill="black"/>
<g opacity="0.4">
<path opacity="0.6" d="M157.101 292.409C153.635 288.88 153.635 283.198 157.101 279.668C157.673 279.085 158.256 278.693 159.03 278.301C157.875 278.693 156.91 279.477 155.945 280.262C152.479 283.792 152.479 289.473 155.945 293.003C158.829 295.939 163.259 296.533 166.726 294.37C163.45 295.738 159.602 295.155 157.101 292.409Z" fill="black"/>
</g>
<path d="M165.177 283.982C166.237 283.982 167.106 283.102 167.106 282.021C167.106 280.939 166.248 280.06 165.177 280.06C164.117 280.06 163.248 280.939 163.248 282.021C163.248 283.102 164.107 283.982 165.177 283.982Z" fill="white"/>
<path d="M241.211 273.594C246.098 273.594 250.062 269.555 250.062 264.573C250.062 259.591 246.098 255.553 241.211 255.553C236.325 255.553 232.36 259.591 232.36 264.573C232.36 269.555 236.314 273.594 241.211 273.594Z" fill="black"/>
<path opacity="0.6" d="M236.007 270.255C232.541 266.725 232.541 261.044 236.007 257.514C236.579 256.92 237.162 256.539 237.936 256.146C236.781 256.539 235.816 257.323 234.852 258.107C231.385 261.637 231.385 267.319 234.852 270.849C237.735 273.785 242.166 274.378 245.632 272.216C242.356 273.594 238.699 273 236.007 270.255Z" fill="black"/>
<path d="M244.286 261.828C245.346 261.828 246.215 260.948 246.215 259.867C246.215 258.786 245.356 257.906 244.286 257.906C243.226 257.906 242.356 258.786 242.356 259.867C242.356 260.948 243.215 261.828 244.286 261.828Z" fill="white"/>
<path d="M280.082 134.819C279.891 134.819 279.7 134.819 279.7 134.819C278.545 134.618 277.771 133.452 277.972 132.074C279.7 123.053 287.014 114.435 287.406 114.043C288.18 113.068 289.717 113.068 290.491 113.842C291.455 114.626 291.456 116.195 290.682 116.979C290.491 117.17 283.749 125.215 282.212 133.049C282.011 134.225 281.046 134.819 280.082 134.819Z" fill="black"/>
</g>
<defs>
<clipPath id="clip0_221_107">
<rect width="400" height="400" fill="white"/>
</clipPath>
</defs>
</svg>
