<svg width="400" height="400" viewBox="0 0 400 400" fill="none" xmlns="http://www.w3.org/2000/svg">
<g clip-path="url(#clip0_222_310)">
<path d="M200 400C310.457 400 400 310.457 400 200C400 89.543 310.457 0 200 0C89.543 0 0 89.543 0 200C0 310.457 89.543 400 200 400Z" fill="white"/>
<path d="M302.831 241.881V102.137C302.646 90.4148 293.324 81 281.602 81H135.765C104.291 81.4615 79 107.214 79 138.781C79 149.395 81.8613 158.533 86.1995 166.563C89.8916 173.209 95.7066 179.486 101.429 184.193C103.091 185.485 102.26 184.931 107.244 187.977C114.075 192.131 121.92 194.254 121.92 194.254L121.828 277.879C122.012 281.848 122.382 285.632 123.489 289.232C126.72 301.047 134.935 310.092 146.011 314.43C150.626 316.276 155.887 317.476 161.518 317.569L278.002 317.938C301.17 317.938 319.999 299.108 319.999 275.848C320.091 262.003 313.169 249.635 302.831 241.881Z" fill="white"/>
<path d="M305.693 276.863C305.232 291.724 292.956 303.723 277.911 303.723L197.793 303.446C204.162 296.062 208.038 286.462 208.038 275.94C208.038 259.51 198.254 248.157 198.254 248.157H278.003C293.325 248.157 305.786 260.618 305.786 275.94L305.693 276.863Z" fill="black"/>
<path d="M109.09 172.378C99.8601 163.609 93.399 152.349 93.399 138.872V137.488C94.1374 114.597 112.967 96.1369 135.858 95.4908H281.694C285.478 95.6754 288.524 98.3522 288.524 102.229V225.636C291.847 226.19 293.509 226.651 296.739 227.851C299.324 228.774 302.831 230.805 302.831 230.805V102.229C302.646 90.5065 293.324 81.0918 281.602 81.0918H135.765C104.291 81.5533 79 107.305 79 138.872C79 157.24 87.3994 172.932 101.06 183.916C101.983 184.654 102.906 185.669 105.306 185.669C109.552 185.669 112.598 182.254 112.413 178.562C112.413 175.424 111.029 174.316 109.09 172.378Z" fill="black"/>
<path d="M277.909 233.759H163.548C155.887 233.852 149.703 240.036 149.703 247.697V264.127C149.887 271.695 156.348 278.156 164.102 278.156H172.593V264.127H164.009V248.066C164.009 248.066 166.132 248.066 168.625 248.066C183.116 248.066 193.73 261.45 193.73 275.849C193.73 288.587 182.101 304.832 162.717 303.539C145.549 302.432 136.227 287.11 136.227 275.849V136.474C136.227 130.197 131.058 125.028 124.781 125.028H113.336V139.335H121.828V275.941C121.366 303.724 141.58 317.661 162.717 317.661L278.002 318.031C301.169 318.031 319.999 299.201 319.999 275.941C320.091 252.681 301.169 233.759 277.909 233.759ZM305.692 276.864C305.231 291.725 292.955 303.724 277.909 303.724L197.792 303.447C204.161 296.063 208.037 286.464 208.037 275.941C208.037 259.512 198.253 248.158 198.253 248.158H278.002C293.324 248.158 305.784 260.619 305.784 275.941L305.692 276.864Z" fill="black"/>
<path d="M247.081 141.919H160.871V127.612H247.081C250.957 127.612 254.188 130.751 254.188 134.72C254.28 138.688 251.142 141.919 247.081 141.919Z" fill="black"/>
<path d="M247.081 209.022H160.871V194.808H247.081C250.957 194.808 254.188 197.946 254.188 201.915C254.28 205.791 251.142 209.022 247.081 209.022Z" fill="black"/>
<path d="M262.31 175.424H160.871V161.117H262.218C266.095 161.117 269.325 164.255 269.325 168.224C269.51 172.193 266.279 175.424 262.31 175.424Z" fill="black"/>
</g>
<defs>
<clipPath id="clip0_222_310">
<rect width="400" height="400" fill="white"/>
</clipPath>
</defs>
</svg>
