<svg width="400" height="400" viewBox="0 0 400 400" fill="none" xmlns="http://www.w3.org/2000/svg">
<g clip-path="url(#clip0_222_480)">
<g clip-path="url(#clip1_222_480)">
<path d="M400 200C400 89.543 310.457 0 200 0C89.543 0 0 89.543 0 200C0 310.457 89.543 400 200 400C310.457 400 400 310.457 400 200Z" fill="white"/>
<path d="M196.33 78H203.548C206.496 78.9638 209.587 78.6344 212.601 78.9455C263.891 84.3135 306.424 122.987 317.287 174.154C318.556 180.12 319.092 186.177 320 192.192V207.808C319.693 210.217 319.362 212.621 319.08 215.03C312.746 269.168 270.273 313.021 216.89 320.499C212.457 321.122 207.993 321.506 203.542 322H195.843C191.999 321.097 188.041 321.341 184.156 320.774C149.87 315.735 122.195 299.241 102.092 270.675C87.4876 249.91 78.8499 226.889 80.8289 200.738C80.9432 199.195 80.7567 197.67 80.3597 196.151C80.0951 195.144 79.9387 194.052 80.0229 193.028C80.3717 188.837 80.6244 184.616 81.2981 180.468C85.6289 153.854 97.3282 131.131 116.492 112.38C135.025 94.2443 157.076 83.3863 182.508 79.5616C187.091 78.8723 191.723 78.5124 196.33 78ZM199.614 311.356C260.204 311.337 309.389 261.451 309.395 200.018C309.395 138.579 260.216 88.6689 199.639 88.6445C139.097 88.6201 89.8756 138.555 89.8756 199.988C89.8756 261.439 139.073 311.368 199.614 311.349V311.356Z" fill="black"/>
<path d="M129.774 259.426C131.566 256.449 133.166 253.765 134.803 251.1C144.162 235.844 153.467 220.551 162.947 205.374C164.475 202.934 163.753 201.507 162.201 199.652C149.81 184.835 137.479 169.964 125.136 155.104C124.571 154.421 123.994 153.738 123.476 153.012C123.26 152.707 123.025 152.249 123.103 151.938C123.248 151.365 123.843 151.371 124.312 151.444C125.257 151.603 126.201 151.81 127.133 152.048C145.732 156.702 164.349 161.32 182.923 166.09C185.564 166.767 186.941 166.194 188.373 163.833C198.689 146.79 209.143 129.832 219.555 112.843C220.096 111.965 220.674 111.117 221.6 109.689C222.478 113.783 222.4 117.345 222.665 120.84C223.994 138.42 225.269 156.007 226.412 173.599C226.593 176.375 227.832 177.326 230.244 177.918C249.576 182.621 268.89 187.416 288.205 192.192C289.197 192.436 290.172 192.723 291.339 193.04C290.635 194.217 289.618 194.339 288.788 194.675C270.202 202.287 251.627 209.912 233.005 217.428C230.653 218.373 229.63 219.502 229.853 222.234C230.893 235.026 231.729 247.842 232.638 260.646C233.173 268.186 233.72 275.719 234.232 283.259C234.28 283.954 234.581 284.949 233.865 285.278C233.035 285.668 232.716 284.625 232.289 284.107C219.32 268.503 206.34 252.911 193.449 237.247C191.874 235.331 190.562 234.861 188.162 235.868C169.864 243.542 151.5 251.057 133.154 258.609C132.276 258.969 131.44 259.518 129.774 259.414V259.426Z" fill="black"/>
</g>
</g>
<defs>
<clipPath id="clip0_222_480">
<rect width="400" height="400" fill="white"/>
</clipPath>
<clipPath id="clip1_222_480">
<rect width="400" height="400" fill="white"/>
</clipPath>
</defs>
</svg>
