<svg width="400" height="400" viewBox="0 0 400 400" fill="none" xmlns="http://www.w3.org/2000/svg">
<g clip-path="url(#clip0_228_855)">
<g clip-path="url(#clip1_228_855)">
<path d="M400 200C400 89.5431 310.457 0 200 0C89.5431 0 0 89.5431 0 200C0 310.457 89.5431 400 200 400C310.457 400 400 310.457 400 200Z" fill="white"/>
<path fill-rule="evenodd" clip-rule="evenodd" d="M299.482 258.939V207.515C299.47 202.532 295.461 198.496 290.516 198.496C288.044 198.496 285.805 199.259 284.183 200.831C256 232.156 191.687 254.969 114.908 258.471C103.638 258.985 95.1818 269.116 103.1 277.22C119.091 293.59 155.06 305.001 196.868 305.001C253.54 305.001 299.482 284.803 299.482 258.939Z" fill="black"/>
<path fill-rule="evenodd" clip-rule="evenodd" d="M273.348 180.678V142.837C273.338 139.17 270.375 136.2 266.721 136.2C264.893 136.2 263.239 136.761 262.039 137.918C241.208 160.969 193.672 177.756 136.922 180.333C128.591 180.711 122.341 188.166 128.193 194.13C140.013 206.175 166.599 214.572 197.502 214.572C239.39 214.572 273.348 199.709 273.348 180.678Z" fill="black"/>
<path fill-rule="evenodd" clip-rule="evenodd" d="M247.447 122.511V98.2543C247.441 95.9037 245.519 94 243.148 94C241.963 94 240.889 94.3597 240.112 95.1013C226.6 109.878 195.765 120.639 158.954 122.29C153.551 122.533 149.497 127.311 153.293 131.135C160.96 138.856 178.205 144.238 198.249 144.238C225.421 144.238 247.447 134.711 247.447 122.511Z" fill="black"/>
</g>
</g>
<defs>
<clipPath id="clip0_228_855">
<rect width="400" height="400" fill="white"/>
</clipPath>
<clipPath id="clip1_228_855">
<rect width="400" height="400" fill="white"/>
</clipPath>
</defs>
</svg>
