<svg width="192" height="192" viewBox="0 0 192 192" fill="none" xmlns="http://www.w3.org/2000/svg">
  <path fill-rule="evenodd" clip-rule="evenodd" d="M136 128C136 163.346 107.346 192 72 192C36.6538 192 8 163.346 8 128H40C40 145.673 54.3269 160 72 160C89.6731 160 104 145.673 104 128H136Z" fill="#1b1b1d"/>
  <path fill-rule="evenodd" clip-rule="evenodd" d="M40 80H8V112H40V80ZM136 80H104V112H136V80Z" fill="#1b1b1d"/>
  <path fill-rule="evenodd" clip-rule="evenodd" d="M152 112L184 112L184 80L152 80L152 112ZM56 112L88 112L88 80L56 80L56 112Z" fill="#1b1b1d"/>
  <path fill-rule="evenodd" clip-rule="evenodd" d="M56 64C56 28.6538 84.6538 -8.68512e-06 120 -5.59506e-06C155.346 -2.50499e-06 184 28.6538 184 64L152 64C152 46.3269 137.673 32 120 32C102.327 32 88 46.3269 88 64L56 64Z" fill="#1b1b1d"/>

  <style>
    @media (prefers-color-scheme: dark) {
      path { fill: #ffffff }
    }
  </style>
</svg>

