<?xml version="1.0" encoding="UTF-8"?>
<!-- Generated by Pixelmator Pro 3.5.7 -->
<svg width="2240" height="398" viewBox="0 0 2240 398" xmlns="http://www.w3.org/2000/svg">
    <g id="Layerx00201">
        <path id="Path" fill="#ffffff" stroke="#000000" stroke-width="0.66654" stroke-linecap="round" stroke-linejoin="round" d="M 622.642578 4.631714 L 622.642578 218.443192 L 573.159912 218.443192 L 573.159912 130.78006 L 476.028839 130.78006 L 476.028839 218.443192 L 426.546204 218.443192 L 426.546204 4.631714 L 476.028839 4.631714 L 476.028839 88.935059 L 573.159912 88.935059 L 573.159912 4.631714 L 622.642578 4.631714 Z M 793.407532 222.108673 C 771.211426 222.108673 751.20459 217.323898 733.387939 207.752426 C 715.570313 198.1819 701.621338 184.997177 691.541931 168.19725 C 681.462585 151.397354 676.422424 132.510742 676.422424 111.537445 C 676.422424 90.563202 681.462585 71.676605 691.541931 54.876678 C 701.621338 38.077728 715.570313 24.892029 733.387939 15.321533 C 751.205566 5.751007 771.212402 0.966248 793.407532 0.966248 C 815.603638 0.966248 835.558228 5.751007 853.275208 15.321533 C 870.991333 24.892029 884.93927 38.077728 895.121216 54.876678 C 905.303101 71.676605 910.393616 90.563202 910.393616 111.537445 C 910.393616 132.510742 905.303101 151.3983 895.121216 168.19725 C 884.940247 184.997177 870.991333 198.1819 853.275208 207.752426 C 835.559143 217.322937 815.603638 222.108673 793.407532 222.108673 Z M 793.407532 179.957001 C 806.033081 179.957001 817.435852 177.055771 827.616821 171.252319 C 837.798706 165.448868 845.791443 157.354614 851.59491 146.969543 C 857.398254 136.584473 860.299561 124.773438 860.299561 111.538422 C 860.299561 98.302399 857.398254 86.492371 851.59491 76.106323 C 845.791443 65.721252 837.798706 57.627014 827.616821 51.823547 C 817.435852 46.020111 806.032104 43.117889 793.407532 43.117889 C 780.781982 43.117889 769.37915 46.020111 759.197266 51.823547 C 749.015381 57.627014 741.023682 65.721252 735.220154 76.106323 C 729.416748 86.491394 726.514526 98.302399 726.514526 111.538422 C 726.514526 124.774414 729.416748 136.584473 735.220154 146.969543 C 741.023682 157.354614 749.015381 165.448868 759.197266 171.252319 C 769.37915 177.055771 780.781982 179.957001 793.407532 179.957001 Z M 1100.401123 218.443192 L 1059.165527 158.88118 L 1056.721924 158.88118 L 1013.654114 158.88118 L 1013.654114 218.443192 L 964.171448 218.443192 L 964.171448 4.631714 L 1056.721924 4.631714 C 1075.65979 4.631714 1092.102661 7.788361 1106.051758 14.100647 C 1119.999756 20.412964 1130.741699 29.373047 1138.275879 40.97995 C 1145.810059 52.586823 1149.577148 66.331696 1149.577148 82.215485 C 1149.577148 98.098297 1145.758789 111.792847 1138.123169 123.298157 C 1130.487305 134.803497 1119.643677 143.609756 1105.59314 149.718887 L 1153.548218 218.444153 L 1100.401123 218.444153 Z M 1099.484985 82.214508 C 1099.484985 70.200348 1095.616333 60.98584 1087.878052 54.570984 C 1080.139893 48.157104 1068.838623 44.949188 1053.973511 44.949188 L 1013.655151 44.949188 L 1013.655151 119.477905 L 1053.973511 119.477905 C 1068.838623 119.477905 1080.139893 116.219696 1087.878052 109.703247 C 1095.616333 103.186829 1099.484985 94.02359 1099.484985 82.213531 Z M 1205.190186 4.630768 L 1254.672852 4.630768 L 1254.672852 218.442215 L 1205.190186 218.442215 L 1205.190186 4.630768 Z M 1495.079224 178.123764 L 1495.079224 218.442215 L 1308.146973 218.442215 L 1308.146973 186.369904 L 1425.437866 44.949188 L 1310.5896 44.949188 L 1310.5896 4.630768 L 1490.496582 4.630768 L 1490.496582 36.703064 L 1373.511475 178.123764 L 1495.079224 178.123764 Z M 1644.768311 222.107697 C 1622.572266 222.107697 1602.565308 217.322937 1584.748657 207.75145 C 1566.93103 198.180923 1552.982056 184.996201 1542.90271 168.196289 C 1532.823364 151.396378 1527.783203 132.509766 1527.783203 111.536499 C 1527.783203 90.562225 1532.823364 71.675629 1542.90271 54.875702 C 1552.982056 38.076782 1566.93103 24.891083 1584.748657 15.320557 C 1602.566284 5.750031 1622.573242 0.965271 1644.768311 0.965271 C 1666.964355 0.965271 1686.918945 5.750031 1704.635986 15.320557 C 1722.352051 24.891083 1736.300049 38.076782 1746.481934 54.875702 C 1756.66394 71.675629 1761.754272 90.562225 1761.754272 111.536499 C 1761.754272 132.509766 1756.66394 151.397354 1746.481934 168.196289 C 1736.301025 184.996201 1722.352051 198.180923 1704.635986 207.75145 C 1686.9198 217.32196 1666.964355 222.107697 1644.768311 222.107697 Z M 1644.768311 179.956039 C 1657.393799 179.956039 1668.796509 177.054794 1678.977539 171.251343 C 1689.159424 165.447906 1697.152222 157.353638 1702.955688 146.968582 C 1708.758911 136.583496 1711.660278 124.772491 1711.660278 111.537445 C 1711.660278 98.301453 1708.758911 86.491394 1702.955688 76.105377 C 1697.152222 65.720306 1689.159424 57.626038 1678.977539 51.822601 C 1668.796509 46.019135 1657.392944 43.116943 1644.768311 43.116943 C 1632.1427 43.116943 1620.739868 46.019135 1610.557983 51.822601 C 1600.376099 57.626038 1592.384399 65.720306 1586.580933 76.105377 C 1580.777466 86.490417 1577.875244 98.301453 1577.875244 111.537445 C 1577.875244 124.773438 1580.777466 136.583496 1586.580933 146.968582 C 1592.384399 157.353638 1600.376099 165.447906 1610.557983 171.251343 C 1620.739868 177.054794 1632.1427 179.956039 1644.768311 179.956039 Z M 2011.62854 4.630768 L 2011.62854 218.442215 L 1971.004395 218.442215 L 1864.403442 88.628387 L 1864.403442 218.442215 L 1815.532227 218.442215 L 1815.532227 4.630768 L 1856.462036 4.630768 L 1962.757324 134.445557 L 1962.757324 4.630768 L 2011.62854 4.630768 Z M 2149.099365 222.107697 C 2132.197998 222.107697 2115.856445 219.816895 2100.075439 215.235275 C 2084.294189 210.653656 2071.618164 204.697357 2062.047852 197.366379 L 2078.847656 160.102036 C 2088.010742 166.821609 2098.904785 172.217789 2111.530518 176.290543 C 2124.156006 180.363312 2136.780518 182.399704 2149.40625 182.399704 C 2163.456787 182.399704 2173.841797 180.313004 2180.561279 176.137695 C 2187.281006 171.963364 2190.640625 166.414337 2190.640625 159.491592 C 2190.640625 154.400162 2188.655518 150.175522 2184.684326 146.81572 C 2180.713135 143.455933 2175.622803 140.757843 2169.411865 138.721466 C 2163.201172 136.685089 2154.80127 134.445557 2144.213135 132.001892 C 2127.923096 128.13324 2114.585449 124.263641 2104.199219 120.394989 C 2093.814209 116.526337 2084.905518 110.315613 2077.4729 101.762817 C 2070.040283 93.210022 2066.324463 81.807251 2066.324463 67.552551 C 2066.324463 55.131104 2069.684326 43.880219 2076.403809 33.800842 C 2083.123535 23.721466 2093.25415 15.72879 2106.795898 9.823761 C 2120.337646 3.918762 2136.88208 0.966248 2156.43042 0.966248 C 2170.07373 0.966248 2183.411377 2.595337 2196.444092 5.853546 C 2209.476074 9.111755 2220.879883 13.794952 2230.654297 19.904114 L 2215.38208 57.474152 C 2195.629639 46.274536 2175.878174 40.674255 2156.125488 40.674255 C 2142.279297 40.674255 2132.045898 42.914734 2125.428223 47.393829 C 2118.810059 51.873871 2115.501465 57.7789 2115.501465 65.109863 C 2115.501465 72.43988 2119.319824 77.887329 2126.955566 81.451233 C 2134.591309 85.015137 2146.249512 88.526825 2161.929199 91.989136 C 2178.219238 95.857788 2191.556641 99.727386 2201.942871 103.596039 C 2212.327881 107.464691 2221.236816 113.573822 2228.669189 121.922516 C 2236.101807 130.27121 2239.817627 141.573364 2239.817627 155.827072 C 2239.817627 168.044403 2236.406494 179.193726 2229.585449 189.273087 C 2222.763184 199.352463 2212.531006 207.345123 2198.887939 213.250153 C 2185.244385 219.155182 2168.648682 222.108673 2149.100342 222.108673 Z"/>
        <path id="path1" fill="#ffffff" stroke="#000000" stroke-width="0.66654" stroke-linecap="round" stroke-linejoin="round" d="M 419.697937 281.490753 L 446.131287 281.490753 L 446.131287 374.169861 L 503.403442 374.169861 L 503.403442 395.708099 L 419.697937 395.708099 L 419.697937 281.490753 Z M 600.839294 371.232819 L 547.81012 371.232819 L 537.69397 395.708099 L 510.608673 395.708099 L 561.516296 281.490753 L 587.623596 281.490753 L 638.694702 395.708099 L 610.95636 395.708099 L 600.839294 371.232819 Z M 592.517639 351.163086 L 574.405945 307.43454 L 556.29425 351.163086 L 592.517639 351.163086 Z M 823.425049 281.490753 L 786.059143 395.708099 L 757.667786 395.708099 L 732.540527 318.367157 L 706.59668 395.708099 L 678.368835 395.708099 L 640.840393 281.490753 L 668.252747 281.490753 L 694.03302 361.768707 L 720.955872 281.490753 L 745.431152 281.490753 L 771.538391 362.421692 L 798.134277 281.490753 L 823.425049 281.490753 Z M 980.906555 397.666138 L 967.200439 384.938965 C 956.322937 393.424042 943.595825 397.666138 929.019043 397.666138 C 920.751526 397.666138 913.300659 396.333069 906.665222 393.668823 C 900.029846 391.003632 894.834839 387.278168 891.082275 382.491455 C 887.328796 377.705688 885.452942 372.321136 885.452942 366.337738 C 885.452942 359.267029 887.43811 353.039825 891.408325 347.655273 C 895.37854 342.270721 901.769165 337.13092 910.580261 332.23584 C 906.446594 327.993774 903.455444 323.941345 901.605713 320.080444 C 899.757019 316.218567 898.832214 312.221252 898.832214 308.087555 C 898.832214 302.53949 900.300659 297.64444 903.237732 293.402374 C 906.174744 289.160339 910.33551 285.870178 915.720093 283.531006 C 921.104675 281.191833 927.331848 280.023193 934.402588 280.023193 C 944.302002 280.023193 952.242432 282.389465 958.224854 287.121033 C 964.208313 291.8526 967.198486 298.244232 967.198486 306.292999 C 967.198486 312.167084 965.431091 317.388153 961.896179 321.957184 C 958.361267 326.526245 952.676819 330.931763 944.845703 335.173859 L 965.730896 354.590576 C 968.232666 349.369507 970.136475 343.441284 971.441528 336.804901 L 991.83728 343.168457 C 989.66156 353.284607 986.180908 361.93222 981.395081 369.112274 L 994.774353 381.512451 L 980.904663 397.666138 Z M 934.404541 297.317444 C 930.597778 297.317444 927.578491 298.296478 925.348694 300.254486 C 923.118835 302.212524 922.003357 304.714203 922.003357 307.760559 C 922.003357 310.044617 922.601196 312.193207 923.797913 314.205383 C 924.994568 316.21759 927.332764 318.909851 930.814514 322.282227 C 936.362488 319.345215 940.224365 316.707123 942.399109 314.368896 C 944.574829 312.029724 945.662109 309.500916 945.662109 306.781555 C 945.662109 303.952881 944.683228 301.668823 942.725159 299.928467 C 940.76709 298.18811 937.993591 297.317444 934.403503 297.317444 Z M 930.814514 377.758911 C 938.754944 377.758911 945.880859 375.529053 952.18927 371.069336 L 924.613464 345.289001 C 919.500671 348.226044 915.856506 351.108887 913.680786 353.936615 C 911.505188 356.76532 910.417786 359.974182 910.417786 363.563232 C 910.417786 367.805298 912.267456 371.231842 915.96582 373.842865 C 919.664246 376.453888 924.613464 377.758911 930.814514 377.758911 Z M 1119.134888 397.666138 C 1107.495972 397.666138 1096.97168 395.137329 1087.562744 390.078796 C 1078.152832 385.020233 1070.756104 378.004639 1065.372437 369.030029 C 1059.987915 360.05545 1057.295532 349.912231 1057.295532 338.599426 C 1057.295532 327.286621 1059.987915 317.143402 1065.372437 308.168823 C 1070.75708 299.19519 1078.153809 292.178619 1087.562744 287.120056 C 1096.97168 282.061523 1107.551147 279.532715 1119.29834 279.532715 C 1129.197754 279.532715 1138.144409 281.273071 1146.138916 284.753784 C 1154.134521 288.234497 1160.851196 293.238892 1166.289917 299.764984 L 1149.320801 315.429138 C 1141.596924 306.508728 1132.024658 302.049011 1120.603394 302.049011 C 1113.532715 302.049011 1107.223267 303.598816 1101.67627 306.69931 C 1096.128052 309.799835 1091.80481 314.123169 1088.704224 319.671234 C 1085.60376 325.219299 1084.053955 331.52771 1084.053955 338.59845 C 1084.053955 345.669189 1085.60376 351.978607 1088.704224 357.525696 C 1091.803833 363.07373 1096.128052 367.397064 1101.67627 370.497589 C 1107.224243 373.598114 1113.532715 375.147888 1120.603394 375.147888 C 1132.025513 375.147888 1141.598022 370.634003 1149.320801 361.605225 L 1166.289917 377.269409 C 1160.851196 383.904816 1154.106567 388.963379 1146.056763 392.444092 C 1138.006958 395.924805 1129.033325 397.665192 1119.133911 397.665192 Z M 1243.330933 397.666138 C 1231.474487 397.666138 1220.786621 395.109283 1211.269287 389.997528 C 1201.751099 384.884827 1194.300049 377.841156 1188.915527 368.867523 C 1183.531006 359.89389 1180.838745 349.803894 1180.838745 338.600372 C 1180.838745 327.395935 1183.531006 317.306885 1188.915527 308.333252 C 1194.300049 299.35965 1201.751099 292.315979 1211.269287 287.203247 C 1220.78772 282.090546 1231.474487 279.534668 1243.330933 279.534668 C 1255.188477 279.534668 1265.848267 282.090546 1275.311401 287.203247 C 1284.775513 292.315979 1292.22644 299.35965 1297.665161 308.333252 C 1303.103882 317.306885 1305.823242 327.396912 1305.823242 338.600372 C 1305.823242 349.80484 1303.103882 359.89389 1297.665161 368.867523 C 1292.22644 377.841156 1284.775513 384.884827 1275.311401 389.997528 C 1265.848267 395.11026 1255.1875 397.666138 1243.330933 397.666138 Z M 1243.330933 375.148865 C 1250.074707 375.148865 1256.16748 373.599091 1261.606201 370.498535 C 1267.044922 367.399017 1271.315063 363.074707 1274.414673 357.526672 C 1277.51416 351.978607 1279.064941 345.670166 1279.064941 338.599426 C 1279.064941 331.528687 1277.51416 325.220245 1274.414673 319.67218 C 1271.314087 314.124146 1267.044922 309.800812 1261.606201 306.700287 C 1256.16748 303.599792 1250.075806 302.049988 1243.330933 302.049988 C 1236.587158 302.049988 1230.495483 303.599792 1225.055786 306.700287 C 1219.617065 309.800812 1215.346924 314.124146 1212.247437 319.67218 C 1209.146851 325.220245 1207.597046 331.528687 1207.597046 338.599426 C 1207.597046 345.670166 1209.146851 351.979553 1212.247437 357.526672 C 1215.346924 363.074707 1219.617065 367.398041 1225.055786 370.498535 C 1230.494507 373.599091 1236.586304 375.148865 1243.330933 375.148865 Z M 1436.873535 281.490753 L 1436.873535 395.708099 L 1415.171753 395.708099 L 1358.22644 326.361755 L 1358.22644 395.708099 L 1332.119141 395.708099 L 1332.119141 281.490753 L 1353.983521 281.490753 L 1410.765137 350.837067 L 1410.765137 281.490753 L 1436.872437 281.490753 Z M 1507.875977 397.666138 C 1498.847168 397.666138 1490.118286 396.442383 1481.687378 393.994843 C 1473.257446 391.547302 1466.485596 388.36554 1461.372925 384.449493 L 1470.346558 364.543243 C 1475.241577 368.132294 1481.061523 371.015137 1487.805298 373.190826 C 1494.54895 375.366516 1501.293701 376.454865 1508.037476 376.454865 C 1515.543579 376.454865 1521.090698 375.339447 1524.680664 373.109558 C 1528.270752 370.87973 1530.065186 367.915588 1530.065186 364.217224 C 1530.065186 361.497864 1529.004028 359.240906 1526.883545 357.445374 C 1524.761963 355.650848 1522.042603 354.209442 1518.725342 353.12207 C 1515.408203 352.034729 1510.92041 350.838013 1505.263916 349.532043 C 1496.561157 347.465668 1489.437256 345.398315 1483.889282 343.33197 C 1478.341187 341.264618 1473.58252 337.947388 1469.612305 333.378357 C 1465.64209 328.809296 1463.656982 322.718536 1463.656982 315.103149 C 1463.656982 308.467712 1465.451416 302.457275 1469.041504 297.073669 C 1472.630493 291.689087 1478.043213 287.419983 1485.276489 284.265259 C 1492.509766 281.110535 1501.348877 279.533691 1511.791016 279.533691 C 1519.079468 279.533691 1526.203369 280.403381 1533.165771 282.143738 C 1540.127319 283.884094 1546.218994 286.385803 1551.440918 289.649811 L 1543.282837 309.719543 C 1532.731445 303.736176 1522.179932 300.744965 1511.628418 300.744965 C 1504.231689 300.744965 1498.764893 301.94165 1495.230103 304.334991 C 1491.69519 306.728333 1489.926758 309.883057 1489.926758 313.799103 C 1489.926758 317.715149 1491.966064 320.625092 1496.045532 322.527954 C 1500.125122 324.431824 1506.352295 326.308594 1514.728027 328.157288 C 1523.430786 330.224609 1530.555786 332.290985 1536.102783 334.358337 C 1541.650879 336.424683 1546.409546 339.687744 1550.379761 344.148438 C 1554.349976 348.609131 1556.335083 354.645721 1556.335083 362.260162 C 1556.335083 368.786255 1554.512451 374.742554 1550.868286 380.127106 C 1547.224121 385.511688 1541.758301 389.780823 1534.469849 392.935547 C 1527.181396 396.09021 1518.316162 397.667114 1507.873047 397.667114 Z M 1631.58252 397.666138 C 1615.266357 397.666138 1602.566284 393.151276 1593.483276 384.122498 C 1584.400391 375.093719 1579.858398 362.204041 1579.858398 345.451538 L 1579.858398 281.489777 L 1606.291748 281.489777 L 1606.291748 344.472534 C 1606.291748 364.922455 1614.776978 375.147888 1631.745972 375.147888 C 1640.013428 375.147888 1646.322021 372.673279 1650.673218 367.72403 C 1655.024658 362.774811 1657.199463 355.023987 1657.199463 344.472534 L 1657.199463 281.489777 L 1683.306641 281.489777 L 1683.306641 345.451538 C 1683.306641 362.203064 1678.764771 375.093719 1669.681763 384.122498 C 1660.598755 393.151276 1647.898804 397.666138 1631.581543 397.666138 Z M 1715.802612 281.490753 L 1742.235962 281.490753 L 1742.235962 374.169861 L 1799.508179 374.169861 L 1799.508179 395.708099 L 1715.802612 395.708099 L 1715.802612 281.490753 Z M 1833.798828 303.028992 L 1797.249268 303.028992 L 1797.249268 281.490753 L 1896.781372 281.490753 L 1896.781372 303.028992 L 1860.232056 303.028992 L 1860.232056 395.708099 L 1833.798828 395.708099 L 1833.798828 303.028992 Z M 1917.365967 281.490753 L 1943.799194 281.490753 L 1943.799194 395.708099 L 1917.365967 395.708099 L 1917.365967 281.490753 Z M 2082.027588 281.490753 L 2082.027588 395.708099 L 2060.325684 395.708099 L 2003.380493 326.361755 L 2003.380493 395.708099 L 1977.273315 395.708099 L 1977.273315 281.490753 L 1999.137573 281.490753 L 2055.919189 350.837067 L 2055.919189 281.490753 L 2082.026611 281.490753 Z M 2192.679932 336.804901 L 2216.829102 336.804901 L 2216.829102 383.14447 C 2210.62915 387.821838 2203.449219 391.411865 2195.291016 393.913574 C 2187.133057 396.415253 2178.919678 397.667114 2170.653076 397.667114 C 2158.795898 397.667114 2148.135742 395.138306 2138.672607 390.079773 C 2129.208496 385.02121 2121.784912 378.005615 2116.400391 369.031006 C 2111.015625 360.056396 2108.323486 349.913208 2108.323486 338.600372 C 2108.323486 327.287598 2111.015625 317.144348 2116.400391 308.1698 C 2121.784912 299.196167 2129.262695 292.179565 2138.835449 287.121033 C 2148.407715 282.062469 2159.177002 279.533691 2171.142578 279.533691 C 2181.150635 279.533691 2190.233398 281.219879 2198.391357 284.592224 C 2206.549561 287.9646 2213.402588 292.85968 2218.950684 299.277405 L 2201.981445 314.941589 C 2193.823486 306.348145 2183.978027 302.050964 2172.447754 302.050964 C 2165.15918 302.050964 2158.687256 303.573669 2153.030762 306.619995 C 2147.374512 309.666351 2142.968994 313.962585 2139.814209 319.510651 C 2136.659668 325.058685 2135.082764 331.422241 2135.082764 338.601349 C 2135.082764 345.672119 2136.659668 351.981506 2139.814209 357.528595 C 2142.968994 363.07663 2147.346436 367.399963 2152.949707 370.500488 C 2158.551758 373.601013 2164.942627 375.150787 2172.121826 375.150787 C 2179.736084 375.150787 2186.589111 373.518799 2192.680908 370.255737 L 2192.680908 336.805878 Z"/>
        <path id="path2" fill="#ffffff" fill-rule="evenodd" stroke="none" d="M -0 -0.365875 L 0.004837 148.692474 L 99.600868 96.707153 L 99.602806 -0.418121 L -0.000967 -0.365875 Z M 224.473221 -0.396851 L 224.462555 113.331024 L 0.836803 227.500977 L 0.004837 392.479889 L 99.550568 391.280304 L 99.647308 277.703369 L 323.707428 163.333145 L 324.907013 -0.075653 L 224.473221 -0.395874 Z M 324.866364 391.317078 L 324.696136 244.409241 L 223.997238 295.291718 L 223.9953 391.020081 L 324.866364 391.318054 Z"/>
    </g>
</svg>
