<svg xmlns="http://www.w3.org/2000/svg" viewBox="0 0 2240 398">
    <g fill="#fff">
        <path stroke="#000" stroke-linecap="round" stroke-linejoin="round" stroke-width=".667"
            d="M622.643 4.632v213.811H573.16V130.78h-97.131v87.663h-49.483V4.632h49.483v84.303h97.13V4.632h49.484Zm170.765 217.477c-22.197 0-42.203-4.785-60.02-14.357-17.818-9.57-31.767-22.755-41.846-39.555-10.08-16.8-15.12-35.686-15.12-56.66 0-20.974 5.04-39.86 15.12-56.66 10.08-16.8 24.028-29.985 41.846-39.555C751.206 5.75 771.212.966 793.408.966c22.196 0 42.15 4.785 59.867 14.356 17.716 9.57 31.664 22.756 41.846 39.555 10.182 16.8 15.273 35.686 15.273 56.66 0 20.974-5.09 39.861-15.273 56.66-10.18 16.8-24.13 29.985-41.846 39.555-17.716 9.57-37.671 14.357-59.867 14.357Zm0-42.152c12.625 0 24.028-2.901 34.209-8.705 10.182-5.803 18.174-13.897 23.978-24.282 5.803-10.386 8.705-22.197 8.705-35.432 0-13.236-2.902-25.046-8.705-35.432-5.804-10.385-13.796-18.479-23.978-24.282-10.181-5.804-21.585-8.706-34.21-8.706s-24.028 2.902-34.21 8.706c-10.182 5.803-18.173 13.897-23.977 24.282-5.803 10.385-8.705 22.196-8.705 35.432s2.902 25.046 8.705 35.432c5.804 10.385 13.795 18.479 23.977 24.282 10.182 5.804 21.585 8.705 34.21 8.705Zm306.993 38.486-41.235-59.562h-45.512v59.562h-49.483V4.632h92.55c18.939 0 35.382 3.156 49.33 9.469 13.949 6.312 24.69 15.272 32.225 26.879 7.534 11.607 11.301 25.352 11.301 41.235s-3.818 29.578-11.454 41.083c-7.636 11.505-18.48 20.312-32.53 26.42l47.955 68.726h-53.147Zm-.916-136.228c0-12.015-3.869-21.23-11.607-27.644-7.738-6.414-19.04-9.622-33.904-9.622h-40.319v74.529h40.319c14.865 0 26.166-3.258 33.904-9.775 7.738-6.516 11.607-15.68 11.607-27.49ZM1205.19 4.63h49.483v213.811h-49.483V4.631Zm289.89 173.493v40.318h-186.933V186.37l117.29-141.42H1310.59V4.63h179.907v32.073l-116.986 141.42h121.568Zm149.688 43.984c-22.196 0-42.203-4.785-60.02-14.357-17.817-9.57-31.766-22.755-41.845-39.555-10.08-16.8-15.12-35.686-15.12-56.66 0-20.974 5.04-39.86 15.12-56.66 10.08-16.8 24.028-29.985 41.846-39.555 17.817-9.571 37.824-14.356 60.02-14.356 22.195 0 42.15 4.785 59.867 14.356 17.716 9.57 31.664 22.756 41.846 39.555 10.182 16.8 15.272 35.686 15.272 56.66 0 20.974-5.09 39.861-15.272 56.66-10.181 16.8-24.13 29.985-41.846 39.555-17.716 9.571-37.672 14.357-59.868 14.357Zm0-42.152c12.626 0 24.029-2.901 34.21-8.705 10.181-5.803 18.174-13.897 23.978-24.282 5.803-10.386 8.704-22.197 8.704-35.432 0-13.236-2.901-25.046-8.704-35.432-5.804-10.385-13.797-18.479-23.978-24.282-10.181-5.804-21.585-8.706-34.21-8.706s-24.028 2.902-34.21 8.706c-10.182 5.803-18.174 13.897-23.977 24.282-5.804 10.385-8.706 22.196-8.706 35.432s2.902 25.046 8.706 35.432c5.803 10.385 13.795 18.479 23.977 24.282 10.182 5.804 21.585 8.705 34.21 8.705Zm366.86-175.325v213.811h-40.624l-106.6-129.814v129.814h-48.872V4.631h40.93l106.295 129.815V4.63h48.872ZM2149.1 222.108c-16.901 0-33.243-2.291-49.024-6.873-15.78-4.581-28.457-10.538-38.027-17.869l16.8-37.264c9.163 6.72 20.057 12.116 32.683 16.189 12.625 4.072 25.25 6.109 37.875 6.109 14.05 0 24.436-2.087 31.155-6.262 6.72-4.175 10.08-9.724 10.08-16.646 0-5.092-1.985-9.316-5.957-12.676-3.97-3.36-9.061-6.058-15.272-8.095-6.21-2.036-14.61-4.275-25.199-6.72-16.29-3.868-29.628-7.737-40.014-11.606-10.385-3.869-19.293-10.08-26.726-18.632-7.433-8.553-11.149-19.956-11.149-34.21 0-12.422 3.36-23.673 10.08-33.752 6.72-10.08 16.85-18.072 30.392-23.977 13.542-5.905 30.086-8.858 49.634-8.858 13.644 0 26.981 1.63 40.014 4.888 13.032 3.258 24.436 7.941 34.21 14.05l-15.272 37.57c-19.752-11.2-39.504-16.8-59.257-16.8-13.846 0-24.08 2.24-30.697 6.72-6.618 4.48-9.927 10.385-9.927 17.716 0 7.33 3.819 12.777 11.455 16.341 7.635 3.564 19.294 7.076 34.973 10.538 16.29 3.869 29.628 7.738 40.014 11.607 10.385 3.869 19.294 9.978 26.726 18.327 7.433 8.348 11.149 19.65 11.149 33.904 0 12.217-3.412 23.367-10.233 33.446-6.822 10.08-17.054 18.072-30.697 23.977-13.644 5.905-30.24 8.859-49.788 8.859ZM419.698 281.49h26.433v92.68h57.272v21.538h-83.705V281.491Zm181.141 89.743H547.81l-10.116 24.475h-27.085l50.907-114.217h26.108l51.07 114.217h-27.738l-10.117-24.475Zm-8.321-20.07-18.112-43.728-18.112 43.728h36.224Zm230.907-69.672-37.366 114.217h-28.391l-25.127-77.34-25.944 77.34h-28.228L640.84 281.491h27.413l25.78 80.278 26.923-80.278h24.475l26.107 80.93 26.596-80.93h25.291Zm157.482 116.175L967.2 384.94c-10.877 8.485-23.604 12.727-38.181 12.727-8.267 0-15.718-1.333-22.354-3.997-6.635-2.665-11.83-6.39-15.583-11.178-3.753-4.785-5.63-10.17-5.63-16.153 0-7.071 1.986-13.298 5.956-18.683 3.97-5.384 10.361-10.524 19.172-15.42-4.133-4.241-7.125-8.294-8.974-12.155-1.849-3.861-2.774-7.859-2.774-11.992 0-5.549 1.469-10.444 4.406-14.686 2.937-4.242 7.098-7.532 12.482-9.871 5.385-2.34 11.612-3.508 18.683-3.508 9.899 0 17.84 2.366 23.822 7.098 5.983 4.732 8.973 11.123 8.973 19.172 0 5.874-1.767 11.095-5.302 15.664-3.535 4.57-9.22 8.975-17.05 13.217l20.885 19.417c2.502-5.221 4.405-11.15 5.71-17.786l20.396 6.363c-2.175 10.117-5.656 18.764-10.442 25.944l13.38 12.4-13.87 16.154Zm-46.502-100.349c-3.807 0-6.827.98-9.056 2.937-2.23 1.959-3.346 4.46-3.346 7.507 0 2.284.598 4.432 1.795 6.444 1.197 2.013 3.535 4.705 7.017 8.077 5.547-2.937 9.41-5.575 11.584-7.913 2.176-2.34 3.263-4.868 3.263-7.587 0-2.83-.979-5.113-2.937-6.854-1.958-1.74-4.731-2.61-8.321-2.61Zm-3.59 80.442c7.94 0 15.066-2.23 21.374-6.69l-27.576-25.78c-5.112 2.937-8.756 5.82-10.932 8.648-2.176 2.828-3.263 6.037-3.263 9.626 0 4.242 1.85 7.669 5.548 10.28 3.698 2.61 8.647 3.916 14.849 3.916Zm188.32 19.907c-11.639 0-22.163-2.529-31.572-7.587-9.41-5.059-16.807-12.074-22.19-21.049-5.385-8.975-8.077-19.118-8.077-30.43 0-11.313 2.692-21.457 8.076-30.431 5.385-8.974 12.782-15.99 22.19-21.049 9.41-5.058 19.99-7.587 31.736-7.587 9.9 0 18.846 1.74 26.84 5.22 7.997 3.481 14.713 8.486 20.152 15.012l-16.97 15.664c-7.723-8.92-17.295-13.38-28.717-13.38-7.07 0-13.38 1.55-18.927 4.65-5.548 3.1-9.871 7.424-12.972 12.972-3.1 5.548-4.65 11.857-4.65 18.927 0 7.071 1.55 13.38 4.65 18.928 3.1 5.548 7.424 9.871 12.972 12.972 5.548 3.1 11.857 4.65 18.927 4.65 11.423 0 20.995-4.514 28.718-13.543l16.969 15.664c-5.439 6.636-12.183 11.694-20.233 15.175-8.05 3.48-17.024 5.221-26.923 5.221Zm124.196 0c-11.857 0-22.544-2.557-32.062-7.668-9.518-5.113-16.969-12.157-22.353-21.13-5.385-8.974-8.077-19.064-8.077-30.268s2.692-21.293 8.077-30.267c5.384-8.973 12.835-16.017 22.353-21.13 9.519-5.112 20.205-7.668 32.062-7.668s22.517 2.556 31.98 7.668c9.465 5.113 16.915 12.157 22.354 21.13 5.439 8.974 8.158 19.064 8.158 30.267 0 11.205-2.72 21.294-8.158 30.268-5.439 8.973-12.89 16.017-22.354 21.13-9.463 5.112-20.123 7.668-31.98 7.668Zm0-22.517c6.744 0 12.836-1.55 18.275-4.65 5.439-3.1 9.71-7.424 12.809-12.972 3.1-5.548 4.65-11.857 4.65-18.928 0-7.07-1.55-13.379-4.65-18.927-3.1-5.548-7.37-9.871-12.809-12.972-5.439-3.1-11.53-4.65-18.275-4.65-6.744 0-12.836 1.55-18.275 4.65-5.439 3.1-9.71 7.424-12.809 12.972-3.1 5.548-4.65 11.857-4.65 18.927 0 7.071 1.55 13.38 4.65 18.928 3.1 5.548 7.37 9.871 12.809 12.972 5.439 3.1 11.53 4.65 18.275 4.65Zm193.543-93.658v114.217h-21.702l-56.946-69.346v69.346h-26.107V281.491h21.865l56.781 69.346v-69.346h26.107Zm71.002 116.175c-9.029 0-17.758-1.224-26.189-3.671-8.43-2.448-15.201-5.63-20.314-9.546l8.974-19.906c4.895 3.59 10.715 6.472 17.458 8.648 6.744 2.176 13.489 3.264 20.232 3.264 7.507 0 13.054-1.116 16.644-3.345 3.59-2.23 5.384-5.194 5.384-8.893 0-2.72-1.061-4.976-3.181-6.772-2.122-1.794-4.841-3.236-8.159-4.323-3.317-1.087-7.805-2.284-13.461-3.59-8.703-2.066-15.827-4.134-21.375-6.2-5.548-2.067-10.306-5.385-14.277-9.954-3.97-4.569-5.955-10.66-5.955-18.275 0-6.635 1.794-12.646 5.385-18.03 3.588-5.384 9.001-9.653 16.234-12.808 7.234-3.154 16.073-4.731 26.515-4.731a87.8 87.8 0 0 1 21.375 2.61c6.961 1.74 13.053 4.242 18.275 7.506l-8.158 20.07c-10.552-5.984-21.103-8.975-31.655-8.975-7.396 0-12.863 1.197-16.398 3.59s-5.303 5.548-5.303 9.464c0 3.916 2.04 6.826 6.119 8.729 4.08 1.904 10.306 3.78 18.682 5.63 8.703 2.067 15.828 4.133 21.375 6.2 5.548 2.067 10.307 5.33 14.277 9.79 3.97 4.461 5.955 10.498 5.955 18.112 0 6.526-1.823 12.483-5.467 17.867-3.644 5.385-9.11 9.654-16.398 12.809-7.289 3.154-16.154 4.731-26.597 4.731Zm123.707 0c-16.317 0-29.017-4.515-38.1-13.544-9.083-9.028-13.625-21.918-13.625-38.67V281.49h26.434v62.983c0 20.45 8.485 30.675 25.454 30.675 8.267 0 14.576-2.475 18.927-7.424 4.352-4.95 6.526-12.7 6.526-23.251V281.49h26.108v63.962c0 16.751-4.542 29.642-13.625 38.67-9.083 9.03-21.783 13.544-38.1 13.544Zm84.22-116.175h26.433v92.679h57.272v21.538h-83.705V281.491Zm117.996 21.538h-36.55v-21.538h99.532v21.538h-36.549v92.68H1833.8v-92.68Zm83.567-21.538h26.433v114.217h-26.433V281.491Zm164.662 0v114.217h-21.702l-56.946-69.346v69.346h-26.107V281.491h21.865l56.781 69.346v-69.346h26.108Zm110.652 55.314h24.15v46.34c-6.2 4.677-13.38 8.267-21.539 10.769-8.158 2.501-16.371 3.753-24.638 3.753-11.857 0-22.517-2.529-31.98-7.587-9.465-5.059-16.888-12.074-22.273-21.049-5.384-8.975-8.077-19.118-8.077-30.43 0-11.313 2.693-21.457 8.077-30.431 5.385-8.974 12.863-15.99 22.435-21.049 9.573-5.059 20.342-7.587 32.308-7.587 10.008 0 19.09 1.686 27.248 5.058 8.159 3.373 15.012 8.268 20.56 14.685l-16.97 15.665c-8.158-8.594-18.003-12.891-29.533-12.891-7.289 0-13.76 1.523-19.417 4.569-5.656 3.046-10.062 7.343-13.217 12.89-3.154 5.549-4.731 11.912-4.731 19.091 0 7.071 1.577 13.38 4.731 18.928 3.155 5.548 7.532 9.871 13.136 12.971 5.602 3.101 11.993 4.65 19.172 4.65 7.614 0 14.467-1.631 20.559-4.894v-33.45Z" />
        <path fill-rule="evenodd"
            d="m0-.366.005 149.058L99.6 96.707l.002-97.125-99.604.052Zm224.473-.03-.01 113.727L.837 227.501.005 392.48l99.546-1.2.096-113.577 224.06-114.37 1.2-163.409-100.434-.32Zm100.393 391.713-.17-146.908-100.699 50.883-.002 95.728 100.871.298Z" />
    </g>
</svg>
