<svg xmlns="http://www.w3.org/2000/svg" fill="none" viewBox="0 0 250 49">
  <g fill="#fff" clip-path="url(#a)">
    <path
      d="M23.175 48.98v-3.123a8.716 8.716 0 0 1 3.955-7.3l3.205-2.093L19.25 15.233 8.165 36.465l3.21 2.091a8.717 8.717 0 0 1 3.955 7.291v3.128L0 38.94 19.255 0 38.51 38.941 23.18 48.98h-.005ZM68.93 16.99c-.13.23-.27.395-.414.495a.91.91 0 0 1-.545.155c-.215 0-.475-.085-.74-.25a21.795 21.795 0 0 0-.955-.56 7.68 7.68 0 0 0-1.295-.561c-.495-.165-1.08-.256-1.75-.256-.61 0-1.14.075-1.595.22-.455.146-.84.35-1.15.611-.31.26-.54.576-.695.936-.15.365-.23.765-.23 1.2 0 .556.155 1.017.465 1.387.31.37.72.685 1.23.946.51.26 1.09.495 1.745.7.65.205 1.32.426 2.005.66.685.236 1.355.506 2.005.817.65.31 1.235.7 1.745 1.175.51.476.92 1.051 1.23 1.737.31.685.465 1.516.465 2.497 0 1.066-.18 2.061-.545 2.992a6.923 6.923 0 0 1-1.595 2.432c-.7.69-1.555 1.236-2.565 1.632-1.01.395-2.17.595-3.47.595-.75 0-1.49-.075-2.215-.22a11.273 11.273 0 0 1-2.095-.63 10.85 10.85 0 0 1-1.885-.981 9.18 9.18 0 0 1-1.565-1.272l1.29-2.101c.11-.15.25-.28.425-.386.175-.105.36-.155.555-.155.27 0 .565.11.88.336.315.225.69.47 1.125.74.435.27.945.52 1.525.74.58.226 1.28.336 2.095.336 1.25 0 2.215-.295 2.9-.89.685-.591 1.025-1.442 1.025-2.553 0-.62-.155-1.126-.465-1.516-.31-.39-.72-.72-1.23-.986a9.194 9.194 0 0 0-1.745-.675 55.03 55.03 0 0 1-1.99-.606 17.638 17.638 0 0 1-1.99-.78 6.462 6.462 0 0 1-1.745-1.191c-.51-.49-.92-1.101-1.23-1.837-.31-.735-.465-1.641-.465-2.717 0-.86.17-1.696.515-2.512a6.557 6.557 0 0 1 1.49-2.172c.65-.63 1.455-1.136 2.415-1.516.955-.38 2.055-.57 3.29-.57 1.39 0 2.675.215 3.845.65 1.175.435 2.175 1.046 3 1.826l-1.09 2.072-.01.005ZM88.441 12.695c1.575 0 2.94.185 4.09.556 1.15.37 2.105.886 2.85 1.551a6.16 6.16 0 0 1 1.67 2.382c.365.926.545 1.936.545 3.032s-.19 2.187-.57 3.143a6.493 6.493 0 0 1-1.71 2.457c-.76.686-1.715 1.216-2.86 1.596-1.145.38-2.485.57-4.015.57h-3.275v8.302h-4.385V12.695h7.66Zm0 11.86c.805 0 1.505-.1 2.1-.3.6-.2 1.095-.49 1.49-.866.395-.375.69-.83.89-1.371.195-.54.295-1.141.295-1.802 0-.66-.1-1.2-.295-1.711a3.411 3.411 0 0 0-.88-1.306c-.39-.36-.885-.636-1.485-.826-.6-.19-1.305-.285-2.12-.285h-3.275v8.467h3.28ZM111.877 16.188v6.54h8.245v3.378h-8.245v6.67h10.465v3.508h-14.865V12.695h14.865v3.493h-10.465ZM152.932 36.285h-3.39c-.38 0-.689-.095-.929-.285a1.71 1.71 0 0 1-.536-.71l-1.759-4.814h-9.765l-1.761 4.813c-.085.25-.254.48-.504.686-.25.205-.561.31-.931.31h-3.419l9.275-23.584h4.465l9.254 23.584Zm-7.739-8.907-2.87-7.846c-.14-.35-.29-.76-.44-1.241-.15-.48-.305-.996-.455-1.552-.14.556-.285 1.076-.44 1.557-.15.485-.3.905-.44 1.266l-2.85 7.811h7.495v.005ZM180.291 36.284h-3.96c-.75 0-1.295-.295-1.63-.88l-4.955-7.551c-.185-.286-.39-.486-.61-.606-.22-.12-.55-.18-.985-.18h-1.875v9.217h-4.385V12.695h7.19c1.595 0 2.97.165 4.115.496 1.145.33 2.085.795 2.82 1.396.735.6 1.275 1.31 1.62 2.147.345.83.52 1.746.52 2.747a7.08 7.08 0 0 1-.35 2.252 6.626 6.626 0 0 1-1.01 1.926 6.866 6.866 0 0 1-1.63 1.516 8.158 8.158 0 0 1-2.21 1.026 4.094 4.094 0 0 1 1.435 1.371l5.9 8.712Zm-11.28-12.365c.825 0 1.545-.105 2.16-.31.615-.205 1.12-.49 1.515-.856.395-.365.695-.795.89-1.296.195-.5.295-1.05.295-1.646 0-1.196-.395-2.117-1.18-2.757-.79-.64-1.99-.96-3.61-.96h-2.805v7.83h2.74l-.005-.005ZM197.484 12.695c1.545 0 2.865.145 3.96.44 1.095.296 1.995.711 2.695 1.257.7.545 1.215 1.2 1.54 1.971.325.77.49 1.642.49 2.612 0 .556-.08 1.086-.245 1.592-.165.505-.415.98-.76 1.42a5.72 5.72 0 0 1-1.305 1.202 7.87 7.87 0 0 1-1.885.916c3.235.73 4.855 2.476 4.855 5.254 0 1-.19 1.926-.57 2.772a6.12 6.12 0 0 1-1.66 2.192c-.73.615-1.625 1.096-2.69 1.441-1.065.35-2.28.52-3.65.52h-8.9V12.695h8.125Zm-3.735 3.393v6.82h3.49c1.5 0 2.63-.27 3.4-.815.765-.546 1.15-1.406 1.15-2.592 0-1.186-.35-2.102-1.045-2.627-.695-.52-1.78-.78-3.26-.78h-3.735v-.006Zm4.435 16.769c.815 0 1.5-.1 2.055-.296.555-.195.995-.455 1.33-.78.335-.325.57-.706.72-1.141.145-.436.22-.896.22-1.386 0-.49-.08-.971-.245-1.376a2.63 2.63 0 0 0-.765-1.046c-.35-.29-.795-.51-1.345-.66-.55-.15-1.21-.231-1.98-.231h-4.415v6.916h4.435-.01ZM221.759 36.284h-4.4V12.695h4.4v23.589ZM250.001 16.304h-7.105v19.981h-4.385v-19.98h-7.105V12.7h18.595v3.603Z" />
  </g>
  <defs>
    <clipPath id="a">
      <path fill="#fff" d="M0 0h250v48.98H0z" />
    </clipPath>
  </defs>
</svg>
