<svg class="w-auto h-full" viewBox="0 0 391 274" fill="none" xmlns="http://www.w3.org/2000/svg">
    <path d="M296.276 273.69C275.364 273.69 258.757 267.908 246.456 256.345C234.155 244.536 228.004 229.159 228.004 210.215C228.004 197.668 230.833 186.72 236.492 177.371C242.15 168.022 250.023 160.764 260.11 155.598C270.197 150.185 281.761 147.479 294.8 147.479H357.537V131.61C357.537 118.325 353.969 108.484 346.834 102.087C339.7 95.4443 328.875 92.1229 314.359 92.1229C301.566 92.1229 291.233 94.4602 283.36 99.1347C275.487 103.809 271.304 110.329 270.812 118.694H237.599C238.829 102.702 246.21 89.5396 259.741 79.2066C273.519 68.6274 291.725 63.3379 314.359 63.3379C338.962 63.3379 357.783 69.2425 370.822 81.0517C384.107 92.861 390.75 109.345 390.75 130.503V270H357.906V233.096H352.37L357.537 225.715C357.537 235.556 355.076 244.044 350.156 251.179C345.235 258.313 338.224 263.849 329.121 267.785C320.018 271.722 309.069 273.69 296.276 273.69ZM304.395 245.643C320.633 245.643 333.549 241.707 343.144 233.834C352.739 225.961 357.537 215.259 357.537 201.727V173.311H298.49C287.665 173.311 278.808 176.633 271.92 183.276C265.277 189.672 261.955 198.283 261.955 209.108C261.955 220.425 265.646 229.405 273.027 236.048C280.653 242.445 291.11 245.643 304.395 245.643Z" fill="white"/>
    <path d="M0.451172 270L70.5686 0.601562H115.222L184.971 270H151.388L133.674 198.406H52.1166L34.4028 270H0.451172ZM58.7593 170.359H126.662L105.996 87.3257C102.06 71.58 98.9846 58.4177 96.7703 47.8385C94.5561 37.2594 93.203 30.3707 92.7109 27.1724C92.2189 30.3707 90.8657 37.2594 88.6515 47.8385C86.4372 58.4177 83.3619 71.457 79.4255 86.9567L58.7593 170.359Z" fill="white"/>
</svg>