<svg class="w-auto h-full" viewBox="0 0 399 263" fill="none" xmlns="http://www.w3.org/2000/svg">
    <path d="M0.273662 259V233.167L73.7124 0.672724H144.199L218.007 233.167V259H163.758L110.616 54.9215H107.295L54.1533 259H0.273662ZM58.5818 209.18V160.098H160.806V209.18H58.5818ZM285.558 262.69C276.701 262.69 268.582 260.599 261.201 256.417C253.821 251.988 248.039 246.207 243.857 239.072C239.674 231.691 237.583 223.572 237.583 214.715V192.573C237.583 183.716 239.674 175.72 243.857 168.585C248.039 161.205 253.821 155.423 261.201 151.241C268.582 146.812 276.701 144.598 285.558 144.598H345.711V131.313C345.711 125.9 344.235 121.841 341.283 119.134C338.577 116.428 334.64 115.075 329.474 115.075H253.452V70.7901H350.509C359.366 70.7901 367.485 73.0044 374.865 77.4328C382.246 81.6153 388.028 87.3969 392.21 94.7777C396.393 101.912 398.484 109.908 398.484 118.765V259H361.58L353.83 238.703H351.985C349.033 245.1 343.989 250.758 336.854 255.679C329.966 260.353 321.478 262.69 311.391 262.69H285.558ZM323.2 218.406C327.875 218.406 331.934 217.545 335.378 215.822C338.823 214.1 341.406 211.517 343.128 208.073C344.85 204.628 345.711 200.569 345.711 195.894V182.609H305.486C300.566 182.609 296.752 183.839 294.046 186.299C291.586 188.514 290.356 191.958 290.356 196.632V203.275C290.356 207.95 291.709 211.64 294.415 214.346C297.121 217.053 300.812 218.406 305.486 218.406H323.2Z" fill="white"/>
</svg>