<?xml version="1.0" encoding="utf-8"?>
<!-- Generator: Adobe Illustrator 26.2.1, SVG Export Plug-In . SVG Version: 6.00 Build 0)  -->
<svg version="1.1" id="Layer_1" xmlns="http://www.w3.org/2000/svg" xmlns:xlink="http://www.w3.org/1999/xlink" x="0px" y="0px"
	 viewBox="0 0 1000 153.2" style="enable-background:new 0 0 1000 153.2;" xml:space="preserve">
<style type="text/css">
	.st0{fill:#FFFFFF;}
</style>
<g>
	<path class="st0" d="M0,33h19.2c-1.8,2.5-3.4,5-4.9,7.6H0V33z M107.4,20.5v2.8h23.4c0,0.1,0,0.1,0.1,0.1c0.3,0.3,0.6,0.6,0.8,0.9
		l-17.4,17.4c-9.7-9.6-21.3-14.4-35-14.4c-13.7,0-25.4,4.8-35.1,14.4c-9.6,9.7-14.4,21.3-14.4,35c0,9.5,2.3,18.1,7,25.7H20.2v6.3
		h21.3c0.9,1,1.8,2.1,2.8,3.1c9,9,20,13.8,32.8,14.4c12.7,0.6,23.9-3.2,33.6-11.2v-16H128v-3.3h-17.3v-6.6H82.5V74h28.2v-4.2H82.5
		v-5.4h52.9v24.7v36.4l-3.7,3.7c-4.5,4.5-9.2,8.2-14.2,11.3H79.1v3.9h31.3c-9.5,4.4-19.8,6.6-31.1,6.6c-20.5,0-38-7.2-52.5-21.7
		c-14.5-14.5-21.7-32-21.7-52.5c0-13.3,3.1-25.3,9.2-36.1h24.5V33H19.2c2.3-3,4.8-5.9,7.6-8.7C41.3,9.9,58.8,2.6,79.4,2.6
		c18.6,0,34.7,6,48.3,17.9H107.4z M72.4,108.7H41.5c-1.7-2-3.3-4.1-4.6-6.3h35.5V108.7z M79.1,44.6H58.5v-4h20.7V44.6z M70.3,69.9
		h12.2V74H70.3V69.9z M102.1,95.7h8.6v3.3h-8.6V95.7z M128,144.4h-17.5c2.4-1.1,4.8-2.4,7.1-3.9H128V144.4z M135.4,20.5v2.8h-4.6
		c-1-1-2.1-1.9-3.1-2.8H135.4z"/>
	<path class="st0" d="M159.2,71.5H193l-2.2,5.2h-31.5V71.5z M159.9,126.2h10.2l-2.3,5.7h-7.9V126.2z M159.9,151l7.9-19h26l-7.9,19
		H159.9z M169.8,99.9h11.3l-1.6,4h-9.7V99.9z M277.4,71.5l12.8,30.9h-26l-29.1-69.9l-10.9,26h-9.9v2.9h8.8l-8.7,20.8h-8.7v2.5h7.6
		l-17.3,41.5h-26l9.4-22.3h16.6v-4h-15l9.7-23.2h11.1v-5.2H193l12.8-30.9h20v-5.4H208l9.5-22.7h13.1V10h-12l3.1-7.5h26.9l6.6,15.8
		h-21.1v2.9h22.3l18,43.2h-14.7v7.1H277.4z M181.4,35.2H208l-2.2,5.4h-24.4V35.2z M190.7,10h27.9l-1,2.5h-26.8V10z M242,132h-48.2
		l2.3-5.7H242V132z M238.5,84.8h-25.1l1-2.5h24V84.8z M222.6,102.4h41.7l3.9,9.4h-45.5V102.4z M235.1,61.5h-12l1.1-2.9h10.9V61.5z
		 M282.6,21.2h-26.1l-1.3-2.9h27.4V21.2z M294.2,111.8l8.4,20.2h-26l-8.5-20.2H294.2z M268.4,132h8.2l1.5,3.6h-9.7V132z M305.4,71.5
		h-28l-3-7.1h31V71.5z M281.4,143.6l-3.3-8h26l6.5,15.5h-26L281.4,143.6z M296.8,111.8h-2.5l-4-9.4h6.5V111.8z M324.1,132v3.6h-20
		l-1.5-3.6H324.1z"/>
	<path class="st0" d="M343.7,53.6h6.5v4h-6.5V53.6z M345.5,120.1h4.7v3.6h-4.7V120.1z M441.6,126.2h17.6V151h-109v-27.4h17.2v-3.6
		h-17.2V57.5h10v-4h-10V2.5h24.9v28.7h-7.6v3.2h7.6v47.1h-12.7V88h12.7v38.2h22.2v4.5h44.3V126.2z M412.4,145.2v-4h-38.6v4H412.4z
		 M385.3,34.5h-10.2v-3.2h10.2V34.5z M393.7,88h-18.6v-6.5h18.6V88z M441.6,120.4v5.8h-44.3v-5.8H441.6z"/>
	<path class="st0" d="M484,51.8h9.6v6.1H484V51.8z M488.1,20.5h5.4v4.3h-5.4V20.5z M490.3,125.5h3.2v3.6h-3.2V125.5z M501.8,112.6
		h16.5v30h-18.9v1.9h18.9v6.6h-24.7v-21.9h15v-3.6h-15V57.8h20.3v-6.1h-20.3v-27h15v-4.3h-15v-18h6.7v2.6h18.1v29h-16.9v2.7h15.2
		v34.2h-14.8V74h16.5v36.7h-16.5V112.6z M498.6,88.8V92H509v-3.2H498.6z M518.3,5.1V2.5h-18.1V0h23v5.1H518.3z M523.2,36.9h-4.9
		v-2.7h4.9V36.9z M520.2,74h-1.9v-2.9h1.9V74z M528,112.6h-9.7v-1.9h9.7V112.6z M524.5,144.4h-6.2v-1.9h6.2V144.4z"/>
	<path class="st0" d="M555.2,53.6h6.5v4h-6.5V53.6z M557,120.1h4.7v3.6H557V120.1z M653,126.2h17.6V151h-109v-27.4h17.2v-3.6h-17.2
		V57.5h10v-4h-10V2.5h24.9v28.7h-7.6v3.2h7.6v47.1h-12.7V88h12.7v38.2h22.2v4.5H653V126.2z M623.9,145.2v-4h-38.6v4H623.9z
		 M596.7,34.5h-10.2v-3.2h10.2V34.5z M605.1,88h-18.6v-6.5h18.6V88z M653,120.4v5.8h-44.3v-5.8H653z"/>
	<path class="st0" d="M693.4,16.9h15.9v3.6h-15.9V16.9z M704.3,133.4h5v3.2h-5V133.4z M820.7,27.3h-86.7v15.6h-12.1v3.8h12.1v17.9
		h49.6v5.4h-13.6v3.7h13.6v15.7h-7.1v-4.7h-29.4v4.7h-13.1v37.1h86.7V151h-10.5v-4h-33.6v4h-67.2v-14.3h37.8v-3.2h-37.8v-113h16.6
		v-3.6h-16.6V2.5h111.4V27.3z M766,46.6h-32v-3.8h32V46.6z M753.3,110.6v4.5h-11.9v-4.5H753.3z M747.1,92.7v-3.6h29.4v3.6H747.1z
		 M760,12.5v2.9H796v-2.9H760z M776.5,153.2V151h33.6v2.2H776.5z M787,73.5h-3.3v-3.7h3.3V73.5z"/>
	<path class="st0" d="M847.9,96.1h6c0.3,1.1,0.6,2.2,0.9,3.3h-6.9V96.1z M876.2,76.7c0,7,1.3,13.4,3.8,19.3h-26.1
		c-1.6-6.1-2.4-12.6-2.4-19.3c0-20.5,7.2-37.9,21.7-52.4c3-3,6.1-5.7,9.4-8.1H932v-2.4h-46c11.7-7.5,24.9-11.3,39.7-11.3
		c18,0,33.7,5.6,47.1,16.8h-26.8v3.9H977c0.3,0.3,0.7,0.7,1.1,1.1c14.5,14.5,21.8,32,21.8,52.4c0,12.9-3,24.7-8.9,35.4h-30.8
		c0-0.1,0-0.1,0.1-0.2c0.1-0.1,0.2-0.1,0.3-0.2c9.7-9.7,14.5-21.3,14.5-35c0-5-0.7-9.8-2-14.3h16.1V58h-17.6
		c-2.4-5.9-6.1-11.3-11-16.2c-9.7-9.7-21.4-14.5-35.1-14.5c-12.3,0-22.9,3.9-32,11.7h-21.9v5.3h16.6
		C880.2,53.5,876.2,64.3,876.2,76.7z M925.7,126.2c11.3,0,21.3-3.3,30-10h33.1c-2.9,4.6-6.4,8.9-10.5,13.1
		c-14.5,14.5-32,21.7-52.5,21.7c-20.3,0-37.6-7.1-52.1-21.4h32.6v-2.4h-34.9c-7.8-8.3-13.3-17.5-16.5-27.8h26.8
		c2.3,4.4,5.3,8.5,9.1,12.3C900.3,121.4,912,126.2,925.7,126.2z M871.3,127.2c0.6,0.7,1.3,1.4,1.9,2.1c0.1,0.1,0.1,0.1,0.2,0.2
		c0.1,0.1,0.1,0.1,0.2,0.1h-15.3v-2.4H871.3z M870.2,13.8H886c-1.1,0.8-2.3,1.6-3.4,2.4h-12.3V13.8z M909.5,96.1v3.3h-27.9
		c-0.6-1.1-1.2-2.2-1.7-3.3H909.5z M901.3,38.9v5.3h-12.9c0.7-0.8,1.5-1.7,2.3-2.5c1-1,2-1.9,3-2.8H901.3z M908.9,68v-2.4h-15.3V68
		H908.9z M925.7,116.2v-4.1h34.7c-1.5,1.5-3.1,2.8-4.7,4.1H925.7z M966.8,73.5v5.3h-36.2v-5.3H966.8z M945.6,62.4V58h26.1
		c0.6,1.5,1.1,3,1.6,4.5H945.6z M985,23.2H977c-1.4-1.3-2.8-2.6-4.3-3.9H985V23.2z M988.7,116.2c0.8-1.3,1.6-2.7,2.4-4.1h6.4v4.1
		H988.7z"/>
</g>
</svg>
