<svg width="396" height="392" viewBox="0 0 396 392" fill="none" xmlns="http://www.w3.org/2000/svg">
<g clip-path="url(#clip0_1_2)">
<path d="M250.65 166.06H247.07C226.53 166.1 208.51 177.28 198.71 193.86C198.57 194.09 198.33 194.26 198.04 194.26C197.75 194.26 197.51 194.1 197.37 193.86C187.62 177.34 169.65 166.17 149.13 166.06H149.07H112.84V187.41H149.13C169.65 187.52 187.62 198.69 197.37 215.22C197.51 215.45 197.75 215.62 198.04 215.62C198.33 215.62 198.57 215.46 198.71 215.22C208.51 198.63 226.53 187.45 247.08 187.42H247.15H283.18V166.07H250.65V166.06Z" fill="white"/>
<path d="M197.78 160.3C218.413 160.3 235.14 143.573 235.14 122.94C235.14 102.307 218.413 85.58 197.78 85.58C177.147 85.58 160.42 102.307 160.42 122.94C160.42 143.573 177.147 160.3 197.78 160.3Z" fill="white"/>
<path d="M248.68 208.75H247.07C226.53 208.79 208.51 219.97 198.71 236.55C198.57 236.78 198.33 236.95 198.04 236.95C197.75 236.95 197.51 236.79 197.37 236.55C187.62 220.03 169.65 208.86 149.13 208.75H149.07H112.84V230.1H149.13C169.65 230.21 187.62 241.38 197.37 257.91C197.51 258.14 197.75 258.31 198.04 258.31C198.33 258.31 198.57 258.15 198.71 257.91C208.51 241.32 226.53 230.14 247.08 230.11H247.15H283.18V208.76H248.69L248.68 208.75Z" fill="white"/>
<path d="M128.8 286.36H126.15C126.15 286.36 126.08 286.39 126.08 286.43V300.94L116.62 286.4C116.62 286.4 116.59 286.37 116.56 286.37H113.01C113.01 286.37 112.94 286.4 112.94 286.44V305.65C112.94 305.65 112.97 305.72 113.01 305.72H115.67C115.67 305.72 115.74 305.69 115.74 305.65V290.22L125.99 305.69C125.99 305.69 126.02 305.72 126.05 305.72H128.81C128.81 305.72 128.88 305.69 128.88 305.65V286.44C128.88 286.44 128.85 286.37 128.81 286.37L128.8 286.36Z" fill="white"/>
<path d="M149.47 286.41H146.41C146.41 286.41 146.36 286.43 146.35 286.45L138.71 305.66C138.71 305.66 138.71 305.71 138.71 305.72C138.72 305.74 138.74 305.75 138.77 305.75H141.61C141.61 305.75 141.66 305.73 141.67 305.71L143.68 300.39H152.09L154.16 305.71C154.16 305.71 154.2 305.75 154.22 305.75H157.09C157.09 305.75 157.13 305.74 157.15 305.72C157.16 305.7 157.17 305.68 157.15 305.66L149.51 286.45C149.51 286.45 149.47 286.41 149.45 286.41H149.47ZM144.69 297.79L147.87 289.44L151.1 297.79H144.69Z" fill="white"/>
<path d="M174.51 294.9L171.64 294.28C170.11 293.95 169.23 292.96 169.23 291.56C169.23 289.78 170.8 288.43 172.87 288.43C174.17 288.43 176.47 289.11 176.87 291.65C176.87 291.67 176.89 291.69 176.9 291.7C176.92 291.71 176.94 291.71 176.96 291.7L179.34 290.86C179.34 290.86 179.39 290.81 179.39 290.78C179.15 289.65 177.99 285.96 172.82 285.96C169.35 285.96 166.41 288.61 166.41 291.75C166.41 294.48 168.14 296.42 171.15 297.07L173.89 297.67C175.65 298.04 176.71 299.13 176.71 300.58C176.71 302.03 175.69 303.57 172.82 303.57C169.74 303.57 168.45 301.39 168.28 299.51C168.28 299.49 168.27 299.47 168.25 299.46C168.23 299.45 168.21 299.45 168.19 299.46L165.64 300.27C165.64 300.27 165.59 300.31 165.59 300.34C165.93 303.01 168.04 306.12 172.84 306.12C176.66 306.12 179.55 303.64 179.55 300.36C179.55 297.6 177.71 295.61 174.51 294.9Z" fill="white"/>
<path d="M207.36 299.8L205 298.93C205 298.93 204.96 298.93 204.94 298.93C204.92 298.93 204.91 298.95 204.9 298.97C204.03 301.87 201.83 303.53 198.84 303.53C195.59 303.53 192.08 301.18 192.08 296.01C192.08 290.84 195.58 288.52 198.84 288.52C202.1 288.52 204.03 290.11 204.76 292.99C204.76 293.01 204.78 293.02 204.79 293.03C204.81 293.03 204.83 293.04 204.85 293.03L207.31 292.16C207.31 292.16 207.36 292.11 207.35 292.08C206.34 288.23 203.15 285.93 198.83 285.93C196.38 285.93 193.97 286.88 192.23 288.54C190.27 290.4 189.23 292.98 189.23 296C189.23 299.02 190.24 301.62 192.16 303.47C193.91 305.16 196.28 306.09 198.84 306.09C203.01 306.09 206.29 303.7 207.39 299.86C207.39 299.83 207.39 299.79 207.35 299.78L207.36 299.8Z" fill="white"/>
<path d="M229.98 286.36H218.3C218.3 286.36 218.23 286.39 218.23 286.43V305.64C218.23 305.64 218.26 305.71 218.3 305.71H229.98C229.98 305.71 230.05 305.68 230.05 305.64V303.18C230.05 303.18 230.02 303.11 229.98 303.11H221.03V297.37H229.14C229.14 297.37 229.21 297.34 229.21 297.3V294.81C229.21 294.81 229.18 294.74 229.14 294.74H221.03V288.97H229.98C229.98 288.97 230.05 288.94 230.05 288.9V286.44C230.05 286.44 230.02 286.37 229.98 286.37V286.36Z" fill="white"/>
<path d="M257.76 286.36H255.11C255.11 286.36 255.04 286.39 255.04 286.43V300.94L245.58 286.4C245.58 286.4 245.55 286.37 245.52 286.37H241.97C241.97 286.37 241.9 286.4 241.9 286.44V305.65C241.9 305.65 241.93 305.72 241.97 305.72H244.63C244.63 305.72 244.7 305.69 244.7 305.65V290.22L254.95 305.69C254.95 305.69 254.98 305.72 255.01 305.72H257.77C257.77 305.72 257.84 305.69 257.84 305.65V286.44C257.84 286.44 257.81 286.37 257.77 286.37L257.76 286.36Z" fill="white"/>
<path d="M266.94 286.43V288.9C266.94 288.9 266.97 288.97 267.01 288.97H273.36V305.64C273.36 305.64 273.39 305.71 273.43 305.71H276.09C276.09 305.71 276.16 305.68 276.16 305.64V288.97H282.51V286.37H267.01C267.01 286.37 266.94 286.4 266.94 286.44V286.43Z" fill="white"/>
</g>
<defs>
<clipPath id="clip0_1_2">
<rect width="396" height="391.7" fill="white"/>
</clipPath>
</defs>
</svg>
