<svg width="400" height="400" viewBox="0 0 400 400" fill="none" xmlns="http://www.w3.org/2000/svg">
<g clip-path="url(#clip0_852_2)">
<circle cx="200" cy="200" r="200" fill="#1E3237"/>
<circle cx="200" cy="200" r="172" stroke="#4AB7C3" stroke-width="10"/>
<path d="M211.177 201.811C213.861 204.24 215.548 207.752 215.548 211.657C215.547 218.988 209.605 224.93 202.274 224.93C195.052 224.93 189.176 219.163 189.004 211.982L134 87.3828L211.177 201.811Z" fill="#4AB7C3"/>
<path d="M261.228 314.556V299.911H246.871V287.086H261.228V272.441H273.958V287.086H288.315V299.911H273.958V314.556H261.228Z" fill="#4AB7C3"/>
<path d="M185.316 327L187.805 314.844L219.486 288.523C220.316 287.821 220.986 287.183 221.496 286.609C222.007 286.034 222.39 285.46 222.645 284.886C222.964 284.248 223.219 283.546 223.411 282.78L224.272 278.569C224.655 276.782 224.464 275.442 223.698 274.549C222.932 273.591 221.688 273.113 219.965 273.113H201.588L198.429 269.189L200.439 260H227.239C229.983 260 232.376 260.702 234.418 262.106C236.524 263.51 238.023 265.392 238.916 267.753C239.81 270.05 239.969 272.539 239.395 275.219L237.385 284.599C237.002 286.449 236.492 288.012 235.854 289.289C235.279 290.565 234.45 291.809 233.365 293.021C232.28 294.234 230.813 295.606 228.962 297.137L209.054 313.313L208.958 313.887H232.982L230.302 327H185.316Z" fill="#4AB7C3"/>
<path d="M130 327L132.776 313.887H162.447C163.787 313.887 164.872 313.536 165.701 312.834C166.595 312.069 167.201 311.016 167.52 309.676L168.094 306.709C168.477 305.177 168.35 303.869 167.711 302.784C167.073 301.636 165.989 300.902 164.457 300.583L150.1 297.233C147.675 296.659 145.57 295.638 143.783 294.17C141.996 292.702 140.72 290.884 139.954 288.714C139.189 286.545 139.093 284.152 139.667 281.536L141.39 273.4C142.028 270.465 143.049 268.008 144.453 266.03C145.857 264.052 147.643 262.552 149.813 261.531C152.046 260.51 154.63 260 157.566 260H190.396L188.577 268.901L183.504 273.113H159.959C158.555 273.113 157.438 273.464 156.609 274.166C155.779 274.868 155.205 275.92 154.886 277.324L154.503 279.047C154.12 280.579 154.248 281.887 154.886 282.971C155.524 284.056 156.577 284.79 158.044 285.173L172.497 288.427C174.986 289.001 177.123 290.054 178.91 291.586C180.697 293.053 181.973 294.872 182.739 297.041C183.504 299.211 183.6 301.604 183.026 304.22L181.016 313.6C180.378 316.535 179.325 318.992 177.857 320.97C176.453 322.948 174.635 324.448 172.401 325.469C170.232 326.49 167.68 327 164.744 327H130Z" fill="#4AB7C3"/>
<rect x="196" y="44" width="8" height="26" rx="4" fill="#4AB7C3"/>
<rect x="271" y="60" width="8" height="26" rx="4" transform="rotate(30 271 60)" fill="#4AB7C3"/>
<rect x="329.516" y="117" width="8" height="26" rx="4" transform="rotate(60 329.516 117)" fill="#4AB7C3"/>
<rect x="353" y="196" width="8" height="26" rx="4" transform="rotate(90 353 196)" fill="#4AB7C3"/>
<rect x="76" y="196" width="8" height="26" rx="4" transform="rotate(90 76 196)" fill="#4AB7C3"/>
<rect width="8" height="26" rx="4" transform="matrix(-0.5 0.866025 0.866025 0.5 67 117)" fill="#4AB7C3"/>
<rect width="8" height="26" rx="4" transform="matrix(-0.866025 0.5 0.5 0.866025 123.93 60)" fill="#4AB7C3"/>
<path d="M119 274C71.0028 228 77.0018 149.5 123 101C123 101 142.823 144.289 141.999 145C94.5 186 96.5 229.5 122.999 268.5C122.999 268.5 119.079 274.075 119 274Z" fill="#4AB7C3"/>
</g>
<defs>
<clipPath id="clip0_852_2">
<rect width="400" height="400" fill="white"/>
</clipPath>
</defs>
</svg>
