<svg width="400" height="400" viewBox="0 0 400 400" fill="none" xmlns="http://www.w3.org/2000/svg">
<g clip-path="url(#clip0_852_34)">
<circle cx="200" cy="200" r="200" fill="#1E3237"/>
<path d="M200.506 116C219.217 116 234.386 121.619 234.387 128.549V146.954L234.376 147.277C233.912 154.058 218.926 159.502 200.506 159.502C182.086 159.502 167.099 154.058 166.636 147.277L166.625 146.954V128.608C166.71 135.512 181.844 141.099 200.504 141.099C219.216 141.099 234.385 135.48 234.385 128.55C234.385 121.619 219.216 116.001 200.504 116.001C195.629 116.001 190.995 116.383 186.807 117.069C190.995 116.383 195.63 116 200.506 116ZM177.312 119.402C176.461 119.698 175.652 120.01 174.887 120.337C175.652 120.01 176.461 119.698 177.312 119.402ZM185.649 117.269C182.914 117.764 180.384 118.391 178.123 119.129C180.384 118.391 182.914 117.764 185.649 117.269Z" fill="#4AB7C3"/>
<ellipse cx="200.504" cy="126.459" rx="30.535" ry="9.62062" fill="#4AB7C3"/>
<path d="M226.925 144.955C231.592 147.105 234.386 149.837 234.387 152.811V171.215C234.387 178.145 219.218 183.764 200.506 183.764C181.794 183.764 166.625 178.145 166.625 171.215V152.869C166.71 159.773 181.844 165.359 200.504 165.359C219.216 165.359 234.385 159.741 234.385 152.811C234.385 149.837 231.592 147.105 226.925 144.955ZM223.675 143.656C224.62 143.985 225.515 144.333 226.354 144.699C225.515 144.333 224.62 143.985 223.675 143.656ZM200.506 140.262C209.08 140.262 216.909 141.443 222.877 143.388C216.909 141.443 209.079 140.262 200.504 140.262H200.506Z" fill="#4AB7C3"/>
<path d="M227.892 170.52C231.976 172.592 234.387 175.146 234.387 177.908V196.312C234.387 203.243 219.218 208.861 200.506 208.861C181.794 208.861 166.625 203.243 166.625 196.312V177.967C166.711 184.87 181.845 190.457 200.504 190.457C219.216 190.457 234.384 184.838 234.385 177.908C234.385 175.146 231.975 172.592 227.892 170.52ZM226.419 169.824C226.576 169.893 226.731 169.963 226.884 170.033C226.731 169.963 226.576 169.893 226.419 169.824ZM219.844 167.604C222.073 168.179 224.107 168.851 225.901 169.603C224.107 168.85 222.073 168.179 219.844 167.604ZM200.506 165.359C207.301 165.359 213.629 166.1 218.933 167.376C213.628 166.1 207.3 165.359 200.504 165.359H200.506Z" fill="#4AB7C3"/>
<path d="M200.506 190.455C219.217 190.455 234.386 196.073 234.387 203.003V221.408L234.376 221.731C233.912 228.512 218.925 233.957 200.506 233.957C182.086 233.957 167.1 228.512 166.636 221.731L166.625 221.408V203.062C166.71 209.965 181.844 215.552 200.504 215.552C219.216 215.552 234.385 209.933 234.385 203.003C234.384 196.073 219.216 190.455 200.504 190.455H200.506ZM176.116 194.293C176.032 194.325 175.949 194.357 175.866 194.39C175.949 194.357 176.032 194.325 176.116 194.293ZM177.933 193.646C177.605 193.754 177.284 193.865 176.968 193.978C177.284 193.865 177.605 193.754 177.933 193.646Z" fill="#4AB7C3"/>
<path d="M230.297 221.285C232.904 223.063 234.386 225.1 234.387 227.266V245.671L234.376 245.994C233.913 252.775 218.926 258.219 200.506 258.219C182.086 258.219 167.099 252.775 166.636 245.994L166.625 245.671V227.324C166.71 234.228 181.844 239.814 200.504 239.814C219.216 239.814 234.385 234.196 234.385 227.266C234.385 225.1 232.904 223.063 230.297 221.285ZM229.225 220.606C229.551 220.799 229.864 220.996 230.162 221.195C229.864 220.996 229.551 220.799 229.225 220.606ZM225.898 218.959C226.972 219.409 227.959 219.888 228.852 220.392C227.959 219.888 226.972 219.409 225.898 218.959ZM200.506 214.717C210.269 214.717 219.067 216.248 225.25 218.695C219.067 216.248 210.268 214.717 200.504 214.717H200.506Z" fill="#4AB7C3"/>
<path d="M228.796 245.457C232.329 247.438 234.387 249.811 234.387 252.363V270.768C234.387 277.698 219.218 283.316 200.506 283.316C181.794 283.316 166.625 277.698 166.625 270.768V252.422C166.71 259.325 181.845 264.912 200.504 264.912C219.216 264.912 234.385 259.294 234.385 252.363C234.385 249.812 232.328 247.438 228.796 245.457ZM219.281 241.917C222.851 242.799 225.943 243.925 228.384 245.231C225.943 243.925 222.851 242.799 219.281 241.917ZM200.506 239.814C207.047 239.814 213.155 240.501 218.334 241.69C213.155 240.501 207.046 239.814 200.504 239.814H200.506Z" fill="#4AB7C3"/>
<path d="M245.825 245.456C242.292 247.437 240.235 249.81 240.235 252.362C240.235 259.293 255.405 264.911 274.117 264.911C292.803 264.911 307.954 259.308 307.997 252.392V270.767C307.997 277.697 292.828 283.315 274.116 283.315C255.404 283.315 240.234 277.697 240.234 270.767V252.362C240.234 249.81 242.292 247.437 245.825 245.456ZM253.845 242.307C251.018 243.089 248.533 244.032 246.486 245.098C248.376 244.114 250.639 243.235 253.198 242.49L253.845 242.307ZM255.174 241.957L254.503 242.129C254.779 242.056 255.058 241.986 255.34 241.916C255.284 241.93 255.229 241.943 255.174 241.957ZM263.249 240.473C262.725 240.538 262.206 240.609 261.693 240.684C261.437 240.721 261.182 240.76 260.929 240.8C259.662 240.998 258.434 241.225 257.252 241.477C259.144 241.074 261.15 240.736 263.249 240.473ZM265.648 240.209H265.649H265.648ZM269.801 239.914H269.802H269.801Z" fill="#4AB7C3"/>
<path d="M160.233 199.949C160.581 200.67 160.763 201.413 160.763 202.171V220.575L160.752 220.899C160.288 227.68 145.3 233.124 126.881 233.124C108.169 233.124 93.0002 227.506 93 220.575V202.171C93 201.413 93.1815 200.67 93.5293 199.949C93.1818 200.67 93 201.412 93 202.17C93.0005 209.1 108.169 214.718 126.881 214.718C145.593 214.718 160.762 209.1 160.763 202.17C160.763 201.412 160.581 200.67 160.233 199.949Z" fill="#4AB7C3"/>
<ellipse cx="126.883" cy="200.078" rx="30.535" ry="9.62062" fill="#4AB7C3"/>
<path d="M160.763 226.429V244.833L160.752 245.157C160.287 251.938 145.3 257.382 126.881 257.382C108.169 257.382 93.0002 251.763 93 244.833V226.429C93.0005 233.359 108.169 238.976 126.881 238.977C145.301 238.977 160.289 233.533 160.752 226.752L160.763 226.429ZM95.6621 221.544C95.5025 221.684 95.3503 221.825 95.2041 221.968C95.2521 221.921 95.3001 221.874 95.3496 221.827L95.6621 221.544ZM96.7061 220.716H96.707H96.7061ZM100.896 218.376C100.789 218.424 100.681 218.471 100.575 218.52C100.681 218.471 100.789 218.424 100.896 218.376ZM108.619 215.856H108.62H108.619ZM111.456 215.253H111.457H111.456ZM118.413 214.274H118.414H118.413ZM122.565 213.98H122.566H122.565Z" fill="#4AB7C3"/>
<path d="M160.664 250.559C160.729 250.877 160.763 251.199 160.763 251.523V269.929L160.752 270.252C160.289 277.033 145.301 282.477 126.881 282.477C108.461 282.476 93.4742 277.033 93.0107 270.252L93 269.929V251.523C93 251.199 93.0332 250.877 93.0986 250.559V250.56C93.0332 250.878 93 251.2 93 251.524C93 258.455 108.169 264.073 126.881 264.073C145.593 264.073 160.763 258.455 160.763 251.524C160.763 251.2 160.729 250.878 160.664 250.56V250.559ZM93.7539 248.882C93.6729 249.022 93.5976 249.162 93.5293 249.304L93.3906 249.613C93.4923 249.367 93.6141 249.123 93.7539 248.882ZM160.008 248.882C160.089 249.022 160.165 249.161 160.233 249.303L160.372 249.613C160.27 249.367 160.148 249.123 160.008 248.882ZM157.575 246.205C158.456 246.901 159.17 247.63 159.696 248.389C159.17 247.63 158.456 246.901 157.575 246.205ZM96.3408 246.084C95.6272 246.633 95.0184 247.204 94.5234 247.793L94.2852 248.089C94.7419 247.493 95.3144 246.915 95.9932 246.359L96.3408 246.084ZM134.6 239.303C144.133 240.125 152.121 242.438 156.674 245.543C152.121 242.439 144.133 240.125 134.6 239.303ZM126.881 238.975C129.489 238.975 132.028 239.084 134.467 239.291C132.028 239.084 129.489 238.976 126.881 238.976C114.134 238.976 103.031 241.583 97.248 245.437C103.031 241.583 114.134 238.975 126.881 238.975Z" fill="#4AB7C3"/>
<path d="M241.795 149.875C240.782 151.066 240.235 152.333 240.235 153.647C240.236 160.578 255.405 166.196 274.117 166.196C292.803 166.196 307.954 160.594 307.997 153.677V172.053C307.997 178.983 292.828 184.601 274.116 184.602C255.404 184.602 240.234 178.983 240.234 172.053V153.648C240.234 152.333 240.782 151.066 241.795 149.875Z" fill="#4AB7C3"/>
<ellipse cx="274.117" cy="151.556" rx="30.535" ry="9.62062" fill="#4AB7C3"/>
<path d="M246.486 170.643C246.171 170.807 245.867 170.974 245.573 171.144C245.426 171.228 245.282 171.314 245.141 171.4C242.028 173.298 240.235 175.525 240.235 177.907C240.236 184.838 255.405 190.456 274.117 190.456C292.802 190.456 307.954 184.853 307.997 177.937V196.312C307.997 203.242 292.828 208.86 274.116 208.86C255.404 208.86 240.234 203.242 240.234 196.312V177.907C240.234 175.2 242.549 172.693 246.486 170.643ZM248.132 169.854C247.999 169.913 247.867 169.973 247.737 170.032C247.867 169.973 247.999 169.913 248.132 169.854ZM253.845 167.852C252.042 168.351 250.377 168.915 248.877 169.535C250.196 168.99 251.642 168.488 253.198 168.035L253.845 167.852ZM256.548 167.175C256.259 167.24 255.972 167.307 255.688 167.375C255.744 167.362 255.799 167.348 255.854 167.335L256.548 167.175ZM263.249 166.018C262.725 166.083 262.206 166.154 261.693 166.229C261.437 166.266 261.182 166.305 260.929 166.345C259.915 166.503 258.927 166.68 257.967 166.873L257.252 167.021C259.144 166.618 261.15 166.281 263.249 166.018ZM265.648 165.753H265.649H265.648ZM269.801 165.459H269.802H269.801Z" fill="#4AB7C3"/>
<path d="M247.972 195.021C243.139 197.191 240.236 199.972 240.235 203.004C240.235 209.934 255.405 215.553 274.117 215.553C292.803 215.553 307.955 209.95 307.997 203.033V221.409L307.986 221.732C307.522 228.513 292.536 233.958 274.116 233.958C255.697 233.958 240.709 228.513 240.245 221.732L240.234 221.409V203.004C240.235 199.972 243.138 197.19 247.972 195.021ZM301.51 195.619C301.819 195.776 302.118 195.935 302.407 196.098C302.118 195.935 301.819 195.776 301.51 195.619ZM299.966 194.893C300.159 194.977 300.349 195.062 300.536 195.148C300.349 195.062 300.159 194.977 299.966 194.893ZM253.845 192.948C253.41 193.069 252.984 193.193 252.565 193.321C252.147 193.449 251.737 193.581 251.336 193.716C250.734 193.918 250.152 194.129 249.591 194.347L249.037 194.566C250.313 194.047 251.705 193.566 253.198 193.132L253.845 192.948ZM298.289 194.212C298.521 194.3 298.75 194.388 298.976 194.479C298.75 194.388 298.521 194.3 298.289 194.212ZM296.488 193.581C296.958 193.734 297.417 193.891 297.863 194.054C297.417 193.891 296.958 193.734 296.488 193.581ZM255.854 192.433C255.626 192.487 255.399 192.542 255.174 192.599L254.503 192.771C254.946 192.654 255.396 192.541 255.854 192.433ZM258.691 191.828H258.692H258.691ZM265.648 190.851H265.649H265.648ZM269.801 190.557H269.802H269.801Z" fill="#4AB7C3"/>
<path d="M274.116 215.555C278.461 215.555 282.614 215.858 286.431 216.41C282.614 215.858 278.461 215.556 274.117 215.556C255.405 215.556 240.235 221.174 240.235 228.104C240.235 235.035 255.405 240.653 274.117 240.653C292.803 240.653 307.954 235.051 307.997 228.134V246.508C307.997 253.438 292.828 259.057 274.116 259.057C255.404 259.057 240.234 253.438 240.234 246.508V228.104C240.235 221.173 255.404 215.555 274.116 215.555ZM302.464 221.229C303.873 222.025 305.045 222.882 305.941 223.789C305.045 222.882 303.873 222.025 302.464 221.229ZM297.703 219.097C299.123 219.607 300.423 220.162 301.585 220.757C300.423 220.162 299.123 219.607 297.703 219.097ZM291.815 217.401C293.801 217.853 295.652 218.378 297.34 218.967C295.652 218.378 293.801 217.853 291.815 217.401ZM286.64 216.44C288.342 216.691 289.977 216.992 291.531 217.338C289.977 216.992 288.342 216.691 286.64 216.44Z" fill="#4AB7C3"/>
<path d="M207.485 359.615C205.72 359.615 204.16 359.184 202.805 358.322C201.492 357.419 200.548 356.229 199.973 354.751C199.439 353.232 199.357 351.59 199.727 349.825L206.931 315.898H216.167L209.394 347.67C209.147 348.778 209.271 349.64 209.763 350.256C210.256 350.872 211.077 351.18 212.226 351.18H220.169C221.031 351.18 221.729 350.954 222.262 350.503C222.837 350.01 223.227 349.333 223.432 348.471L230.329 315.898H239.564L232.114 350.995C231.704 352.883 231.026 354.464 230.082 355.736C229.179 357.009 228.009 357.973 226.573 358.63C225.177 359.287 223.535 359.615 221.647 359.615H207.485Z" fill="#4AB7C3"/>
<path d="M160.262 358.999L162.047 350.564H181.135C181.997 350.564 182.695 350.338 183.228 349.886C183.803 349.394 184.193 348.717 184.398 347.854L184.768 345.946C185.014 344.961 184.932 344.119 184.522 343.421C184.111 342.682 183.413 342.21 182.428 342.005L173.192 339.85C171.632 339.481 170.278 338.824 169.128 337.88C167.979 336.936 167.158 335.766 166.665 334.37C166.173 332.974 166.111 331.435 166.481 329.752L167.589 324.518C167.999 322.63 168.656 321.05 169.559 319.777C170.462 318.505 171.612 317.54 173.007 316.883C174.444 316.226 176.107 315.898 177.995 315.898H199.114L197.944 321.624L194.681 324.334H179.534C178.631 324.334 177.913 324.559 177.379 325.011C176.845 325.462 176.476 326.14 176.271 327.043L176.024 328.151C175.778 329.136 175.86 329.978 176.271 330.676C176.681 331.373 177.359 331.845 178.303 332.092L187.6 334.185C189.201 334.555 190.576 335.232 191.726 336.217C192.875 337.161 193.696 338.331 194.188 339.727C194.681 341.122 194.743 342.662 194.373 344.345L193.08 350.379C192.67 352.267 191.992 353.848 191.048 355.12C190.145 356.393 188.975 357.357 187.539 358.014C186.143 358.671 184.501 358.999 182.613 358.999H160.262ZM169.867 365.772L171.591 357.583H179.904L178.179 365.772H169.867ZM180.15 317.314L181.935 309.125H190.248L188.462 317.314H180.15Z" fill="#4AB7C3"/>
<path d="M289.191 94.0001L295.519 64.0723H311.21C312.435 64.0723 313.504 64.3858 314.416 65.0129C315.328 65.6114 315.984 66.438 316.383 67.4926C316.782 68.5187 316.853 69.6445 316.597 70.8702L312.963 88.0145C312.678 89.3256 312.207 90.423 311.552 91.3066C310.925 92.1902 310.112 92.86 309.115 93.316C308.146 93.7721 307.006 94.0001 305.694 94.0001H289.191ZM304.668 88.1428C305.295 88.1428 305.794 87.986 306.165 87.6725C306.535 87.3305 306.792 86.8602 306.934 86.2616L309.884 72.3665C310.027 71.597 309.927 70.9984 309.585 70.5709C309.243 70.1433 308.687 69.9296 307.918 69.9296H300.692L296.844 88.1428H304.668Z" fill="#4AB7C3"/>
<path d="M265.141 94.0001L271.468 64.0723H290.836L290.023 68.0484L287.757 69.9296H276.641L275.359 76.0434H284.209L282.969 81.7297H274.119L272.794 88.1428H285.748L284.508 94.0001H265.141Z" fill="#4AB7C3"/>
<path d="M226.738 94.0001L227.38 90.879L235.845 64.0723H242.728L245.764 81.0456H246.063L256.281 64.0723H263.806L260.899 90.879L260.257 94.0001H253.46L256.452 74.6325H256.153L247.089 89.7247H241.702L239.051 74.6325H238.752L233.536 94.0001H226.738Z" fill="#4AB7C3"/>
<path d="M215.457 94.0001L221.785 64.0723H228.198L221.87 94.0001H215.457Z" fill="#4AB7C3"/>
<path d="M186.555 94.0001L187.153 91.0073L201.39 64.0723H209.599L212.378 91.0073L211.78 94.0001H205.708L204.554 70.3571H204.169L193.011 94.0001H186.555ZM194.507 88.2283L195.747 82.542H207.59L206.35 88.2283H194.507Z" fill="#4AB7C3"/>
<path d="M165.773 94.0001L172.101 64.0723H178.514L173.426 88.1428H186.381L185.141 94.0001H165.773Z" fill="#4AB7C3"/>
<path d="M147.63 94.0001C146.405 94.0001 145.322 93.7008 144.381 93.1022C143.469 92.4752 142.813 91.6486 142.414 90.6225C142.044 89.5679 141.987 88.4278 142.243 87.2022L145.877 70.0578C146.162 68.7467 146.619 67.6494 147.246 66.7658C147.901 65.8822 148.713 65.2124 149.683 64.7563C150.652 64.3003 151.792 64.0723 153.103 64.0723H167.511L166.656 68.0911L164.433 69.9296H154.129C153.53 69.9296 153.032 70.1006 152.633 70.4426C152.262 70.7561 152.02 71.2122 151.906 71.8107L148.956 85.7058C148.785 86.5039 148.87 87.1167 149.212 87.5442C149.583 87.9433 150.153 88.1428 150.922 88.1428H162.38L161.183 94.0001H147.63Z" fill="#4AB7C3"/>
<path d="M112.078 94.0001L118.406 64.0723H125.246L131.232 83.3543H131.488L132.173 77.668L134.994 64.0723H141.407L135.08 94.0001H128.239L122.296 74.718H121.997L121.356 80.4043L118.491 94.0001H112.078Z" fill="#4AB7C3"/>
<path d="M90.2241 94.4276C88.9985 94.4276 87.9154 94.1283 86.9748 93.5298C86.0627 92.9027 85.4072 92.0762 85.0081 91.0501C84.6376 89.9955 84.5806 88.8553 84.8371 87.6297L89.8393 64.0723H96.2524L91.5495 86.1333C91.3785 86.9029 91.464 87.5015 91.806 87.929C92.148 88.3566 92.7181 88.5703 93.5162 88.5703H99.0314C99.63 88.5703 100.115 88.4136 100.485 88.1C100.884 87.758 101.155 87.2877 101.297 86.6891L106.086 64.0723H112.499L107.326 88.4421C107.041 89.7532 106.57 90.8505 105.915 91.7341C105.288 92.6177 104.475 93.2875 103.478 93.7436C102.509 94.1996 101.369 94.4276 100.058 94.4276H90.2241Z" fill="#4AB7C3"/>
</g>
<defs>
<clipPath id="clip0_852_34">
<rect width="400" height="400" fill="white"/>
</clipPath>
</defs>
</svg>
