<svg width="400" height="400" viewBox="0 0 400 400" fill="none" xmlns="http://www.w3.org/2000/svg">
<g clip-path="url(#clip0_852_237)">
<circle cx="200" cy="200" r="200" fill="#1E3237"/>
<path d="M48.5859 298V291.904L61.4979 278.848C61.8819 278.464 62.1699 278.112 62.3619 277.792C62.5859 277.472 62.7459 277.136 62.8419 276.784C62.9379 276.4 62.9859 275.984 62.9859 275.536V273.376C62.9859 272.608 62.7779 272.016 62.3619 271.6C61.9459 271.184 61.3539 270.976 60.5859 270.976H51.0339L49.0659 269.008V264.4H62.9859C64.4259 264.4 65.6899 264.704 66.7779 265.312C67.8659 265.888 68.6979 266.72 69.2739 267.808C69.8819 268.896 70.1859 270.16 70.1859 271.6V276.256C70.1859 277.184 70.0739 278.016 69.8499 278.752C69.6579 279.456 69.3059 280.16 68.7939 280.864C68.3139 281.568 67.6099 282.368 66.6819 283.264L58.6659 291.136V291.424H70.1859V298H48.5859Z" fill="#4AB7C3"/>
<path d="M51.2627 156V149.136H37.0547V142.896L47.2787 122.4H52.9427V125.904L44.7827 142.32V142.56H51.8387V135.36H58.6547V142.56H62.1587V149.136H58.6547V156H51.2627Z" fill="#4AB7C3"/>
<path d="M136.598 66.4804C135.158 66.4804 133.894 66.1924 132.806 65.6164C131.718 65.0084 130.87 64.1604 130.262 63.0724C129.686 61.9844 129.398 60.7204 129.398 59.2804V52.2244C129.398 50.9764 129.606 49.8244 130.022 48.7684C130.438 47.6804 131.19 46.3844 132.278 44.8804L141.254 32.4004H147.302V35.9044L140.534 45.1204V45.3604C140.822 45.3604 141.11 45.3604 141.398 45.3604C141.718 45.3604 142.022 45.3604 142.31 45.3604H145.142C146.582 45.3604 147.846 45.6644 148.934 46.2724C150.022 46.8484 150.854 47.6804 151.43 48.7684C152.038 49.8564 152.342 51.1204 152.342 52.5604V59.2804C152.342 60.7204 152.038 61.9844 151.43 63.0724C150.854 64.1604 150.022 65.0084 148.934 65.6164C147.846 66.1924 146.582 66.4804 145.142 66.4804H136.598ZM142.742 59.9044C143.51 59.9044 144.102 59.6964 144.518 59.2804C144.934 58.8644 145.142 58.2724 145.142 57.5044V53.8564C145.142 53.0884 144.934 52.4964 144.518 52.0804C144.102 51.6644 143.51 51.4564 142.742 51.4564H139.046C138.246 51.4564 137.638 51.6644 137.222 52.0804C136.806 52.4964 136.598 53.0884 136.598 53.8564V57.5044C136.598 58.2724 136.806 58.8644 137.222 59.2804C137.638 59.6964 138.246 59.9044 139.046 59.9044H142.742Z" fill="#4AB7C3"/>
<path d="M281.696 82.4799C280.256 82.4799 278.992 82.1919 277.904 81.6159C276.816 81.0079 275.968 80.1599 275.36 79.0719C274.784 77.9839 274.496 76.7199 274.496 75.2799V71.2959C274.496 69.9839 274.736 68.8639 275.216 67.9359C275.696 66.9759 276.288 66.2399 276.992 65.7279C277.728 65.2159 278.464 64.9119 279.2 64.8159V64.4319C278.56 64.3039 277.92 63.9999 277.28 63.5199C276.672 63.0079 276.16 62.3199 275.744 61.4559C275.328 60.5599 275.12 59.5199 275.12 58.3359V55.1199C275.12 53.6799 275.408 52.4159 275.984 51.3279C276.592 50.2399 277.44 49.4079 278.528 48.8319C279.616 48.2239 280.88 47.9199 282.32 47.9199H289.904C291.344 47.9199 292.608 48.2239 293.696 48.8319C294.784 49.4079 295.616 50.2399 296.192 51.3279C296.8 52.4159 297.104 53.6799 297.104 55.1199V58.3359C297.104 59.5199 296.896 60.5599 296.48 61.4559C296.096 62.3199 295.584 63.0079 294.944 63.5199C294.304 63.9999 293.68 64.3039 293.072 64.4319V64.8159C293.776 64.9119 294.48 65.2159 295.184 65.7279C295.92 66.2399 296.528 66.9759 297.008 67.9359C297.52 68.8639 297.776 69.9839 297.776 71.2959V75.2799C297.776 76.7199 297.472 77.9839 296.864 79.0719C296.288 80.1599 295.456 81.0079 294.368 81.6159C293.28 82.1919 292.016 82.4799 290.576 82.4799H281.696ZM288.128 76.0959C288.896 76.0959 289.488 75.8879 289.904 75.4719C290.352 75.0239 290.576 74.4159 290.576 73.6479V70.3359C290.576 69.5679 290.352 68.9759 289.904 68.5599C289.488 68.1439 288.896 67.9359 288.128 67.9359H284.096C283.328 67.9359 282.736 68.1439 282.32 68.5599C281.904 68.9759 281.696 69.5679 281.696 70.3359V73.6479C281.696 74.4159 281.904 75.0239 282.32 75.4719C282.736 75.8879 283.328 76.0959 284.096 76.0959H288.128ZM287.504 61.6959C288.272 61.6959 288.864 61.4879 289.28 61.0719C289.696 60.6239 289.904 60.0159 289.904 59.2479V56.7519C289.904 55.9839 289.696 55.3919 289.28 54.9759C288.864 54.5279 288.272 54.3039 287.504 54.3039H284.768C283.968 54.3039 283.36 54.5279 282.944 54.9759C282.528 55.3919 282.32 55.9839 282.32 56.7519V59.2479C282.32 60.0159 282.528 60.6239 282.944 61.0719C283.36 61.4879 283.968 61.6959 284.768 61.6959H287.504Z" fill="#4AB7C3"/>
<path d="M357.036 196.48C355.596 196.48 354.332 196.192 353.244 195.616C352.156 195.008 351.308 194.16 350.7 193.072C350.124 191.984 349.836 190.72 349.836 189.28V169.12C349.836 167.68 350.124 166.416 350.7 165.328C351.308 164.24 352.156 163.408 353.244 162.832C354.332 162.224 355.596 161.92 357.036 161.92H366.012C367.452 161.92 368.716 162.224 369.804 162.832C370.892 163.408 371.724 164.24 372.3 165.328C372.908 166.416 373.212 167.68 373.212 169.12V189.28C373.212 190.72 372.908 191.984 372.3 193.072C371.724 194.16 370.892 195.008 369.804 195.616C368.716 196.192 367.452 196.48 366.012 196.48H357.036ZM363.564 189.904C364.364 189.904 364.972 189.696 365.388 189.28C365.804 188.864 366.012 188.272 366.012 187.504V170.896C366.012 170.128 365.804 169.536 365.388 169.12C364.972 168.704 364.364 168.496 363.564 168.496H359.484C358.716 168.496 358.108 168.704 357.66 169.12C357.244 169.536 357.036 170.128 357.036 170.896V187.504C357.036 188.272 357.244 188.864 357.66 189.28C358.108 189.696 358.716 189.904 359.484 189.904H363.564Z" fill="#4AB7C3"/>
<path d="M328.062 196V189.424H333.823V171.52H328.302V165.28H333.823V162.4H341.023V189.424H346.783V196H328.062Z" fill="#4AB7C3"/>
<path d="M343.316 269L344.66 262.424H350.42L354.212 244.52H348.692L350.036 238.28H355.604L356.18 235.4H363.38L357.62 262.424H363.38L362.036 269H343.316Z" fill="#4AB7C3"/>
<path d="M321.52 269L322.864 262.424H328.624L332.416 244.52H326.896L328.24 238.28H333.808L334.384 235.4H341.584L335.824 262.424H341.584L340.24 269H321.52Z" fill="#4AB7C3"/>
<circle cx="39.5" cy="210.5" r="10.5" fill="#4AB7C3"/>
<circle cx="109.5" cy="333.5" r="10.5" fill="#4AB7C3"/>
<circle cx="85.5" cy="85.5" r="10.5" fill="#4AB7C3"/>
<circle cx="213.5" cy="39.5" r="10.5" fill="#4AB7C3"/>
<circle cx="333.5" cy="110.5" r="10.5" fill="#4AB7C3"/>
<path d="M266.913 257.061C243.262 283.103 204.967 292.92 170.548 278.778C126.615 260.728 105.633 210.48 123.684 166.547C141.734 122.615 191.982 101.633 235.915 119.683C270.342 133.828 290.674 167.744 289.176 202.9L314.497 244.999L266.913 257.061ZM267.979 225.833C282.671 190.074 265.593 149.175 229.834 134.483C194.075 119.79 153.176 136.869 138.483 172.628C123.791 208.387 140.869 249.286 176.629 263.979C212.388 278.671 253.287 261.593 267.979 225.833Z" fill="#4AB7C3"/>
<path d="M203 145C233.376 145 258 169.624 258 200C258 230.376 233.376 255 203 255C172.624 255 148 230.376 148 200C148 169.624 172.624 145 203 145ZM184.673 172.001L183.196 178.773H180.732C178.844 178.773 177.182 179.102 175.745 179.759C174.349 180.416 173.2 181.381 172.297 182.653C171.394 183.926 170.737 185.506 170.326 187.395L169.219 192.628C168.849 194.311 168.911 195.85 169.403 197.246C169.896 198.642 170.717 199.812 171.866 200.756C173.015 201.7 174.37 202.356 175.93 202.726L185.166 204.881C186.151 205.086 186.848 205.558 187.259 206.297C187.669 206.995 187.752 207.836 187.506 208.821L187.136 210.73C186.93 211.592 186.54 212.269 185.966 212.762C185.432 213.213 184.735 213.439 183.873 213.439H164.785L162.999 221.875H174.031L172.604 228.648H180.917L182.344 221.875H185.351C187.239 221.875 188.881 221.546 190.276 220.89C191.713 220.233 192.883 219.269 193.786 217.996C194.73 216.724 195.407 215.143 195.817 213.255L197.111 207.221C197.481 205.538 197.418 203.998 196.926 202.603C196.433 201.207 195.612 200.037 194.463 199.093C193.314 198.108 191.939 197.431 190.338 197.062L181.04 194.968C180.096 194.722 179.419 194.249 179.009 193.552C178.598 192.854 178.516 192.012 178.762 191.027L179.009 189.919C179.214 189.016 179.584 188.338 180.117 187.887C180.651 187.435 181.369 187.209 182.271 187.209H197.419L200.683 184.5L201.852 178.773H191.509L192.985 172.001H184.673ZM202.464 212.7C202.094 214.465 202.176 216.108 202.71 217.627C203.285 219.105 204.23 220.294 205.543 221.197C206.897 222.059 208.457 222.491 210.222 222.491H224.384C226.272 222.491 227.914 222.163 229.31 221.506C230.746 220.849 231.916 219.884 232.819 218.611C233.763 217.339 234.441 215.758 234.852 213.87L242.302 178.773H233.065L226.17 211.346C225.965 212.208 225.575 212.885 225 213.378C224.466 213.829 223.768 214.056 222.906 214.056H214.963C213.814 214.056 212.993 213.748 212.5 213.132C212.007 212.516 211.885 211.654 212.131 210.546L218.904 178.773H209.668L202.464 212.7Z" fill="#4AB7C3"/>
<path d="M336.065 287.93C314.699 320.991 282.027 345.141 244.153 355.869C206.279 366.596 165.795 363.167 130.266 346.221" stroke="#4AB7C3" stroke-width="9" stroke-linecap="round"/>
</g>
<defs>
<clipPath id="clip0_852_237">
<rect width="400" height="400" fill="white"/>
</clipPath>
</defs>
</svg>
