<svg width="400" height="400" viewBox="0 0 400 400" fill="none" xmlns="http://www.w3.org/2000/svg">
<g clip-path="url(#clip0_852_404)">
<circle cx="200" cy="200" r="200" fill="#1E3237"/>
<path d="M253.656 250L256.662 235.685L281.285 199.61L273.984 164.108L276.99 149.793H305.764L309.343 182.718H310.775L327.237 149.793H358.588L355.582 164.108L333.25 200.183L342.555 235.685L339.548 250H310.918L305.192 217.075H303.76L285.15 250H253.656Z" fill="#4AB7C3"/>
<path d="M159.836 250L162.842 235.685L206.504 149.793H245.728L253.029 235.685L250.023 250H220.963L222.108 176.992H220.676L190.9 250H159.836ZM193.906 234.969L199.346 209.202H227.977L222.537 234.969H193.906Z" fill="#4AB7C3"/>
<path d="M37.4219 250L40.4281 235.685L66.4821 149.793H98.5485L104.99 194.171H106.422L131.474 149.793H166.69L156.383 235.685L153.376 250H121.167L132.046 198.465H130.615L109.858 235.685H86.953L81.9426 198.465H80.5111L69.6314 250H37.4219Z" fill="#4AB7C3"/>
<path d="M138.883 307.985V302.084H133.098V296.915H138.883V291.014H144.013V296.915H149.799V302.084H144.013V307.985H138.883Z" fill="#4AB7C3"/>
<path d="M108.293 313L109.296 308.101L122.063 297.494C122.397 297.211 122.667 296.954 122.873 296.723C123.079 296.491 123.233 296.26 123.336 296.029C123.464 295.771 123.567 295.489 123.644 295.18L123.992 293.483C124.146 292.763 124.069 292.223 123.76 291.863C123.452 291.477 122.95 291.284 122.256 291.284H114.85L113.577 289.703L114.387 286H125.187C126.293 286 127.257 286.283 128.08 286.849C128.929 287.414 129.533 288.173 129.893 289.124C130.253 290.05 130.317 291.053 130.086 292.133L129.276 295.913C129.122 296.659 128.916 297.289 128.659 297.803C128.427 298.317 128.093 298.819 127.656 299.307C127.219 299.796 126.627 300.349 125.882 300.966L117.859 307.484L117.82 307.716H127.502L126.422 313H108.293Z" fill="#4AB7C3"/>
<path d="M86 313L87.1186 307.716H99.0757C99.6157 307.716 100.053 307.574 100.387 307.291C100.747 306.983 100.991 306.559 101.12 306.019L101.351 304.823C101.506 304.206 101.454 303.679 101.197 303.241C100.94 302.779 100.503 302.483 99.8857 302.354L94.1 301.004C93.1229 300.773 92.2743 300.361 91.5543 299.77C90.8343 299.179 90.32 298.446 90.0114 297.571C89.7029 296.697 89.6643 295.733 89.8957 294.679L90.59 291.4C90.8471 290.217 91.2586 289.227 91.8243 288.43C92.39 287.633 93.11 287.029 93.9843 286.617C94.8843 286.206 95.9257 286 97.1086 286H110.339L109.606 289.587L107.561 291.284H98.0729C97.5071 291.284 97.0571 291.426 96.7229 291.709C96.3886 291.991 96.1571 292.416 96.0286 292.981L95.8743 293.676C95.72 294.293 95.7714 294.82 96.0286 295.257C96.2857 295.694 96.71 295.99 97.3014 296.144L103.126 297.456C104.129 297.687 104.99 298.111 105.71 298.729C106.43 299.32 106.944 300.053 107.253 300.927C107.561 301.801 107.6 302.766 107.369 303.82L106.559 307.6C106.301 308.783 105.877 309.773 105.286 310.57C104.72 311.367 103.987 311.971 103.087 312.383C102.213 312.794 101.184 313 100.001 313H86Z" fill="#4AB7C3"/>
<path d="M215.993 319.723C215.998 319.786 216 319.851 216 319.915V330.779L215.993 330.97C215.719 334.972 206.873 338.187 196 338.187C185.127 338.187 176.281 334.972 176.007 330.97L176 330.779V319.915C176 319.851 176.002 319.786 176.007 319.723C176.002 319.786 176 319.85 176 319.914C176 324.005 184.954 327.321 196 327.321C207.046 327.321 216 324.005 216 319.914C216 319.85 215.998 319.786 215.993 319.723ZM176.312 318.604C176.195 318.846 176.11 319.093 176.059 319.344L176.026 319.533C176.07 319.218 176.166 318.907 176.312 318.604ZM215.688 318.604C215.805 318.847 215.89 319.094 215.941 319.345L215.974 319.533C215.93 319.218 215.834 318.907 215.688 318.604Z" fill="#4AB7C3"/>
<ellipse cx="196.001" cy="318.679" rx="18.0247" ry="5.67901" fill="#4AB7C3"/>
<path d="M216 334.232V345.097L215.993 345.287C215.719 349.29 206.873 352.504 196 352.504C185.127 352.504 176.281 349.29 176.007 345.287L176 345.097V334.232C176 338.323 184.954 341.64 196 341.64C206.873 341.64 215.719 338.426 215.993 334.424L216 334.232Z" fill="#4AB7C3"/>
<path d="M196 341.639C207.045 341.639 216 344.955 216 349.046V359.91L215.993 360.102C215.719 364.104 206.873 367.317 196 367.317C185.127 367.317 176.281 364.104 176.007 360.102L176 359.91V349.046C176 344.955 184.955 341.639 196 341.639ZM196 341.641C184.955 341.641 176.001 344.957 176 349.048C176 353.139 184.954 356.456 196 356.456C207.046 356.456 216 353.139 216 349.048C215.999 344.957 207.045 341.641 196 341.641Z" fill="#4AB7C3"/>
<path d="M309.049 325.085C301.11 333.825 288.256 337.122 276.702 332.375C261.956 326.315 254.913 309.448 260.971 294.701C267.03 279.954 283.897 272.911 298.644 278.97C310.2 283.718 317.025 295.103 316.522 306.903L325.023 321.036L309.049 325.085ZM309.409 314.602C314.341 302.598 308.607 288.868 296.604 283.937C284.6 279.005 270.871 284.738 265.94 296.742C261.008 308.745 266.741 322.474 278.744 327.406C290.747 332.337 304.477 326.605 309.409 314.602Z" fill="#4AB7C3"/>
<path d="M287.595 287.467C297.791 287.467 306.057 295.733 306.057 305.93C306.056 316.126 297.791 324.392 287.595 324.392C277.399 324.391 269.133 316.126 269.133 305.93C269.133 295.733 277.398 287.467 287.595 287.467ZM281.444 296.529L280.948 298.803H280.121C279.487 298.803 278.929 298.913 278.447 299.134C277.979 299.354 277.593 299.678 277.29 300.105C276.987 300.533 276.767 301.063 276.629 301.696L276.257 303.453C276.133 304.018 276.153 304.535 276.318 305.004C276.484 305.472 276.76 305.865 277.146 306.182C277.531 306.498 277.986 306.719 278.51 306.843L281.609 307.566C281.94 307.635 282.175 307.794 282.312 308.042C282.45 308.276 282.477 308.559 282.395 308.89L282.271 309.53C282.202 309.819 282.071 310.047 281.878 310.212C281.699 310.363 281.465 310.439 281.176 310.439H274.769L274.169 313.271H277.872L277.394 315.545H280.184L280.662 313.271H281.672C282.306 313.27 282.857 313.161 283.325 312.94C283.807 312.72 284.2 312.396 284.503 311.969C284.82 311.542 285.048 311.011 285.186 310.377L285.619 308.352C285.743 307.787 285.723 307.27 285.558 306.802C285.392 306.333 285.116 305.941 284.73 305.624C284.345 305.293 283.883 305.065 283.346 304.941L280.225 304.239C279.908 304.157 279.681 303.998 279.543 303.764C279.405 303.529 279.377 303.247 279.46 302.916L279.543 302.544C279.612 302.241 279.736 302.014 279.915 301.862C280.094 301.711 280.335 301.635 280.638 301.635H285.723L286.818 300.726L287.211 298.803H283.738L284.234 296.529H281.444ZM287.416 310.191C287.292 310.784 287.32 311.335 287.499 311.845C287.692 312.341 288.009 312.741 288.45 313.044C288.905 313.333 289.428 313.478 290.021 313.478H294.774C295.408 313.478 295.959 313.368 296.428 313.147C296.91 312.927 297.302 312.603 297.605 312.176C297.922 311.749 298.15 311.218 298.288 310.584L300.789 298.803H297.688L295.374 309.736C295.305 310.026 295.174 310.254 294.981 310.419C294.802 310.571 294.568 310.646 294.278 310.646H291.612C291.226 310.646 290.951 310.543 290.785 310.336C290.62 310.129 290.578 309.84 290.661 309.468L292.935 298.803H289.835L287.416 310.191Z" fill="#4AB7C3"/>
<path d="M62 128.828C74.1347 102.564 93.4675 80.2789 117.755 64.5581C142.043 48.8372 170.291 40.3251 199.221 40.0091C228.151 39.6932 256.578 47.5864 281.203 62.773C305.829 77.9596 325.644 99.8171 338.349 125.81" stroke="#4AB7C3" stroke-width="10" stroke-linecap="round"/>
</g>
<defs>
<clipPath id="clip0_852_404">
<rect width="400" height="400" fill="white"/>
</clipPath>
</defs>
</svg>
